<svg xmlns="http://www.w3.org/2000/svg" xmlns:xlink="http://www.w3.org/1999/xlink" viewBox="0 0 200 200"><defs><style>.cls-1{isolation:isolate;}.cls-2{fill:url(#linear-gradient);}.cls-3{fill:url(#linear-gradient-2);}.cls-4{opacity:0.51;}.cls-4,.cls-6,.cls-8{mix-blend-mode:screen;}.cls-5{fill:url(#linear-gradient-6);}.cls-6{opacity:0.7;}.cls-7{fill:url(#linear-gradient-10);}.cls-8{opacity:0.49;}.cls-9{fill:#fff;}.cls-10{fill:none;stroke:#ccc;stroke-miterlimit:1;stroke-width:0.59px;}.cls-11{opacity:0.58;}.cls-12{fill:#959595;}</style><linearGradient id="linear-gradient" x1="100" x2="100" y2="200" gradientUnits="userSpaceOnUse"><stop offset="0" stop-color="#2e3192"/><stop offset="1" stop-color="#1b1464"/></linearGradient><linearGradient id="linear-gradient-2" x1="100" y1="169.19" x2="100" y2="30.81" gradientTransform="translate(-1 10)" gradientUnits="userSpaceOnUse"><stop offset="0" stop-color="#c6c6c6"/><stop offset="0.62" stop-color="#b1b1b1"/><stop offset="0.63" stop-color="#bebebe"/><stop offset="0.98" stop-color="#b8b8b8"/></linearGradient><linearGradient id="linear-gradient-6" x1="100" y1="169.19" x2="100" y2="30.81" gradientTransform="translate(-1 10)" gradientUnits="userSpaceOnUse"><stop offset="0" stop-color="#a6a6a6"/><stop offset="0.5" stop-color="#838383"/><stop offset="0.54" stop-color="#898989"/><stop offset="0.67" stop-color="#999"/><stop offset="0.81" stop-color="#a3a3a3"/><stop offset="1" stop-color="#a6a6a6"/></linearGradient><linearGradient id="linear-gradient-10" x1="100" y1="30.81" x2="100" y2="169.19" gradientTransform="translate(-1 10)" gradientUnits="userSpaceOnUse"><stop offset="0" stop-color="#fff" stop-opacity="0.77"/><stop offset="0.2" stop-color="#fff" stop-opacity="0.65"/><stop offset="0.34" stop-color="#fff" stop-opacity="0.65"/><stop offset="0.35" stop-color="#fff" stop-opacity="0.65"/><stop offset="0.37" stop-color="#fff" stop-opacity="0.62"/><stop offset="0.4" stop-color="#fff" stop-opacity="0.53"/><stop offset="0.43" stop-color="#fff" stop-opacity="0.39"/><stop offset="0.47" stop-color="#fff" stop-opacity="0.2"/><stop offset="0.51" stop-color="#fff" stop-opacity="0"/><stop offset="0.59" stop-color="#7e7e7e" stop-opacity="0.09"/><stop offset="1" stop-color="#1b1b1b" stop-opacity="0.16"/></linearGradient></defs><g class="cls-1"><g id="Layer_1" data-name="Layer 1"><circle class="cls-2" cx="100" cy="100" r="100"/><path class="cls-3" d="M52.66,142.21c-2.81,0-2.87-.57-3-1.52s.48-1.15,1.54-1.21c.21,0,.42,0,.61-.06h0a11.21,11.21,0,0,0,1.71-.49c.4-.13.74-.25.85-.27h.14l.05-.07c.46-.28.85-.5,1.19-.68,1.8-1,2.22-1.35,3.12-4.45l0-.07L56.49,46l-.27-.14a7.94,7.94,0,0,1-.83-.54,4,4,0,0,0-1.59-.87l-1.12-.24c-1-.21-1.37-.29-1.7-.87a1.78,1.78,0,0,1-.24-.66c0-.44.22-1,.53-1a5.54,5.54,0,0,1,2.15-.29,22.88,22.88,0,0,1,4,.49,18.82,18.82,0,0,0,3.25.42c.46,0,.92,0,1.36.08s.84.07,1.22.07A14.78,14.78,0,0,0,66.16,42a21.85,21.85,0,0,1,2.29-.37c.24,0,1.28.6,1.28,1.32a.78.78,0,0,1,0,.28l-.07.07,0,.07a4.06,4.06,0,0,1-.36.67,9.14,9.14,0,0,0-1.16,2.55,12.29,12.29,0,0,0-.63,3.48l.62,41.57,32.66-37,.33-.42a4.52,4.52,0,0,0,1.31-2.49,1,1,0,0,0-.22-.71,1.55,1.55,0,0,0-1-.92,2.11,2.11,0,0,1-1-.66,2.38,2.38,0,0,1-.34-1.57,5,5,0,0,1,1.92-.63,7.8,7.8,0,0,1,2.21.43,8.6,8.6,0,0,0,2.49.47.93.93,0,0,1,.4.08,1.14,1.14,0,0,0,.35.07,23.18,23.18,0,0,0,2.58-.49,33.07,33.07,0,0,1,4-.72c1.11,0,2.39.49,2.5,1.38a1.26,1.26,0,0,0,.13.54c0,.12,0,.31-.44.71a4.07,4.07,0,0,1-2,.79,9.48,9.48,0,0,0-4.79,2.23c-1.83,1.69-3.94,3.79-5.63,5.63L82.34,84.83,108,128.73a3.9,3.9,0,0,0,.91.84,1.92,1.92,0,0,1,.74.8,7.19,7.19,0,0,0,1.7,1.68c.28.23.53.43.67.57a6.07,6.07,0,0,0,2.5,1,5.92,5.92,0,0,0,1.24.18c1,.08,2.83.24,2.92.94-.56,2-.69,2.28-3.58,2.28h-1.36l-15.3.15c-2,0-2.75-.19-2.83-.78,0-1.26.7-1.52,1.83-1.85l.17-.05a3.62,3.62,0,0,0,1.79-2.72,1.42,1.42,0,0,0-.26-.79l-.1-.19L74.34,90.55l-.43.25A15.29,15.29,0,0,0,70.25,94a17,17,0,0,1-1.7,1.7c-.15.14-.25.22-.34.29a1.31,1.31,0,0,0-.6,1.16l.15,37.55c.4,2.93,1.47,3.94,1.92,4.38l0,0v.42a3.72,3.72,0,0,1-.75,2.23Z"/><path class="cls-3" d="M53.42,41.81a23.05,23.05,0,0,1,3.93.48,19.48,19.48,0,0,0,3.34.43c.43,0,.88,0,1.32.08s.85.07,1.26.07a14.84,14.84,0,0,0,3-.4c.7-.14,1.41-.28,2.12-.35.28.09.85.5.85.81v0h0l-.08.19a3.33,3.33,0,0,1-.33.59,10.42,10.42,0,0,0-1.22,2.69A13,13,0,0,0,67,50.06l.6,40.28,0,2.58L69.31,91l31.8-36,0,0,0,0,.3-.38a4.8,4.8,0,0,0,1.41-2.8,1.6,1.6,0,0,0-.27-1,2.08,2.08,0,0,0-1.3-1.14,1.55,1.55,0,0,1-.73-.46,1.58,1.58,0,0,1-.27-1,4.4,4.4,0,0,1,1.42-.43,7.24,7.24,0,0,1,2.06.41,9.1,9.1,0,0,0,2.64.49.52.52,0,0,1,.23.05,1.48,1.48,0,0,0,.52.1h.11c.63-.07,1.53-.27,2.57-.5a34.37,34.37,0,0,1,3.87-.71c1,0,1.9.42,2,.91a1.9,1.9,0,0,0,.11.55,1.82,1.82,0,0,1-.28.32l0,0,0,0a4.34,4.34,0,0,1-1.74.61,10,10,0,0,0-5,2.34c-1.85,1.69-4,3.81-5.66,5.66l0,0,0,0L82.17,84.25l-.43.53.34.59L107.52,129l0,.06,0,.06a4.6,4.6,0,0,0,1,.88,1.5,1.5,0,0,1,.59.61,6.91,6.91,0,0,0,1.83,1.85c.25.2.51.42.63.53a6.1,6.1,0,0,0,2.68,1.16,6.6,6.6,0,0,0,1.37.2,7.56,7.56,0,0,1,2.44.48c-.49,1.68-.6,1.75-3.06,1.75h-1.37l-15.29.15c-1.75,0-2.25-.16-2.33-.31,0-.88.42-1,1.47-1.34l.08,0,.09,0,.08-.05a4.08,4.08,0,0,0,2.07-3.16,1.93,1.93,0,0,0-.32-1l-.09-.17,0,0,0,0L75,90.71l-.51-.84-.85.5a15.7,15.7,0,0,0-3.78,3.28,15.11,15.11,0,0,1-1.65,1.65l0,0,0,0-.26.22a1.79,1.79,0,0,0-.79,1.55l.15,37.55v.13a7.11,7.11,0,0,0,2,4.51v.2a3.57,3.57,0,0,1-.49,1.74l-16.07.44c-2.31,0-2.4-.3-2.49-1s.07-.65,1.07-.72a5.6,5.6,0,0,0,.6-.05,10.07,10.07,0,0,0,1.86-.52l.73-.23h.17l.24-.15c.46-.28.84-.49,1.17-.68,1.88-1.06,2.41-1.47,3.36-4.74l0-.15v-.16L57,46.23l0-.6-.54-.26c-.16-.09-.48-.31-.76-.51a4.4,4.4,0,0,0-1.79-1c-.43-.11-.79-.18-1.12-.24-1-.2-1.14-.26-1.34-.61a2.27,2.27,0,0,1-.19-.43,1.1,1.1,0,0,1,.15-.55h.07l.06,0a5,5,0,0,1,1.9-.23m0-1a6,6,0,0,0-2.27.3,1.53,1.53,0,0,0-.91,1.52,2.24,2.24,0,0,0,.31.91c.6,1.06,1.36.9,3.18,1.36.45,0,1.66,1.06,2.27,1.36l2.42,87.06c-1.06,3.64-1.36,3.18-4.09,4.85-.15,0-2.27.76-2.57.76-1.06.15-2.58-.16-2.58,1.81.15,1.37.61,2,3.49,2l16.5-.45a3.87,3.87,0,0,0,1.06-2.73v-.6c-.15-.31-1.51-.91-2-4.24l-.15-37.55c0-.61.3-.61.76-1.06,1.66-1.37,2.79-3.38,5.3-4.85l24.37,39.82c.16.3.31.46.31.76a3.09,3.09,0,0,1-1.52,2.27c-1.06.3-2.27.61-2.27,2.42.15,1.06,1.36,1.21,3.33,1.21l15.3-.15h1.36c3.33,0,3.48-.6,4.09-2.72,0-1.67-3.79-1.37-4.55-1.67a5.93,5.93,0,0,1-2.27-.91c-.45-.45-2-1.51-2.27-2.12-.45-.9-1.06-.9-1.66-1.66L83,84.87l20.89-26.19c1.67-1.82,3.79-3.94,5.61-5.61,2.57-2.42,5.75-1.81,6.81-3,.45-.46.6-.76.6-1.06s-.15-.31-.15-.61c-.15-1.21-1.66-1.82-3-1.82-2,.16-5.15,1.06-6.52,1.21a3.05,3.05,0,0,0-.75-.15c-1.67,0-3-.9-4.7-.9a4.69,4.69,0,0,0-2.42.9,3.13,3.13,0,0,0,.46,2.12c.9,1.06,1.66.61,2,1.52a.55.55,0,0,1,.15.45c0,.91-1.06,2-1.51,2.58l-31.8,36L68,50.05a11.85,11.85,0,0,1,.6-3.33,15.7,15.7,0,0,1,1.52-3.18.94.94,0,0,0,.15-.61c0-1.06-1.36-1.82-1.82-1.82-1.81.15-3.48.76-5.14.76-.76,0-1.67-.15-2.58-.15-2,0-4.69-.91-7.27-.91Z"/><path class="cls-3" d="M115.49,178.69c-6.12,0-12-1.35-14.9-3.43-6.13-4.38-7.31-12.45-7.3-14.38,0-2.43,1.15-7.54,2.78-9.69a14.45,14.45,0,0,1,6-5A21.23,21.23,0,0,1,109.3,145a11,11,0,0,1,5.33,1c2.7,1.28,5.37,4.39,5.37,7.91,0,.22,0,5.58-4,5.58a3.4,3.4,0,0,1-.45,0,4.47,4.47,0,0,1-3.78-2.91c-.19-1-.18-2.48,2.1-3.39a1.87,1.87,0,0,1,.68-.15.72.72,0,0,1,.34.07l1.44,1.31-.66-1.86A7.84,7.84,0,0,0,110,148a10.5,10.5,0,0,0-2.57-.34c-4.63,0-8,3.37-9.4,6.25a15.41,15.41,0,0,0-.84,9.68c1.23,3.78,3.34,6.56,6.08,8.05a23.48,23.48,0,0,0,11.33,3.18,18.09,18.09,0,0,0,8.53-2.12c7.35-3.88,11.11-12.1,10.86-23.77L131.9,53.67a1.46,1.46,0,0,0-.1-.45,1.54,1.54,0,0,1-.05-.17V53l0,0-.18-.54a2.62,2.62,0,0,0-1.37-1.83,7.75,7.75,0,0,0-3.32-1,4,4,0,0,0-.63.08,2.55,2.55,0,0,1-.43.07,1.8,1.8,0,0,1-1.16-.31,2,2,0,0,1-.61-1.46,3,3,0,0,1,.61-1.77,4.38,4.38,0,0,1,3-.86l.92,0c2,0,4.53.12,7,.23s4.78.22,6.57.22a27.76,27.76,0,0,0,3.43-.27c.53-.07,1.06-.14,1.62-.18a1.13,1.13,0,0,1,.66.38v0l.09.13a3.21,3.21,0,0,1,.37,1.54,1.39,1.39,0,0,1-.46,1,3.36,3.36,0,0,1-1.77.31,5.42,5.42,0,0,0-1.7.55,5.65,5.65,0,0,1-.58.23,3.63,3.63,0,0,0-1.91,1.39,2.8,2.8,0,0,0-.85,2l1.21,98.43c0,.06-.51,9.33-4.29,16-3,5.35-10.84,9.47-16.84,11a35,35,0,0,1-5.64.43Z"/><path class="cls-3" d="M128.56,45.75c2,0,4.53.12,7,.23s4.8.22,6.6.22a26.4,26.4,0,0,0,3.49-.28l1.52-.17a1.06,1.06,0,0,1,.27.15l.1.16a2.68,2.68,0,0,1,.29,1.26.84.84,0,0,1-.26.6,3.29,3.29,0,0,1-1.47.22,5.45,5.45,0,0,0-1.9.59l-.51.21a4.22,4.22,0,0,0-2.16,1.54,3.29,3.29,0,0,0-1,2.3l1.21,98.39c0,.57-.61,9.4-4.22,15.8-2.94,5.21-10.6,9.25-16.49,10.8a34.61,34.61,0,0,1-5.56.42c-6,0-11.76-1.31-14.61-3.34-5.95-4.25-7.1-12.09-7.09-14,0-2.4,1.16-7.4,2.68-9.4a13.91,13.91,0,0,1,5.78-4.82,20.36,20.36,0,0,1,7-1.14,10.66,10.66,0,0,1,5.07.91l0,0,0,0c2.44,1.16,5,4.15,5,7.43,0,.2,0,5.07-3.5,5.07h-.4a4,4,0,0,1-3.34-2.51c-.18-1-.11-2.08,1.8-2.84a1.45,1.45,0,0,1,.49-.11h.06l2.81,2.56-1.27-3.7a8.42,8.42,0,0,0-6-4.88,10.48,10.48,0,0,0-2.69-.36c-4.86,0-8.34,3.52-9.85,6.53a16.11,16.11,0,0,0-.87,10.06c1.28,3.9,3.46,6.78,6.32,8.32a23.86,23.86,0,0,0,11.57,3.25,18.55,18.55,0,0,0,8.76-2.18c7.54-4,11.38-12.35,11.13-24.22L132.4,53.68a2.13,2.13,0,0,0-.12-.62l0-.07v-.08l-.05-.15-.17-.53a3.1,3.1,0,0,0-1.54-2.08,8.22,8.22,0,0,0-3.63-1.1,4,4,0,0,0-.72.09c-.11,0-.28.06-.34.06A1.74,1.74,0,0,1,125,49a1.53,1.53,0,0,1-.46-1.11,2.62,2.62,0,0,1,.43-1.37,3.89,3.89,0,0,1,2.7-.76l.9,0m18.59-1c-1.66.15-3.18.45-5,.45-3.63,0-9.69-.45-13.62-.45-2.27.15-2.73,0-4.24,1.06a3.41,3.41,0,0,0-.76,2.12,2.48,2.48,0,0,0,.76,1.81,2.22,2.22,0,0,0,1.51.46c.3,0,.76-.15,1.06-.15a7.43,7.43,0,0,1,3,.9c1.06.76.91.76,1.36,2.12,0,.16.15.46.15.61l2.12,95.24c.23,10.77-2.94,19.28-10.6,23.32a17.6,17.6,0,0,1-8.29,2.06,23.15,23.15,0,0,1-11.09-3.12c-2.44-1.33-4.59-3.9-5.85-7.76a15,15,0,0,1,.82-9.31c1.28-2.57,4.43-6,8.95-6a9.75,9.75,0,0,1,2.44.32,7.42,7.42,0,0,1,5.3,4.24,1,1,0,0,0-.65-.18,2.27,2.27,0,0,0-.86.18c-2.68,1.07-2.6,2.9-2.41,4a5,5,0,0,0,4.23,3.32,4,4,0,0,0,.49,0c4,0,4.5-4.91,4.5-6.07,0-3.64-2.72-7-5.6-8.33a11.49,11.49,0,0,0-5.6-1.06,21.5,21.5,0,0,0-7.42,1.21,14.83,14.83,0,0,0-6.21,5.15c-1.69,2.22-2.85,7.39-2.88,10,0,2,1.19,10.27,7.51,14.78,3.23,2.31,9.38,3.53,15.19,3.53a36.62,36.62,0,0,0,5.77-.44c6-1.58,14-5.69,17.15-11.29,3.88-6.87,4.35-16.27,4.35-16.27l-1.21-98.42a2.32,2.32,0,0,1,.75-1.66A3.23,3.23,0,0,1,144,49.89a12.23,12.23,0,0,1,2.12-.75,3.57,3.57,0,0,0,2.12-.46,1.87,1.87,0,0,0,.61-1.36,3.67,3.67,0,0,0-.46-1.82,1.52,1.52,0,0,0-1.21-.75Z"/><g class="cls-4"><path class="cls-5" d="M52.66,142.21c-2.81,0-2.87-.57-3-1.52s.48-1.15,1.54-1.21c.21,0,.42,0,.61-.06h0a11.21,11.21,0,0,0,1.71-.49c.4-.13.74-.25.85-.27h.14l.05-.07c.46-.28.85-.5,1.19-.68,1.8-1,2.22-1.35,3.12-4.45l0-.07L56.49,46l-.27-.14a7.94,7.94,0,0,1-.83-.54,4,4,0,0,0-1.59-.87l-1.12-.24c-1-.21-1.37-.29-1.7-.87a1.78,1.78,0,0,1-.24-.66c0-.44.22-1,.53-1a5.54,5.54,0,0,1,2.15-.29,22.88,22.88,0,0,1,4,.49,18.82,18.82,0,0,0,3.25.42c.46,0,.92,0,1.36.08s.84.07,1.22.07A14.78,14.78,0,0,0,66.16,42a21.85,21.85,0,0,1,2.29-.37c.24,0,1.28.6,1.28,1.32a.78.78,0,0,1,0,.28l-.07.07,0,.07a4.06,4.06,0,0,1-.36.67,9.14,9.14,0,0,0-1.16,2.55,12.29,12.29,0,0,0-.63,3.48l.62,41.57,32.66-37,.33-.42a4.52,4.52,0,0,0,1.31-2.49,1,1,0,0,0-.22-.71,1.55,1.55,0,0,0-1-.92,2.11,2.11,0,0,1-1-.66,2.38,2.38,0,0,1-.34-1.57,5,5,0,0,1,1.92-.63,7.8,7.8,0,0,1,2.21.43,8.6,8.6,0,0,0,2.49.47.93.93,0,0,1,.4.08,1.14,1.14,0,0,0,.35.07,23.18,23.18,0,0,0,2.58-.49,33.07,33.07,0,0,1,4-.72c1.11,0,2.39.49,2.5,1.38a1.26,1.26,0,0,0,.13.54c0,.12,0,.31-.44.71a4.07,4.07,0,0,1-2,.79,9.48,9.48,0,0,0-4.79,2.23c-1.83,1.69-3.94,3.79-5.63,5.63L82.34,84.83,108,128.73a3.9,3.9,0,0,0,.91.84,1.92,1.92,0,0,1,.74.8,7.19,7.19,0,0,0,1.7,1.68c.28.23.53.43.67.57a6.07,6.07,0,0,0,2.5,1,5.92,5.92,0,0,0,1.24.18c1,.08,2.83.24,2.92.94-.56,2-.69,2.28-3.58,2.28h-1.36l-15.3.15c-2,0-2.75-.19-2.83-.78,0-1.26.7-1.52,1.83-1.85l.17-.05a3.62,3.62,0,0,0,1.79-2.72,1.42,1.42,0,0,0-.26-.79l-.1-.19L74.34,90.55l-.43.25A15.29,15.29,0,0,0,70.25,94a17,17,0,0,1-1.7,1.7c-.15.14-.25.22-.34.29a1.31,1.31,0,0,0-.6,1.16l.15,37.55c.4,2.93,1.47,3.94,1.92,4.38l0,0v.42a3.72,3.72,0,0,1-.75,2.23Z"/><path class="cls-5" d="M53.42,41.81a23.05,23.05,0,0,1,3.93.48,19.48,19.48,0,0,0,3.34.43c.43,0,.88,0,1.32.08s.85.07,1.26.07a14.84,14.84,0,0,0,3-.4c.7-.14,1.41-.28,2.12-.35.28.09.85.5.85.81v0h0l-.08.19a3.33,3.33,0,0,1-.33.59,10.42,10.42,0,0,0-1.22,2.69A13,13,0,0,0,67,50.06l.6,40.28,0,2.58L69.31,91l31.8-36,0,0,0,0,.3-.38a4.8,4.8,0,0,0,1.41-2.8,1.6,1.6,0,0,0-.27-1,2.08,2.08,0,0,0-1.3-1.14,1.55,1.55,0,0,1-.73-.46,1.58,1.58,0,0,1-.27-1,4.4,4.4,0,0,1,1.42-.43,7.24,7.24,0,0,1,2.06.41,9.1,9.1,0,0,0,2.64.49.52.52,0,0,1,.23.05,1.48,1.48,0,0,0,.52.1h.11c.63-.07,1.53-.27,2.57-.5a34.37,34.37,0,0,1,3.87-.71c1,0,1.9.42,2,.91a1.9,1.9,0,0,0,.11.55,1.82,1.82,0,0,1-.28.32l0,0,0,0a4.34,4.34,0,0,1-1.74.61,10,10,0,0,0-5,2.34c-1.85,1.69-4,3.81-5.66,5.66l0,0,0,0L82.17,84.25l-.43.53.34.59L107.52,129l0,.06,0,.06a4.6,4.6,0,0,0,1,.88,1.5,1.5,0,0,1,.59.61,6.91,6.91,0,0,0,1.83,1.85c.25.2.51.42.63.53a6.1,6.1,0,0,0,2.68,1.16,6.6,6.6,0,0,0,1.37.2,7.56,7.56,0,0,1,2.44.48c-.49,1.68-.6,1.75-3.06,1.75h-1.37l-15.29.15c-1.75,0-2.25-.16-2.33-.31,0-.88.42-1,1.47-1.34l.08,0,.09,0,.08-.05a4.08,4.08,0,0,0,2.07-3.16,1.93,1.93,0,0,0-.32-1l-.09-.17,0,0,0,0L75,90.71l-.51-.84-.85.5a15.7,15.7,0,0,0-3.78,3.28,15.11,15.11,0,0,1-1.65,1.65l0,0,0,0-.26.22a1.79,1.79,0,0,0-.79,1.55l.15,37.55v.13a7.11,7.11,0,0,0,2,4.51v.2a3.57,3.57,0,0,1-.49,1.74l-16.07.44c-2.31,0-2.4-.3-2.49-1s.07-.65,1.07-.72a5.6,5.6,0,0,0,.6-.05,10.07,10.07,0,0,0,1.86-.52l.73-.23h.17l.24-.15c.46-.28.84-.49,1.17-.68,1.88-1.06,2.41-1.47,3.36-4.74l0-.15v-.16L57,46.23l0-.6-.54-.26c-.16-.09-.48-.31-.76-.51a4.4,4.4,0,0,0-1.79-1c-.43-.11-.79-.18-1.12-.24-1-.2-1.14-.26-1.34-.61a2.27,2.27,0,0,1-.19-.43,1.1,1.1,0,0,1,.15-.55h.07l.06,0a5,5,0,0,1,1.9-.23m0-1a6,6,0,0,0-2.27.3,1.53,1.53,0,0,0-.91,1.52,2.24,2.24,0,0,0,.31.91c.6,1.06,1.36.9,3.18,1.36.45,0,1.66,1.06,2.27,1.36l2.42,87.06c-1.06,3.64-1.36,3.18-4.09,4.85-.15,0-2.27.76-2.57.76-1.06.15-2.58-.16-2.58,1.81.15,1.37.61,2,3.49,2l16.5-.45a3.87,3.87,0,0,0,1.06-2.73v-.6c-.15-.31-1.51-.91-2-4.24l-.15-37.55c0-.61.3-.61.76-1.06,1.66-1.37,2.79-3.38,5.3-4.85l24.37,39.82c.16.3.31.46.31.76a3.09,3.09,0,0,1-1.52,2.27c-1.06.3-2.27.61-2.27,2.42.15,1.06,1.36,1.21,3.33,1.21l15.3-.15h1.36c3.33,0,3.48-.6,4.09-2.72,0-1.67-3.79-1.37-4.55-1.67a5.93,5.93,0,0,1-2.27-.91c-.45-.45-2-1.51-2.27-2.12-.45-.9-1.06-.9-1.66-1.66L83,84.87l20.89-26.19c1.67-1.82,3.79-3.94,5.61-5.61,2.57-2.42,5.75-1.81,6.81-3,.45-.46.6-.76.6-1.06s-.15-.31-.15-.61c-.15-1.21-1.66-1.82-3-1.82-2,.16-5.15,1.06-6.52,1.21a3.05,3.05,0,0,0-.75-.15c-1.67,0-3-.9-4.7-.9a4.69,4.69,0,0,0-2.42.9,3.13,3.13,0,0,0,.46,2.12c.9,1.06,1.66.61,2,1.52a.55.55,0,0,1,.15.45c0,.91-1.06,2-1.51,2.58l-31.8,36L68,50.05a11.85,11.85,0,0,1,.6-3.33,15.7,15.7,0,0,1,1.52-3.18.94.94,0,0,0,.15-.61c0-1.06-1.36-1.82-1.82-1.82-1.81.15-3.48.76-5.14.76-.76,0-1.67-.15-2.58-.15-2,0-4.69-.91-7.27-.91Z"/><path class="cls-5" d="M115.49,178.69c-6.12,0-12-1.35-14.9-3.43-6.13-4.38-7.31-12.45-7.3-14.38,0-2.43,1.15-7.54,2.78-9.69a14.45,14.45,0,0,1,6-5A21.23,21.23,0,0,1,109.3,145a11,11,0,0,1,5.33,1c2.7,1.28,5.37,4.39,5.37,7.91,0,.22,0,5.58-4,5.58a3.4,3.4,0,0,1-.45,0,4.47,4.47,0,0,1-3.78-2.91c-.19-1-.18-2.48,2.1-3.39a1.87,1.87,0,0,1,.68-.15.72.72,0,0,1,.34.07l1.44,1.31-.66-1.86A7.84,7.84,0,0,0,110,148a10.5,10.5,0,0,0-2.57-.34c-4.63,0-8,3.37-9.4,6.25a15.41,15.41,0,0,0-.84,9.68c1.23,3.78,3.34,6.56,6.08,8.05a23.48,23.48,0,0,0,11.33,3.18,18.09,18.09,0,0,0,8.53-2.12c7.35-3.88,11.11-12.1,10.86-23.77L131.9,53.67a1.46,1.46,0,0,0-.1-.45,1.54,1.54,0,0,1-.05-.17V53l0,0-.18-.54a2.62,2.62,0,0,0-1.37-1.83,7.75,7.75,0,0,0-3.32-1,4,4,0,0,0-.63.08,2.55,2.55,0,0,1-.43.07,1.8,1.8,0,0,1-1.16-.31,2,2,0,0,1-.61-1.46,3,3,0,0,1,.61-1.77,4.38,4.38,0,0,1,3-.86l.92,0c2,0,4.53.12,7,.23s4.78.22,6.57.22a27.76,27.76,0,0,0,3.43-.27c.53-.07,1.06-.14,1.62-.18a1.13,1.13,0,0,1,.66.38v0l.09.13a3.21,3.21,0,0,1,.37,1.54,1.39,1.39,0,0,1-.46,1,3.36,3.36,0,0,1-1.77.31,5.42,5.42,0,0,0-1.7.55,5.65,5.65,0,0,1-.58.23,3.63,3.63,0,0,0-1.91,1.39,2.8,2.8,0,0,0-.85,2l1.21,98.43c0,.06-.51,9.33-4.29,16-3,5.35-10.84,9.47-16.84,11a35,35,0,0,1-5.64.43Z"/><path class="cls-5" d="M128.56,45.75c2,0,4.53.12,7,.23s4.8.22,6.6.22a26.4,26.4,0,0,0,3.49-.28l1.52-.17a1.06,1.06,0,0,1,.27.15l.1.16a2.68,2.68,0,0,1,.29,1.26.84.84,0,0,1-.26.6,3.29,3.29,0,0,1-1.47.22,5.45,5.45,0,0,0-1.9.59l-.51.21a4.22,4.22,0,0,0-2.16,1.54,3.29,3.29,0,0,0-1,2.3l1.21,98.39c0,.57-.61,9.4-4.22,15.8-2.94,5.21-10.6,9.25-16.49,10.8a34.61,34.61,0,0,1-5.56.42c-6,0-11.76-1.31-14.61-3.34-5.95-4.25-7.1-12.09-7.09-14,0-2.4,1.16-7.4,2.68-9.4a13.91,13.91,0,0,1,5.78-4.82,20.36,20.36,0,0,1,7-1.14,10.66,10.66,0,0,1,5.07.91l0,0,0,0c2.44,1.16,5,4.15,5,7.43,0,.2,0,5.07-3.5,5.07h-.4a4,4,0,0,1-3.34-2.51c-.18-1-.11-2.08,1.8-2.84a1.45,1.45,0,0,1,.49-.11h.06l2.81,2.56-1.27-3.7a8.42,8.42,0,0,0-6-4.88,10.48,10.48,0,0,0-2.69-.36c-4.86,0-8.34,3.52-9.85,6.53a16.11,16.11,0,0,0-.87,10.06c1.28,3.9,3.46,6.78,6.32,8.32a23.86,23.86,0,0,0,11.57,3.25,18.55,18.55,0,0,0,8.76-2.18c7.54-4,11.38-12.35,11.13-24.22L132.4,53.68a2.13,2.13,0,0,0-.12-.62l0-.07v-.08l-.05-.15-.17-.53a3.1,3.1,0,0,0-1.54-2.08,8.22,8.22,0,0,0-3.63-1.1,4,4,0,0,0-.72.09c-.11,0-.28.06-.34.06A1.74,1.74,0,0,1,125,49a1.53,1.53,0,0,1-.46-1.11,2.62,2.62,0,0,1,.43-1.37,3.89,3.89,0,0,1,2.7-.76l.9,0m18.59-1c-1.66.15-3.18.45-5,.45-3.63,0-9.69-.45-13.62-.45-2.27.15-2.73,0-4.24,1.06a3.41,3.41,0,0,0-.76,2.12,2.48,2.48,0,0,0,.76,1.81,2.22,2.22,0,0,0,1.51.46c.3,0,.76-.15,1.06-.15a7.43,7.43,0,0,1,3,.9c1.06.76.91.76,1.36,2.12,0,.16.15.46.15.61l2.12,95.24c.23,10.77-2.94,19.28-10.6,23.32a17.6,17.6,0,0,1-8.29,2.06,23.15,23.15,0,0,1-11.09-3.12c-2.44-1.33-4.59-3.9-5.85-7.76a15,15,0,0,1,.82-9.31c1.28-2.57,4.43-6,8.95-6a9.75,9.75,0,0,1,2.44.32,7.42,7.42,0,0,1,5.3,4.24,1,1,0,0,0-.65-.18,2.27,2.27,0,0,0-.86.18c-2.68,1.07-2.6,2.9-2.41,4a5,5,0,0,0,4.23,3.32,4,4,0,0,0,.49,0c4,0,4.5-4.91,4.5-6.07,0-3.64-2.72-7-5.6-8.33a11.49,11.49,0,0,0-5.6-1.06,21.5,21.5,0,0,0-7.42,1.21,14.83,14.83,0,0,0-6.21,5.15c-1.69,2.22-2.85,7.39-2.88,10,0,2,1.19,10.27,7.51,14.78,3.23,2.31,9.38,3.53,15.19,3.53a36.62,36.62,0,0,0,5.77-.44c6-1.58,14-5.69,17.15-11.29,3.88-6.87,4.35-16.27,4.35-16.27l-1.21-98.42a2.32,2.32,0,0,1,.75-1.66A3.23,3.23,0,0,1,144,49.89a12.23,12.23,0,0,1,2.12-.75,3.57,3.57,0,0,0,2.12-.46,1.87,1.87,0,0,0,.61-1.36,3.67,3.67,0,0,0-.46-1.82,1.52,1.52,0,0,0-1.21-.75Z"/></g><g class="cls-6"><path class="cls-7" d="M52.66,142.21c-2.81,0-2.87-.57-3-1.52s.48-1.15,1.54-1.21c.21,0,.42,0,.61-.06h0a11.21,11.21,0,0,0,1.71-.49c.4-.13.74-.25.85-.27h.14l.05-.07c.46-.28.85-.5,1.19-.68,1.8-1,2.22-1.35,3.12-4.45l0-.07L56.49,46l-.27-.14a7.94,7.94,0,0,1-.83-.54,4,4,0,0,0-1.59-.87l-1.12-.24c-1-.21-1.37-.29-1.7-.87a1.78,1.78,0,0,1-.24-.66c0-.44.22-1,.53-1a5.54,5.54,0,0,1,2.15-.29,22.88,22.88,0,0,1,4,.49,18.82,18.82,0,0,0,3.25.42c.46,0,.92,0,1.36.08s.84.07,1.22.07A14.78,14.78,0,0,0,66.16,42a21.85,21.85,0,0,1,2.29-.37c.24,0,1.28.6,1.28,1.32a.78.78,0,0,1,0,.28l-.07.07,0,.07a4.06,4.06,0,0,1-.36.67,9.14,9.14,0,0,0-1.16,2.55,12.29,12.29,0,0,0-.63,3.48l.62,41.57,32.66-37,.33-.42a4.52,4.52,0,0,0,1.31-2.49,1,1,0,0,0-.22-.71,1.55,1.55,0,0,0-1-.92,2.11,2.11,0,0,1-1-.66,2.38,2.38,0,0,1-.34-1.57,5,5,0,0,1,1.92-.63,7.8,7.8,0,0,1,2.21.43,8.6,8.6,0,0,0,2.49.47.93.93,0,0,1,.4.08,1.14,1.14,0,0,0,.35.07,23.18,23.18,0,0,0,2.58-.49,33.07,33.07,0,0,1,4-.72c1.11,0,2.39.49,2.5,1.38a1.26,1.26,0,0,0,.13.54c0,.12,0,.31-.44.71a4.07,4.07,0,0,1-2,.79,9.48,9.48,0,0,0-4.79,2.23c-1.83,1.69-3.94,3.79-5.63,5.63L82.34,84.83,108,128.73a3.9,3.9,0,0,0,.91.84,1.92,1.92,0,0,1,.74.8,7.19,7.19,0,0,0,1.7,1.68c.28.23.53.43.67.57a6.07,6.07,0,0,0,2.5,1,5.92,5.92,0,0,0,1.24.18c1,.08,2.83.24,2.92.94-.56,2-.69,2.28-3.58,2.28h-1.36l-15.3.15c-2,0-2.75-.19-2.83-.78,0-1.26.7-1.52,1.83-1.85l.17-.05a3.62,3.62,0,0,0,1.79-2.72,1.42,1.42,0,0,0-.26-.79l-.1-.19L74.34,90.55l-.43.25A15.29,15.29,0,0,0,70.25,94a17,17,0,0,1-1.7,1.7c-.15.14-.25.22-.34.29a1.31,1.31,0,0,0-.6,1.16l.15,37.55c.4,2.93,1.47,3.94,1.92,4.38l0,0v.42a3.72,3.72,0,0,1-.75,2.23Z"/><path class="cls-7" d="M53.42,41.81a23.05,23.05,0,0,1,3.93.48,19.48,19.48,0,0,0,3.34.43c.43,0,.88,0,1.32.08s.85.07,1.26.07a14.84,14.84,0,0,0,3-.4c.7-.14,1.41-.28,2.12-.35.28.09.85.5.85.81v0h0l-.08.19a3.33,3.33,0,0,1-.33.59,10.42,10.42,0,0,0-1.22,2.69A13,13,0,0,0,67,50.06l.6,40.28,0,2.58L69.31,91l31.8-36,0,0,0,0,.3-.38a4.8,4.8,0,0,0,1.41-2.8,1.6,1.6,0,0,0-.27-1,2.08,2.08,0,0,0-1.3-1.14,1.55,1.55,0,0,1-.73-.46,1.58,1.58,0,0,1-.27-1,4.4,4.4,0,0,1,1.42-.43,7.24,7.24,0,0,1,2.06.41,9.1,9.1,0,0,0,2.64.49.52.52,0,0,1,.23.05,1.48,1.48,0,0,0,.52.1h.11c.63-.07,1.53-.27,2.57-.5a34.37,34.37,0,0,1,3.87-.71c1,0,1.9.42,2,.91a1.9,1.9,0,0,0,.11.55,1.82,1.82,0,0,1-.28.32l0,0,0,0a4.34,4.34,0,0,1-1.74.61,10,10,0,0,0-5,2.34c-1.85,1.69-4,3.81-5.66,5.66l0,0,0,0L82.17,84.25l-.43.53.34.59L107.52,129l0,.06,0,.06a4.6,4.6,0,0,0,1,.88,1.5,1.5,0,0,1,.59.61,6.91,6.91,0,0,0,1.83,1.85c.25.2.51.42.63.53a6.1,6.1,0,0,0,2.68,1.16,6.6,6.6,0,0,0,1.37.2,7.56,7.56,0,0,1,2.44.48c-.49,1.68-.6,1.75-3.06,1.75h-1.37l-15.29.15c-1.75,0-2.25-.16-2.33-.31,0-.88.42-1,1.47-1.34l.08,0,.09,0,.08-.05a4.08,4.08,0,0,0,2.07-3.16,1.93,1.93,0,0,0-.32-1l-.09-.17,0,0,0,0L75,90.71l-.51-.84-.85.5a15.7,15.7,0,0,0-3.78,3.28,15.11,15.11,0,0,1-1.65,1.65l0,0,0,0-.26.22a1.79,1.79,0,0,0-.79,1.55l.15,37.55v.13a7.11,7.11,0,0,0,2,4.51v.2a3.57,3.57,0,0,1-.49,1.74l-16.07.44c-2.31,0-2.4-.3-2.49-1s.07-.65,1.07-.72a5.6,5.6,0,0,0,.6-.05,10.07,10.07,0,0,0,1.86-.52l.73-.23h.17l.24-.15c.46-.28.84-.49,1.17-.68,1.88-1.06,2.41-1.47,3.36-4.74l0-.15v-.16L57,46.23l0-.6-.54-.26c-.16-.09-.48-.31-.76-.51a4.4,4.4,0,0,0-1.79-1c-.43-.11-.79-.18-1.12-.24-1-.2-1.14-.26-1.34-.61a2.27,2.27,0,0,1-.19-.43,1.1,1.1,0,0,1,.15-.55h.07l.06,0a5,5,0,0,1,1.9-.23m0-1a6,6,0,0,0-2.27.3,1.53,1.53,0,0,0-.91,1.52,2.24,2.24,0,0,0,.31.91c.6,1.06,1.36.9,3.18,1.36.45,0,1.66,1.06,2.27,1.36l2.42,87.06c-1.06,3.64-1.36,3.18-4.09,4.85-.15,0-2.27.76-2.57.76-1.06.15-2.58-.16-2.58,1.81.15,1.37.61,2,3.49,2l16.5-.45a3.87,3.87,0,0,0,1.06-2.73v-.6c-.15-.31-1.51-.91-2-4.24l-.15-37.55c0-.61.3-.61.76-1.06,1.66-1.37,2.79-3.38,5.3-4.85l24.37,39.82c.16.3.31.46.31.76a3.09,3.09,0,0,1-1.52,2.27c-1.06.3-2.27.61-2.27,2.42.15,1.06,1.36,1.21,3.33,1.21l15.3-.15h1.36c3.33,0,3.48-.6,4.09-2.72,0-1.67-3.79-1.37-4.55-1.67a5.93,5.93,0,0,1-2.27-.91c-.45-.45-2-1.51-2.27-2.12-.45-.9-1.06-.9-1.66-1.66L83,84.87l20.89-26.19c1.67-1.82,3.79-3.94,5.61-5.61,2.57-2.42,5.75-1.81,6.81-3,.45-.46.6-.76.6-1.06s-.15-.31-.15-.61c-.15-1.21-1.66-1.82-3-1.82-2,.16-5.15,1.06-6.52,1.21a3.05,3.05,0,0,0-.75-.15c-1.67,0-3-.9-4.7-.9a4.69,4.69,0,0,0-2.42.9,3.13,3.13,0,0,0,.46,2.12c.9,1.06,1.66.61,2,1.52a.55.55,0,0,1,.15.45c0,.91-1.06,2-1.51,2.58l-31.8,36L68,50.05a11.85,11.85,0,0,1,.6-3.33,15.7,15.7,0,0,1,1.52-3.18.94.94,0,0,0,.15-.61c0-1.06-1.36-1.82-1.82-1.82-1.81.15-3.48.76-5.14.76-.76,0-1.67-.15-2.58-.15-2,0-4.69-.91-7.27-.91Z"/><path class="cls-7" d="M115.49,178.69c-6.12,0-12-1.35-14.9-3.43-6.13-4.38-7.31-12.45-7.3-14.38,0-2.43,1.15-7.54,2.78-9.69a14.45,14.45,0,0,1,6-5A21.23,21.23,0,0,1,109.3,145a11,11,0,0,1,5.33,1c2.7,1.28,5.37,4.39,5.37,7.91,0,.22,0,5.58-4,5.58a3.4,3.4,0,0,1-.45,0,4.47,4.47,0,0,1-3.78-2.91c-.19-1-.18-2.48,2.1-3.39a1.87,1.87,0,0,1,.68-.15.72.72,0,0,1,.34.07l1.44,1.31-.66-1.86A7.84,7.84,0,0,0,110,148a10.5,10.5,0,0,0-2.57-.34c-4.63,0-8,3.37-9.4,6.25a15.41,15.41,0,0,0-.84,9.68c1.23,3.78,3.34,6.56,6.08,8.05a23.48,23.48,0,0,0,11.33,3.18,18.09,18.09,0,0,0,8.53-2.12c7.35-3.88,11.11-12.1,10.86-23.77L131.9,53.67a1.46,1.46,0,0,0-.1-.45,1.54,1.54,0,0,1-.05-.17V53l0,0-.18-.54a2.62,2.62,0,0,0-1.37-1.83,7.75,7.75,0,0,0-3.32-1,4,4,0,0,0-.63.08,2.55,2.55,0,0,1-.43.07,1.8,1.8,0,0,1-1.16-.31,2,2,0,0,1-.61-1.46,3,3,0,0,1,.61-1.77,4.38,4.38,0,0,1,3-.86l.92,0c2,0,4.53.12,7,.23s4.78.22,6.57.22a27.76,27.76,0,0,0,3.43-.27c.53-.07,1.06-.14,1.62-.18a1.13,1.13,0,0,1,.66.38v0l.09.13a3.21,3.21,0,0,1,.37,1.54,1.39,1.39,0,0,1-.46,1,3.36,3.36,0,0,1-1.77.31,5.42,5.42,0,0,0-1.7.55,5.65,5.65,0,0,1-.58.23,3.63,3.63,0,0,0-1.91,1.39,2.8,2.8,0,0,0-.85,2l1.21,98.43c0,.06-.51,9.33-4.29,16-3,5.35-10.84,9.47-16.84,11a35,35,0,0,1-5.64.43Z"/><path class="cls-7" d="M128.56,45.75c2,0,4.53.12,7,.23s4.8.22,6.6.22a26.4,26.4,0,0,0,3.49-.28l1.52-.17a1.06,1.06,0,0,1,.27.15l.1.16a2.68,2.68,0,0,1,.29,1.26.84.84,0,0,1-.26.6,3.29,3.29,0,0,1-1.47.22,5.45,5.45,0,0,0-1.9.59l-.51.21a4.22,4.22,0,0,0-2.16,1.54,3.29,3.29,0,0,0-1,2.3l1.21,98.39c0,.57-.61,9.4-4.22,15.8-2.94,5.21-10.6,9.25-16.49,10.8a34.61,34.61,0,0,1-5.56.42c-6,0-11.76-1.31-14.61-3.34-5.95-4.25-7.1-12.09-7.09-14,0-2.4,1.16-7.4,2.68-9.4a13.91,13.91,0,0,1,5.78-4.82,20.36,20.36,0,0,1,7-1.14,10.66,10.66,0,0,1,5.07.91l0,0,0,0c2.44,1.16,5,4.15,5,7.43,0,.2,0,5.07-3.5,5.07h-.4a4,4,0,0,1-3.34-2.51c-.18-1-.11-2.08,1.8-2.84a1.45,1.45,0,0,1,.49-.11h.06l2.81,2.56-1.27-3.7a8.42,8.42,0,0,0-6-4.88,10.48,10.48,0,0,0-2.69-.36c-4.86,0-8.34,3.52-9.85,6.53a16.11,16.11,0,0,0-.87,10.06c1.28,3.9,3.46,6.78,6.32,8.32a23.86,23.86,0,0,0,11.57,3.25,18.55,18.55,0,0,0,8.76-2.18c7.54-4,11.38-12.35,11.13-24.22L132.4,53.68a2.13,2.13,0,0,0-.12-.62l0-.07v-.08l-.05-.15-.17-.53a3.1,3.1,0,0,0-1.54-2.08,8.22,8.22,0,0,0-3.63-1.1,4,4,0,0,0-.72.09c-.11,0-.28.06-.34.06A1.74,1.74,0,0,1,125,49a1.53,1.53,0,0,1-.46-1.11,2.62,2.62,0,0,1,.43-1.37,3.89,3.89,0,0,1,2.7-.76l.9,0m18.59-1c-1.66.15-3.18.45-5,.45-3.63,0-9.69-.45-13.62-.45-2.27.15-2.73,0-4.24,1.06a3.41,3.41,0,0,0-.76,2.12,2.48,2.48,0,0,0,.76,1.81,2.22,2.22,0,0,0,1.51.46c.3,0,.76-.15,1.06-.15a7.43,7.43,0,0,1,3,.9c1.06.76.91.76,1.36,2.12,0,.16.15.46.15.61l2.12,95.24c.23,10.77-2.94,19.28-10.6,23.32a17.6,17.6,0,0,1-8.29,2.06,23.15,23.15,0,0,1-11.09-3.12c-2.44-1.33-4.59-3.9-5.85-7.76a15,15,0,0,1,.82-9.31c1.28-2.57,4.43-6,8.95-6a9.75,9.75,0,0,1,2.44.32,7.42,7.42,0,0,1,5.3,4.24,1,1,0,0,0-.65-.18,2.27,2.27,0,0,0-.86.18c-2.68,1.07-2.6,2.9-2.41,4a5,5,0,0,0,4.23,3.32,4,4,0,0,0,.49,0c4,0,4.5-4.91,4.5-6.07,0-3.64-2.72-7-5.6-8.33a11.49,11.49,0,0,0-5.6-1.06,21.5,21.5,0,0,0-7.42,1.21,14.83,14.83,0,0,0-6.21,5.15c-1.69,2.22-2.85,7.39-2.88,10,0,2,1.19,10.27,7.51,14.78,3.23,2.31,9.38,3.53,15.19,3.53a36.62,36.62,0,0,0,5.77-.44c6-1.58,14-5.69,17.15-11.29,3.88-6.87,4.35-16.27,4.35-16.27l-1.21-98.42a2.32,2.32,0,0,1,.75-1.66A3.23,3.23,0,0,1,144,49.89a12.23,12.23,0,0,1,2.12-.75,3.57,3.57,0,0,0,2.12-.46,1.87,1.87,0,0,0,.61-1.36,3.67,3.67,0,0,0-.46-1.82,1.52,1.52,0,0,0-1.21-.75Z"/></g><g class="cls-8"><path class="cls-9" d="M52.65,141.5c-1.1,0-2.46.13-2.62-1.21V141c0-1.13,1.6-.77,2.45-1,.62-.17,1.25-.39,1.87-.59a6.59,6.59,0,0,0,1.24-.63,6.57,6.57,0,0,0,2.59-2.07,8.27,8.27,0,0,0,1.1-3,21.82,21.82,0,0,0-.06-2.8l-.51-18.26-.78-27.79-.72-26L57,49.9l-.08-2.83a5.78,5.78,0,0,0,0-1.5.61.61,0,0,1,0-.19v0A19.26,19.26,0,0,0,54,43.71c-1.12-.33-2.47-.13-2.86-1.45V43c.22-1.5,3-1,4.08-.84,1.78.22,3.52.71,5.32.78a21.84,21.84,0,0,0,5.11-.12c1.1-.21,3.35-1.17,3.77.48v-.67c0,.32-.39.77-.54,1a11.2,11.2,0,0,0-1,2,13.41,13.41,0,0,0-.79,4.2c0,.48,0,1,0,1.43l.13,8.78.39,26.19.1,6.59a.07.07,0,0,0,0,.05l13.5-15.3L99.59,56.81c.47-.53,1-1.05,1.41-1.6.92-1.09,1.79-2.19,1.73-3.68a2.3,2.3,0,0,0-.63-1.63c-.88-.9-1.9-.61-1.94-2.19v.71c1.62-.76,2.83-.25,4.48.16a8.55,8.55,0,0,0,3.76.21c1.55-.3,3.09-.72,4.66-.94a3.49,3.49,0,0,1,2.07.22c.68.33.65.71.88,1.37v-.72s-.7.6-.79.65a9.28,9.28,0,0,1-2,.55,9.74,9.74,0,0,0-4.34,2.17,58,58,0,0,0-5.7,5.71c-1.24,1.47-2.4,3-3.6,4.52L85.69,79.7l-3.77,4.73a2,2,0,0,0,0,.73l10.67,18.3,14.13,24.22a8.07,8.07,0,0,0,1.83,2.46c.81.67,1.35,1.56,2.18,2.26a7.78,7.78,0,0,0,2.6,1.67,20.79,20.79,0,0,0,3.51.61c.38.06,1.16.09,1.43.46v-.72c-.23.78-.4,1.56-1.27,1.81a10.87,10.87,0,0,1-2.85.12l-2.76,0-11.4.11c-.9,0-3.79.38-4.08-.46v.71c0-.84.48-1.09,1.22-1.34a3.51,3.51,0,0,0,1.76-1.21,3.74,3.74,0,0,0,.81-2.63,4.21,4.21,0,0,0-.85-2L94.24,122l-14.67-24L75,90.52c-.48-.78-.33-.92-1.21-.39A21.34,21.34,0,0,0,69.44,94c-.87.92-2.1,1.53-2.18,2.89-.13,2,0,4.1,0,6.13l0,13.62L67.39,130c0,2.18-.25,4.56.35,6.69a6.41,6.41,0,0,0,1.64,2.94v-.37c0,.63-.18,1.61-.8,1.8a6.59,6.59,0,0,1-1.54,0l-5.55.15-8.83.25s0,.72,0,.72l9.2-.25,5.57-.15a4.27,4.27,0,0,0,1.29,0c.56-.26.65-1.42.67-2s0-.79-.33-1.23a8.33,8.33,0,0,1-1.64-4.23v.26l-.13-32.85,0-4.7v.46a2.33,2.33,0,0,1,1.07-1.72c.76-.67,1.43-1.42,2.12-2.16a16.19,16.19,0,0,1,2-1.92c.3-.24,1.37-1.2,1.84-1.19s.66.82.88,1.17l5.41,8.84,15.22,24.87,2.59,4.23a6.92,6.92,0,0,1,1.26,2.55v-.72a3.76,3.76,0,0,1-2.21,3.11c-.94.38-1.54.48-1.59,1.6-.05,1.38,1.65,1.07,2.7,1.06,3.46,0,6.91-.07,10.36-.1l4.36,0c1.2,0,2.82.29,3.92-.2.63-.28,1.46-1.89,1-2.55s-2.65-.48-3.32-.59a7.24,7.24,0,0,1-3.66-1.67,9.77,9.77,0,0,1-1.78-1.68,10.43,10.43,0,0,0-1.36-1.38,3.59,3.59,0,0,1-.53-.65c-.33-.51-.61-1.06-.92-1.58l-4.15-7.12L90.1,98.47l-5.29-9.09-1.78-3a11.7,11.7,0,0,0-1-1.68,1.26,1.26,0,0,1-.13-.23v.73c7-8.81,13.92-17.74,21.08-26.43a60,60,0,0,1,4.92-5,10.86,10.86,0,0,1,4.65-2.88c.77-.22,1.59-.32,2.35-.59a7,7,0,0,0,1.09-.78c-.06,0,0-.63,0-.72-.23-.65-.2-1-.88-1.38a3.5,3.5,0,0,0-2.07-.21c-1.57.21-3.11.63-4.66.94a8.7,8.7,0,0,1-3.76-.21c-1.65-.42-2.86-.92-4.48-.17a2.85,2.85,0,0,0,0,.72,1.67,1.67,0,0,0,1.1,1.71,2.23,2.23,0,0,1,1.48,1.94v-.71c-.19,2-2.73,4.27-4.07,5.79l-7.45,8.45L72.88,86.36C71.26,88.2,69.63,90,68,91.87c-.31.35-.25.43-.28,0-.06-1,0-2,0-3l-.4-26.42-.16-10.77c0-.63-.07-1.29,0-1.92a13,13,0,0,1,1.21-4.44,8.31,8.31,0,0,0,1.06-2.13,1.38,1.38,0,0,0-.9-1.59c-.82-.21-2.25.38-3.08.53a12.12,12.12,0,0,1-3.18.17c-2.17-.17-4.24-.45-6.38-.78-1.13-.17-4.54-.88-4.74.76a1.71,1.71,0,0,0,.4,1.49,4.53,4.53,0,0,0,2,.55,6.78,6.78,0,0,1,2.44,1.23c.73.49.94.31,1,1.08l.43,15.3L58,89.28,58.81,117l.44,16,0,.77V133A6.38,6.38,0,0,1,57,137.23a15.15,15.15,0,0,1-2.35,1.42,14.69,14.69,0,0,1-2.35.68c-.58.13-1.62-.07-2,.31s-.22.71-.21,1.06c0,1.57,1.25,1.51,2.62,1.52C52.66,142.22,52.66,141.5,52.65,141.5Z"/><path class="cls-9" d="M52.66,142c-1.43,0-2.93,0-3.13-1.66v.71c.08-1.59,1.4-1.21,2.57-1.47a12.23,12.23,0,0,0,3.59-1.44,5.7,5.7,0,0,0,3.08-4.72c0-.93-.05-1.88-.07-2.8l-.51-18.38-.77-27.49-.72-25.83-.24-8.81-.08-2.76a5.62,5.62,0,0,0,0-1.48s0-.13,0-.18h0c-1-.52-1.81-1.34-3-1.59s-2.42-.33-2.76-1.83V43c.18-2,3.19-1.52,4.62-1.34,1.84.23,3.62.7,5.47.78a22,22,0,0,0,5.44-.23c1.31-.26,3.45-.86,3.75,1.09v-.71A3.63,3.63,0,0,1,69.21,44a10.08,10.08,0,0,0-.91,2,13,13,0,0,0-.7,4c0,.44,0,.88,0,1.32l.13,8.49.38,25.4.09,6.34a.07.07,0,0,0,0,0l13.24-15L99.25,56.44c.46-.52.93-1,1.38-1.56.83-1,1.71-2,1.6-3.39a1.77,1.77,0,0,0-.84-1.49c-1.18-.71-1.72-.91-1.73-2.49v.62a5,5,0,0,1,4.32-.26,9.38,9.38,0,0,0,4.51.4c1.7-.35,8-2.51,8,1v-.54c-.41,1.29-2.08,1.41-3.18,1.68a9.25,9.25,0,0,0-4.1,2.05,55.28,55.28,0,0,0-5.67,5.68c-1.25,1.48-2.42,3-3.62,4.55L86.2,79.87l-3.68,4.61a1.94,1.94,0,0,0,0,.72l10.72,18.37,14,24a7.36,7.36,0,0,0,1.84,2.35,5.38,5.38,0,0,1,.83,1,9.85,9.85,0,0,0,1.5,1.39,6.52,6.52,0,0,0,2.45,1.4,17.73,17.73,0,0,0,2.8.44c.71.09,2,.18,2.14,1.06v-.72c-.24.83-.44,1.75-1.32,2.11a8.22,8.22,0,0,1-3.09.26l-3,0-11.7.12c-1.17,0-4,.47-4.28-.9v.71c.12-1.9,1.69-1.5,2.76-2.55a3.33,3.33,0,0,0,1-2.58,3.59,3.59,0,0,0-.75-1.8L94,122.64,79.5,98.9l-4.67-7.63c-.6-1-.45-1-1.6-.22a41.17,41.17,0,0,0-4.14,4c-.77.71-1.32,1.06-1.34,2.13-.09,6.69.06,13.39.09,20.07l0,13c0,2.19-.26,4.58.44,6.7a5.65,5.65,0,0,0,1.55,2.46v-.36c0,.68-.19,2.21-1,2.5a4.7,4.7,0,0,1-1.3,0l-5.65.16-9.31.26s0,.72,0,.72l9.67-.27,5.57-.15a3.49,3.49,0,0,0,1.12,0c.71-.34.84-1.83.86-2.52s.08-.92-.35-1.4a7.52,7.52,0,0,1-1.62-4v.27l-.13-32.85,0-4.7v.46c.07-.74.52-1,1-1.46.79-.7,1.46-1.49,2.18-2.25a14.38,14.38,0,0,1,2.26-2c.15-.11.87-.72,1.07-.65s.78,1.28.94,1.54l5.49,9,14.84,24.23,2.47,4a6.7,6.7,0,0,1,1.16,2.25v-.72a3.21,3.21,0,0,1-2.13,2.71c-1.07.38-1.61.85-1.66,2-.07,1.69,1.69,1.52,3,1.52,3.27,0,6.54-.06,9.81-.09l4.83,0a24.66,24.66,0,0,0,3.75-.1,2.55,2.55,0,0,0,2-2.93c-.17-1-1.48-1.06-2.31-1.15a10.73,10.73,0,0,1-3.83-.86,12.11,12.11,0,0,1-3.18-3c-.43-.49-1-.77-1.42-1.31s-.52-.89-.78-1.32l-4-6.84L90.92,98.87,85.51,89.6l-1.84-3.16a12.41,12.41,0,0,0-1-1.73c-.06-.07-.09-.16-.14-.23v.72l13.53-17,6.87-8.61a41.93,41.93,0,0,1,3.26-3.54c1.52-1.53,3.09-3.38,5.09-4.29,1.41-.64,3.61-.56,4.74-1.64a1.72,1.72,0,0,0,.39-1.82c-.36-2.08-2.81-1.84-4.39-1.54-1.18.21-2.35.5-3.53.74a8,8,0,0,1-2.71,0c-1.22-.15-2.36-.74-3.59-.84a4.24,4.24,0,0,0-2.53.68,2.56,2.56,0,0,0,0,.62,2.61,2.61,0,0,0,.65,2.13c.79.69,1.82.6,1.93,1.91v-.72c-.22,1.89-2.79,4.15-4,5.58l-7.46,8.45-18,20.38L69.86,89a9.84,9.84,0,0,1-1.5,1.71c-.12.07-.1.17-.13.15s0-.6,0-.68l0-3.38-.4-26.44-.15-9.56a11.63,11.63,0,0,1,.49-3.44A11,11,0,0,1,69,45a7.28,7.28,0,0,0,.81-1.43,2.85,2.85,0,0,0,0-1.3c-.6-2-3.21-.9-4.54-.66a19.72,19.72,0,0,1-5.94,0A40.34,40.34,0,0,0,53,40.8c-1.35,0-2.41.29-2.39,1.78a1.89,1.89,0,0,0,1.56,2,12.15,12.15,0,0,1,2.1.51,7.35,7.35,0,0,1,1.06.68c.23.16.79.39.94.61a1.43,1.43,0,0,1,.11.8l.44,15.73.76,27.29.76,27.13L58.75,133l0,.75V133c-.52,1.75-1,3.18-2.62,4.15a11.4,11.4,0,0,1-4.63,1.78c-.87.09-1.79,0-2,1.07a4.58,4.58,0,0,0,0,1c.12,1.73,1.69,1.71,3.13,1.73C52.66,142.72,52.67,142,52.66,142Z"/><path class="cls-9" d="M54.34,138.47a22.61,22.61,0,0,1-2.39.72c-.66.12-1.75-.11-2.06.63a2.93,2.93,0,0,0,.15,2c.75,1.16,4.2.6,5.45.57l8.7-.24,3.52-.1c.44,0,1,.11,1.33-.19a4.25,4.25,0,0,0,.54-3c-.13-.33-.65-.69-.85-1a8.68,8.68,0,0,1-1.11-3.4v.27l-.13-32.93,0-4.71v.46c.07-.83.51-1.13,1.1-1.65.78-.69,1.45-1.47,2.15-2.22a16.12,16.12,0,0,1,2.07-1.89c.18-.14,1.3-1.1,1.61-1s.74,1.22.87,1.42l5.46,8.91,15,24.5,2.57,4.19a6.85,6.85,0,0,1,1.21,2.43v-.72a3.59,3.59,0,0,1-1.3,2.45c-.55.47-1.16.46-1.76.82a2,2,0,0,0-.72,2c.32,1.11,2.75.69,3.77.68l13.83-.14h2.29a3.33,3.33,0,0,0,2.08-.42,3.72,3.72,0,0,0,.83-1.81,2.48,2.48,0,0,0,0-.72c-1.13-1-3.15-.62-4.54-1-2.07-.59-3.35-2-4.69-3.56-.45-.53-1.1-.82-1.5-1.41-.18-.27-.34-.58-.5-.86L102,118.38,86.11,91.22l-3.94-6.77v.73L95.82,68.05l6.89-8.63a46.48,46.48,0,0,1,3.58-3.85c1.52-1.52,3-3.26,5.06-4.12,1.32-.56,3.35-.51,4.42-1.47a1.25,1.25,0,0,0,.42-1.35c-.34-2.42-3.33-1.72-5-1.38-1.13.24-2.25.52-3.38.72a7,7,0,0,1-2.09-.11c-1.22-.14-2.35-.74-3.58-.84a4.2,4.2,0,0,0-2.21.55,2.5,2.5,0,0,0,0,.67,2,2,0,0,0,.68,1.78c.84.64,1.83.7,1.89,2v-.71c-.18,2-2.71,4.18-4,5.64L91.09,65.4,72.81,86.12l-3,3.43a21,21,0,0,1-1.65,1.87c-.33.29-.2.23-.2-.27l0-3.22-.4-26.64-.16-10.11A11.66,11.66,0,0,1,67.44,49a14.43,14.43,0,0,1,1.79-4.84,2,2,0,0,0,.36-1.36c-.16-1.49-1.42-1.38-2.55-1.17-1,.17-1.94.42-2.93.51a24.44,24.44,0,0,1-3.2-.1c-2.16-.08-4.23-.68-6.38-.86-1.17-.1-3.47-.5-3.64,1.11a2,2,0,0,0,.35,1.52,3,3,0,0,0,1.8.66,6.14,6.14,0,0,1,2.44,1.07c.79.55,1.14.42,1.17,1.25L57.07,62l.77,27.48.76,27.58L59.05,133l0,.77V133a7.59,7.59,0,0,1-1.77,3.68,8.75,8.75,0,0,1-3,1.75c-.06,0,.06.71,0,.72a9.52,9.52,0,0,0,2.56-1.43A5.23,5.23,0,0,0,58.69,135a5.83,5.83,0,0,0,.38-2.08c0-1.26-.07-2.51-.11-3.77l-.54-19.51-.75-27L57,58l-.23-8.3-.07-2.64a5.15,5.15,0,0,0,0-1.36s0-.13,0-.18v0a18,18,0,0,0-2.83-1.6c-1.2-.36-2.55-.16-2.91-1.63V43c.19-1.55,2.24-1.22,3.42-1.14,2,.14,3.86.73,5.81.86a21.87,21.87,0,0,0,5.66-.14c1.23-.23,3.41-1.12,3.8.75v-.57a6.7,6.7,0,0,0-.69,1.2,11.25,11.25,0,0,0-1,2.23A12.8,12.8,0,0,0,67.31,50c0,.45,0,.9,0,1.35l.13,8.63.39,25.92.1,6.46v.05L81.45,77.06,99.56,56.53c.49-.56,1-1.11,1.46-1.67a4.9,4.9,0,0,0,1.51-3.4,2,2,0,0,0-.89-1.66c-1-.66-1.66-.72-1.69-2.18v.67a5,5,0,0,1,3.94-.14,9.33,9.33,0,0,0,4.11.51c1.74-.31,3.44-.81,5.19-1a3.46,3.46,0,0,1,2.17.34c.65.38.63.8.86,1.47v-.73c-.64,1-1.58,1.08-2.65,1.33A10.2,10.2,0,0,0,109.33,52a47.55,47.55,0,0,0-6,6c-1.21,1.43-2.34,2.93-3.51,4.39L86,79.7l-3.78,4.75a2,2,0,0,0,0,.73l10.6,18.17,14.13,24.22a8.63,8.63,0,0,0,1.33,2,10.19,10.19,0,0,1,1.14,1,8.84,8.84,0,0,0,.87,1.07,9.62,9.62,0,0,0,2.71,2,13.45,13.45,0,0,0,3.61.72,3.5,3.5,0,0,1,2,.62v-.72c-.25.84-.45,1.77-1.37,2.08a10.41,10.41,0,0,1-3.11.14l-2.93,0-11.69.11c-1,0-3.18.42-3.7-.57v.71c.05-1.58,1.39-1.35,2.36-2.1a3.66,3.66,0,0,0,1.43-2.92,3.93,3.93,0,0,0-.75-2l-4.43-7.23-14.67-24-4.72-7.71c-.56-.91-.41-1-1.46-.33a25.59,25.59,0,0,0-4.17,3.89c-.86.86-1.81,1.3-1.84,2.61-.16,6.7.05,13.43.08,20.14l.06,13.23c0,2.29-.27,4.77.56,7a6,6,0,0,0,1.42,2.18v-.36c0,.69-.17,1.87-.88,2.08a7.7,7.7,0,0,1-1.86.05l-6.79.19-6.22.17c-1.41,0-3.74.47-4-1.35V141c.07-1.22,1.06-1,2-1.11a17.16,17.16,0,0,0,2.51-.74C54.42,139.17,54.28,138.49,54.34,138.47Z"/><path class="cls-9" d="M115.49,178a34.28,34.28,0,0,1-11.63-1.83,14.18,14.18,0,0,1-7-5.7A20.8,20.8,0,0,1,94,163.13a15.34,15.34,0,0,1,.65-7.41,13.91,13.91,0,0,1,5-7.34c3.07-2.34,7.29-2.83,11.05-2.6a9.54,9.54,0,0,1,8,4.86,6.43,6.43,0,0,1,.23,6.3,3.21,3.21,0,0,1-2.87,1.84c-1.44,0-3.74-1.09-3.9-2.74-.1-1.06,1.58-2.66,2.63-2.26.45.17.72.82,1.14,1.05s.36.1.79-.18a2.23,2.23,0,0,0,0-.73,15.9,15.9,0,0,0-1-2.66,8.39,8.39,0,0,0-4.06-3.49c-5.12-2.19-10.66.23-13.41,4.85a15.73,15.73,0,0,0-1.42,10.92,14.92,14.92,0,0,0,4,7,19.15,19.15,0,0,0,7.59,4,19.5,19.5,0,0,0,16.83-2.24,20.29,20.29,0,0,0,7.59-10.44c1.6-4.76,1.75-9.75,1.64-14.72l-.64-28.43-.92-41.46c-.18-7.88-.11-15.81-.53-23.69a3.17,3.17,0,0,0-.16-.91V53a3.9,3.9,0,0,0-2.56-3.55,7.28,7.28,0,0,0-2.68-.61c-1.23,0-2.32.45-2.48-1.27v.73c.21-2.19,2.07-2.23,3.87-2.31,2.51-.1,5.05.11,7.56.23a72,72,0,0,0,7.49.17c1.17-.07,2.35-.35,3.52-.38,1,0,1.08.76,1.14,1.67V47c-.15,1.17-1.24.86-2.11,1a8.94,8.94,0,0,0-3.09,1.21,4.36,4.36,0,0,0-2.07,3.72c0,.38,0,.77,0,1.15l.09,7.82.38,30.84.44,35.45.27,22.1a9.92,9.92,0,0,0,0,1.22c-.1-.85,0-.44-.05.11s-.12,1.22-.2,1.82A50.31,50.31,0,0,1,140.6,159c-1.09,4.35-2.77,8.54-6.15,11.6a32.26,32.26,0,0,1-11.81,6.53,23.63,23.63,0,0,1-7.15.89v.72a24.58,24.58,0,0,0,8.47-1.33,35.43,35.43,0,0,0,7.29-3.63,21.28,21.28,0,0,0,5.63-5.11,23.82,23.82,0,0,0,3.24-7.19,39.38,39.38,0,0,0,1.78-11.55l-.34-27.4L141,80.28l-.33-26.88a4.07,4.07,0,0,1,2.36-3.71,8.58,8.58,0,0,1,3.33-1c.9,0,1.48-.16,1.57-1.15a4.29,4.29,0,0,0-.1-1.34c-.38-1.36-1.52-.83-2.66-.69-6.09.73-12.23-.66-18.32-.14a2.42,2.42,0,0,0-2.37,1.44,3.94,3.94,0,0,0-.14,1.41c.05.73.28,1.38,1.06,1.5a10.53,10.53,0,0,0,1.47-.12,6,6,0,0,1,1.33.21A6,6,0,0,1,131,51.06a4.35,4.35,0,0,1,1.14,2.22v-.37c0,.64.17,1.27.18,1.93l.08,3.39.29,13.13.88,39.3.73,33.06c0,1.83.09,3.66.12,5.49.16,9.71-3.09,20.32-12.83,24.24-5.78,2.33-12.11,1.35-17.54-1.43a13.62,13.62,0,0,1-7.5-12.77c.34-4.78,2.94-9.3,7.63-11,4.06-1.48,9.51-.07,11.6,3.94a17.9,17.9,0,0,1,.93,2.47v-.73c-.44.29-.4.39-.79.18s-.7-.89-1.15-1.06-1.55.45-1.94.81a2.26,2.26,0,0,0-.73,1.51,4.08,4.08,0,0,0,.23,2,4.26,4.26,0,0,0,4.51,2.09c2.15-.53,2.78-3.1,2.86-5a8.79,8.79,0,0,0-3-7c-3.22-2.88-7.83-2.77-11.85-2a13.14,13.14,0,0,0-9.08,6.64,18.73,18.73,0,0,0-1.17,14.1c1.17,3.71,3.37,7.36,6.72,9.46,4.08,2.55,9.55,3,14.23,3.06C115.5,178.7,115.5,178,115.49,178Z"/><path class="cls-9" d="M115.49,178.48a35.1,35.1,0,0,1-11.77-1.85,14.61,14.61,0,0,1-7.25-5.88,21.4,21.4,0,0,1-3-7.44,15.51,15.51,0,0,1,.55-7.4A14.49,14.49,0,0,1,99,148.24c3-2.44,7-3.06,10.78-3,3.51.07,6.57,1.23,8.7,4.16a7.29,7.29,0,0,1,1.23,6.89c-1.09,3.2-4.71,3.94-7.13,1.49-1-1.08-1.32-2.44-.16-3.54.57-.53,1.73-1.26,2.53-.94a5.06,5.06,0,0,1,1,.75c-.09-.07,0-.6,0-.73a8.37,8.37,0,0,0-7.4-5.84c-5.36-.59-10.1,3.63-11.19,8.7a15.26,15.26,0,0,0,1.86,11.63c3.13,4.89,9.86,7.2,15.45,7.2a18.24,18.24,0,0,0,13.89-6.51c3.09-3.73,4.56-8.53,5.1-13.28a72.55,72.55,0,0,0,.19-9.89l-.74-33-.93-41.82L131.84,57c-.06-2.79.38-6.19-3-7.25a6,6,0,0,0-2.58-.31c-1.35.16-2.27-.38-2.38-1.85v.73c.17-2.1,1.69-2.66,3.56-2.76a67.78,67.78,0,0,1,7,.11c2.45.11,4.91.26,7.37.28a29.33,29.33,0,0,0,3.37-.22c1-.12,2.11-.55,2.85.24v-.37c0,.74.41,1.32.45,2.1V47c-.12,1.21-1,1.4-2.07,1.46a8.06,8.06,0,0,0-3.18,1,3.88,3.88,0,0,0-2,3.5c0,.37,0,.74,0,1.12L141.3,62,141.69,93l.43,35.62.27,21.74c0,.26,0,.52,0,.78,0,.54-.13,0,0-.3a3.32,3.32,0,0,0-.07.9c-.06.64-.13,1.28-.22,1.92a50.36,50.36,0,0,1-1.14,5.85c-1.15,4.37-2.91,8.48-6.35,11.53a33.16,33.16,0,0,1-11.86,6.5,24.38,24.38,0,0,1-7.27.9v.72a24.37,24.37,0,0,0,7.6-1,36.78,36.78,0,0,0,6.36-2.8c4-2.24,7.55-5.2,9.52-9.45a40.38,40.38,0,0,0,3.23-12.22,21.61,21.61,0,0,0,.21-2.89c0-6.08-.15-12.16-.23-18.23l-.44-35.75-.4-33.08-.12-9.38a10.6,10.6,0,0,1,0-1.78,4.47,4.47,0,0,1,2-2.43,8.53,8.53,0,0,1,3-1c1.09-.12,2.09-.13,2.22-1.47a3.84,3.84,0,0,0-.45-2.43v.36c0-.72-.55-.87-1.24-.83-1.67.08-3.3.42-5,.41-3.46,0-6.91-.28-10.36-.4-1.4,0-2.79-.07-4.18,0-1.09.07-2.38.28-3,1.29-.74,1.24-.58,3.86,1.14,4.08.88.12,1.67-.15,2.58,0a4.87,4.87,0,0,1,3,1.61,5.47,5.47,0,0,1,.75,2.32c.09.94,0,1.91.06,2.85l.78,34.93,1,43.16.28,12.46c.14,6.59-.52,13.51-4.42,19A18.19,18.19,0,0,1,116,174.24a21.43,21.43,0,0,1-10-1.87,14.06,14.06,0,0,1-6.73-5.28,12.89,12.89,0,0,1-2.11-8.72,11.87,11.87,0,0,1,3.3-7.07c3.77-3.84,10.65-4.45,14.22,0a8.13,8.13,0,0,1,1.32,2.71v-.73a5.34,5.34,0,0,0-.94-.72c-.86-.38-2.1.41-2.69,1a3,3,0,0,0-.73,2.36c0,3.06,4.13,5.26,6.65,3.29,1.47-1.14,1.91-3.26,2-5a9.37,9.37,0,0,0-3.94-7.83c-3.44-2.52-8.33-2.24-12.29-1.3a13.47,13.47,0,0,0-8.75,6.93,19.25,19.25,0,0,0-1,14.44,17.46,17.46,0,0,0,6.84,9.56c4.16,2.61,9.74,3.12,14.52,3.15C115.5,179.2,115.5,178.48,115.49,178.48Z"/><path class="cls-9" d="M109.3,144.81c-3.22,0-6.64.47-9.35,2.33a13.62,13.62,0,0,0-4.82,5.73,19.74,19.74,0,0,0-1.59,9.77,19.33,19.33,0,0,0,6,12,16.59,16.59,0,0,0,7.54,3.42,38.89,38.89,0,0,0,10.21.85,28.84,28.84,0,0,0,16.21-6.51c4.6-3.68,6.6-9,7.74-14.65a42.27,42.27,0,0,0,.84-9.09l-.42-33.68-.55-44.49L141,56c0-1-.12-2.12,0-3.16a2,2,0,0,1,.42-1.17,5.39,5.39,0,0,1,2.92-2.25,7.08,7.08,0,0,1,1.84-.6c.67-.08,1.45.09,1.88-.55s.24-3-.72-3.26a6.6,6.6,0,0,0-2,.22c-.72.08-1.44.17-2.17.2-1.69.09-3.4,0-5.1-.09-3.41-.14-6.88-.48-10.3-.29-.94.06-2.26.09-3,.86a3,3,0,0,0-.54,2c0,.78.15,1.61,1,1.9a2.93,2.93,0,0,0,1.38,0,5.06,5.06,0,0,1,1.5.14,5.6,5.6,0,0,1,3,1.46,4.39,4.39,0,0,1,.9,2,9.67,9.67,0,0,1,.18,2.28l.73,32.85,1,44.29.31,13.76c.13,5.84-.12,11.76-2.67,17.15a18.55,18.55,0,0,1-20.56,10.51,21.78,21.78,0,0,1-9.16-3.85,13.57,13.57,0,0,1-4-15.76c2.28-5.27,8.36-8.25,13.79-5.92a8,8,0,0,1,4.1,3.71,24,24,0,0,1,1,2.84v-.72c-.5-.47-1.22-1.46-1.85-1.7-1-.37-2.53,1-2.82,1.87a3.85,3.85,0,0,0,2.4,4.69c5,2,6.25-4.88,5.06-8.23a9.73,9.73,0,0,0-4-4.88,11.31,11.31,0,0,0-6.17-1.47s0,.73,0,.73c3,0,5.63.62,7.81,2.78,1.61,1.59,3,4,2.66,6.3-.22,1.6-.86,3.47-2.48,4.13-1.87.75-5.45-.57-5.44-2.94v.26a2.39,2.39,0,0,1,1-1.78c.43-.34,1.32-.92,1.9-.75s1.42,1.24,1.93,1.71c-.09-.09.05-.58,0-.72a23.5,23.5,0,0,0-1-2.85,8,8,0,0,0-3.77-3.56c-5.26-2.5-11.17.14-13.79,5.09a15.47,15.47,0,0,0-.71,11.54,14.08,14.08,0,0,0,4.77,6.66,22.6,22.6,0,0,0,8.76,3.54,18.76,18.76,0,0,0,16.18-4.48,22.49,22.49,0,0,0,6.42-12.36,56.33,56.33,0,0,0,.63-12.17l-.73-32.72-.94-42.47-.31-13.87c-.06-2.78.34-6.15-2.9-7.34a6.59,6.59,0,0,0-2.7-.48c-1.27.13-2.21.06-2.35-1.5v.73A2.27,2.27,0,0,1,126.07,46a16.46,16.46,0,0,1,4.49-.19c3.62.1,7.23.37,10.85.42a43.68,43.68,0,0,0,5.23-.4c.89-.09,2,.7,1.33,1.77-.39.65-1.24.47-1.88.55a7.46,7.46,0,0,0-1.84.59,5.37,5.37,0,0,0-3.08,2.53,6.42,6.42,0,0,0-.26,2.84l.06,4.35.48,39.43.53,43.21c0,3.32.07,6.65.12,10,0,.1,0,.21,0,.31,0,.4.07-.87,0-.33-.27,1.77-.39,3.55-.72,5.31-1.08,5.69-3,11.28-7.59,15.06a32.67,32.67,0,0,1-8,4.76,24.28,24.28,0,0,1-8.88,2c-5.94.2-13.34-.43-17.84-4.76a19.3,19.3,0,0,1-5.55-12.15A18.71,18.71,0,0,1,95,153.89a13.63,13.63,0,0,1,4.94-6c2.71-1.86,6.13-2.3,9.35-2.33Z"/></g><path class="cls-10" d="M52.66,142.21c-2.81,0-2.87-.57-3-1.52s.48-1.15,1.54-1.21c.21,0,.42,0,.61-.06h0a11.21,11.21,0,0,0,1.71-.49c.4-.13.74-.25.85-.27h.14l.05-.07c.46-.28.85-.5,1.19-.68,1.8-1,2.22-1.35,3.12-4.45l0-.07L56.49,46l-.27-.14a7.94,7.94,0,0,1-.83-.54,4,4,0,0,0-1.59-.87l-1.12-.24c-1-.21-1.37-.29-1.7-.87a1.78,1.78,0,0,1-.24-.66c0-.44.22-1,.53-1a5.54,5.54,0,0,1,2.15-.29,22.88,22.88,0,0,1,4,.49,18.82,18.82,0,0,0,3.25.42c.46,0,.92,0,1.36.08s.84.07,1.22.07A14.78,14.78,0,0,0,66.16,42a21.85,21.85,0,0,1,2.29-.37c.24,0,1.28.6,1.28,1.32a.78.78,0,0,1,0,.28l-.07.07,0,.07a4.06,4.06,0,0,1-.36.67,9.14,9.14,0,0,0-1.16,2.55,12.29,12.29,0,0,0-.63,3.48l.62,41.57,32.66-37,.33-.42a4.52,4.52,0,0,0,1.31-2.49,1,1,0,0,0-.22-.71,1.55,1.55,0,0,0-1-.92,2.11,2.11,0,0,1-1-.66,2.38,2.38,0,0,1-.34-1.57,5,5,0,0,1,1.92-.63,7.8,7.8,0,0,1,2.21.43,8.6,8.6,0,0,0,2.49.47.93.93,0,0,1,.4.08,1.14,1.14,0,0,0,.35.07,23.18,23.18,0,0,0,2.58-.49,33.07,33.07,0,0,1,4-.72c1.11,0,2.39.49,2.5,1.38a1.26,1.26,0,0,0,.13.54c0,.12,0,.31-.44.71a4.07,4.07,0,0,1-2,.79,9.48,9.48,0,0,0-4.79,2.23c-1.83,1.69-3.94,3.79-5.63,5.63L82.34,84.83,108,128.73a3.9,3.9,0,0,0,.91.84,1.92,1.92,0,0,1,.74.8,7.19,7.19,0,0,0,1.7,1.68c.28.23.53.43.67.57a6.07,6.07,0,0,0,2.5,1,5.92,5.92,0,0,0,1.24.18c1,.08,2.83.24,2.92.94-.56,2-.69,2.28-3.58,2.28h-1.36l-15.3.15c-2,0-2.75-.19-2.83-.78,0-1.26.7-1.52,1.83-1.85l.17-.05a3.62,3.62,0,0,0,1.79-2.72,1.42,1.42,0,0,0-.26-.79l-.1-.19L74.34,90.55l-.43.25A15.29,15.29,0,0,0,70.25,94a17,17,0,0,1-1.7,1.7c-.15.14-.25.22-.34.29a1.31,1.31,0,0,0-.6,1.16l.15,37.55c.4,2.93,1.47,3.94,1.92,4.38l0,0v.42a3.72,3.72,0,0,1-.75,2.23Z"/><path class="cls-10" d="M53.42,41.81a23.05,23.05,0,0,1,3.93.48,19.48,19.48,0,0,0,3.34.43c.43,0,.88,0,1.32.08s.85.07,1.26.07a14.84,14.84,0,0,0,3-.4c.7-.14,1.41-.28,2.12-.35.28.09.85.5.85.81v0h0l-.08.19a3.33,3.33,0,0,1-.33.59,10.42,10.42,0,0,0-1.22,2.69A13,13,0,0,0,67,50.06l.6,40.28,0,2.58L69.31,91l31.8-36,0,0,0,0,.3-.38a4.8,4.8,0,0,0,1.41-2.8,1.6,1.6,0,0,0-.27-1,2.08,2.08,0,0,0-1.3-1.14,1.55,1.55,0,0,1-.73-.46,1.58,1.58,0,0,1-.27-1,4.4,4.4,0,0,1,1.42-.43,7.24,7.24,0,0,1,2.06.41,9.1,9.1,0,0,0,2.64.49.52.52,0,0,1,.23.05,1.48,1.48,0,0,0,.52.1h.11c.63-.07,1.53-.27,2.57-.5a34.37,34.37,0,0,1,3.87-.71c1,0,1.9.42,2,.91a1.9,1.9,0,0,0,.11.55,1.82,1.82,0,0,1-.28.32l0,0,0,0a4.34,4.34,0,0,1-1.74.61,10,10,0,0,0-5,2.34c-1.85,1.69-4,3.81-5.66,5.66l0,0,0,0L82.17,84.25l-.43.53.34.59L107.52,129l0,.06,0,.06a4.6,4.6,0,0,0,1,.88,1.5,1.5,0,0,1,.59.61,6.91,6.91,0,0,0,1.83,1.85c.25.2.51.42.63.53a6.1,6.1,0,0,0,2.68,1.16,6.6,6.6,0,0,0,1.37.2,7.56,7.56,0,0,1,2.44.48c-.49,1.68-.6,1.75-3.06,1.75h-1.37l-15.29.15c-1.75,0-2.25-.16-2.33-.31,0-.88.42-1,1.47-1.34l.08,0,.09,0,.08-.05a4.08,4.08,0,0,0,2.07-3.16,1.93,1.93,0,0,0-.32-1l-.09-.17,0,0,0,0L75,90.71l-.51-.84-.85.5a15.7,15.7,0,0,0-3.78,3.28,15.11,15.11,0,0,1-1.65,1.65l0,0,0,0-.26.22a1.79,1.79,0,0,0-.79,1.55l.15,37.55v.13a7.11,7.11,0,0,0,2,4.51v.2a3.57,3.57,0,0,1-.49,1.74l-16.07.44c-2.31,0-2.4-.3-2.49-1s.07-.65,1.07-.72a5.6,5.6,0,0,0,.6-.05,10.07,10.07,0,0,0,1.86-.52l.73-.23h.17l.24-.15c.46-.28.84-.49,1.17-.68,1.88-1.06,2.41-1.47,3.36-4.74l0-.15v-.16L57,46.23l0-.6-.54-.26c-.16-.09-.48-.31-.76-.51a4.4,4.4,0,0,0-1.79-1c-.43-.11-.79-.18-1.12-.24-1-.2-1.14-.26-1.34-.61a2.27,2.27,0,0,1-.19-.43,1.1,1.1,0,0,1,.15-.55h.07l.06,0a5,5,0,0,1,1.9-.23m0-1a6,6,0,0,0-2.27.3,1.53,1.53,0,0,0-.91,1.52,2.24,2.24,0,0,0,.31.91c.6,1.06,1.36.9,3.18,1.36.45,0,1.66,1.06,2.27,1.36l2.42,87.06c-1.06,3.64-1.36,3.18-4.09,4.85-.15,0-2.27.76-2.57.76-1.06.15-2.58-.16-2.58,1.81.15,1.37.61,2,3.49,2l16.5-.45a3.87,3.87,0,0,0,1.06-2.73v-.6c-.15-.31-1.51-.91-2-4.24l-.15-37.55c0-.61.3-.61.76-1.06,1.66-1.37,2.79-3.38,5.3-4.85l24.37,39.82c.16.3.31.46.31.76a3.09,3.09,0,0,1-1.52,2.27c-1.06.3-2.27.61-2.27,2.42.15,1.06,1.36,1.21,3.33,1.21l15.3-.15h1.36c3.33,0,3.48-.6,4.09-2.72,0-1.67-3.79-1.37-4.55-1.67a5.93,5.93,0,0,1-2.27-.91c-.45-.45-2-1.51-2.27-2.12-.45-.9-1.06-.9-1.66-1.66L83,84.87l20.89-26.19c1.67-1.82,3.79-3.94,5.61-5.61,2.57-2.42,5.75-1.81,6.81-3,.45-.46.6-.76.6-1.06s-.15-.31-.15-.61c-.15-1.21-1.66-1.82-3-1.82-2,.16-5.15,1.06-6.52,1.21a3.05,3.05,0,0,0-.75-.15c-1.67,0-3-.9-4.7-.9a4.69,4.69,0,0,0-2.42.9,3.13,3.13,0,0,0,.46,2.12c.9,1.06,1.66.61,2,1.52a.55.55,0,0,1,.15.45c0,.91-1.06,2-1.51,2.58l-31.8,36L68,50.05a11.85,11.85,0,0,1,.6-3.33,15.7,15.7,0,0,1,1.52-3.18.94.94,0,0,0,.15-.61c0-1.06-1.36-1.82-1.82-1.82-1.81.15-3.48.76-5.14.76-.76,0-1.67-.15-2.58-.15-2,0-4.69-.91-7.27-.91Z"/><path class="cls-10" d="M115.49,178.69c-6.12,0-12-1.35-14.9-3.43-6.13-4.38-7.31-12.45-7.3-14.38,0-2.43,1.15-7.54,2.78-9.69a14.45,14.45,0,0,1,6-5A21.23,21.23,0,0,1,109.3,145a11,11,0,0,1,5.33,1c2.7,1.28,5.37,4.39,5.37,7.91,0,.22,0,5.58-4,5.58a3.4,3.4,0,0,1-.45,0,4.47,4.47,0,0,1-3.78-2.91c-.19-1-.18-2.48,2.1-3.39a1.87,1.87,0,0,1,.68-.15.72.72,0,0,1,.34.07l1.44,1.31-.66-1.86A7.84,7.84,0,0,0,110,148a10.5,10.5,0,0,0-2.57-.34c-4.63,0-8,3.37-9.4,6.25a15.41,15.41,0,0,0-.84,9.68c1.23,3.78,3.34,6.56,6.08,8.05a23.48,23.48,0,0,0,11.33,3.18,18.09,18.09,0,0,0,8.53-2.12c7.35-3.88,11.11-12.1,10.86-23.77L131.9,53.67a1.46,1.46,0,0,0-.1-.45,1.54,1.54,0,0,1-.05-.17V53l0,0-.18-.54a2.62,2.62,0,0,0-1.37-1.83,7.75,7.75,0,0,0-3.32-1,4,4,0,0,0-.63.08,2.55,2.55,0,0,1-.43.07,1.8,1.8,0,0,1-1.16-.31,2,2,0,0,1-.61-1.46,3,3,0,0,1,.61-1.77,4.38,4.38,0,0,1,3-.86l.92,0c2,0,4.53.12,7,.23s4.78.22,6.57.22a27.76,27.76,0,0,0,3.43-.27c.53-.07,1.06-.14,1.62-.18a1.13,1.13,0,0,1,.66.38v0l.09.13a3.21,3.21,0,0,1,.37,1.54,1.39,1.39,0,0,1-.46,1,3.36,3.36,0,0,1-1.77.31,5.42,5.42,0,0,0-1.7.55,5.65,5.65,0,0,1-.58.23,3.63,3.63,0,0,0-1.91,1.39,2.8,2.8,0,0,0-.85,2l1.21,98.43c0,.06-.51,9.33-4.29,16-3,5.35-10.84,9.47-16.84,11a35,35,0,0,1-5.64.43Z"/><path class="cls-10" d="M128.56,45.75c2,0,4.53.12,7,.23s4.8.22,6.6.22a26.4,26.4,0,0,0,3.49-.28l1.52-.17a1.06,1.06,0,0,1,.27.15l.1.16a2.68,2.68,0,0,1,.29,1.26.84.84,0,0,1-.26.6,3.29,3.29,0,0,1-1.47.22,5.45,5.45,0,0,0-1.9.59l-.51.21a4.22,4.22,0,0,0-2.16,1.54,3.29,3.29,0,0,0-1,2.3l1.21,98.39c0,.57-.61,9.4-4.22,15.8-2.94,5.21-10.6,9.25-16.49,10.8a34.61,34.61,0,0,1-5.56.42c-6,0-11.76-1.31-14.61-3.34-5.95-4.25-7.1-12.09-7.09-14,0-2.4,1.16-7.4,2.68-9.4a13.91,13.91,0,0,1,5.78-4.82,20.36,20.36,0,0,1,7-1.14,10.66,10.66,0,0,1,5.07.91l0,0,0,0c2.44,1.16,5,4.15,5,7.43,0,.2,0,5.07-3.5,5.07h-.4a4,4,0,0,1-3.34-2.51c-.18-1-.11-2.08,1.8-2.84a1.45,1.45,0,0,1,.49-.11h.06l2.81,2.56-1.27-3.7a8.42,8.42,0,0,0-6-4.88,10.48,10.48,0,0,0-2.69-.36c-4.86,0-8.34,3.52-9.85,6.53a16.11,16.11,0,0,0-.87,10.06c1.28,3.9,3.46,6.78,6.32,8.32a23.86,23.86,0,0,0,11.57,3.25,18.55,18.55,0,0,0,8.76-2.18c7.54-4,11.38-12.35,11.13-24.22L132.4,53.68a2.13,2.13,0,0,0-.12-.62l0-.07v-.08l-.05-.15-.17-.53a3.1,3.1,0,0,0-1.54-2.08,8.22,8.22,0,0,0-3.63-1.1,4,4,0,0,0-.72.09c-.11,0-.28.06-.34.06A1.74,1.74,0,0,1,125,49a1.53,1.53,0,0,1-.46-1.11,2.62,2.62,0,0,1,.43-1.37,3.89,3.89,0,0,1,2.7-.76l.9,0m18.59-1c-1.66.15-3.18.45-5,.45-3.63,0-9.69-.45-13.62-.45-2.27.15-2.73,0-4.24,1.06a3.41,3.41,0,0,0-.76,2.12,2.48,2.48,0,0,0,.76,1.81,2.22,2.22,0,0,0,1.51.46c.3,0,.76-.15,1.06-.15a7.43,7.43,0,0,1,3,.9c1.06.76.91.76,1.36,2.12,0,.16.15.46.15.61l2.12,95.24c.23,10.77-2.94,19.28-10.6,23.32a17.6,17.6,0,0,1-8.29,2.06,23.15,23.15,0,0,1-11.09-3.12c-2.44-1.33-4.59-3.9-5.85-7.76a15,15,0,0,1,.82-9.31c1.28-2.57,4.43-6,8.95-6a9.75,9.75,0,0,1,2.44.32,7.42,7.42,0,0,1,5.3,4.24,1,1,0,0,0-.65-.18,2.27,2.27,0,0,0-.86.18c-2.68,1.07-2.6,2.9-2.41,4a5,5,0,0,0,4.23,3.32,4,4,0,0,0,.49,0c4,0,4.5-4.91,4.5-6.07,0-3.64-2.72-7-5.6-8.33a11.49,11.49,0,0,0-5.6-1.06,21.5,21.5,0,0,0-7.42,1.21,14.83,14.83,0,0,0-6.21,5.15c-1.69,2.22-2.85,7.39-2.88,10,0,2,1.19,10.27,7.51,14.78,3.23,2.31,9.38,3.53,15.19,3.53a36.62,36.62,0,0,0,5.77-.44c6-1.58,14-5.69,17.15-11.29,3.88-6.87,4.35-16.27,4.35-16.27l-1.21-98.42a2.32,2.32,0,0,1,.75-1.66A3.23,3.23,0,0,1,144,49.89a12.23,12.23,0,0,1,2.12-.75,3.57,3.57,0,0,0,2.12-.46,1.87,1.87,0,0,0,.61-1.36,3.67,3.67,0,0,0-.46-1.82,1.52,1.52,0,0,0-1.21-.75Z"/><g class="cls-11"><path class="cls-12" d="M52.66,142.15c-1,0-2.61.12-2.92-1.08-.41-1.63,1.09-1.42,2.13-1.59a10.73,10.73,0,0,0,2.89-.92,8.09,8.09,0,0,0,3-2.12,6.61,6.61,0,0,0,1.16-4.32L58.41,115l-.78-28.1-.75-27-.26-9.27-.08-2.94a5.88,5.88,0,0,0,0-1.57,1.47,1.47,0,0,1,0-.21h0c-.76-.38-1.37-1-2.13-1.36s-1.85-.31-2.7-.69-1.27-1.4-.6-2.05,2.75-.44,3.7-.35c1.2.12,2.37.38,3.55.58s2.48.24,3.74.34a14.05,14.05,0,0,0,3.88-.27c1-.19,2.27-.75,3.14-.1a1.1,1.1,0,0,1,.39,1.62,15.37,15.37,0,0,0-1.23,2.47,12.19,12.19,0,0,0-.77,4c0,.66,0,1.33,0,2l.45,30,.14,9.61h0L80.17,78,98.08,57.68c1.22-1.38,4.09-3.88,4.28-5.74a1.62,1.62,0,0,0-.2-1c-.36-.71-.9-.75-1.51-1.14-.84-.52-1.2-1.82-.12-2.23a4.15,4.15,0,0,1,2.74,0,26,26,0,0,0,3.27.68c1.87.24,3.83-.54,5.7-.87,1.24-.22,4-.48,4,1.48,0,1.66-3.35,1.77-4.53,2.22-2,.77-3.5,2.41-5,3.9-1.12,1.09-2.27,2.2-3.28,3.4-1.78,2.11-3.45,4.32-5.17,6.47L82.67,84.36l-.33.41v.12L90.7,99.21l13.65,23.4c1.15,2,2.22,4,3.46,5.93a3.87,3.87,0,0,0,.39.54,12.76,12.76,0,0,1,1.4,1.35,10,10,0,0,0,1.83,1.79,7.81,7.81,0,0,0,4.55,1.7,6.38,6.38,0,0,1,2.08.38c.72.34.5.89.22,1.53-.73,1.65-3.16,1.16-4.64,1.17l-4.22,0c-3.67,0-7.34.12-11,.11-.84,0-3.19.23-2.78-1.25.33-1.19,2-1.15,2.76-2A2.49,2.49,0,0,0,99,130.7c-1-1.78-2.16-3.53-3.24-5.3l-14.06-23L76,93.15a18.33,18.33,0,0,0-1.42-2.33c-.06-.06-.13-.3-.2-.33-.25-.09-1.47.94-1.63,1.07a16.22,16.22,0,0,0-2,1.88c-.61.65-1.19,1.33-1.85,1.94s-1.1.78-1.22,1.52a2.11,2.11,0,0,0,0,.36c0,.81,0,1.63,0,2.45l0,11.65.09,22.87a7.67,7.67,0,0,0,.88,3.54,9.57,9.57,0,0,0,.79,1.1,1.91,1.91,0,0,1,0,1.95c-.3.78-.37.88-1.06.9L56,142.06l-3.34.09v.12l13.86-.38a8.7,8.7,0,0,0,2.34-.06c.67-.27.88-1.62.87-2.3s-.57-1-1-1.67a7.81,7.81,0,0,1-1-3.36c-.21-3.75,0-7.55,0-11.3l-.08-17.72,0-6.31c0-1.24-.26-2.36.74-3.24,1.78-1.58,3.17-3.55,5.19-4.84.67-.43.57-.57,1-.19a5.79,5.79,0,0,1,.75,1.22L76.44,94l17.25,28.18c1.73,2.83,3.5,5.64,5.19,8.49a2.15,2.15,0,0,1,0,2.53A3.25,3.25,0,0,1,97,134.65c-.72.26-1.28.59-1.39,1.4-.2,1.62,2.42,1.23,3.53,1.22,4.8-.05,9.6-.11,14.4-.15.91,0,1.82,0,2.73,0a2.58,2.58,0,0,0,1.66-.51,3.09,3.09,0,0,0,.74-1.74c0-.6-.78-.75-1.27-.85-2.11-.47-4-.3-5.79-1.78a15.05,15.05,0,0,1-2.13-2.17c-.42-.54-1.08-.81-1.49-1.38a5.66,5.66,0,0,1-.34-.59l-2.08-3.56-7.81-13.39L82.83,85.6c-.11-.19-.43-.55-.45-.77s0,.12,0,0a1,1,0,0,1,.23-.28c1.07-1.12,2-2.48,2.94-3.69L96.27,67.43c2.38-3,4.68-6.05,7.15-9,1.21-1.43,2.6-2.75,3.94-4.06a18.08,18.08,0,0,1,3-2.57,10.79,10.79,0,0,1,3.26-1.22c.91-.22,2.69-.44,2.77-1.67.11-1.73-2.08-2-3.33-1.87-2.17.3-4.44,1.29-6.6,1S102,46.6,99.8,47.79c0,0,0,.09,0,.1a3.09,3.09,0,0,0,.2,1.35c.4.77,1.22.74,1.79,1.27,1.39,1.29-.18,3-1.06,4.06-.41.48-.83.94-1.25,1.41l-7.14,8.09L72.85,86.16,69.7,89.73c-.27.31-1.12,1.67-1.55,1.75-.18,0,0,.13-.07-.07s0-.79,0-1L68,86.07l-.43-28.91c0-2.38-.15-4.77-.11-7.15a12,12,0,0,1,1.62-5.66,3,3,0,0,0,.65-1.45c-.06-1.68-2.11-1.26-3.12-1.07a22.6,22.6,0,0,1-7.06.25c-1.48-.17-9-2.27-8.81.59.11,1.58,2,1.47,3.06,1.79a8.34,8.34,0,0,1,2,1.18c.16.1.57.25.65.39a3.74,3.74,0,0,1,0,1.25l.08,2.86.66,23.44.86,31.11.67,24a35.7,35.7,0,0,1,.13,4.62A5.9,5.9,0,0,1,56,137.71a13.73,13.73,0,0,1-3.68,1.54c-.91.24-2.43-.12-2.63,1.09-.3,1.8,1.58,1.91,3,1.93Z"/><path class="cls-12" d="M53.42,41.87c2.33.05,4.57.78,6.89.9,1.12.06,2.27.2,3.39.15a29.67,29.67,0,0,0,3.62-.59c.5-.09,1.81-.32,1.91.58,0,.42-.72,1.29-.91,1.66A12.72,12.72,0,0,0,67,50c0,1.85.05,3.72.08,5.58l.44,29.15L67.6,93h0q6-6.76,12-13.54l18.6-21.07a41.2,41.2,0,0,0,4.15-4.9,3.29,3.29,0,0,0,.57-1.82,2.3,2.3,0,0,0-1-1.83c-.55-.36-1.75-.56-1.39-1.45.6-1.54,4.4.19,5.54.3a6.59,6.59,0,0,0,1.88.07c1.06-.18,2.12-.45,3.18-.67.77-.17,5.2-1.15,4.67.89-.15.6-1,.74-1.51.87a22.62,22.62,0,0,0-2.68.74c-2.16.82-3.74,2.56-5.34,4.15C105.13,55.79,104,56.86,103,58c-1.8,2.12-3.48,4.36-5.21,6.53Q90.07,74.27,82.33,84l-.59.74a.24.24,0,0,0,0,.12l15.63,26.8,8.79,15.07a25,25,0,0,0,1.44,2.45,9.46,9.46,0,0,0,1.22,1.06c.35.34.55.8.89,1.16a9.46,9.46,0,0,0,3.46,2.49,14.55,14.55,0,0,0,3.2.59c.3,0,1.42,0,1.6.32s-.15.95-.33,1.17c-.75,1-2.87.55-4,.55l-2.38,0-10.12.1-2.73,0c-.43,0-1.81.17-2.2-.19-.74-.69,1-1.19,1.33-1.35a3.3,3.3,0,0,0,1.75-4.76c-5.77-9.76-11.85-19.36-17.77-29Q78.31,96,75.06,90.72a3.21,3.21,0,0,0-.36-.59c-.33-.36-.11-.31-.62-.07a10,10,0,0,0-1.51,1,21.31,21.31,0,0,0-2.83,2.71c-.69.76-1.68,1.4-2.28,2.21s-.35,2.44-.34,3.37l.14,34.85c0,.21,0,.43,0,.65a8.44,8.44,0,0,0,1,3.29c.58,1,1.27,1.18.75,2.56-.33.85-1.2.56-2,.59l-4.66.12c-3.06.09-6.11.19-9.17.26-.85,0-2.49.3-2.89-.63s.69-.93,1.31-1a11.48,11.48,0,0,0,2.88-.78c2.55-1,4.73-2.93,5-5.84a17,17,0,0,0,0-1.75l-.34-12L57.9,78.46,57,47.56l-.06-2h0a14.22,14.22,0,0,1-1.66-1,7,7,0,0,0-2.74-1c-.57-.13-1.32-.27-1.27-1s1.49-.67,2.11-.67v-.12c-.72,0-2.3-.18-2.18.93a1.07,1.07,0,0,0,.75.87c1,.42,2.06.31,3,.9.46.28.88.64,1.35.92.21.12.53.19.64.42a1.91,1.91,0,0,1,0,.54v.54l.21,7.52L58.1,86l.95,34,.29,10.59c.07,2.41.26,4.85-1.78,6.69a9.52,9.52,0,0,1-3.58,2,16.12,16.12,0,0,1-2.13.61c-.6.09-1.47-.13-1.66.56-.43,1.55,2,1.36,2.91,1.34,4.91-.1,9.82-.27,14.73-.41,1,0,1.19-.09,1.37-1.33.09-.66,0-.69-.37-1.18a7.87,7.87,0,0,1-1.57-5.08l-.05-13.29-.07-17.2,0-5.23c0-.3,0-.61,0-.9a2.17,2.17,0,0,1,.92-1.6,24,24,0,0,0,2.08-2.08,18.54,18.54,0,0,1,2.46-2.31c.27-.19,1.58-1.27,2-1.19.19.05.48.79.64,1.06l1.89,3.08L84.94,107c4.79,7.82,9.68,15.58,14.37,23.46a2.45,2.45,0,0,1,.33,2.32,4,4,0,0,1-1.86,2.15c-.43.21-1,.21-1.36.55-1.65,1.51,1.75,1.31,2.43,1.31l14.42-.14h1.78a4.71,4.71,0,0,0,2.27-.24c.5-.31.63-1,.79-1.51v-.13c-1.23-.75-3.19-.46-4.56-.87a9,9,0,0,1-4.39-3.34c-.48-.65-1.23-1-1.68-1.69a7.33,7.33,0,0,1-.39-.67L102.33,120,87.17,94l-4.68-8-.38-.63c-.33-.57-.36-.54.06-1.06l1.49-1.87,17.22-21.59c.69-.87,1.36-1.75,2.07-2.6s1.3-1.42,2-2.11a28.54,28.54,0,0,1,5.23-4.78,9.9,9.9,0,0,1,2.57-1c.86-.24,2.09-.28,2.79-.87a.82.82,0,0,0,.32-.49c.4-2.2-3.85-1.2-4.76-1s-2.12.49-3.18.67a6.59,6.59,0,0,1-1.88-.07c-2-.22-3.73-1.34-5.71-.46v.12a1.49,1.49,0,0,0,1,1.46,2.25,2.25,0,0,1,1.51,2.52,6.81,6.81,0,0,1-1.72,2.72c-.46.54-.94,1.07-1.41,1.6L92,65.19l-19.43,22-4,4.59c-.08.09-.83,1.07-.93,1a8.13,8.13,0,0,1,0-1.5l0-1.22,0-3-.44-28.76c0-2.77-.15-5.54-.12-8.3a13.1,13.1,0,0,1,1-4.69c.27-.66,1.22-1.71,1.23-2.4,0-1.13-1.46-.86-2.13-.74a31,31,0,0,1-3.18.53,29,29,0,0,1-3.61-.13c-2.32-.12-4.56-.85-6.89-.9v.12Z"/><path class="cls-12" d="M53.42,40.75c-1.33,0-3.27.09-3.18,1.89.07,1.24,1,1.79,2.08,2A7,7,0,0,1,56,46.33c0,.1,0,.33,0,.44a54.83,54.83,0,0,1,.18,6.54L57,82l.92,33.16.34,12.18a53.75,53.75,0,0,1,.16,5.81,5.17,5.17,0,0,1-2.44,4,14.47,14.47,0,0,1-3.7,1.59c-1.19.31-2.85-.06-3.07,1.57-.28,2.13,1.76,2.46,3.48,2.45s3.24-.09,4.86-.13l8.27-.23,2.75-.08c.94,0,1.22-.61,1.5-1.56a4.44,4.44,0,0,0,.17-1.9c-.07-.16-.28-.29-.4-.42a5,5,0,0,1-1-1.53,9.49,9.49,0,0,1-.59-4l-.12-29.74,0-5a7,7,0,0,1,0-1c0-.42.22-.54.5-.83.72-.7,1.44-1.35,2.12-2.09a19.07,19.07,0,0,1,2.08-2c.23-.18,1.18-1,1.38-.9s.34.56.44.72l2.18,3.56,16.45,26.87c1.69,2.76,3.41,5.52,5.08,8.3a3.41,3.41,0,0,1,.46.83c.21.87-.72,2-1.47,2.41s-1.37.33-1.87,1a2.23,2.23,0,0,0-.4,1.55c.27,1.4,2.35,1.21,3.4,1.21,4.51,0,9-.09,13.54-.13a23.43,23.43,0,0,0,5.24-.19c1.18-.31,2.73-2.52,1.42-3.51-1-.78-2.63-.53-3.83-.77A7.9,7.9,0,0,1,110.9,131c-.63-.55-1-1.27-1.63-1.81a5,5,0,0,1-.91-.82,7.33,7.33,0,0,1-.39-.67l-5.25-9L86.53,91,84,86.6c-.23-.4-1-1.3-1-1.78,0,.23.3-.26.39-.38L84.53,83l4-5L98.88,65c2.15-2.69,4.2-5.48,6.6-7.95,1.67-1.73,3.46-3.93,5.63-5a12.06,12.06,0,0,1,2.62-.88,6,6,0,0,0,2.3-.78,1.81,1.81,0,0,0,.83-1.38c0-2-2.2-2.57-3.8-2.36-1,.13-2,.36-3,.58a12.33,12.33,0,0,1-2.74.55c-2-.06-4.12-1.37-6.1-1-.89.18-1.87.38-1.88,1.33a3.43,3.43,0,0,0,.13,1.06c.34,1.13,1.18,1.09,1.94,1.71,1.4,1.15-.66,3-1.56,4l-2.67,3L87.34,69,69.14,89.61c-.07.08-.43.61-.53.61s0-.07,0-.26a17.89,17.89,0,0,1,0-3.66l-.23-15.17L68,55.47c-.06-3.82-.48-7.57,1.57-11a2.81,2.81,0,0,0,.62-1.55c-.07-1.45-1.53-1.91-2.71-1.73s-2.4.53-3.63.62a27.71,27.71,0,0,1-3.53-.13c-2.34-.12-4.59-.86-6.94-.9v.12c2.24,0,4.37.7,6.59.88a22.65,22.65,0,0,0,6.42-.27,4.33,4.33,0,0,1,2.51-.15c.72.33,1.46,1.11,1.25,2a5.66,5.66,0,0,1-.76,1.33,11.51,11.51,0,0,0-1.09,2.84A23.68,23.68,0,0,0,68,53.91l.42,28.2.12,8.26h0L81,76.26,98.54,56.41c1-1.1,3.46-3.32,3.33-4.76A1.41,1.41,0,0,0,101,50.5a2.46,2.46,0,0,1-1.6-1.77c-.22-1.18.25-1.38,1.23-1.72a4.59,4.59,0,0,1,2.72,0c1.62.41,3.21,1,4.88.66a35,35,0,0,1,5.34-1c1.37-.06,3.62.72,3.3,2.52-.25,1.45-2.49,1.65-3.57,1.93a10.91,10.91,0,0,0-5.06,3.09c-1.49,1.43-3,2.87-4.36,4.44-1.67,2-3.22,4-4.83,6.05L83.3,84.37l-.35.44a.24.24,0,0,0,0,.12L99.34,113l8.25,14.16c.24.41.46.86.73,1.24a3.1,3.1,0,0,0,.58.62c.91.77,1.54,1.71,2.47,2.48a6.69,6.69,0,0,0,2.36,1.48,12.86,12.86,0,0,0,2.54.44,4.7,4.7,0,0,1,2.47.67c.67.59.21,1.66-.19,2.32-.87,1.41-3.1,1.07-4.51,1.07l-2.21,0-10.26.1-3.09,0a8.94,8.94,0,0,1-2.31-.17,1.45,1.45,0,0,1-.55-2.54c.67-.69,1.7-.62,2.37-1.32a2.65,2.65,0,0,0,.86-1.81,2.49,2.49,0,0,0-.46-1.07C92.27,120.52,86,110.42,79.73,100.26l-4.09-6.69-1.15-1.88c-.47-.76-.5-.47-1.37.18a22,22,0,0,0-2.85,2.78c-.63.68-2,1.48-2.16,2.43a5.14,5.14,0,0,0,0,.68l0,6.32.08,21.18,0,7.75c0,1.76,0,3.44,1.11,5,.25.36.69.64.87,1,.3.63-.3,2.85-1.08,3.18a9.12,9.12,0,0,1-2.56.07l-10.36.28c-1.64,0-6,.78-6.84-1a1.69,1.69,0,0,1,.79-2.38c.73-.26,1.55-.15,2.31-.38a11.25,11.25,0,0,0,4.39-2.14c2-1.82,1.5-4.68,1.44-7l-.41-14.76-1.2-43.11-.49-17.67-.16-5.47A7.16,7.16,0,0,0,56,46.25c-.1-.2-.48-.35-.67-.48a7.2,7.2,0,0,0-3-1.23c-.93-.2-1.83-.6-2-1.67-.35-1.86,1.85-2,3.13-2Z"/><path class="cls-12" d="M115.49,178.63a34.18,34.18,0,0,1-11.95-1.92,14.61,14.61,0,0,1-7.18-6.1,21.6,21.6,0,0,1-2.81-7.4,17.43,17.43,0,0,1,.81-8.22,14.12,14.12,0,0,1,5.29-7.39c3.09-2.22,7.25-2.69,10.95-2.47a9.86,9.86,0,0,1,8.15,4.69,7.8,7.8,0,0,1,.57,7.32,3.66,3.66,0,0,1-2.76,2.26,4.61,4.61,0,0,1-4.62-2.4c-.73-1.61.26-3.06,1.74-3.69,1.27-.54,1.76.35,2.65,1.15,0,0,0-.09,0-.12a15.61,15.61,0,0,0-1-2.66,8.21,8.21,0,0,0-4.16-3.41c-5.09-2-10.47.65-12.94,5.31A14.28,14.28,0,0,0,97.35,164a14.72,14.72,0,0,0,4.08,6.36,20.29,20.29,0,0,0,8,3.79,18.85,18.85,0,0,0,16.22-3,20.55,20.55,0,0,0,7.08-10.92A43.67,43.67,0,0,0,134,147.14l-.65-29-.92-41.3-.35-15.65c0-2.46.06-5-.16-7.43a5,5,0,0,0-.16-.84A4.3,4.3,0,0,0,128,49.66c-.92-.2-1.72.08-2.62,0-1.4-.2-1.65-1.93-1-3,1.1-1.83,4.64-1.32,6.39-1.27,3.28.1,6.56.32,9.84.4a31.86,31.86,0,0,0,4.15-.15c.86-.1,2.46-.64,3.1.1a2.41,2.41,0,0,1,.33,2.1c-.29.64-.85.73-1.5.78a5.52,5.52,0,0,0-1.87.38c-1.72.67-3.69,1.67-3.77,3.79-.07,1.68,0,3.38.06,5.06l.17,14,.5,40.58.41,33.63.05,4c0,.33,0,.67,0,1v.31A41.31,41.31,0,0,1,140,162.64a20.76,20.76,0,0,1-3.53,6.69,24.36,24.36,0,0,1-6.1,5,36.92,36.92,0,0,1-6.93,3.21,23.84,23.84,0,0,1-7.92,1.12v.12a24.92,24.92,0,0,0,9.44-1.68,33.85,33.85,0,0,0,8.37-4.67,18.31,18.31,0,0,0,5.62-7,38.05,38.05,0,0,0,2.61-8.63,41.86,41.86,0,0,0,.69-8.7L142,132.62l-.29-23.33-.3-25-.26-20.81c0-3.48-.17-7-.13-10.44a3.56,3.56,0,0,1,1-2.34,6.93,6.93,0,0,1,3.95-2c1-.14,2.23.07,2.35-1.35.08-1-.28-2.1-1.33-2.16a15.49,15.49,0,0,0-2.43.29,25.71,25.71,0,0,1-2.77.15c-1.91,0-3.82-.11-5.72-.2s-3.82-.18-5.72-.23a15.9,15.9,0,0,0-4.36.21,2.53,2.53,0,0,0-1.9,3c.42,1.7,1.83,1.06,3.09,1.17a6.34,6.34,0,0,1,3.29,1.18,4.36,4.36,0,0,1,1.43,3c.11.89,0,1.84.07,2.74l.14,6.35L132.56,83l.55,25,.52,23.21.34,15.17c.15,6.91-.17,14.11-4.1,20.06a18.37,18.37,0,0,1-15.24,8.24,23.3,23.3,0,0,1-10.69-2.84A13.16,13.16,0,0,1,98,165.55c-2.64-5.75-1-13.32,4.7-16.56,4.2-2.4,10.94-1.32,12.93,3.53.17.41.72,1.41.64,1.81,0,.15.1,0-.06-.08a4,4,0,0,1-.52-.48,4.34,4.34,0,0,0-.81-.74c-1-.46-2.61.86-3,1.73a2.56,2.56,0,0,0-.2,1.06c0,2.37,2.67,4,4.86,3.7,2-.3,3-2.24,3.29-4.06.69-3.84-1.56-7.51-4.92-9.36-2.75-1.51-6.34-1.31-9.36-.85a13.5,13.5,0,0,0-8.3,4.4,17.22,17.22,0,0,0-4,11.5,19.56,19.56,0,0,0,4.55,11.63c4.26,5,11.42,5.94,17.64,6Z"/><path class="cls-12" d="M128.56,45.81c3.95,0,7.89.32,11.84.43a37.81,37.81,0,0,0,5.62-.3c.61-.08,1.2-.3,1.56.29.55.89.22,1.68-.73,1.82a10.57,10.57,0,0,0-4,1.19,4.51,4.51,0,0,0-2.29,3.49c0,.14,0,.28,0,.41,0,3.73.09,7.46.14,11.2l.27,22.3.33,26.28.29,23.43.16,13.66a21.56,21.56,0,0,1-.21,3.46c-.73,5.79-2.21,12.36-6.47,16.62a28.15,28.15,0,0,1-18,8c-6.56.26-14.55-.55-19-5.95a17.75,17.75,0,0,1-3.95-14,15.92,15.92,0,0,1,3.24-7.68,13.38,13.38,0,0,1,9-4.66c3-.37,6.35-.43,9,1.25s4.47,4.58,4.13,7.64c-.21,1.91-1.08,4.16-3.31,4.27a4.12,4.12,0,0,1-3.67-2c-.77-1.43.21-2.77,1.59-3.24.75-.25,1.06.35,1.59.84l1.77,1.61s0-.1,0-.12c-.84-2.45-1.37-4.88-3.42-6.63-4.68-4-11.54-2.42-15.1,2.18a14.41,14.41,0,0,0,1.33,18.35c2.2,2.32,5.43,3.69,8.45,4.56a19.45,19.45,0,0,0,17.45-3.06,21.59,21.59,0,0,0,7.4-12.23,49.91,49.91,0,0,0,.94-12.9l-.76-34.15-1-43.63-.29-12.83c0-.67,0-1.37,0-2a5.71,5.71,0,0,0-.94-2.71,5.43,5.43,0,0,0-2.88-1.66,9,9,0,0,0-2.78-.13c-1.52,0-1.58-2-.57-2.7s2.24-.56,3.33-.63v-.12c-1.61.1-4.11,0-4,2.27,0,1,.67,1.35,1.61,1.24a6.94,6.94,0,0,1,3.33.47,4.8,4.8,0,0,1,2.95,4.63l.25,11.52.48,21.6.56,25.19.5,22.2.29,13c.18,8.2-1.09,17.29-7.69,22.93A19.53,19.53,0,0,1,108,174.16c-3.23-1-6.48-2.58-8.61-5.31a14.2,14.2,0,0,1-3.06-10.08,13,13,0,0,1,3.17-7.83,10.75,10.75,0,0,1,8.15-3.73,8.71,8.71,0,0,1,8.91,6.51l.46,1.36c.06.16.41.83.34,1,.06-.15-1.21-1.18-1.47-1.41s-1-1.13-1.47-1.19c-1.07-.13-2.18,1.24-2.25,2.19a3.31,3.31,0,0,0,2.32,3.11c2.42,1,4.19-.64,4.74-2.9a8.49,8.49,0,0,0-4.22-9.14c-2.59-1.51-5.81-1.43-8.7-1.08a13.17,13.17,0,0,0-8.64,4.28,16.66,16.66,0,0,0-3.9,11.22,18.87,18.87,0,0,0,5,11.89c4.52,4.8,12.33,5.45,18.54,5.17a28.31,28.31,0,0,0,17.26-7.51c4.36-4,6-10.27,6.82-16a24.8,24.8,0,0,0,.38-3.94c0-3.53-.08-7.06-.13-10.58l-.25-20.88-.31-25-.29-23.28-.19-15.39c0-.94-.06-1.9,0-2.84.08-2.31,2.16-3.45,4-4.21a6.14,6.14,0,0,1,1.94-.43c.63,0,1.18-.09,1.29-.81a2.15,2.15,0,0,0,0-.51c0-.36-.14-.92-.5-1.1-.53-.28-1.87.13-2.48.19a34,34,0,0,1-5.05.14c-3.73-.12-7.46-.4-11.2-.41v.12Z"/><path class="cls-12" d="M147.15,44.69c-1.72.17-3.42.45-5.15.45-1.46,0-2.92-.06-4.38-.13-3.21-.14-6.47-.47-9.68-.29-2.1.12-4.39.55-4.41,3.17a2.7,2.7,0,0,0,.36,1.41c.8,1.33,2.08.72,3.31.84,2.22.21,3.89,1.32,4.2,3.6,0,.19,0,.41,0,.61l.09,4.15.38,17.16.53,23.82.54,24.39.42,18.5a95.93,95.93,0,0,1-.07,12.11c-.58,5.5-2.42,11.1-6.54,15-5.2,4.87-12.63,5.86-19.22,3.49-3-1.07-5.81-2.54-7.69-5.18a13.3,13.3,0,0,1-2.4-9.87c.8-5.76,5.91-10.78,12-9.47a8,8,0,0,1,5.49,3.84c0,.06.25.39.22.47.14-.37-1.13-.21-1.34-.14a3.63,3.63,0,0,0-2.6,2.57c-.72,3.79,4.76,6.46,7.47,3.83,2.37-2.28,2.14-6.53.68-9.18a10.24,10.24,0,0,0-7.1-5.13,20.19,20.19,0,0,0-10.61,1.08c-5.69,2.39-8.37,8.32-8.85,14.15a18.14,18.14,0,0,0,1.72,8.45,17.88,17.88,0,0,0,4.87,6.69,18.25,18.25,0,0,0,8.31,3.47,39.78,39.78,0,0,0,11.16.58,25.34,25.34,0,0,0,8.72-2.65,30,30,0,0,0,7.69-5.09,19.62,19.62,0,0,0,4.88-7.73,40,40,0,0,0,2.57-12.37c.06-2.17,0-4.36-.08-6.53l-.22-18.11-.3-24.06-.3-24.32-.22-18.5-.07-5.32c0-1.28-.16-2.16.73-3.25a6.57,6.57,0,0,1,3.27-1.85c1.17-.35,2.7.11,3.16-1.43.38-1.24-.2-3-1.58-3.2,0,0,0,.12,0,.12a2.32,2.32,0,0,1,1.06,3.81,3.2,3.2,0,0,1-1.84.46,5.38,5.38,0,0,0-1.75.49c-1.44.6-3,1.48-3.07,3.25,0,.75,0,1.51,0,2.27L141.76,70l.29,23.36.31,25.51.26,21.31c0,3.58.11,7.17.13,10.76a2.88,2.88,0,0,1,0,.59,49.56,49.56,0,0,1-.89,6.17,35,35,0,0,1-3.16,9.23,19.47,19.47,0,0,1-6.22,6.64,35.87,35.87,0,0,1-8.34,4.26,26.87,26.87,0,0,1-10.39,1.3,32.25,32.25,0,0,1-10.52-2,14.75,14.75,0,0,1-6.71-5.38,18.75,18.75,0,0,1-3.37-13.88,16.71,16.71,0,0,1,3.37-8,13.79,13.79,0,0,1,8.23-4.89c3.33-.63,7.4-.89,10.47.79s5.37,4.8,5.29,8.26a6.77,6.77,0,0,1-2,5.05c-2.12,1.7-5.54.59-6.83-1.63a3.12,3.12,0,0,1,.15-3.38c.61-.81,2.39-2,3.42-1.34,0,0,0-.1,0-.12-1.48-4.17-7.34-5.4-11-3.92-4.69,1.87-6.85,6.59-6.88,11.38a13,13,0,0,0,6.25,11.14c6.16,3.47,13.64,4.36,19.95.75,8.15-4.67,10.2-14.44,10-23.14,0-2.52-.11-5-.17-7.55l-.89-40.05-.89-40.19c0-2.43.12-5-.17-7.41a3.58,3.58,0,0,0-2.19-3.13,6,6,0,0,0-2.69-.49,3.11,3.11,0,0,1-2-.18,2.5,2.5,0,0,1-.87-2.63c.57-2.6,3.83-2.44,5.89-2.4,3,0,5.91.23,8.87.35a62.56,62.56,0,0,0,8.76-.36Z"/></g><path class="cls-9" d="M52.66,142.21c-2.81,0-2.87-.57-3-1.52s.48-1.15,1.54-1.21c.21,0,.42,0,.61-.06h0a11.21,11.21,0,0,0,1.71-.49c.4-.13.74-.25.85-.27h.14l.05-.07c.46-.28.85-.5,1.19-.68,1.8-1,2.22-1.35,3.12-4.45l0-.07L56.49,46l-.27-.14a7.94,7.94,0,0,1-.83-.54,4,4,0,0,0-1.59-.87l-1.12-.24c-1-.21-1.37-.29-1.7-.87a1.78,1.78,0,0,1-.24-.66c0-.44.22-1,.53-1a5.54,5.54,0,0,1,2.15-.29,22.88,22.88,0,0,1,4,.49,18.82,18.82,0,0,0,3.25.42c.46,0,.92,0,1.36.08s.84.07,1.22.07A14.78,14.78,0,0,0,66.16,42a21.85,21.85,0,0,1,2.29-.37c.24,0,1.28.6,1.28,1.32a.78.78,0,0,1,0,.28l-.07.07,0,.07a4.06,4.06,0,0,1-.36.67,9.14,9.14,0,0,0-1.16,2.55,12.29,12.29,0,0,0-.63,3.48l.62,41.57,32.66-37,.33-.42a4.52,4.52,0,0,0,1.31-2.49,1,1,0,0,0-.22-.71,1.55,1.55,0,0,0-1-.92,2.11,2.11,0,0,1-1-.66,2.38,2.38,0,0,1-.34-1.57,5,5,0,0,1,1.92-.63,7.8,7.8,0,0,1,2.21.43,8.6,8.6,0,0,0,2.49.47.93.93,0,0,1,.4.08,1.14,1.14,0,0,0,.35.07,23.18,23.18,0,0,0,2.58-.49,33.07,33.07,0,0,1,4-.72c1.11,0,2.39.49,2.5,1.38a1.26,1.26,0,0,0,.13.54c0,.12,0,.31-.44.71a4.07,4.07,0,0,1-2,.79,9.48,9.48,0,0,0-4.79,2.23c-1.83,1.69-3.94,3.79-5.63,5.63L82.34,84.83,108,128.73a3.9,3.9,0,0,0,.91.84,1.92,1.92,0,0,1,.74.8,7.19,7.19,0,0,0,1.7,1.68c.28.23.53.43.67.57a6.07,6.07,0,0,0,2.5,1,5.92,5.92,0,0,0,1.24.18c1,.08,2.83.24,2.92.94-.56,2-.69,2.28-3.58,2.28h-1.36l-15.3.15c-2,0-2.75-.19-2.83-.78,0-1.26.7-1.52,1.83-1.85l.17-.05a3.62,3.62,0,0,0,1.79-2.72,1.42,1.42,0,0,0-.26-.79l-.1-.19L74.34,90.55l-.43.25A15.29,15.29,0,0,0,70.25,94a17,17,0,0,1-1.7,1.7c-.15.14-.25.22-.34.29a1.31,1.31,0,0,0-.6,1.16l.15,37.55c.4,2.93,1.47,3.94,1.92,4.38l0,0v.42a3.72,3.72,0,0,1-.75,2.23Z"/><path d="M53.42,41.81a23.05,23.05,0,0,1,3.93.48,19.48,19.48,0,0,0,3.34.43c.43,0,.88,0,1.32.08s.85.07,1.26.07a14.84,14.84,0,0,0,3-.4c.7-.14,1.41-.28,2.12-.35.28.09.85.5.85.81v0h0l-.08.19a3.33,3.33,0,0,1-.33.59,10.42,10.42,0,0,0-1.22,2.69A13,13,0,0,0,67,50.06l.6,40.28,0,2.58L69.31,91l31.8-36,0,0,0,0,.3-.38a4.8,4.8,0,0,0,1.41-2.8,1.6,1.6,0,0,0-.27-1,2.08,2.08,0,0,0-1.3-1.14,1.55,1.55,0,0,1-.73-.46,1.58,1.58,0,0,1-.27-1,4.4,4.4,0,0,1,1.42-.43,7.24,7.24,0,0,1,2.06.41,9.1,9.1,0,0,0,2.64.49.52.52,0,0,1,.23.05,1.48,1.48,0,0,0,.52.1h.11c.63-.07,1.53-.27,2.57-.5a34.37,34.37,0,0,1,3.87-.71c1,0,1.9.42,2,.91a1.9,1.9,0,0,0,.11.55,1.82,1.82,0,0,1-.28.32l0,0,0,0a4.34,4.34,0,0,1-1.74.61,10,10,0,0,0-5,2.34c-1.85,1.69-4,3.81-5.66,5.66l0,0,0,0L82.17,84.25l-.43.53.34.59L107.52,129l0,.06,0,.06a4.6,4.6,0,0,0,1,.88,1.5,1.5,0,0,1,.59.61,6.91,6.91,0,0,0,1.83,1.85c.25.2.51.42.63.53a6.1,6.1,0,0,0,2.68,1.16,6.6,6.6,0,0,0,1.37.2,7.56,7.56,0,0,1,2.44.48c-.49,1.68-.6,1.75-3.06,1.75h-1.37l-15.29.15c-1.75,0-2.25-.16-2.33-.31,0-.88.42-1,1.47-1.34l.08,0,.09,0,.08-.05a4.08,4.08,0,0,0,2.07-3.16,1.93,1.93,0,0,0-.32-1l-.09-.17,0,0,0,0L75,90.71l-.51-.84-.85.5a15.7,15.7,0,0,0-3.78,3.28,15.11,15.11,0,0,1-1.65,1.65l0,0,0,0-.26.22a1.79,1.79,0,0,0-.79,1.55l.15,37.55v.13a7.11,7.11,0,0,0,2,4.51v.2a3.57,3.57,0,0,1-.49,1.74l-16.07.44c-2.31,0-2.4-.3-2.49-1s.07-.65,1.07-.72a5.6,5.6,0,0,0,.6-.05,10.07,10.07,0,0,0,1.86-.52l.73-.23h.17l.24-.15c.46-.28.84-.49,1.17-.68,1.88-1.06,2.41-1.47,3.36-4.74l0-.15v-.16L57,46.23l0-.6-.54-.26c-.16-.09-.48-.31-.76-.51a4.4,4.4,0,0,0-1.79-1c-.43-.11-.79-.18-1.12-.24-1-.2-1.14-.26-1.34-.61a2.27,2.27,0,0,1-.19-.43,1.1,1.1,0,0,1,.15-.55h.07l.06,0a5,5,0,0,1,1.9-.23m0-1a6,6,0,0,0-2.27.3,1.53,1.53,0,0,0-.91,1.52,2.24,2.24,0,0,0,.31.91c.6,1.06,1.36.9,3.18,1.36.45,0,1.66,1.06,2.27,1.36l2.42,87.06c-1.06,3.64-1.36,3.18-4.09,4.85-.15,0-2.27.76-2.57.76-1.06.15-2.58-.16-2.58,1.81.15,1.37.61,2,3.49,2l16.5-.45a3.87,3.87,0,0,0,1.06-2.73v-.6c-.15-.31-1.51-.91-2-4.24l-.15-37.55c0-.61.3-.61.76-1.06,1.66-1.37,2.79-3.38,5.3-4.85l24.37,39.82c.16.3.31.46.31.76a3.09,3.09,0,0,1-1.52,2.27c-1.06.3-2.27.61-2.27,2.42.15,1.06,1.36,1.21,3.33,1.21l15.3-.15h1.36c3.33,0,3.48-.6,4.09-2.72,0-1.67-3.79-1.37-4.55-1.67a5.93,5.93,0,0,1-2.27-.91c-.45-.45-2-1.51-2.27-2.12-.45-.9-1.06-.9-1.66-1.66L83,84.87l20.89-26.19c1.67-1.82,3.79-3.94,5.61-5.61,2.57-2.42,5.75-1.81,6.81-3,.45-.46.6-.76.6-1.06s-.15-.31-.15-.61c-.15-1.21-1.66-1.82-3-1.82-2,.16-5.15,1.06-6.52,1.21a3.05,3.05,0,0,0-.75-.15c-1.67,0-3-.9-4.7-.9a4.69,4.69,0,0,0-2.42.9,3.13,3.13,0,0,0,.46,2.12c.9,1.06,1.66.61,2,1.52a.55.55,0,0,1,.15.45c0,.91-1.06,2-1.51,2.58l-31.8,36L68,50.05a11.85,11.85,0,0,1,.6-3.33,15.7,15.7,0,0,1,1.52-3.18.94.94,0,0,0,.15-.61c0-1.06-1.36-1.82-1.82-1.82-1.81.15-3.48.76-5.14.76-.76,0-1.67-.15-2.58-.15-2,0-4.69-.91-7.27-.91Z"/><path class="cls-9" d="M115.49,178.69c-6.12,0-12-1.35-14.9-3.43-6.13-4.38-7.31-12.45-7.3-14.38,0-2.43,1.15-7.54,2.78-9.69a14.45,14.45,0,0,1,6-5A21.23,21.23,0,0,1,109.3,145a11,11,0,0,1,5.33,1c2.7,1.28,5.37,4.39,5.37,7.91,0,.22,0,5.58-4,5.58a3.4,3.4,0,0,1-.45,0,4.47,4.47,0,0,1-3.78-2.91c-.19-1-.18-2.48,2.1-3.39a1.87,1.87,0,0,1,.68-.15.72.72,0,0,1,.34.07l1.44,1.31-.66-1.86A7.84,7.84,0,0,0,110,148a10.5,10.5,0,0,0-2.57-.34c-4.63,0-8,3.37-9.4,6.25a15.41,15.41,0,0,0-.84,9.68c1.23,3.78,3.34,6.56,6.08,8.05a23.48,23.48,0,0,0,11.33,3.18,18.09,18.09,0,0,0,8.53-2.12c7.35-3.88,11.11-12.1,10.86-23.77L131.9,53.67a1.46,1.46,0,0,0-.1-.45,1.54,1.54,0,0,1-.05-.17V53l0,0-.18-.54a2.62,2.62,0,0,0-1.37-1.83,7.75,7.75,0,0,0-3.32-1,4,4,0,0,0-.63.08,2.55,2.55,0,0,1-.43.07,1.8,1.8,0,0,1-1.16-.31,2,2,0,0,1-.61-1.46,3,3,0,0,1,.61-1.77,4.38,4.38,0,0,1,3-.86l.92,0c2,0,4.53.12,7,.23s4.78.22,6.57.22a27.76,27.76,0,0,0,3.43-.27c.53-.07,1.06-.14,1.62-.18a1.13,1.13,0,0,1,.66.38v0l.09.13a3.21,3.21,0,0,1,.37,1.54,1.39,1.39,0,0,1-.46,1,3.36,3.36,0,0,1-1.77.31,5.42,5.42,0,0,0-1.7.55,5.65,5.65,0,0,1-.58.23,3.63,3.63,0,0,0-1.91,1.39,2.8,2.8,0,0,0-.85,2l1.21,98.43c0,.06-.51,9.33-4.29,16-3,5.35-10.84,9.47-16.84,11a35,35,0,0,1-5.64.43Z"/><path d="M128.56,45.75c2,0,4.53.12,7,.23s4.8.22,6.6.22a26.4,26.4,0,0,0,3.49-.28l1.52-.17a1.06,1.06,0,0,1,.27.15l.1.16a2.68,2.68,0,0,1,.29,1.26.84.84,0,0,1-.26.6,3.29,3.29,0,0,1-1.47.22,5.45,5.45,0,0,0-1.9.59l-.51.21a4.22,4.22,0,0,0-2.16,1.54,3.29,3.29,0,0,0-1,2.3l1.21,98.39c0,.57-.61,9.4-4.22,15.8-2.94,5.21-10.6,9.25-16.49,10.8a34.61,34.61,0,0,1-5.56.42c-6,0-11.76-1.31-14.61-3.34-5.95-4.25-7.1-12.09-7.09-14,0-2.4,1.16-7.4,2.68-9.4a13.91,13.91,0,0,1,5.78-4.82,20.36,20.36,0,0,1,7-1.14,10.66,10.66,0,0,1,5.07.91l0,0,0,0c2.44,1.16,5,4.15,5,7.43,0,.2,0,5.07-3.5,5.07h-.4a4,4,0,0,1-3.34-2.51c-.18-1-.11-2.08,1.8-2.84a1.45,1.45,0,0,1,.49-.11h.06l2.81,2.56-1.27-3.7a8.42,8.42,0,0,0-6-4.88,10.48,10.48,0,0,0-2.69-.36c-4.86,0-8.34,3.52-9.85,6.53a16.11,16.11,0,0,0-.87,10.06c1.28,3.9,3.46,6.78,6.32,8.32a23.86,23.86,0,0,0,11.57,3.25,18.55,18.55,0,0,0,8.76-2.18c7.54-4,11.38-12.35,11.13-24.22L132.4,53.68a2.13,2.13,0,0,0-.12-.62l0-.07v-.08l-.05-.15-.17-.53a3.1,3.1,0,0,0-1.54-2.08,8.22,8.22,0,0,0-3.63-1.1,4,4,0,0,0-.72.09c-.11,0-.28.06-.34.06A1.74,1.74,0,0,1,125,49a1.53,1.53,0,0,1-.46-1.11,2.62,2.62,0,0,1,.43-1.37,3.89,3.89,0,0,1,2.7-.76l.9,0m18.59-1c-1.66.15-3.18.45-5,.45-3.63,0-9.69-.45-13.62-.45-2.27.15-2.73,0-4.24,1.06a3.41,3.41,0,0,0-.76,2.12,2.48,2.48,0,0,0,.76,1.81,2.22,2.22,0,0,0,1.51.46c.3,0,.76-.15,1.06-.15a7.43,7.43,0,0,1,3,.9c1.06.76.91.76,1.36,2.12,0,.16.15.46.15.61l2.12,95.24c.23,10.77-2.94,19.28-10.6,23.32a17.6,17.6,0,0,1-8.29,2.06,23.15,23.15,0,0,1-11.09-3.12c-2.44-1.33-4.59-3.9-5.85-7.76a15,15,0,0,1,.82-9.31c1.28-2.57,4.43-6,8.95-6a9.75,9.75,0,0,1,2.44.32,7.42,7.42,0,0,1,5.3,4.24,1,1,0,0,0-.65-.18,2.27,2.27,0,0,0-.86.18c-2.68,1.07-2.6,2.9-2.41,4a5,5,0,0,0,4.23,3.32,4,4,0,0,0,.49,0c4,0,4.5-4.91,4.5-6.07,0-3.64-2.72-7-5.6-8.33a11.49,11.49,0,0,0-5.6-1.06,21.5,21.5,0,0,0-7.42,1.21,14.83,14.83,0,0,0-6.21,5.15c-1.69,2.22-2.85,7.39-2.88,10,0,2,1.19,10.27,7.51,14.78,3.23,2.31,9.38,3.53,15.19,3.53a36.62,36.62,0,0,0,5.77-.44c6-1.58,14-5.69,17.15-11.29,3.88-6.87,4.35-16.27,4.35-16.27l-1.21-98.42a2.32,2.32,0,0,1,.75-1.66A3.23,3.23,0,0,1,144,49.89a12.23,12.23,0,0,1,2.12-.75,3.57,3.57,0,0,0,2.12-.46,1.87,1.87,0,0,0,.61-1.36,3.67,3.67,0,0,0-.46-1.82,1.52,1.52,0,0,0-1.21-.75Z"/></g></g></svg>