<?xml version="1.0" standalone="no"?>
<!DOCTYPE svg PUBLIC "-//W3C//DTD SVG 20010904//EN"
 "http://www.w3.org/TR/2001/REC-SVG-20010904/DTD/svg10.dtd">
<svg version="1.0" xmlns="http://www.w3.org/2000/svg"
 width="700.000000pt" height="700.000000pt" viewBox="0 0 700.000000 700.000000"
 preserveAspectRatio="xMidYMid meet">
<metadata>
Created by potrace 1.14, written by Peter Selinger 2001-2017
</metadata>
<g transform="translate(0.000000,700.000000) scale(0.100000,-0.100000)"
fill="#000000" stroke="none">
<path d="M3215 6994 c-527 -52 -991 -193 -1418 -433 -574 -321 -1037 -784
-1358 -1358 -214 -382 -350 -793 -414 -1254 -22 -158 -31 -562 -16 -741 102
-1210 823 -2279 1909 -2832 902 -458 1975 -501 2914 -115 672 276 1250 765
1637 1382 295 471 475 1011 522 1565 15 179 6 583 -16 741 -92 661 -339 1240
-746 1746 -566 704 -1362 1153 -2274 1281 -114 16 -633 28 -740 18z m185
-1347 c47 -25 80 -74 80 -120 0 -66 -76 -242 -222 -511 -45 -83 -188 -345
-319 -582 l-238 -432 73 -203 c119 -331 171 -462 525 -1339 186 -459 343 -850
349 -869 28 -80 2 -165 -58 -196 -37 -19 -169 -20 -214 -1 -18 7 -42 27 -53
42 -11 16 -62 148 -113 294 -327 940 -684 1920 -699 1920 -3 0 -60 -98 -126
-217 -66 -119 -176 -309 -244 -422 l-123 -206 6 -652 c7 -721 9 -698 -55 -744
-30 -21 -44 -24 -134 -24 -88 0 -104 3 -131 22 -54 39 -58 75 -45 476 29 910
34 1211 33 2007 0 844 -4 977 -39 1420 -9 118 -13 227 -10 242 4 15 24 40 44
55 34 26 44 28 142 31 95 2 110 0 146 -20 75 -43 77 -50 65 -414 -15 -507 -24
-1871 -12 -1859 6 6 75 127 155 270 352 634 643 1232 857 1768 48 120 96 227
106 239 48 53 177 66 254 25z m1897 -38 c71 -44 66 65 64 -1424 -2 -1363 -8
-1692 -36 -1915 -75 -600 -265 -881 -635 -940 -93 -14 -263 -12 -342 5 -208
44 -389 220 -487 475 -76 197 -106 390 -105 695 0 201 3 237 20 285 29 83 61
100 184 100 113 0 137 -12 164 -81 15 -37 15 -58 5 -193 -14 -178 -7 -423 16
-551 20 -115 67 -255 108 -324 38 -64 110 -131 175 -163 71 -35 177 -33 255 5
199 98 291 347 327 887 6 85 13 603 16 1150 6 981 0 1418 -27 1764 -13 164 -8
184 50 223 29 20 47 23 124 23 74 0 96 -4 124 -21z"/>
</g>
</svg>
