<svg width="241" height="240" viewBox="0 0 241 240" fill="none" xmlns="http://www.w3.org/2000/svg">
<path d="M47.5645 21C47.5451 43.4562 53.1422 65.5278 63.8013 85.0293C74.4605 104.531 89.812 120.785 108.336 132.184C126.859 143.582 147.913 149.729 169.411 150.015C190.909 150.301 212.106 144.717 230.903 133.816L170.991 21.1088L47.5645 21Z" fill="#014881"/>
<path d="M10.043 89.9219C10.0236 112.378 15.6207 134.45 26.2798 153.951C36.939 173.453 52.2905 189.707 70.8142 201.106C89.3379 212.504 110.391 218.651 131.889 218.937C153.387 219.223 174.584 213.639 193.382 202.738L133.469 90.0307L10.043 89.9219Z" fill="#008290"/>
<path fill-rule="evenodd" clip-rule="evenodd" d="M165.289 149.888L133.47 90.0296L66.6445 89.9707C77.1153 107.281 91.3996 121.762 108.336 132.183C125.674 142.852 145.228 148.92 165.289 149.888Z" fill="#E1AA12"/>
</svg>
