<svg enable-background="new 0 0 200 200" viewBox="0 0 200 200" xmlns="http://www.w3.org/2000/svg"><path d="m0 0h200v200h-200z" fill="#12294b"/><path d="m143.3 71v-33.5h-86.6v33.7h19.2v57.6h-19.2v33.7h86.5v-33.8h-19.2v-57.7zm-19.4 62.4h14.4v23.9h-76.8v-23.9h14.4c2.7 0 4.8-2.1 4.8-4.8v-57.6c0-2.7-2.1-4.8-4.8-4.8h-14.4v-23.9h76.8v23.9h-14.4c-2.7 0-4.8 2.1-4.8 4.8v57.6c.1 2.8 2.3 4.8 4.8 4.8z" fill="#fffffe"/><path d="m123.9 66.2h14.4v-23.9h-76.8v23.9h14.4c2.7 0 4.8 2.1 4.8 4.8v57.6c0 2.7-2.1 4.8-4.8 4.8h-14.4v23.9h76.8v-23.9h-14.4c-2.7 0-4.8-2.1-4.8-4.8v-57.6c.1-2.5 2.3-4.8 4.8-4.8z" fill="#e84b37"/></svg>