<svg enable-background="new 0 0 200 200" viewBox="0 0 200 200" xmlns="http://www.w3.org/2000/svg" xmlns:xlink="http://www.w3.org/1999/xlink"><linearGradient id="a" gradientTransform="matrix(200 0 0 -200 7960 48241)" gradientUnits="userSpaceOnUse" x1="-39.3" x2="-39.3" y1="241.205" y2="240.205"><stop offset="0" stop-color="#36c5f3"/><stop offset="1" stop-color="#0071bc"/></linearGradient><mask maskUnits="userSpaceOnUse"><path d="m12.5 52.2h175v63.8h-175z" fill="#fff" stroke="#000" stroke-miterlimit="10"/></mask><mask maskUnits="userSpaceOnUse"><path d="m12.5 52.2h175v63.8h-175z" fill="#fff" stroke="#000" stroke-miterlimit="10"/></mask><mask id="b" height="63.8" maskUnits="userSpaceOnUse" width="175" x="12.5" y="52.2"><path d="m12.5 52.2h175v63.8h-175z" fill="#fff" stroke="#000" stroke-miterlimit="10"/></mask><path d="m0 0h200v200h-200z" fill="url(#a)"/><path d="m99.9 111.1-51.1-17.3-8.8 42.4s6.2-8.7 27.6-9.3 32 9.3 32 9.3 11.4-9.3 32.8-9.3 27.5 9.3 27.5 9.3l-8.9-42.4z" fill="#fff"/><g opacity=".5"><g mask="url(#b)"><image height="329" overflow="visible" transform="matrix(.037636 0 0 .037636 14.924999806 62.366202)" width="902" xlink:href="F14F34E705BDFB9.png"/></g><path d="m99.9 111.1-83.8-28.4 83.9-28.3 84 28.3z" fill="#fff" opacity=".5"/></g><g fill="#fff"><path d="m99.9 54.4-83.8 28.3 83.9 28.4v-56.7z" opacity=".8"/><path d="m183.9 82.7-84-28.3v19.8h-8.2v14.2h8.2v22.6z"/><path d="m27.7 99c-.2-5.6.4-9.1 2-10.9.2-.2.4-.4.6-.6l-1.1-.4c-.1.1-.3.3-.4.4-1.1 1.3-2.3 4.4-2 11.7 0 0 .3-.1.4-.2.2.1.5 0 .5 0z" opacity=".9"/><path d="m28 105c-.9 0-1.7-.4-2.3-1l-5.7 43.8 2.9-4.7 2.6 4.7 2.9-4.7 2.8 4.7 2.8-4.8 2.8 4.7-6.2-44c-.7.9-1.6 1.4-2.6 1.3z"/><path d="m31.1 102c0 1.2-.7 2.3-1.9 2.8-1.1.5-2.4.2-3.3-.7s-1.1-2.2-.7-3.3c.5-1.1 1.6-1.9 2.8-1.9.8 0 1.6.3 2.2.9s.9 1.4.9 2.2"/></g></svg>