<svg enable-background="new 0 0 200 200" viewBox="0 0 200 200" xmlns="http://www.w3.org/2000/svg"><path d="m0 0h200v200h-200z" stroke="#fff" stroke-miterlimit="10"/><path d="m12.5 61.1c.1.2.3.8.4 1.4l.3 1 2.9-.1c3.4 0 3.1-.3 4.7 3.8.6 1.5 2.3 5.7 3.8 9.4 3.2 7.8 3.1 7.6 3.5 8.4.2.5 13.7 33.4 18.4 45 .2.4.4 1 .6 1.3.1.3.7 1.8 1.4 3.3l1.1 2.8h4.9c2.9 0 5-.1 5.1-.3.2-.2 1.2-2.9 2.2-6 1.1-3.2 3.1-9.1 4.5-13.1s2.8-8.2 3.1-9.2c1.2-3.6 5.3-15.5 5.6-16.1.2-.6.3-.4 1 1.6 4.7 14.3 13 39.4 13.5 41l.7 2.1h4.7c2.6 0 4.9 0 5.1-.1.3-.1.9-1.4 1.8-3.7 3-8 3-7.9 3.4-7.6.2.2.3.4.3.5 0 .5 2.2 3.7 3.3 5 2.8 3 7.9 5.8 12.1 6.7.2.1.9.2 1.6.4 4.1.9 13.9.9 17.6 0 .5-.1 1.3-.3 1.7-.4.8-.2 3.4-1 5.2-1.9 1.4-.6 4.4-2.5 5.5-3.6 1.8-1.6 2.1-1.9 3.1-3.2 2.4-2.9 4.7-7.1 6.9-12.6 1-2.6 1.4-3.8 4.3-12 .8-2.5 2.1-6.2 2.9-8.4.7-2.2 1.4-4.1 1.4-4.3.1-.2 1.8-5.5 3.9-11.7s4.3-12.6 4.8-14.2l1-2.9h5.9l.3-1c.1-.6.3-1.2.4-1.4.1-.3-1.2-.4-9.2-.4h-9.3l-.4 1.3c-.3.9-.3 1.3-.1 1.4s1.7.1 3.4.1 3.1.1 3.1.2c0 .2-6.7 19.8-7.6 22.4-.3.9-.6 1.8-.7 2s-1.2 3.7-2.6 7.7-3.5 10.3-4.8 13.9c-2.8 8.3-5.2 13.4-7.7 16.1-5.2 5.9-10.1 8.2-17.4 8-7-.2-11.1-3-12.4-8.5-.9-3.8.2-9.7 3.7-19.9.5-1.5 1.1-3.3 1.3-3.9.5-1.6 5-15 10.5-30.8.6-1.9 1.4-4.1 1.7-5s.6-1.7.8-1.9c.1-.2 1.4-.3 3.1-.2h2.9l.3-1c.1-.6.3-1.2.4-1.4.1-.3-2.1-.4-16.3-.3-14.4.1-16.5.1-16.5.5 0 .2-.2.8-.3 1.2-.1.5-.2.9-.1.9s1.6.1 3.3.1c2.6 0 3.1.1 3.1.4-.1.2-.5 1.6-1 3s-1.4 4-2 5.6c-.6 1.7-1.4 4-1.8 5.1-11 31.1-11.4 32.4-11.7 36.4-.2 2.3-.2 2.3-.5 1.3-1.5-4.6-2.7-8.3-4-12.4-.9-2.7-2.7-8.2-4-12.3s-2.6-8.1-2.9-8.9-1.6-4.8-2.9-8.9-2.5-7.7-2.6-8.1c-.5-1.2-.4-1.3 3-1.2 1.8 0 3.3-.1 3.3-.2s-.1-.7-.3-1.4l-.3-1.2h-16.3c-12.1 0-16.5.1-16.5.3 0 .5.6 2.3.8 2.4.1 0 1.4.1 3 .1h2.9l1 2.9c.5 1.6 2 6.1 3.3 10l2.3 7.1-.8 2.4c-.4 1.3-1.7 4.8-2.7 7.9-1 3-2.4 7.1-3.1 9s-1.3 3.7-1.3 3.9c-.6 1.7-3.2 9.3-3.2 9.4-.1.4-1.1-2-3.9-9.1-1.7-4.3-4.7-11.9-6.7-16.8s-3.8-9.4-4.1-10.1c-.2-.7-1.8-4.5-3.4-8.5s-3-7.5-3.1-7.8c-.1-.4.3-.4 3.2-.4 1.8 0 3.3-.1 3.3-.2s-.1-.7-.3-1.4l-.3-1.2h-16.8c-14.5.1-16.8.2-16.7.5z" fill="#fff"/></svg>