<?xml version="1.0" encoding="UTF-8" standalone="no"?><!-- Generator: Gravit.io --><svg xmlns="http://www.w3.org/2000/svg" xmlns:xlink="http://www.w3.org/1999/xlink" style="isolation:isolate" viewBox="0 0 200 200" width="200pt" height="200pt"><path d=" M 12.503 61.088 C 12.582 61.298 12.792 61.927 12.923 62.478 L 13.211 63.5 L 16.122 63.448 C 19.53 63.422 19.189 63.133 20.789 67.224 C 21.392 68.692 23.096 72.94 24.617 76.663 C 27.842 84.502 27.737 84.266 28.104 85.105 C 28.314 85.577 41.765 118.457 46.51 130.072 C 46.694 130.492 46.93 131.095 47.061 131.383 C 47.192 131.672 47.795 133.14 48.425 134.661 L 49.526 137.414 L 54.429 137.414 C 57.365 137.414 59.437 137.309 59.568 137.152 C 59.725 136.994 60.722 134.294 61.797 131.121 C 62.872 127.949 64.917 122.049 66.306 118.011 C 67.696 113.973 69.112 109.831 69.453 108.834 C 70.659 105.269 74.775 93.365 75.011 92.762 C 75.221 92.211 75.352 92.395 75.982 94.335 C 80.675 108.651 88.934 133.691 89.485 135.316 L 90.219 137.388 L 94.912 137.414 C 97.482 137.414 99.789 137.388 100.025 137.335 C 100.313 137.283 100.943 135.972 101.834 133.665 C 104.876 125.694 104.85 125.72 105.19 126.061 C 105.374 126.244 105.505 126.48 105.505 126.585 C 105.505 127.083 107.681 130.308 108.835 131.541 C 111.64 134.53 116.753 137.335 120.948 138.201 C 121.184 138.253 121.892 138.41 122.548 138.568 C 126.664 139.512 136.444 139.512 140.115 138.594 C 140.613 138.463 141.4 138.305 141.819 138.227 C 142.658 138.069 145.202 137.178 147.063 136.365 C 148.453 135.762 151.416 133.822 152.596 132.773 C 154.352 131.174 154.667 130.859 155.742 129.548 C 158.154 126.638 160.435 122.416 162.612 116.936 C 163.634 114.341 164.054 113.161 166.886 104.901 C 167.698 102.437 169.009 98.661 169.744 96.511 C 170.478 94.335 171.133 92.395 171.186 92.185 C 171.238 91.975 173.021 86.705 175.119 80.517 C 177.216 74.303 179.392 67.932 179.917 66.358 L 180.887 63.474 L 186.786 63.474 L 187.075 62.478 C 187.206 61.927 187.416 61.298 187.494 61.088 C 187.599 60.774 186.314 60.721 178.344 60.721 L 169.062 60.721 L 168.669 62.032 C 168.406 62.897 168.354 63.343 168.537 63.422 C 168.695 63.474 170.215 63.5 171.92 63.474 C 173.598 63.474 174.987 63.527 174.987 63.631 C 174.987 63.789 168.328 83.48 167.41 86.023 C 167.095 86.888 166.781 87.78 166.728 87.99 C 166.676 88.199 165.496 91.687 164.106 95.725 C 162.717 99.762 160.567 106.003 159.334 109.621 C 156.529 117.88 154.09 122.993 151.678 125.746 C 146.46 131.672 141.531 133.953 134.242 133.743 C 127.241 133.56 123.177 130.78 121.866 125.222 C 120.948 121.42 122.05 115.547 125.563 105.295 C 126.088 103.774 126.691 102.017 126.874 101.362 C 127.346 99.789 131.908 86.39 137.415 70.554 C 138.044 68.666 138.83 66.437 139.119 65.572 C 139.407 64.706 139.748 63.867 139.879 63.71 C 140.01 63.553 141.243 63.448 142.999 63.474 L 145.884 63.5 L 146.172 62.478 C 146.303 61.927 146.513 61.298 146.591 61.088 C 146.696 60.774 144.52 60.721 130.283 60.774 C 115.888 60.852 113.817 60.905 113.738 61.245 C 113.712 61.455 113.554 62.032 113.397 62.478 C 113.266 62.95 113.214 63.369 113.319 63.369 C 113.423 63.396 114.918 63.422 116.648 63.448 C 119.27 63.474 119.769 63.553 119.716 63.867 C 119.664 64.077 119.218 65.441 118.72 66.883 C 118.195 68.325 117.33 70.868 116.727 72.52 C 116.15 74.172 115.364 76.479 114.944 77.633 C 103.984 108.756 103.591 110.014 103.25 114.078 C 103.067 116.359 103.067 116.359 102.752 115.363 C 101.284 110.801 100.078 107.078 98.74 102.935 C 97.875 100.261 96.066 94.728 94.755 90.612 C 93.444 86.495 92.133 82.484 91.871 81.697 C 91.609 80.91 90.298 76.899 88.987 72.782 C 87.676 68.666 86.496 65.047 86.338 64.706 C 85.84 63.474 85.919 63.448 89.38 63.474 C 91.189 63.474 92.657 63.396 92.657 63.264 C 92.657 63.16 92.526 62.53 92.369 61.875 L 92.08 60.721 L 75.588 60.721 C 63.475 60.721 59.096 60.8 59.096 61.01 C 59.096 61.508 59.699 63.343 59.856 63.369 C 59.935 63.396 61.298 63.422 62.898 63.448 L 65.756 63.474 L 66.726 66.358 C 67.25 67.958 68.745 72.415 70.003 76.322 L 72.337 83.401 L 71.524 85.761 C 71.078 87.046 69.872 90.585 68.824 93.627 C 67.801 96.642 66.411 100.732 65.756 102.673 C 65.1 104.613 64.497 106.396 64.419 106.606 C 63.816 108.258 61.194 115.94 61.194 116.045 C 61.141 116.438 60.092 114 57.287 106.973 C 55.583 102.647 52.541 95.121 50.575 90.218 C 48.582 85.315 46.773 80.779 46.51 80.124 C 46.274 79.468 44.728 75.64 43.102 71.602 C 41.476 67.564 40.087 64.077 40.034 63.841 C 39.929 63.474 40.323 63.448 43.207 63.448 C 45.016 63.474 46.51 63.396 46.51 63.264 C 46.51 63.16 46.379 62.53 46.222 61.875 L 45.934 60.721 L 29.153 60.721 C 14.653 60.721 12.399 60.774 12.503 61.088 L 12.503 61.088 Z " fill="rgb(0,0,0)"/></svg>