<?xml version="1.0" encoding="UTF-8" standalone="no"?><!-- Generator: Gravit.io --><svg xmlns="http://www.w3.org/2000/svg" xmlns:xlink="http://www.w3.org/1999/xlink" style="isolation:isolate" viewBox="0 0 100 100" width="100pt" height="100pt"><g><g><path d=" M 49.896 0 L 49.896 0 L 49.896 0 L 0 0 L 0 100 L 49.896 100 L 49.896 100 L 49.896 100 L 89.336 78.049 L 96.497 16.606 L 49.896 0 L 49.896 0 Z " fill="rgb(255,167,38)"/><path d=" M 49.896 0 L 49.896 11.105 L 49.896 11.105 L 49.896 61.598 L 49.896 61.598 L 49.896 100 L 49.896 100 L 100 100 L 100 0 L 49.896 0 L 49.896 0 Z " fill="rgb(251,140,0)"/><path d=" M 56.902 75.921 L 24.053 60.093 L 42.891 48.469 L 75.947 64.349 L 56.902 75.921 L 56.902 75.921 Z " fill="rgb(255,224,178)"/><path d=" M 56.902 63.726 L 24.053 47.846 L 42.891 36.274 L 75.947 52.154 L 56.902 63.726 L 56.902 63.726 Z " fill="rgb(255,243,224)"/><path d=" M 56.902 51.531 L 24.053 35.651 L 42.891 24.027 L 75.947 39.907 L 56.902 51.531 L 56.902 51.531 Z " fill="rgb(255,255,255)"/></g></g></svg>