<?xml version="1.0" encoding="UTF-8" standalone="no"?><!-- Generator: Gravit.io --><svg xmlns="http://www.w3.org/2000/svg" xmlns:xlink="http://www.w3.org/1999/xlink" style="isolation:isolate" viewBox="0 0 100 100" width="100pt" height="100pt"><g><linearGradient id="_lgradient_75" x1="0.4999375078115236" y1="0" x2="0.4999375078115234" y2="1" gradientTransform="matrix(100,0,0,99.988,0,0.006)" gradientUnits="userSpaceOnUse"><stop offset="0%" stop-opacity="1" style="stop-color:rgb(14,212,252)"/><stop offset="100%" stop-opacity="1" style="stop-color:rgb(12,87,239)"/></linearGradient><path d=" M 100 0.006 L 0 0.006 L 0 99.994 L 100 99.994 L 100 0.006 Z " fill="url(#_lgradient_75)"/><path d=" M 49.885 21.829 L 51.666 18.75 C 52.765 16.826 55.217 16.177 57.141 17.277 C 59.065 18.376 59.714 20.828 58.614 22.752 L 41.452 52.46 L 53.865 52.46 C 57.889 52.46 60.143 57.188 58.394 60.464 L 22.002 60.464 C 19.781 60.464 18 58.683 18 56.462 C 18 54.241 19.781 52.46 22.002 52.46 L 32.205 52.46 L 45.267 29.822 L 41.188 22.741 C 40.088 20.817 40.737 18.387 42.661 17.266 C 44.585 16.166 47.015 16.815 48.136 18.739 L 49.885 21.829 L 49.885 21.829 Z  M 34.448 64.587 L 30.6 71.261 C 29.5 73.185 27.049 73.834 25.125 72.734 C 23.2 71.635 22.552 69.183 23.651 67.259 L 26.51 62.311 C 29.742 61.311 32.37 62.08 34.448 64.587 L 34.448 64.587 Z  M 67.586 52.482 L 77.998 52.482 C 80.219 52.482 82 54.263 82 56.484 C 82 58.705 80.219 60.486 77.998 60.486 L 72.215 60.486 L 76.118 67.259 C 77.217 69.183 76.569 71.613 74.645 72.734 C 72.72 73.834 70.291 73.185 69.169 71.261 C 62.594 59.859 57.658 51.327 54.381 45.643 C 51.028 39.86 53.425 34.055 55.789 32.087 C 58.416 36.595 62.342 43.4 67.586 52.482 L 67.586 52.482 Z " fill="rgb(255,255,255)"/></g></svg>