<?xml version="1.0" encoding="UTF-8" standalone="no"?><!-- Generator: Gravit.io --><svg xmlns="http://www.w3.org/2000/svg" xmlns:xlink="http://www.w3.org/1999/xlink" style="isolation:isolate" viewBox="0 0 100 100" width="100pt" height="100pt"><rect x="0" y="0" width="100" height="100" transform="matrix(1,0,0,1,0,0)" fill="rgb(32,38,42)"/><g><path d=" M 45.223 17.498 C 44.009 17.521 42.49 18.278 41.404 18.016 C 40.97 17.912 40.44 17.867 39.921 17.895 C 39.912 17.895 39.903 17.894 39.894 17.895 C 39.366 17.926 38.851 18.037 38.472 18.27 C 38.456 18.279 38.438 18.288 38.422 18.297 C 38.408 18.319 38.391 18.339 38.373 18.358 C 37.868 18.862 36.753 18.908 36.234 19.427 C 35.811 19.851 35.418 20.662 34.95 21.389 C 34.946 21.396 34.944 21.404 34.939 21.411 C 33.276 23.351 31.948 25.737 31.478 27.688 C 31.092 29.291 31.098 31.455 30.464 33.05 C 30.287 33.496 29.553 35.965 30.123 36.445 C 30.511 36.772 32.166 37.023 32.652 36.445 C 32.914 36.134 35.313 35.358 36.063 34.467 C 36.947 33.417 37.403 31.605 38.009 30.08 C 38.105 29.837 38.229 29.58 38.373 29.325 C 38.716 29.99 38.989 30.534 39.133 30.868 C 39.433 31.563 39.763 32.524 40.037 33.552 C 39.443 34.461 39.691 35.706 40.12 36.274 C 38.384 36.815 39.211 38.682 39.144 38.749 C 39.03 38.863 38.668 39.016 38.521 39.162 C 38.34 39.343 38.312 39.721 38.312 39.994 C 38.312 40.258 38.345 40.493 38.395 40.7 C 36.815 44.673 35.324 49.647 33.44 52.328 C 32.898 52.576 32.343 52.788 31.693 52.918 C 30.427 53.235 27.226 53.862 24.529 54.77 C 24.404 54.933 24.267 55.088 24.121 55.233 C 23.854 55.5 23.319 55.5 23.051 55.767 C 22.844 55.975 22.196 55.741 21.988 55.949 C 21.371 56.566 20.461 56.886 19.492 57.371 C 19.384 57.425 19.039 57.289 18.957 57.371 C 18.517 57.811 17.728 58.065 17.353 58.44 C 16.62 59.173 16.006 59.97 15.215 60.76 C 14.429 61.546 16.032 63.71 16.284 63.962 C 17.027 64.705 18.391 64.823 19.133 65.566 C 19.446 65.878 20.493 65.461 20.869 65.709 C 20.966 65.723 21.053 65.74 21.112 65.77 C 22.206 66.317 24.352 66.721 25.647 67.153 C 27.433 67.748 28.849 69.338 30.69 69.798 C 32.092 70.149 33.684 70.335 35.099 70.807 C 35.691 71.004 36.409 70.869 36.984 71.06 C 38.059 71.419 39.03 71.864 40.009 72.19 C 40.349 72.303 40.797 72.103 41.144 72.19 C 41.927 72.386 42.773 72.442 43.536 72.697 C 44.897 73.151 46.712 72.244 48.072 72.697 C 48.969 72.996 54.551 72.518 55 72.069 C 55.33 71.739 56.585 72.158 57.017 71.942 C 57.392 71.755 58.53 71.939 58.78 71.689 C 59.426 71.043 60.751 71.015 61.674 70.554 C 62.062 70.36 62.66 70.628 63.063 70.427 C 63.294 70.311 63.764 70.453 64.275 70.675 C 65.246 70.654 65.993 70.553 66.964 70.553 C 68.119 70.553 69.712 70.005 71.401 69.176 C 73.27 68.755 75.554 68.269 75.661 68.162 C 76.473 67.35 78.631 67.583 79.436 66.778 C 80.006 66.208 80.739 65.977 81.326 65.39 C 81.849 64.866 82.568 64.268 83.321 63.637 C 83.453 63.271 83.788 62.927 84.098 62.618 C 84.228 62.487 85.146 59.802 84.98 59.471 C 84.677 58.863 84.175 58.361 83.597 57.894 C 83.417 57.833 83.28 57.77 83.217 57.707 C 82.599 57.09 81.12 56.994 80.571 56.445 C 79.688 55.561 78.359 54.767 76.774 54.235 C 76.442 54.071 76.131 53.895 75.909 53.673 C 75.626 53.391 73.995 53.03 73.517 52.791 C 73.26 52.662 72.7 52.862 72.508 52.67 C 72.043 52.205 70.093 51.873 68.684 51.424 C 68.478 51.437 68.149 51.281 68.089 51.221 C 68.046 51.178 66.954 51.017 66.595 50.658 C 66.554 50.617 66.408 49.154 66.408 48.972 C 66.408 48.905 66.244 48.634 66.341 48.537 C 66.356 48.522 66.372 48.504 66.386 48.487 C 65.734 44.469 65.235 40.031 64.765 39.636 C 64.068 39.049 63.681 35.807 62.914 35.161 C 62.112 34.486 61.61 33.747 60.99 33.172 C 60.99 33.17 60.991 33.168 60.99 33.166 C 60.757 31.885 60.314 30.446 60.175 30.328 C 59.947 30.137 60.292 29.268 60.064 29.077 C 59.357 28.481 58.435 24.979 57.772 24.42 C 56.903 23.688 56.475 22.552 55.65 21.857 C 53.611 20.14 50.224 17.585 46.479 17.779 C 46.321 17.734 46.164 17.681 46.011 17.619 C 45.773 17.525 45.503 17.493 45.223 17.498 L 45.223 17.498 Z " fill="rgb(60,105,145)"/><path d=" M 44.415 39.735 C 44.1 39.678 43.792 39.675 43.551 39.755 C 43.15 39.888 42.502 39.572 42.082 39.648 C 40.496 39.935 39.253 40.364 39.039 40.897 C 41.393 40.222 44.006 41.729 45.076 43.16 C 45.522 43.755 44.835 44.657 45.078 45.386 C 45.132 45.552 45.176 46.61 44.986 46.753 C 44.587 47.05 44.627 48.09 44.298 48.565 C 43.522 49.681 42.846 50.497 42.188 51.446 C 41.509 52.424 39.693 52.62 38.68 52.956 C 38.456 53.03 38.174 52.876 37.938 52.954 C 37.882 52.973 37.817 52.976 37.752 52.967 C 37.775 52.993 37.801 53.017 37.82 53.042 C 37.906 53.157 38.322 53.048 38.444 53.132 C 39.232 53.679 42.348 53.469 43.212 53.183 C 43.749 53.004 44.248 52.741 44.785 52.562 C 45.475 52.333 46.153 51.261 46.648 50.709 C 48.351 48.811 49.129 45.523 48.287 42.986 C 47.864 41.71 46.756 40.946 45.812 40.291 C 45.49 40.067 44.939 39.829 44.415 39.735 L 44.415 39.735 Z  M 48.213 37.284 C 48.111 37.281 48.097 38.274 48.089 38.747 C 48.041 38.75 48.044 38.809 48.056 38.877 C 47.545 39.104 46.43 39.56 46.516 39.651 C 46.52 39.653 46.52 39.655 46.522 39.657 C 46.482 39.659 46.44 39.673 46.438 39.728 C 46.434 39.802 46.585 39.733 46.659 39.735 C 46.777 39.739 47.814 40.121 48.225 40.294 C 48.276 40.686 48.427 40.919 48.427 41.367 C 48.427 41.645 48.482 42.03 48.498 42.03 C 48.505 42.03 48.516 42.021 48.524 42.017 C 48.536 42.065 48.55 42.093 48.57 42.075 C 48.651 41.999 48.797 41.796 48.947 41.568 C 48.953 41.558 48.96 41.552 48.966 41.542 C 49.229 41.217 49.529 40.8 49.785 40.424 C 50.282 40.496 50.737 40.554 50.851 40.554 C 50.906 40.554 52.794 40.879 52.249 40.333 C 52.216 40.3 52.177 40.272 52.138 40.242 C 52.151 40.232 52.157 40.223 52.158 40.21 C 52.162 40.104 51.108 39.62 50.936 39.436 C 50.853 39.347 50.733 39.291 50.65 39.202 C 50.628 39.179 50.669 39.114 50.734 39.02 L 50.734 39.014 C 50.881 38.852 51.037 38.685 51.15 38.571 C 51.204 38.517 51.509 37.946 51.22 37.984 C 51.025 38.009 50.387 38.05 49.551 38.294 C 49.551 38.294 49.326 37.999 49.324 38 C 49.143 37.926 48.629 37.298 48.212 37.284 L 48.213 37.284 L 48.213 37.284 Z " fill="rgb(230,179,90)"/><path d=" M 43.495 37.137 C 43.435 37.166 43.344 37.284 43.315 37.224 C 43.286 37.164 43.555 37.108 43.495 37.137 C 43.316 37.224 42.621 37.849 42.877 38.047 C 43.088 38.209 43.868 37.905 44.199 38.021 C 44.249 38.038 44.799 38.882 44.885 38.636 C 45.026 38.234 44.852 37.55 44.856 37.537 C 44.921 37.352 45.429 37.428 45.553 37.368 C 45.656 37.319 45.864 37.231 45.892 37.149 C 45.9 37.127 45.906 37.061 45.916 37.082 C 45.924 37.1 45.78 36.96 45.605 36.899 C 45.342 36.807 45.077 36.864 44.889 36.799 C 44.803 36.768 44.907 36.259 44.875 36.193 C 44.772 35.98 44.707 35.728 44.725 35.766 C 44.776 35.872 44.503 35.87 44.431 35.963 C 44.341 36.079 44.105 36.474 43.953 36.472 C 43.77 36.469 43.039 36.295 42.99 36.435 C 42.986 36.443 43.446 36.898 43.495 37.137 L 43.495 37.137 Z  M 50.563 44.231 C 50.515 44.186 50.371 44.144 50.417 44.095 C 50.462 44.046 50.612 44.277 50.564 44.231 C 50.417 44.096 49.582 43.677 49.491 43.987 C 49.416 44.243 49.984 44.859 49.997 45.209 C 50.001 45.262 49.414 46.082 49.675 46.072 C 50.1 46.056 50.674 45.645 50.687 45.645 C 50.883 45.637 50.997 46.138 51.098 46.232 C 51.182 46.309 51.339 46.471 51.426 46.468 C 51.45 46.467 51.513 46.448 51.497 46.465 C 51.484 46.479 51.562 46.294 51.554 46.109 C 51.544 45.831 51.394 45.605 51.387 45.406 C 51.383 45.314 51.896 45.225 51.945 45.172 C 52.107 44.998 52.317 44.846 52.289 44.876 C 52.208 44.962 52.111 44.707 51.998 44.674 C 51.857 44.633 51.404 44.557 51.35 44.415 C 51.286 44.244 51.182 43.499 51.033 43.505 C 51.024 43.505 50.768 44.098 50.564 44.231 L 50.563 44.231 Z " fill="rgb(230,179,90)"/><path d=" M 66.639 50.824 C 66.497 51.314 65.604 52.884 65.228 53.26 C 64.745 53.743 64.329 54.247 63.906 54.671 C 63.605 54.971 62.748 55.74 62.495 55.993 C 61.944 56.544 61.62 56.338 60.996 56.963 C 60.686 57.273 60.063 57.279 59.761 57.58 C 59.489 57.853 57.3 58.017 56.763 58.286 C 56.633 58.351 56.245 58.187 56.146 58.286 C 55.76 58.672 52.71 58.812 52.619 58.903 C 52.152 59.37 50.908 58.832 50.238 59.168 C 49.643 59.465 48.463 59.256 47.769 59.256 C 47.384 59.256 46.363 59.248 45.311 59.223 C 45.063 59.187 44.867 59.16 44.859 59.168 C 44.854 59.173 44.83 59.197 44.815 59.211 C 44.618 59.205 44.427 59.197 44.237 59.19 C 44.118 59.144 43.992 59.116 43.889 59.168 C 43.885 59.17 43.878 59.171 43.873 59.173 C 43.052 59.133 42.382 59.075 42.214 58.991 C 41.524 58.646 40.783 58.55 39.921 58.55 C 38.573 58.55 35.587 56.956 34.542 56.434 C 34.382 56.354 33.939 55.889 33.699 55.761 C 33.697 55.669 33.694 55.585 33.661 55.552 C 33.415 55.306 33.307 54.757 33.132 54.406 C 33.058 54.26 33.132 53.723 33.132 53.789 C 33.132 53.792 33.309 53.083 33.308 53.083 C 33.157 53.083 32.367 54.113 32.073 54.406 C 32.071 54.409 32.079 54.425 32.084 54.439 C 31.919 54.666 31.804 55.006 31.804 55.519 C 31.804 57.267 32.767 57.359 33.672 58.264 C 33.894 58.486 34.369 58.338 34.542 58.512 C 34.719 58.689 34.979 58.846 35.286 58.986 C 34.903 59.211 34.162 59.267 33.92 59.509 C 33.682 59.746 32.582 60.429 32.173 60.633 C 32.096 60.672 31.723 60.714 31.677 60.76 C 29.347 63.09 26.718 64.594 24.567 66.745 C 24.386 66.926 24.319 69.292 24.319 69.738 C 24.319 70.517 24.055 71.342 24.567 71.854 C 24.783 72.07 25.501 71.917 25.692 72.108 C 25.733 72.149 26.254 72.537 26.314 72.477 C 26.542 72.249 26.188 71.06 26.188 70.735 C 26.188 69.033 26.371 67.311 27.439 66.244 C 29.497 64.186 32.431 63.247 34.294 61.383 C 34.842 60.835 35.846 60.543 36.576 59.945 C 36.55 60.12 36.58 60.286 36.708 60.424 C 36.793 60.516 37.097 60.334 37.204 60.391 C 37.936 60.779 40.168 61.612 40.825 60.81 C 40.944 61.036 41.039 61.266 41.156 61.383 C 41.593 61.82 41.251 63.931 41.029 64.376 C 40.191 66.052 39.749 70.891 39.034 71.606 C 38.91 71.729 39.182 72.905 39.282 73.105 C 39.542 73.625 39.092 74.783 39.282 74.973 C 39.469 75.16 39.348 75.657 39.536 75.844 C 39.706 76.014 40.484 75.8 40.654 75.971 C 40.722 76.038 41.609 76.642 41.778 76.473 C 41.919 76.332 41.394 74.711 41.277 74.477 C 41.177 74.276 41.548 70.586 41.652 70.482 C 41.797 70.337 41.506 69.757 41.652 69.611 C 41.935 69.328 42.274 63.458 42.274 62.629 C 42.274 62.489 42.632 61.614 42.401 61.383 C 42.4 61.382 42.195 60.91 41.916 60.452 C 42.328 60.482 42.674 60.532 42.776 60.633 C 42.959 60.817 46.649 60.633 47.262 60.633 C 49.698 60.633 53.531 60.445 54.994 60.132 C 55.577 60.007 56.961 59.898 57.739 59.509 C 58.19 59.283 59.781 59.129 60.059 59.057 C 60.653 58.904 62.562 58.445 63.095 57.911 C 63.491 57.515 64.846 56.143 65.344 55.894 C 65.906 55.613 66.188 54.615 66.518 54.152 C 66.56 53.81 67.481 52.916 67.3 52.554 C 67.095 51.719 66.967 50.856 66.639 50.824 L 66.639 50.824 Z " fill="rgb(230,179,90)"/></g></svg>