<?xml version="1.0" encoding="UTF-8" standalone="no"?><!-- Generator: Gravit.io --><svg xmlns="http://www.w3.org/2000/svg" xmlns:xlink="http://www.w3.org/1999/xlink" style="isolation:isolate" viewBox="0 0 512 512" width="512pt" height="512pt"><defs><clipPath id="_clipPath_DUhiPmcRT3VsL6EEAPESJNuKyF4WRNDn"><rect width="512" height="512"/></clipPath></defs><g clip-path="url(#_clipPath_DUhiPmcRT3VsL6EEAPESJNuKyF4WRNDn)"><g><circle vector-effect="non-scaling-stroke" cx="256" cy="256" r="252.5" fill="rgb(50,74,94)"/><path d=" M 390.719 369.039 C 402.846 356.132 410 340.257 410 323.1 C 410 279.885 364.609 244.8 308.7 244.8 C 252.791 244.8 207.4 279.885 207.4 323.1 C 207.4 366.315 252.791 401.4 308.7 401.4 C 329.102 401.4 348.103 396.728 364.009 388.694 L 411.1 408.4 L 390.719 369.039 Z " fill-rule="evenodd" fill="rgb(255,208,91)"/><path d=" M 146.055 298.178 C 169.327 309.952 197.137 316.8 227 316.8 C 308.739 316.8 375.1 265.494 375.1 202.3 C 375.1 139.106 308.739 87.8 227 87.8 C 145.261 87.8 78.9 139.106 78.9 202.3 C 78.9 227.384 89.356 250.594 107.078 269.467 L 77.3 327 L 146.055 298.178 Z " fill-rule="evenodd" fill="rgb(255,112,88)"/><path d=" M 281.9 202.3 C 281.9 191.482 290.682 182.7 301.5 182.7 C 312.318 182.7 321.1 191.482 321.1 202.3 C 321.1 213.118 312.318 221.9 301.5 221.9 C 290.682 221.9 281.9 213.118 281.9 202.3 L 281.9 202.3 Z  M 207.4 202.3 C 207.4 191.482 216.182 182.7 227 182.7 C 237.818 182.7 246.6 191.482 246.6 202.3 C 246.6 213.118 237.818 221.9 227 221.9 C 216.182 221.9 207.4 213.118 207.4 202.3 L 207.4 202.3 Z  M 132.9 202.3 C 132.9 191.482 141.682 182.7 152.5 182.7 C 163.318 182.7 172.1 191.482 172.1 202.3 C 172.1 213.118 163.318 221.9 152.5 221.9 C 141.682 221.9 132.9 213.118 132.9 202.3 Z " fill-rule="evenodd" fill="rgb(255,255,255)"/></g></g></svg>