<?xml version="1.0" encoding="UTF-8" standalone="no"?><!-- Generator: Gravit.io --><svg xmlns="http://www.w3.org/2000/svg" xmlns:xlink="http://www.w3.org/1999/xlink" style="isolation:isolate" viewBox="0 0 512 512" width="512pt" height="512pt"><defs><clipPath id="_clipPath_afskPUAE8QsGgBsALMer2q8kM7CkEuqx"><rect width="512" height="512"/></clipPath></defs><g clip-path="url(#_clipPath_afskPUAE8QsGgBsALMer2q8kM7CkEuqx)"><g><circle vector-effect="non-scaling-stroke" cx="256" cy="255.99999999999997" r="254" fill="rgb(76,219,196)"/><path d=" M 94.4 452 C 138.4 488.4 194.8 510 256 510 C 317.6 510 373.6 488.4 417.6 452 L 94.4 452 Z " fill="rgb(0,0,0)" fill-opacity="0.15"/><circle vector-effect="non-scaling-stroke" cx="256" cy="163.59999999999994" r="122.39999999999999" fill="rgb(255,255,255)"/><g><path d=" M 378.4 163.6 C 378.4 134 367.6 106.4 350 85.2 C 349.2 85.2 337.6 76.4 331.2 77.2 C 324.8 78 319.2 82.8 316.8 88.8 C 315.6 92.4 315.2 97.2 311.6 98.8 C 307.2 101.2 301.6 96.8 296.8 98.4 C 293.2 99.6 292 104.4 292.4 108 C 292.8 110.4 294 112.8 295.2 114.8 C 297.6 117.6 301.2 121.2 299.2 124.4 C 297.6 126.8 293.6 126.8 292 129.6 C 290 132.8 293.6 136.4 294 140 C 294.4 144 291.6 147.2 289.6 150.4 C 282 161.2 279.2 175.6 283.2 188.4 C 284.4 192 286.8 192.4 288 192.4 C 297.2 193.2 307.2 188.8 316 192.4 C 313.6 195.2 313.6 199.6 315.2 202.8 C 316.4 204.8 320.8 214.4 320.8 218 C 320.8 225.2 321.2 232.4 321.2 239.6 C 321.2 241.2 323.2 245.6 323.6 246.4 C 325.2 248.8 325.2 252 324.4 254.4 C 324 257.2 323.6 263.6 324 264 C 357.2 242.8 378.4 205.6 378.4 163.6 Z " fill="rgb(230,233,238)"/><path d=" M 278.8 48 C 273.2 45.2 266.4 48.8 260 50 C 249.6 52.4 238.8 48.4 229.2 43.6 C 192 52 160.8 77.6 145.2 111.6 C 146 112.8 147.2 113.6 148 114.8 C 150.8 119.6 147.2 125.6 147.6 131.2 C 148 137.6 154 142.4 156.4 148.4 C 158.8 154.4 157.6 162.4 162.4 167.2 C 164 168.8 166 170 168 171.2 C 174.8 174.8 182 178.8 188.8 182.4 C 191.6 184 194.4 185.6 194.8 188.4 C 195.6 192.8 190 197.6 192.4 201.6 C 193.2 203.6 195.6 204.4 197.2 205.6 C 201.6 209.2 201.6 216.4 204.8 221.6 C 206 223.6 208 225.6 209.6 227.6 C 213.2 232.8 212.8 239.6 212 245.6 C 211.2 251.6 209.2 258 210 264.4 C 210.4 266.8 211.2 269.6 213.2 271.2 C 215.2 272.8 218.4 273.6 220.4 272 C 221.6 270.8 222.4 269.2 222.8 267.6 C 226.8 256.8 232 243.6 243.2 240 C 249.2 238 253.2 232.4 254.8 226.8 C 256.4 220.8 256 214.4 255.2 208.4 C 254.8 206.4 254.4 204.4 253.2 202.4 C 251.6 200 248.4 199.2 246 198 C 238 193.6 233.6 184 224.8 181.6 C 219.2 180 213.2 182.4 207.6 183.2 C 202 184 194.8 182.4 192.8 177.2 C 192.4 176 190 173.2 189.2 173.2 C 185.6 172 181.6 170.8 178.8 168 C 176 165.2 174 161.2 175.2 157.2 C 176.8 152 182.4 149.6 187.6 148.4 C 197.6 145.6 209.2 142.4 213.6 132.8 C 214.8 130 215.2 127.2 217.2 124.8 C 221.6 120 231.2 121.2 233.6 115.2 C 234 113.6 234 112 234 110.4 C 233.2 105.6 231.2 101.2 227.6 98 C 224 95.2 218.4 94 214.4 96.4 C 211.2 98 209.2 101.6 206.8 104.4 C 204.4 107.2 200.4 109.2 196.8 108 C 194 106.8 192.4 103.2 193.2 100 C 194 96.8 195.6 94 197.6 91.6 C 198.8 90 206 87.2 207.6 87.2 C 216.4 87.6 224.8 88 233.6 88.4 C 234.8 86.4 234 84 232.8 82.4 C 231.6 80.4 230 79.2 228.4 77.6 C 224.8 73.2 224 66.8 226 61.6 C 234.4 63.6 242.8 69.2 244.4 77.6 C 245.6 83.6 243.6 90 246 95.2 C 251.6 96.8 257.2 93.6 261.2 89.6 C 265.2 85.6 268.4 80.8 273.2 77.2 C 275.2 75.6 277.6 74.4 279.6 72.8 C 282 70.4 283.2 67.2 284 64 C 285.6 58 284 50.8 278.8 48 Z " fill="rgb(230,233,238)"/></g><g><circle vector-effect="non-scaling-stroke" cx="256" cy="296.4" r="12.399999999999991" fill="rgb(50,74,94)"/><path d=" M 404.4 364.4 L 380.4 316.4 C 380 315.2 378.4 312.4 374.8 312.4 L 340.4 312.4 L 308.4 275.6 C 307.2 274.4 305.2 275.2 304.8 275.6 L 272.8 312.4 L 238.8 312.4 L 206.8 275.6 C 206 274.8 204.4 274.4 203.2 275.6 L 171.2 312.4 L 136.8 312.4 C 133.2 312.4 131.6 315.2 131.2 316.4 L 107.2 364.4 C 106.4 365.6 107.2 367.2 108.8 367.6 C 109.6 367.6 110.4 367.2 110.8 366.8 L 132.4 336 L 135.2 375.2 C 135.2 376.8 136.4 378.4 137.6 379.2 L 130.8 442.8 L 126 442.8 C 121.2 442.8 117.2 446.8 117.2 451.6 L 141.2 451.6 L 143.2 442.8 L 154.4 390.8 L 165.6 442.8 L 165.6 442.8 L 167.6 451.6 L 167.6 451.6 L 178.8 451.6 L 191.6 451.6 C 191.6 446.8 187.6 442.8 182.8 442.8 L 178 442.8 L 171.2 379.2 C 172.8 378.4 173.6 376.8 173.6 375.2 L 176.8 325.2 L 204.8 281.2 L 232.8 325.2 L 236 375.2 C 236 376.8 237.2 378.4 238.4 379.2 L 231.6 442.8 L 228 442.8 C 223.2 442.8 219.2 446.8 219.2 451.6 L 243.2 451.6 L 243.2 451.6 L 245.2 442.8 L 245.2 442.8 L 256.4 390.8 L 269.2 451.6 L 293.2 451.6 C 293.2 446.8 289.2 442.8 284.4 442.8 L 279.6 442.8 L 272.8 379.2 C 274.4 378.4 275.2 376.8 275.2 375.2 L 278.4 325.2 L 306.4 281.2 L 334.4 325.2 L 337.6 375.2 C 337.6 376.8 338.8 378.4 340 379.2 L 333.2 442.8 L 328.4 442.8 C 323.6 442.8 319.6 446.8 319.6 451.6 L 343.6 451.6 L 343.6 451.6 L 345.6 442.8 L 345.6 442.8 L 356.8 390.8 L 368 442.8 L 370 451.6 L 394 451.6 C 394 446.8 390 442.8 385.2 442.8 L 380.4 442.8 L 373.6 379.2 C 375.2 378.4 376 376.8 376 375.2 L 378.8 336 L 400.4 366.8 C 400.8 367.6 401.6 368 402.4 367.6 C 404 367.6 404.8 366 404.4 364.4 Z " fill="rgb(50,74,94)"/><circle vector-effect="non-scaling-stroke" cx="357.20000000000005" cy="296.4" r="12.399999999999977" fill="rgb(50,74,94)"/><circle vector-effect="non-scaling-stroke" cx="154.79999999999995" cy="296.4" r="12.400000000000006" fill="rgb(50,74,94)"/></g></g></g></svg>