<?xml version="1.0" encoding="UTF-8" standalone="no"?><!-- Generator: Gravit.io --><svg xmlns="http://www.w3.org/2000/svg" xmlns:xlink="http://www.w3.org/1999/xlink" style="isolation:isolate" viewBox="0 0 100 100" width="100pt" height="100pt"><g><linearGradient id="_lgradient_89" x1="-2.894098055109708e-16" y1="-0.01833086419753088" x2="9.171088887543924e-18" y2="1.0356938271604936" gradientTransform="matrix(100,0,0,100,0,0)" gradientUnits="userSpaceOnUse"><stop offset="1.7391304347826086%" stop-opacity="1" style="stop-color:rgb(22,98,143)"/><stop offset="68.69565217391305%" stop-opacity="1" style="stop-color:rgb(8,55,88)"/><stop offset="97.3913043478261%" stop-opacity="1" style="stop-color:rgb(2,35,62)"/><stop offset="99.56521739130434%" stop-opacity="1" style="stop-color:rgb(0,13,23)"/></linearGradient><rect x="0" y="0" width="100" height="100" transform="matrix(1,0,0,1,0,0)" fill="url(#_lgradient_89)"/><g><path d=" M 32.23 69.854 L 48.782 58.744 C 49.715 58.118 50.88 58.157 51.813 58.783 L 67.782 69.893 C 69.336 70.949 69.336 73.257 67.782 74.353 L 51.813 85.463 C 50.919 86.089 49.715 86.089 48.782 85.502 L 32.23 74.392 C 30.637 73.297 30.637 70.91 32.23 69.854 Z " fill="rgb(2,73,152)"/><path d=" M 22.979 52.355 L 47.994 35.675 C 49.358 34.74 51.189 34.779 52.553 35.714 L 76.672 52.394 C 79.01 53.992 79.01 57.461 76.672 59.058 L 52.514 75.738 C 51.15 76.674 49.358 76.712 47.955 75.777 L 22.94 59.097 C 20.563 57.5 20.563 53.992 22.979 52.355 Z " fill="rgb(79,173,232)"/><g opacity="0.5"><path d=" M 17.043 35.383 L 47.773 14.894 C 49.454 13.76 51.682 13.799 53.363 14.933 L 82.999 35.422 C 85.853 37.416 85.853 41.639 82.999 43.633 L 53.363 64.122 C 51.682 65.295 49.454 65.295 47.773 64.161 L 17.043 43.672 C 14.111 41.717 14.111 37.377 17.043 35.383 Z " fill="rgb(255,255,255)"/></g></g></g></svg>