<?xml version="1.0" encoding="UTF-8" standalone="no"?><!-- Generator: Gravit.io --><svg xmlns="http://www.w3.org/2000/svg" xmlns:xlink="http://www.w3.org/1999/xlink" style="isolation:isolate" viewBox="0 0 100 100" width="100pt" height="100pt"><g><path d=" M 77.635 30.968 C 74.291 30.968 71.259 32.298 69.033 34.454 L 54.92 24.348 C 55.008 23.979 55.06 23.596 55.06 23.2 C 55.06 20.468 52.846 18.254 50.114 18.254 C 47.382 18.254 45.167 20.468 45.167 23.2 C 45.167 25.932 47.382 28.146 50.114 28.146 C 51.07 28.146 51.96 27.87 52.717 27.4 L 69.993 39.972 C 71.34 37.163 74.311 34.975 77.635 34.975 C 82.251 34.975 85.993 38.717 85.993 43.333 C 85.993 47.022 83.603 50.153 80.287 51.261 L 81.422 55.108 C 86.398 53.509 90 48.842 90 43.333 C 90 36.504 84.464 30.968 77.635 30.968 Z " fill="rgb(10,123,255)"/><path d=" M 37.989 18.956 C 36.979 22.135 37.328 25.419 38.706 28.186 L 24.837 38.55 C 24.512 38.355 24.164 38.191 23.787 38.071 C 21.19 37.246 18.416 38.682 17.592 41.279 C 16.767 43.876 18.203 46.65 20.8 47.475 C 23.397 48.3 26.171 46.864 26.996 44.267 C 27.284 43.357 27.291 42.428 27.072 41.567 L 44.242 28.94 C 41.978 26.811 40.795 23.326 41.798 20.166 C 43.193 15.778 47.88 13.351 52.268 14.745 C 55.775 15.859 58.029 19.076 58.082 22.563 L 62.081 22.646 C 62.064 17.432 58.715 12.599 53.478 10.935 C 46.986 8.873 40.051 12.464 37.989 18.956 Z " fill="rgb(235,61,0)"/><path d=" M 15.083 52.381 C 17.773 54.344 20.987 55.063 24.034 54.649 L 29.505 71 C 29.219 71.243 28.955 71.519 28.724 71.835 C 27.134 74.015 27.626 77.082 29.824 78.686 C 32.022 80.29 35.094 79.823 36.684 77.643 C 38.275 75.463 37.783 72.395 35.584 70.791 C 34.815 70.23 33.938 69.928 33.055 69.859 L 26.474 49.681 C 23.755 51.133 20.091 51.134 17.416 49.183 C 13.702 46.472 12.87 41.289 15.558 37.605 C 17.706 34.662 21.451 33.566 24.765 34.628 L 26.092 30.893 C 21.156 29.247 15.54 30.857 12.333 35.252 C 8.356 40.702 9.587 48.371 15.083 52.381 Z " fill="rgb(0,188,212)"/><path d=" M 78.39 71.597 C 77.372 68.444 75.188 65.992 72.466 64.553 L 77.746 48.15 C 78.122 48.12 78.501 48.052 78.877 47.93 C 81.466 47.094 82.89 44.327 82.059 41.752 C 81.226 39.175 78.453 37.765 75.863 38.602 C 73.274 39.438 71.849 42.205 72.681 44.781 C 72.973 45.683 73.506 46.437 74.182 47.007 L 67.527 67.149 C 70.601 67.558 73.579 69.69 74.592 72.824 C 75.998 77.177 73.591 81.852 69.215 83.265 C 65.719 84.395 62.023 83.1 59.962 80.313 L 56.661 82.56 C 59.694 86.764 65.215 88.731 70.436 87.044 C 76.909 84.953 80.471 78.037 78.39 71.597 Z " fill="rgb(134,195,81)"/><path d=" M 40.085 84.828 C 42.768 82.866 44.42 80.02 44.939 76.983 L 62.193 76.807 C 62.339 77.155 62.523 77.493 62.755 77.81 C 64.359 80.002 67.435 80.478 69.627 78.875 C 71.818 77.272 72.295 74.196 70.692 72.004 C 69.088 69.812 66.012 69.336 63.82 70.939 C 63.053 71.501 62.501 72.244 62.17 73.066 L 40.93 73.12 C 41.499 76.164 40.4 79.663 37.733 81.613 C 34.03 84.323 28.832 83.517 26.122 79.814 C 23.957 76.855 24.037 72.941 26.046 70.105 L 22.878 67.685 C 19.824 71.889 19.674 77.747 22.907 82.166 C 26.916 87.645 34.607 88.837 40.085 84.828 Z " fill="rgb(144,50,233)"/></g></svg>