<?xml version="1.0" encoding="UTF-8" standalone="no"?><!-- Generator: Gravit.io --><svg xmlns="http://www.w3.org/2000/svg" xmlns:xlink="http://www.w3.org/1999/xlink" style="isolation:isolate" viewBox="0 0 100 100" width="100pt" height="100pt"><rect x="0" y="0" width="100" height="100" transform="matrix(1,0,0,1,0,0)" fill="rgb(44,56,74)"/><path d=" M 26.347 60.712 L 33.244 16.343 C 33.364 15.577 34.018 15 34.806 15 C 35.409 15 35.932 15.337 36.199 15.833 L 36.203 15.842 L 43.621 29.757 L 26.347 60.712 Z  M 75.331 71.479 L 68.762 30.649 C 68.631 29.895 67.981 29.328 67.2 29.328 C 66.765 29.328 66.371 29.503 66.085 29.788 L 66.085 29.788 L 24.669 71.479 L 47.585 84.394 C 48.25 84.775 49.048 85 49.899 85 C 50.75 85 51.549 84.775 52.238 84.383 L 52.214 84.396 L 75.331 71.479 Z  M 56.709 35.849 L 51.4 25.693 C 51.131 25.185 50.604 24.846 50 24.846 C 49.396 24.846 48.869 25.185 48.604 25.684 L 48.6 25.693 L 25.297 67.454 L 56.709 35.849 Z " fill="rgb(255,202,40)"/></svg>