<?xml version="1.0" encoding="UTF-8" standalone="no"?><!-- Generator: Gravit.io --><svg xmlns="http://www.w3.org/2000/svg" xmlns:xlink="http://www.w3.org/1999/xlink" style="isolation:isolate" viewBox="0 0 100 100" width="100pt" height="100pt"><g><path d=" M 99.011 51.15 C 99.011 47.751 98.735 44.334 98.147 40.99 L 50.987 40.99 L 50.987 60.244 L 77.994 60.244 C 76.873 66.453 73.272 71.947 68 75.437 L 68 87.93 L 84.111 87.93 C 93.573 79.222 99.011 66.362 99.011 51.15 Z " fill="rgb(66,133,244)"/><path d=" M 50.987 100 C 64.472 100 75.844 95.572 84.13 87.93 L 68.018 75.437 C 63.535 78.487 57.748 80.214 51.006 80.214 C 37.962 80.214 26.902 71.414 22.934 59.582 L 6.308 59.582 L 6.308 72.461 C 14.795 89.344 32.083 100 50.987 100 Z " fill="rgb(52,168,83)"/><path d=" M 22.916 59.582 C 20.821 53.373 20.821 46.649 22.916 40.439 L 22.916 27.561 L 6.308 27.561 C -0.784 41.689 -0.784 58.333 6.308 72.461 L 22.916 59.582 Z " fill="rgb(251,188,4)"/><path d=" M 50.987 19.79 C 58.116 19.679 65.005 22.362 70.167 27.285 L 70.167 27.285 L 84.442 13.01 C 75.403 4.523 63.407 -0.144 50.987 0.003 C 32.083 0.003 14.795 10.659 6.308 27.561 L 22.916 40.439 C 26.866 28.59 37.944 19.79 50.987 19.79 Z " fill="rgb(234,67,53)"/></g></svg>