<?xml version="1.0" encoding="UTF-8" standalone="no"?><!-- Generator: Gravit.io --><svg xmlns="http://www.w3.org/2000/svg" xmlns:xlink="http://www.w3.org/1999/xlink" style="isolation:isolate" viewBox="0 0 100 100" width="100pt" height="100pt"><rect x="0" y="0" width="100" height="100" transform="matrix(1,0,0,1,0,0)" fill="rgb(56,128,255)"/><path d=" M 81.848 35.495 L 81.548 34.823 L 81.056 35.372 C 79.866 36.726 78.35 37.763 76.666 38.393 L 76.202 38.57 L 76.394 39.023 C 77.777 42.252 78.582 46.012 78.582 49.958 C 78.582 49.969 78.582 49.978 78.582 49.989 L 78.582 49.987 C 78.582 65.752 65.757 78.588 49.98 78.588 C 34.204 78.588 21.392 65.763 21.392 50 C 21.392 34.237 34.23 21.398 49.993 21.398 C 54.272 21.398 58.402 22.328 62.243 24.161 L 62.696 24.38 L 62.889 23.927 C 63.63 22.23 64.726 20.808 66.093 19.705 L 66.115 19.688 L 66.691 19.224 L 66.034 18.883 C 61.401 16.437 55.908 15 50.081 15 C 50.052 15 50.024 15 49.996 15 L 50 15 C 30.695 15 15 30.695 15 50 C 15 69.305 30.695 85 50 85 C 69.305 85 85 69.305 85 50 C 85 44.953 83.948 40.075 81.852 35.493 L 81.848 35.495 Z  M 49.991 34.047 C 41.184 34.058 34.047 41.193 34.038 50 L 34.038 50 C 34.049 58.807 41.184 65.945 49.991 65.953 L 49.991 65.953 C 58.798 65.942 65.936 58.807 65.945 50 L 65.945 50 C 65.929 41.195 58.796 34.06 49.991 34.047 L 49.989 34.047 L 49.991 34.047 Z  M 80.163 28.193 C 80.163 32.211 76.906 35.466 72.89 35.466 C 68.874 35.466 65.617 32.209 65.617 28.193 L 65.617 28.193 C 65.617 24.174 68.874 20.919 72.89 20.919 C 76.906 20.919 80.163 24.177 80.163 28.193 L 80.163 28.193 Z " fill="rgb(255,255,255)"/></svg>