<?xml version="1.0" encoding="UTF-8" standalone="no"?><!-- Generator: Gravit.io --><svg xmlns="http://www.w3.org/2000/svg" xmlns:xlink="http://www.w3.org/1999/xlink" style="isolation:isolate" viewBox="0 0 100 100" width="100pt" height="100pt"><path d=" M 0 0 L 100 0 L 100 100 L 0 100 L 0 0 Z " fill="rgb(247,223,30)"/><g><path d=" M 82.202 70.523 C 81.577 66.609 79.027 63.319 71.467 60.252 C 68.836 59.018 65.911 58.16 65.042 56.176 C 64.718 54.997 64.667 54.353 64.879 53.656 C 65.415 51.348 68.15 50.653 70.295 51.297 C 71.689 51.726 72.976 52.798 73.783 54.514 C 77.48 52.098 77.48 52.098 80.057 50.492 C 79.092 48.991 78.612 48.345 77.963 47.704 C 75.711 45.184 72.711 43.897 67.831 44.006 L 65.311 44.326 C 62.895 44.915 60.592 46.202 59.198 47.918 C 55.122 52.533 56.299 60.576 61.233 63.901 C 66.112 67.547 73.247 68.349 74.158 71.783 C 75.016 75.966 71.048 77.307 67.131 76.824 C 64.233 76.181 62.627 74.73 60.857 72.049 L 54.315 75.805 C 55.066 77.521 55.924 78.269 57.211 79.771 C 63.431 86.047 78.982 85.726 81.773 76.181 C 81.878 75.859 82.631 73.66 82.038 70.282 L 82.202 70.523 Z " fill="rgb(255,255,255)"/><path d=" M 50.501 44.617 L 42.416 44.617 C 42.416 51.588 42.384 58.515 42.384 65.496 C 42.384 69.928 42.611 73.996 41.888 75.248 C 40.701 77.727 37.645 77.409 36.255 76.974 C 34.831 76.27 34.108 75.299 33.269 73.899 C 33.043 73.521 32.873 73.195 32.813 73.195 L 26.25 77.241 C 27.348 79.507 28.948 81.458 31.011 82.698 C 34.086 84.533 38.219 85.126 42.546 84.155 C 45.362 83.343 47.79 81.671 49.06 79.081 C 50.895 75.736 50.506 71.636 50.487 67.047 C 50.531 59.659 50.487 52.268 50.487 44.822 L 50.501 44.617 Z " fill="rgb(255,255,255)"/></g></svg>