<?xml version="1.0" encoding="UTF-8" standalone="no"?><!-- Generator: Gravit.io --><svg xmlns="http://www.w3.org/2000/svg" xmlns:xlink="http://www.w3.org/1999/xlink" style="isolation:isolate" viewBox="0 0 100 100" width="100pt" height="100pt"><g><path d=" M 20 23.013 L 25.593 23.013 L 25.593 60.131 L 47.711 60.131 L 47.711 64.707 L 20 64.707 L 20 23.013 Z  M 65.152 33.081 C 59.432 33.004 53.711 36.64 51.932 42.157 C 49.389 48.513 50.559 56.496 55.542 61.352 C 60.372 65.368 67.643 65.674 73.084 62.826 C 76.821 60.843 79.186 56.902 79.694 52.758 C 80.355 48.436 80.025 43.708 77.914 39.793 C 75.423 35.623 70.542 32.928 65.711 33.106 L 65.152 33.03 L 65.152 33.081 Z  M 65.66 37.504 C 69.855 37.504 73.618 40.708 74.304 44.826 C 75.575 49.479 74.813 55.174 70.999 58.453 C 67.44 61.352 61.72 60.945 58.796 57.36 C 55.237 53.547 55.237 47.699 57.067 43.123 C 58.338 39.818 61.72 37.454 65.279 37.53 L 65.737 37.53 L 65.66 37.504 Z " fill="rgb(0,0,0)"/><path d=" M 20 70.631 L 79.999 70.631 L 79.999 76.987 L 20 76.987 L 20 70.631 Z " fill="rgb(52,146,255)"/></g></svg>