<?xml version="1.0" encoding="UTF-8" standalone="no"?><!-- Generator: Gravit.io --><svg xmlns="http://www.w3.org/2000/svg" xmlns:xlink="http://www.w3.org/1999/xlink" style="isolation:isolate" viewBox="0 0 100 100" width="100pt" height="100pt"><g><path d=" M 50 100 C 77.614 100 100 77.614 100 50 C 100 22.386 77.614 0 50 0 C 22.386 0 0 22.386 0 50 C 0 77.614 22.386 100 50 100 Z  M 50 92.5 C 26.528 92.5 7.5 73.472 7.5 50 C 7.5 26.528 26.528 7.5 50 7.5 C 73.472 7.5 92.5 26.528 92.5 50 C 92.5 73.472 73.472 92.5 50 92.5 Z " fill-rule="evenodd" fill="rgb(55,102,96)"/><path d=" M 50 90 C 72.091 90 90 72.091 90 50 C 90 27.909 72.091 10 50 10 C 27.909 10 10 27.909 10 50 C 10 72.091 27.909 90 50 90 Z  M 50 12.5 C 48.619 12.5 47.5 13.625 47.5 15.017 L 47.5 47.5 L 29.993 47.5 C 29.33 47.499 28.695 47.763 28.227 48.232 C 27.759 48.701 27.497 49.337 27.5 50 C 27.5 51.381 28.639 52.5 29.988 52.5 L 52.5 52.5 L 52.5 15.002 C 52.502 14.338 52.239 13.701 51.77 13.232 C 51.301 12.762 50.664 12.499 50 12.5 L 50 12.5 Z " fill-rule="evenodd" fill="rgb(82,153,144)"/></g></svg>