<?xml version="1.0" encoding="UTF-8" standalone="no"?><!-- Generator: Gravit.io --><svg xmlns="http://www.w3.org/2000/svg" xmlns:xlink="http://www.w3.org/1999/xlink" style="isolation:isolate" viewBox="0 0 100 100" width="100pt" height="100pt"><rect x="0" y="0" width="100" height="100" transform="matrix(1,0,0,1,0,0)" fill="rgb(0,0,0)"/><clipPath id="_clipPath_oSAIxDmMUSY6ppZ3q1zpL1rI8kfCcLbG"><rect x="18.023" y="15" width="63.954" height="70" transform="matrix(1,0,0,1,0,0)" fill="rgb(255,255,255)"/></clipPath><g clip-path="url(#_clipPath_oSAIxDmMUSY6ppZ3q1zpL1rI8kfCcLbG)"><g><g><path d=" M 58.402 47.678 L 44.383 52.256 L 32.187 57.638 L 28.775 58.539 C 27.906 59.366 26.995 60.203 26.01 61.051 C 24.929 61.983 23.922 62.831 23.149 63.445 C 22.291 64.123 21.019 65.395 20.373 66.2 C 19.409 67.408 18.646 68.69 18.317 69.676 C 17.734 71.456 18.021 73.257 19.144 74.921 C 20.585 77.04 23.456 79.201 26.804 80.674 C 28.511 81.427 31.382 82.391 33.543 82.931 C 37.135 83.842 44.086 84.828 47.911 84.976 C 48.685 85.008 49.723 85.008 49.766 84.976 C 49.85 84.923 50.444 83.789 51.133 82.38 C 53.485 77.58 55.18 73.077 56.102 69.231 C 56.653 66.9 57.087 63.795 57.373 60.118 C 57.448 59.09 57.479 55.647 57.416 54.481 C 57.32 52.574 57.151 51.027 56.886 49.512 C 56.844 49.289 56.833 49.088 56.854 49.077 C 56.897 49.046 57.024 49.003 58.751 48.505 L 58.401 47.679 L 58.401 47.678 L 58.402 47.678 L 58.402 47.678 Z  M 55.202 49.554 C 55.329 49.554 55.668 52.807 55.752 54.863 C 55.774 55.297 55.763 55.583 55.742 55.583 C 55.657 55.583 53.951 54.576 52.733 53.814 C 51.673 53.146 49.66 51.811 49.342 51.557 C 49.236 51.482 49.247 51.472 50.115 51.175 C 51.588 50.677 55.085 49.554 55.202 49.554 L 55.202 49.554 Z  M 48.06 51.906 C 48.155 51.906 48.399 52.044 48.982 52.404 C 51.164 53.771 54.131 55.424 55.403 55.975 C 55.795 56.145 55.837 56.081 54.937 56.696 C 53.008 58.009 50.603 59.302 47.657 60.605 C 47.138 60.839 46.704 61.019 46.693 61.019 C 46.672 61.019 46.735 60.754 46.82 60.436 C 47.53 57.797 47.933 55.127 47.954 52.987 C 47.964 51.927 47.964 51.927 48.06 51.896 C 48.039 51.906 48.049 51.906 48.06 51.906 L 48.06 51.906 Z  M 46.587 52.468 C 46.65 52.531 46.608 54.905 46.523 55.551 C 46.333 57.098 46.036 58.539 45.549 60.161 C 45.432 60.552 45.326 60.881 45.305 60.902 C 45.262 60.955 43.811 59.535 43.334 58.984 C 42.507 58.031 41.861 57.077 41.384 56.144 C 41.141 55.668 40.759 54.735 40.791 54.703 C 40.961 54.587 46.545 52.425 46.587 52.468 Z  M 39.657 55.191 C 39.668 55.191 39.678 55.191 39.689 55.201 C 39.71 55.223 39.785 55.392 39.848 55.583 C 40.187 56.505 40.95 57.861 41.607 58.73 C 42.328 59.684 43.271 60.701 44.055 61.368 C 44.309 61.58 44.542 61.781 44.574 61.813 C 44.637 61.877 44.659 61.866 42.931 62.523 C 40.929 63.286 38.746 64.049 36.245 64.854 C 35.648 65.047 35.051 65.241 34.455 65.437 C 34.359 65.469 34.391 65.416 34.667 64.982 C 35.906 63.042 37.792 59.239 38.852 56.547 C 39.032 56.081 39.212 55.615 39.244 55.509 C 39.287 55.36 39.339 55.307 39.477 55.233 C 39.551 55.212 39.626 55.191 39.657 55.191 L 39.657 55.191 Z  M 37.538 56.07 C 37.57 56.092 37.03 57.225 36.5 58.264 C 35.472 60.266 34.349 62.237 32.844 64.632 C 32.59 65.045 32.346 65.427 32.314 65.469 C 32.262 65.543 32.24 65.522 32.071 65.193 C 31.71 64.484 31.414 63.572 31.255 62.735 C 31.096 61.909 31.128 60.468 31.308 59.578 C 31.445 58.921 31.435 58.931 31.753 58.772 C 33.109 58.084 37.496 56.028 37.538 56.07 L 37.538 56.07 Z  M 55.816 56.812 L 55.816 57.257 C 55.816 59.62 55.562 62.862 55.191 65.225 C 55.127 65.639 55.074 65.977 55.064 65.988 C 55.064 65.988 54.756 65.904 54.396 65.797 C 52.807 65.299 51.08 64.568 49.522 63.71 C 48.494 63.149 47 62.227 47.043 62.184 C 47.053 62.174 47.498 61.941 48.017 61.665 C 50.094 60.584 52.086 59.419 53.813 58.264 C 54.46 57.829 55.434 57.13 55.647 56.939 L 55.816 56.812 Z  M 29.538 59.948 C 29.581 59.948 29.57 60.033 29.506 60.415 C 29.464 60.69 29.411 61.199 29.39 61.548 C 29.305 63.095 29.56 64.24 30.322 65.808 C 30.534 66.242 30.704 66.603 30.693 66.613 C 30.619 66.677 23.605 68.732 21.401 69.336 C 20.744 69.516 20.172 69.675 20.129 69.686 C 20.055 69.707 20.044 69.697 20.076 69.516 C 20.32 67.959 21.507 65.924 23.159 64.208 C 24.261 63.063 25.141 62.396 26.646 61.538 C 27.726 60.923 29.39 60.001 29.517 59.959 C 29.517 59.948 29.528 59.948 29.538 59.948 L 29.538 59.948 Z  M 46.068 62.905 C 46.078 62.894 46.333 63.032 46.64 63.212 C 48.908 64.526 52.065 65.744 54.756 66.37 L 55 66.423 L 54.661 66.613 C 53.252 67.397 48.621 69.326 43.885 71.095 C 43.196 71.349 42.518 71.604 42.391 71.657 C 42.264 71.71 42.147 71.742 42.147 71.731 C 42.147 71.72 42.338 71.349 42.582 70.894 C 43.906 68.414 45.241 65.395 45.919 63.297 C 46.004 63.095 46.057 62.915 46.068 62.905 L 46.068 62.905 Z  M 44.383 63.456 C 44.394 63.466 44.309 63.689 44.203 63.943 C 43.281 66.179 42.073 68.616 40.526 71.35 C 40.134 72.049 39.806 72.611 39.795 72.611 C 39.784 72.611 39.467 72.42 39.085 72.187 C 36.839 70.809 34.847 69.114 33.544 67.472 L 33.353 67.238 L 34.317 66.973 C 37.771 66.031 40.706 65.013 43.62 63.763 C 44.033 63.594 44.373 63.456 44.383 63.456 L 44.383 63.456 Z  M 54.852 67.111 C 54.852 67.111 54.862 67.122 54.852 67.111 C 54.862 67.355 54.322 69.538 53.877 71.116 C 53.506 72.441 53.188 73.479 52.605 75.312 C 52.351 76.118 52.129 76.785 52.118 76.785 C 52.108 76.785 52.044 76.775 51.98 76.754 C 48.833 76.181 46.015 75.387 43.366 74.327 C 42.624 74.03 41.565 73.553 41.501 73.501 C 41.48 73.479 42.116 73.183 42.921 72.833 C 47.742 70.724 52.743 68.33 54.46 67.302 C 54.661 67.175 54.82 67.111 54.852 67.111 L 54.852 67.111 Z  M 30.683 67.938 C 30.704 67.959 29.358 69.898 27.472 72.536 C 26.815 73.458 26.052 74.539 25.766 74.942 C 25.48 75.344 25.046 75.98 24.802 76.362 L 24.357 77.05 L 23.88 76.648 C 23.318 76.181 22.344 75.185 21.909 74.634 C 20.998 73.501 20.383 72.303 20.14 71.212 C 20.023 70.703 20.023 70.449 20.129 70.417 C 20.288 70.375 23.117 69.707 25.766 69.093 C 27.239 68.754 28.945 68.351 29.559 68.203 C 30.174 68.054 30.672 67.938 30.683 67.938 L 30.683 67.938 Z  M 32.039 68.457 L 32.378 68.838 C 33.904 70.544 35.461 71.805 37.347 72.907 C 37.687 73.098 37.941 73.267 37.92 73.278 C 37.846 73.331 31.371 75.63 28.373 76.669 C 26.688 77.262 25.3 77.739 25.289 77.739 C 25.279 77.739 25.183 77.675 25.077 77.601 L 24.887 77.463 L 25.194 77.018 C 26.19 75.577 27.44 73.999 30.163 70.714 L 32.039 68.457 Z  M 40.495 74.507 C 40.505 74.497 40.971 74.666 41.543 74.878 C 42.921 75.397 44.012 75.726 45.475 76.097 C 47.276 76.552 49.882 76.997 51.419 77.124 C 51.652 77.146 51.779 77.167 51.737 77.199 C 51.662 77.241 50.105 77.76 48.961 78.121 C 47.138 78.693 41.575 80.335 37.04 81.638 C 36.203 81.882 35.483 82.083 35.44 82.094 C 35.334 82.115 34.985 82.02 34.985 81.977 C 34.985 81.956 35.239 81.628 35.546 81.267 C 37.072 79.445 38.587 77.411 39.848 75.482 C 40.198 74.952 40.495 74.518 40.495 74.507 Z  M 38.629 74.56 C 38.64 74.571 37.888 75.779 36.574 77.855 C 36.012 78.735 35.387 79.731 35.165 80.081 C 34.953 80.42 34.635 80.95 34.455 81.246 L 34.147 81.787 L 33.989 81.744 C 33.607 81.638 30.926 80.695 30.216 80.409 C 29.337 80.059 28.426 79.636 27.747 79.275 C 26.9 78.82 25.84 78.141 25.925 78.12 C 25.946 78.11 27.398 77.718 29.146 77.241 C 33.787 75.98 36.362 75.249 38.047 74.719 C 38.354 74.624 38.619 74.55 38.629 74.56 Z  M 51.821 77.654 L 51.832 77.654 C 51.874 77.76 50.158 82.528 49.532 84.033 C 49.395 84.372 49.342 84.457 49.268 84.446 C 49.088 84.436 46.598 84.086 45.082 83.863 C 42.444 83.461 38.015 82.687 36.902 82.433 L 36.648 82.38 L 38.227 82.019 C 41.618 81.257 43.249 80.843 44.902 80.335 C 46.99 79.699 49.056 78.904 51.143 77.93 C 51.472 77.781 51.747 77.665 51.821 77.654 Z " fill="rgb(204,204,204)"/><path d=" M 43.949 15.001 C 43.716 14.969 39.954 16.325 37.528 17.31 C 34.253 18.646 31.711 19.917 30.142 21.019 C 29.56 21.432 28.828 22.163 28.712 22.45 C 28.67 22.555 28.648 22.683 28.648 22.81 L 30.068 24.155 L 33.448 25.236 L 41.491 26.677 L 50.688 28.256 L 50.783 27.461 C 50.751 27.461 50.73 27.451 50.699 27.451 L 49.49 27.26 L 49.247 26.826 C 47.996 24.622 46.619 21.888 45.814 20.044 C 45.189 18.614 44.595 16.961 44.267 15.774 C 44.086 15.054 44.065 15.011 43.949 15.001 L 43.949 15.001 L 43.949 15.001 L 43.949 15.001 Z  M 43.779 15.541 L 43.79 15.541 C 43.8 15.552 43.843 15.848 43.885 16.198 C 44.065 17.682 44.394 19.112 44.913 20.659 C 45.305 21.824 45.305 21.761 44.849 21.623 C 43.769 21.326 38.926 20.489 35.419 20.002 C 34.858 19.928 34.381 19.854 34.381 19.843 C 34.338 19.801 36.913 18.455 38.047 17.925 C 39.498 17.258 43.482 15.594 43.779 15.541 L 43.779 15.541 Z  M 33.565 20.288 L 33.978 20.426 C 36.224 21.189 41.872 22.269 44.987 22.524 C 45.337 22.556 45.633 22.587 45.644 22.587 C 45.654 22.598 45.358 22.757 44.976 22.937 C 43.472 23.689 41.819 24.611 40.674 25.321 C 40.336 25.533 40.028 25.703 39.986 25.703 C 39.943 25.703 39.721 25.66 39.488 25.628 L 39.064 25.565 L 38.005 24.526 C 36.14 22.714 34.677 21.316 34.116 20.786 L 33.565 20.288 L 33.565 20.288 Z  M 33.141 20.616 L 34.635 22.481 C 35.451 23.509 36.277 24.516 36.457 24.738 C 36.637 24.961 36.786 25.141 36.775 25.152 C 36.733 25.183 34.614 24.77 33.491 24.516 C 32.336 24.251 31.859 24.124 31.149 23.901 L 30.566 23.71 L 30.566 23.562 C 30.577 22.852 31.477 21.793 33.003 20.712 L 33.141 20.616 Z  M 45.835 23.159 C 45.877 23.159 45.93 23.255 46.057 23.541 C 46.417 24.336 47.541 26.476 47.816 26.889 C 47.901 27.027 48.049 27.038 46.555 26.794 C 42.963 26.211 41.808 26.02 41.808 25.999 C 41.808 25.989 41.914 25.914 42.052 25.84 C 43.165 25.226 44.288 24.442 45.284 23.605 C 45.528 23.403 45.75 23.212 45.792 23.181 C 45.803 23.159 45.824 23.149 45.835 23.159 Z " fill="rgb(185,185,185)"/><path d=" M 28.786 22.301 C 28.786 22.301 28.553 22.672 28.775 23.223 C 28.913 23.562 29.316 23.975 29.771 24.399 C 29.771 24.399 34.486 28.998 35.059 29.655 C 37.665 32.664 38.799 35.631 38.905 39.721 C 38.969 42.349 38.47 44.659 37.231 47.339 C 35.027 52.15 30.375 57.459 23.202 63.35 L 24.251 63 C 24.929 62.491 25.851 61.951 28.012 60.764 C 33.003 58.031 38.619 55.519 45.506 52.934 C 55.424 49.204 71.731 44.839 81.013 43.419 L 81.977 43.27 L 81.829 43.037 C 80.981 41.723 80.398 40.908 79.699 40.039 C 77.665 37.517 75.196 35.472 72.176 33.777 C 68.022 31.456 62.65 29.644 55.848 28.299 C 54.566 28.044 51.747 27.557 49.458 27.207 C 44.605 26.455 41.469 25.936 38.015 25.342 C 36.775 25.13 34.921 24.813 33.692 24.548 C 33.056 24.41 31.838 24.124 30.884 23.795 C 30.121 23.498 29.019 23.202 28.786 22.301 L 28.786 22.301 Z  M 31.52 24.95 C 31.53 24.94 31.7 25.003 31.922 25.077 C 32.325 25.215 32.844 25.374 33.459 25.544 C 33.924 25.672 34.39 25.795 34.858 25.914 C 35.493 26.073 36.023 26.222 36.033 26.222 C 36.108 26.296 37.178 29.718 37.538 31.032 C 37.676 31.53 37.782 31.954 37.771 31.954 C 37.761 31.965 37.644 31.784 37.506 31.541 C 36.267 29.358 34.306 27.143 32.039 25.363 C 31.742 25.152 31.52 24.961 31.52 24.95 Z  M 36.733 26.391 C 36.786 26.391 37.019 26.423 37.305 26.487 C 39.106 26.889 42.338 27.504 44.404 27.853 C 44.754 27.906 45.03 27.97 45.03 27.991 C 45.03 28.012 44.902 28.087 44.743 28.171 C 44.394 28.351 42.984 29.188 42.518 29.506 C 41.342 30.29 40.283 31.138 39.52 31.901 C 39.212 32.208 38.947 32.463 38.947 32.463 C 38.947 32.463 38.884 32.283 38.831 32.06 C 38.45 30.587 37.655 28.404 36.934 26.868 C 36.818 26.624 36.722 26.402 36.722 26.381 C 36.722 26.402 36.722 26.391 36.733 26.391 L 36.733 26.391 Z  M 45.909 28.14 C 45.972 28.161 46.078 28.521 46.29 29.316 C 46.682 30.852 46.863 32.569 46.799 34.169 C 46.778 34.614 46.757 35.027 46.735 35.08 L 46.704 35.186 L 46.153 35.006 C 45.019 34.645 43.175 34.105 41.596 33.66 C 40.696 33.416 39.965 33.194 39.965 33.173 C 39.965 33.109 41.279 31.795 41.84 31.297 C 42.91 30.354 45.813 28.108 45.909 28.14 L 45.909 28.14 Z  M 46.64 28.245 C 46.672 28.214 51.027 28.966 53.008 29.347 C 54.481 29.633 56.621 30.079 56.749 30.132 C 56.812 30.153 56.59 30.28 55.88 30.598 C 53.082 31.859 51.005 32.992 48.939 34.37 C 48.399 34.73 47.943 35.027 47.933 35.027 C 47.922 35.027 47.912 34.72 47.912 34.349 C 47.912 32.336 47.509 30.301 46.767 28.585 C 46.693 28.415 46.629 28.256 46.64 28.245 L 46.64 28.245 Z  M 57.903 30.471 C 57.935 30.502 57.797 31.361 57.67 31.869 C 57.289 33.448 56.261 35.79 55 37.994 C 54.778 38.386 54.576 38.704 54.555 38.714 C 54.534 38.725 54.248 38.566 53.919 38.375 C 52.69 37.655 51.292 36.977 49.766 36.341 C 49.342 36.161 48.971 36.012 48.961 35.991 C 48.886 35.928 52.298 33.671 54.099 32.59 C 55.53 31.721 57.861 30.428 57.903 30.471 L 57.903 30.471 Z  M 58.709 30.598 C 58.804 30.598 60.733 31.128 61.739 31.424 C 64.229 32.166 67.09 33.215 68.955 34.063 L 69.728 34.412 L 69.188 34.54 C 64.632 35.588 60.733 36.797 56.971 38.322 C 56.664 38.449 56.388 38.555 56.367 38.555 C 56.346 38.555 56.452 38.312 56.59 38.015 C 57.723 35.61 58.454 33.098 58.634 30.958 C 58.645 30.757 58.677 30.598 58.709 30.598 L 58.709 30.598 Z  M 39.509 35.006 C 39.541 34.974 41.014 35.324 41.808 35.546 C 43.016 35.885 45.58 36.743 45.58 36.807 C 45.58 36.818 45.294 37.061 44.955 37.358 C 43.567 38.513 42.232 39.731 40.632 41.278 C 40.155 41.734 39.753 42.105 39.732 42.105 C 39.71 42.105 39.7 42.041 39.71 41.957 C 39.954 40.176 39.901 37.888 39.562 35.567 C 39.53 35.27 39.498 35.016 39.509 35.006 L 39.509 35.006 Z  M 70.46 35.038 C 70.481 35.059 69.781 36.161 69.336 36.786 C 68.701 37.697 67.768 38.905 65.659 41.554 C 64.547 42.953 63.297 44.531 62.884 45.061 C 62.46 45.591 62.11 46.036 62.099 46.036 C 62.089 46.036 61.951 45.845 61.803 45.612 C 60.616 43.832 59.196 42.274 57.511 40.876 C 57.193 40.611 56.844 40.325 56.727 40.24 C 56.611 40.155 56.515 40.07 56.515 40.06 C 56.515 40.028 58.316 39.255 59.684 38.704 C 60.881 38.216 62.295 37.681 63.716 37.174 C 65.138 36.667 66.565 36.187 67.789 35.811 C 69.071 35.408 70.438 35.016 70.46 35.038 L 70.46 35.038 Z  M 71.275 35.249 C 71.318 35.239 71.572 35.366 71.879 35.546 C 74.454 37.019 76.976 38.916 78.968 40.865 C 79.53 41.416 80.918 42.857 80.896 42.868 C 80.896 42.868 80.409 42.91 79.837 42.953 C 75.376 43.292 69.665 44.235 64.176 45.559 C 63.805 45.644 63.477 45.718 63.456 45.718 C 63.435 45.718 63.848 45.305 64.367 44.807 C 67.588 41.702 69.061 39.742 70.799 36.245 C 71.042 35.726 71.254 35.281 71.275 35.249 C 71.265 35.249 71.265 35.249 71.275 35.249 L 71.275 35.249 Z  M 47.678 37.665 C 47.827 37.697 49.204 38.344 50.243 38.863 C 51.196 39.339 52.627 40.102 52.701 40.166 C 52.711 40.176 52.203 40.441 51.578 40.749 C 49.586 41.745 47.88 42.688 46.1 43.768 C 45.591 44.076 45.167 44.33 45.157 44.33 C 45.114 44.33 45.125 44.288 45.411 43.768 C 46.365 42.031 47.127 39.954 47.562 37.93 C 47.604 37.771 47.647 37.665 47.678 37.665 L 47.678 37.665 Z  M 46.301 37.92 C 46.333 37.951 45.972 39.255 45.75 39.965 C 45.315 41.31 44.584 42.995 43.875 44.266 C 43.705 44.563 43.451 44.997 43.313 45.241 L 43.048 45.665 L 42.455 45.093 C 41.766 44.425 41.204 44.012 40.484 43.641 C 40.198 43.493 39.975 43.366 39.975 43.345 C 39.975 43.26 41.787 41.618 43.175 40.431 C 44.171 39.572 46.269 37.888 46.301 37.92 L 46.301 37.92 Z  M 54.725 41.384 L 55.244 41.723 C 56.431 42.497 57.829 43.525 58.9 44.425 C 59.503 44.923 60.669 45.972 60.902 46.227 L 61.029 46.365 L 60.171 46.608 C 55.318 47.954 51.567 49.151 47.191 50.762 C 46.704 50.942 46.29 51.09 46.258 51.09 C 46.195 51.09 46.142 51.143 47.233 50.136 C 50.031 47.562 52.51 44.722 54.354 41.956 L 54.725 41.384 L 54.725 41.384 Z  M 52.51 41.935 C 52.531 41.957 51.08 44.002 50.211 45.156 C 49.172 46.534 47.329 48.844 46.057 50.348 C 45.528 50.974 45.072 51.493 45.051 51.503 C 45.019 51.514 45.008 51.355 45.008 51.111 C 45.008 49.829 44.68 48.462 44.108 47.297 C 43.864 46.809 43.821 46.693 43.875 46.64 C 44.076 46.46 47.159 44.701 49.109 43.652 C 50.423 42.953 52.478 41.914 52.51 41.935 L 52.51 41.935 Z  M 39.117 45.22 C 39.149 45.22 39.392 45.347 39.668 45.496 C 40.346 45.866 40.95 46.28 41.49 46.725 C 41.512 46.746 41.236 46.969 40.876 47.233 C 39.869 47.954 38.343 49.109 37.454 49.819 C 36.521 50.56 36.489 50.582 36.595 50.423 C 37.295 49.353 37.644 48.749 38.015 47.975 C 38.343 47.286 38.672 46.471 38.905 45.761 C 38.99 45.453 39.096 45.22 39.117 45.22 Z  M 42.688 48.017 C 42.741 48.007 42.804 48.102 43.09 48.526 C 43.694 49.427 44.161 50.635 44.277 51.609 L 44.298 51.821 L 42.847 52.383 C 40.251 53.39 37.856 54.386 36.235 55.127 C 35.779 55.339 34.985 55.721 34.465 55.975 C 33.946 56.24 33.522 56.441 33.522 56.431 C 33.522 56.42 33.851 56.176 34.253 55.88 C 37.422 53.58 40.166 51.058 42.222 48.537 C 42.444 48.272 42.646 48.028 42.666 48.017 L 42.688 48.017 L 42.688 48.017 Z  M 41.045 48.42 C 41.088 48.462 39.88 49.829 39.054 50.666 C 37.008 52.754 34.985 54.386 32.473 55.975 C 32.156 56.176 31.869 56.356 31.838 56.378 C 31.763 56.42 31.859 56.314 32.961 55.117 C 33.66 54.364 34.19 53.729 34.794 52.945 C 35.196 52.426 35.271 52.351 35.854 51.938 C 37.411 50.815 41.003 48.378 41.045 48.42 Z " fill="rgb(247,29,76)"/></g></g></g></svg>