<?xml version="1.0" encoding="UTF-8" standalone="no"?><!-- Generator: Gravit.io --><svg xmlns="http://www.w3.org/2000/svg" xmlns:xlink="http://www.w3.org/1999/xlink" style="isolation:isolate" viewBox="0 0 100 100" width="100pt" height="100pt"><path d=" M 0 0 L 100 0 L 100 100 L 0 100 L 0 0 Z " fill="rgb(255,108,55)"/><path d=" M 66.661 31.599 C 65.696 31.612 64.824 32.009 64.189 32.64 L 64.189 32.64 L 45.635 51.194 L 41.676 47.234 C 59.964 28.999 63.261 28.824 66.661 31.596 L 66.661 31.599 Z  M 46.398 51.853 L 64.899 33.352 C 65.371 32.859 66.033 32.552 66.767 32.552 C 68.196 32.552 69.352 33.709 69.352 35.137 C 69.352 35.931 68.996 36.64 68.433 37.115 L 68.43 37.118 L 48.851 54.306 L 46.398 51.853 Z  M 47.773 54.747 L 43.188 55.738 C 43.173 55.741 43.154 55.744 43.132 55.744 C 43.035 55.744 42.951 55.688 42.907 55.606 L 42.907 55.606 C 42.885 55.569 42.873 55.528 42.873 55.481 C 42.873 55.413 42.901 55.347 42.948 55.303 L 42.948 55.303 L 45.635 52.616 L 47.773 54.747 Z  M 36.091 52.834 L 40.976 47.95 L 44.638 51.609 L 36.391 53.385 C 36.369 53.391 36.341 53.394 36.313 53.394 C 36.191 53.394 36.088 53.325 36.038 53.222 L 36.038 53.219 C 36.007 53.172 35.991 53.116 35.991 53.056 C 35.991 52.966 36.032 52.888 36.091 52.831 L 36.091 52.831 L 36.091 52.834 Z  M 20.9 78.076 C 20.738 78.06 20.613 77.926 20.613 77.76 C 20.613 77.751 20.613 77.739 20.613 77.729 L 20.613 77.729 C 20.622 77.654 20.653 77.589 20.703 77.539 L 20.703 77.539 L 20.713 77.539 L 24.653 73.598 L 29.744 78.689 L 20.9 78.076 Z  M 31.004 72.842 C 30.697 73.004 30.491 73.32 30.491 73.685 C 30.491 73.763 30.5 73.842 30.519 73.913 L 30.519 73.907 L 31.366 77.51 C 31.375 77.548 31.382 77.592 31.382 77.635 C 31.382 77.923 31.147 78.157 30.86 78.157 C 30.713 78.157 30.582 78.098 30.488 78.001 L 30.488 78.001 L 30.475 78.001 L 25.36 72.879 L 41.035 57.219 L 48.62 55.581 L 52.261 59.222 C 47.032 63.813 39.882 68.394 31.01 72.838 L 31.004 72.842 Z  M 53.001 58.56 L 52.992 58.56 L 49.495 55.063 L 69.074 37.875 C 69.255 37.712 69.418 37.54 69.564 37.353 L 69.571 37.343 C 68.955 42.947 61.117 50.866 52.998 58.557 L 53.001 58.56 Z  M 68.239 31.64 L 68.227 31.631 C 66.861 30.259 66.017 28.365 66.017 26.274 C 66.017 22.08 69.418 18.683 73.608 18.683 C 75.465 18.683 77.165 19.349 78.487 20.455 L 78.474 20.446 L 71.765 27.168 C 71.674 27.259 71.618 27.384 71.618 27.521 C 71.618 27.659 71.674 27.784 71.765 27.874 L 71.765 27.874 L 76.962 33.071 C 75.98 33.568 74.821 33.862 73.596 33.862 C 71.505 33.862 69.611 33.015 68.243 31.643 L 68.243 31.643 L 68.239 31.64 Z  M 78.98 31.64 C 78.646 31.971 78.274 32.271 77.877 32.531 L 77.849 32.546 L 77.846 32.546 L 72.818 27.518 L 79.205 21.13 C 81.959 24.13 81.859 28.765 78.98 31.64 Z  M 78.565 25.208 C 78.415 25.318 78.318 25.493 78.318 25.69 C 78.318 25.752 78.327 25.812 78.343 25.865 L 78.343 25.862 C 78.455 26.087 78.521 26.349 78.521 26.63 C 78.521 27.052 78.371 27.44 78.118 27.74 L 78.121 27.737 C 78.043 27.837 77.996 27.962 77.996 28.099 C 77.996 28.284 78.084 28.449 78.218 28.555 L 78.218 28.555 C 78.315 28.63 78.434 28.677 78.568 28.68 L 78.568 28.68 C 78.746 28.677 78.902 28.599 79.009 28.474 L 79.009 28.474 C 79.424 27.977 79.674 27.334 79.674 26.633 C 79.674 26.165 79.562 25.721 79.362 25.33 L 79.368 25.346 C 79.262 25.196 79.09 25.099 78.896 25.099 C 78.771 25.099 78.652 25.14 78.559 25.208 L 78.562 25.208 L 78.565 25.208 Z " fill="rgb(255,255,255)"/></svg>