<?xml version="1.0" encoding="UTF-8" standalone="no"?><!-- Generator: Gravit.io --><svg xmlns="http://www.w3.org/2000/svg" xmlns:xlink="http://www.w3.org/1999/xlink" style="isolation:isolate" viewBox="0 0 100 100" width="100pt" height="100pt"><rect x="0" y="0" width="100" height="100" transform="matrix(1,0,0,1,0,0)" fill="rgb(0,0,0)"/><clipPath id="_clipPath_MRd5q6HzJuSs1nPvrbjC7Vo25iyNo1On"><path d=" M 62.547 79.59 C 63.492 79.958 64.57 79.935 65.524 79.476 L 77.877 73.532 C 79.175 72.907 80 71.593 80 70.152 L 80 29.848 C 80 28.407 79.175 27.093 77.877 26.468 L 65.524 20.524 C 64.272 19.922 62.807 20.069 61.708 20.868 C 61.551 20.982 61.402 21.11 61.261 21.25 L 37.613 42.825 L 27.312 35.006 C 26.353 34.278 25.012 34.337 24.122 35.148 L 20.818 38.153 C 19.728 39.144 19.727 40.858 20.815 41.85 L 29.748 50 L 20.815 58.15 C 19.727 59.142 19.728 60.856 20.818 61.847 L 24.122 64.852 C 25.012 65.662 26.353 65.722 27.312 64.994 L 37.613 57.175 L 61.261 78.75 C 61.636 79.124 62.075 79.406 62.547 79.59 Z  M 65.009 36.379 L 47.065 50 L 65.009 63.621 L 65.009 36.379 Z " fill-rule="evenodd" fill="rgb(255,255,255)"/></clipPath><g clip-path="url(#_clipPath_MRd5q6HzJuSs1nPvrbjC7Vo25iyNo1On)"><path d=" M 77.877 26.478 L 65.514 20.525 C 64.083 19.836 62.373 20.127 61.25 21.25 L 20.779 58.15 C 19.69 59.142 19.692 60.856 20.782 61.847 L 24.087 64.852 C 24.979 65.662 26.321 65.722 27.28 64.994 L 76.016 28.022 C 77.651 26.781 80 27.948 80 30 L 80 29.856 C 80 28.416 79.175 27.103 77.877 26.478 Z " fill="rgb(0,101,169)"/><g filter="url(#e5ozRCOcEV2sh5sBiBhaS3TTrjzLle8e)"><path d=" M 77.877 73.522 L 65.514 79.475 C 64.083 80.164 62.373 79.873 61.25 78.75 L 20.779 41.85 C 19.69 40.858 19.692 39.144 20.782 38.153 L 24.087 35.148 C 24.979 34.337 26.321 34.278 27.28 35.006 L 76.016 71.978 C 77.651 73.218 80 72.052 80 70 L 80 70.144 C 80 71.584 79.175 72.897 77.877 73.522 Z " fill="rgb(0,122,204)"/></g><defs><filter id="e5ozRCOcEV2sh5sBiBhaS3TTrjzLle8e" x="-200%" y="-200%" width="400%" height="400%" filterUnits="objectBoundingBox" color-interpolation-filters="sRGB"><feGaussianBlur xmlns="http://www.w3.org/2000/svg" in="SourceGraphic" stdDeviation="10.6667"/><feOffset xmlns="http://www.w3.org/2000/svg" dx="0" dy="0" result="pf_100_offsetBlur"/><feFlood xmlns="http://www.w3.org/2000/svg" flood-color="#000000" flood-opacity="0"/><feComposite xmlns="http://www.w3.org/2000/svg" in2="pf_100_offsetBlur" operator="in" result="pf_100_dropShadow"/><feBlend xmlns="http://www.w3.org/2000/svg" in="SourceGraphic" in2="pf_100_dropShadow" mode="normal"/></filter></defs><g filter="url(#HNcJTBRdVlZ3yhITVG0lhHKdiNCdsM55)"><path d=" M 65.515 79.476 C 64.083 80.164 62.373 79.873 61.25 78.75 C 62.634 80.134 65 79.154 65 77.197 L 65 22.803 C 65 20.846 62.634 19.866 61.25 21.25 C 62.373 20.127 64.083 19.836 65.515 20.524 L 77.875 26.468 C 79.174 27.093 80 28.407 80 29.848 L 80 70.152 C 80 71.593 79.174 72.907 77.875 73.532 L 65.515 79.476 Z " fill="rgb(31,156,240)"/></g><defs><filter id="HNcJTBRdVlZ3yhITVG0lhHKdiNCdsM55" x="-200%" y="-200%" width="400%" height="400%" filterUnits="objectBoundingBox" color-interpolation-filters="sRGB"><feGaussianBlur xmlns="http://www.w3.org/2000/svg" in="SourceGraphic" stdDeviation="10.6667"/><feOffset xmlns="http://www.w3.org/2000/svg" dx="0" dy="0" result="pf_100_offsetBlur"/><feFlood xmlns="http://www.w3.org/2000/svg" flood-color="#000000" flood-opacity="0"/><feComposite xmlns="http://www.w3.org/2000/svg" in2="pf_100_offsetBlur" operator="in" result="pf_100_dropShadow"/><feBlend xmlns="http://www.w3.org/2000/svg" in="SourceGraphic" in2="pf_100_dropShadow" mode="normal"/></filter></defs><g style="opacity:0.25;"><g opacity="0.25"><linearGradient id="_lgradient_76" x1="0.5000004841048552" y1="-3.916454121080659e-9" x2="0.500000484104855" y2="0.9999992102054935" gradientTransform="matrix(60,0,0,59.691,19.963,20.155)" gradientUnits="userSpaceOnUse"><stop offset="0%" stop-opacity="1" style="stop-color:rgb(255,255,255)"/><stop offset="100%" stop-opacity="0" style="stop-color:rgb(255,255,255)"/></linearGradient><path d=" M 62.51 79.59 C 63.455 79.958 64.533 79.935 65.487 79.476 L 77.84 73.532 C 79.138 72.907 79.963 71.593 79.963 70.152 L 79.963 29.848 C 79.963 28.407 79.138 27.093 77.84 26.468 L 65.487 20.524 C 64.235 19.922 62.77 20.069 61.671 20.868 C 61.515 20.982 61.365 21.11 61.225 21.25 L 37.576 42.825 L 27.276 35.006 C 26.317 34.278 24.976 34.337 24.085 35.148 L 20.781 38.153 C 19.692 39.144 19.691 40.858 20.778 41.85 L 29.712 50 L 20.778 58.15 C 19.691 59.142 19.692 60.856 20.781 61.847 L 24.085 64.852 C 24.976 65.662 26.317 65.722 27.276 64.994 L 37.576 57.175 L 61.225 78.75 C 61.599 79.124 62.038 79.406 62.51 79.59 Z  M 64.973 36.379 L 47.029 50 L 64.973 63.621 L 64.973 36.379 Z " fill-rule="evenodd" fill="url(#_lgradient_76)"/></g></g></g></svg>