<?xml version="1.0" encoding="UTF-8" standalone="no"?><!-- Generator: Gravit.io --><svg xmlns="http://www.w3.org/2000/svg" xmlns:xlink="http://www.w3.org/1999/xlink" style="isolation:isolate" viewBox="0 0 505 505" width="505pt" height="505pt"><g><path d=" M 320 322 L 460 203 L 460 453 L 320 322 Z " fill="rgb(255,255,255)" fill-opacity="0.6"/><path d=" M 185.158 322 L 45.158 203 L 45.158 453 L 185.158 322 Z " fill="rgb(255,255,255)" fill-opacity="0.6"/><path d=" M 459.842 202.986 L 402.359 252.186 L 321.901 321.978 L 308 309 L 200 308 L 184.529 322.346 L 102.641 252.186 L 45.158 202.986 L 252.5 52.5 L 459.842 202.986 Z " fill="rgb(255,255,255)" fill-opacity="0.5"/><path d=" M 460 202.986 L 45.315 202.986 L 252.658 52.5 L 460 202.986 Z " fill="rgb(255,255,255)" fill-opacity="0.25"/><path d=" M 200.154 307.666 L 45.158 452.5 L 459.842 452.5 L 307.846 308.666 L 200.154 307.666 Z " fill="rgb(255,255,255)" fill-opacity="0.75"/><g><path d=" M 134.897 202.21 L 285.258 202.21 L 285.258 232.898 L 134.897 232.898 L 134.897 202.21 L 134.897 202.21 Z  M 402.359 92.904 L 402.359 251.423 L 320 321.236 L 307 308.236 L 199 308.236 L 184.284 321.516 L 102.641 251.423 L 102.641 92.904 L 402.359 92.904 L 402.359 92.904 Z  M 134.897 139.187 L 370.103 139.187 L 370.103 168.875 L 134.897 168.875 L 134.897 139.187 Z " fill-rule="evenodd" fill="rgb(255,255,255)"/></g></g></svg>