<?xml version="1.0" encoding="UTF-8" standalone="no"?><!-- Generator: Gravit.io --><svg xmlns="http://www.w3.org/2000/svg" xmlns:xlink="http://www.w3.org/1999/xlink" style="isolation:isolate" viewBox="0 0 505 505" width="505pt" height="505pt"><clipPath id="_clipPath_eLEMMTVyKvCoFmztjzqRD3bpYr0z5zFi"><rect x="-25" y="-25" width="555" height="555" transform="matrix(1,0,0,1,0,0)" fill="rgb(255,255,255)"/></clipPath><g clip-path="url(#_clipPath_eLEMMTVyKvCoFmztjzqRD3bpYr0z5zFi)"><g><g><ellipse vector-effect="non-scaling-stroke" cx="252.50000000000003" cy="413.3188959707425" rx="140.498031496063" ry="48.61712598425197" fill="rgb(255,255,255)" fill-opacity="0.5"/><path d=" M 252.5 43.064 C 177.116 43.064 116.044 104.136 116.044 179.52 C 116.044 254.904 241.247 375.627 252.5 429.16 C 263.753 375.627 388.956 254.904 388.956 179.52 C 388.956 104.136 327.884 43.064 252.5 43.064 Z  M 203.227 179.52 C 203.227 152.325 225.306 130.247 252.5 130.247 C 279.694 130.247 301.773 152.325 301.773 179.52 C 301.773 206.714 279.694 228.792 252.5 228.792 C 225.306 228.792 203.227 206.714 203.227 179.52 Z " fill-rule="evenodd" fill="rgb(255,255,255)"/></g></g></g></svg>