<?xml version="1.0" encoding="UTF-8" standalone="no"?><!-- Generator: Gravit.io --><svg xmlns="http://www.w3.org/2000/svg" xmlns:xlink="http://www.w3.org/1999/xlink" style="isolation:isolate" viewBox="0 0 505 505" width="505pt" height="505pt"><clipPath id="_clipPath_qPCzlpEl2F3eLtxfLXH9DcqaQSGhzhXE"><rect x="-25" y="-25" width="555" height="555" transform="matrix(1,0,0,1,0,0)" fill="rgb(255,255,255)"/></clipPath><g clip-path="url(#_clipPath_qPCzlpEl2F3eLtxfLXH9DcqaQSGhzhXE)"><g><path d=" M 185.71 81.875 L 319.291 81.875 C 328.4 81.875 335.795 89.27 335.795 98.379 L 335.795 404.97 C 335.795 414.079 328.4 421.474 319.291 421.474 L 185.71 421.474 C 176.601 421.474 169.205 414.079 169.205 404.97 L 169.205 98.379 C 169.205 89.27 176.601 81.875 185.71 81.875 Z " fill="rgb(255,255,255)" fill-opacity="0.5"/><g><path d=" M 157.476 52.281 L 347.524 52.281 C 360.65 52.281 371.307 62.939 371.307 76.064 L 371.307 435.199 C 371.307 448.325 360.65 458.982 347.524 458.982 L 157.476 458.982 C 144.35 458.982 133.693 448.325 133.693 435.199 L 133.693 76.064 C 133.693 62.939 144.35 52.281 157.476 52.281 Z  M 185.71 81.875 L 319.291 81.875 C 328.4 81.875 335.795 89.27 335.795 98.379 L 335.795 404.97 C 335.795 414.079 328.4 421.474 319.291 421.474 L 185.71 421.474 C 176.601 421.474 169.205 414.079 169.205 404.97 L 169.205 98.379 C 169.205 89.27 176.601 81.875 185.71 81.875 Z " fill-rule="evenodd" fill="rgb(255,255,255)"/><path d=" M 268.761 73.442 L 236.24 73.442 C 234.404 73.442 232.949 71.989 232.949 70.152 L 232.949 70.152 C 232.949 68.316 234.404 66.862 236.24 66.862 L 268.761 66.862 C 270.597 66.862 272.051 68.316 272.051 70.152 L 272.051 70.152 C 272.051 71.989 270.597 73.442 268.761 73.442 L 268.761 73.442 Z  M 190.07 52.281 L 314.931 52.281 L 314.931 94.714 C 314.931 102.67 308.471 109.13 300.514 109.13 L 204.486 109.13 C 196.529 109.13 190.07 102.67 190.07 94.714 L 190.07 52.281 L 190.07 52.281 Z  M 275.696 70.129 C 275.696 68.3 277.181 66.815 279.01 66.815 C 280.839 66.815 282.324 68.3 282.324 70.129 C 282.324 71.958 280.839 73.443 279.01 73.443 C 277.181 73.443 275.696 71.958 275.696 70.129 Z " fill-rule="evenodd" fill="rgb(255,255,255)"/><g><g><path d=" M 415.968 182.941 C 409.917 185.208 403.167 188.958 397.206 191.703 C 424.535 219.032 424.535 263.677 397.206 291.006 C 404.917 295.208 408.667 296.458 415.968 299.768 C 431.614 284.226 440.168 263.468 440.168 241.354 C 440.168 219.241 431.51 198.483 415.968 182.941 Z " fill="rgb(255,255,255)"/><path d=" M 457.143 161.766 C 445.667 166.958 444.167 167.458 438.381 170.528 C 477.392 209.54 477.392 273.065 438.381 312.18 C 448.167 316.958 449.167 317.458 457.143 320.942 C 500.952 277.028 500.952 205.576 457.143 161.766 Z " fill="rgb(255,255,255)"/></g><g><path d=" M 107.785 191.7 C 107.667 191.75 88.667 182.75 89.024 182.939 C 73.379 198.48 64.827 219.236 64.827 241.347 C 64.827 263.459 73.379 284.11 89.024 299.755 C 89.167 300 107.417 291 107.785 290.994 C 80.459 263.563 80.459 219.027 107.785 191.7 Z " fill="rgb(255,255,255)"/><path d=" M 66.613 170.528 C 66.542 170.375 48.292 161.875 47.851 161.766 C 4.045 205.572 4.045 277.018 47.851 320.824 C 49.103 322.075 69.011 314.461 66.613 312.063 C 27.604 273.054 27.604 209.536 66.613 170.528 Z " fill="rgb(255,255,255)"/></g></g></g></g></g></svg>