<?xml version="1.0" encoding="UTF-8" standalone="no"?><!-- Generator: Gravit.io --><svg xmlns="http://www.w3.org/2000/svg" xmlns:xlink="http://www.w3.org/1999/xlink" style="isolation:isolate" viewBox="0 0 200 200" width="200pt" height="200pt"><rect x="0" y="0" width="200" height="200" transform="matrix(1,0,0,1,0,0)" fill="rgb(5,55,104)"/><g><path d=" M 175 100.319 L 160.388 114.698 L 145.661 99.971 L 160.273 85.533 L 175 100.319 L 175 100.319 L 175 100.319 L 175 100.319 L 175 100.319 L 175 100.319 Z  M 114.641 39.785 L 100.377 54.397 L 85.359 39.785 L 99.971 25.058 L 114.641 39.785 L 114.641 39.785 L 114.641 39.785 L 114.641 39.785 L 114.641 39.785 L 114.641 39.785 Z  M 99.855 174.942 L 85.128 160.157 L 100.029 145.719 L 114.583 160.446 L 99.855 174.942 L 99.855 174.942 L 99.855 174.942 L 99.855 174.942 L 99.855 174.942 Z  M 46.859 132.093 L 68.023 132.093 L 68.023 153.141 L 46.859 153.141 L 46.859 132.093 L 46.859 132.093 L 46.859 132.093 L 46.859 132.093 Z  M 132.035 153.199 L 132.035 132.151 L 153.141 132.151 L 153.141 153.199 L 132.035 153.199 L 132.035 153.199 L 132.035 153.199 Z  M 46.801 68.023 L 46.801 47.033 L 67.907 47.033 L 67.907 68.023 L 46.801 68.023 L 46.801 68.023 Z  M 132.035 47.381 L 153.199 47.381 L 153.199 68.023 L 132.035 68.023 L 132.035 47.381 Z " fill-rule="evenodd" fill="rgb(255,255,255)"/><path d=" M 25 99.971 L 39.67 85.591 L 53.991 100.377 L 39.496 114.525 L 25 99.971 Z " fill="rgb(250,184,25)"/></g></svg>