<?xml version="1.0" encoding="UTF-8" standalone="no"?><!-- Generator: Gravit.io --><svg xmlns="http://www.w3.org/2000/svg" xmlns:xlink="http://www.w3.org/1999/xlink" style="isolation:isolate" viewBox="0 0 100 100" width="100pt" height="100pt"><g><path d=" M 0 0 L 100 0 L 100 100 L 0 100 L 0 0 Z " fill="rgb(38,19,0)"/><path d=" M 34.708 60.625 L 31.417 73.125 C 31.333 73.458 31.208 73.542 30.792 73.542 L 24.667 73.542 C 24.25 73.542 24.167 73.417 24.25 72.917 L 36.083 31.5 C 36.292 30.75 36.417 30.083 36.5 28.042 C 36.5 27.75 36.625 27.625 36.833 27.625 L 45.583 27.625 C 45.875 27.625 46 27.708 46.083 28.042 L 59.333 73 C 59.417 73.333 59.333 73.542 59 73.542 L 52.083 73.542 C 51.75 73.542 51.542 73.458 51.458 73.167 L 48 60.625 L 34.708 60.625 L 34.708 60.625 Z  M 46.292 53.875 C 45.125 49.25 42.375 39.167 41.333 34.292 L 41.25 34.292 C 40.375 39.167 38.167 47.417 36.417 53.875 L 46.292 53.875 Z  M 65.042 30.708 C 65.042 28.042 66.917 26.458 69.292 26.458 C 71.833 26.458 73.542 28.167 73.542 30.708 C 73.542 33.458 71.75 34.958 69.208 34.958 C 66.792 34.958 65.042 33.458 65.042 30.708 L 65.042 30.708 Z  M 65.542 40.167 C 65.542 39.833 65.667 39.667 66.042 39.667 L 72.583 39.667 C 72.917 39.667 73.083 39.792 73.083 40.167 L 73.083 73.042 C 73.083 73.375 73 73.542 72.583 73.542 L 66.125 73.542 C 65.708 73.542 65.583 73.333 65.583 73 L 65.583 40.167 L 65.542 40.167 Z " fill="rgb(255,124,0)"/></g></svg>