<svg height="100pt" viewBox="0 0 100 100" width="100pt" xmlns="http://www.w3.org/2000/svg"><path d="m0 0h100v100h-100z" fill="#261300"/><path d="m34.708 60.625-3.291 12.5c-.084.333-.209.417-.625.417h-6.125c-.417 0-.5-.125-.417-.625l11.833-41.417c.209-.75.334-1.417.417-3.458 0-.292.125-.417.333-.417h8.75c.292 0 .417.083.5.417l13.25 44.958c.084.333 0 .542-.333.542h-6.917c-.333 0-.541-.084-.625-.375l-3.458-12.542zm11.584-6.75c-1.167-4.625-3.917-14.708-4.959-19.583h-.083c-.875 4.875-3.083 13.125-4.833 19.583zm18.75-23.167c0-2.666 1.875-4.25 4.25-4.25 2.541 0 4.25 1.709 4.25 4.25 0 2.75-1.792 4.25-4.334 4.25-2.416 0-4.166-1.5-4.166-4.25zm.5 9.459c0-.334.125-.5.5-.5h6.541c.334 0 .5.125.5.5v32.875c0 .333-.083.5-.5.5h-6.458c-.417 0-.542-.209-.542-.542v-32.833z" fill="#ff7c00"/></svg>