<svg fill="none" height="90" viewBox="0 0 90 90" width="90" xmlns="http://www.w3.org/2000/svg"><path d="m40.7211 12.8449-29.8268 12.3411c-1.65864.6864-1.64146 3.0426.0276 3.7042l29.9512 11.8767c2.6315 1.0436 5.5622 1.0436 8.1938 0l29.9516-11.8772c1.6686-.6611 1.6867-3.0169.0272-3.7033l-29.826-12.342c-2.7211-1.1259-5.7779-1.1259-8.499 0" fill="#fcb400"/><path d="m47.6289 47.2503v29.6701c0 1.4107 1.4231 2.3775 2.7349 1.8575l33.3748-12.9538c.3722-.1475.6915-.4035.9165-.7347.2249-.3312.3452-.7224.3451-1.1228v-29.6696c0-1.4112-1.4231-2.3775-2.7349-1.8575l-33.3748 12.9538c-.3721.1476-.6914.4036-.9163.7348-.225.3312-.3453.7223-.3453 1.1227" fill="#18bfff"/><path d="m39.8363 48.7828-9.9049 4.7822-1.0057.486-20.90865 10.0179c-1.32493.6393-3.01705-.3265-3.01705-1.7988v-27.8473c0-.5327.27313-.9925.6394-1.3384.15027-.1497.32074-.2775.50646-.3799.49923-.2998 1.21189-.3798 1.81783-.1401l31.70621 12.5622c1.6116.6393 1.7382 2.8975.1664 3.6567" fill="#f82b60"/><path d="m39.8336 48.7838-9.9049 4.7821-24.29198-20.481c.15029-.1495.32077-.2772.50646-.3794.49922-.2998 1.21188-.3798 1.81783-.1402l31.70619 12.5622c1.6116.6394 1.7382 2.8975.1664 3.6567" fill="#ba1e45"/></svg>