<svg height="100pt" viewBox="0 0 100 100" width="100pt" xmlns="http://www.w3.org/2000/svg"><path d="m0 0h100v100h-100z" fill="#252f3e"/><path d="m34.727 44.273c0 .861.093 1.56.256 2.072.186.512.419 1.071.745 1.676.116.186.163.373.163.536 0 .232-.14.465-.443.698l-1.466.978c-.21.14-.419.209-.606.209-.232 0-.465-.116-.698-.326-.326-.349-.605-.721-.838-1.094-.233-.396-.466-.838-.722-1.373-1.816 2.141-4.097 3.212-6.845 3.212-1.955 0-3.515-.558-4.656-1.676-1.141-1.117-1.723-2.607-1.723-4.47 0-1.979.699-3.585 2.119-4.796 1.42-1.21 3.306-1.816 5.704-1.816.791 0 1.606.07 2.468.187.861.116 1.746.302 2.677.512v-1.7c0-1.769-.373-3.003-1.094-3.725-.745-.722-2.002-1.071-3.795-1.071-.815 0-1.653.093-2.514.303-.862.209-1.7.466-2.515.791-.372.163-.652.257-.815.303-.163.047-.279.07-.372.07-.326 0-.489-.233-.489-.722v-1.141c0-.372.046-.651.163-.814.116-.163.326-.326.652-.489.815-.419 1.792-.769 2.933-1.048 1.141-.303 2.352-.442 3.632-.442 2.771 0 4.796.628 6.1 1.885 1.28 1.258 1.932 3.167 1.932 5.728v7.543zm-9.453 3.539c.769 0 1.56-.14 2.398-.42.839-.279 1.584-.791 2.212-1.49.373-.442.652-.931.792-1.49.139-.558.233-1.233.233-2.025v-.978c-.676-.163-1.397-.302-2.142-.396-.745-.093-1.467-.139-2.189-.139-1.56 0-2.7.302-3.469.931-.768.629-1.14 1.513-1.14 2.677 0 1.095.279 1.909.861 2.468.559.582 1.374.862 2.444.862zm18.695 2.514c-.419 0-.698-.07-.884-.233-.187-.14-.35-.465-.489-.908l-5.471-17.996c-.14-.466-.21-.769-.21-.932 0-.372.186-.582.559-.582h2.281c.443 0 .745.07.908.233.187.14.326.466.466.908l3.911 15.412 3.632-15.412c.117-.465.256-.768.443-.908.186-.139.512-.233.931-.233h1.862c.443 0 .745.07.932.233.186.14.349.466.442.908l3.678 15.599 4.028-15.599c.14-.465.303-.768.466-.908.186-.139.488-.233.908-.233h2.165c.372 0 .582.187.582.582 0 .117-.024.233-.047.373s-.07.326-.163.582l-5.611 17.996c-.139.466-.302.769-.488.908-.187.14-.489.233-.885.233h-2.002c-.443 0-.745-.07-.932-.233-.186-.163-.349-.465-.442-.931l-3.609-15.016-3.585 14.993c-.116.466-.256.768-.442.931s-.512.233-.931.233zm29.917.629c-1.211 0-2.421-.14-3.586-.42-1.164-.279-2.072-.582-2.677-.931-.372-.209-.628-.442-.722-.652-.093-.209-.139-.442-.139-.652v-1.187c0-.489.186-.722.535-.722.14 0 .28.024.419.07.14.047.349.14.582.233.792.349 1.653.629 2.561.815.931.186 1.839.279 2.771.279 1.466 0 2.607-.256 3.399-.768.791-.512 1.21-1.257 1.21-2.212 0-.652-.209-1.187-.628-1.629-.419-.443-1.211-.839-2.352-1.211l-3.375-1.048c-1.7-.535-2.957-1.327-3.725-2.374-.769-1.025-1.164-2.166-1.164-3.376 0-.978.209-1.839.628-2.584s.978-1.397 1.676-1.909c.699-.536 1.49-.932 2.422-1.211.931-.279 1.909-.396 2.933-.396.512 0 1.048.023 1.56.093.535.07 1.024.163 1.513.256.466.117.908.233 1.327.373s.745.279.978.419c.326.186.559.372.698.582.14.186.21.442.21.768v1.094c0 .489-.186.745-.535.745-.187 0-.489-.093-.885-.279-1.327-.605-2.817-.908-4.47-.908-1.327 0-2.375.21-3.097.652-.721.442-1.094 1.117-1.094 2.072 0 .652.233 1.211.699 1.653.465.442 1.327.885 2.561 1.28l3.306 1.048c1.676.536 2.886 1.281 3.608 2.235.722.955 1.071 2.049 1.071 3.259 0 1.002-.209 1.91-.605 2.701-.419.792-.978 1.49-1.7 2.049-.722.582-1.583 1.001-2.584 1.304-1.048.326-2.142.489-3.329.489z" fill="#fff"/><g fill="#f90" fill-rule="evenodd"><path d="m78.286 62.269c-7.66 5.658-18.788 8.661-28.357 8.661-13.41 0-25.493-4.959-34.619-13.201-.722-.651-.07-1.536.792-1.024 9.871 5.727 22.047 9.196 34.642 9.196 8.498 0 17.834-1.769 26.424-5.401 1.281-.582 2.375.838 1.118 1.769z"/><path d="m81.475 58.637c-.977-1.257-6.472-.605-8.963-.302-.745.093-.861-.559-.186-1.048 4.377-3.073 11.571-2.188 12.409-1.164.838 1.048-.233 8.242-4.33 11.687-.629.536-1.234.256-.955-.442.931-2.305 3.003-7.497 2.025-8.731z"/></g></svg>