<?xml version="1.0" encoding="UTF-8" standalone="no"?><!-- Generator: Gravit.io --><svg xmlns="http://www.w3.org/2000/svg" xmlns:xlink="http://www.w3.org/1999/xlink" style="isolation:isolate" viewBox="0 0 100 100" width="100pt" height="100pt"><rect x="0" y="0" width="100" height="100" transform="matrix(1,0,0,1,0,0)" fill="rgb(70,70,70)"/><g><g><ellipse vector-effect="non-scaling-stroke" cx="50" cy="45.00151501776344" rx="29.884901355150244" ry="30.001515017763438" fill="rgb(146,199,85)"/><path d=" M 53.477 31.082 L 78.56 53.854 C 78.56 53.854 73.333 73.18 52.767 74.876 C 52.767 74.876 44.699 76 36.558 71.812 C 28.416 67.614 44.063 54.129 44.063 54.129 L 43.83 38.768 L 49.958 36.224 L 53.467 31.082 L 53.477 31.082 Z " fill-rule="evenodd" fill="rgb(120,164,77)"/><g><path d=" M 52.64 52.889 L 69.156 81.533 L 74.012 85 L 74.468 84.046 L 74.213 78.756 L 56.764 48.903 L 52.64 52.889 Z " fill-rule="evenodd" fill="rgb(227,227,227)"/><path d=" M 25.522 84.311 L 25.872 84.661 L 30.61 81.48 L 35.466 73.275 L 39.335 66.289 C 39.335 66.289 48.919 72.183 59.785 66.692 C 59.785 66.692 64.863 63.829 66.135 61.635 C 66.135 61.635 71.245 57.85 71.425 47.8 L 66.114 47.747 C 66.114 47.747 66.464 57.511 57.05 62.25 C 57.05 62.25 50.233 65.95 42.261 61.9 L 47.233 52.942 L 43.077 48.903 L 25.691 78.851 L 25.543 84.311 L 25.522 84.311 Z " fill-rule="evenodd" fill="rgb(242,241,247)"/><path d=" M 41.519 47.334 L 48.685 54.384 C 48.685 54.384 50.509 55.189 51.569 54.034 L 58.322 47.217 L 58.29 39.213 C 58.29 39.213 58.057 36.383 54.887 36.616 L 53.414 36.616 L 53.467 31.071 L 46.48 31.241 L 46.48 36.616 C 46.48 36.616 41.858 35.46 41.572 39.796 L 41.519 47.334 Z  M 49.947 39.446 C 52.216 39.446 54.05 41.27 54.05 43.517 C 54.05 45.765 52.216 47.588 49.947 47.588 C 47.678 47.588 45.844 45.765 45.844 43.517 C 45.844 41.27 47.678 39.446 49.947 39.446 Z " fill-rule="evenodd" fill="rgb(112,112,112)"/></g></g></g></svg>