<svg height="100pt" viewBox="0 0 100 100" width="100pt" xmlns="http://www.w3.org/2000/svg"><path d="m0 0h100v100h-100z" fill="#464646"/><ellipse cx="50" cy="45.001515" fill="#92c755" rx="29.884901" ry="30.001515"/><g fill-rule="evenodd"><path d="m53.477 31.082 25.083 22.772s-5.227 19.326-25.793 21.022c0 0-8.068 1.124-16.209-3.064-8.142-4.198 7.505-17.683 7.505-17.683l-.233-15.361 6.128-2.544 3.509-5.142z" fill="#78a44d"/><path d="m52.64 52.889 16.516 28.644 4.856 3.467.456-.954-.255-5.29-17.449-29.853z" fill="#e3e3e3"/><path d="m25.522 84.311.35.35 4.738-3.181 4.856-8.205 3.869-6.986s9.584 5.894 20.45.403c0 0 5.078-2.863 6.35-5.057 0 0 5.11-3.785 5.29-13.835l-5.311-.053s.35 9.764-9.064 14.503c0 0-6.817 3.7-14.789-.35l4.972-8.958-4.156-4.039-17.386 29.948-.148 5.46z" fill="#f2f1f7"/><path d="m41.519 47.334 7.166 7.05s1.824.805 2.884-.35l6.753-6.817-.032-8.004s-.233-2.83-3.403-2.597h-1.473l.053-5.545-6.987.17v5.375s-4.622-1.156-4.908 3.18zm8.428-7.888c2.269 0 4.103 1.824 4.103 4.071 0 2.248-1.834 4.071-4.103 4.071s-4.103-1.823-4.103-4.071c0-2.247 1.834-4.071 4.103-4.071z" fill="#707070"/></g></svg>