<svg fill="none" height="128" viewBox="0 0 128 128" width="128" xmlns="http://www.w3.org/2000/svg"><path d="m63.8102 1.02637-59.25698 20.85403 9.36298 77.637 49.957 27.4566 50.2138-27.8276 9.36-77.635z" fill="#b3b3b3"/><path d="m117.536 25.9979-53.8641-18.36899v112.78509l45.1411-24.9831z" fill="#a6120d"/><path d="m11.2012 26.329 8.026 69.434 44.444 24.651v-112.78705z" fill="#dd1b16"/><path d="m78.4992 67.6696-14.827 6.934h-15.628l-7.347 18.374-13.663.254 36.638-81.508zm-1.434-3.491-13.295-26.321-10.906 25.868h10.807z" fill="#f2f2f2"/><path d="m63.6709 11.7236.098 26.134 12.375 25.888h-12.446l-.027 10.841 17.209.017 8.042 18.63 13.0741.242z" fill="#b3b3b3"/></svg>