<?xml version="1.0" encoding="UTF-8" standalone="no"?><!-- Generator: Gravit.io --><svg xmlns="http://www.w3.org/2000/svg" xmlns:xlink="http://www.w3.org/1999/xlink" style="isolation:isolate" viewBox="0 0 100 100" width="100pt" height="100pt"><rect x="0" y="0" width="100" height="100" transform="matrix(1,0,0,1,0,0)" fill="rgb(50,148,244)"/><g><path d=" M 40.998 60.35 L 48.088 73.819 L 57.536 73.819 L 45.856 52.469 L 45.856 52.469 L 40.998 60.35 Z  M 46.755 53.168 L 46.755 53.168 L 46.755 53.168 Z " fill-rule="evenodd" fill="rgb(244,172,68)"/><path d=" M 49.614 12.155 L 15 73.845 L 38.641 73.845 L 38.861 63.565 L 31.105 63.531 L 49.647 30.962 L 75.242 73.845 L 85 73.845 L 49.614 12.155 L 49.614 12.155 L 49.614 12.155 Z  M 49.652 11.912 L 49.652 11.912 L 49.652 11.912 L 49.652 11.912 Z  M 85.101 73.845 M 15.376 73.845" fill-rule="evenodd" fill="rgb(255,255,255)"/><path d=" M 53.002 41.621 L 47.944 49.966 L 60.741 73.799 L 60.741 73.799 L 71.452 73.799 L 53.002 41.621 L 53.002 41.621 Z " fill="rgb(99,220,155)"/></g></svg>