<svg height="100pt" viewBox="0 0 100 100" width="100pt" xmlns="http://www.w3.org/2000/svg" xmlns:xlink="http://www.w3.org/1999/xlink"><linearGradient id="a" gradientTransform="matrix(100 0 0 99.988 0 .006)" gradientUnits="userSpaceOnUse" x1=".499938" x2=".499938" y1="0" y2="1"><stop offset="0" stop-color="#0ed4fc"/><stop offset="1" stop-color="#0c57ef"/></linearGradient><path d="m100 .006h-100v99.988h100z" fill="url(#a)"/><path d="m49.885 21.829 1.781-3.079c1.099-1.924 3.551-2.573 5.475-1.473 1.924 1.099 2.573 3.551 1.473 5.475l-17.162 29.708h12.413c4.024 0 6.278 4.728 4.529 8.004h-36.392c-2.221 0-4.002-1.781-4.002-4.002s1.781-4.002 4.002-4.002h10.203l13.062-22.638-4.079-7.081c-1.1-1.924-.451-4.354 1.473-5.475 1.924-1.1 4.354-.451 5.475 1.473zm-15.437 42.758-3.848 6.674c-1.1 1.924-3.551 2.573-5.475 1.473-1.925-1.099-2.573-3.551-1.474-5.475l2.859-4.948c3.232-1 5.86-.231 7.938 2.276zm33.138-12.105h10.412c2.221 0 4.002 1.781 4.002 4.002s-1.781 4.002-4.002 4.002h-5.783l3.903 6.773c1.099 1.924.451 4.354-1.473 5.475-1.925 1.1-4.354.451-5.476-1.473-6.575-11.402-11.511-19.934-14.788-25.618-3.353-5.783-.956-11.588 1.408-13.556 2.627 4.508 6.553 11.313 11.797 20.395z" fill="#fff"/></svg>