<?xml version="1.0" encoding="UTF-8" standalone="no"?><!-- Generator: Gravit.io --><svg xmlns="http://www.w3.org/2000/svg" xmlns:xlink="http://www.w3.org/1999/xlink" style="isolation:isolate" viewBox="0 0 100 100" width="100pt" height="100pt"><rect x="0" y="0" width="100" height="100" transform="matrix(1,0,0,1,0,0)" fill="rgb(153,153,153)" fill-opacity="0.5"/><path d=" M 35.672 82.653 C 34.292 81.733 33.068 80.605 32.045 79.302 C 30.927 77.953 29.893 76.531 28.942 75.062 C 26.71 71.798 24.963 68.226 23.754 64.463 C 22.296 60.084 21.587 55.892 21.587 51.791 C 21.587 47.215 22.578 43.22 24.508 39.869 C 25.936 37.245 28.066 35.05 30.63 33.509 C 33.107 31.963 35.993 31.119 38.91 31.06 C 39.931 31.06 41.037 31.206 42.205 31.497 C 43.051 31.731 44.07 32.109 45.325 32.575 C 46.927 33.187 47.802 33.566 48.095 33.653 C 49.028 34.003 49.815 34.149 50.427 34.149 C 50.893 34.149 51.564 34.003 52.308 33.771 C 52.73 33.625 53.532 33.362 54.669 32.868 C 55.795 32.459 56.687 32.109 57.395 31.847 C 58.473 31.526 59.518 31.235 60.456 31.088 C 61.593 30.914 62.721 30.854 63.803 30.942 C 65.874 31.088 67.767 31.526 69.46 32.166 C 72.433 33.362 74.831 35.227 76.622 37.879 C 75.863 38.345 75.164 38.887 74.508 39.482 C 73.089 40.735 71.884 42.221 70.922 43.87 C 69.669 46.115 69.027 48.651 69.044 51.216 C 69.088 54.373 69.89 57.147 71.493 59.552 C 72.621 61.301 74.127 62.799 75.964 64.03 C 76.867 64.642 77.66 65.064 78.413 65.342 C 78.063 66.435 77.678 67.5 77.232 68.549 C 76.22 70.902 75.017 73.156 73.587 75.283 C 72.328 77.12 71.338 78.49 70.585 79.393 C 69.414 80.793 68.283 81.842 67.146 82.592 C 65.894 83.423 64.42 83.862 62.914 83.862 C 61.893 83.906 60.874 83.775 59.899 83.493 C 59.053 83.215 58.22 82.905 57.404 82.55 C 56.549 82.159 55.666 81.827 54.765 81.56 C 53.657 81.269 52.52 81.129 51.372 81.132 C 50.207 81.132 49.07 81.278 47.99 81.553 C 47.087 81.809 46.212 82.124 45.346 82.5 C 44.122 83.01 43.32 83.346 42.854 83.491 C 41.909 83.77 40.941 83.939 39.968 84 C 38.453 84 37.04 83.563 35.674 82.651 L 35.672 82.653 Z  M 55.653 28.841 C 53.67 29.831 51.787 30.251 49.901 30.111 C 49.61 28.229 49.901 26.292 50.688 24.173 C 51.387 22.365 52.321 20.734 53.602 19.276 C 54.942 17.761 56.547 16.506 58.353 15.603 C 60.277 14.612 62.113 14.087 63.862 14 C 64.096 15.983 63.862 17.935 63.134 20.034 C 62.47 21.899 61.479 23.62 60.22 25.166 C 58.952 26.681 57.378 27.936 55.653 28.841 Z " fill="rgb(153,153,153)"/></svg>