<svg height="100pt" viewBox="0 0 100 100" width="100pt" xmlns="http://www.w3.org/2000/svg"><g fill="#999"><path d="m0 0h100v100h-100z" fill-opacity=".5"/><path d="m35.672 82.653c-1.38-.92-2.604-2.048-3.627-3.351-1.118-1.349-2.152-2.771-3.103-4.24-2.232-3.264-3.979-6.836-5.188-10.599-1.458-4.379-2.167-8.571-2.167-12.672 0-4.576.991-8.571 2.921-11.922 1.428-2.624 3.558-4.819 6.122-6.36 2.477-1.546 5.363-2.39 8.28-2.449 1.021 0 2.127.146 3.295.437.846.234 1.865.612 3.12 1.078 1.602.612 2.477.991 2.77 1.078.933.35 1.72.496 2.332.496.466 0 1.137-.146 1.881-.378.422-.146 1.224-.409 2.361-.903 1.126-.409 2.018-.759 2.726-1.021 1.078-.321 2.123-.612 3.061-.759 1.137-.174 2.265-.234 3.347-.146 2.071.146 3.964.584 5.657 1.224 2.973 1.196 5.371 3.061 7.162 5.713-.759.466-1.458 1.008-2.114 1.603-1.419 1.253-2.624 2.739-3.586 4.388-1.253 2.245-1.895 4.781-1.878 7.346.044 3.157.846 5.931 2.449 8.336 1.128 1.749 2.634 3.247 4.471 4.478.903.612 1.696 1.034 2.449 1.312-.35 1.093-.735 2.158-1.181 3.207-1.012 2.353-2.215 4.607-3.645 6.734-1.259 1.837-2.249 3.207-3.002 4.11-1.171 1.4-2.302 2.449-3.439 3.199-1.252.831-2.726 1.27-4.232 1.27-1.021.044-2.04-.087-3.015-.369-.846-.278-1.679-.588-2.495-.943-.855-.391-1.738-.723-2.639-.99-1.108-.291-2.245-.431-3.393-.428-1.165 0-2.302.146-3.382.421-.903.256-1.778.571-2.644.947-1.224.51-2.026.846-2.492.991-.945.279-1.913.448-2.886.509-1.515 0-2.928-.437-4.294-1.349zm19.981-53.812c-1.983.99-3.866 1.41-5.752 1.27-.291-1.882 0-3.819.787-5.938.699-1.808 1.633-3.439 2.914-4.897 1.34-1.515 2.945-2.77 4.751-3.673 1.924-.991 3.76-1.516 5.509-1.603.234 1.983 0 3.935-.728 6.034-.664 1.865-1.655 3.586-2.914 5.132-1.268 1.515-2.842 2.77-4.567 3.675z"/></g></svg>