<?xml version="1.0" encoding="UTF-8" standalone="no"?><!-- Generator: Gravit.io --><svg xmlns="http://www.w3.org/2000/svg" xmlns:xlink="http://www.w3.org/1999/xlink" style="isolation:isolate" viewBox="0 0 100 100" width="100pt" height="100pt"><radialGradient id="_rgradient_17" fx="0.500135415121089" fy="0.5471450299242065" cx="0.5" cy="0.5" r="1" gradientTransform="matrix(70,0,0,64.702,15,16.649)" gradientUnits="userSpaceOnUse"><stop offset="0%" stop-opacity="1" style="stop-color:rgb(255,185,0)"/><stop offset="60%" stop-opacity="1" style="stop-color:rgb(249,93,143)"/><stop offset="99.9%" stop-opacity="1" style="stop-color:rgb(249,83,83)"/></radialGradient><path d=" M 69.777 50.903 C 61.368 50.903 54.552 57.718 54.552 66.126 C 54.552 74.534 61.368 81.351 69.777 81.351 C 78.184 81.351 85 74.534 85 66.126 C 85 57.718 78.184 50.903 69.777 50.903 L 69.777 50.903 Z  M 30.224 50.903 C 21.816 50.904 15 57.718 15 66.126 C 15 74.534 21.816 81.35 30.224 81.35 C 38.632 81.35 45.448 74.534 45.448 66.126 C 45.448 57.718 38.632 50.903 30.223 50.903 L 30.224 50.903 L 30.224 50.903 Z  M 65.224 31.873 C 65.224 40.28 58.408 47.098 50.001 47.098 C 41.592 47.098 34.776 40.28 34.776 31.873 C 34.776 23.465 41.592 16.649 50.001 16.649 C 58.408 16.649 65.223 23.465 65.223 31.873 L 65.224 31.873 Z " fill="url(#_rgradient_17)"/></svg>