<svg height="100pt" viewBox="0 0 100 100" width="100pt" xmlns="http://www.w3.org/2000/svg" xmlns:xlink="http://www.w3.org/1999/xlink"><radialGradient id="a" cx=".5" cy=".5" fx=".500135" fy=".547145" gradientTransform="matrix(70 0 0 64.702 15 16.649)" gradientUnits="userSpaceOnUse" r="1"><stop offset="0" stop-color="#ffb900"/><stop offset=".6" stop-color="#f95d8f"/><stop offset=".999" stop-color="#f95353"/></radialGradient><path d="m69.777 50.903c-8.409 0-15.225 6.815-15.225 15.223s6.816 15.225 15.225 15.225c8.407 0 15.223-6.817 15.223-15.225s-6.816-15.223-15.223-15.223zm-39.553 0c-8.408.001-15.224 6.815-15.224 15.223s6.816 15.224 15.224 15.224 15.224-6.816 15.224-15.224-6.816-15.223-15.225-15.223zm35-19.03c0 8.407-6.816 15.225-15.223 15.225-8.409 0-15.225-6.818-15.225-15.225 0-8.408 6.816-15.224 15.225-15.224 8.407 0 15.222 6.816 15.222 15.224z" fill="url(#a)"/></svg>