<svg fill="none" height="737" viewBox="0 0 737 737" width="737" xmlns="http://www.w3.org/2000/svg" xmlns:xlink="http://www.w3.org/1999/xlink"><linearGradient id="a" gradientUnits="userSpaceOnUse" x1="368.5" x2="368.5" y1="0" y2="737"><stop offset=".00225706" stop-color="#2b5355"/><stop offset="1"/></linearGradient><clipPath id="b"><rect height="737" rx="368.5" width="737"/></clipPath><g clip-path="url(#b)"><path d="m0 368.5c0-203.517 164.983-368.5 368.5-368.5 203.517 0 368.5 164.983 368.5 368.5 0 203.517-164.983 368.5-368.5 368.5-203.517 0-368.5-164.983-368.5-368.5z" fill="url(#a)"/><g stroke="#d6d6d6"><path d="m725.907 601.812h-511.402c-19.054 0-34.505-15.452-34.505-34.507v-403.798c0-19.054 15.451-34.507 34.505-34.507h511.402c19.054 0 34.506 15.453 34.506 34.507v403.798c0 19.055-15.452 34.507-34.506 34.507z" fill="#fff" stroke-width="4"/><path d="m236 363.114h573m-359.232-100.114h359.232m-573 150.171h536.998m-323.23-100.114h324.579m-538.347 151.019h573m-573 50.905h536.998" stroke-linecap="round" stroke-linejoin="round" stroke-width="5.5"/><path d="m789.056 163.507c0 1.429-.281 2.844-.828 4.165s-1.349 2.521-2.359 3.531c-1.011 1.011-2.211 1.813-3.532 2.36-1.32.547-2.736.828-4.165.828h-598.172s-.001-4.956 0-10.884c0-19.054 15.451-34.507 34.505-34.507h540.046c19.054 0 34.505 15.453 34.505 34.507z" fill="#d6d6d6" stroke-width="4"/></g><path d="m214.574 161.294c1.056.014 2.103-.182 3.082-.577.979-.394 1.87-.979 2.621-1.721.751-.741 1.347-1.624 1.754-2.598s.616-2.019.616-3.074-.209-2.1-.616-3.074-1.003-1.857-1.754-2.598c-.751-.742-1.642-1.327-2.621-1.721-.979-.395-2.026-.591-3.082-.578-2.096.027-4.097.879-5.57 2.371-1.473 1.491-2.299 3.503-2.299 5.6 0 2.096.826 4.108 2.299 5.6s3.474 2.343 5.57 2.37zm33.213 0c2.115 0 4.142-.84 5.637-2.335s2.335-3.522 2.335-5.636c0-2.115-.84-4.142-2.335-5.637s-3.522-2.335-5.637-2.335c-2.114 0-4.141.84-5.636 2.335s-2.335 3.522-2.335 5.637c0 2.114.84 4.141 2.335 5.636s3.522 2.335 5.636 2.335zm31.883 0c1.056.014 2.103-.182 3.082-.577.979-.394 1.87-.979 2.621-1.721.751-.741 1.347-1.624 1.754-2.598s.617-2.019.617-3.074-.21-2.1-.617-3.074-1.003-1.857-1.754-2.598c-.751-.742-1.642-1.327-2.621-1.721-.979-.395-2.026-.591-3.082-.578-2.096.027-4.097.879-5.57 2.371-1.473 1.491-2.299 3.503-2.299 5.6 0 2.096.826 4.108 2.299 5.6s3.474 2.343 5.57 2.37z" fill="#2b5355" fill-opacity=".5"/><path d="m387 262.667h-56.203m.467-46.667h-95.264zm-47.303 112v-112zm74.937 0v-65.333z" stroke="#d6d6d6" stroke-linecap="round" stroke-linejoin="round" stroke-width="8.28"/><path clip-rule="evenodd" d="m408.225 481.5c-57.288-20.852-86.829-84.191-65.98-141.472 20.85-57.282 84.192-86.816 141.48-65.965 57.288 20.852 86.828 84.191 65.98 141.474-9.814 26.963-29.044 47.778-52.625 60.084l11.756 36.185-32.7 10.624-11.637-35.817c-18.28 3.127-37.599 1.684-56.274-5.113zm-41.039-132.557c-15.809 43.436 6.59 91.466 50.031 107.276 43.441 15.812 91.473-6.582 107.282-50.019 15.809-43.435-6.59-91.464-50.031-107.275s-91.473 6.583-107.282 50.018z" fill="#2ccbd3" fill-rule="evenodd"/><path d="m417.217 456.219c-43.441-15.81-65.84-63.84-50.031-107.276 15.809-43.435 63.841-65.829 107.282-50.018s65.84 63.84 50.031 107.275c-15.809 43.437-63.841 65.831-107.282 50.019z" fill="#fff" fill-opacity=".5"/><path d="m505.498 500.523-35.013 11.377c-4.114 1.336-6.365 5.754-5.028 9.868l50.779 156.283c1.336 4.113 5.755 6.364 9.868 5.028l35.014-11.377c4.113-1.336 6.364-5.754 5.028-9.868l-50.78-156.283c-1.336-4.113-5.754-6.364-9.868-5.028z" fill="#2b5355"/><path clip-rule="evenodd" d="m683.149 634.981-12.161-19.067c-14.927-23.4-36.08-42.177-61.086-54.223l-49.873-24.026c-8.04-3.873-16.85-5.884-25.774-5.884h-10.584l4.023 13.349-56.673-13.842c-6.594-1.611-13.085 2.993-13.746 9.748-.192 1.962.14 3.939.96 5.73.821 1.792 2.101 3.334 3.712 4.47l15.666 11.048c-9.815 4.729-11.176 18.156-2.51 24.759l7.961 6.066c-7.557 4.671-7.995 15.502-.839 20.769l11.55 8.5c-.714 3.61-.206 7.356 1.444 10.646 1.649 3.29 4.347 5.937 7.668 7.525l12.347 5.904c1.83.874 3.733 1.584 5.687 2.122l57.106 15.701 63.728 42.724z" fill="#ffc8bc" fill-rule="evenodd"/></g></svg>