<svg fill="none" height="30" viewBox="0 0 30 30" width="30" xmlns="http://www.w3.org/2000/svg"><path d="m4.36749 13.051c4.857-.8 8.66201-4.81597 9.46201-9.66997l.268-2.335c.065-.372005-.185-.887005-.655-.851005-3.67001.285-7.13001 1.496005-9.06001 2.284005-.46722.19102-.86698.51681-1.14837.93586-.28138.41905-.43164.91238-.43163 1.41714v7.61497c0 .452.405.795.851.723l.714-.116zm11.80301-9.67297c.801 4.858 4.606 8.86997 9.463 9.66997l.714.116c.446.075.85-.27.85-.722v-7.61497c0-1.033-.624-1.96-1.579-2.353-1.927-.789-5.39-2.000004-9.06-2.285004-.47-.036-.714.484999-.658.850004l.268 2.336zm9.46 11.80297c-6.637 1.309-9.718 5.72-9.718 14.073 0 .42.416.708.764.476 3.052-2.058 9.769-7.43 10.462-14.153.027-.848-1.032-.45-1.508-.396zm-21.26001 0c6.63601 1.309 9.71701 5.72 9.71701 14.073 0 .42-.416.708-.764.476-3.052-2.058-9.76901-7.43-10.46201-14.153-.027-.848 1.033-.45 1.509-.396z" fill="#000"/></svg>