<svg fill="none" height="128" viewBox="0 0 128 128" width="128" xmlns="http://www.w3.org/2000/svg"><path d="m38.0891 77.4662-11.4 4.896 10.559 4.514 12.241-4.514zm-17.138 6.12-.382 22.0338 16.679 7.345v-22.8758zm34.276 0-15.073 5.7389v21.5749l15.073-6.121zm17.979-68.551-11.476 4.896 10.635 4.515 12.241-4.515zm-15.914 6.503v22.034l14.231 4.132.459-20.046zm31.828 1.224-13.466 5.738v21.652l13.466-6.121zm-69.814 23.285-11.39897 4.897 10.55797 4.514 12.241-4.514zm-17.13797 6.121-.382 22.034 16.67897 7.3449v-22.8759zm34.27497 0-15.071 5.738v21.574l15.071-6.12zm19.587-6.937-11.4 4.897 10.558 4.514 12.241-4.514zm-17.137 6.121-.383 22.035 16.679 7.345v-22.877zm34.275 0-15.072 5.738v21.576l15.072-6.121zm35.9079-36.317-11.3989 4.896 10.5589 4.515 12.241-4.515zm-17.1369 6.121-.382 22.034 16.6789 7.344v-22.876zm34.2749 0-15.071 5.738v21.575l15.071-6.12z" fill="#f7a80d"/></svg>