<svg fill="none" height="512" viewBox="0 0 512 512" width="512" xmlns="http://www.w3.org/2000/svg"><path d="m254.114 228.182v60.165l-6.557 5.282v-50.05h-12.343zm227.423-9.182c5.492 0 10.59.828 15.297 2.484 4.528 1.564 8.433 3.323 11.717 5.275l.573.347-6.799 12.943c-.62-.507-1.496-1.088-2.627-1.741l-.643-.364-.693-.378-.744-.393c-2.091-1.133-4.575-2.092-7.452-2.876-2.876-.872-5.839-1.308-8.89-1.308-8.193 0-12.29 2.31-12.29 6.93 0 2.701 1.482 4.619 4.445 5.752l.676.245.717.249.761.253.803.256.846.261.888.265c.152.045.305.089.46.134l.953.271.995.275 1.038.278 1.081.283 1.123.287 1.765.438 1.23.297c5.142 1.307 9.588 2.789 13.336 4.445 3.675 1.587 6.51 3.694 8.504 6.322l.255.346c2.092 2.702 3.138 6.275 3.138 10.72 0 5.404-1.395 9.762-4.184 13.075-2.702 3.224-6.275 5.578-10.72 7.06-4.446 1.394-9.239 2.091-14.382 2.091-5.927 0-11.81-.828-17.65-2.484-5.562-1.577-10.53-3.707-14.906-6.391l-.652-.407 7.06-13.728c1.133 1.133 3.007 2.397 5.622 3.791 2.702 1.395 5.84 2.572 9.413 3.53 3.574.959 7.365 1.439 11.375 1.439 8.018 0 12.028-2.136 12.028-6.407 0-2.876-1.874-4.924-5.622-6.144l-.901-.317-.947-.321-.991-.326-1.037-.332-1.082-.336-1.127-.342c-.192-.057-.385-.114-.58-.172l-1.195-.349-1.24-.354-1.286-.359-1.33-.364-2.08-.555-.716-.188c-7.496-1.917-13.074-4.358-16.735-7.321-3.574-3.051-5.361-7.409-5.361-13.075 0-5.055 1.264-9.282 3.792-12.681 2.615-3.4 6.101-5.971 10.459-7.714 4.445-1.743 9.283-2.615 14.512-2.615zm-121.245.131c5.531 0 10.581 1.007 15.146 3.022l.545.246c4.707 2.092 8.716 4.925 12.028 8.498 3.4 3.487 6.012 7.453 7.842 11.898 1.831 4.445 2.748 8.977 2.748 13.597 0 4.794-.958 9.413-2.876 13.859-1.917 4.358-4.622 8.28-8.109 11.766-3.399 3.399-7.449 6.101-12.156 8.106-4.706 2.005-9.849 3.007-15.427 3.007-5.753 0-10.982-1.002-15.689-3.007-4.707-2.092-8.762-4.881-12.162-8.367-3.399-3.574-6.014-7.583-7.844-12.028-1.828-4.446-2.746-9.022-2.746-13.728 0-4.794.959-9.414 2.877-13.859 1.83-4.243 4.378-8.01 7.638-11.3l.47-.467c3.487-3.486 7.581-6.232 12.287-8.236 4.707-2.005 9.849-3.007 15.428-3.007zm-315.4479.392 31.77 73.084h-16.7348l-7.3215-17.127h-28.3708l-7.3214 17.127h-16.8656l31.9008-73.084zm93.5809 0 20.134 25.887 20.134-25.887h17.127l-28.894 37 27.979 36.084h-17.127l-19.219-24.841-19.088 24.841h-17.389l28.109-36.084-29.024-37zm127.68-.335v48.905h12.689l-19.233 15.784v-60.133zm93.928 14.063c-4.794 0-8.893 1.133-12.292 3.399-3.313 2.266-5.84 5.142-7.583 8.629-1.744 3.486-2.615 7.104-2.615 10.852 0 3.922.918 7.67 2.748 11.243 1.828 3.487 4.399 6.319 7.711 8.498 3.399 2.179 7.452 3.269 12.159 3.269 4.794 0 8.847-1.133 12.159-3.399 3.315-2.354 5.84-5.274 7.583-8.76 1.743-3.574 2.617-7.234 2.617-10.982 0-3.922-.915-7.627-2.745-11.113-1.831-3.487-4.445-6.276-7.847-8.368-3.313-2.179-7.276-3.268-11.895-3.268zm-321.5952 5.491-10.7208 23.01h21.0493z" fill="#5a29e4"/></svg>