<svg fill="none" height="48" viewBox="0 0 47 48" width="47" xmlns="http://www.w3.org/2000/svg"><g clip-rule="evenodd" fill-rule="evenodd"><path d="m38.1072 22.1398c-.0527-.3493-1.071-1.6214-3.0549-3.8161 0-.4252.6624-1.0381 2.0959-1.8389l4.1227-3.4899c.9029-1.16 1.4401-3.02197 1.6115-5.58584l-.0594-.60307c-.1581-1.80922-1.4631-3.26252-3.9545-4.38957-1.4533-.98865-4.0732-1.512622-7.8498-1.591713-4.2042.557463-8.3143 1.678093-12.2196 3.331723-1.515 1.08164-3.093 2.07203-4.7257 2.96592v.31636c.1695-.02891.3311-.09288.4745-.18784.0395-.0106.0809-.01198.121-.00405.0401.00794.0779.02498.1104.04982.0324.02484.0588.05681.0769.09344.0182.03663.0277.07695.0278.11784l.3164-.17796h.1582v.1483c-.9995.97942-2.1074 1.8418-3.3021 2.57044l.178.2768h-.1384l-.3362-.1186c0 .089-.1483.1582-.4745.1878v.1681l.3658.4054c-.1695-.0015-.3373-.0351-.4943-.0989-.4421.0918-.8592.278-1.22264.5459-.36345.2679-.66473.6111-.8832 1.0063l.17795.2768c.30819-.3292.66493-.6092 1.05789-.8305v.4548c-.1677.0353-.32819.0988-.47459.1878l.37569.5735c.7152-.7567 1.5223-1.421 2.4024-1.9773.435.1087.6624.2471.6723.3954h.3361c2.1387-1.63371 4.5207-2.92145 7.0589-3.81612v.31636c-.435.65909-.7283.98864-.8799.98864.0106.21393.0904.41863.2274.5833.0395.39546-1.0183 3.06482-3.1735 8.00802-4.7982 11.4353-8.87144 19.9013-12.21964 25.3982.03077.1615.09844.3138.19773.4449.55229-.0904 1.0804-.2922 1.55217-.5932h.17795v.3163h.30648l.31636-.1779c0 .089.10876.1384.32626.1186v.3164c-.04085.5059-.21856.9912-.5141 1.4038-.49539.7205-.85706 1.5242-1.06773 2.3728v.1483h.30648c1.20408-1.3073 2.22208-2.7744 3.02524-4.3599 3.0686-.8186 6.0489-1.9379 8.8978-3.3416 1.6897-.0471 3.3248-.6094 4.6861-1.6115v-.1681l-.7711.2274h-.178v-.1681c1.1084-.0758 2.1828-.4147 3.134-.9886 2.9396-2.2673 5.1607-3.8722 6.6635-4.8147 3.0845-2.2673 5.0882-4.4752 6.0109-6.6239 0 0 .5942-1.204.6757-1.9017.0492-.4216-.2506-1.4399-.2506-1.4399zm-8.9076-5.3782c1.2561-.7261 2.4239-1.5953 3.48-2.5902l-.0198.0692c.0989 0 .435-.3856.9887-1.1469.6261-.0593 1.6147-1.1006 2.9659-3.12406l.0692-.91944h.3361c.0099.29659.1285.42512.3362.42512.409-.42488.6512-.98297.6821-1.57194-.0616-.34734-.2099-.67352-.4311-.9483-.2212-.27479-.5082-.48929-.8343-.62364h-.3362l.0692.76125h-.3065c-.1087-1.29512-1.5027-1.83887-4.172-1.61148-.346.02966-1.2556.15818-2.699.37568v-.435h-.4746c-1.4763.25045-2.1947.60966-2.1552 1.07762l-3.3614 7.56309c-.3361.2274-.6723 1.1765-.9886 2.8374-.4857.6307-.7592 1.3991-.781 2.1948v.2867c.22-.02.4414.0175.6426.1087 4.0237-1.74 6.3668-2.6693 6.9897-2.7286zm.9688 10.8256-4.0633 3.223c-1.5556 1.1032-3.1876 2.0943-4.8839 2.9659-4.8114 2.6364-7.8003 4.0106-8.9669 4.1226h-.178c.145-.5404 2.2871-4.9267 6.4262-13.1588 2.9678-.4776 5.8619-1.3349 8.611-2.5507l.9887-.0791c.7782-.1389 1.5771-.1094 2.3429.0868.7657.1961 1.4805.5542 2.0961 1.0502l.0593.6031c-.7316 2.1058-1.5423 3.3416-2.4123 3.7074zm10.2522-22.90679.1286-.30648c-.0857-.9491-1.6313-1.47308-4.6368-1.57194zm.5735 3.13399c-.1582 0-.4746-.47455-.9195-1.43353v-.28671c.2966 0 .6031.45478.9195 1.43353zm-6.9106 11.399c.2418.016.473.1057.6623.2571l.0396.0197c.0425.0031.0852-.0041.1243-.0208.0392-.0168.0738-.0428.1009-.0757s.046-.0718.0549-.1135c.009-.0417.0079-.0849-.0033-.1261l-.6723-.3954h-.3064zm-2.699 2.353h.4745c.4449.2076.6723.3955.6921.5635v.1483c-.2404-.0035-.4753-.0714-.6805-.1966s-.3731-.3031-.4861-.5152zm6.001.8008c-.0296-.1186-.2076-.2472-.5042-.3658l-.0099-.0692.0593.613.2175-.178zm-.3065.9095v-.1186l.3856-.089v.1187zm-16.6882 14.4045c1.4797-1.0683 3.0708-1.9733 4.7455-2.6989l-.0099.0692c.9095-.6624 1.3544-1.048 1.3544-1.1864v-.2867c-5.2991 3.157-8.532 4.8476-9.6986 5.0717.0099.0692-.2966.2966-.9095.6822-.2076.0197-.3362-.0593-.3362-.2571.0989-.4251.5537-.6722 1.3743-.7415v-.1482h-.4746c-.9704.3215-1.8995.7562-2.7682 1.2951l.9887-.0791v.3163c-.8601.1857-1.6984.4608-2.5013.8206-.4075-.1772-.8521-.2519-1.2951-.2175-.2279.1244-.4152.3117-.5397.5396-.1244.2279-.1807.4867-.1623.7457.2588.1385.5469.2131.8404.2175 1.6575-.8579 3.3643-1.6171 5.1113-2.2739-.0264-.2307 1.4005-.8535 4.2808-1.8686zm-3.3812-.0296c.7479-.0599 1.4495-.3862 1.9773-.9194.2175 0 .3361.0692.346.257-.7722.2052-1.5043.5394-2.1651.9886h-.1582v-.3064zm-5.0322 1.5423h-.4745l-.0297.0197c-.1977.0594-.2768.178-.2768.3362h.3065c.1434-.095.305-.159.4745-.1879zm-4.15226 3.3218c-.30601-.1536-.64667-.2252-.98864-.2076v-.4548c0-.1779.07909-.2966.30648-.3361.22739-.0396.32625.1285.33614.4251.25996-.3578.5547-.6889.87989-.9887l.33614.1385c-.10875.9194-.39546 1.3939-.85023 1.4236zm3.95456-7.4346v-.1483c-.1845.0462-.2768.1582-.2768.3362v.1483c.0425.003.0852-.0041.1244-.0209.0391-.0168.0737-.0428.1008-.0757s.046-.0718.0549-.1135c.009-.0417.0079-.0849-.0033-.1261zm.3361-.6327c.2268-.0197.4436-.58.6507-1.5631-.2144.1625-.386.3751-.4995.6192-.1157.2485-.1676.522-.1512.7956zm10.796-11.3892-.6525.0594v.1483l.6525-.0594zm-1.4137-2.2936-.6328.0593v-.2867l.6328-.0593zm-3.5603-2.5309-.0878.7415h-.1582l-.0692-.7415zm.6932-1.4237h-.1758c.0119.0575.0109.1169-.003.174-.0148.0604-.0435.1165-.084.1636-.0404.0472-.0914.0842-.1488.108s-.1196.0337-.1816.029v.1483h.3065l.2867-.4746zm.6228-1.5719h-.3064v.0198c-.0149.2739-.1075.538-.267.7612h.1582c.2472-.0198.4152-.2867.4152-.781zm.3955-1.1271.0593.6031h-.1582l-.0296-.6228zm1.4928-3.1537h-.1581l-.0099.0099c.0197.1779-.1286.4449-.4153.781v.3164c.2472-.4252.435-.6525.5833-.6525z" fill="#000"/><path d="m37.6128 21.6454c-.0527-.3493-1.071-1.6213-3.0549-3.8161 0-.4251.6624-1.0381 2.096-1.8389l4.1226-3.4899c.903-1.16 1.4401-3.02195 1.6115-5.58583l-.0593-.60307c-.1582-1.80921-1.4632-3.26252-3.9546-4.38957-1.4533-.98864-4.0732-1.512616-7.8498-1.591708-4.2042.557463-8.3143 1.678088-12.2196 3.331718-1.5149 1.08164-3.093 2.07204-4.7257 2.96593v.31636c.1695-.02891.3311-.09289.4745-.18784.0395-.0106.0809-.01199.121-.00405.0401.00793.0779.02497.1104.04981s.0588.05681.077.09344c.0181.03664.0276.07695.0278.11784l.3163-.17795h.1582v.1483c-.9995.97941-2.1073 1.84179-3.3021 2.57046l.178.27682h-.1384l-.3361-.11864c0 .08898-.1483.15819-.4746.18785v.16803l.3658.4054c-.1695-.0015-.3373-.0351-.4943-.0989-.4421.0918-.85917.278-1.22262.5459-.36346.2679-.66473.6111-.88321 1.0063l.17796.2768c.30818-.3292.66493-.6092 1.05785-.8305v.4548c-.16768.0353-.32815.0988-.47455.1879l.37568.5734c.71519-.7567 1.52229-1.421 2.40239-1.9773.435.1087.6624.2471.6723.3954h.3361c2.1387-1.6337 4.5207-2.92144 7.0589-3.81611v.31637c-.435.65909-.7283.98864-.8799.98864.0106.21393.0904.41863.2274.58329.0396.39546-1.0183 3.06481-3.1735 8.00801-4.7982 11.4353-8.87143 19.9013-12.21962 25.3982.03077.1615.09843.3138.19772.4449.55229-.0904 1.08041-.2922 1.55217-.5932h.17796v.3163h.30647l.31637-.1779c0 .089.10875.1384.32625.1186v.3164c-.04085.5059-.21856.9912-.51409 1.4039-.49539.7204-.85707 1.5241-1.06773 2.3727v.1483h.30647c1.20408-1.3073 2.22209-2.7744 3.02525-4.3599 3.06858-.8186 6.04898-1.9379 8.89778-3.3416 1.6898-.0471 3.3248-.6094 4.6861-1.6115v-.1681l-.7711.2274h-.178v-.1681c1.1084-.0758 2.1828-.4147 3.134-.9886 2.9396-2.2673 5.1608-3.8722 6.6635-4.8147 3.0845-2.2673 5.0882-4.4752 6.0109-6.6239 0 0 .5942-1.204.6757-1.9017.0492-.4216-.2506-1.4399-.2506-1.4399zm-8.9076-5.3782c1.2561-.7261 2.4239-1.5953 3.48-2.5902l-.0198.0692c.0989 0 .435-.3856.9887-1.1468.6261-.0594 1.6147-1.1007 2.9659-3.12415l.0692-.91943h.3361c.0099.29659.1286.42511.3362.42511.409-.42488.6512-.98297.6821-1.57194-.0616-.34734-.2098-.67351-.4311-.9483-.2212-.27478-.5082-.48928-.8343-.62364h-.3362l.0692.76125h-.3064c-.1088-1.29512-1.5028-1.83887-4.1721-1.61148-.346.02966-1.2556.15818-2.699.37568v-.435h-.4745c-1.4764.25046-2.1948.60966-2.1553 1.07762l-3.3614 7.56308c-.3361.2274-.6722 1.1765-.9886 2.8374-.4857.6307-.7591 1.3991-.781 2.1948v.2867c.22-.02.4414.0175.6426.1088 4.0238-1.74 6.3668-2.6694 6.9897-2.7287zm.9688 10.8256-4.0633 3.223c-1.5556 1.1032-3.1876 2.0943-4.8839 2.9659-4.8113 2.6364-7.8003 4.0106-8.9669 4.1227h-.178c.145-.5405 2.2871-4.9268 6.4262-13.1589 2.9678-.4776 5.8619-1.3349 8.611-2.5506l.9887-.0791c.7782-.139 1.5771-.1094 2.3429.0867.7657.1961 1.4805.5542 2.0961 1.0502l.0593.6031c-.7316 2.1058-1.5423 3.3416-2.4123 3.7074zm10.2523-22.90678.1285-.30648c-.0857-.9491-1.6313-1.47307-4.6367-1.57194zm.5734 3.13399c-.1582 0-.4746-.47454-.9195-1.43353v-.2867c.2966 0 .6031.45477.9195 1.43353zm-6.9106 11.39899c.2418.016.473.1058.6624.2571l.0395.0198c.0425.003.0852-.0041.1244-.0209s.0738-.0428.1009-.0757.0459-.0718.0549-.1135c.0089-.0417.0078-.0849-.0034-.1261l-.6723-.3954h-.3064zm-2.699 2.353h.4745c.4449.2076.6723.3955.6921.5635v.1483c-.2404-.0035-.4753-.0714-.6805-.1966s-.373-.3031-.4861-.5152zm6.001.8008c-.0296-.1186-.2076-.2471-.5042-.3658l-.0099-.0692.0594.613.2175-.178zm-.3064.9096v-.1187l.3855-.089v.1187zm-16.6883 14.4045c1.4797-1.0684 3.0708-1.9734 4.7455-2.699l-.0099.0692c.9095-.6624 1.3544-1.048 1.3544-1.1864v-.2867c-5.2991 3.1571-8.532 4.8476-9.6986 5.0717.0099.0692-.2965.2966-.9095.6822-.2076.0198-.3361-.0593-.3361-.2571.0988-.4251.5536-.6722 1.3742-.7414v-.1483h-.4746c-.9703.3215-1.8995.7562-2.7682 1.2951l.9887-.0791v.3164c-.8601.1856-1.6984.4607-2.5013.8205-.4074-.1772-.8521-.2519-1.2951-.2175-.2279.1245-.41521.3117-.53965.5396-.12445.2279-.18078.4867-.1623.7457.25875.1385.54685.2131.84035.2175 1.6576-.8578 3.3643-1.6171 5.1113-2.2739-.0264-.2307 1.4005-.8535 4.2808-1.8685zm-3.3812-.0297c.7479-.0599 1.4495-.3861 1.9773-.9194.2175 0 .3362.0692.346.257-.7722.2052-1.5043.5394-2.1651.9887h-.1582v-.3065zm-5.0321 1.5423h-.4746l-.0297.0198c-.1977.0593-.2768.1779-.2768.3361h.3065c.1434-.095.305-.1589.4746-.1879zm-4.15234 3.3218c-.30601-.1536-.64668-.2252-.98864-.2076v-.4548c0-.1779.07909-.2966.30648-.3361.22738-.0396.32625.1285.33613.4251.25997-.3578.5547-.6889.8799-.9886l.33613.1384c-.10875.9194-.39545 1.394-.85023 1.4236zm3.95454-7.4346v-.1483c-.1845.0462-.2768.1582-.2768.3362v.1483c.0425.003.0852-.0041.1244-.0209s.0738-.0428.1009-.0757.0459-.0718.0549-.1135c.0089-.0417.0078-.0849-.0034-.1261zm.3362-.6327c.2267-.0197.4436-.5799.6506-1.5631-.2144.1625-.3859.3751-.4995.6192-.1157.2485-.1676.522-.1511.7956zm10.7959-11.3891-.6525.0593v.1483l.6525-.0593zm-1.4137-2.2937-.6328.0593v-.2867l.6328-.0593zm-3.5603-2.5309-.0878.7415h-.1582l-.0692-.7415zm.6932-1.4237h-.1758c.0119.0575.0109.1169-.003.174-.0147.0604-.0435.1165-.0839.1637-.0405.0471-.0915.0841-.1489.1079s-.1196.0337-.1816.029v.1483h.3065l.2867-.4746zm.6229-1.5719h-.3065v.0198c-.0148.2739-.1074.538-.267.7612h.1582c.2472-.0197.4153-.2867.4153-.781zm.3954-1.127.0593.603h-.1582l-.0296-.6228zm1.4929-3.1538h-.1582l-.0099.0099c.0198.1779-.1285.4449-.4152.781v.3164c.2471-.4251.435-.6525.5833-.6525z" fill="#f9dc3e"/></g></svg>