<svg height="100pt" viewBox="0 0 100 100" width="100pt" xmlns="http://www.w3.org/2000/svg"><path d="m0 0h100v100h-100z" fill="#fff"/><path d="m0 0v100h100v-100zm74.221 70.23c-.834 2.01-2.153 3.779-3.847 5.141-1.75 1.416-3.966 2.585-6.697 3.416-2.725.847-5.966 1.272-9.722 1.272h-26.801v-58.336h28.341c5.241 0 9.441 1.178 12.585 3.584 3.166 2.416 4.741 6.016 4.741 10.875 0 2.938-.716 5.46-2.159 7.541-1.435 2.072-3.501 3.691-6.166 4.816v.191c3.559.75 6.312 2.437 8.125 5.062s2.741 5.941 2.741 9.947c0 2.241-.435 4.376-1.25 6.366zm-11.569-14.375c-1.709-1.563-4.11-2.325-7.21-2.325h-18.01v18.2h18.06c3.085 0 5.501-.8 7.21-2.415 1.709-1.604 2.584-3.891 2.584-6.835-.028-2.875-.875-5.1-2.584-6.625zm-2.5-11.763c1.65-1.4 2.459-3.403 2.459-6.016 0-2.934-.728-5.016-2.209-6.209-1.466-1.188-3.585-1.804-6.366-1.804h-16.666v16.098h16.666c2.428 0 4.5-.71 6.116-2.066z" fill="#563d7c"/></svg>