<svg fill="none" height="128" viewBox="0 0 128 128" width="128" xmlns="http://www.w3.org/2000/svg" xmlns:xlink="http://www.w3.org/1999/xlink"><filter id="a" color-interpolation-filters="sRGB" filterUnits="userSpaceOnUse" height="61.4148" width="48.6409" x="41.1427" y="35.3568"><feFlood flood-opacity="0" result="BackgroundImageFix"/><feColorMatrix in="SourceAlpha" result="hardAlpha" type="matrix" values="0 0 0 0 0 0 0 0 0 0 0 0 0 0 0 0 0 0 127 0"/><feOffset dy=".98264"/><feGaussianBlur stdDeviation="1.96528"/><feColorMatrix type="matrix" values="0 0 0 0 0 0 0 0 0 0 0 0 0 0 0 0 0 0 0.15 0"/><feBlend in2="BackgroundImageFix" mode="normal" result="effect1_dropShadow_3_6758"/><feBlend in="SourceGraphic" in2="effect1_dropShadow_3_6758" mode="normal" result="shape"/></filter><linearGradient id="b" gradientUnits="userSpaceOnUse" x1="19.7995" x2="129.708" y1="17.2659" y2="104.513"><stop offset="0" stop-color="#9013fe"/><stop offset="1" stop-color="#6610f2"/></linearGradient><linearGradient id="c" gradientUnits="userSpaceOnUse" x1="49.0315" x2="73.5975" y1="41.9358" y2="83.4842"><stop offset="0" stop-color="#fff"/><stop offset="1" stop-color="#f1e5fc"/></linearGradient><path d="m14.9849 27.7123c-.237-6.815 5.072-13.099 12.249-13.099h73.5401c7.177 0 12.486 6.284 12.249 13.099-.228 6.546.068 15.026 2.202 21.94 2.141 6.936 5.751 11.319 11.664 11.883v6.387c-5.913.564-9.523 4.947-11.664 11.883-2.134 6.914-2.43 15.394-2.202 21.9397.237 6.815-5.072 13.098-12.249 13.098h-73.5401c-7.177 0-12.486-6.284-12.249-13.098.228-6.5457-.068-15.0257-2.203-21.9397-2.14-6.935-5.76001-11.319-11.67301-11.883v-6.387c5.913-.563 9.53301-4.947 11.67301-11.883 2.135-6.914 2.43-15.394 2.203-21.94z" fill="url(#b)"/><g filter="url(#a)"><path d="m67.1097 91.736c11.6189 0 18.6205-5.689 18.6205-15.0725 0-7.093-4.9958-12.228-12.4137-13.0409v-.2955c5.45-.8866 9.7267-5.9477 9.7267-11.5998 0-8.0535-6.3582-13.2996-16.047-13.2996h-21.7999v53.3083zm-13.4357-46.5477h11.2785c6.1312 0 9.6129 2.7337 9.6129 7.684 0 5.2829-4.0494 8.2382-11.3917 8.2382h-9.4997zm0 39.7871v-17.5477h11.2026c8.0235 0 12.1867 2.9552 12.1867 8.7184 0 5.763-4.0495 8.8293-11.6946 8.8293z" fill="url(#c)"/><path d="m67.1097 91.736c11.6189 0 18.6205-5.689 18.6205-15.0725 0-7.093-4.9958-12.228-12.4137-13.0409v-.2955c5.45-.8866 9.7267-5.9477 9.7267-11.5998 0-8.0535-6.3582-13.2996-16.047-13.2996h-21.7999v53.3083zm-13.4357-46.5477h11.2785c6.1312 0 9.6129 2.7337 9.6129 7.684 0 5.2829-4.0494 8.2382-11.3917 8.2382h-9.4997zm0 39.7871v-17.5477h11.2026c8.0235 0 12.1867 2.9552 12.1867 8.7184 0 5.763-4.0495 8.8293-11.6946 8.8293z" stroke="#fff" stroke-width=".24566"/></g></svg>