<svg height="100pt" viewBox="0 0 100 100" width="100pt" xmlns="http://www.w3.org/2000/svg"><path d="m0 0h100v100h-100z" fill="#20262a"/><path d="m45.223 17.498c-1.214.023-2.733.78-3.819.518-.434-.104-.964-.149-1.483-.121-.009 0-.018-.001-.027 0-.528.031-1.043.142-1.422.375-.016.009-.034.018-.05.027-.014.022-.031.042-.049.061-.505.504-1.62.55-2.139 1.069-.423.424-.816 1.235-1.284 1.962-.004.007-.006.015-.011.022-1.663 1.94-2.991 4.326-3.461 6.277-.386 1.603-.38 3.767-1.014 5.362-.177.446-.911 2.915-.341 3.395.388.327 2.043.578 2.529 0 .262-.311 2.661-1.087 3.411-1.978.884-1.05 1.34-2.862 1.946-4.387.096-.243.22-.5.364-.755.343.665.616 1.209.76 1.543.3.695.63 1.656.904 2.684-.594.909-.346 2.154.083 2.722-1.736.541-.909 2.408-.976 2.475-.114.114-.476.267-.623.413-.181.181-.209.559-.209.832 0 .264.033.499.083.706-1.58 3.973-3.071 8.947-4.955 11.628-.542.248-1.097.46-1.747.59-1.266.317-4.467.944-7.164 1.852-.125.163-.262.318-.408.463-.267.267-.802.267-1.07.534-.207.208-.855-.026-1.063.182-.617.617-1.527.937-2.496 1.422-.108.054-.453-.082-.535 0-.44.44-1.229.694-1.604 1.069-.733.733-1.347 1.53-2.138 2.32-.786.786.817 2.95 1.069 3.202.743.743 2.107.861 2.849 1.604.313.312 1.36-.105 1.736.143.097.014.184.031.243.061 1.094.547 3.24.951 4.535 1.383 1.786.595 3.202 2.185 5.043 2.645 1.402.351 2.994.537 4.409 1.009.592.197 1.31.062 1.885.253 1.075.359 2.046.804 3.025 1.13.34.113.788-.087 1.135 0 .783.196 1.629.252 2.392.507 1.361.454 3.176-.453 4.536 0 .897.299 6.479-.179 6.928-.628.33-.33 1.585.089 2.017-.127.375-.187 1.513-.003 1.763-.253.646-.646 1.971-.674 2.894-1.135.388-.194.986.074 1.389-.127.231-.116.701.026 1.212.248.971-.021 1.718-.122 2.689-.122 1.155 0 2.748-.548 4.437-1.377 1.869-.421 4.153-.907 4.26-1.014.812-.812 2.97-.579 3.775-1.384.57-.57 1.303-.801 1.89-1.388.523-.524 1.242-1.122 1.995-1.753.132-.366.467-.71.777-1.019.13-.131 1.048-2.816.882-3.147-.303-.608-.805-1.11-1.383-1.577-.18-.061-.317-.124-.38-.187-.618-.617-2.097-.713-2.646-1.262-.883-.884-2.212-1.678-3.797-2.21-.332-.164-.643-.34-.865-.562-.283-.282-1.914-.643-2.392-.882-.257-.129-.817.071-1.009-.121-.465-.465-2.415-.797-3.824-1.246-.206.013-.535-.143-.595-.203-.043-.043-1.135-.204-1.494-.563-.041-.041-.187-1.504-.187-1.686 0-.067-.164-.338-.067-.435.015-.015.031-.033.045-.05-.652-4.018-1.151-8.456-1.621-8.851-.697-.587-1.084-3.829-1.851-4.475-.802-.675-1.304-1.414-1.924-1.989 0-.002.001-.004 0-.006-.233-1.281-.676-2.72-.815-2.838-.228-.191.117-1.06-.111-1.251-.707-.596-1.629-4.098-2.292-4.657-.869-.732-1.297-1.868-2.122-2.563-2.039-1.717-5.426-4.272-9.171-4.078-.158-.045-.315-.098-.468-.16-.238-.094-.508-.126-.788-.121z" fill="#3c6991"/><g fill="#e6b35a"><path d="m44.415 39.735c-.315-.057-.623-.06-.864.02-.401.133-1.049-.183-1.469-.107-1.586.287-2.829.716-3.043 1.249 2.354-.675 4.967.832 6.037 2.263.446.595-.241 1.497.002 2.226.054.166.098 1.224-.092 1.367-.399.297-.359 1.337-.688 1.812-.776 1.116-1.452 1.932-2.11 2.881-.679.978-2.495 1.174-3.508 1.51-.224.074-.506-.08-.742-.002-.056.019-.121.022-.186.013.023.026.049.05.068.075.086.115.502.006.624.09.788.547 3.904.337 4.768.051.537-.179 1.036-.442 1.573-.621.69-.229 1.368-1.301 1.863-1.853 1.703-1.898 2.481-5.186 1.639-7.723-.423-1.276-1.531-2.04-2.475-2.695-.322-.224-.873-.462-1.397-.556zm3.798-2.451c-.102-.003-.116.99-.124 1.463-.048.003-.045.062-.033.13-.511.227-1.626.683-1.54.774.004.002.004.004.006.006-.04.002-.082.016-.084.071-.004.074.147.005.221.007.118.004 1.155.386 1.566.559.051.392.202.625.202 1.073 0 .278.055.663.071.663.007 0 .018-.009.026-.013.012.048.026.076.046.058.081-.076.227-.279.377-.507.006-.01.013-.016.019-.026.263-.325.563-.742.819-1.118.497.072.952.13 1.066.13.055 0 1.943.325 1.398-.221-.033-.033-.072-.061-.111-.091.013-.01.019-.019.02-.032.004-.106-1.05-.59-1.222-.774-.083-.089-.203-.145-.286-.234-.022-.023.019-.088.084-.182v-.006c.147-.162.303-.329.416-.443.054-.054.359-.625.07-.587-.195.025-.833.066-1.669.31 0 0-.225-.295-.227-.294-.181-.074-.695-.702-1.112-.716z"/><path d="m43.495 37.137c-.06.029-.151.147-.18.087s.24-.116.18-.087c-.179.087-.874.712-.618.91.211.162.991-.142 1.322-.026.05.017.6.861.686.615.141-.402-.033-1.086-.029-1.099.065-.185.573-.109.697-.169.103-.049.311-.137.339-.219.008-.022.014-.088.024-.067.008.018-.136-.122-.311-.183-.263-.092-.528-.035-.716-.1-.086-.031.018-.54-.014-.606-.103-.213-.168-.465-.15-.427.051.106-.222.104-.294.197-.09.116-.326.511-.478.509-.183-.003-.914-.177-.963-.037-.004.008.456.463.505.702zm7.068 7.094c-.048-.045-.192-.087-.146-.136.045-.049.195.182.147.136-.147-.135-.982-.554-1.073-.244-.075.256.493.872.506 1.222.004.053-.583.873-.322.863.425-.016.999-.427 1.012-.427.196-.008.31.493.411.587.084.077.241.239.328.236.024-.001.087-.02.071-.003-.013.014.065-.171.057-.356-.01-.278-.16-.504-.167-.703-.004-.092.509-.181.558-.234.162-.174.372-.326.344-.296-.081.086-.178-.169-.291-.202-.141-.041-.594-.117-.648-.259-.064-.171-.168-.916-.317-.91-.009 0-.265.593-.469.726z"/><path d="m66.639 50.824c-.142.49-1.035 2.06-1.411 2.436-.483.483-.899.987-1.322 1.411-.301.3-1.158 1.069-1.411 1.322-.551.551-.875.345-1.499.97-.31.31-.933.316-1.235.617-.272.273-2.461.437-2.998.706-.13.065-.518-.099-.617 0-.386.386-3.436.526-3.527.617-.467.467-1.711-.071-2.381.265-.595.297-1.775.088-2.469.088-.385 0-1.406-.008-2.458-.033-.248-.036-.444-.063-.452-.055-.005.005-.029.029-.044.043-.197-.006-.388-.014-.578-.021-.119-.046-.245-.074-.348-.022-.004.002-.011.003-.016.005-.821-.04-1.491-.098-1.659-.182-.69-.345-1.431-.441-2.293-.441-1.348 0-4.334-1.594-5.379-2.116-.16-.08-.603-.545-.843-.673-.002-.092-.005-.176-.038-.209-.246-.246-.354-.795-.529-1.146-.074-.146 0-.683 0-.617 0 .003.177-.706.176-.706-.151 0-.941 1.03-1.235 1.323-.002.003.006.019.011.033-.165.227-.28.567-.28 1.08 0 1.748.963 1.84 1.868 2.745.222.222.697.074.87.248.177.177.437.334.744.474-.383.225-1.124.281-1.366.523-.238.237-1.338.92-1.747 1.124-.077.039-.45.081-.496.127-2.33 2.33-4.959 3.834-7.11 5.985-.181.181-.248 2.547-.248 2.993 0 .779-.264 1.604.248 2.116.216.216.934.063 1.125.254.041.041.562.429.622.369.228-.228-.126-1.417-.126-1.742 0-1.702.183-3.424 1.251-4.491 2.058-2.058 4.992-2.997 6.855-4.861.548-.548 1.552-.84 2.282-1.438-.026.175.004.341.132.479.085.092.389-.09.496-.033.732.388 2.964 1.221 3.621.419.119.226.214.456.331.573.437.437.095 2.548-.127 2.993-.838 1.676-1.28 6.515-1.995 7.23-.124.123.148 1.299.248 1.499.26.52-.19 1.678 0 1.868.187.187.066.684.254.871.17.17.948-.044 1.118.127.068.067.955.671 1.124.502.141-.141-.384-1.762-.501-1.996-.1-.201.271-3.891.375-3.995.145-.145-.146-.725 0-.871.283-.283.622-6.153.622-6.982 0-.14.358-1.015.127-1.246-.001-.001-.206-.473-.485-.931.412.03.758.08.86.181.183.184 3.873 0 4.486 0 2.436 0 6.269-.188 7.732-.501.583-.125 1.967-.234 2.745-.623.451-.226 2.042-.38 2.32-.452.594-.153 2.503-.612 3.036-1.146.396-.396 1.751-1.768 2.249-2.017.562-.281.844-1.279 1.174-1.742.042-.342.963-1.236.782-1.598-.205-.835-.333-1.698-.661-1.73z"/></g></svg>