<svg height="100pt" viewBox="0 0 100 100" width="100pt" xmlns="http://www.w3.org/2000/svg"><path d="m0 0h100v100h-100z" fill="#fff"/><path d="m86.715 50.313c-12.582.247-9.961 8.212-18.829 10.226-9.008 2.046-10.43-22-19.435-22-9.007 0-11.002 23.358-22.28 39.394l-.321.454 24.179 13.957 36.686-21.178z" fill="#36a2eb"/><path d="m86.715 49.588c-4.212-5.406-7.069-11.62-13.215-11.62-10.878 0-8.016 17.744-20.037 17.744-12.022 0-13.286-19.087-26.905-1.145-4.34 5.717-7.833 12.091-10.577 18.123l34.048 19.655 36.686-21.179z" fill="#ffce56"/><path d="m13.341 56.938c4.128-11.431 5.909-20.688 13.789-20.688 12.022 0 14.883 33.772 25.189 30.336 10.303-3.434 9.158-21.751 25.188-21.751 3.051 0 6.166 1.869 9.208 4.892v21.439l-36.686 21.178-36.687-21.178v-14.228z" fill="#fe6184" opacity=".8"/><path d="m0 100v-100h100v100zm15.603-30.143 34.397 19.857 34.397-19.857v-39.713l-34.397-19.857-34.397 19.857z" fill="#e7e9ed"/></svg>