<svg width="160" height="160" viewBox="0 0 160 160" fill="none" xmlns="http://www.w3.org/2000/svg">
<path d="M145.271 80.556C122.903 80.995 127.562 95.155 111.798 98.736C95.7839 102.374 93.2559 59.625 77.2459 59.625C61.2339 59.625 57.6869 101.151 37.6379 129.659L37.0659 130.466L80.0509 155.279L145.271 117.628V80.556Z" fill="#36A2EB"/>
<path d="M145.271 79.2669C137.783 69.6569 132.704 58.6089 121.777 58.6089C102.44 58.6089 107.528 90.1539 86.157 90.1539C64.784 90.1539 62.537 56.2229 38.325 88.1189C30.61 98.2819 24.4 109.614 19.522 120.337L80.051 155.28L145.271 117.629V79.2669Z" fill="#FFCE56"/>
<path opacity="0.8" d="M14.8291 92.3339C22.1671 72.0129 25.3341 55.5549 39.3431 55.5549C60.7141 55.5549 65.8011 115.594 84.1221 109.486C102.44 103.381 100.404 70.8169 128.901 70.8169C134.325 70.8169 139.863 74.1399 145.272 79.5149V117.628L80.0521 155.279L14.8301 117.628L14.8291 92.3339Z" fill="#FE6184"/>
<path d="M80 160L10.708 120.001V40L80 0L149.292 40V120L80 160ZM18.849 115.301L80 150.602L141.151 115.301V44.7L80 9.399L18.849 44.7V115.301Z" fill="#E7E9ED"/>
</svg>
