<svg height="500" viewBox="0 0 500 500" width="500" xmlns="http://www.w3.org/2000/svg"><g fill="none"><rect fill="#3448c5" height="500" rx="20" width="500"/><g fill="#fff" transform="translate(73 134)"><path d="m287.952519 82.7733795c-15.606928-49.002186-60.910396-82.40080261-112.275125-82.7733795-43.14225-.24578716-82.8895364 23.3983726-103.3060532 61.4547985-37.7898805 6.7812182-66.8076918 37.3440319-71.66242481 75.4779645-4.85473302 38.133932 15.57776721 75.008746 50.46012911 91.066088l2.2055093 1.001149h.1470339v-25.028721c-23.90505-14.693471-35.82371-42.989133-29.6481277-70.386554 6.1755823-27.39742 29.0765472-47.8237742 56.9670357-50.8113455l6.1754259-.6478022 2.7054247-5.5652097c15.6829841-33.280364 49.2056291-54.4448101 85.9560471-54.2681557 44.132422.3117667 82.387224 30.6645633 92.778423 73.6138846l2.117289 8.4214285h8.822037c29.577272.607288 53.267785 24.734195 53.373324 54.356492 0 20.759116-11.968564 37.7492-32.347469 46.347302v23.733117l1.470339-.471129c32.759164-10.747627 53.108663-37.425299 53.108663-69.60929-.27874-38.519578-28.901101-70.9255929-67.047481-75.9106375z"/><path d="m132.866923 225.474835 4.859568 4.879177c.268257.276966.347234.687362.201048 1.044729-.146185.357367-.489657.593556-.874362.601259h-38.3495972c-9.7007165 0-17.564701-7.895719-17.564701-17.635582v-74.774869c0-.535692-.4325192-.969957-.9660586-.969957h-8.1968605c-.3900213.004004-.7441789-.22787-.8978238-.587821-.153645-.359952-.0766318-.777358.1952358-1.058166l32.5532463-32.684613c.18155-.184896.429352-.288992.68795-.288992s.506401.104096.687951.288992l32.523972 32.684613c.268257.276966.347234.687361.201048 1.044728-.146185.357367-.489657.593557-.874362.601259h-8.313958c-.538475-.000234-.979496.429543-.995334.969957v73.481593c.011804 4.651085 1.853109 9.109179 5.123038 12.403693zm71.970864.004208 4.888841 4.875993c.271868.280624.348881.697758.195236 1.057475s-.507802.591439-.897824.587489h-38.261773c-9.700717 0-17.564701-7.890616-17.564701-17.624122v-55.838932c.000232-.540295-.427817-.982806-.966059-.998697h-8.284684c-.384705-.007698-.728177-.243733-.874362-.600867-.146186-.357134-.067209-.767261.201048-1.044047l32.523972-32.604531c.18155-.184776.429353-.288804.687951-.288804s.5064.104028.68795.288804l32.553246 32.545784c.271868.280625.348881.697759.195236 1.057476-.153645.359716-.507802.591439-.897824.587438h-8.313958c-.538242.015891-.966292.458402-.966059.998697v54.605247c.004021 4.643858 1.834564 9.098458 5.093764 12.395597zm72.004113-.051468 4.855269 4.914516c.268021.278972.346928.69234.200871 1.052295-.146056.359956-.489224.597856-.873589.605614h-38.344924c-9.692136 0-17.549164-7.952905-17.549164-17.76331v-37.391768c0-.539573-.432137-.976983-.965204-.976983h-8.18961c-.397352.004297-.756697-.238343-.905393-.611345-.148695-.373002-.056347-.800128.232675-1.076169l32.524451-32.89173c.176335-.184514.419097-.288695.672718-.288695s.496383.104181.672718.288695l32.524451 32.89173c.289022.276041.38137.703167.232675 1.076169-.148696.373002-.508041.615642-.905393.611345h-8.335853c-.533067 0-.965204.43741-.965204.976983v36.089125c.011793 4.684771 1.85147 9.175153 5.118506 12.493528z"/></g></g></svg>