<svg fill="none" height="100" viewBox="0 0 100 100" width="100" xmlns="http://www.w3.org/2000/svg"><rect fill="#ee5a29" height="100" rx="50" width="100"/><path d="m64.625 63.8511c-3.5362-.0752-6.9022-1.5327-9.3765-4.0602-2.4743-2.5274-3.8599-5.9237-3.8599-9.4606 0-3.537 1.3856-6.9332 3.8599-9.4607 2.4743-2.5274 5.8403-3.985 9.3765-4.0602 3.1627.0004 6.2187 1.1442 8.6044 3.2206.3344.2824.7426.4632 1.1765.521.4338.0578.8751-.0099 1.2717-.195s.7319-.48.9663-.8496c.2343-.3697.3579-.7987.3561-1.2364v-12.6867c0-1.2155-.4829-2.3813-1.3424-3.2409-.8596-.8595-2.0254-1.3424-3.2409-1.3424h-45.8334c-1.2155 0-2.3813.4829-3.2409 1.3424-.8595.8596-1.3424 2.0254-1.3424 3.2409v49.5c0 1.2156.4829 2.3814 1.3424 3.2409.8596.8596 2.0254 1.3424 3.2409 1.3424h45.8334c1.2155 0 2.3813-.4828 3.2409-1.3424.8595-.8595 1.3424-2.0253 1.3424-3.2409v-12.6867c.0018-.4376-.1218-.8667-.3561-1.2363-.2344-.3697-.5697-.6645-.9663-.8496-.3966-.1852-.8379-.2528-1.2717-.1951-.4339.0578-.8421.2386-1.1765.5211-2.3866 2.0741-5.4424 3.2158-8.6044 3.2144z" fill="#fff"/></svg>