<svg height="512pt" viewBox="0 0 512 512" width="512pt" xmlns="http://www.w3.org/2000/svg" xmlns:xlink="http://www.w3.org/1999/xlink"><clipPath id="a"><path d="m0 0h512v512h-512z"/></clipPath><g clip-path="url(#a)"><circle cx="256" cy="256" fill="#324a5e" r="252.5"/><g fill-rule="evenodd"><path d="m390.719 369.039c12.127-12.907 19.281-28.782 19.281-45.939 0-43.215-45.391-78.3-101.3-78.3s-101.3 35.085-101.3 78.3 45.391 78.3 101.3 78.3c20.402 0 39.403-4.672 55.309-12.706l47.091 19.706z" fill="#ffd05b"/><path d="m146.055 298.178c23.272 11.774 51.082 18.622 80.945 18.622 81.739 0 148.1-51.306 148.1-114.5s-66.361-114.5-148.1-114.5-148.1 51.306-148.1 114.5c0 25.084 10.456 48.294 28.178 67.167l-29.778 57.533z" fill="#ff7058"/><path d="m281.9 202.3c0-10.818 8.782-19.6 19.6-19.6s19.6 8.782 19.6 19.6-8.782 19.6-19.6 19.6-19.6-8.782-19.6-19.6zm-74.5 0c0-10.818 8.782-19.6 19.6-19.6s19.6 8.782 19.6 19.6-8.782 19.6-19.6 19.6-19.6-8.782-19.6-19.6zm-74.5 0c0-10.818 8.782-19.6 19.6-19.6s19.6 8.782 19.6 19.6-8.782 19.6-19.6 19.6-19.6-8.782-19.6-19.6z" fill="#fff"/></g></g></svg>