<svg height="100pt" viewBox="0 0 100 100" width="100pt" xmlns="http://www.w3.org/2000/svg"><path d="m0 0h100v100h-100z"/><path d="m66.363 21.362h-32.726l-13.637 21.82 5.455 35.456h9.714l-.682-8.183h4.772l.682 8.183h20.114l.683-8.183h4.772l-.683 8.183h9.715l5.458-35.456zm0 43.638h-32.726l-2.728-21.818 5.455-10.911h8.766l-.585 4.09h10.91l-.585-4.09h8.766l5.455 10.911zm-7.501-17.387c.752 0 1.364 2.271 1.364 5.072s-.61 5.072-1.364 5.072c-.753 0-1.363-2.271-1.363-5.072 0-2.799.61-5.072 1.363-5.072zm-17.216.424c.752 0 1.363 2.271 1.363 5.072s-.61 5.072-1.363 5.072c-.754 0-1.363-2.271-1.363-5.072s.609-5.072 1.363-5.072z" fill="#fff"/></svg>