<svg height="512pt" viewBox="0 0 512 512" width="512pt" xmlns="http://www.w3.org/2000/svg" xmlns:xlink="http://www.w3.org/1999/xlink"><clipPath id="a"><path d="m0 0h512v512h-512z"/></clipPath><g clip-path="url(#a)"><circle cx="256" cy="256" fill="#84dbff" r="256"/><path d="m364.585 293.107c-2.535-.101-5.273-.405-8.111-.912-43.901-8.111-75.837-51.099-69.653-95.405.913-6.285.913-12.876-.101-19.668-4.055-27.882-25.752-51.302-53.228-57.385-23.319-5.171-44.812 1.926-60.426 15.411-.71.608-1.419.912-2.129 1.521-.406.405-.811.811-1.217 1.115-.507.507-1.013 1.115-1.52 1.723-62.556 63.468-68.233 164.651-12.065 222.442 58.702 60.426 160.494 55.661 226.294-10.139.608-.608 1.115-1.115 1.723-1.724 20.886-21.494 8.821-55.965-19.567-56.979z" fill="#fff"/><circle cx="214.026139" cy="187.969901" fill="#ffd05b" r="20.581386"/><circle cx="188.476832" cy="251.032079" fill="#84dbff" r="20.581386"/><circle cx="210.883168" cy="319.569109" fill="#4cdbc4" r="20.581386"/><circle cx="284.590891" cy="347.146139" fill="#ff7058" r="20.581386"/><path d="m333.053 181.684c-3.548 24.231-6.792 70.666-7.908 102.907-2.94 82.224 4.765 149.342 17.337 149.747 12.572.406 25.144-65.901 28.084-148.125 1.116-32.139 1.318-78.777-.507-103.211z" fill="#f9b54c"/><path d="m371.276 207.842c-.304-8.72-.71-17.033-1.217-24.84l-37.006-1.318c-1.115 7.705-2.129 16.019-3.041 24.637z" fill="#edf2f2"/><path d="m332.749 183.408 37.513 1.318c8.415-7.604 14.194-20.176 14.701-34.675.913-23.927-21.392-89.422-29.706-68.03-18.452 47.348-33.66 41.873-34.573 65.8-.608 14.397 4.259 27.476 12.065 35.587z" fill="#324a5e"/></g></svg>