<svg fill="none" height="737" viewBox="0 0 736 737" width="736" xmlns="http://www.w3.org/2000/svg" xmlns:xlink="http://www.w3.org/1999/xlink"><linearGradient id="a" gradientUnits="userSpaceOnUse" x1="368" x2="368" y1="0" y2="737"><stop offset=".00225706" stop-color="#2b5355"/><stop offset="1"/></linearGradient><path d="m0 368.5c0-203.241 164.759-368.5 368-368.5 203.241 0 368 165.259 368 368.5 0 203.241-164.759 368.5-368 368.5-203.241 0-368-165.259-368-368.5z" fill="url(#a)"/><path d="m623.869 280.478c0-111.247-90.366-201.478-201.782-201.478s-202.24 90.917-201.784 202.164c.229 55.281 22.651 105.307 58.797 141.628 28.14 28.326 48.959 63.048 59.253 101.653l16.244 60.079h132.234l15.328-56.881c10.753-39.29 32.029-74.926 61.085-103.48 37.519-36.778 60.625-87.491 60.625-143.685z" fill="#29c3cb"/><path d="m421.18 656.697c-36.217 0-65.659-29.412-65.659-65.551v-12.783h131.318v12.783c0 36.361-29.435 65.551-65.659 65.551z" fill="#fff" stroke="#e1e4e5" stroke-width="4.59"/><path d="m351.262 585.392h138.87c2.745 0 5.261-2.514 5.261-5.254 0-2.97-2.288-5.254-5.261-5.254h-138.87c-2.973 0-5.262 2.284-5.262 5.254 0 2.969 2.289 5.254 5.262 5.254z" fill="#e1e4e5"/><path d="m480.13 632.508h-118.869c-2.974 0-5.261-2.284-5.261-5.254 0-2.969 2.287-5.254 5.261-5.254h118.869c2.974 0 5.261 2.285 5.261 5.254 0 2.74-2.287 5.254-5.261 5.254z" fill="#e1e4e5"/><path d="m351.262 608.508h138.87c2.745 0 5.261-2.514 5.261-5.254 0-2.969-2.288-5.254-5.261-5.254h-138.87c-2.973 0-5.262 2.285-5.262 5.254 0 2.97 2.289 5.254 5.262 5.254z" fill="#e1e4e5"/><path clip-rule="evenodd" d="m339.614 311.804c-4.003 0-7.667.97-10.914 2.883-4.186 2.486-7.705 7.453-9.878 13.964-2.159 6.47-2.894 14.212-1.736 21.869 4.097 26.997 26.587 56.115 77.849 64.458-3.143-30.473-8.362-57.767-16.711-74.028-7.333-14.277-18.921-24.629-30.762-28.028-2.732-.751-5.346-1.118-7.848-1.118zm104.501 259.403.11 2.322h9.011l-.099-2.533-.004-.119-.001-.004c-.15-3.685-3.3-80.974 2.645-147.381 56.274-8.407 82.118-40.67 86.797-71.706 1.383-9.187.499-18.378-2.194-26.17-2.684-7.762-7.24-14.337-13.369-17.984-7.326-4.379-16.094-5.193-25.228-2.578-14.302 4.076-27.598 16.221-35.837 32.186l-.001.003c-9.271 18.024-14.709 47.4-17.888 78.964-6.945.779-14.355 1.187-22.3 1.187-7.944 0-15.354-.408-22.3-1.187-3.179-31.606-8.618-60.94-17.887-78.964l-.001-.003c-8.239-15.964-21.536-28.11-35.837-32.186-9.133-2.613-17.898-1.803-25.225 2.575-6.154 3.647-10.711 10.223-13.389 17.989-2.689 7.793-3.56 16.983-2.177 26.168v.002c4.679 30.991 30.522 63.253 86.796 71.703 5.94 66.358 2.798 143.581 2.644 147.372l-.001.013-.005.12-.098 2.533h9.012l.109-2.324c.223-4.759 2.721-80.353-3.119-146.714 6.757.667 13.952 1.044 21.523 1.044 7.559 0 14.754-.342 21.523-1.031-5.842 66.357-3.435 141.982-3.21 146.703zm12.509-156.185c3.143-30.475 8.362-57.808 16.708-74.023 7.388-14.294 18.938-24.685 30.769-28.033l.017-.004c2.717-.79 5.324-1.158 7.829-1.158 4.002 0 7.658.972 10.897 2.92l.013.007c4.186 2.484 7.707 7.452 9.88 13.965 2.159 6.47 2.896 14.21 1.736 21.868-4.096 26.954-26.588 56.115-77.849 64.458z" fill="#fff" fill-rule="evenodd"/><path d="m339.614 311.804c-4.003 0-7.667.97-10.914 2.883-4.186 2.486-7.705 7.453-9.878 13.964-2.159 6.47-2.894 14.212-1.736 21.869 4.097 26.997 26.587 56.115 77.849 64.458-3.143-30.473-8.362-57.767-16.711-74.028-7.333-14.277-18.921-24.629-30.762-28.028m-7.848-1.118c2.502 0 5.116.367 7.848 1.118m-7.848-1.118 7.848 1.118m50.918 257.954-.005.12-.098 2.533h9.012l.109-2.324c.223-4.759 2.721-80.353-3.119-146.714 6.757.667 13.952 1.044 21.523 1.044 7.559 0 14.754-.342 21.523-1.031-5.842 66.357-3.435 141.982-3.21 146.703l.11 2.322h9.011l-.099-2.533-.004-.119-.001-.004c-.15-3.685-3.3-80.974 2.645-147.381 56.274-8.407 82.118-40.67 86.797-71.706 1.383-9.187.499-18.378-2.194-26.17-2.684-7.762-7.24-14.337-13.369-17.984-7.326-4.379-16.094-5.193-25.228-2.578-14.302 4.076-27.598 16.221-35.837 32.186l-.001.003c-9.271 18.024-14.709 47.4-17.888 78.964-6.945.779-14.355 1.187-22.3 1.187-7.944 0-15.354-.408-22.3-1.187-3.179-31.606-8.618-60.94-17.887-78.964l-.001-.003c-8.239-15.964-21.536-28.11-35.837-32.186-9.133-2.613-17.898-1.803-25.225 2.575-6.154 3.647-10.711 10.223-13.389 17.989-2.689 7.793-3.56 16.983-2.177 26.168v.002c4.679 30.991 30.522 63.253 86.796 71.703 5.94 66.358 2.798 143.581 2.644 147.372m-.001.013.001-.013m-.001.013c.001-.004.001-.008.001-.013m58.243-155.841c3.143-30.475 8.362-57.808 16.708-74.023 7.388-14.294 18.938-24.685 30.769-28.033l.017-.004c2.717-.79 5.324-1.158 7.829-1.158 4.002 0 7.658.972 10.897 2.92l.013.007c4.186 2.484 7.707 7.452 9.88 13.965 2.159 6.47 2.896 14.21 1.736 21.868-4.096 26.954-26.588 56.115-77.849 64.458z" stroke="#fff" stroke-width="3.489"/><g fill="#e1e4e5"><path d="m131.345 394.09h91.257c1.652 0 2.992 1.341 2.992 2.996 0 1.654-1.34 2.996-2.992 2.996h-91.257c-1.652 0-2.992-1.342-2.992-2.996 0-1.655 1.34-2.996 2.992-2.996z"/><path d="m96.9366 292.221h89.7604c1.653 0 2.992 1.342 2.992 2.996 0 1.655-1.339 2.996-2.992 2.996h-89.7604c-1.6524 0-2.9919-1.341-2.9919-2.996 0-1.654 1.3395-2.996 2.9919-2.996z"/><path d="m174.73 451.015h91.256c1.653 0 2.992-1.342 2.992-2.996 0-1.655-1.339-2.996-2.992-2.996h-91.256c-1.653 0-2.992 1.341-2.992 2.996 0 1.654 1.339 2.996 2.992 2.996z"/><path d="m137.329 241.288h52.36c1.653 0 2.992 1.341 2.992 2.996s-1.339 2.996-2.992 2.996h-52.36c-1.652 0-2.992-1.341-2.992-2.996s1.34-2.996 2.992-2.996z"/><path d="m245.041 501.948h50.865c1.652 0 2.991-1.341 2.991-2.996 0-1.654-1.339-2.996-2.991-2.996h-50.865c-1.652 0-2.992 1.342-2.992 2.996 0 1.655 1.34 2.996 2.992 2.996z"/><path d="m155.281 190.355h50.864c1.652 0 2.992 1.341 2.992 2.996 0 1.654-1.34 2.996-2.992 2.996h-50.864c-1.653 0-2.992-1.342-2.992-2.996 0-1.655 1.339-2.996 2.992-2.996z"/><path d="m189.689 139.421h50.864c1.653 0 2.992 1.342 2.992 2.996 0 1.655-1.339 2.996-2.992 2.996h-50.864c-1.652 0-2.992-1.341-2.992-2.996 0-1.654 1.34-2.996 2.992-2.996z"/><path d="m262.994 88.4883h50.865c1.652 0 2.992 1.3413 2.992 2.996 0 1.6546-1.34 2.996-2.992 2.996h-50.865c-1.652 0-2.992-1.3414-2.992-2.996 0-1.6547 1.34-2.996 2.992-2.996z"/><path d="m75.9919 343.155h121.1771c1.653 0 2.992 1.341 2.992 2.996 0 1.654-1.339 2.996-2.992 2.996h-121.1771c-1.6524 0-2.9919-1.342-2.9919-2.996 0-1.655 1.3395-2.996 2.9919-2.996z"/></g></svg>