<svg height="512pt" viewBox="0 0 512 512" width="512pt" xmlns="http://www.w3.org/2000/svg" xmlns:xlink="http://www.w3.org/1999/xlink"><clipPath id="a"><path d="m0 0h512v512h-512z"/></clipPath><g clip-path="url(#a)"><circle cx="256" cy="256" fill="#ff7058" r="256"/><path d="m398.752 178.947c-2.738-25.246-11.051-48.463-28.997-66.408-14.194-14.194-31.632-28.084-57.79-33.154-19.669-3.852-45.725-3.751-65.698-1.52-32.139 3.447-57.587 21.088-78.878 45.522-27.78 32.038-20.886 82.832-44.915 117.709-3.447 4.968-7.502 9.733-9.733 15.31-2.23 5.677-2.129 12.774 2.231 17.032 4.562 4.461 11.963 4.259 17.438 7.604 8.213 4.968 9.936 16.222 8.72 25.752-1.116 9.531-4.259 19.162-2.231 28.49 2.231 10.341 10.443 18.554 19.77 23.623 9.328 4.968 19.872 7.198 30.213 9.733 9.632 2.332 20.785 6.793 24.029 15.512h.203v.608c.304 1.014.608 2.13.709 3.245.102.912.102 1.825 0 2.636 0 .507-.101 1.014-.202 1.521-.507 2.636-.507 30.922-.507 30.922 0 6.489 5.373 11.66 11.862 11.457 2.332-.101 81.514 2.028 119.433.406 5.475-.203 11.355-.609 15.715-3.955 5.88-4.461 7.198-12.673 7.604-20.074 3.447-52.721-13.789-79.994 9.935-127.138 3.954-7.908 8.415-15.614 12.268-23.623 14.498-30.315 10.646-64.786 8.821-81.21z" fill="#ffd05b"/><path d="m291.688 183.103v-19.669l-11.153-.912c-1.115-4.36-2.838-8.415-5.069-12.268l7.199-8.516-13.89-13.89-8.517 7.198c-3.751-2.23-7.807-3.954-12.268-5.069l-.912-11.152h-19.669l-.912 11.152c-4.36 1.115-8.415 2.839-12.268 5.069l-8.517-7.198-13.889 13.89 7.198 8.516c-2.231 3.752-3.954 7.807-5.069 12.268l-11.153.912v19.669l11.153.913c1.115 4.359 2.838 8.415 5.069 12.268l-7.198 8.516 13.889 13.89 8.517-7.199c3.751 2.231 7.807 3.955 12.268 5.07l.912 11.152h19.669l.912-11.152c4.36-1.115 8.416-2.839 12.268-5.07l8.517 7.199 13.89-13.89-7.199-8.516c2.231-3.752 3.954-7.807 5.069-12.268zm-54.444 16.121c-14.296 0-25.854-11.558-25.854-25.854 0-14.295 11.558-25.853 25.854-25.853 14.295 0 25.853 11.558 25.853 25.853 0 14.194-11.558 25.854-25.853 25.854z" fill="#324a5e"/><path d="m364.787 231.971v-14.498l-8.212-.709c-.811-3.245-2.028-6.185-3.751-9.024l5.373-6.286-10.24-10.24-6.286 5.374c-2.737-1.622-5.779-2.94-9.023-3.752l-.71-8.212h-14.498l-.71 8.212c-3.244.812-6.184 2.028-9.023 3.752l-6.286-5.374-10.24 10.24 5.373 6.286c-1.622 2.738-2.94 5.779-3.751 9.024l-8.212.709v14.498l8.212.71c.811 3.245 2.028 6.185 3.751 9.024l-5.373 6.285 10.24 10.24 6.286-5.272c2.737 1.623 5.779 2.941 9.023 3.752l.71 8.212h14.498l.71-8.212c3.244-.811 6.184-2.028 9.023-3.752l6.286 5.272 10.24-10.24-5.373-6.285c1.622-2.738 2.94-5.779 3.751-9.024zm-40.047 11.761c-10.544 0-19.061-8.516-19.061-19.06s8.517-19.061 19.061-19.061 19.06 8.517 19.06 19.061-8.516 19.06-19.06 19.06z" fill="#fff"/></g></svg>