<svg fill="none" height="126" viewBox="0 0 126 126" width="126" xmlns="http://www.w3.org/2000/svg"><path d="m17.8138 113.123-10.05403-112.771438h110.48023l-10.064 112.754438-45.2432 12.543z" fill="#1572b6"/><path d="m63.001 116.062 36.559-10.136 8.601-96.35373h-45.16z" fill="#33a9dc"/><path d="m63.001 50.4286h18.302l1.264-14.163h-19.566v-13.831h34.682l-.332 3.711-3.4 38.114h-30.95z" fill="#fff"/><path d="m63.083 86.3488-.061.018-15.403-4.159-.985-11.031h-13.882l1.937 21.717 28.331 7.8632.063-.018z" fill="#ebebeb"/><path d="m80.1272 63.6748-1.666 18.522-15.426 4.164v14.3902l28.354-7.8582.208-2.337 2.406-26.881z" fill="#fff"/><path d="m63.0479 22.4346v13.831h-33.408l-.277-3.108-.63-7.012-.331-3.711zm-.047 27.996v13.831h-15.209l-.277-3.108-.631-7.012-.33-3.711z" fill="#ebebeb"/></svg>