<svg fill="none" height="737" viewBox="0 0 737 737" width="737" xmlns="http://www.w3.org/2000/svg" xmlns:xlink="http://www.w3.org/1999/xlink"><linearGradient id="a" gradientUnits="userSpaceOnUse" x1="368.5" x2="368.5" y1="0" y2="737"><stop offset=".00225706" stop-color="#2b5355"/><stop offset="1"/></linearGradient><clipPath id="b"><rect height="737" rx="368.5" width="737"/></clipPath><g clip-path="url(#b)"><path d="m0 368.5c0-203.517 164.983-368.5 368.5-368.5 203.517 0 368.5 164.983 368.5 368.5 0 203.517-164.983 368.5-368.5 368.5-203.517 0-368.5-164.983-368.5-368.5z" fill="url(#a)"/><g fill="#2ccbd3"><path d="m438.85 832.587c-135.267-93.938-205.57-250.373-240.725-365.055-38.174-124.511-44.326-228.089-44.382-229.125l-7.303.824c.056 1.036 6.239 105.394 44.634 230.736 35.484 115.824 106.523 273.855 243.466 368.963z"/><path d="m171.353 204.964c6.899 28.943 1.587 58.311-12.406 81.249-22.358-12.117-40.078-34.619-46.98-63.563-6.914-28.946-1.603-58.318 12.391-81.253 22.371 12.121 40.078 34.619 46.995 63.567zm-46.686 91.105c11.15 8.104 20.478 18.384 27.387 30.181 6.91 11.798 11.248 24.852 12.737 38.329-25.508 5.485-53.662.211-77.0944-16.849-11.1463-8.109-20.4716-18.39-27.3803-30.187s-11.249-24.85-12.7436-38.326c25.511-5.497 53.6623-.208 77.0943 16.852zm-19.222 154.177c40.068 4.953 76.241-22.313 76.241-22.313s-28.792-35.295-68.86-40.246c-40.0689-4.95-76.242 22.313-76.242 22.313s28.7919 35.295 68.861 40.246zm30.346 98.738c40.068 4.954 76.239-22.313 76.239-22.313s-28.789-35.294-68.86-40.246c-40.069-4.95-76.2394 22.313-76.2394 22.313s28.7893 35.295 68.8604 40.246z"/><path d="m267.709 279.849c-24.101 2.837-48.727 15.333-67.007 36.19-18.28 20.858-26.429 45.756-24.48 68.205 24.102-2.836 48.729-15.332 67.009-36.189 18.28-20.858 26.416-45.766 24.478-68.206z"/><path d="m378.878 825.336c-39.846-84.428-29.261-181.125-13.365-247.372 17.253-71.928 44.322-124.51 44.594-125.033l-3.868-1.664c-.272.523-27.551 53.496-44.935 125.893-16.063 66.901-26.747 164.592 13.589 250.068z"/><path d="m288.437 375.698c-23.771 5.02-47.224 19.686-63.565 42.089-16.34 22.404-22.194 47.901-18.231 70.012 23.786-5.013 47.24-19.678 63.579-42.082 16.342-22.402 22.207-47.892 18.217-70.019z"/><path d="m228.001 582.052c-6.079-9.309-16.261-15.887-28.617-17.238-12.355-1.351-24.321 2.813-33.189 10.5 6.078 9.311 16.26 15.889 28.618 17.241 12.342 1.342 24.305-2.823 33.188-10.503z"/><path d="m427.496 441.128c-5.003 15.972-16.261 28.717-29.999 35.896-7.681-12.167-9.994-28.061-4.991-44.036 4.996-15.977 29.992-35.901 29.992-35.901s9.995 28.061 4.998 44.041zm-47.525 33.519c3.227 7.068 4.903 14.677 4.92 22.34.018 7.664-1.623 15.214-4.819 22.166-14.411-4.521-27.004-15.002-33.776-29.866-3.225-7.067-4.899-14.675-4.917-22.338-.017-7.663 1.623-15.212 4.815-22.165 14.415 4.514 27.005 15 33.777 29.863zm-54.758 69.331c18.67 13.677 44.808 10.642 44.808 10.642s-4.131-25.213-22.798-38.889c-18.669-13.678-44.807-10.643-44.807-10.643s4.13 25.213 22.797 38.89zm-13.654 56.405c18.67 13.678 44.808 10.64 44.808 10.64s-4.13-25.212-22.797-38.889c-18.67-13.677-44.808-10.64-44.808-10.64s4.13 25.213 22.797 38.889z"/><path d="m339.779 624.964c6.567 3.08 10.954 8.485 12.562 14.536-6.351 2.324-13.738 2.212-20.299-.863-6.569-3.078-10.955-8.482-12.563-14.536 6.341-2.328 13.729-2.216 20.3.863z"/><path d="m450.27 498.169c-13.613-3.99-29.6-3.141-43.971 3.431-14.37 6.575-24.152 17.512-27.956 29.474 13.615 3.988 29.6 3.141 43.972-3.432 14.373-6.575 24.147-17.519 27.955-29.473z"/><path d="m435.938 562.193c-13.394-4.72-29.42-4.755-44.114 1.022-14.693 5.778-25.017 16.164-29.427 27.875 13.398 4.728 29.421 4.762 44.116-1.015 14.695-5.776 25.022-16.157 29.425-27.882z"/></g><path d="m448.095 418.256c-4.643-14.29 3.177-29.637 17.467-34.279 14.288-4.643 29.636 3.175 34.279 17.465l21.235 65.353-51.747 16.812z" fill="#e1e4e5"/><path d="m515.793 448.942-55.408 18.003c-6.509 2.115-10.071 9.106-7.956 15.615l80.355 247.309c2.115 6.509 9.106 10.071 15.616 7.956l55.407-18.003c6.51-2.115 10.072-9.106 7.957-15.615l-80.355-247.309c-2.115-6.509-9.107-10.071-15.616-7.956z" fill="#2b5355"/><path clip-rule="evenodd" d="m796.915 661.712-19.245-30.171c-23.62-37.031-57.094-66.745-96.664-85.808l-78.921-38.016c-12.722-6.13-26.663-9.313-40.785-9.314h-16.749l6.365 21.125-89.681-21.904c-10.434-2.549-20.706 4.737-21.751 15.427-.303 3.103.221 6.232 1.519 9.067 1.299 2.835 3.325 5.275 5.874 7.073l24.791 17.483c-15.533 7.483-17.688 28.731-3.973 39.179l12.597 9.598c-11.957 7.394-12.648 24.532-1.326 32.865l18.275 13.451c-1.129 5.714-.325 11.641 2.286 16.848 2.61 5.206 6.879 9.396 12.133 11.909l19.542 9.341c2.894 1.384 5.905 2.508 8.999 3.358l90.364 24.846 100.846 67.608z" fill="#ffc8bc" fill-rule="evenodd"/><path clip-rule="evenodd" d="m959.644 794.675-202.989-201.59-102.195 143.816 69.996 57.774z" fill="#2ccbd3" fill-rule="evenodd"/><path clip-rule="evenodd" d="m361.862 418.839c-90.655-32.997-137.4-133.228-104.407-223.871 32.991-90.646 133.228-137.3802 223.883-104.3855 90.655 32.9965 137.399 133.2275 104.406 223.8725-32.99 90.646-133.227 137.378-223.882 104.384zm14.233-40.006c-68.743-25.02-104.189-101.023-79.172-169.756 25.017-68.735 101.025-104.173 169.766-79.152 68.743 25.019 104.188 101.022 79.171 169.757-25.017 68.734-101.024 104.171-169.765 79.151z" fill="#d9d9d9" fill-rule="evenodd"/><path d="m376.095 378.833c-68.743-25.02-104.189-101.023-79.172-169.756 25.017-68.735 101.025-104.173 169.766-79.152 68.743 25.019 104.188 101.022 79.171 169.757-25.017 68.734-101.024 104.171-169.765 79.151z" fill="#fff" fill-opacity=".5"/></g></svg>