<svg fill="none" height="128" viewBox="0 0 128 128" width="128" xmlns="http://www.w3.org/2000/svg" xmlns:xlink="http://www.w3.org/1999/xlink"><linearGradient id="a"><stop offset="0" stop-color="#f9a03c"/><stop offset="1" stop-color="#f7974e"/></linearGradient><linearGradient id="b" gradientUnits="userSpaceOnUse" x1="53.0427" x2="127.158" xlink:href="#a" y1="13.8064" y2="93.8322"/><linearGradient id="c" gradientUnits="userSpaceOnUse" x1="-9.02046" x2="61.4081" xlink:href="#a" y1="28.3958" y2="96.7038"/><linearGradient id="d" gradientUnits="userSpaceOnUse" x1="23.1707" x2="84.8153" xlink:href="#a" y1="52.5651" y2="125.197"/><linearGradient id="e" gradientUnits="userSpaceOnUse" x1="17.2461" x2="100.097" y1="1.38825" y2="116.906"><stop offset="0" stop-color="#f26d58"/><stop offset="1" stop-color="#f9a03c"/></linearGradient><linearGradient id="f" gradientUnits="userSpaceOnUse" x1="60.0169" x2="145.997" y1="8.78338" y2="60.7107"><stop offset="0" stop-color="#b84e51"/><stop offset="1" stop-color="#f68e48"/></linearGradient><linearGradient id="g" gradientUnits="userSpaceOnUse" x1="42.1204" x2="43.2867" xlink:href="#a" y1="88.6235" y2="144.728"/><path d="m126.334 90.5904c.055-.548.097-1.0971.128-1.647.038-.655-39.3681-38.043-39.3681-38.043h-.942s39.9401 42.13 40.1821 39.69z" fill="url(#b)"/><path d="m42.2601 77.6199c-.1058.2356-.2152.4696-.328.7019-1.256 2.62 17.585 21.0381 19.1 18.8001.07-.098.14-.2021.208-.3001.077-.118.152-.2299.228-.3479 1.213-1.84-18.67-20.05-19.207-18.854z" fill="url(#c)"/><path d="m68.8861 103.52c-.053.118-.433.76-.78 1.098-.058.117 18.394 18.417 18.394 18.417h1.66c.002 0-17.32-18.74-19.274-19.514z" fill="url(#d)"/><path d="m126.488 88.6105c-.863 19.1295-16.69 34.4245-36.0238 34.4245h-2.614l-19.31-19.022c1.5971-2.237 3.0597-4.5681 4.38-6.9795h17.544c5.55 0 10.0638-4.514 10.0638-10.065 0-5.55-4.5148-10.064-10.0638-10.064h-10.382c.8098-4.2538 1.2196-8.5739 1.224-12.904 0-4.48-.44-8.852-1.26-13.1h6.45l39.8798 39.295c.046-.5277.083-1.0561.112-1.585zm-114.5258-83.83804h-10.49003v26.00304h10.49003c18.32 0 33.23 14.903 33.23 33.225 0 4.984-1.113 9.716-3.088 13.964l19.136 18.856c6.5032-9.7093 9.9703-21.1341 9.96-32.82 0-32.658-26.574-59.22804-59.236-59.22804z" fill="url(#e)"/><path d="m90.4638 4.77153h-42.478c10.4014 6.35247 18.9584 15.31737 24.82 26.00297h17.658c5.55 0 10.0642 4.513 10.0642 10.064 0 5.55-4.5152 10.06-10.0642 10.06h-3.968l39.8802 39.296c.098-1.0732.149-2.1502.152-3.228 0-8.766-3.146-16.807-8.368-23.066 5.223-6.256 8.368-14.3 8.368-23.063 0-19.887-16.177-36.06797-36.0642-36.06797z" fill="url(#f)"/><path d="m87.8502 123.035h-39.56c7.9539-4.923 14.8397-11.391 20.25-19.022zm-26.61-26.2152-19.134-18.855c-5.287 11.362-16.807 19.264-30.143 19.264h-10.49103v26.0002h10.49003c20.53 0 38.648-10.5 49.28-26.4072z" fill="url(#g)"/></svg>