<svg height="100pt" viewBox="0 0 100 100" width="100pt" xmlns="http://www.w3.org/2000/svg"><path d="m0 0h100v100h-100z"/><path d="m53.827 49.998c0-18.322-14.851-33.177-33.177-33.177h-5.65v14.584h5.652c10.27 0 18.593 8.323 18.593 18.593s-8.323 18.593-18.593 18.593h-5.652v14.584h5.652c18.32 0 33.173-14.855 33.173-33.177zm31.173-12.941c0-11.176-9.063-20.236-20.236-20.236h-23.333c5.746 3.638 10.375 8.559 13.564 14.38l.103.204h9.666c3.117 0 5.652 2.531 5.652 5.652s-2.535 5.652-5.652 5.652h-5.652c.912 4.819.912 9.765 0 14.584h5.652c3.115 0 5.652 2.529 5.652 5.652 0 3.124-2.535 5.653-5.652 5.653h-9.666c-3.292 6.024-7.921 10.943-13.508 14.487l-.159.094h23.333c4.727 0 9.308-1.656 12.943-4.681 8.584-7.146 9.758-19.904 2.61-28.496 2.911-3.482 4.679-8.008 4.681-12.947z" fill="#fff"/></svg>