<svg fill="none" height="461" viewBox="0 0 461 461" width="461" xmlns="http://www.w3.org/2000/svg"><g clip-rule="evenodd" fill-rule="evenodd"><path d="m.15332 230.551v230h229.99968 230v-230-229.999975h-230-229.99968z" fill="#ff5f4c"/><path d="m336.137 187.764c-.392.391-.716 11.526-.721 24.743-.004 13.217-.43 27.709-.946 32.204-.523 4.548-1.852 9.961-2.996 12.203-1.131 2.216-3.377 4.713-4.99 5.547-1.797.93-5.612 1.517-9.844 1.517-3.799 0-8.831-.678-11.18-1.507-2.35-.83-4.488-1.294-4.749-1.031-.262.261-.529 2.174-.593 4.251-.107 3.439.229 3.944 3.751 5.664 2.127 1.038 6.904 2.106 10.616 2.371 3.711.266 9.026-.064 11.81-.731 3.338-.801 6.585-2.556 9.532-5.148 3.008-2.648 5.213-5.797 6.749-9.638 2.211-5.53 2.283-6.706 2.305-38.135l.023-32.43-4.027-.296c-2.216-.163-4.349.024-4.74.416zm53.669.777c-2.195.695-5.365 1.979-7.045 2.855s-4.479 3.05-6.22 4.831c-1.741 1.78-3.901 5.164-4.802 7.52-1.093 2.865-1.495 6.214-1.214 10.11.323 4.466 1.09 6.702 3.285 9.58 1.575 2.064 4.55 4.614 6.613 5.666 2.062 1.052 7.262 2.864 11.555 4.027 4.294 1.163 10.479 3.002 13.745 4.087s7.155 2.602 8.643 3.371 3.686 2.643 4.885 4.162c1.723 2.183 2.081 3.671 1.7 7.081-.32 2.857-1.381 5.254-3.141 7.091-1.462 1.526-4.372 3.288-6.467 3.916-2.094.627-6.468 1.14-9.718 1.14-3.251 0-8.588-.693-11.859-1.54s-7.518-2.568-9.439-3.823-4.646-3.029-6.055-3.943c-2.549-1.653-2.574-1.64-4.898 2.493l-2.335 4.155 2.902 2.328c1.596 1.28 6.151 3.684 10.121 5.343 3.971 1.658 10.509 3.432 14.529 3.942 4.622.586 9.844.568 14.203-.049 4.215-.598 8.843-2.068 11.913-3.787 3.604-2.017 5.936-4.319 8.264-8.161 2.584-4.265 3.243-6.431 3.243-10.674 0-3.286-.73-6.738-1.909-9.024-1.05-2.036-2.859-4.708-4.02-5.936-1.162-1.23-3.424-2.914-5.027-3.743-1.604-.829-9.325-3.342-17.157-5.583-7.833-2.241-15.151-4.542-16.264-5.113-1.112-.572-3.032-1.959-4.267-3.083-1.777-1.62-2.245-3.124-2.245-7.224 0-3.803.574-5.912 2.163-7.93 1.189-1.513 3.645-3.37 5.456-4.126 1.87-.782 6.752-1.376 11.297-1.376 5.421 0 9.599.605 12.945 1.878 2.719 1.032 6.193 2.86 7.72 4.062l2.778 2.184 1.939-4.005c1.543-3.186 1.694-4.304.733-5.461-.664-.8-3.547-2.615-6.406-4.032-2.859-1.416-7.219-3.021-9.688-3.566-2.47-.545-7.185-.971-10.477-.948-3.293.024-7.784.611-9.979 1.305zm-362.7113 4.021v4.562h17.2805c12.857 0 18.6424.404 22.5988 1.579 3.9415 1.171 6.6476 2.914 10.4543 6.736 3.8436 3.857 5.6268 6.663 7.0826 11.142 1.3161 4.053 1.9178 8.567 1.86 13.97-.0529 4.916-.7674 9.9-1.862 12.972-.9769 2.744-2.9256 6.592-4.3306 8.55-1.4049 1.96-4.1569 4.714-6.1167 6.122-1.9587 1.409-5.3573 3.086-7.5526 3.73-2.4117.706-8.9276 1.048-16.4642.863l-12.4729-.306-.2654-26.692-.2664-26.692h-4.9722-4.9732v32.047 32.047l19.7072-.495c17.2864-.434 20.3787-.764 25.1743-2.694 3.0064-1.209 7.6733-3.818 10.3694-5.798 2.6972-1.979 6.2025-5.646 7.7901-8.149 1.5885-2.503 3.7698-7.404 4.8474-10.892 1.2563-4.065 1.9598-9.208 1.9598-14.325 0-4.39-.7105-10.741-1.5786-14.114-.8681-3.372-2.8598-8.376-4.4244-11.12-1.5656-2.744-5.0241-6.647-7.6853-8.674-2.6622-2.026-7.0696-4.707-9.7947-5.956-4.5481-2.084-6.6575-2.3-25.6602-2.624l-20.705-.352zm115.8073-1.675c-.693 1.509-3.251 7.829-5.686 14.043-2.434 6.214-4.864 12.052-5.399 12.972-.535.921-3.48 7.959-6.545 15.643-3.064 7.683-7.774 19.498-10.464 26.255-2.691 6.758-4.893 12.506-4.893 12.775 0 .268 2.349.353 5.219.186l5.221-.301 6.354-16.464c3.495-9.056 8.511-22.077 11.147-28.937 2.635-6.86 5.566-14.269 6.512-16.465.946-2.195 3.227-8.144 5.069-13.221l3.348-9.23h-4.311c-3.734 0-4.481.368-5.572 2.744zm48.537-1.047c.372.987 3.117 5.837 6.1 10.776 2.984 4.939 6.997 11.675 8.919 14.968 1.922 3.292 4.859 8.165 6.529 10.827l3.036 4.842 1.789-2.347c.984-1.291 2.04-3.469 2.347-4.841.388-1.736-.527-4.467-3.006-8.98-1.961-3.568-6.201-10.976-9.423-16.465l-5.859-9.978-5.554-.299c-4.994-.269-5.485-.118-4.878 1.497zm58.918 3.057c-1.51 2.599-5.632 9.665-9.159 15.702s-8.353 14.334-10.724 18.438-4.492 7.92-4.71 8.481c-.22.561-1.23 2.091-2.245 3.4-1.621 2.087-1.847 4.329-1.847 18.262v15.884l5.238-.303 5.239-.301.499-15.965.499-15.966 5.901-9.978c3.245-5.488 6.592-11.101 7.437-12.473.844-1.372 5.037-8.269 9.316-15.327 4.278-7.058 7.78-13.233 7.78-13.721s-2.358-.881-5.239-.873c-5.191.015-5.264.058-7.985 4.74zm-94.901 12.738c-1.037 2.522-1.629 5.711-1.341 7.231.282 1.494 2.543 7.881 5.025 14.193l4.511 11.475-10.326.499c-5.678.274-10.494.723-10.7.997-.207.275-.921 1.768-1.588 3.318-.668 1.551-.942 3.256-.612 3.791.347.562 5.858.905 13.04.812 6.841-.089 12.739.141 13.108.508.367.368 2.708 5.918 5.2 12.335l4.532 11.666 5.221.301c3.932.228 5.222-.04 5.222-1.081 0-.762-1.845-5.837-4.1-11.279-2.256-5.441-7.213-17.527-11.017-26.856-3.805-9.33-8.316-20.444-10.027-24.697-1.709-4.253-3.374-7.731-3.7-7.729s-1.428 2.034-2.448 4.516zm117.105 60.895v6.544l4.241-.308 4.241-.306.297-6.236.296-6.237h-4.537-4.538z" fill="#fff"/></g></svg>