<svg height="512pt" viewBox="0 0 512 512" width="512pt" xmlns="http://www.w3.org/2000/svg" xmlns:xlink="http://www.w3.org/1999/xlink"><clipPath id="a"><path d="m0 0h512v512h-512z"/></clipPath><g clip-path="url(#a)"><circle cx="256" cy="256" fill="#4cdbc4" r="254"/><path d="m94.4 452c44 36.4 100.4 58 161.6 58 61.6 0 117.6-21.6 161.6-58z" fill-opacity=".15"/><circle cx="256" cy="163.6" fill="#fff" r="122.4"/><path d="m378.4 163.6c0-29.6-10.8-57.2-28.4-78.4-.8 0-12.4-8.8-18.8-8s-12 5.6-14.4 11.6c-1.2 3.6-1.6 8.4-5.2 10-4.4 2.4-10-2-14.8-.4-3.6 1.2-4.8 6-4.4 9.6.4 2.4 1.6 4.8 2.8 6.8 2.4 2.8 6 6.4 4 9.6-1.6 2.4-5.6 2.4-7.2 5.2-2 3.2 1.6 6.8 2 10.4.4 4-2.4 7.2-4.4 10.4-7.6 10.8-10.4 25.2-6.4 38 1.2 3.6 3.6 4 4.8 4 9.2.8 19.2-3.6 28 0-2.4 2.8-2.4 7.2-.8 10.4 1.2 2 5.6 11.6 5.6 15.2 0 7.2.4 14.4.4 21.6 0 1.6 2 6 2.4 6.8 1.6 2.4 1.6 5.6.8 8-.4 2.8-.8 9.2-.4 9.6 33.2-21.2 54.4-58.4 54.4-100.4z" fill="#e6e9ee"/><path d="m278.8 48c-5.6-2.8-12.4.8-18.8 2-10.4 2.4-21.2-1.6-30.8-6.4-37.2 8.4-68.4 34-84 68 .8 1.2 2 2 2.8 3.2 2.8 4.8-.8 10.8-.4 16.4.4 6.4 6.4 11.2 8.8 17.2s1.2 14 6 18.8c1.6 1.6 3.6 2.8 5.6 4 6.8 3.6 14 7.6 20.8 11.2 2.8 1.6 5.6 3.2 6 6 .8 4.4-4.8 9.2-2.4 13.2.8 2 3.2 2.8 4.8 4 4.4 3.6 4.4 10.8 7.6 16 1.2 2 3.2 4 4.8 6 3.6 5.2 3.2 12 2.4 18s-2.8 12.4-2 18.8c.4 2.4 1.2 5.2 3.2 6.8s5.2 2.4 7.2.8c1.2-1.2 2-2.8 2.4-4.4 4-10.8 9.2-24 20.4-27.6 6-2 10-7.6 11.6-13.2 1.6-6 1.2-12.4.4-18.4-.4-2-.8-4-2-6-1.6-2.4-4.8-3.2-7.2-4.4-8-4.4-12.4-14-21.2-16.4-5.6-1.6-11.6.8-17.2 1.6s-12.8-.8-14.8-6c-.4-1.2-2.8-4-3.6-4-3.6-1.2-7.6-2.4-10.4-5.2s-4.8-6.8-3.6-10.8c1.6-5.2 7.2-7.6 12.4-8.8 10-2.8 21.6-6 26-15.6 1.2-2.8 1.6-5.6 3.6-8 4.4-4.8 14-3.6 16.4-9.6.4-1.6.4-3.2.4-4.8-.8-4.8-2.8-9.2-6.4-12.4-3.6-2.8-9.2-4-13.2-1.6-3.2 1.6-5.2 5.2-7.6 8s-6.4 4.8-10 3.6c-2.8-1.2-4.4-4.8-3.6-8s2.4-6 4.4-8.4c1.2-1.6 8.4-4.4 10-4.4 8.8.4 17.2.8 26 1.2 1.2-2 .4-4.4-.8-6-1.2-2-2.8-3.2-4.4-4.8-3.6-4.4-4.4-10.8-2.4-16 8.4 2 16.8 7.6 18.4 16 1.2 6-.8 12.4 1.6 17.6 5.6 1.6 11.2-1.6 15.2-5.6s7.2-8.8 12-12.4c2-1.6 4.4-2.8 6.4-4.4 2.4-2.4 3.6-5.6 4.4-8.8 1.6-6 0-13.2-5.2-16z" fill="#e6e9ee"/><g fill="#324a5e"><circle cx="256" cy="296.4" r="12.4"/><path d="m404.4 364.4-24-48c-.4-1.2-2-4-5.6-4h-34.4l-32-36.8c-1.2-1.2-3.2-.4-3.6 0l-32 36.8h-34l-32-36.8c-.8-.8-2.4-1.2-3.6 0l-32 36.8h-34.4c-3.6 0-5.2 2.8-5.6 4l-24 48c-.8 1.2 0 2.8 1.6 3.2.8 0 1.6-.4 2-.8l21.6-30.8 2.8 39.2c0 1.6 1.2 3.2 2.4 4l-6.8 63.6h-4.8c-4.8 0-8.8 4-8.8 8.8h24l2-8.8 11.2-52 11.2 52 2 8.8h11.2 12.8c0-4.8-4-8.8-8.8-8.8h-4.8l-6.8-63.6c1.6-.8 2.4-2.4 2.4-4l3.2-50 28-44 28 44 3.2 50c0 1.6 1.2 3.2 2.4 4l-6.8 63.6h-3.6c-4.8 0-8.8 4-8.8 8.8h24l2-8.8 11.2-52 12.8 60.8h24c0-4.8-4-8.8-8.8-8.8h-4.8l-6.8-63.6c1.6-.8 2.4-2.4 2.4-4l3.2-50 28-44 28 44 3.2 50c0 1.6 1.2 3.2 2.4 4l-6.8 63.6h-4.8c-4.8 0-8.8 4-8.8 8.8h24l2-8.8 11.2-52 11.2 52 2 8.8h24c0-4.8-4-8.8-8.8-8.8h-4.8l-6.8-63.6c1.6-.8 2.4-2.4 2.4-4l2.8-39.2 21.6 30.8c.4.8 1.2 1.2 2 .8 1.6 0 2.4-1.6 2-3.2z"/><circle cx="357.2" cy="296.4" r="12.4"/><circle cx="154.8" cy="296.4" r="12.4"/></g></g></svg>