<svg fill="none" height="512" viewBox="0 0 512 512" width="512" xmlns="http://www.w3.org/2000/svg"><path d="m399.109 143.997 11.049 8c19.215 15.499 30.264 32.998 32.666 52.998 20.657-4 47.078-1 58.607 6.999l10.569 6.5-1.922 4c-3.362 7.5-4.323 9.5-4.803 10.499-18.736 37.499-55.725 37.999-73.019 37.499-43.715 109.496-136.91 169.993-262.772 169.993-58.127 0-102.3222-18.499-132.1062-54.998-39.39174-47.998-39.39174-110.495-36.02903-130.494l.96077-4h347.31946c18.255 0 32.186-5 38.912-9-7.206-10.999-9.608-23.499-10.089-30.499-1.441-19.999 3.363-40.998 12.971-55.997zm-306.4867 46.998v49.998h-52.8426v-49.998zm62.4507 0v49.998h-52.843v-49.998zm62.45 0v49.998h-52.843v-49.998zm62.45 0v49.998h-52.842v-49.998zm62.45 0v49.998h-52.842v-49.998zm-62.45-59.997v49.998h-52.842v-49.998zm-62.45 0v49.998h-52.843v-49.998zm-62.45 0v49.998h-52.843v-49.998zm124.9-59.998v49.998h-52.842v-49.998z" fill="#2396ed"/></svg>