<svg viewBox="0 0 100 100" xmlns="http://www.w3.org/2000/svg"><path d="m91.41 40.632v-.13c0-.176-.044-.307-.044-.482l-.133-.526c0-.044-.045-.044-.045-.087-.045-.175-.134-.307-.223-.438v-.044a3.837 3.837 0 0 0 -.267-.438l-.09-.087a2.849 2.849 0 0 0 -.356-.394l-18.711-18.385-18.712-18.385c-.134-.131-.267-.219-.401-.35l-.09-.086c-.133-.088-.311-.176-.445-.263h-.044c-.134-.088-.312-.131-.446-.175-.044 0-.044-.044-.089-.044l-.534-.132c-.179-.044-.312-.044-.49-.044h-37.691c-2.228 0-4.01 1.75-4.01 3.94v91.924c0 2.188 1.782 3.94 4.01 3.94h74.847c2.227 0 4.01-1.752 4.01-3.94v-55.242c-.045-.044-.045-.088-.045-.132zm-37.423-9.367v-17.728l9.044 8.886zm14.702-3.327 9.044 8.886h-18.043l9-8.886zm-52.125-20.004h29.404v28.89h-29.404zm0 36.77h29.404v47.275h-29.404v-47.276zm66.826 47.274h-29.403v-47.275h29.404v47.277z" fill="#843131"/></svg>