<svg fill="none" height="737" viewBox="0 0 736 737" width="736" xmlns="http://www.w3.org/2000/svg" xmlns:xlink="http://www.w3.org/1999/xlink"><linearGradient id="a" gradientUnits="userSpaceOnUse" x1="368" x2="368" y1="0" y2="737"><stop offset=".00225706" stop-color="#2b5355"/><stop offset="1"/></linearGradient><path d="m0 368.5c0-203.241 164.759-368.5 368-368.5 203.241 0 368 165.259 368 368.5 0 203.241-164.759 368.5-368 368.5-203.241 0-368-165.259-368-368.5z" fill="url(#a)"/><g clip-rule="evenodd" fill-rule="evenodd"><path d="m484.909 135.51c100.62 0 168.091 94.126 168.091 181.778 0 177.925-280.122 323.599-285.224 323.599-5.103 0-285.2247-145.674-285.2247-323.599 0-87.652 67.4707-181.778 168.0927-181.778 57.52 0 95.296 28.584 117.132 54.043 21.836-25.459 59.612-54.043 117.133-54.043z" fill="#2ccbd3"/><path d="m452.2 205.216c72.796 0 121.608 68.253 121.608 131.809 0 129.014-202.656 234.645-206.348 234.645-3.691 0-206.347-105.631-206.347-234.645 0-63.556 48.812-131.809 121.608-131.809 41.613 0 68.942 20.728 84.739 39.188 15.797-18.46 43.127-39.188 84.74-39.188z" fill="#e1e4e5"/><path d="m429.876 254.483c53.254 0 88.963 49.896 88.963 96.359 0 94.316-148.253 171.537-150.954 171.537s-150.954-77.221-150.954-171.537c0-46.463 35.709-96.359 88.963-96.359 30.442 0 50.435 15.154 61.991 28.649 11.556-13.495 31.549-28.649 61.991-28.649z" fill="#fff"/></g></svg>