<svg fill="none" height="128" viewBox="0 0 128 128" width="128" xmlns="http://www.w3.org/2000/svg"><path d="m39.5 49.2 23.5-13.6c.6-.3 1.3-.3 1.9 0l23.6 13.6c.6.3 1 1 1 1.6v27.2c0 .7-.4 1.3-1 1.7l-23.5 13.6c-.6.3-1.3.3-1.9 0l-23.6-13.6c-.6-.3-1-1-1-1.7v-27.2c0-.6.4-1.3 1-1.6z" fill="#8080f2"/><path d="m125.2 61.6-28.1002-49c-1-1.8-2.9-3.1-5-3.1h-56.2c-2 0-3.9 1.3-5 3.1l-28.1 48.9c-1 1.8-1 4 0 5.8l28.1 48.6c1 1.8 2.9 2.7 5 2.7h56.3c2 0 3.9-.9 5-2.6l28.1002-48.6c1-2 1-4.1-.1-5.8zm-23.3 23.5c0 .7-.4 1.4-1.1 1.7l-35.8002 20.7c-.6.4-1.4.4-2 0l-35.9-20.6c-.6-.4-1.1-1-1.1-1.7v-41.5c0-.7.4-1.4 1.1-1.7l35.9-20.7c.6-.4 1.4-.4 2 0l35.9002 20.7c.6.4 1.1 1 1.1 1.7v41.4z" fill="#4b32c3"/></svg>