<svg height="100pt" viewBox="0 0 100 100" width="100pt" xmlns="http://www.w3.org/2000/svg" xmlns:xlink="http://www.w3.org/1999/xlink"><linearGradient id="a" gradientUnits="userSpaceOnUse" x1="0" x2="0" y1="-1.8331" y2="103.5694"><stop offset=".01739130435" stop-color="#16628f"/><stop offset=".68695652174" stop-color="#083758"/><stop offset=".97391304348" stop-color="#02233e"/><stop offset=".99565217391" stop-color="#000d17"/></linearGradient><path d="m0 0h100v100h-100z" fill="url(#a)"/><path d="m32.23 69.854 16.552-11.11c.933-.626 2.098-.587 3.031.039l15.969 11.11c1.554 1.056 1.554 3.364 0 4.46l-15.969 11.11c-.894.626-2.098.626-3.031.039l-16.552-11.11c-1.593-1.095-1.593-3.482 0-4.538z" fill="#024998"/><path d="m22.979 52.355 25.015-16.68c1.364-.935 3.195-.896 4.559.039l24.119 16.68c2.338 1.598 2.338 5.067 0 6.664l-24.158 16.68c-1.364.936-3.156.974-4.559.039l-25.015-16.68c-2.377-1.597-2.377-5.105.039-6.742z" fill="#4fade8"/><path d="m17.043 35.383 30.73-20.489c1.681-1.134 3.909-1.095 5.59.039l29.636 20.489c2.854 1.994 2.854 6.217 0 8.211l-29.636 20.489c-1.681 1.173-3.909 1.173-5.59.039l-30.73-20.489c-2.932-1.955-2.932-6.295 0-8.289z" fill="#fff" opacity=".5"/></svg>