<svg height="100pt" viewBox="0 0 100 100" width="100pt" xmlns="http://www.w3.org/2000/svg"><path d="m77.635 30.968c-3.344 0-6.376 1.33-8.602 3.486l-14.113-10.106c.088-.369.14-.752.14-1.148 0-2.732-2.214-4.946-4.946-4.946s-4.947 2.214-4.947 4.946 2.215 4.946 4.947 4.946c.956 0 1.846-.276 2.603-.746l17.276 12.572c1.347-2.809 4.318-4.997 7.642-4.997 4.616 0 8.358 3.742 8.358 8.358 0 3.689-2.39 6.82-5.706 7.928l1.135 3.847c4.976-1.599 8.578-6.266 8.578-11.775 0-6.829-5.536-12.365-12.365-12.365z" fill="#0a7bff"/><path d="m37.989 18.956c-1.01 3.179-.661 6.463.717 9.23l-13.869 10.364c-.325-.195-.673-.359-1.05-.479-2.597-.825-5.371.611-6.195 3.208-.825 2.597.611 5.371 3.208 6.196s5.371-.611 6.196-3.208c.288-.91.295-1.839.076-2.7l17.17-12.627c-2.264-2.129-3.447-5.614-2.444-8.774 1.395-4.388 6.082-6.815 10.47-5.421 3.507 1.114 5.761 4.331 5.814 7.818l3.999.083c-.017-5.214-3.366-10.047-8.603-11.711-6.492-2.062-13.427 1.529-15.489 8.021z" fill="#eb3d00"/><path d="m15.083 52.381c2.69 1.963 5.904 2.682 8.951 2.268l5.471 16.351c-.286.243-.55.519-.781.835-1.59 2.18-1.098 5.247 1.1 6.851s5.27 1.137 6.86-1.043c1.591-2.18 1.099-5.248-1.1-6.852-.769-.561-1.646-.863-2.529-.932l-6.581-20.178c-2.719 1.452-6.383 1.453-9.058-.498-3.714-2.711-4.546-7.894-1.858-11.578 2.148-2.943 5.893-4.039 9.207-2.977l1.327-3.735c-4.936-1.646-10.552-.036-13.759 4.359-3.977 5.45-2.746 13.119 2.75 17.129z" fill="#00bcd4"/><path d="m78.39 71.597c-1.018-3.153-3.202-5.605-5.924-7.044l5.28-16.403c.376-.03.755-.098 1.131-.22 2.589-.836 4.013-3.603 3.182-6.178-.833-2.577-3.606-3.987-6.196-3.15-2.589.836-4.014 3.603-3.182 6.179.292.902.825 1.656 1.501 2.226l-6.655 20.142c3.074.409 6.052 2.541 7.065 5.675 1.406 4.353-1.001 9.028-5.377 10.441-3.496 1.13-7.192-.165-9.253-2.952l-3.301 2.247c3.033 4.204 8.554 6.171 13.775 4.484 6.473-2.091 10.035-9.007 7.954-15.447z" fill="#86c351"/><path d="m40.085 84.828c2.683-1.962 4.335-4.808 4.854-7.845l17.254-.176c.146.348.33.686.562 1.003 1.604 2.192 4.68 2.668 6.872 1.065 2.191-1.603 2.668-4.679 1.065-6.871-1.604-2.192-4.68-2.668-6.872-1.065-.767.562-1.319 1.305-1.65 2.127l-21.24.054c.569 3.044-.53 6.543-3.197 8.493-3.703 2.71-8.901 1.904-11.611-1.799-2.165-2.959-2.085-6.873-.076-9.709l-3.168-2.42c-3.054 4.204-3.204 10.062.029 14.481 4.009 5.479 11.7 6.671 17.178 2.662z" fill="#9032e9"/></svg>