<svg width="100" height="100" viewBox="0 0 100 100" fill="none" xmlns="http://www.w3.org/2000/svg">
<rect width="100" height="100" rx="50" fill="#2F323B"/>
<path d="M38.8796 82.2777C44.8852 82.2777 49.7592 77.4036 49.7592 71.3981V60.5185H38.8796C32.8741 60.5185 28 65.3926 28 71.3981C28 77.4036 32.8741 82.2777 38.8796 82.2777Z" fill="#0ACF83"/>
<path d="M28 49.6388C28 43.6333 32.8741 38.7592 38.8796 38.7592H49.7592V60.5184H38.8796C32.8741 60.5184 28 55.6444 28 49.6388Z" fill="#A259FF"/>
<path d="M28 27.8796C28 21.8741 32.8741 17 38.8796 17H49.7592V38.7592H38.8796C32.8741 38.7592 28 33.8852 28 27.8796Z" fill="#F24E1E"/>
<path d="M49.7592 17H60.6389C66.6444 17 71.5185 21.8741 71.5185 27.8796C71.5185 33.8852 66.6444 38.7592 60.6389 38.7592H49.7592V17Z" fill="#FF7262"/>
<path d="M71.5185 49.6388C71.5185 55.6444 66.6444 60.5184 60.6389 60.5184C54.6333 60.5184 49.7592 55.6444 49.7592 49.6388C49.7592 43.6333 54.6333 38.7592 60.6389 38.7592C66.6444 38.7592 71.5185 43.6333 71.5185 49.6388Z" fill="#1ABCFE"/>
</svg>
