<svg height="100pt" viewBox="0 0 100 100" width="100pt" xmlns="http://www.w3.org/2000/svg"><path d="m0 0h100v100h-100z" fill="#2c384a"/><path d="m26.347 60.712 6.897-44.369c.12-.766.774-1.343 1.562-1.343.603 0 1.126.337 1.393.833l.004.009 7.418 13.915zm48.984 10.767-6.569-40.83c-.131-.754-.781-1.321-1.562-1.321-.435 0-.829.175-1.115.46l-41.416 41.691 22.916 12.915c.665.381 1.463.606 2.314.606s1.65-.225 2.339-.617l-.024.013zm-18.622-35.63-5.309-10.156c-.269-.508-.796-.847-1.4-.847s-1.131.339-1.396.838l-.004.009-23.303 41.761z" fill="#ffca28"/></svg>