<svg enable-background="new 0 0 508 508" viewBox="0 0 508 508" xmlns="http://www.w3.org/2000/svg"><circle cx="254" cy="254" fill="#ffd05b" r="254"/><path d="m269.3 362-73.6-146.9-96.4 109.1-11.8-10.5 111.9-126.5 72 143.7 103.9-152.5 13 8.9z" fill="#324a5e"/><circle cx="381.8" cy="182.9" fill="#fff" r="63.9"/><path d="m381.8 227c-24.4 0-44.2-19.8-44.2-44.2s19.8-44.2 44.2-44.2 44.2 19.8 44.2 44.2-19.9 44.2-44.2 44.2z" fill="#ff7058"/><circle cx="270.4" cy="346.4" fill="#fff" r="54.8"/><path d="m270.4 381.5c-19.3 0-35-15.7-35-35s15.7-35 35-35 35 15.7 35 35-15.7 35-35 35z" fill="#ff7058"/><circle cx="197.5" cy="201.1" fill="#fff" r="45.6"/><path d="m197.5 227c-14.3 0-25.9-11.6-25.9-25.9s11.6-25.9 25.9-25.9 25.9 11.6 25.9 25.9c.1 14.3-11.6 25.9-25.9 25.9z" fill="#ff7058"/><circle cx="93.4" cy="318.9" fill="#fff" r="36.5"/><path d="m93.4 341c-12.2 0-22.1-9.9-22.1-22.1s9.9-22.1 22.1-22.1 22.1 9.9 22.1 22.1-9.9 22.1-22.1 22.1z" fill="#ff7058"/></svg>