<?xml version="1.0" encoding="UTF-8" standalone="no"?><!-- Generator: Gravit.io --><svg xmlns="http://www.w3.org/2000/svg" xmlns:xlink="http://www.w3.org/1999/xlink" style="isolation:isolate" viewBox="0 0 100 100" width="100pt" height="100pt"><path d=" M 98.109 45.541 L 54.446 1.882 C 51.931 -0.63 47.856 -0.63 45.331 1.882 L 36.284 10.944 L 47.784 22.444 C 50.471 21.547 53.531 22.154 55.656 24.282 C 57.806 26.429 58.396 29.522 57.481 32.197 L 68.556 43.282 C 71.243 42.354 74.334 42.957 76.471 45.094 C 79.474 48.094 79.474 52.944 76.471 55.944 C 73.474 58.941 68.634 58.941 65.637 55.944 C 63.39 53.691 62.828 50.372 63.953 47.629 L 53.581 37.313 L 53.581 64.5 C 54.315 64.86 55.006 65.347 55.615 65.95 C 58.587 68.953 58.587 73.797 55.615 76.785 C 52.618 79.788 47.743 79.788 44.743 76.785 C 41.747 73.788 41.747 68.956 44.743 65.96 C 45.503 65.21 46.356 64.644 47.265 64.269 L 47.265 36.816 C 46.362 36.438 45.5 35.891 44.765 35.144 C 42.493 32.872 41.95 29.554 43.115 26.772 L 31.815 15.419 L 1.875 45.341 C -0.625 47.863 -0.625 51.941 1.875 54.463 L 45.54 98.116 C 48.056 100.631 52.131 100.631 54.65 98.116 L 98.109 54.657 C 100.63 52.144 100.63 48.066 98.109 45.544 L 98.109 45.541 Z " fill="rgb(240,80,50)"/></svg>