<svg height="100pt" viewBox="0 0 100 100" width="100pt" xmlns="http://www.w3.org/2000/svg"><path d="m98.109 45.541-43.663-43.659c-2.515-2.512-6.59-2.512-9.115 0l-9.047 9.062 11.5 11.5c2.687-.897 5.747-.29 7.872 1.838 2.15 2.147 2.74 5.24 1.825 7.915l11.075 11.085c2.687-.928 5.778-.325 7.915 1.812 3.003 3 3.003 7.85 0 10.85-2.997 2.997-7.837 2.997-10.834 0-2.247-2.253-2.809-5.572-1.684-8.315l-10.372-10.316v27.187c.734.36 1.425.847 2.034 1.45 2.972 3.003 2.972 7.847 0 10.835-2.997 3.003-7.872 3.003-10.872 0-2.996-2.997-2.996-7.829 0-10.825.76-.75 1.613-1.316 2.522-1.691v-27.453c-.903-.378-1.765-.925-2.5-1.672-2.272-2.272-2.815-5.59-1.65-8.372l-11.3-11.353-29.94 29.922c-2.5 2.522-2.5 6.6 0 9.122l43.665 43.653c2.516 2.515 6.591 2.515 9.11 0l43.459-43.459c2.521-2.513 2.521-6.591 0-9.113z" fill="#f05032"/></svg>