<svg height="100pt" viewBox="0 0 100 100" width="100pt" xmlns="http://www.w3.org/2000/svg"><path d="m100 0h-100v100q37.603 1.328 37.603 0c0-1.187-.04-8.061-.062-12.226-13.91 3.015-16.841-6.71-16.841-6.71-2.275-5.771-5.563-7.312-5.563-7.312-4.528-3.1.35-3.038.35-3.038 5.022.35 7.66 5.15 7.66 5.15 4.459 7.647 11.703 5.438 14.562 4.16.45-3.235 1.738-5.438 3.166-6.688-11.103-1.25-22.775-5.55-22.775-24.709 0-5.459 1.938-9.916 5.147-13.416-.563-1.262-2.25-6.347.437-13.234 0 0 4.188-1.341 13.75 5.125 4-1.113 8.25-1.663 12.5-1.688 4.25.025 8.5.575 12.5 1.688 9.5-6.466 13.688-5.125 13.688-5.125 2.687 6.887 1 11.972.5 13.234 3.187 3.5 5.125 7.96 5.125 13.416 0 19.209-11.688 23.437-22.813 24.666 1.75 1.5 3.375 4.565 3.375 9.25 0 6.69-.062 15.832-.062 17.457q0 1.313 37.753 0z"/></svg>