<svg width="35" height="35" viewBox="0 0 35 35" fill="none" xmlns="http://www.w3.org/2000/svg">
<g clip-path="url(#clip0_1_11)">
<rect width="35" height="35" fill="black"/>
<path d="M34.9305 17.5076C34.9305 27.1684 26.9534 35.9332 17.3077 35.9332C7.66187 35.9332 0 27.1684 0 17.5076C0 7.84679 7.81945 0.0151672 17.4652 0.0151672C27.111 0.0151672 34.9305 7.84679 34.9305 17.5076Z" fill="white"/>
<path fill-rule="evenodd" clip-rule="evenodd" d="M35.5471 17.9594C35.5471 26.1512 30.3819 33.1113 23.2548 35.5673C22.3521 35.7545 22.0136 35.1742 22.0136 34.6875C22.0136 34.0622 22.0354 32.0667 22.0354 29.5844C22.0354 27.8435 21.4712 26.7315 20.816 26.1512C24.8309 25.6869 29.0497 24.1107 29.0497 16.9859C29.0497 14.9454 28.3508 13.2981 27.2006 11.9989C27.3826 11.5347 28.0123 9.63273 27.0186 7.07933C27.0186 7.07933 25.508 6.57015 22.0573 8.98127C20.6122 8.56195 19.0798 8.35603 17.5473 8.35603C16.0149 8.35603 14.4788 8.56569 13.0374 8.98127C9.58303 6.59261 8.07243 7.07933 8.07243 7.07933C7.07872 9.63273 7.71207 11.5347 7.89043 11.9989C6.7402 13.2981 6.04132 14.9679 6.04132 16.9859C6.04132 24.0845 10.2382 25.6869 14.2531 26.1512C13.7326 26.6155 13.2594 27.4279 13.1029 28.6335C12.0655 29.1202 9.47019 29.9102 7.84675 27.1022C7.50823 26.5443 6.49268 25.1778 5.07308 25.2002C3.56249 25.2227 4.4652 26.0801 5.09492 26.4283C5.86296 26.87 6.7402 28.5174 6.94404 29.049C7.30439 30.0936 8.47647 32.0892 13.0119 31.228C13.0119 32.7818 13.0337 34.2457 13.0337 34.6837C13.0337 35.1705 12.6952 35.7283 11.7925 35.5636C4.61808 33.1038 -0.547058 26.1662 -0.547058 17.9556C-0.547058 7.70458 7.53007 -0.603333 17.5 -0.603333C27.4699 -0.603333 35.5471 7.70458 35.5471 17.9594Z" fill="black"/>
</g>
<defs>
<clipPath id="clip0_1_11">
<rect width="35" height="35" fill="white"/>
</clipPath>
</defs>
</svg>
