<svg enable-background="new 0 0 1024 1024" viewBox="0 0 1024 1024" xmlns="http://www.w3.org/2000/svg"><path clip-rule="evenodd" d="m1007.8 511.6c0 218.8-141.9 404.7-337.7 470.3-24.8 5-34.1-10.5-34.1-23.5 0-16.7.6-70 .6-136.3 0-46.5-15.5-76.2-33.5-91.7 110.3-12.4 226.2-54.5 226.2-244.8 0-54.5-19.2-98.5-50.8-133.2 5-12.4 22.3-63.2-5-131.4 0 0-41.5-13.6-136.3 50.8-39.7-11.2-81.8-16.7-123.9-16.7s-84.3 5.6-123.9 16.7c-94.9-63.8-136.4-50.8-136.4-50.8-27.3 68.2-9.9 119-5 131.4-31.6 34.7-50.8 79.3-50.8 133.2 0 189.6 115.3 232.4 225.6 244.8-14.3 12.4-27.3 34.1-31.6 66.3-28.5 13-99.8 34.1-144.4-40.9-9.3-14.9-37.2-51.4-76.2-50.8-41.5.6-16.7 23.5.6 32.8 21.1 11.8 45.2 55.8 50.8 70 9.9 27.9 42.1 81.2 166.7 58.2 0 41.5.6 80.6.6 92.3 0 13-9.3 27.9-34.1 23.5-197.1-65.7-339-251-339-470.3 0-273.8 221.9-495.7 495.8-495.7s495.8 221.9 495.8 495.8z" fill-rule="evenodd"/></svg>