<svg fill="none" height="90" viewBox="0 0 90 90" width="90" xmlns="http://www.w3.org/2000/svg"><path d="m32.5853 56.6104c-1.5736-1.0632-2.6632-2.6156-3.258-4.6684l3.6528-1.5052c.3316 1.2632.9104 2.242 1.7368 2.9368.8212.6948 1.8212 1.0368 2.9896 1.0368 1.1948 0 2.2212-.3632 3.0789-1.0896.8576-.7264 1.2896-1.6528 1.2896-2.7736 0-1.1472-.4528-2.0844-1.3581-2.8104-.9052-.726-2.042-1.0896-3.4-1.0896h-2.1104v-3.6156h1.8944c1.1684 0 2.1528-.3156 2.9528-.9472.8001-.6316 1.2001-1.4948 1.2001-2.5948 0-.9788-.358-1.758-1.0737-2.342-.7156-.584-1.6212-.8788-2.7212-.8788-1.0736 0-1.9264.2844-2.558.858s-1.0896 1.2788-1.3788 2.1104l-3.6156-1.5052c.4788-1.358 1.358-2.558 2.6472-3.5948 1.2896-1.0368 2.9368-1.558 4.9368-1.558 1.4788 0 2.8104.2844 3.9897.858 1.1788.5736 2.1052 1.3684 2.7736 2.3788.6684 1.0156 1 2.1528 1 3.4156 0 1.2896-.3104 2.3788-.9316 3.2736s-1.3844 1.5788-2.2896 2.058v.2156c1.1948.5 2.1684 1.2632 2.9368 2.2896.7632 1.0264 1.1472 2.2528 1.1472 3.6844s-.3632 2.7104-1.0896 3.8316-1.7316 2.0052-3.0052 2.6472c-1.2788.642-2.7157.9684-4.3105.9684-1.8472.0052-3.5524-.5264-5.126-1.5896z" fill="#4285f4"/><path d="m54.9988 38.4848-3.9896 2.9-2.0052-3.042 7.1948-5.1896h2.7581v24.4788h-3.9581z" fill="#4285f4"/><path d="m66.0528 85.0001 18.9472-18.9472-9.4736-4.2104-9.4736 4.2104-4.2105 9.4736z" fill="#ea4335"/><path d="m19.7375 75.5263 4.2105 9.4735 42.1048.0003v-18.9472l-42.1048-.0002z" fill="#34a853"/><path d="m11.3157 5c-3.48919 0-6.31559 2.82639-6.31559 6.3156v54.7367l9.47359 4.2104 9.4743-4.21-.0006-42.1055h42.1053l4.2104-9.4736-4.21-9.4736z" fill="#4285f4"/><path d="m5.00011 66.0523-.00011 12.6317c0 3.4896 2.82641 6.3156 6.3156 6.3156l12.6324.0002v-18.9471z" fill="#188038"/><path d="m66.0527 23.9472v42.1047h18.9472v-42.1051l-9.4736-4.2104z" fill="#fbbc05"/><path d="m84.9999 23.9468v-12.6311c0-3.48962-2.8264-6.31561-6.3156-6.31561l-12.6312-.00009-.0004 18.9472z" fill="#1967d2"/></svg>