<svg fill="none" height="72" viewBox="0 0 72 72" width="72" xmlns="http://www.w3.org/2000/svg"><path d="m49.9082 8.5909v53.9999c0 6.0469 4.1673 9.4091 8.5903 9.4091 4.0906 0 8.5902-2.8636 8.5902-9.4091v-53.5908c0-5.5355-4.0906-9-8.5902-9-4.4997 0-8.5903 3.8224-8.5903 8.5909z" fill="#f8ab00"/><g fill="#e37300"><path d="m27.4097 35.9995v26.5909c0 6.0469 4.1673 9.4091 8.5903 9.4091 4.0906 0 8.5902-2.8636 8.5902-9.4091v-26.1818c0-5.5355-4.0906-8.9999-8.5902-8.9999-4.4997 0-8.5903 3.8224-8.5903 8.5908z"/><path d="m22.0919 63.409c0 4.7429-3.8477 8.5909-8.5902 8.5909-4.74262 0-8.59032-3.848-8.59032-8.5909s3.8477-8.5909 8.59032-8.5909c4.7425 0 8.5902 3.848 8.5902 8.5909z"/></g></svg>