<svg fill="none" height="32" viewBox="0 0 32 32" width="32" xmlns="http://www.w3.org/2000/svg"><path d="m18.1016 16 3.1198 3.5651 4.1953 2.6797.7317-6.2214-.7317-6.0859-4.2761 2.3542z" fill="#188038"/><path d="m0 21.6667v5.302c0 1.2136.981771 2.1954 2.19531 2.1954h5.30209l1.09635-4.0079-1.09635-3.4895-3.63803-1.0964z" fill="#1967d2"/><path d="m7.4974 2.83301-7.4974 7.49739 3.85938 1.0964 3.63802-1.0964 1.07812-3.4427z" fill="#ea4335"/><path d="m0 21.666h7.4974v-11.3359h-7.4974z" fill="#4285f4"/><path d="m30.2056 6.00813-4.789 3.92969v12.30728l4.8099 3.9453c.7213.5625 1.7734.0495 1.7734-.8646v-18.46871c0-.92708-1.0781-1.4349-1.7943-.84896zm-12.1041 9.99217v5.6693h-10.60419v7.4974h15.72659c1.2135 0 2.1953-.9818 2.1953-2.1953v-4.7266z" fill="#34a853"/><path d="m23.2239 2.83301h-15.72659v7.49739h10.60679v5.6693l7.3125-6.06252v-4.90886c0-1.21354-.9818-2.19531-2.1927-2.19531z" fill="#fbbc04"/></svg>