<svg fill="none" height="128" viewBox="0 0 128 128" width="128" xmlns="http://www.w3.org/2000/svg"><path d="m80.6002 40.2998h.4l-.2-.2 14-14v-.3c-11.8-10.4-28.1-14-43.2-9.5s-26.7 16.5-30.9 31.7c.2-.1.5-.2.8-.2 5.2-3.4 11.4-5.4 17.9-5.4 2.2 0 4.3.2 6.4.6.1-.1.2-.1.3-.1 9-9.9 24.2-11.1 34.6-2.6z" fill="#ea4535"/><path d="m108.1 47.8002c-2.3-8.5-7.1-16.2-13.8002-22.1l-14.3 14.2c6 4.9 9.5 12.3 9.3 20v2.5c16.9002 0 16.9002 25.2 0 25.2h-25.4v19.9998h-.1l.1.2h25.4c14.6002.1 27.5002-9.2998 31.8002-23.0998s-1-28.8-13-36.9z" fill="#557ebf"/><path d="m38.9999 107.9h26.3v-20.1999h-26.3c-1.9 0-3.7-.4-5.4-1.1l-15.2 14.5999v.2c6 4.3 13.2 6.6 20.7 6.6z" fill="#36a852"/><path d="m40.1999 41.8999c-14.9.1-28.1 9.3-32.90003 22.8-4.8 13.6 0 28.5 11.80003 37.3001l15.6-14.9001c-8.6-3.7-10.6-14.5-4-20.8 6.6-6.4 17.8-4.4 21.7 3.8l15.6-14.9c-6.6-8.3-16.9-13.2-27.8-13.1z" fill="#f9bc15"/></svg>