<svg height="100pt" viewBox="0 0 100 100" width="100pt" xmlns="http://www.w3.org/2000/svg"><path d="m99.011 51.15c0-3.399-.276-6.816-.864-10.16h-47.16v19.254h27.007c-1.121 6.209-4.722 11.703-9.994 15.193v12.493h16.111c9.462-8.708 14.9-21.568 14.9-36.78z" fill="#4285f4"/><path d="m50.987 100c13.485 0 24.857-4.428 33.143-12.07l-16.112-12.493c-4.483 3.05-10.27 4.777-17.012 4.777-13.044 0-24.104-8.8-28.072-20.632h-16.626v12.879c8.487 16.883 25.775 27.539 44.679 27.539z" fill="#34a853"/><path d="m22.916 59.582c-2.095-6.209-2.095-12.933 0-19.143v-12.878h-16.608c-7.092 14.128-7.092 30.772 0 44.9z" fill="#fbbc04"/><path d="m50.987 19.79c7.129-.111 14.018 2.572 19.18 7.495l14.275-14.275c-9.039-8.487-21.035-13.154-33.455-13.007-18.904 0-36.192 10.656-44.679 27.558l16.608 12.878c3.95-11.849 15.028-20.649 28.071-20.649z" fill="#ea4335"/></svg>