<svg viewBox="0 0 150 150" xmlns="http://www.w3.org/2000/svg"><path d="m89.77 10.4c-4.4-1.39-9.08-2.15-13.94-2.15-14.18 0-26.87 6.41-35.33 16.48l21.8 18.34z" fill="#1a73e8"/><path d="m40.49 24.73c-6.74 8.02-10.81 18.37-10.81 29.66 0 8.68 1.73 15.71 4.57 22.01l28.04-33.33z" fill="#ea4335"/><path d="m75.83 36.75c9.75 0 17.65 7.9 17.65 17.65 0 4.34-1.57 8.32-4.17 11.39 0 0 13.94-16.58 27.47-32.66-5.59-10.75-15.28-19.02-27-22.73l-27.49 32.67c3.24-3.87 8.1-6.32 13.54-6.32" fill="#4285f4"/><path d="m75.83 72.04c-9.75 0-17.65-7.9-17.65-17.65 0-4.31 1.55-8.26 4.11-11.33l-28.04 33.34c4.79 10.63 12.76 19.16 20.97 29.91l34.08-40.52c-3.23 3.82-8.07 6.25-13.47 6.25" fill="#fbbc04"/><path d="m88.63 117.37c15.39-24.07 33.34-35 33.34-62.98 0-7.67-1.88-14.9-5.19-21.26l-61.55 73.18c2.61 3.42 5.24 7.06 7.81 11.07 9.36 14.46 6.76 23.13 12.8 23.13 6.02-0 3.43-8.68 12.79-23.14" fill="#34a853"/></svg>