<svg fill="none" height="128" viewBox="0 0 128 128" width="128" xmlns="http://www.w3.org/2000/svg"><g fill="#e434aa"><path d="m18.39 96.8521-4.6-2.657 51.25-88.76102 4.597 2.656z"/><path d="m12.7339 87.1055h102.4961v5.31h-102.4961z"/><path d="m66.0306 119.688-51.265-29.5978 2.656-4.602 51.266 29.6018zm44.5354-77.1448-51.2654-29.602 2.656-4.59696 51.2664 29.59696z"/><path d="m17.4339 42.5232-2.657-4.601 51.27-29.59798 2.656 4.59798z"/><path d="m109.621 96.8521-51.2462-88.76202 4.598-2.656 51.2502 88.76102zm-92.8212-62.454h5.313v59.204h-5.312z"/><path d="m105.887 34.3984h5.312v59.204h-5.312z"/><path d="m65.1291 117.441-2.32-4.02 44.5859-25.7447 2.32 4.02z"/><path d="m118.238 95.3282c-3.07 5.3438-9.918 7.1678-15.261 4.098-5.3441-3.074-7.1681-9.922-4.0981-15.266 3.0741-5.344 9.9221-7.168 15.2661-4.097 5.375 3.1051 7.199 9.921 4.093 15.265zm-89.1481-51.488c-3.074 5.344-9.922 7.168-15.266 4.097-5.34405-3.074-7.16805-9.921-4.09705-15.265 3.07405-5.344 9.92105-7.168 15.26505-4.098 5.344 3.106 7.168 9.922 4.098 15.266zm-19.32805 51.488c-3.075-5.344-1.25-12.16 4.09305-15.266 5.344-3.07 12.16-1.246 15.266 4.098 3.07 5.344 1.246 12.16-4.098 15.266-5.375 3.0698-12.191 1.2458-15.26105-4.098zm89.14805-51.488c-3.07-5.344-1.246-12.16 4.0981-15.266 5.344-3.07 12.16-1.246 15.265 4.098 3.07 5.344 1.247 12.16-4.097 15.266-5.344 3.07-12.192 1.246-15.2661-4.098zm-34.91 82.8158c-1.467.002-2.9199-.286-4.2754-.847-1.3556-.561-2.5872-1.384-3.6246-2.421-1.0373-1.037-1.8598-2.269-2.4206-3.624-.5608-1.356-.8488-2.809-.8474-4.276-.0014-1.467.2866-2.92.8474-4.275.5608-1.356 1.3833-2.587 2.4206-3.625 1.0374-1.037 2.269-1.86 3.6246-2.42 1.3555-.561 2.8084-.849 4.2754-.848 1.4669-.001 2.9198.287 4.2753.848 1.3556.56 2.5872 1.383 3.6246 2.42 1.0373 1.038 1.8598 2.269 2.4206 3.625.5608 1.355.8488 2.808.8475 4.275 0 6.145-4.9921 11.168-11.168 11.168zm0-102.9758c-1.467.0014-2.9199-.2866-4.2754-.8474-1.3556-.5608-2.5872-1.3834-3.6246-2.4207-1.0373-1.0373-1.8598-2.2689-2.4206-3.6245-.5608-1.3555-.8488-2.8084-.8474-4.2754-.0014-1.4669.2866-2.91976.8474-4.27532s1.3833-2.58723 2.4206-3.62454c1.0374-1.03731 2.269-1.85988 3.6246-2.42066 1.3555-.56078 2.8084-.84875 4.2754-.84744 1.4669-.00131 2.9198.28666 4.2753.84744 1.3556.56078 2.5872 1.38335 3.6246 2.42066 1.0373 1.03731 1.8598 2.26898 2.4206 3.62454s.8488 2.80842.8475 4.27532c.0013 1.467-.2867 2.9199-.8475 4.2754-.5608 1.3556-1.3833 2.5872-2.4206 3.6245-1.0374 1.0373-2.269 1.8599-3.6246 2.4207-1.3555.5608-2.8084.8488-4.2753.8474z"/></g></svg>