<svg height="100pt" viewBox="0 0 100 100" width="100pt" xmlns="http://www.w3.org/2000/svg"><path d="m0 0h100v100h-100z" fill="#da4648"/><path d="m59.206 69.674 1.855-3.16s-4.211 1.723-11.259 1.723c-7.052 0-11.199-1.656-11.199-1.656l2.073 3.45.735 10.876c0 1.174 3.832 2.093 8.564 2.093 4.733 0 8.568-.917 8.568-2.093l.667-11.185zm1.793-20.548c-2.242.133-3.362 2.633-4.488 5.265-.418.962-1.838 5.066-2.765 4.558-.928-.505 1.205-3.876 1.805-5.882-.692.508-3.223 2.477-3.877.628-1.043.917-3.292 1.4-3.038-.96-.558 1.006-1.811 2.4-3.323 1.791-1.962-.743 1.153-7.032 1.925-6.728.777.352-.155 1.75-.396 2.316-.542 1.223-1.161 2.794-.743 3.1.7.567 2.636-2.05 2.679-2.098.361-.481 1.398-3.585 2.225-3.228.831.391-2.074 4.495-.991 5.326.221.175 1.118-.087 1.66-.698.35-.35.228-1.225 1.398-4.018 1.179-2.798 2.229-6.289 3.03-6.026.8.262.142 2.049-.149 2.749-1.354 3.144-3.699 8.295-2.597 7.903 1.092-.393 1.661-.393 2.75-1.66 1.089-1.266 1.006-3.36 1.748-3.316.7.042.612.742.437 1.218.7-.787 3.36-2.53 3.975-.829.741 2.006-3.804 4.935-2.667 4.76 1.094-.131 2.881-1.266 3.669-2.312l2.097-18.958s-2.141 1.75-15.635 1.75-15.411-1.704-15.411-1.704l1.787 17.296c.963-2.706 3.231-8.208 6.773-7.991 1.616.087 3.799 3.235 1.918 3.323-.787.043-.875-1.573-1.791-1.792-.698-.133-1.617.394-2.225 1.006-1.179 1.179-3.804 5.852-3.454 8.17.438 2.969 4.104-1.008 4.716-2.187.435-.825.742-3.318 1.656-3.056.962.263-.085 2.842-.787 5.066-.788 2.535-1.179 5.195-2.135 4.889-.963-.304.61-3.579.518-4.147-.912.872-2.575 2.975-4.758 1.922l1.092 10.789s2.973 2.312 11.88 2.312 12.011-2.312 12.011-2.312l1.398-12.493c-1.136 1.138-4.717 3.1-4.935.875-.173-1.791 3.887-4.368 2.841-4.416zm4.594-34.174-7.754 8.165-1.418 5.546c5.486.35 9.301 1.126 9.301 2.023 0 1.223-7.041 2.207-15.723 2.207s-15.721-1-15.721-2.225c0-1.222 7.041-2.229 15.723-2.229 1.234 0 2.461 0 3.686.046l1.636-6.638 8.24-8.735c.199-.262.816-.043 1.382.438.567.435.873 1.004.698 1.266v.088zm-11.182 16.902s-1.525 0-1.778-.234c-.064-.072-.105-.168-.105-.263 0-.168.113-.264.262-.321l.129.219c-.061.017-.085.043-.096.067 0 .121.916.202 1.619.193.697-.009 1.548-.068 1.555-.186 0-.035-.068-.068-.177-.096l.131-.21c.184.059.341.168.341.352 0 .322-.411.374-.671.411-.313.044-1.201.068-1.201.068z" fill="#fff"/></svg>