<?xml version="1.0" encoding="UTF-8" standalone="no"?><!-- Generator: Gravit.io --><svg xmlns="http://www.w3.org/2000/svg" xmlns:xlink="http://www.w3.org/1999/xlink" style="isolation:isolate" viewBox="0 0 100 100" width="100pt" height="100pt"><rect x="0" y="0" width="100" height="100" transform="matrix(1,0,0,1,0,0)" fill="rgb(218,70,72)"/><path d=" M 59.206 69.674 L 61.061 66.514 C 61.061 66.514 56.85 68.237 49.802 68.237 C 42.75 68.237 38.603 66.581 38.603 66.581 L 40.676 70.031 L 41.411 80.907 C 41.411 82.081 45.243 83 49.975 83 C 54.708 83 58.543 82.083 58.543 80.907 L 59.21 69.722 L 59.206 69.674 Z  M 60.999 49.126 C 58.757 49.259 57.637 51.759 56.511 54.391 C 56.093 55.353 54.673 59.457 53.746 58.949 C 52.818 58.444 54.951 55.073 55.551 53.067 C 54.859 53.575 52.328 55.544 51.674 53.695 C 50.631 54.612 48.382 55.095 48.636 52.735 C 48.078 53.741 46.825 55.135 45.313 54.526 C 43.351 53.783 46.466 47.494 47.238 47.798 C 48.015 48.15 47.083 49.548 46.842 50.114 C 46.3 51.337 45.681 52.908 46.099 53.214 C 46.799 53.781 48.735 51.164 48.778 51.116 C 49.139 50.635 50.176 47.531 51.003 47.888 C 51.834 48.279 48.929 52.383 50.012 53.214 C 50.233 53.389 51.13 53.127 51.672 52.516 C 52.022 52.166 51.9 51.291 53.07 48.498 C 54.249 45.7 55.299 42.209 56.1 42.472 C 56.9 42.734 56.242 44.521 55.951 45.221 C 54.597 48.365 52.252 53.516 53.354 53.124 C 54.446 52.731 55.015 52.731 56.104 51.464 C 57.193 50.198 57.11 48.104 57.852 48.148 C 58.552 48.19 58.464 48.89 58.289 49.366 C 58.989 48.579 61.649 46.836 62.264 48.537 C 63.005 50.543 58.46 53.472 59.597 53.297 C 60.691 53.166 62.478 52.031 63.266 50.985 L 65.363 32.027 C 65.363 32.027 63.222 33.777 49.728 33.777 C 36.234 33.777 34.317 32.073 34.317 32.073 L 36.104 49.369 C 37.067 46.663 39.335 41.161 42.877 41.378 C 44.493 41.465 46.676 44.613 44.795 44.701 C 44.008 44.744 43.92 43.128 43.004 42.909 C 42.306 42.776 41.387 43.303 40.779 43.915 C 39.6 45.094 36.975 49.767 37.325 52.085 C 37.763 55.054 41.429 51.077 42.041 49.898 C 42.476 49.073 42.783 46.58 43.697 46.842 C 44.659 47.105 43.612 49.684 42.91 51.908 C 42.122 54.443 41.731 57.103 40.775 56.797 C 39.812 56.493 41.385 53.218 41.293 52.65 C 40.381 53.522 38.718 55.625 36.535 54.572 L 37.627 65.361 C 37.627 65.361 40.6 67.673 49.507 67.673 C 58.414 67.673 61.518 65.361 61.518 65.361 L 62.916 52.868 C 61.78 54.006 58.199 55.968 57.981 53.743 C 57.808 51.952 61.868 49.375 60.822 49.327 L 60.999 49.126 Z  M 65.593 14.952 L 57.839 23.117 L 56.421 28.663 C 61.907 29.013 65.722 29.789 65.722 30.686 C 65.722 31.909 58.681 32.893 49.999 32.893 C 41.317 32.893 34.278 31.893 34.278 30.668 C 34.278 29.446 41.319 28.439 50.001 28.439 C 51.235 28.439 52.462 28.439 53.687 28.485 L 55.323 21.847 L 63.563 13.112 C 63.762 12.85 64.379 13.069 64.945 13.55 C 65.512 13.985 65.818 14.554 65.643 14.816 L 65.643 14.904 L 65.593 14.952 Z  M 54.411 31.854 C 54.411 31.854 52.886 31.854 52.633 31.62 C 52.569 31.548 52.528 31.452 52.528 31.357 C 52.528 31.189 52.641 31.093 52.79 31.036 L 52.919 31.255 C 52.858 31.272 52.834 31.298 52.823 31.322 C 52.823 31.443 53.739 31.524 54.442 31.515 C 55.139 31.506 55.99 31.447 55.997 31.329 C 55.997 31.294 55.929 31.261 55.82 31.233 L 55.951 31.023 C 56.135 31.082 56.292 31.191 56.292 31.375 C 56.292 31.697 55.881 31.749 55.621 31.786 C 55.308 31.83 54.42 31.854 54.42 31.854 L 54.411 31.854 Z " fill="rgb(255,255,255)"/></svg>