<svg height="100pt" viewBox="0 0 100 100" width="100pt" xmlns="http://www.w3.org/2000/svg"><path d="m0 0h100v100h-100z" fill="#009ee1"/><path d="m86.614 36.431c1.051.717 1.179 3.123.321 4.478-.637.922-1.434 1.722-2.353 2.362-1.663 1.317-3.5 2.399-5.459 3.215-1.721.907-3.519 1.66-5.374 2.247-3.264 1.133-6.613 2.003-10.015 2.604-7.978 1.437-16.131 1.616-24.165.532-4.85-.619-9.62-1.755-14.228-3.391-.299-.105-.585-.255-.88-.382-3.602-1.258-6.993-2.908-9.909-5.415-1.337-1.139-2.226-2.498-2.023-4.398.027-.648.297-1.262.756-1.72 1.065-.998 2.397-1.482 3.77-1.878 3.835-1.104 7.793-1.46 11.752-1.706 11.466-.713 22.941-.665 34.417-.383 3.496.083 6.997.198 10.476.585 2.974.28 5.928.743 8.845 1.385 1.459.369 2.837 1.001 4.069 1.865zm-24.604 8.634c4.284-.836 8.449-1.992 12.293-4.126.466-.4.959-.787 1.399-1.196.378-.339.321-.646-.093-.923-.652-.414-1.37-.712-2.124-.88-2.628-.616-5.312-.96-8.01-1.025-11.009-.555-22.04-.502-33.044.158-2.357.176-4.733.374-7.002 1.219-1.786.681-1.812.884-.44 2.15.04.043.077.089.11.137 2.197 1.482 4.644 2.557 7.222 3.171 2.221.523 4.385 1.254 6.62 1.605 2.45.448 4.933.699 7.424.753 3.272-.009 6.545.079 9.817-.194 1.956-.177 3.902-.46 5.828-.849zm-11.924 14.937c-8.256 0-16.274-1.28-23.993-4.306-2.819-1.109-5.537-2.428-7.86-4.42-1.205-1.034-2.15-2.2-1.975-3.959.11-1.1.304-1.258 1.188-.669 2.467 1.583 5.128 2.841 7.917 3.743 4.434 1.511 8.998 2.606 13.635 3.273 1.878.281 3.76.519 5.638.739 1.443.167 2.925 0 4.399.039 3.013.123 6.032-.002 9.025-.374 8.062-1.016 15.931-2.81 23.161-6.738.493-.268.977-.563 1.456-.853.722-.44.968-.343 1.082.484.221 1.097-.08 2.234-.813 3.079-.854.946-1.835 1.767-2.917 2.441-6.513 4.134-13.784 5.951-21.309 6.993-2.862.385-5.747.562-8.634.528zm31.822-5.041c-.015.566-.064 1.13-.15 1.689-.717 1.808-2.208 2.934-3.743 3.91-1.429.94-2.941 1.749-4.517 2.415-3.893 1.632-7.951 2.837-12.104 3.593-2.85.511-5.714.735-8.599.95-2.625.134-5.257.096-7.877-.114-4.414-.286-8.778-1.095-13.002-2.41-2.386-.685-4.708-1.577-6.94-2.666-2.384-1.191-4.724-2.485-6.342-4.71-.88-1.21-.647-2.582-.44-3.901.083-.537.453-.308.721-.097 1.156.878 2.392 1.647 3.69 2.296 2.418 1.181 4.917 2.19 7.477 3.017 2.459.844 4.997 1.223 7.477 1.847 1.5.379 3.088.405 4.632.625 3.026.435 6.074.321 9.118.374 3.422.008 6.838-.3 10.204-.92 3.496-.566 6.933-1.449 10.27-2.639 1.48-.514 2.929-1.118 4.336-1.807.313-.167 3.682-1.821 4.861-2.806.554-.462.747-.291.84.299.052.347.061.703.088 1.055z" fill="#fff"/></svg>