<svg fill="none" height="512" viewBox="0 0 512 512" width="512" xmlns="http://www.w3.org/2000/svg"><path d="m343.067 171.714c1.403-36.571-7.834-51.333-14.766-61.887-7.035-9.8479-23.91-25.3205-44.646-25.9691-19.61-.611-24.327 10.2264-42.418 10.8817-2.966-32.9455 21.897-51.0225 21.897-51.0225s-6.8-9.6085-12.425-11.9535c-6.472 5.7515-21.989 22.272-25.306 44.4519-3.496-32.669-19.828-53.5621-56.037-68.12334-10.284 35.97654 23.671 69.58764 45.732 82.86204-11.694-3.9287-21.842-9.1204-35.472-6.4375-23.821 4.6899-43.458 19.0903-54.65 50.6953-11.189 31.604 3.952 68.474 7.243 79.005 3.293 10.54 27.654 55.306 46.749 61.89 19.09 6.591 19.097 3.622 29.303-.324 10.206-3.949 25.675-11.196 48.398-2.96 22.705 8.227 25.668 10.2 39.82.984 14.165-9.216 32.594-37.854 36.871-46.087 4.28-8.226 6.584-12.51 7.908-16.787 1.645-12.527.536-6.441 1.799-39.219z" fill="#d1d2d3"/><path d="m344.429 222.324v17.882c0 4.188 3.397 7.585 7.585 7.585h28.139c9.049 0 17.733 3.597 24.133 9.997 6.403 6.404 10.001 15.084 10.001 24.136l-.002 82.474c0 .918 0 1.833-.001 2.745l-.001 18.575c0 .851 0 1.696-.001 2.535l-.001 9.759v2.334l-.001 4.523c0 9.073-3.608 17.773-10.039 24.177-6.427 6.403-15.141 9.984-24.214 9.953-9.51.024-19.511.007-27.853-.109-2.041-.041-4.01.737-5.468 2.167-1.454 1.427-2.277 3.379-2.277 5.414v9.027c0 .366 0 .733-.001 1.102l-.001 4.489c0 .377 0 .754-.001 1.13l-.001 2.251c-.004 6.35-.013 12.364-.03 15.991 0 2.246-1 4.375-2.727 5.809-8.694 6.567-39.066 21.122-106.998 21.122-66.529 0-98.212-10.868-108.097-16.592-2.181-1.39-3.502-3.799-3.509-6.38-.03-14.748-.142-67.26-.258-121.448l-.015-7.396c-.135-62.899-.27-125.846-.285-132.646l-.001-.606zm33.639 55.853h-24.159c-2.345 0-4.603.874-6.337 2.434l-.364.345c-1.659 1.663-2.641 3.87-2.765 6.205l-.013.502v110.336c0 2.345.871 4.603 2.433 6.34l.345.364c1.657 1.659 3.87 2.638 6.2 2.761l.501.014h24.159c2.345 0 4.604-.869 6.34-2.43l.364-.345c1.657-1.66 2.638-3.873 2.762-6.203l.013-.501v-110.336c0-2.351-.871-4.604-2.43-6.343l-.345-.364c-1.66-1.657-3.872-2.642-6.203-2.765z" fill="#fefefe"/><path d="m144.384 220.125v235.114c0 2.714 1.447 5.219 3.799 6.574 9.595 4.574 37.437 15.493 86.251 15.493 49.135 0 76.148-13.267 85.197-18.736 2.161-1.389 3.461-3.785 3.461-6.352.021-31.177.021-232.093.021-232.093z" fill="#faaf41"/><path d="m170.655 249.427c5.602 0 10.182 4.379 10.503 9.902l.017.618v181.695c0 5.81-4.71 10.52-10.52 10.52-5.604 0-10.181-4.379-10.502-9.899l-.017-.621v-181.695c0-5.809 4.71-10.52 10.519-10.52z" fill="#ffda95"/><path d="m271.637 268.372c0-3.792-2.232-8.322-5.898-10.595-5.967-3.608-10.626-9.144-13.162-15.739-48.531 1.632-92.822-6.888-115.139-12.906-5.727-1.624-11.53-2.973-17.391-4.038-13.353-2.652-23.5039-14.38-23.5039-28.48 0-15.521 12.3149-28.133 27.6989-28.686 2.967-16.415 17.296-28.877 34.567-28.877 19.422 0 35.168 15.746 35.168 35.168 0 4.085-.738 7.997-2.018 11.649l.103.017c4.338-13.564 17.036-23.394 32.041-23.394 14.906 0 27.539 9.714 31.949 23.152-.13-1.212-.195-2.444-.195-3.693 0-20.2 16.374-36.571 36.571-36.571 16.349 0 30.187 10.732 34.87 25.529l3.185-.833c4.171-2.348 8.967-3.707 14.093-3.707 15.872 0 28.737 12.868 28.73 28.734 0 14.537-10.789 26.548-24.797 28.467-3.175.447-6.284 1.256-9.278 2.41-8.328 3.136-16.841 5.737-25.439 7.884-.431 4.24-1.693 8.233-3.622 11.817-3.488 6.547-5.052 13.947-4.512 21.344-.004.447.013 2.795.013 3.246 0 9.397-7.618 15.114-17.025 15.114-9.391 0-17.009-7.612-17.009-17.012z" fill="#fefefe"/><g fill="#010202"><path d="m264.803 226.866.202.615-.065-.615z"/><path d="m166.383 2 4.677 1.87733c30.054 12.08657 47.551 28.68567 55.139 53.15927 4.799-10.636 12.086-20.0943 20.555-27.8221l3.072-2.7409 2.635 1.0957c1.136.4778 2.27 1.1298 3.417 1.9456 1.781 1.2663 3.587 2.9116 5.417 4.8537 1.389 1.4712 2.713 3.0345 3.938 4.5944l.676.8704.755 1.0137 2.768 3.9083-3.628 2.6385-.495.3823-.683.5598-.84.7407-.986.9114c-2.396 2.2732-4.803 4.9868-7.049 8.1169-6.284 8.7552-10.059 18.8791-10.216 30.3684l-.003 1.338.983-.1604c3.382-.6178 6.564-1.8023 11.219-3.9219l2.659-1.2186c8.995-4.0721 14.381-5.4716 23.402-5.1917 19.159.6008 37.591 13.0151 48.302 28.0162.239.366.482.731.714 1.1l1.379 2.184 1.314 2.171c8.185 13.902 12.127 27.399 12.271 49.2 16.879 1.607 30.081 15.817 30.075 33.113 0 16.684-12.346 30.723-28.707 32.962-.058.01-.112.024-.174.034v12.107c0 1.68 1.366 3.045 3.045 3.045h28.14c10.257 0 20.094 4.072 27.347 11.325 7.254 7.257 11.326 17.094 11.326 27.348l-.004 122.945c0 10.281-4.092 20.139-11.376 27.392-7.284 7.257-17.152 11.315-27.406 11.278-1.447.003-2.867.006-4.263.01l-8.274-.004-10.056-.054-5.369-.062c-.819-.017-1.608.297-2.195.871-.584.573-.915 1.355-.915 2.171l-.01 24.866-.024 9.124c0 3.597-1.601 7.004-4.533 9.431-4.133 3.123-9.622 6.079-16.428 8.755l-2.318.877c-3.55 1.307-7.427 2.54-11.625 3.68l-2.851.747-2.942.72c-2.99.707-6.123 1.373-9.397 1.99l-3.321.605-3.413.57c-2.888.46-5.868.89-8.943 1.28l-3.741.45-3.83.417-3.922.375-4.014.341-4.106.301-4.199.259c-.706.041-1.416.079-2.13.116l-4.331.198-4.42.157c-1.492.041-2.994.082-4.513.113l-4.601.065c-1.546.017-3.11.024-4.686.024h-2.4c-1.591-.011-3.171-.024-4.734-.041l-4.646-.076-4.557-.109c-1.505-.041-2.993-.092-4.468-.143l-4.376-.181c-.723-.034-1.44-.065-2.157-.102l-4.243-.233-4.15-.259-4.059-.297c-.672-.048-1.334-.102-1.997-.157l-3.921-.338c-.646-.061-1.287-.119-1.926-.184l-3.782-.382-3.686-.413c-.608-.072-1.212-.144-1.809-.219l-3.546-.457-3.451-.478-3.352-.509c-1.652-.263-3.27-.529-4.851-.809l-3.109-.57c-.512-.095-1.017-.194-1.519-.293l-2.966-.604-2.864-.625-2.765-.652-2.666-.666c-2.614-.679-5.079-1.389-7.386-2.123l-2.26-.744c-1.106-.375-2.167-.758-3.195-1.15l-2-.782c-2.922-1.191-5.488-2.43-7.697-3.707-3.485-2.222-5.598-6.069-5.608-10.202l-.546-255.167c-15.05-3.557-25.979-16.971-25.979-32.645 0-15.282 10.342-28.167 24.47-32.035-.174-4.648-.068-9.236.413-13.762.642-5.987 1.895-11.704 3.813-17.125 11.001-31.071 30.58-48.2268 58.054-53.6335 4.905-.9625 9.393-1.0718 14.111-.4369-3.564-3.3348-6.984-6.9017-10.097-10.6018-16.507-19.6369-23.764-41.1921-17.766-62.17728zm173.504 228.574-2.182.802c-.46.167-.952.307-1.42.471-4.259 1.498-8.632 2.86-13.079 4.134-2.752.788-2.752.788-5.373 1.532l-.205 1.038c-.621 2.782-1.563 5.465-2.806 8.008l-1.205 2.351c-.221.454-.372.936-.57 1.4-2.242 5.154-3.27 10.8-2.85 16.711l.004.666.01 2.581c0 11.731-9.373 19.66-21.565 19.66-6.189 0-11.756-2.625-15.685-6.806-2.867-3.051-4.847-6.926-5.557-11.243-.187-1.144-.31-2.311-.31-3.506 0-2.434-1.594-5.396-3.707-6.71-5.823-3.523-10.534-8.633-13.589-14.698l-.146-.301-2.987.065c-34.447.587-69.509-3.628-98.29-10.213-3.345-.764-6.629-1.556-9.793-2.382l-2.383-.631c-.065-.021-.136-.035-.205-.055-2.952-.83-5.932-1.58-8.929-2.267l.543 253.229c0 1.034.532 2.003 1.242 2.457 1.318.765 2.796 1.516 4.438 2.253l1.693.727c1.747.724 3.652 1.43 5.717 2.123l2.113.68c1.082.334 2.205.665 3.365.993l2.373.642 2.474.624 2.574.611 2.679.587c.451.099.912.195 1.376.29l2.826.56c.956.185 1.932.369 2.926.546l3.024.519c1.024.171 2.065.338 3.123.499l3.219.474 3.317.454c.56.072 1.123.147 1.693.215l3.462.42 3.556.389 3.649.358c.618.062 1.239.116 1.86.174l3.793.325 3.884.293 3.977.263 4.068.232 4.161.205c.7.031 1.406.058 2.113.089l4.297.157c.721.024 1.448.044 2.181.065l4.431.105c.744.014 1.492.028 2.246.041l4.564.052c1.532.01 3.082.017 4.649.017l2.276-.004c3.782-.02 7.469-.082 11.063-.191l4.266-.147c.704-.024 1.403-.054 2.1-.088l4.13-.205 4.041-.246c.666-.044 1.331-.089 1.987-.137l3.908-.303c.638-.052 1.28-.106 1.915-.161l3.768-.355c.618-.065 1.236-.126 1.85-.191l3.625-.403c.598-.071 1.191-.143 1.782-.215l3.488-.454 3.397-.488 3.304-.512c1.085-.177 2.157-.362 3.208-.542l3.117-.574c1.02-.198 2.031-.396 3.02-.601l2.929-.628 2.83-.648c1.857-.441 3.645-.901 5.376-1.369l2.543-.72c.416-.123.826-.249 1.235-.372l2.4-.748 2.3-.771c7.892-2.727 13.992-5.793 18.238-9.005.686-.57 1.085-1.416 1.085-2.331l.035-33.969c0-3.26 1.314-6.383 3.642-8.66 2.327-2.284 5.475-3.529 8.707-3.461l5.318.058 7.885.048 10.352.01 4.253-.01c7.865.027 15.418-3.076 20.992-8.626 5.571-5.553 8.704-13.093 8.704-20.961l.004-122.945c0-7.847-3.117-15.374-8.667-20.924s-13.076-8.666-20.923-8.666h-28.14c-6.697 0-12.127-5.431-12.127-12.128zm38.181 43.064c3.717 0 7.284 1.477 9.916 4.109 2.631 2.628 4.106 6.195 4.106 9.916v110.336c0 3.717-1.475 7.284-4.11 9.916-2.628 2.628-6.195 4.102-9.912 4.102h-24.156c-3.717 0-7.284-1.474-9.919-4.106-2.629-2.628-4.106-6.195-4.106-9.912v-110.336c0-3.721 1.477-7.288 4.109-9.919 2.632-2.629 6.199-4.106 9.916-4.106zm0 9.086h-24.156c-1.311 0-2.567.519-3.492 1.44-.925.929-1.451 2.188-1.451 3.499v110.336c0 1.311.526 2.567 1.448 3.488.928.929 2.184 1.451 3.495 1.451h24.156c1.311 0 2.567-.522 3.488-1.447.929-.925 1.451-2.181 1.451-3.492v-110.336c0-1.311-.522-2.57-1.447-3.495s-2.181-1.444-3.492-1.444zm-219.259-139.132c-14.855 0-27.481 10.673-30.099 25.146l-.648 3.598-1.895.071-1.761.062c-2.529.088-4.953.577-7.226 1.382-9.393 3.332-16.097 12.278-16.097 22.764 0 10.69 7.007 19.964 16.875 23.224.946.311 1.908.587 2.905.785 3.274.597 6.523 1.297 9.752 2.062 2.69.635 5.362 1.314 8.008 2.061 1.136.307 2.352.591 3.522.891 1.618.41 3.205.83 4.864 1.229 30.277 7.26 68.499 11.875 105.414 10.633l3.229-.11 1.161 3.018c2.164 5.628 6.151 10.38 11.322 13.51 4.867 3.02 8.042 8.929 8.042 14.455l.017.662c.116 2.216.85 4.257 1.976 6.021 2.219 3.465 6.059 5.789 10.476 5.789 7.478 0 12.482-4.232 12.482-10.577l-.014-2.605.014-.307c-.082-1.082-.116-2.161-.116-3.236.01-7.161 1.768-14.234 5.158-20.596l.535-1.051c1.373-2.833 2.246-5.892 2.564-9.066l.321-3.178 3.099-.771c3.164-.792 6.229-1.693 9.295-2.591 2.689-.788 5.348-1.604 7.977-2.458 2.59-.843 5.14-1.727 7.639-2.669l1.426-.525c1.076-.373 2.171-.666 3.267-.96 1.84-.495 3.7-.918 5.598-1.187l.805-.123c.096-.017.185-.041.273-.058 11.357-2.083 19.798-12.029 19.798-23.788.003-12.319-9.22-22.47-21.132-23.975-1.004-.126-2.021-.212-3.059-.212-2.065 0-4.092.266-6.051.775-2.025.526-3.974 1.311-5.81 2.345l-.515.29-7.933 2.065-1.3-4.109c-4.178-13.203-16.473-22.358-30.539-22.358-17.688 0-32.028 14.34-32.028 32.031 0 1.085.058 2.161.167 3.219l3.421 32.611.952 9.086h-.137l-2.983-9.086-10.086-30.724c-3.888-11.851-14.975-20.022-27.631-20.022-12.749 0-23.89 8.277-27.713 20.234l-1.195 3.731-9.315-1.526 1.792-5.11c1.161-3.307 1.762-6.71 1.762-10.148 0-16.913-13.712-30.624-30.625-30.624zm92.471-106.1718-1.113 1.0888c-10.148 10.1308-19.654 27.0951-20.231 37.5433-.58 10.4482 1.123 23.4188 1.123 23.4188l-6.407-1.2253c-2.764-.5291-5.253-1.1537-8.13-2.048l-1.987-.6349c-.344-.1127-.693-.2321-1.051-.3516l-.372-.1297-1.874-.6485-7.482-2.6761-2.055-.6963c-8.352-2.7307-14.274-3.4475-21.197-2.0856-24.299 4.7821-41.304 19.6809-51.244 47.7489-1.676 4.731-2.775 9.756-3.345 15.06-.01.089-.01.181-.021.273 6.991-10.383 18.705-17.196 31.888-17.534l1.027-.014c19.569 0 35.83 14.155 39.107 32.785l.15.918.98-.887c6.522-5.67 14.94-9.121 24.033-9.36l1.024-.013c11.073 0 21.231 4.765 28.283 12.551l.413.467.259-.894c5.001-16.603 20.217-28.781 38.339-29.228l1.031-.011c16.285 0 30.72 9.554 37.328 23.87l.225.508.437-.215c2.625-1.239 5.413-2.092 8.277-2.607-.085-20.788-3.744-32.956-11.537-45.879l-1.246-2.014-1.307-2.034c-9.11-12.7525-25.17-23.5694-41.093-24.0677-7.762-.2424-12.008.9694-20.675 4.9835l-1.444.6621c-7.939 3.6045-12.561 4.963-19.991 5.2327l-4.301.157-.386-4.2871c-1.468-16.2714 3.13-30.4606 11.66-42.339 2.888-4.0244 5.786-7.2329 8.325-9.6086l.15-.1467-.993-1.1674-1.171-1.2868c-.969-1.0274-1.908-1.932-2.792-2.6795zm-78.678-23.0366-.116.7407c-2.331 15.8993 4.086 32.4164 17.234 48.0529 8.025 9.5471 18.347 18.176 27.174 23.5929 1.372.8431 2.713 1.6214 4 2.3006l.741.3857-.003-.7168c-.058-4.6626-.332-9.0794-.826-13.2744-3.465-29.2898-17.903-47.5785-47.729-60.87z"/></g></svg>