<svg fill="none" height="126" viewBox="0 0 126 126" width="126" xmlns="http://www.w3.org/2000/svg"><path d="m18.0372 112.876-10.00497-112.214867h109.93577l-10.016 112.197867-45.0188 12.48z" fill="#e44d26"/><path d="m63 115.8 36.378-10.086 8.559-95.87806h-44.937z" fill="#f16529"/><path d="m62.9998 51.4551h-18.212l-1.258-14.094h19.47v-13.762h-34.511l.33 3.692 3.382 37.927h30.799zm0 35.743-.061.017-15.327-4.14-.979-10.975h-13.817l1.928 21.609 28.193 7.8259.063-.017z" fill="#ebebeb"/><path d="m62.9521 51.4551v13.763h16.9471l-1.597 17.849-15.3501 4.143v14.3189l28.215-7.8199.207-2.325 3.2341-36.233.3349-3.696h-3.708zm0-27.856v13.762h33.244l.276-3.092.628-6.978.329-3.692z" fill="#fff"/></svg>