<svg height="100pt" viewBox="0 0 100 100" width="100pt" xmlns="http://www.w3.org/2000/svg"><path d="m0 0h100v100h-100z" fill="#3880ff"/><path d="m81.848 35.495-.3-.672-.492.549c-1.19 1.354-2.706 2.391-4.39 3.021l-.464.177.192.453c1.383 3.229 2.188 6.989 2.188 10.935v.031-.002c0 15.765-12.825 28.601-28.602 28.601-15.776 0-28.588-12.825-28.588-28.588s12.838-28.602 28.601-28.602c4.279 0 8.409.93 12.25 2.763l.453.219.193-.453c.741-1.697 1.837-3.119 3.204-4.222l.022-.017.576-.464-.657-.341c-4.633-2.446-10.126-3.883-15.953-3.883-.029 0-.057 0-.085 0h.004c-19.305 0-35 15.695-35 35s15.695 35 35 35 35-15.695 35-35c0-5.047-1.052-9.925-3.148-14.507zm-31.857-1.448c-8.807.011-15.944 7.146-15.953 15.953.011 8.807 7.146 15.945 15.953 15.953 8.807-.011 15.945-7.146 15.954-15.953-.016-8.805-7.149-15.94-15.954-15.953h-.002zm30.172-5.854c0 4.018-3.257 7.273-7.273 7.273s-7.273-3.257-7.273-7.273c0-4.019 3.257-7.274 7.273-7.274s7.273 3.258 7.273 7.274z" fill="#fff"/></svg>