<?xml version="1.0" encoding="UTF-8" standalone="no"?><!-- Generator: Gravit.io --><svg xmlns="http://www.w3.org/2000/svg" xmlns:xlink="http://www.w3.org/1999/xlink" style="isolation:isolate" viewBox="0 0 100 100" width="100pt" height="100pt"><path d=" M 35.672 83.653 C 34.292 82.733 33.068 81.605 32.045 80.302 C 30.927 78.953 29.893 77.531 28.942 76.062 C 26.71 72.798 24.963 69.226 23.754 65.463 C 22.296 61.084 21.587 56.892 21.587 52.791 C 21.587 48.215 22.578 44.22 24.508 40.869 C 25.936 38.245 28.066 36.05 30.63 34.509 C 33.107 32.963 35.993 32.119 38.91 32.06 C 39.931 32.06 41.037 32.206 42.205 32.497 C 43.051 32.731 44.07 33.109 45.325 33.575 C 46.927 34.187 47.802 34.566 48.095 34.653 C 49.028 35.003 49.815 35.149 50.427 35.149 C 50.893 35.149 51.564 35.003 52.308 34.771 C 52.73 34.625 53.532 34.362 54.669 33.868 C 55.795 33.459 56.687 33.109 57.395 32.847 C 58.473 32.526 59.518 32.235 60.456 32.088 C 61.593 31.914 62.721 31.854 63.803 31.942 C 65.874 32.088 67.767 32.526 69.46 33.166 C 72.433 34.362 74.831 36.227 76.622 38.879 C 75.863 39.345 75.164 39.887 74.508 40.482 C 73.089 41.735 71.884 43.221 70.922 44.87 C 69.669 47.115 69.027 49.651 69.044 52.216 C 69.088 55.373 69.89 58.147 71.493 60.552 C 72.621 62.301 74.127 63.799 75.964 65.03 C 76.867 65.642 77.66 66.064 78.413 66.342 C 78.063 67.435 77.678 68.5 77.232 69.549 C 76.22 71.902 75.017 74.156 73.587 76.283 C 72.328 78.12 71.338 79.49 70.585 80.393 C 69.414 81.793 68.283 82.842 67.146 83.592 C 65.894 84.423 64.42 84.862 62.914 84.862 C 61.893 84.906 60.874 84.775 59.899 84.493 C 59.053 84.215 58.22 83.905 57.404 83.55 C 56.549 83.159 55.666 82.827 54.765 82.56 C 53.657 82.269 52.52 82.129 51.372 82.132 C 50.207 82.132 49.07 82.278 47.99 82.553 C 47.087 82.809 46.212 83.124 45.346 83.5 C 44.122 84.01 43.32 84.346 42.854 84.491 C 41.909 84.77 40.941 84.939 39.968 85 C 38.453 85 37.04 84.563 35.674 83.651 L 35.672 83.653 Z  M 55.653 29.841 C 53.67 30.831 51.787 31.251 49.901 31.111 C 49.61 29.229 49.901 27.292 50.688 25.173 C 51.387 23.365 52.321 21.734 53.602 20.276 C 54.942 18.761 56.547 17.506 58.353 16.603 C 60.277 15.612 62.113 15.087 63.862 15 C 64.096 16.983 63.862 18.935 63.134 21.034 C 62.47 22.899 61.479 24.62 60.22 26.166 C 58.952 27.681 57.378 28.936 55.653 29.841 Z " fill="rgb(153,153,153)"/></svg>