<svg height="100pt" viewBox="0 0 100 100" width="100pt" xmlns="http://www.w3.org/2000/svg"><path d="m0 0h100v100h-100z" fill="#f7df1e"/><g fill="#fff"><path d="m82.202 70.523c-.625-3.914-3.175-7.204-10.735-10.271-2.631-1.234-5.556-2.092-6.425-4.076-.324-1.179-.375-1.823-.163-2.52.536-2.308 3.271-3.003 5.416-2.359 1.394.429 2.681 1.501 3.488 3.217 3.697-2.416 3.697-2.416 6.274-4.022-.965-1.501-1.445-2.147-2.094-2.788-2.252-2.52-5.252-3.807-10.132-3.698l-2.52.32c-2.416.589-4.719 1.876-6.113 3.592-4.076 4.615-2.899 12.658 2.035 15.983 4.879 3.646 12.014 4.448 12.925 7.882.858 4.183-3.11 5.524-7.027 5.041-2.898-.643-4.504-2.094-6.274-4.775l-6.542 3.756c.751 1.716 1.609 2.464 2.896 3.966 6.22 6.276 21.771 5.955 24.562-3.59.105-.322.858-2.521.265-5.899z"/><path d="m50.501 44.617h-8.085c0 6.971-.032 13.898-.032 20.879 0 4.432.227 8.5-.496 9.752-1.187 2.479-4.243 2.161-5.633 1.726-1.424-.704-2.147-1.675-2.986-3.075-.226-.378-.396-.704-.456-.704l-6.563 4.046c1.098 2.266 2.698 4.217 4.761 5.457 3.075 1.835 7.208 2.428 11.535 1.457 2.816-.812 5.244-2.484 6.514-5.074 1.835-3.345 1.446-7.445 1.427-12.034.044-7.388 0-14.779 0-22.225z"/></g></svg>