<svg fill="none" height="128" viewBox="0 0 128 128" width="128" xmlns="http://www.w3.org/2000/svg"><path d="m1.4082 1.4082h125.1838v125.1848h-125.1838z" fill="#f0db4f"/><path d="m116.347 96.7359c-.917-5.711-4.641-10.508-15.672-14.981-3.8319-1.761-8.1039-3.022-9.3769-5.926-.452-1.69-.512-2.642-.226-3.665.821-3.32 4.784-4.355 7.925-3.403 2.0229.678 3.9379 2.237 5.0929 4.724 5.402-3.498 5.391-3.475 9.163-5.879-1.381-2.141-2.118-3.129-3.022-4.045-3.249-3.629-7.676-5.498-14.7559-5.355l-3.688.477c-3.534.893-6.902 2.748-8.877 5.235-5.926 6.724-4.236 18.492 2.975 23.335 7.104 5.332 17.5399 6.545 18.8729 11.531 1.297 6.1041-4.486 8.0801-10.2339 7.3781-4.236-.881-6.592-3.034-9.139-6.9491-4.688 2.7131-4.688 2.7131-9.508 5.4851 1.143 2.499 2.344 3.63 4.26 5.795 9.068 9.198 31.7599 8.746 35.8299-5.176.165-.478 1.261-3.666.38-8.5811zm-46.8849-37.793h-11.709l-.048 30.272c0 6.438.333 12.3401-.714 14.1491-1.713 3.558-6.152 3.117-8.175 2.427-2.059-1.012-3.106-2.451-4.319-4.485-.333-.584-.583-1.036-.667-1.071l-9.52 5.83c1.583 3.249 3.915 6.069 6.902 7.901 4.462 2.678 10.459 3.499 16.731 2.059 4.082-1.189 7.604-3.652 9.448-7.401 2.666-4.915 2.094-10.8641 2.07-17.4441.06-10.735.001-21.468.001-32.237z" fill="#323330"/></svg>