<svg fill="none" height="100" viewBox="0 0 100 100" width="100" xmlns="http://www.w3.org/2000/svg"><path d="m84.9161 48.1956c0 19.7241-15.6325 35.7137-34.9161 35.7137-19.2823 0-34.9148-15.9896-34.9148-35.7137 0-19.7242 15.6325-35.7138 34.9148-35.7138 19.2836 0 34.9161 15.9896 34.9161 35.7138z" fill="#d33833"/><path d="m16.5088 57.0409s-2.5274-37.2431 31.7888-38.3071l-2.393-3.9908-18.6216 6.2519-5.3212 6.1189-4.6553 8.9113-2.6606 10.3748.7977 6.9165" fill="#ef3d3a"/><path d="m26.086 23.8322c-6.1251 6.2682-9.9168 14.9232-9.9168 24.4965 0 9.5721 3.7917 18.2271 9.9168 24.4953 6.13 6.2657 14.5759 10.1333 23.9141 10.1333 9.3381 0 17.7853-3.8676 23.9141-10.1333 6.125-6.2682 9.9168-14.9232 9.9168-24.4953 0-9.5733-3.7918-18.2283-9.9168-24.4965-6.1288-6.2656-14.5747-10.1321-23.9141-10.1333-9.3382.0012-17.7841 3.8677-23.9141 10.1333zm-1.5493 50.5075c-6.5109-6.6589-10.5366-15.8602-10.5366-26.011 0-10.152 4.0257-19.352 10.5353-26.0109 6.5096-6.6602 15.5192-10.7879 25.4647-10.7867 9.9454-.0012 18.9563 4.1265 25.4634 10.7867 6.5121 6.6589 10.5378 15.8602 10.5365 26.0109 0 10.1508-4.0244 19.3521-10.5365 26.011-6.5071 6.6589-15.518 10.7867-25.4634 10.7867-9.9455 0-18.9551-4.1278-25.4634-10.7867z" fill="#231f20"/><path d="m64.6978 48.3934-5.3199.7977-7.1828.7989-4.6554.1319-4.5223-.1319-3.4582-1.0652-3.0601-3.3239-2.3942-6.7846-.5314-1.4634-3.192-1.0627-1.8629-3.0601-1.3302-4.3891 1.4634-3.8577 3.4583-1.1971 2.7937 1.3303 1.329 2.9269 1.5966-.2664.5326-.6645-.5326-3.06-.1331-3.8577.7989-5.3199-.0311-3.0389 2.4254-3.87765 4.2559-3.0588 7.4479-3.19319 8.2468 1.19714 7.1828 5.188 3.3251 5.3212 2.1292 3.8564.5314 9.5771-1.5954 8.2468-2.9269 7.316-2.7924 3.8565" fill="#f0d6b7"/><path d="m60.1757 71.4041-19.021.7989v3.192l1.5966 11.1724-.7977.9321-13.3017-4.5235-.9308-1.5953-1.3303-15.0302-3.0588-9.0457-.6657-2.128 10.641-7.3147 3.3251-1.3303 2.9269 3.5914 2.5274 2.2611 2.9257.9309 1.3303.3994 1.5966 6.9165 1.1959 1.4635 3.06-1.0653-2.128 4.1241 11.5719 5.453-1.4634.7989" fill="#335061"/><path d="m28.6519 24.9833 3.4582-1.1971 2.7937 1.3303 1.3291 2.9269 1.5966-.2663.3994-1.5966-.7989-3.0588.7989-7.316-.6657-3.9909 2.3942-2.79246 5.1881-4.12402-1.4635-1.99482-7.316 3.59141-3.0588 2.39428-1.7297 3.72451-2.6593 3.5915-.7977 4.2559z" fill="#6d6b6d"/><path d="m34.1049 12.4806s1.9961-4.9217 9.9766-7.31597l.3982-1.7285-8.645 3.3251-3.3251 3.32507-1.4634 2.6606zm-3.9896 11.5719s-2.7937-9.3108 7.8474-10.6411l-.3995-1.5966-7.316 1.7298-2.1279 6.9165.5326 4.5222z" fill="#dcd9d8"/><path d="m34.3713 36.4221 1.7409-1.6875s.7865.0921.9184 1.0229c.1332.9309.5326 9.3108 6.252 13.8331.5214.4131-4.2559-.6658-4.2559-.6658l-4.2572-6.649zm24.4741-2.5262s.3111-4.032 1.3974-3.7221c1.0852.3099 1.0852 1.3962 1.0852 1.3962s-2.6369 1.7049-2.4826 2.3259zm11.0405-14.7651s-2.1939.4629-2.3943 2.3943c-.2028 1.9325 2.3943.3994 2.7925.2663zm-16.0954.1331s-2.9256.3995-2.9256 2.2612c0 1.8616 3.3251 1.7297 4.2571.932zm-18.0889 8.6463s-5.0549-3.06-5.5863-.1332c-.5326 2.9269-1.7297 5.0536.7977 8.1137l-1.7297-.5326-1.5966-4.1228-.5314-3.9909 3.06-3.1919 3.457.2663 1.9961 1.5953zm2.3942-8.38s2.2611-11.70501 13.6999-13.96613c9.4178-1.86166 14.3644.39946 16.2273 2.52742 0 0-8.38-9.9753-16.3605-6.91651-7.9805 3.0588-13.833 8.64502-13.6998 12.23642.2265 6.1164.1331 6.1188.1331 6.1188zm30.858-10.10966s-3.8564-.13191-3.9896 3.32636c0 0 0 .5314.2663 1.064 0 0 3.0588-3.4583 4.9205-1.5966" fill="#f7e4cd"/><path d="m52.0633 14.1705s-.6632-5.30868-5.1892-2.2213c-2.9269 1.9948-2.6606 4.7886-2.128 5.3199.5326.5327.387 1.6041.7927.8687.4045-.7355.2713-3.1298 1.7348-3.7943 1.4622-.6658 3.8614-1.4087 4.7897-.173z" fill="#f7e4cd"/><path d="m39.5581 50.1219-12.5028 5.5875s5.188 20.6164 2.5275 27.0015l-1.8617-.6645-.1344-7.8486-3.457-14.897-1.4634-4.124 13.0353-8.7782zm1.2855 11.4039 1.7745 2.1641v7.9805h-2.1279s-.2664-5.5862-.2664-6.252c0-.6645.2664-3.0588.2664-3.0588zm.0448 11.3417-5.9845.2663 1.7285 1.1972 4.256.6645" fill="#49728b"/><path d="m61.3728 71.5373 4.9217-.1332 1.1971 12.2377-5.0548.6645z" fill="#335061"/><path d="m62.7031 71.5372 7.4479-.3982s3.06-7.7154 3.06-8.1136l2.6606-11.1737-5.9857-6.2508-1.1971-1.0639-3.1932 3.1919v12.3696z" fill="#335061"/><path d="m66.0282 70.6064-4.6554.9308.6645 3.7246c1.7298.7989 4.6554-1.3303 4.6554-1.3303zm.1331-23.277 9.3108 6.9178.2651-3.1932-7.0484-6.517z" fill="#49728b"/><path d="m45.5052 97.7424-2.7539-11.175-1.3701-8.2455-.2265-6.1201 12.4641-.6633 7.754-.0012-.7043 13.9674 1.1971 10.7742-.1344 1.9948-10.1072.7977z" fill="#fff"/><path d="m59.643 71.4041s-.6645 13.833 1.3303 23.6764c0 0-3.9909 2.5274-9.8434 3.1919l11.1737-.3982 1.3303-.7989-1.5966-21.8135-.3983-4.6554" fill="#dcd9d8"/><path d="m67.7182 82.579 5.1868-1.4634 9.8434-.5314 1.4634-4.5235-2.6606-7.8473-3.0588-.3982-4.2571 1.329-4.0842 1.9948-2.1678-.3982-1.69.6633" fill="#fff"/><path d="m67.6235 79.9172s3.4583-1.5953 3.9909-1.4622l-1.4634-7.316 1.7297-.6645s1.1971 6.9153 1.1971 7.7142c0 0 7.4479.3982 8.1137.3982 0 0 1.5953-3.0588 1.1971-6.2507l1.4622 4.2559.1332 2.3943-2.128 3.1919-2.3943.5326-3.9896-.1331-1.3303-1.7285-4.6554.6645-1.4634.5326" fill="#dcd9d8"/><path d="m62.3969 70.4745-2.9256-7.4479-3.06-4.3891s.6657-1.8629 1.5966-1.8629h3.0587l2.9269 1.0653-.2663 4.9204z" fill="#fff"/><path d="m62.9694 67.9458s-3.7245-7.1815-3.7245-8.2455c0 0 .6645-1.5966 1.5953-1.1972.9321.3983 2.9269 1.4622 2.9269 1.4622v-2.5261l-4.5222-.9321-3.0601.3994 5.188 12.2365 1.064.1344" fill="#dcd9d8"/><path d="m46.7023 50.3907-3.6847-.4007-3.4595-1.0652v1.1971l1.6899 1.8642 5.3212 2.3943" fill="#fff"/><path d="m40.7564 50.789s4.1228 1.7297 5.4531 1.3303l.1319 1.5941-3.7233-.7965-2.2612-1.5953z" fill="#dcd9d8"/><path d="m67.7032 57.2276c-2.2574-.0659-4.2958-.3347-6.0815-.8375.122-.7329-.1058-1.451.0772-1.9786.4965-.3584 1.3315-.3522 2.0831-.4356-.6508-.321-1.5642-.4467-2.3146-.2625-.0174-.5077-.2452-.8226-.3833-1.2196 1.2681-.4542 4.2646-3.4221 5.9496-2.439.8027.4679 1.1436 3.1384 1.2058 4.4376.0523 1.0777-.097 2.164-.5363 2.7352z" fill="#d33833"/><path d="m56.9102 53.5379c-.0049.1705-.0124.3435-.0199.5152-.7043.4629-1.8417.4567-2.6157.8462 1.1411.0498 2.0383.3248 2.8148.7118l-.051 1.2905c-1.2917.8835-2.4714 2.2014-3.9921 3.0301-.7193.392-3.243 1.4013-4.0083 1.2233-.4318-.1008-.4716-.6384-.6446-1.1449-.3683-1.0839-1.217-2.8086-1.2917-4.4413-.0933-2.062-.3024-5.5153 1.9189-5.0909 1.792.3409 3.8776 1.1672 5.2652 1.9251.8474.4629 1.339 1.0366 2.6244 1.1349z" fill="#d33833"/><path d="m62.5301 56.9078s-.9309-1.3303-.2663-1.7298c.6645-.3982 1.3303.0013 1.7297-.6645.3995-.6645 0-1.064.1332-1.8616.1331-.7977.7989-.9321 1.4634-1.064.6645-.1332 2.5274-.3995 2.7925.2663l-.7977-2.3943-1.5966-.5326-5.0548 2.9269-.2651 1.4622v2.9269zm-13.9662 4.3891c-.1605-2.0757-.3285-4.1489-.5177-6.2221-.2812-3.0962.7442-2.5561 3.4284-2.5561.4094 0 2.5237.4891 2.6755.7977.7255 1.4821-1.2133 1.1523.8363 2.2698 1.7285.9433 4.7848-.5724 4.0854-2.6693-.3907-.4654-2.0371-.1443-2.627-.4505l-3.1172-1.6165c-1.3229-.6856-4.3779-1.6849-5.7879-.7267-3.5715 2.4291.2253 8.4982 1.4996 11.0318" fill="#ef3d3a"/><path d="m52.0632 14.1706c-3.625-.8438-5.4256 1.5181-6.5245 3.9672-.9818-.2377-.5911-1.573-.3434-2.2524.6496-1.7845 3.2641-4.1601 5.4008-3.8378.9196.1381 2.164.9793 1.4671 2.123zm17.6646 4.129.1718.0062c.8188 1.7023 1.5281 3.5055 2.561 5.0075-.6919 1.6128-5.2415 3.0389-5.1718.1444.9843-.4306 2.683-.0884 3.5553-.6372-.504-1.385-1.232-2.5635-1.1163-4.5209zm-15.8079.0435c.7778 1.4249 1.0304 2.9232 2.1355 3.9996.4977.4853 1.4646 1.0764.9855 2.4241-.112.3186-.9308 1.0267-1.4049 1.1661-1.7273.5102-5.7517.1057-4.3891-2.0484 1.4286.0672 3.3487.9284 4.4165-.1082-.8201-1.3117-2.2811-3.905-1.7435-5.4332zm15.1596 14.4826c-2.6008 1.6713-5.5016 3.4881-9.7625 3.0663-.9109-.7915-1.2581-2.5536-.3733-3.7171.4604.7914.1705 2.2487 1.4535 2.4677 2.4191.4131 5.2328-1.4796 6.9725-2.1417 1.0789-1.8181-.0934-2.4876-1.064-3.6573-1.9886-2.398-4.6579-5.3697-4.5608-8.9599.8039-.5824.8736.8898.988 1.1586 1.0391 2.4303 3.6537 5.5389 5.5614 7.6196.4679.5127 1.2394 1.0042 1.3253 1.3427.2476.9856-.6434 2.1666-.5401 2.8211zm-34.2889-1.7584c-.8151-.4654-1.0092-2.5149-1.9662-2.5734-1.3676-.0834-1.1174 2.6581-1.1125 4.2621-.9408-.8536-1.1075-3.4868-.4156-4.837-.789-.3871-1.1411.4268-1.5767.713.5612-4.0817 5.9708-1.8928 5.0723 2.4353zm35.944 3.4583c-1.2096 2.3047-2.9232 4.8433-6.4748 4.9167-.0721-.7441-.1281-1.8766.0038-2.3258 2.7153-.2601 4.3916-1.6427 6.471-2.5909zm-17.0188 1.4946c2.2649 1.1921 6.4287 1.319 9.5087 1.2294.1655.6745.1618 1.5083.168 2.3309-3.9585.1978-8.6388-.7815-9.6767-3.5603zm-.4318 2.2212c1.568 3.9349 6.9526 3.482 11.4935 3.3737-.1991.5102-.6321 1.1137-1.171 1.3315-1.456.5924-5.4692 1.0416-7.4902-.0311-1.2817-.6807-2.1043-2.22-2.8061-3.1223-.3385-.4355-2.0272-1.5493-.0262-1.5518" fill="#231f20"/><path d="m68.8905 59.9417c-1.8393 3.1496-3.5977 6.3839-5.7804 9.1627.9147-2.6905 1.3067-7.1903 1.4448-10.6224 1.9127-.8948 3.5516.2028 4.3356 1.4597z" fill="#81b0c4"/><path d="m78.7848 71.261c-2.0595.4119-3.5055 2.4129-5.514 2.2847 1.1038-1.5555 3.0388-2.2125 5.514-2.2847zm.9084 3.2218c-1.6787.178-3.6486.4492-5.351.3086.8051-1.2307 3.91-.8051 5.351-.3086zm.5812 2.7776c-1.8853.041-4.2298.0037-6.0218-.1469 1.0603-1.1386 4.7985-.4231 6.0218.1469z" fill="#231f20"/><path d="m65.3425 84.8613c.27 2.3694 1.2083 4.7686 1.0913 7.362-1.0428.3522-1.6414.6596-3.0389.6583-.0995-2.2051-.3944-5.575-.3061-7.6768.6882.046 1.7011-.4903 2.2537-.3435z" fill="#dcd9d8"/><path d="m62.3013 49.9577c-.9458.6185-1.7534 1.39-2.6619 2.0495-2.0172.1008-3.1173-.1393-4.5994-1.2967.0249-.0933.173-.0522.1792-.1655 2.1579.9607 4.9031-.3932 7.0821-.5873" fill="#f0d6b7"/><path d="m50.9695 64.673c.5923-2.5697 2.9169-3.9012 5.0275-5.3162 2.1777 2.7639 3.503 6.3192 4.9615 9.7501-3.4471-1.0391-6.9688-2.7253-9.989-4.4339z" fill="#81b0c4"/><path d="m63.0901 85.2048c-.0883 2.1018.2066 5.4717.3049 7.6768 1.3975.0013 1.9961-.3061 3.0389-.6583.1182-2.5934-.8213-4.9926-1.0914-7.362-.5525-.1468-1.5655.3895-2.2524.3435zm-21.7525-11.9502c.9209 8.4695 2.2549 15.5876 4.7014 23.0865 5.4319 1.6501 11.9801 1.7932 16.7798.3049-.881-4.2323-.4953-9.3855-1.0104-13.9027-.3883-3.3948-.1904-6.8107-.7231-10.274-5.8176-1.2096-14.0395-.2825-19.7477.7853zm21.1228-.7318c-.0485 3.6375.1631 7.2252.4406 10.8663 1.3962-.209 2.3445-.3496 3.6411-.6334-.4206-3.5068-.3683-7.4516-1.227-10.5527-.9918.01-1.8653-.0112-2.8547.3198zm7.0845-.5861c-.662-.1518-1.4335-.0062-2.0669.0062.2974 2.9655 1.0191 6.2371 1.273 9.3494.9968.0311 1.5294-.4393 2.3495-.5973.0435-2.7315-.2402-6.4959-1.5556-8.7583zm10.7282 9.8011c2.077-.504 3.3824-3.0476 2.8025-5.6609-.3908-1.7559-1.0852-5.0611-1.8281-6.1848-.5488-.83-2.0371-1.9176-3.2268-1.1573-1.9338 1.2395-5.3398 1.5978-6.7497 3.0974.7068 2.3532.9258 5.5874 1.2183 8.5703 2.4154.1518 5.3871-.6645 7.3968.2016-1.4025.4542-3.223.4567-4.4339 1.12.9906.4779 3.309.3808 4.8209.0137zm-19.3147-12.6309c-1.4584-3.4309-2.7838-6.9862-4.9615-9.7501-2.1105 1.4149-4.4351 2.7465-5.0275 5.3162 3.0202 1.7086 6.542 3.3948 9.989 4.4339zm3.5964-10.6237c-.1381 3.4309-.5301 7.932-1.4448 10.6212 2.1827-2.7776 3.9411-6.0131 5.7804-9.1614-.784-1.2582-2.4229-2.3557-4.3356-1.4598zm-4.0767-1.4485c-.8263-.0896-1.5282.9495-2.6034.5003-.2451.2725-.4691.5674-.7205.8338 2.3744 2.8596 3.452 6.9177 5.2851 10.2801.9843-3.2292.8711-6.7671 1.0876-10.2913-1.3514.0858-2.1018-1.2221-3.0488-1.3229zm-2.6208-3.4595c-.0883.9794.1394 1.3005.3372 2.4229 3.2194 1.0068 2.6569-4.4202-.3372-2.4229zm-3.5715-1.1722c-1.3875-.7591-3.4719-1.5854-5.2639-1.9264-2.2225-.4256-2.0135 3.0302-1.9189 5.091.0734 1.6326.9221 3.3587 1.2917 4.4425.173.5065.2116 1.0441.6446 1.1437.7641.1779 3.2878-.8301 4.0071-1.2233 1.5207-.8288 2.7016-2.1454 3.9933-3.0302.0162-.4293.0324-.8599.0498-1.2904-.7765-.3858-1.6737-.6608-2.8136-.7106.7727-.3895 1.9101-.3845 2.6157-.8475.0063-.1717.0137-.3434.02-.5139-1.2868-.0983-1.7771-.672-2.6258-1.1349zm-13.2531-2.408c-1.1523 1.1685 3.2293 2.7626 4.6255 2.8485-.0087-.7404.4206-1.4373.3348-1.9687-1.6576-.2899-3.8341-.0983-4.9603-.8798zm14.1864.5488c-.0062.1145-.1543.0722-.1792.1655 1.4821 1.1586 2.5822 1.3975 4.5994 1.298.9097-.6596 1.7161-1.4324 2.6631-2.0509-2.1802.1954-4.9242 1.5494-7.0833.5874zm13.0217 3.9486c-.0622-1.2992-.4032-3.9697-1.2071-4.4376-1.685-.9844-4.6803 1.9861-5.9496 2.439.1381.397.3659.7118.3833 1.2208.7516-.1854 1.665-.0585 2.3159.2613-.7517.0847-1.5867.0784-2.0844.4368-.1817.5264.0447 1.2444-.076 1.9774 1.7845.504 3.8242.7716 6.0815.8375.4381-.5712.5874-1.6576.5351-2.7352zm-29.1469-3.3662c-.3609-.2588-2.8074-3.4421-3.1422-3.3089-4.4277 1.7459-8.5666 4.7649-12.265 7.6196 3.5267 7.5673 4.9503 16.8383 5.2017 25.7733 4.0394 1.8902 7.5885 4.6143 13.0701 4.898-.6346-4.4886-1.2145-8.4932-1.5742-12.718-1.3775-.5812-3.3537.0261-4.6417-.1804-.0112-1.5531 1.9687-.6807 2.133-1.7248.1244-.7902-1.0889-.85-.6944-2.0944 1.008.3659 1.5381 1.1748 2.612 1.4796.9819-2.1491-.0136-5.9496.1282-7.7453.0262-.3372.168-1.8678.9234-1.6003.6682.2377-.0386 4.0718.0348 5.7717.0672 1.5654-.1891 3.0799.4443 4.063 5.2987-.7218 10.6809-1.1872 16.4127-1.344-1.2606-.5413-2.7589-1.0528-4.4015-1.9786-.8898-.5028-3.6972-1.5468-3.9536-2.3918-.4094-1.3477 1.0752-2.0657 1.3291-3.2218-2.6743 1.4597-3.1957-1.3975-3.8279-3.4197-.5736-1.833-.8997-3.2019-1.0403-4.2597-2.3034-1.0975-4.7662-2.2101-6.7485-3.6175zm26.8074-2.9244c3.6884-1.7882 4.353 6.6838 2.9069 9.4141.2228.8138.9919 1.1249 1.3055 1.8567-2.0583 3.6872-4.3443 7.1293-6.4437 10.7729 1.5618-.9731 3.793-.1742 5.631-.9022.672-.265 1.1586-1.8031 1.6676-3.0339 1.3999-3.3861 2.8684-7.6544 3.5229-10.8862.1469-.7355.5488-2.3395.4592-2.9953-.1605-1.1723-1.7521-2.0421-2.5622-2.7676-1.4921-1.3403-2.4304-2.5187-3.9872-3.7719-.6309.9308-1.9848 1.5568-2.5 2.3134zm-35.2421-32.7072c-1.7584 1.9326-1.39 5.5564-1.1773 8.1348 3.1771-1.9998 7.3932.1568 7.3534 3.5566 1.5157-.0411.5662-1.8953.2924-3.0887-.8972-3.9013 1.5107-8.1398.1083-11.7063-2.7204.2066-4.9553 1.3179-6.5768 3.1036zm12.5749-11.22346c-3.9784 1.12745-9.0781 4.01824-10.712 7.59226 1.2656-.1842 2.1441-.8226 3.3923-.901.4729-.0311 1.0913.1979 1.6339.0635 1.0802-.2688 1.9923-2.69296 2.8087-3.59392.7939-.88106 1.7496-1.25687 2.4042-2.06077.4194-.20284 1.0403-.18791 1.0652-.81883-.1829-.19538-.3745-.34346-.5923-.28124zm20.7109 1.06025c-4.129-2.32957-11.1201-4.08171-15.5117-1.89277-3.5454 1.76833-8.3364 4.69148-9.9703 8.39738 1.5256 3.5765-.4518 6.8518-.5775 10.483-.0672 1.9314.9097 3.6176.9844 5.7206-.5227.8612-2.118.967-3.2231.9085-.3708-1.8604-1.0216-3.9511-2.9381-4.1614-2.7103-.2962-4.6914 1.9475-4.8146 4.292-.1456 2.7564 2.1167 7.326 5.3249 7.0086 1.2382-.1219 1.5443-1.3651 2.8932-1.3514.7318 1.4597-1.1287 1.9177-1.3203 2.963-.0498.2688.1543 1.324.2738 1.8181.5824 2.4067 1.8815 5.5227 3.1596 7.3558.7429 1.0652 1.8143 1.716 3.0874 2.1292 1.5057.4903 3.294.6496 5.1531.774.6123-1.3203 2.8684-1.2108 4.3394-.8661-1.7621-.6981-3.4011-2.3893-4.7587-3.8876-1.5593-1.7173-3.1385-3.5615-3.2181-5.8065 2.9468 4.088 5.3821 7.6594 10.7406 9.4576 4.0556 1.3602 8.7906-.6234 11.9054-2.8111 1.293-.9097 2.0645-2.3532 2.9842-3.6736 3.4383-4.9465 5.0424-12.0062 4.6902-18.848-.1456-2.8224-.1394-5.6348-1.0864-7.5325-.9893-1.9861-4.3356-3.7619-6.2955-1.9662-.3634-1.9301 1.6289-3.1247 3.9697-2.4291-1.6688-2.15535-3.4197-4.74251-5.7916-6.08151zm7.6931 63.67221c3.228-1.6041 9.2572-4.3169 11.2807.0062.7466 1.5941 1.6215 4.2883 2.0085 5.9334.5463 2.3209-.5924 7.2003-2.9779 7.9793-2.1068.6882-4.5658.6458-7.1045.1356-.2986-.2489-.6321-.6819-.8648-1.1336-1.8119-.0697-3.5093.0983-4.9404.8424.1357 1.3403-.7715 1.5556-1.6215 1.8318-.6297 2.4988 1.2606 5.7617.8077 8.039-.3223 1.624-2.3184 1.8741-3.7868 2.1778-.0473.9022.0647 1.655.1642 2.4179-.3347 1.2369-1.8405 1.94-3.2666 2.113-4.6927.5637-11.817.8176-16.3293-.8064-1.2594-3.0887-2.2524-6.8468-3.3015-10.3735-4.4015.4704-7.9618-1.9002-11.318-3.452-1.1623-.5389-2.7701-.835-3.2032-1.7609-.4218-.896-.2488-2.612-.3534-4.2335-.2663-4.1402-.494-8.1336-1.5866-12.3733-.4916-1.9028-1.3477-3.5827-1.9438-5.4158-.5525-1.6986-1.5157-3.798-1.7683-5.4929-.3721-2.51 1.9923-2.6506 3.5043-3.7382 2.337-1.6825 4.1725-2.6133 6.7037-4.1315.7491-.4505 3.0102-1.5891 3.2666-2.113.5114-1.0391-.8773-2.5051-1.2482-3.3202-.5873-1.2879-.8935-2.383-.9781-3.6548-2.123-.3348-3.7333-1.5991-4.7052-3.024-1.609-2.3582-2.724-6.7211-1.3327-10.04.1095-.2613.6545-.7753.7342-1.1772.158-.7902-.2987-1.8418-.3261-2.6818-.1468-4.3131.7293-8.0302 3.6338-9.3307 1.1784-4.69641 5.397-6.25817 9.373-8.59271 1.4858-.87234 3.1235-1.42984 4.8159-2.05205 6.0678-2.2325 15.3786-1.813129 20.416 1.99605 2.1354 1.61651 5.5489 5.02623 6.7697 7.49521 3.2255 6.5195 2.9966 17.4144.7404 25.3439-.3024 1.0652-.7429 2.6295-1.3564 3.9087-.4281.8935-1.7596 2.6805-1.5978 3.4683.1667.8151 3.0339 2.9928 3.6486 3.5864 1.1075 1.0677 3.2119 2.4863 3.3824 3.8341.1829 1.4335-.6322 3.396-1.0466 4.781-1.3788 4.6206-2.7265 8.8902-4.292 13.008z" fill="#231f20"/><path d="m50.1095 37.0269c.1754-.234 1.1374-.5874 2.4838.061 0 0-1.5953.265-1.4622 2.9269l-.6657-.1332s-.687-2.4129-.3559-2.8547z" fill="#f7e4cd"/><path d="m61.7724 59.8994c0 .2613-.1406.5027-.3659.6334-.2264.1307-.5052.1307-.7317 0s-.3658-.3721-.3658-.6334c0-.4032.3272-.7317.7317-.7317.4032 0 .7317.3285.7317.7317zm.7317 3.3923c-.0012.4044-.3285.7317-.7329.7317-.4045-.0012-.7318-.3285-.7318-.733 0-.4044.3286-.7317.733-.7304.4032 0 .7305.3272.7305.7317" fill="#1d1919"/></svg>