<?xml version="1.0" encoding="UTF-8" standalone="no"?><!-- Generator: Gravit.io --><svg xmlns="http://www.w3.org/2000/svg" xmlns:xlink="http://www.w3.org/1999/xlink" style="isolation:isolate" viewBox="0 0 100 100" width="100pt" height="100pt"><rect x="0" y="0" width="100" height="100" transform="matrix(1,0,0,1,0,0)" fill="rgb(35,31,32)"/><g><path d=" M 78.058 48.55 C 78.058 64.4 65.496 77.249 50 77.249 C 34.505 77.249 21.943 64.4 21.943 48.55 C 21.943 32.7 34.505 19.851 50 19.851 C 65.496 19.851 78.058 32.7 78.058 48.55" fill="rgb(211,56,51)"/><path d=" M 23.087 55.658 C 23.087 55.658 21.056 25.73 48.632 24.875 L 46.709 21.668 L 31.745 26.692 L 27.469 31.609 L 23.728 38.77 L 21.59 47.107 L 22.231 52.665" fill="rgb(239,61,58)"/><path d=" M 30.783 28.972 C 25.861 34.009 22.814 40.964 22.814 48.657 C 22.814 56.349 25.861 63.304 30.783 68.341 C 35.709 73.376 42.496 76.484 50 76.484 C 57.504 76.484 64.292 73.376 69.217 68.341 C 74.139 63.304 77.186 56.349 77.186 48.657 C 77.186 40.964 74.139 34.009 69.217 28.972 C 64.292 23.937 57.505 20.83 50 20.829 C 42.496 20.83 35.709 23.937 30.783 28.972 L 30.783 28.972 Z  M 29.538 69.559 C 24.306 64.208 21.071 56.814 21.071 48.657 C 21.071 40.499 24.306 33.106 29.537 27.755 C 34.768 22.403 42.008 19.086 50 19.087 C 57.992 19.086 65.233 22.403 70.462 27.755 C 75.695 33.106 78.93 40.5 78.929 48.657 C 78.929 56.814 75.695 64.208 70.462 69.559 C 65.233 74.91 57.992 78.227 50 78.227 C 42.008 78.227 34.768 74.91 29.538 69.559 Z " fill="rgb(35,31,32)"/><path d=" M 61.811 48.709 L 57.536 49.35 L 51.764 49.992 L 48.023 50.098 L 44.389 49.992 L 41.61 49.136 L 39.151 46.465 L 37.227 41.013 L 36.8 39.837 L 34.235 38.983 L 32.738 36.524 L 31.669 32.997 L 32.845 29.897 L 35.624 28.935 L 37.869 30.004 L 38.937 32.356 L 40.22 32.142 L 40.648 31.608 L 40.22 29.149 L 40.113 26.049 L 40.755 21.774 L 40.73 19.332 L 42.679 16.216 L 46.099 13.758 L 52.084 11.192 L 58.711 12.154 L 64.483 16.323 L 67.155 20.599 L 68.866 23.698 L 69.293 31.394 L 68.011 38.021 L 65.659 43.9 L 63.415 46.999" fill="rgb(240,214,183)"/><path d=" M 58.177 67.2 L 42.892 67.842 L 42.892 70.407 L 44.175 79.385 L 43.534 80.134 L 32.845 76.499 L 32.097 75.217 L 31.028 63.139 L 28.57 55.87 L 28.035 54.16 L 36.586 48.282 L 39.258 47.213 L 41.61 50.099 L 43.641 51.916 L 45.992 52.664 L 47.061 52.985 L 48.344 58.543 L 49.305 59.719 L 51.764 58.863 L 50.054 62.177 L 59.353 66.559 L 58.177 67.201" fill="rgb(51,80,97)"/><path d=" M 32.845 29.897 L 35.624 28.935 L 37.869 30.004 L 38.937 32.356 L 40.22 32.142 L 40.541 30.859 L 39.899 28.401 L 40.541 22.522 L 40.006 19.315 L 41.93 17.071 L 46.099 13.757 L 44.923 12.154 L 39.044 15.04 L 36.586 16.964 L 35.196 19.957 L 33.059 22.843 L 32.418 26.263 L 32.845 29.897 Z " fill="rgb(109,107,109)"/><path d=" M 37.227 19.85 C 37.227 19.85 38.831 15.895 45.244 13.971 C 45.244 13.971 45.564 12.582 45.564 12.582 L 38.617 15.254 L 35.945 17.926 L 34.769 20.064 L 37.227 19.85 Z  M 34.021 29.149 C 34.021 29.149 31.776 21.667 40.327 20.598 L 40.006 19.315 L 34.127 20.705 L 32.417 26.263 L 32.845 29.897 L 34.021 29.149 Z " fill="rgb(220,217,216)"/><path d=" M 37.441 39.089 L 38.84 37.733 C 38.84 37.733 39.472 37.807 39.578 38.555 C 39.685 39.303 40.006 46.037 44.602 49.671 C 45.021 50.003 41.182 49.136 41.182 49.136 L 37.761 43.793 M 57.108 37.059 C 57.108 37.059 57.358 33.819 58.231 34.068 C 59.103 34.317 59.103 35.19 59.103 35.19 C 59.103 35.19 56.984 36.56 57.108 37.059 Z  M 65.98 25.194 C 65.98 25.194 64.217 25.566 64.056 27.118 C 63.893 28.671 65.98 27.439 66.3 27.332 M 53.046 25.301 C 53.046 25.301 50.695 25.622 50.695 27.118 C 50.695 28.614 53.367 28.508 54.116 27.867 M 38.51 32.249 C 38.51 32.249 34.448 29.79 34.021 32.142 C 33.593 34.494 32.631 36.203 34.662 38.662 L 33.272 38.234 L 31.989 34.921 L 31.562 31.714 L 34.021 29.149 L 36.799 29.363 L 38.403 30.645 L 38.51 32.249 M 40.434 25.515 C 40.434 25.515 42.251 16.109 51.443 14.292 C 59.011 12.796 62.986 14.613 64.483 16.323 C 64.483 16.323 57.749 8.307 51.336 10.765 C 44.923 13.223 40.22 17.712 40.327 20.598 C 40.509 25.513 40.434 25.515 40.434 25.515 Z  M 65.231 17.391 C 65.231 17.391 62.132 17.285 62.025 20.064 C 62.025 20.064 62.025 20.491 62.239 20.919 C 62.239 20.919 64.697 18.14 66.193 19.636" fill="rgb(247,228,205)"/><path d=" M 51.658 21.208 C 51.658 21.208 51.125 16.942 47.488 19.423 C 45.136 21.026 45.35 23.271 45.778 23.698 C 46.206 24.126 46.089 24.987 46.415 24.396 C 46.74 23.805 46.633 21.881 47.809 21.347 C 48.984 20.812 50.912 20.215 51.658 21.208 Z " fill="rgb(247,228,205)"/><path d=" M 41.609 50.098 L 31.562 54.588 C 31.562 54.588 35.731 71.155 33.593 76.286 L 32.097 75.752 L 31.989 69.445 L 29.211 57.474 L 28.035 54.16 L 38.51 47.106 L 41.609 50.098 Z  M 42.642 59.262 L 44.068 61.001 L 44.068 67.414 L 42.358 67.414 C 42.358 67.414 42.144 62.925 42.144 62.39 C 42.144 61.856 42.358 59.932 42.358 59.932 M 42.678 68.376 L 37.869 68.59 L 39.258 69.552 L 42.678 70.086" fill="rgb(73,114,139)"/><path d=" M 59.139 67.307 L 63.094 67.2 L 64.056 77.034 L 59.994 77.568 L 59.139 67.307 Z " fill="rgb(51,80,97)"/><path d=" M 60.208 67.307 L 66.193 66.987 C 66.193 66.987 68.652 60.787 68.652 60.467 C 68.652 60.467 70.79 51.488 70.79 51.488 L 65.98 46.465 L 65.018 45.61 L 62.452 48.175 L 62.452 58.115 L 60.208 67.307 Z " fill="rgb(51,80,97)"/><path d=" M 62.88 66.559 L 59.139 67.307 L 59.673 70.3 C 61.063 70.942 63.414 69.231 63.414 69.231 M 62.987 47.854 L 70.469 53.413 L 70.682 50.847 L 65.018 45.61 L 62.987 47.854 Z " fill="rgb(73,114,139)"/><path d=" M 46.388 88.365 L 44.175 79.385 L 43.074 72.759 L 42.892 67.841 L 52.908 67.308 L 59.139 67.307 L 58.573 78.531 L 59.535 87.189 L 59.427 88.792 L 51.305 89.433 L 46.388 88.365 Z " fill="rgb(255,255,255)"/><path d=" M 57.749 67.2 C 57.749 67.2 57.215 78.316 58.818 86.226 C 58.818 86.226 55.611 88.257 50.908 88.791 L 59.887 88.471 L 60.956 87.829 L 59.673 70.3 L 59.353 66.559" fill="rgb(220,217,216)"/><path d=" M 64.238 76.18 L 68.406 75.004 L 76.316 74.577 L 77.492 70.942 L 75.354 64.636 L 72.896 64.316 L 69.475 65.384 L 66.193 66.987 L 64.451 66.667 L 63.093 67.2" fill="rgb(255,255,255)"/><path d=" M 64.162 74.041 C 64.162 74.041 66.941 72.759 67.369 72.866 L 66.193 66.987 L 67.583 66.453 C 67.583 66.453 68.545 72.01 68.545 72.652 C 68.545 72.652 74.53 72.972 75.065 72.972 C 75.065 72.972 76.347 70.514 76.027 67.949 L 77.202 71.369 L 77.309 73.293 L 75.599 75.858 L 73.675 76.286 L 70.469 76.179 L 69.4 74.79 L 65.659 75.324 L 64.483 75.752" fill="rgb(220,217,216)"/><path d=" M 59.962 66.453 L 57.611 60.468 L 55.152 56.941 C 55.152 56.941 55.687 55.444 56.435 55.444 L 58.893 55.444 L 61.245 56.3 L 61.031 60.254 L 59.962 66.453 Z " fill="rgb(255,255,255)"/><path d=" M 60.422 64.421 C 60.422 64.421 57.429 58.65 57.429 57.795 C 57.429 57.795 57.963 56.512 58.711 56.833 C 59.46 57.153 61.063 58.008 61.063 58.008 L 61.063 55.978 L 57.429 55.229 L 54.97 55.55 L 59.139 65.383 L 59.994 65.491" fill="rgb(220,217,216)"/><path d=" M 47.35 50.314 L 44.389 49.992 L 41.609 49.136 L 41.609 50.098 L 42.967 51.596 L 47.243 53.52" fill="rgb(255,255,255)"/><path d=" M 42.572 50.634 C 42.572 50.634 45.885 52.024 46.954 51.703 L 47.06 52.984 L 44.068 52.344 L 42.251 51.062 L 42.572 50.634 Z " fill="rgb(220,217,216)"/><path d=" M 64.226 55.808 C 62.412 55.755 60.774 55.539 59.339 55.135 C 59.437 54.546 59.254 53.969 59.401 53.545 C 59.8 53.257 60.471 53.262 61.075 53.195 C 60.552 52.937 59.818 52.836 59.215 52.984 C 59.201 52.576 59.018 52.323 58.907 52.004 C 59.926 51.639 62.334 49.254 63.688 50.044 C 64.333 50.42 64.607 52.566 64.657 53.61 C 64.699 54.476 64.579 55.349 64.226 55.808" fill="rgb(211,56,51)"/><path d=" M 64.226 55.808 C 62.412 55.755 60.774 55.539 59.339 55.135 C 59.437 54.546 59.254 53.969 59.401 53.545 C 59.8 53.257 60.471 53.262 61.075 53.195 C 60.552 52.937 59.818 52.836 59.215 52.984 C 59.201 52.576 59.018 52.323 58.907 52.004 C 59.926 51.639 62.334 49.254 63.688 50.044 C 64.333 50.42 64.607 52.566 64.657 53.61 C 64.699 54.476 64.579 55.349 64.226 55.808 L 64.226 55.808 Z " fill="none"/><path d=" M 55.553 52.843 C 55.549 52.98 55.543 53.119 55.537 53.257 C 54.971 53.629 54.057 53.624 53.435 53.937 C 54.352 53.977 55.073 54.198 55.697 54.509 L 55.656 55.546 C 54.618 56.256 53.67 57.315 52.448 57.981 C 51.87 58.296 49.842 59.107 49.227 58.964 C 48.88 58.883 48.848 58.451 48.709 58.044 C 48.413 57.173 47.731 55.787 47.671 54.475 C 47.596 52.818 47.428 50.043 49.213 50.384 C 50.653 50.658 52.329 51.322 53.444 51.931 C 54.125 52.303 54.52 52.764 55.553 52.843 Z " fill="rgb(211,56,51)"/><path d=" M 55.553 52.843 C 55.549 52.98 55.543 53.119 55.537 53.257 C 54.971 53.629 54.057 53.624 53.435 53.937 C 54.352 53.977 55.073 54.198 55.697 54.509 L 55.656 55.546 C 54.618 56.256 53.67 57.315 52.448 57.981 C 51.87 58.296 49.842 59.107 49.227 58.964 C 48.88 58.883 48.848 58.451 48.709 58.044 C 48.413 57.173 47.731 55.787 47.671 54.475 C 47.596 52.818 47.428 50.043 49.213 50.384 C 50.653 50.658 52.329 51.322 53.444 51.931 C 54.125 52.303 54.52 52.764 55.553 52.843 L 55.553 52.843 Z " fill="none"/><path d=" M 60.069 55.551 C 60.069 55.551 59.321 54.482 59.855 54.161 C 60.389 53.841 60.924 54.162 61.245 53.627 C 61.566 53.093 61.245 52.772 61.352 52.131 C 61.459 51.49 61.994 51.382 62.528 51.276 C 63.062 51.169 64.559 50.955 64.772 51.49 L 64.131 49.566 L 62.848 49.138 L 58.786 51.49 L 58.573 52.665 L 58.573 55.017 M 48.846 59.078 C 48.717 57.41 48.582 55.744 48.43 54.078 C 48.204 51.59 49.028 52.024 51.185 52.024 C 51.514 52.024 53.213 52.417 53.335 52.665 C 53.918 53.856 52.36 53.591 54.007 54.489 C 55.396 55.247 57.852 54.029 57.29 52.344 C 56.976 51.97 55.653 52.228 55.179 51.982 L 52.674 50.683 C 51.611 50.132 49.156 49.329 48.023 50.099 C 45.153 52.051 48.204 56.928 49.228 58.964" fill="rgb(239,61,58)"/><path d=" M 51.658 21.208 C 48.745 20.53 47.298 22.428 46.415 24.396 C 45.626 24.205 45.94 23.132 46.139 22.586 C 46.661 21.152 48.762 19.243 50.479 19.502 C 51.218 19.613 52.218 20.289 51.658 21.208 Z  M 65.853 24.526 L 65.991 24.531 C 66.649 25.899 67.219 27.348 68.049 28.555 C 67.493 29.851 63.837 30.997 63.893 28.671 C 64.684 28.325 66.049 28.6 66.75 28.159 C 66.345 27.046 65.76 26.099 65.853 24.526 Z  M 53.15 24.561 C 53.775 25.706 53.978 26.91 54.866 27.775 C 55.266 28.165 56.043 28.64 55.658 29.723 C 55.568 29.979 54.91 30.548 54.529 30.66 C 53.141 31.07 49.907 30.745 51.002 29.014 C 52.15 29.068 53.693 29.76 54.551 28.927 C 53.892 27.873 52.718 25.789 53.15 24.561 Z  M 65.332 36.199 C 63.242 37.542 60.911 39.002 57.487 38.663 C 56.755 38.027 56.476 36.611 57.187 35.676 C 57.557 36.312 57.324 37.483 58.355 37.659 C 60.299 37.991 62.56 36.47 63.958 35.938 C 64.825 34.477 63.883 33.939 63.103 32.999 C 61.505 31.072 59.36 28.684 59.438 25.799 C 60.084 25.331 60.14 26.514 60.232 26.73 C 61.067 28.683 63.168 31.181 64.701 32.853 C 65.077 33.265 65.697 33.66 65.766 33.932 C 65.965 34.724 65.249 35.673 65.332 36.199 M 37.778 34.786 C 37.123 34.412 36.967 32.765 36.198 32.718 C 35.099 32.651 35.3 34.854 35.304 36.143 C 34.548 35.457 34.414 33.341 34.97 32.256 C 34.336 31.945 34.053 32.599 33.703 32.829 C 34.154 29.549 38.501 31.308 37.779 34.786 M 66.662 37.565 C 65.69 39.417 64.313 41.457 61.459 41.516 C 61.401 40.918 61.356 40.008 61.462 39.647 C 63.644 39.438 64.991 38.327 66.662 37.565 Z  M 52.986 38.766 C 54.806 39.724 58.152 39.826 60.627 39.754 C 60.76 40.296 60.757 40.966 60.762 41.627 C 57.581 41.786 53.82 40.999 52.986 38.766 Z  M 52.639 40.551 C 53.899 43.713 58.226 43.349 61.875 43.262 C 61.715 43.672 61.367 44.157 60.934 44.332 C 59.764 44.808 56.539 45.169 54.915 44.307 C 53.885 43.76 53.224 42.523 52.66 41.798 C 52.388 41.448 51.031 40.553 52.639 40.551" fill="rgb(35,31,32)"/><path d=" M 65.18 57.989 C 63.702 60.52 62.289 63.119 60.535 65.352 C 61.27 63.19 61.585 59.574 61.696 56.816 C 63.233 56.097 64.55 56.979 65.18 57.989 Z " fill="rgb(129,176,196)"/><path d=" M 73.131 67.085 C 71.476 67.416 70.314 69.024 68.7 68.921 C 69.587 67.671 71.142 67.143 73.131 67.085 Z  M 73.861 69.674 C 72.512 69.817 70.929 70.035 69.561 69.922 C 70.208 68.933 72.703 69.275 73.861 69.674 Z  M 74.328 71.906 C 72.813 71.939 70.929 71.909 69.489 71.788 C 70.341 70.873 73.345 71.448 74.328 71.906 Z " fill="rgb(35,31,32)"/><path d=" M 62.329 78.014 C 62.546 79.918 63.3 81.846 63.206 83.93 C 62.368 84.213 61.887 84.46 60.764 84.459 C 60.684 82.687 60.447 79.979 60.518 78.29 C 61.071 78.327 61.885 77.896 62.329 78.014 Z " fill="rgb(220,217,216)"/><path d=" M 59.885 49.966 C 59.125 50.463 58.476 51.083 57.746 51.613 C 56.125 51.694 55.241 51.501 54.05 50.571 C 54.07 50.496 54.189 50.529 54.194 50.438 C 55.928 51.21 58.134 50.122 59.885 49.966" fill="rgb(240,214,183)"/><path d=" M 50.779 61.791 C 51.255 59.726 53.123 58.656 54.819 57.519 C 56.569 59.74 57.634 62.597 58.806 65.354 C 56.036 64.519 53.206 63.164 50.779 61.791 Z " fill="rgb(129,176,196)"/><path d=" M 60.519 78.29 C 60.448 79.979 60.685 82.687 60.764 84.459 C 61.887 84.46 62.368 84.213 63.206 83.93 C 63.301 81.846 62.546 79.918 62.329 78.014 C 61.885 77.896 61.071 78.327 60.519 78.29 L 60.519 78.29 Z  M 43.039 68.687 C 43.779 75.493 44.851 81.213 46.817 87.239 C 51.182 88.565 56.444 88.68 60.301 87.484 C 59.593 84.083 59.903 79.942 59.489 76.312 C 59.177 73.584 59.336 70.839 58.908 68.056 C 54.233 67.084 47.626 67.829 43.039 68.687 L 43.039 68.687 Z  M 60.013 68.099 C 59.974 71.022 60.144 73.905 60.367 76.831 C 61.489 76.663 62.251 76.55 63.293 76.322 C 62.955 73.504 62.997 70.334 62.307 67.842 C 61.51 67.85 60.808 67.833 60.013 68.099 L 60.013 68.099 Z  M 65.706 67.628 C 65.174 67.506 64.554 67.623 64.045 67.633 C 64.284 70.016 64.864 72.645 65.068 75.146 C 65.869 75.171 66.297 74.793 66.956 74.666 C 66.991 72.471 66.763 69.446 65.706 67.628 L 65.706 67.628 Z  M 74.327 75.504 C 75.996 75.099 77.045 73.055 76.579 70.955 C 76.265 69.544 75.707 66.888 75.11 65.985 C 74.669 65.318 73.473 64.444 72.517 65.055 C 70.963 66.051 68.226 66.339 67.093 67.544 C 67.661 69.435 67.837 72.034 68.072 74.431 C 70.013 74.553 72.401 73.897 74.016 74.593 C 72.889 74.958 71.426 74.96 70.453 75.493 C 71.249 75.877 73.112 75.799 74.327 75.504 L 74.327 75.504 Z  M 58.806 65.354 C 57.634 62.597 56.569 59.74 54.819 57.519 C 53.123 58.656 51.255 59.726 50.779 61.791 C 53.206 63.164 56.036 64.519 58.806 65.354 Z  M 61.696 56.817 C 61.585 59.574 61.27 63.191 60.535 65.352 C 62.289 63.12 63.702 60.52 65.18 57.99 C 64.55 56.979 63.233 56.097 61.696 56.817 L 61.696 56.817 Z  M 58.42 55.653 C 57.756 55.581 57.192 56.416 56.328 56.055 C 56.131 56.274 55.951 56.511 55.749 56.725 C 57.657 59.023 58.523 62.284 59.996 64.986 C 60.787 62.391 60.696 59.548 60.87 56.716 C 59.784 56.785 59.181 55.734 58.42 55.653 L 58.42 55.653 Z  M 56.314 52.873 C 56.243 53.66 56.426 53.918 56.585 54.82 C 59.172 55.629 58.72 51.268 56.314 52.873 L 56.314 52.873 Z  M 53.444 51.931 C 52.329 51.321 50.654 50.657 49.214 50.383 C 47.428 50.041 47.596 52.818 47.672 54.474 C 47.731 55.786 48.413 57.173 48.71 58.044 C 48.849 58.451 48.88 58.883 49.228 58.963 C 49.842 59.106 51.87 58.296 52.448 57.98 C 53.67 57.314 54.619 56.256 55.657 55.545 C 55.67 55.2 55.683 54.854 55.697 54.508 C 55.073 54.198 54.352 53.977 53.436 53.937 C 54.057 53.624 54.971 53.628 55.538 53.256 C 55.543 53.118 55.549 52.98 55.554 52.843 C 54.52 52.764 54.126 52.303 53.444 51.931 L 53.444 51.931 Z  M 42.794 49.996 C 41.868 50.935 45.389 52.216 46.511 52.285 C 46.504 51.69 46.849 51.13 46.78 50.703 C 45.448 50.47 43.699 50.624 42.794 49.996 L 42.794 49.996 Z  M 54.194 50.437 C 54.189 50.529 54.07 50.495 54.05 50.57 C 55.241 51.501 56.125 51.693 57.746 51.613 C 58.477 51.083 59.125 50.462 59.886 49.965 C 58.134 50.122 55.929 51.21 54.194 50.437 Z  M 64.658 53.61 C 64.608 52.566 64.334 50.42 63.688 50.044 C 62.334 49.253 59.927 51.64 58.907 52.004 C 59.018 52.323 59.201 52.576 59.215 52.985 C 59.819 52.836 60.553 52.938 61.076 53.195 C 60.472 53.263 59.801 53.258 59.401 53.546 C 59.255 53.969 59.437 54.546 59.34 55.135 C 60.774 55.54 62.413 55.755 64.227 55.808 C 64.579 55.349 64.699 54.476 64.657 53.61 L 64.658 53.61 Z  M 41.236 50.905 C 40.946 50.697 38.98 48.139 38.711 48.246 C 35.153 49.649 31.827 52.075 28.855 54.369 C 31.689 60.45 32.833 67.9 33.035 75.08 C 36.281 76.599 39.133 78.788 43.538 79.016 C 43.028 75.409 42.562 72.191 42.273 68.796 C 41.166 68.329 39.578 68.817 38.543 68.651 C 38.534 67.403 40.125 68.104 40.257 67.265 C 40.357 66.63 39.382 66.582 39.699 65.582 C 40.509 65.876 40.935 66.526 41.798 66.771 C 42.587 65.044 41.787 61.99 41.901 60.547 C 41.922 60.276 42.036 59.046 42.643 59.261 C 43.18 59.452 42.612 62.533 42.671 63.899 C 42.725 65.157 42.519 66.374 43.028 67.164 C 47.286 66.584 51.611 66.21 56.217 66.084 C 55.204 65.649 54 65.238 52.68 64.494 C 51.965 64.09 49.709 63.251 49.503 62.572 C 49.174 61.489 50.367 60.912 50.571 59.983 C 48.422 61.156 48.003 58.86 47.495 57.235 C 47.034 55.762 46.772 54.662 46.659 53.812 C 44.808 52.93 42.829 52.036 41.236 50.905 L 41.236 50.905 Z  M 62.778 48.555 C 65.742 47.118 66.276 53.926 65.114 56.12 C 65.293 56.774 65.911 57.024 66.163 57.612 C 64.509 60.575 62.672 63.341 60.985 66.269 C 62.24 65.487 64.033 66.129 65.51 65.544 C 66.05 65.331 66.441 64.095 66.85 63.106 C 67.975 60.385 69.155 56.955 69.681 54.358 C 69.799 53.767 70.122 52.478 70.05 51.951 C 69.921 51.009 68.642 50.31 67.991 49.727 C 66.792 48.65 66.038 47.703 64.787 46.696 C 64.28 47.444 63.192 47.947 62.778 48.555 L 62.778 48.555 Z  M 34.458 22.272 C 33.045 23.825 33.341 26.737 33.512 28.809 C 36.065 27.202 39.453 28.935 39.421 31.667 C 40.639 31.634 39.876 30.144 39.656 29.185 C 38.935 26.05 40.87 22.644 39.743 19.778 C 37.557 19.944 35.761 20.837 34.458 22.272 Z  M 44.563 13.253 C 41.366 14.159 37.268 16.482 35.955 19.354 C 36.972 19.206 37.678 18.693 38.681 18.63 C 39.061 18.605 39.558 18.789 39.994 18.681 C 40.862 18.465 41.595 16.517 42.251 15.793 C 42.889 15.085 43.657 14.783 44.183 14.137 C 44.52 13.974 45.019 13.986 45.039 13.479 C 44.892 13.322 44.738 13.203 44.563 13.253 L 44.563 13.253 Z  M 61.206 14.105 C 57.888 12.233 52.27 10.825 48.741 12.584 C 45.892 14.005 42.042 16.354 40.729 19.332 C 41.955 22.206 40.366 24.838 40.265 27.756 C 40.211 29.308 40.996 30.663 41.056 32.353 C 40.636 33.045 39.354 33.13 38.466 33.083 C 38.168 31.588 37.645 29.908 36.105 29.739 C 33.927 29.501 32.335 31.304 32.236 33.188 C 32.119 35.403 33.937 39.075 36.515 38.82 C 37.51 38.722 37.756 37.723 38.84 37.734 C 39.428 38.907 37.933 39.275 37.779 40.115 C 37.739 40.331 37.903 41.179 37.999 41.576 C 38.467 43.51 39.511 46.014 40.538 47.487 C 41.135 48.343 41.996 48.866 43.019 49.198 C 44.229 49.592 45.666 49.72 47.16 49.82 C 47.652 48.759 49.465 48.847 50.647 49.124 C 49.231 48.563 47.914 47.204 46.823 46 C 45.57 44.62 44.301 43.138 44.237 41.334 C 46.605 44.619 48.562 47.489 52.868 48.934 C 56.127 50.027 59.932 48.433 62.435 46.675 C 63.474 45.944 64.094 44.784 64.833 43.723 C 67.596 39.748 68.885 34.075 68.602 28.577 C 68.485 26.309 68.49 24.049 67.729 22.524 C 66.934 20.928 64.245 19.501 62.67 20.944 C 62.378 19.393 63.979 18.433 65.86 18.992 C 64.519 17.26 63.112 15.181 61.206 14.105 L 61.206 14.105 Z  M 67.388 65.271 C 69.982 63.982 74.827 61.802 76.453 65.276 C 77.053 66.557 77.756 68.722 78.067 70.044 C 78.506 71.909 77.591 75.83 75.674 76.456 C 73.981 77.009 72.005 76.975 69.965 76.565 C 69.725 76.365 69.457 76.017 69.27 75.654 C 67.814 75.598 66.45 75.733 65.3 76.331 C 65.409 77.408 64.68 77.581 63.997 77.803 C 63.491 79.811 65.01 82.433 64.646 84.263 C 64.387 85.568 62.783 85.769 61.603 86.013 C 61.565 86.738 61.655 87.343 61.735 87.956 C 61.466 88.95 60.256 89.515 59.11 89.654 C 55.339 90.107 49.614 90.311 45.988 89.006 C 44.976 86.524 44.178 83.504 43.335 80.67 C 39.798 81.048 36.937 79.143 34.24 77.896 C 33.306 77.463 32.014 77.225 31.666 76.481 C 31.327 75.761 31.466 74.382 31.382 73.079 C 31.168 69.752 30.985 66.543 30.107 63.136 C 29.712 61.607 29.024 60.257 28.545 58.784 C 28.101 57.419 27.327 55.732 27.124 54.37 C 26.825 52.353 28.725 52.24 29.94 51.366 C 31.818 50.014 33.293 49.266 35.327 48.046 C 35.929 47.684 37.746 46.769 37.952 46.348 C 38.363 45.513 37.247 44.335 36.949 43.68 C 36.477 42.645 36.231 41.765 36.163 40.743 C 34.457 40.474 33.163 39.458 32.382 38.313 C 31.089 36.418 30.193 32.912 31.311 30.245 C 31.399 30.035 31.837 29.622 31.901 29.299 C 32.028 28.664 31.661 27.819 31.639 27.144 C 31.521 23.678 32.225 20.691 34.559 19.646 C 35.506 15.872 38.896 14.617 42.091 12.741 C 43.285 12.04 44.601 11.592 45.961 11.092 C 50.837 9.298 58.319 9.635 62.367 12.696 C 64.083 13.995 66.826 16.735 67.807 18.719 C 70.399 23.958 70.215 32.713 68.402 39.085 C 68.159 39.941 67.805 41.198 67.312 42.226 C 66.968 42.944 65.898 44.38 66.028 45.013 C 66.162 45.668 68.466 47.418 68.96 47.895 C 69.85 48.753 71.541 49.893 71.678 50.976 C 71.825 52.128 71.17 53.705 70.837 54.818 C 69.729 58.531 68.646 61.962 67.388 65.271 Z " fill="rgb(35,31,32)"/><path d=" M 50.088 39.575 C 50.229 39.387 51.002 39.103 52.084 39.624 C 52.084 39.624 50.802 39.837 50.909 41.976 L 50.374 41.869 C 50.374 41.869 49.822 39.93 50.088 39.575 Z " fill="rgb(247,228,205)"/><path d=" M 59.46 57.955 C 59.46 58.165 59.347 58.359 59.166 58.464 C 58.984 58.569 58.76 58.569 58.578 58.464 C 58.396 58.359 58.284 58.165 58.284 57.955 C 58.284 57.631 58.547 57.367 58.872 57.367 C 59.196 57.367 59.46 57.631 59.46 57.955 Z  M 60.048 60.681 C 60.047 61.006 59.784 61.269 59.459 61.269 C 59.134 61.268 58.871 61.005 58.871 60.68 C 58.871 60.355 59.135 60.092 59.46 60.093 C 59.784 60.093 60.047 60.356 60.047 60.681" fill="rgb(29,25,25)"/></g></svg>