<svg width="100" height="100" viewBox="0 0 100 100" fill="none" xmlns="http://www.w3.org/2000/svg">
<path d="M84.9161 48.1956C84.9161 67.9197 69.2836 83.9093 50 83.9093C30.7177 83.9093 15.0852 67.9197 15.0852 48.1956C15.0852 28.4714 30.7177 12.4818 50 12.4818C69.2836 12.4818 84.9161 28.4714 84.9161 48.1956Z" fill="#D33833"/>
<path d="M16.5088 57.0409C16.5088 57.0409 13.9814 19.7978 48.2976 18.7338L45.9046 14.743L27.283 20.9949L21.9618 27.1138L17.3065 36.0251L14.6459 46.3999L15.4436 53.3164" fill="#EF3D3A"/>
<path d="M26.086 23.8322C19.9609 30.1004 16.1692 38.7554 16.1692 48.3287C16.1692 57.9008 19.9609 66.5558 26.086 72.824C32.216 79.0897 40.6619 82.9573 50.0001 82.9573C59.3382 82.9573 67.7854 79.0897 73.9142 72.824C80.0392 66.5558 83.831 57.9008 83.831 48.3287C83.831 38.7554 80.0392 30.1004 73.9142 23.8322C67.7854 17.5666 59.3395 13.7001 50.0001 13.6989C40.6619 13.7001 32.216 17.5666 26.086 23.8322V23.8322ZM24.5367 74.3397C18.0258 67.6808 14.0001 58.4795 14.0001 48.3287C14.0001 38.1767 18.0258 28.9767 24.5354 22.3178C31.045 15.6576 40.0546 11.5299 50.0001 11.5311C59.9455 11.5299 68.9564 15.6576 75.4635 22.3178C81.9756 28.9767 86.0013 38.178 86 48.3287C86 58.4795 81.9756 67.6808 75.4635 74.3397C68.9564 80.9986 59.9455 85.1264 50.0001 85.1264C40.0546 85.1264 31.045 80.9986 24.5367 74.3397Z" fill="#231F20"/>
<path d="M64.6978 48.3934L59.3779 49.1911L52.1951 49.99L47.5397 50.1219L43.0174 49.99L39.5592 48.9248L36.4991 45.6009L34.1049 38.8163L33.5735 37.3529L30.3815 36.2902L28.5186 33.2301L27.1884 28.841L28.6518 24.9833L32.1101 23.7862L34.9038 25.1165L36.2328 28.0434L37.8294 27.777L38.362 27.1125L37.8294 24.0525L37.6963 20.1948L38.4952 14.8749L38.4641 11.836L40.8895 7.95835L45.1454 4.89955L52.5933 1.70636L60.8401 2.9035L68.0229 8.0915L71.348 13.4127L73.4772 17.2691L74.0086 26.8462L72.4132 35.093L69.4863 42.409L66.6939 46.2655" fill="#F0D6B7"/>
<path d="M60.1757 71.4041L41.1547 72.203V75.395L42.7513 86.5674L41.9536 87.4995L28.6519 82.976L27.7211 81.3807L26.3908 66.3505L23.332 57.3048L22.6663 55.1768L33.3073 47.8621L36.6324 46.5318L39.5593 50.1232L42.0867 52.3843L45.0124 53.3152L46.3427 53.7146L47.9393 60.6311L49.1352 62.0946L52.1952 61.0293L50.0672 65.1534L61.6391 70.6064L60.1757 71.4053" fill="#335061"/>
<path d="M28.6519 24.9833L32.1101 23.7862L34.9038 25.1165L36.2329 28.0434L37.8295 27.7771L38.2289 26.1805L37.43 23.1217L38.2289 15.8057L37.5632 11.8148L39.9574 9.02234L45.1455 4.89832L43.682 2.9035L36.366 6.49491L33.3072 8.88919L31.5775 12.6137L28.9182 16.2052L28.1205 20.4611L28.6519 24.9833Z" fill="#6D6B6D"/>
<path d="M34.1049 12.4806C34.1049 12.4806 36.101 7.5589 44.0815 5.16463L44.4797 3.43613L35.8347 6.76123L32.5096 10.0863L31.0462 12.7469L34.1049 12.4806ZM30.1153 24.0525C30.1153 24.0525 27.3216 14.7417 37.9627 13.4114L37.5632 11.8148L30.2472 13.5446L28.1193 20.4611L28.6519 24.9833L30.1153 24.0525Z" fill="#DCD9D8"/>
<path d="M34.3713 36.4221L36.1122 34.7346C36.1122 34.7346 36.8987 34.8267 37.0306 35.7575C37.1638 36.6884 37.5632 45.0683 43.2826 49.5906C43.804 50.0037 39.0267 48.9248 39.0267 48.9248L34.7695 42.2758L34.3713 36.4221ZM58.8454 33.8959C58.8454 33.8959 59.1565 29.8639 60.2428 30.1738C61.328 30.4837 61.328 31.57 61.328 31.57C61.328 31.57 58.6911 33.2749 58.8454 33.8959ZM69.8859 19.1308C69.8859 19.1308 67.692 19.5937 67.4916 21.5251C67.2888 23.4576 69.8859 21.9245 70.2841 21.7914L69.8859 19.1308ZM53.7905 19.2639C53.7905 19.2639 50.8649 19.6634 50.8649 21.5251C50.8649 23.3867 54.19 23.2548 55.122 22.4571L53.7905 19.2639ZM35.7016 27.9102C35.7016 27.9102 30.6467 24.8502 30.1153 27.777C29.5827 30.7039 28.3856 32.8306 30.913 35.8907L29.1833 35.3581L27.5867 31.2353L27.0553 27.2444L30.1153 24.0525L33.5723 24.3188L35.5684 25.9141L35.7016 27.9102ZM38.0958 19.5302C38.0958 19.5302 40.3569 7.82519 51.7957 5.56407C61.2135 3.70241 66.1601 5.96353 68.023 8.09149C68.023 8.09149 59.643 -1.88381 51.6625 1.17498C43.682 4.23378 37.8295 9.82 37.9627 13.4114C38.1892 19.5278 38.0958 19.5302 38.0958 19.5302V19.5302ZM68.9538 9.42054C68.9538 9.42054 65.0974 9.28863 64.9642 12.7469C64.9642 12.7469 64.9642 13.2783 65.2305 13.8109C65.2305 13.8109 68.2893 10.3526 70.151 12.2143" fill="#F7E4CD"/>
<path d="M52.0633 14.1705C52.0633 14.1705 51.4001 8.86182 46.8741 11.9492C43.9472 13.944 44.2135 16.7378 44.7461 17.2691C45.2787 17.8018 45.1331 18.8732 45.5388 18.1378C45.9433 17.4023 45.8101 15.008 47.2736 14.3435C48.7358 13.6777 51.135 12.9348 52.0633 14.1705V14.1705Z" fill="#F7E4CD"/>
<path d="M39.5581 50.1219L27.0553 55.7094C27.0553 55.7094 32.2433 76.3258 29.5828 82.7109L27.7211 82.0464L27.5867 74.1978L24.1297 59.3008L22.6663 55.1768L35.7016 46.3986L39.5581 50.1219ZM40.8436 61.5258L42.6181 63.6899V71.6704H40.4902C40.4902 71.6704 40.2238 66.0842 40.2238 65.4184C40.2238 64.7539 40.4902 62.3596 40.4902 62.3596L40.8436 61.5258ZM40.8884 72.8675L34.9039 73.1338L36.6324 74.331L40.8884 74.9955" fill="#49728B"/>
<path d="M61.3728 71.5373L66.2945 71.4041L67.4916 83.6418L62.4368 84.3063L61.3728 71.5373Z" fill="#335061"/>
<path d="M62.7031 71.5372L70.151 71.139C70.151 71.139 73.211 63.4236 73.211 63.0254L75.8716 51.8517L69.8859 45.6009L68.6888 44.537L65.4956 47.7289V60.0985L62.7031 71.5372Z" fill="#335061"/>
<path d="M66.0282 70.6064L61.3728 71.5372L62.0373 75.2618C63.7671 76.0607 66.6927 73.9315 66.6927 73.9315L66.0282 70.6064ZM66.1613 47.3294L75.4721 54.2472L75.7372 51.054L68.6888 44.537L66.1613 47.3294Z" fill="#49728B"/>
<path d="M45.5052 97.7424L42.7513 86.5674L41.3812 78.3219L41.1547 72.2018L53.6188 71.5385L61.3728 71.5373L60.6685 85.5047L61.8656 96.2789L61.7312 98.2737L51.624 99.0714L45.5052 97.7424Z" fill="white"/>
<path d="M59.643 71.4041C59.643 71.4041 58.9785 85.2371 60.9733 95.0805C60.9733 95.0805 56.9824 97.6079 51.1299 98.2724L62.3036 97.8742L63.6339 97.0753L62.0373 75.2618L61.639 70.6064" fill="#DCD9D8"/>
<path d="M67.7182 82.579L72.905 81.1156L82.7484 80.5842L84.2118 76.0607L81.5512 68.2134L78.4924 67.8152L74.2353 69.1442L70.1511 71.139L67.9833 70.7408L66.2933 71.4041" fill="white"/>
<path d="M67.6235 79.9172C67.6235 79.9172 71.0818 78.3219 71.6144 78.455L70.151 71.139L71.8807 70.4745C71.8807 70.4745 73.0778 77.3898 73.0778 78.1887C73.0778 78.1887 80.5257 78.5869 81.1915 78.5869C81.1915 78.5869 82.7868 75.5281 82.3886 72.3362L83.8508 76.5921L83.984 78.9864L81.856 82.1783L79.4617 82.7109L75.4721 82.5778L74.1418 80.8493L69.4864 81.5138L68.023 82.0464" fill="#DCD9D8"/>
<path d="M62.3969 70.4745L59.4713 63.0266L56.4113 58.6375C56.4113 58.6375 57.077 56.7746 58.0079 56.7746H61.0666L63.9935 57.8399L63.7272 62.7603L62.3969 70.4745Z" fill="white"/>
<path d="M62.9694 67.9458C62.9694 67.9458 59.2449 60.7643 59.2449 59.7003C59.2449 59.7003 59.9094 58.1037 60.8402 58.5031C61.7723 58.9014 63.7671 59.9653 63.7671 59.9653V57.4392L59.2449 56.5071L56.1848 56.9065L61.3728 69.143L62.4368 69.2774" fill="#DCD9D8"/>
<path d="M46.7023 50.3907L43.0176 49.99L39.5581 48.9248V50.1219L41.248 51.9861L46.5692 54.3804" fill="white"/>
<path d="M40.7564 50.789C40.7564 50.789 44.8792 52.5187 46.2095 52.1193L46.3414 53.7134L42.6181 52.9169L40.3569 51.3216L40.7564 50.789Z" fill="#DCD9D8"/>
<path d="M67.7032 57.2276C65.4458 57.1617 63.4074 56.8929 61.6217 56.3901C61.7437 55.6572 61.5159 54.9391 61.6989 54.4115C62.1954 54.0531 63.0304 54.0593 63.782 53.9759C63.1312 53.6549 62.2178 53.5292 61.4674 53.7134C61.45 53.2057 61.2222 52.8908 61.0841 52.4938C62.3522 52.0396 65.3487 49.0717 67.0337 50.0548C67.8364 50.5227 68.1773 53.1932 68.2395 54.4924C68.2918 55.5701 68.1425 56.6564 67.7032 57.2276Z" fill="#D33833"/>
<path d="M56.9102 53.5379C56.9053 53.7084 56.8978 53.8814 56.8903 54.0531C56.186 54.516 55.0486 54.5098 54.2746 54.8993C55.4157 54.9491 56.3129 55.2241 57.0894 55.6111L57.0384 56.9016C55.7467 57.7851 54.567 59.103 53.0463 59.9317C52.327 60.3237 49.8033 61.333 49.038 61.155C48.6062 61.0542 48.5664 60.5166 48.3934 60.0101C48.0251 58.9262 47.1764 57.2015 47.1017 55.5688C47.0084 53.5068 46.7993 50.0535 49.0206 50.4779C50.8126 50.8188 52.8982 51.6451 54.2858 52.403C55.1332 52.8659 55.6248 53.4396 56.9102 53.5379V53.5379Z" fill="#D33833"/>
<path d="M62.5301 56.9078C62.5301 56.9078 61.5992 55.5775 62.2638 55.178C62.9283 54.7798 63.5941 55.1793 63.9935 54.5135C64.393 53.849 63.9935 53.4495 64.1267 52.6519C64.2598 51.8542 64.9256 51.7198 65.5901 51.5879C66.2546 51.4547 68.1175 51.1884 68.3826 51.8542L67.5849 49.4599L65.9883 48.9273L60.9335 51.8542L60.6684 53.3164V56.2433L62.5301 56.9078ZM48.5639 61.2969C48.4034 59.2212 48.2354 57.148 48.0462 55.0748C47.765 51.9786 48.7904 52.5187 51.4746 52.5187C51.884 52.5187 53.9983 53.0078 54.1501 53.3164C54.8756 54.7985 52.9368 54.4687 54.9864 55.5862C56.7149 56.5295 59.7712 55.0138 59.0718 52.9169C58.6811 52.4515 57.0347 52.7726 56.4448 52.4664L53.3276 50.8499C52.0047 50.1643 48.9497 49.165 47.5397 50.1232C43.9682 52.5523 47.765 58.6214 49.0393 61.155" fill="#EF3D3A"/>
<path d="M52.0632 14.1706C48.4382 13.3268 46.6376 15.6887 45.5387 18.1378C44.5569 17.9001 44.9476 16.5648 45.1953 15.8854C45.8449 14.1009 48.4594 11.7253 50.5961 12.0476C51.5157 12.1857 52.7601 13.0269 52.0632 14.1706ZM69.7278 18.2996L69.8996 18.3058C70.7184 20.0081 71.4277 21.8113 72.4606 23.3133C71.7687 24.9261 67.2191 26.3522 67.2888 23.4577C68.2731 23.0271 69.9718 23.3693 70.8441 22.8205C70.3401 21.4355 69.6121 20.257 69.7278 18.2996ZM53.9199 18.3431C54.6977 19.768 54.9503 21.2663 56.0554 22.3427C56.5531 22.828 57.52 23.4191 57.0409 24.7668C56.9289 25.0854 56.1101 25.7935 55.636 25.9329C53.9087 26.4431 49.8843 26.0386 51.2469 23.8845C52.6755 23.9517 54.5956 24.8129 55.6634 23.7763C54.8433 22.4646 53.3823 19.8713 53.9199 18.3431ZM69.0795 32.8257C66.4787 34.497 63.5779 36.3138 59.317 35.892C58.4061 35.1005 58.0589 33.3384 58.9437 32.1749C59.4041 32.9663 59.1142 34.4236 60.3972 34.6426C62.8163 35.0557 65.63 33.163 67.3697 32.5009C68.4486 30.6828 67.2763 30.0133 66.3057 28.8436C64.3171 26.4456 61.6478 23.4739 61.7449 19.8837C62.5488 19.3013 62.6185 20.7735 62.7329 21.0423C63.772 23.4726 66.3866 26.5812 68.2943 28.6619C68.7622 29.1746 69.5337 29.6661 69.6196 30.0046C69.8672 30.9902 68.9762 32.1712 69.0795 32.8257V32.8257ZM34.7906 31.0673C33.9755 30.6019 33.7814 28.5524 32.8244 28.4939C31.4568 28.4105 31.707 31.152 31.7119 32.756C30.7711 31.9024 30.6044 29.2692 31.2963 27.919C30.5073 27.5319 30.1552 28.3458 29.7196 28.632C30.2808 24.5503 35.6904 26.7392 34.7919 31.0673H34.7906ZM70.7346 34.5256C69.525 36.8303 67.8114 39.3689 64.2598 39.4423C64.1877 38.6982 64.1317 37.5657 64.2636 37.1165C66.9789 36.8564 68.6552 35.4738 70.7346 34.5256ZM53.7158 36.0202C55.9807 37.2123 60.1445 37.3392 63.2245 37.2496C63.39 37.9241 63.3863 38.7579 63.3925 39.5805C59.434 39.7783 54.7537 38.799 53.7158 36.0202ZM53.284 38.2414C54.852 42.1763 60.2366 41.7234 64.7775 41.6151C64.5784 42.1253 64.1454 42.7288 63.6065 42.9466C62.1505 43.539 58.1373 43.9882 56.1163 42.9155C54.8346 42.2348 54.012 40.6955 53.3102 39.7932C52.9717 39.3577 51.283 38.2439 53.284 38.2414" fill="#231F20"/>
<path d="M68.8905 59.9417C67.0512 63.0913 65.2928 66.3256 63.1101 69.1044C64.0248 66.4139 64.4168 61.9141 64.5549 58.482C66.4676 57.5872 68.1065 58.6848 68.8905 59.9417V59.9417Z" fill="#81B0C4"/>
<path d="M78.7848 71.261C76.7253 71.6729 75.2793 73.6739 73.2708 73.5457C74.3746 71.9902 76.3096 71.3332 78.7848 71.261ZM79.6932 74.4828C78.0145 74.6608 76.0446 74.932 74.3422 74.7914C75.1473 73.5607 78.2522 73.9863 79.6932 74.4828ZM80.2744 77.2604C78.3891 77.3014 76.0446 77.2641 74.2526 77.1135C75.3129 75.9749 79.0511 76.6904 80.2744 77.2604Z" fill="#231F20"/>
<path d="M65.3425 84.8613C65.6125 87.2307 66.5508 89.6299 66.4338 92.2233C65.391 92.5755 64.7924 92.8829 63.3949 92.8816C63.2954 90.6765 63.0005 87.3066 63.0888 85.2048C63.777 85.2508 64.7899 84.7145 65.3425 84.8613Z" fill="#DCD9D8"/>
<path d="M62.3013 49.9577C61.3555 50.5762 60.5479 51.3477 59.6394 52.0072C57.6222 52.108 56.5221 51.8679 55.04 50.7105C55.0649 50.6172 55.213 50.6583 55.2192 50.545C57.3771 51.5057 60.1223 50.1518 62.3013 49.9577" fill="#F0D6B7"/>
<path d="M50.9695 64.673C51.5618 62.1033 53.8864 60.7718 55.997 59.3568C58.1747 62.1207 59.5 65.676 60.9585 69.1069C57.5114 68.0678 53.9897 66.3816 50.9695 64.673Z" fill="#81B0C4"/>
<path d="M63.0901 85.2048C63.0018 87.3066 63.2967 90.6765 63.395 92.8816C64.7925 92.8829 65.3911 92.5755 66.4339 92.2233C66.5521 89.6299 65.6126 87.2307 65.3425 84.8613C64.79 84.7145 63.777 85.2508 63.0901 85.2048V85.2048ZM41.3376 73.2546C42.2585 81.7241 43.5925 88.8422 46.039 96.3411C51.4709 97.9912 58.0191 98.1343 62.8188 96.646C61.9378 92.4137 62.3235 87.2605 61.8084 82.7433C61.4201 79.3485 61.618 75.9326 61.0853 72.4693C55.2677 71.2597 47.0458 72.1868 41.3376 73.2546ZM62.4604 72.5228C62.4119 76.1603 62.6235 79.748 62.901 83.3891C64.2972 83.1801 65.2455 83.0395 66.5421 82.7557C66.1215 79.2489 66.1738 75.3041 65.3151 72.203C64.3233 72.213 63.4498 72.1918 62.4604 72.5228V72.5228ZM69.5449 71.9367C68.8829 71.7849 68.1114 71.9305 67.478 71.9429C67.7754 74.9084 68.4971 78.18 68.751 81.2923C69.7478 81.3234 70.2804 80.853 71.1005 80.695C71.144 77.9635 70.8603 74.1991 69.5449 71.9367ZM80.2731 81.7378C82.3501 81.2338 83.6555 78.6902 83.0756 76.0769C82.6848 74.321 81.9904 71.0158 81.2475 69.8921C80.6987 69.0621 79.2104 67.9745 78.0207 68.7348C76.0869 69.9743 72.6809 70.3326 71.271 71.8322C71.9778 74.1854 72.1968 77.4196 72.4893 80.4025C74.9047 80.5543 77.8764 79.738 79.8861 80.6041C78.4836 81.0583 76.6631 81.0608 75.4522 81.7241C76.4428 82.202 78.7612 82.1049 80.2731 81.7378V81.7378ZM60.9584 69.1069C59.5 65.676 58.1746 62.1207 55.9969 59.3568C53.8864 60.7717 51.5618 62.1033 50.9694 64.673C53.9896 66.3816 57.5114 68.0678 60.9584 69.1069ZM64.5548 58.4832C64.4167 61.9141 64.0247 66.4152 63.11 69.1044C65.2927 66.3268 67.0511 63.0913 68.8904 59.943C68.1064 58.6848 66.4675 57.5873 64.5548 58.4832V58.4832ZM60.4781 57.0347C59.6518 56.9451 58.9499 57.9842 57.8747 57.535C57.6296 57.8075 57.4056 58.1024 57.1542 58.3688C59.5286 61.2284 60.6062 65.2865 62.4393 68.6489C63.4236 65.4197 63.3104 61.8818 63.5269 58.3576C62.1755 58.4434 61.4251 57.1355 60.4781 57.0347V57.0347ZM57.8573 53.5752C57.769 54.5546 57.9967 54.8757 58.1945 55.9981C61.4139 57.0049 60.8514 51.5779 57.8573 53.5752ZM54.2858 52.403C52.8983 51.6439 50.8139 50.8176 49.0219 50.4766C46.7994 50.051 47.0084 53.5068 47.103 55.5676C47.1764 57.2002 48.0251 58.9263 48.3947 60.0101C48.5677 60.5166 48.6063 61.0542 49.0393 61.1538C49.8034 61.3317 52.3271 60.3237 53.0464 59.9305C54.5671 59.1017 55.748 57.7851 57.0397 56.9003C57.0559 56.471 57.0721 56.0404 57.0895 55.6099C56.313 55.2241 55.4158 54.9491 54.2759 54.8993C55.0486 54.5098 56.186 54.5148 56.8916 54.0518C56.8979 53.8801 56.9053 53.7084 56.9116 53.5379C55.6248 53.4396 55.1345 52.8659 54.2858 52.403V52.403ZM41.0327 49.995C39.8804 51.1635 44.262 52.7576 45.6582 52.8435C45.6495 52.1031 46.0788 51.4062 45.993 50.8748C44.3354 50.5849 42.1589 50.7765 41.0327 49.995ZM55.2191 50.5438C55.2129 50.6583 55.0648 50.616 55.0399 50.7093C56.522 51.8679 57.6221 52.1068 59.6393 52.0073C60.549 51.3477 61.3554 50.5749 62.3024 49.9564C60.1222 50.1518 57.3782 51.5058 55.2191 50.5438ZM68.2408 54.4924C68.1786 53.1932 67.8376 50.5227 67.0337 50.0548C65.3487 49.0704 62.3534 52.0409 61.0841 52.4938C61.2222 52.8908 61.45 53.2056 61.4674 53.7146C62.219 53.5292 63.1324 53.6561 63.7833 53.9759C63.0316 54.0606 62.1966 54.0543 61.6989 54.4127C61.5172 54.9391 61.7436 55.6571 61.6229 56.3901C63.4074 56.8941 65.4471 57.1617 67.7044 57.2276C68.1425 56.6564 68.2918 55.57 68.2395 54.4924H68.2408ZM39.0939 51.1262C38.733 50.8674 36.2865 47.6841 35.9517 47.8173C31.524 49.5632 27.3851 52.5822 23.6867 55.4369C27.2134 63.0042 28.637 72.2752 28.8884 81.2102C32.9278 83.1004 36.4769 85.8245 41.9585 86.1082C41.3239 81.6196 40.744 77.615 40.3843 73.3902C39.0068 72.809 37.0306 73.4163 35.7426 73.2098C35.7314 71.6567 37.7113 72.5291 37.8756 71.485C38 70.6948 36.7867 70.635 37.1812 69.3906C38.1892 69.7565 38.7193 70.5654 39.7932 70.8702C40.7751 68.7211 39.7796 64.9206 39.9214 63.1249C39.9476 62.7877 40.0894 61.2571 40.8448 61.5246C41.513 61.7623 40.8062 65.5964 40.8796 67.2963C40.9468 68.8617 40.6905 70.3762 41.3239 71.3593C46.6226 70.6375 52.0048 70.1721 57.7366 70.0153C56.476 69.474 54.9777 68.9625 53.3351 68.0367C52.4453 67.5339 49.6379 66.4899 49.3815 65.6449C48.9721 64.2972 50.4567 63.5792 50.7106 62.4231C48.0363 63.8828 47.5149 61.0256 46.8827 59.0034C46.3091 57.1704 45.983 55.8015 45.8424 54.7437C43.539 53.6462 41.0762 52.5336 39.0939 51.1262V51.1262ZM65.9013 48.2018C69.5897 46.4136 70.2543 54.8856 68.8082 57.6159C69.031 58.4297 69.8001 58.7408 70.1137 59.4726C68.0554 63.1598 65.7694 66.6019 63.67 70.2455C65.2318 69.2724 67.463 70.0713 69.301 69.3433C69.973 69.0783 70.4596 67.5402 70.9686 66.3094C72.3685 62.9233 73.837 58.655 74.4915 55.4232C74.6384 54.6877 75.0403 53.0837 74.9507 52.4279C74.7902 51.2556 73.1986 50.3858 72.3885 49.6603C70.8964 48.32 69.9581 47.1416 68.4013 45.8884C67.7704 46.8192 66.4165 47.4452 65.9013 48.2018V48.2018ZM30.6592 15.4946C28.9008 17.4272 29.2692 21.051 29.4819 23.6294C32.659 21.6296 36.8751 23.7862 36.8353 27.186C38.351 27.1449 37.4015 25.2907 37.1277 24.0973C36.2305 20.196 38.6384 15.9575 37.236 12.391C34.5156 12.5976 32.2807 13.7089 30.6592 15.4946V15.4946ZM43.2341 4.27114C39.2557 5.39859 34.156 8.28938 32.5221 11.8634C33.7877 11.6792 34.6662 11.0408 35.9144 10.9624C36.3873 10.9313 37.0057 11.1603 37.5483 11.0259C38.6285 10.7571 39.5406 8.33294 40.357 7.43198C41.1509 6.55092 42.1066 6.17511 42.7612 5.37121C43.1806 5.16837 43.8015 5.1833 43.8264 4.55238C43.6435 4.357 43.4519 4.20892 43.2341 4.27114V4.27114ZM63.945 5.33139C59.816 3.00182 52.8249 1.24968 48.4333 3.43862C44.8879 5.20695 40.0969 8.1301 38.463 11.836C39.9886 15.4125 38.0112 18.6878 37.8855 22.319C37.8183 24.2504 38.7952 25.9366 38.8699 28.0396C38.3472 28.9008 36.7519 29.0066 35.6468 28.9481C35.276 27.0877 34.6252 24.997 32.7087 24.7867C29.9984 24.4905 28.0173 26.7342 27.8941 29.0787C27.7485 31.8351 30.0108 36.4047 33.219 36.0873C34.4572 35.9654 34.7633 34.7222 36.1122 34.7359C36.844 36.1956 34.9835 36.6536 34.7919 37.6989C34.7421 37.9677 34.9462 39.0229 35.0657 39.517C35.6481 41.9237 36.9472 45.0397 38.2253 46.8728C38.9682 47.938 40.0396 48.5888 41.3127 49.002C42.8184 49.4923 44.6067 49.6516 46.4658 49.776C47.0781 48.4557 49.3342 48.5652 50.8052 48.9099C49.0431 48.2118 47.4041 46.5206 46.0465 45.0223C44.4872 43.305 42.908 41.4608 42.8284 39.2158C45.7752 43.3038 48.2105 46.8752 53.569 48.6734C57.6246 50.0336 62.3596 48.05 65.4744 45.8623C66.7674 44.9526 67.5389 43.5091 68.4586 42.1887C71.8969 37.2422 73.501 30.1825 73.1488 23.3407C73.0032 20.5183 73.0094 17.7059 72.0624 15.8082C71.0731 13.8221 67.7268 12.0463 65.7669 13.842C65.4035 11.9119 67.3958 10.7173 69.7366 11.4129C68.0678 9.25755 66.3169 6.67039 63.945 5.33139V5.33139ZM71.6381 69.0036C74.8661 67.3995 80.8953 64.6867 82.9188 69.0098C83.6654 70.6039 84.5403 73.2981 84.9273 74.9432C85.4736 77.2641 84.3349 82.1435 81.9494 82.9225C79.8426 83.6107 77.3836 83.5683 74.8449 83.0581C74.5463 82.8092 74.2128 82.3762 73.9801 81.9245C72.1682 81.8548 70.4708 82.0228 69.0397 82.7669C69.1754 84.1072 68.2682 84.3225 67.4182 84.5987C66.7885 87.0975 68.6788 90.3604 68.2259 92.6377C67.9036 94.2617 65.9075 94.5118 64.4391 94.8155C64.3918 95.7177 64.5038 96.4705 64.6033 97.2334C64.2686 98.4703 62.7628 99.1734 61.3367 99.3464C56.644 99.9101 49.5197 100.164 45.0074 98.54C43.748 95.4513 42.755 91.6932 41.7059 88.1665C37.3044 88.6369 33.7441 86.2663 30.3879 84.7145C29.2256 84.1756 27.6178 83.8795 27.1847 82.9536C26.7629 82.0576 26.9359 80.3416 26.8313 78.7201C26.565 74.5799 26.3373 70.5865 25.2447 66.3468C24.7531 64.444 23.897 62.7641 23.3009 60.931C22.7484 59.2324 21.7852 57.133 21.5326 55.4381C21.1605 52.9281 23.5249 52.7875 25.0369 51.6999C27.3739 50.0174 29.2094 49.0866 31.7406 47.5684C32.4897 47.1179 34.7508 45.9793 35.0072 45.4554C35.5186 44.4163 34.1299 42.9503 33.759 42.1352C33.1717 40.8473 32.8655 39.7522 32.7809 38.4804C30.6579 38.1456 29.0476 36.8813 28.0757 35.4564C26.4667 33.0982 25.3517 28.7353 26.743 25.4164C26.8525 25.1551 27.3975 24.6411 27.4772 24.2392C27.6352 23.449 27.1785 22.3974 27.1511 21.5574C27.0043 17.2443 27.8804 13.5272 30.7849 12.2267C31.9633 7.53029 36.1819 5.96853 40.1579 3.63399C41.6437 2.76165 43.2814 2.20415 44.9738 1.58194C51.0416 -0.65056 60.3524 -0.231189 65.3898 3.57799C67.5252 5.1945 70.9387 8.60422 72.1595 11.0732C75.385 17.5927 75.1561 28.4876 72.8999 36.4171C72.5975 37.4823 72.157 39.0466 71.5435 40.3258C71.1154 41.2193 69.7839 43.0063 69.9457 43.7941C70.1124 44.6092 72.9796 46.7869 73.5943 47.3805C74.7018 48.4482 76.8062 49.8668 76.9767 51.2146C77.1596 52.6481 76.3445 54.6106 75.9301 55.9956C74.5513 60.6162 73.2036 64.8858 71.6381 69.0036V69.0036Z" fill="#231F20"/>
<path d="M50.1095 37.0269C50.2849 36.7929 51.2469 36.4395 52.5933 37.0879C52.5933 37.0879 50.998 37.3529 51.1311 40.0148L50.4654 39.8816C50.4654 39.8816 49.7784 37.4687 50.1095 37.0269V37.0269Z" fill="#F7E4CD"/>
<path d="M61.7724 59.8994C61.7724 60.1607 61.6318 60.4021 61.4065 60.5328C61.1801 60.6635 60.9013 60.6635 60.6748 60.5328C60.4483 60.4021 60.309 60.1607 60.309 59.8994C60.309 59.4962 60.6362 59.1677 61.0407 59.1677C61.4439 59.1677 61.7724 59.4962 61.7724 59.8994V59.8994ZM62.5041 63.2917C62.5029 63.6961 62.1756 64.0234 61.7712 64.0234C61.3667 64.0222 61.0394 63.6949 61.0394 63.2904C61.0394 62.886 61.368 62.5587 61.7724 62.56C62.1756 62.56 62.5029 62.8872 62.5029 63.2917" fill="#1D1919"/>
</svg>
