<svg height="100pt" viewBox="0 0 100 100" width="100pt" xmlns="http://www.w3.org/2000/svg"><path d="m0 0h100v100h-100z" fill="#231f20"/><path d="m78.058 48.55c0 15.85-12.562 28.699-28.058 28.699-15.495 0-28.057-12.849-28.057-28.699s12.562-28.699 28.057-28.699c15.496 0 28.058 12.849 28.058 28.699" fill="#d33833"/><path d="m23.087 55.658s-2.031-29.928 25.545-30.783l-1.923-3.207-14.964 5.024-4.276 4.917-3.741 7.161-2.138 8.337.641 5.558" fill="#ef3d3a"/><path d="m30.783 28.972c-4.922 5.037-7.969 11.992-7.969 19.685 0 7.692 3.047 14.647 7.969 19.684 4.926 5.035 11.713 8.143 19.217 8.143s14.292-3.108 19.217-8.143c4.922-5.037 7.969-11.992 7.969-19.684 0-7.693-3.047-14.648-7.969-19.685-4.925-5.035-11.712-8.142-19.217-8.143-7.504.001-14.291 3.108-19.217 8.143zm-1.245 40.587c-5.232-5.351-8.467-12.745-8.467-20.902 0-8.158 3.235-15.551 8.466-20.902 5.231-5.352 12.471-8.669 20.463-8.668 7.992-.001 15.233 3.316 20.462 8.668 5.233 5.351 8.468 12.745 8.467 20.902 0 8.157-3.234 15.551-8.467 20.902-5.229 5.351-12.47 8.668-20.462 8.668s-15.232-3.317-20.462-8.668z" fill="#231f20"/><path d="m61.811 48.709-4.275.641-5.772.642-3.741.106-3.634-.106-2.779-.856-2.459-2.671-1.924-5.452-.427-1.176-2.565-.854-1.497-2.459-1.069-3.527 1.176-3.1 2.779-.962 2.245 1.069 1.068 2.352 1.283-.214.428-.534-.428-2.459-.107-3.1.642-4.275-.025-2.442 1.949-3.116 3.42-2.458 5.985-2.566 6.627.962 5.772 4.169 2.672 4.276 1.711 3.099.427 7.696-1.282 6.627-2.352 5.879-2.244 3.099" fill="#f0d6b7"/><path d="m58.177 67.2-15.285.642v2.565l1.283 8.978-.641.749-10.689-3.635-.748-1.282-1.069-12.078-2.458-7.269-.535-1.71 8.551-5.878 2.672-1.069 2.352 2.886 2.031 1.817 2.351.748 1.069.321 1.283 5.558.961 1.176 2.459-.856-1.71 3.314 9.299 4.382-1.176.642" fill="#335061"/><path d="m32.845 29.897 2.779-.962 2.245 1.069 1.068 2.352 1.283-.214.321-1.283-.642-2.458.642-5.879-.535-3.207 1.924-2.244 4.169-3.314-1.176-1.603-5.879 2.886-2.458 1.924-1.39 2.993-2.137 2.886-.641 3.42z" fill="#6d6b6d"/><path d="m37.227 19.85s1.604-3.955 8.017-5.879c0 0 .32-1.389.32-1.389l-6.947 2.672-2.672 2.672-1.176 2.138zm-3.206 9.299s-2.245-7.482 6.306-8.551l-.321-1.283-5.879 1.39-1.71 5.558.428 3.634z" fill="#dcd9d8"/><path d="m37.441 39.089 1.399-1.356s.632.074.738.822c.107.748.428 7.482 5.024 11.116.419.332-3.42-.535-3.42-.535l-3.421-5.343m19.347-6.734s.25-3.24 1.123-2.991c.872.249.872 1.122.872 1.122s-2.119 1.37-1.995 1.869zm8.872-11.865s-1.763.372-1.924 1.924c-.163 1.553 1.924.321 2.244.214m-13.254-2.031s-2.351.321-2.351 1.817 2.672 1.39 3.421.749m-15.606 4.382s-4.062-2.459-4.489-.107c-.428 2.352-1.39 4.061.641 6.52l-1.39-.428-1.283-3.313-.427-3.207 2.459-2.565 2.778.214 1.604 1.282zm1.924-6.734s1.817-9.406 11.009-11.223c7.568-1.496 11.543.321 13.04 2.031 0 0-6.734-8.016-13.147-5.558s-11.116 6.947-11.009 9.833c.182 4.915.107 4.917.107 4.917zm24.797-8.124s-3.099-.106-3.206 2.673c0 0 0 .427.214.855 0 0 2.458-2.779 3.954-1.283" fill="#f7e4cd"/><path d="m51.658 21.208s-.533-4.266-4.17-1.785c-2.352 1.603-2.138 3.848-1.71 4.275.428.428.311 1.289.637.698.325-.591.218-2.515 1.394-3.049 1.175-.535 3.103-1.132 3.849-.139z" fill="#f7e4cd"/><path d="m41.609 50.098-10.047 4.49s4.169 16.567 2.031 21.698l-1.496-.534-.108-6.307-2.778-11.971-1.176-3.314 10.475-7.054zm1.033 9.164 1.426 1.739v6.413h-1.71s-.214-4.489-.214-5.024c0-.534.214-2.458.214-2.458m.32 8.444-4.809.214 1.389.962 3.42.534" fill="#49728b"/><path d="m59.139 67.307 3.955-.107.962 9.834-4.062.534z" fill="#335061"/><path d="m60.208 67.307 5.985-.32s2.459-6.2 2.459-6.52c0 0 2.138-8.979 2.138-8.979l-4.81-5.023-.962-.855-2.566 2.565v9.94z" fill="#335061"/><path d="m62.88 66.559-3.741.748.534 2.993c1.39.642 3.741-1.069 3.741-1.069m-.427-21.377 7.482 5.559.213-2.566-5.664-5.237z" fill="#49728b"/><path d="m46.388 88.365-2.213-8.98-1.101-6.626-.182-4.918 10.016-.533 6.231-.001-.566 11.224.962 8.658-.108 1.603-8.122.641z" fill="#fff"/><path d="m57.749 67.2s-.534 11.116 1.069 19.026c0 0-3.207 2.031-7.91 2.565l8.979-.32 1.069-.642-1.283-17.529-.32-3.741" fill="#dcd9d8"/><path d="m64.238 76.18 4.168-1.176 7.91-.427 1.176-3.635-2.138-6.306-2.458-.32-3.421 1.068-3.282 1.603-1.742-.32-1.358.533" fill="#fff"/><path d="m64.162 74.041s2.779-1.282 3.207-1.175l-1.176-5.879 1.39-.534s.962 5.557.962 6.199c0 0 5.985.32 6.52.32 0 0 1.282-2.458.962-5.023l1.175 3.42.107 1.924-1.71 2.565-1.924.428-3.206-.107-1.069-1.389-3.741.534-1.176.428" fill="#dcd9d8"/><path d="m59.962 66.453-2.351-5.985-2.459-3.527s.535-1.497 1.283-1.497h2.458l2.352.856-.214 3.954z" fill="#fff"/><path d="m60.422 64.421s-2.993-5.771-2.993-6.626c0 0 .534-1.283 1.282-.962.749.32 2.352 1.175 2.352 1.175v-2.03l-3.634-.749-2.459.321 4.169 9.833.855.108" fill="#dcd9d8"/><path d="m47.35 50.314-2.961-.322-2.78-.856v.962l1.358 1.498 4.276 1.924" fill="#fff"/><path d="m42.572 50.634s3.313 1.39 4.382 1.069l.106 1.281-2.992-.64-1.817-1.282z" fill="#dcd9d8"/><path d="m64.226 55.808c-1.814-.053-3.452-.269-4.887-.673.098-.589-.085-1.166.062-1.59.399-.288 1.07-.283 1.674-.35-.523-.258-1.257-.359-1.86-.211-.014-.408-.197-.661-.308-.98 1.019-.365 3.427-2.75 4.781-1.96.645.376.919 2.522.969 3.566.042.866-.078 1.739-.431 2.198" fill="#d33833"/><path d="m64.226 55.808c-1.814-.053-3.452-.269-4.887-.673.098-.589-.085-1.166.062-1.59.399-.288 1.07-.283 1.674-.35-.523-.258-1.257-.359-1.86-.211-.014-.408-.197-.661-.308-.98 1.019-.365 3.427-2.75 4.781-1.96.645.376.919 2.522.969 3.566.042.866-.078 1.739-.431 2.198z" fill="none"/><path d="m55.553 52.843c-.004.137-.01.276-.016.414-.566.372-1.48.367-2.102.68.917.04 1.638.261 2.262.572l-.041 1.037c-1.038.71-1.986 1.769-3.208 2.435-.578.315-2.606 1.126-3.221.983-.347-.081-.379-.513-.518-.92-.296-.871-.978-2.257-1.038-3.569-.075-1.657-.243-4.432 1.542-4.091 1.44.274 3.116.938 4.231 1.547.681.372 1.076.833 2.109.912z" fill="#d33833"/><path d="m55.553 52.843c-.004.137-.01.276-.016.414-.566.372-1.48.367-2.102.68.917.04 1.638.261 2.262.572l-.041 1.037c-1.038.71-1.986 1.769-3.208 2.435-.578.315-2.606 1.126-3.221.983-.347-.081-.379-.513-.518-.92-.296-.871-.978-2.257-1.038-3.569-.075-1.657-.243-4.432 1.542-4.091 1.44.274 3.116.938 4.231 1.547.681.372 1.076.833 2.109.912z" fill="none"/><path d="m60.069 55.551s-.748-1.069-.214-1.39c.534-.32 1.069.001 1.39-.534.321-.534 0-.855.107-1.496s.642-.749 1.176-.855c.534-.107 2.031-.321 2.244.214l-.641-1.924-1.283-.428-4.062 2.352-.213 1.175v2.352m-9.727 4.061c-.129-1.668-.264-3.334-.416-5-.226-2.488.598-2.054 2.755-2.054.329 0 2.028.393 2.15.641.583 1.191-.975.926.672 1.824 1.389.758 3.845-.46 3.283-2.145-.314-.374-1.637-.116-2.111-.362l-2.505-1.299c-1.063-.551-3.518-1.354-4.651-.584-2.87 1.952.181 6.829 1.205 8.865" fill="#ef3d3a"/><path d="m51.658 21.208c-2.913-.678-4.36 1.22-5.243 3.188-.789-.191-.475-1.264-.276-1.81.522-1.434 2.623-3.343 4.34-3.084.739.111 1.739.787 1.179 1.706zm14.195 3.318.138.005c.658 1.368 1.228 2.817 2.058 4.024-.556 1.296-4.212 2.442-4.156.116.791-.346 2.156-.071 2.857-.512-.405-1.113-.99-2.06-.897-3.633zm-12.703.035c.625 1.145.828 2.349 1.716 3.214.4.39 1.177.865.792 1.948-.09.256-.748.825-1.129.937-1.388.41-4.622.085-3.527-1.646 1.148.054 2.691.746 3.549-.087-.659-1.054-1.833-3.138-1.401-4.366zm12.182 11.638c-2.09 1.343-4.421 2.803-7.845 2.464-.732-.636-1.011-2.052-.3-2.987.37.636.137 1.807 1.168 1.983 1.944.332 4.205-1.189 5.603-1.721.867-1.461-.075-1.999-.855-2.939-1.598-1.927-3.743-4.315-3.665-7.2.646-.468.702.715.794.931.835 1.953 2.936 4.451 4.469 6.123.376.412.996.807 1.065 1.079.199.792-.517 1.741-.434 2.267m-27.554-1.413c-.655-.374-.811-2.021-1.58-2.068-1.099-.067-.898 2.136-.894 3.425-.756-.686-.89-2.802-.334-3.887-.634-.311-.917.343-1.267.573.451-3.28 4.798-1.521 4.076 1.957m28.883 2.779c-.972 1.852-2.349 3.892-5.203 3.951-.058-.598-.103-1.508.003-1.869 2.182-.209 3.529-1.32 5.2-2.082zm-13.676 1.201c1.82.958 5.166 1.06 7.641.988.133.542.13 1.212.135 1.873-3.181.159-6.942-.628-7.776-2.861zm-.347 1.785c1.26 3.162 5.587 2.798 9.236 2.711-.16.41-.508.895-.941 1.07-1.17.476-4.395.837-6.019-.025-1.03-.547-1.691-1.784-2.255-2.509-.272-.35-1.629-1.245-.021-1.247" fill="#231f20"/><path d="m65.18 57.989c-1.478 2.531-2.891 5.13-4.645 7.363.735-2.162 1.05-5.778 1.161-8.536 1.537-.719 2.854.163 3.484 1.173z" fill="#81b0c4"/><path d="m73.131 67.085c-1.655.331-2.817 1.939-4.431 1.836.887-1.25 2.442-1.778 4.431-1.836zm.73 2.589c-1.349.143-2.932.361-4.3.248.647-.989 3.142-.647 4.3-.248zm.467 2.232c-1.515.033-3.399.003-4.839-.118.852-.915 3.856-.34 4.839.118z" fill="#231f20"/><path d="m62.329 78.014c.217 1.904.971 3.832.877 5.916-.838.283-1.319.53-2.442.529-.08-1.772-.317-4.48-.246-6.169.553.037 1.367-.394 1.811-.276z" fill="#dcd9d8"/><path d="m59.885 49.966c-.76.497-1.409 1.117-2.139 1.647-1.621.081-2.505-.112-3.696-1.042.02-.075.139-.042.144-.133 1.734.772 3.94-.316 5.691-.472" fill="#f0d6b7"/><path d="m50.779 61.791c.476-2.065 2.344-3.135 4.04-4.272 1.75 2.221 2.815 5.078 3.987 7.835-2.77-.835-5.6-2.19-8.027-3.563z" fill="#81b0c4"/><path d="m60.519 78.29c-.071 1.689.166 4.397.245 6.169 1.123.001 1.604-.246 2.442-.529.095-2.084-.66-4.012-.877-5.916-.444-.118-1.258.313-1.81.276zm-17.48-9.603c.74 6.806 1.812 12.526 3.778 18.552 4.365 1.326 9.627 1.441 13.484.245-.708-3.401-.398-7.542-.812-11.172-.312-2.728-.153-5.473-.581-8.256-4.675-.972-11.282-.227-15.869.631zm16.974-.588c-.039 2.923.131 5.806.354 8.732 1.122-.168 1.884-.281 2.926-.509-.338-2.818-.296-5.988-.986-8.48-.797.008-1.499-.009-2.294.257zm5.693-.471c-.532-.122-1.152-.005-1.661.005.239 2.383.819 5.012 1.023 7.513.801.025 1.229-.353 1.888-.48.035-2.195-.193-5.22-1.25-7.038zm8.621 7.876c1.669-.405 2.718-2.449 2.252-4.549-.314-1.411-.872-4.067-1.469-4.97-.441-.667-1.637-1.541-2.593-.93-1.554.996-4.291 1.284-5.424 2.489.568 1.891.744 4.49.979 6.887 1.941.122 4.329-.534 5.944.162-1.127.365-2.59.367-3.563.9.796.384 2.659.306 3.874.011zm-15.521-10.15c-1.172-2.757-2.237-5.614-3.987-7.835-1.696 1.137-3.564 2.207-4.04 4.272 2.427 1.373 5.257 2.728 8.027 3.563zm2.89-8.537c-.111 2.757-.426 6.374-1.161 8.535 1.754-2.232 3.167-4.832 4.645-7.362-.63-1.011-1.947-1.893-3.484-1.173zm-3.276-1.164c-.664-.072-1.228.763-2.092.402-.197.219-.377.456-.579.67 1.908 2.298 2.774 5.559 4.247 8.261.791-2.595.7-5.438.874-8.27-1.086.069-1.689-.982-2.45-1.063zm-2.106-2.78c-.071.787.112 1.045.271 1.947 2.587.809 2.135-3.552-.271-1.947zm-2.87-.942c-1.115-.61-2.79-1.274-4.23-1.548-1.786-.342-1.618 2.435-1.542 4.091.059 1.312.741 2.699 1.038 3.57.139.407.17.839.518.919.614.143 2.642-.667 3.22-.983 1.222-.666 2.171-1.724 3.209-2.435.013-.345.026-.691.04-1.037-.624-.31-1.345-.531-2.261-.571.621-.313 1.535-.309 2.102-.681.005-.138.011-.276.016-.413-1.034-.079-1.428-.54-2.11-.912zm-10.65-1.935c-.926.939 2.595 2.22 3.717 2.289-.007-.595.338-1.155.269-1.582-1.332-.233-3.081-.079-3.986-.707zm11.4.441c-.005.092-.124.058-.144.133 1.191.931 2.075 1.123 3.696 1.043.731-.53 1.379-1.151 2.14-1.648-1.752.157-3.957 1.245-5.692.472zm10.464 3.173c-.05-1.044-.324-3.19-.97-3.566-1.354-.791-3.761 1.596-4.781 1.96.111.319.294.572.308.981.604-.149 1.338-.047 1.861.21-.604.068-1.275.063-1.675.351-.146.423.036 1-.061 1.589 1.434.405 3.073.62 4.887.673.352-.459.472-1.332.43-2.198zm-23.422-2.705c-.29-.208-2.256-2.766-2.525-2.659-3.558 1.403-6.884 3.829-9.856 6.123 2.834 6.081 3.978 13.531 4.18 20.711 3.246 1.519 6.098 3.708 10.503 3.936-.51-3.607-.976-6.825-1.265-10.22-1.107-.467-2.695.021-3.73-.145-.009-1.248 1.582-.547 1.714-1.386.1-.635-.875-.683-.558-1.683.81.294 1.236.944 2.099 1.189.789-1.727-.011-4.781.103-6.224.021-.271.135-1.501.742-1.286.537.191-.031 3.272.028 4.638.054 1.258-.152 2.475.357 3.265 4.258-.58 8.583-.954 13.189-1.08-1.013-.435-2.217-.846-3.537-1.59-.715-.404-2.971-1.243-3.177-1.922-.329-1.083.864-1.66 1.068-2.589-2.149 1.173-2.568-1.123-3.076-2.748-.461-1.473-.723-2.573-.836-3.423-1.851-.882-3.83-1.776-5.423-2.907zm21.542-2.35c2.964-1.437 3.498 5.371 2.336 7.565.179.654.797.904 1.049 1.492-1.654 2.963-3.491 5.729-5.178 8.657 1.255-.782 3.048-.14 4.525-.725.54-.213.931-1.449 1.34-2.438 1.125-2.721 2.305-6.151 2.831-8.748.118-.591.441-1.88.369-2.407-.129-.942-1.408-1.641-2.059-2.224-1.199-1.077-1.953-2.024-3.204-3.031-.507.748-1.595 1.251-2.009 1.859zm-28.32-26.283c-1.413 1.553-1.117 4.465-.946 6.537 2.553-1.607 5.941.126 5.909 2.858 1.218-.033.455-1.523.235-2.482-.721-3.135 1.214-6.541.087-9.407-2.186.166-3.982 1.059-5.285 2.494zm10.105-9.019c-3.197.906-7.295 3.229-8.608 6.101 1.017-.148 1.723-.661 2.726-.724.38-.025.877.159 1.313.051.868-.216 1.601-2.164 2.257-2.888.638-.708 1.406-1.01 1.932-1.656.337-.163.836-.151.856-.658-.147-.157-.301-.276-.476-.226zm16.643.852c-3.318-1.872-8.936-3.28-12.465-1.521-2.849 1.421-6.699 3.77-8.012 6.748 1.226 2.874-.363 5.506-.464 8.424-.054 1.552.731 2.907.791 4.597-.42.692-1.702.777-2.59.73-.298-1.495-.821-3.175-2.361-3.344-2.178-.238-3.77 1.565-3.869 3.449-.117 2.215 1.701 5.887 4.279 5.632.995-.098 1.241-1.097 2.325-1.086.588 1.173-.907 1.541-1.061 2.381-.04.216.124 1.064.22 1.461.468 1.934 1.512 4.438 2.539 5.911.597.856 1.458 1.379 2.481 1.711 1.21.394 2.647.522 4.141.622.492-1.061 2.305-.973 3.487-.696-1.416-.561-2.733-1.92-3.824-3.124-1.253-1.38-2.522-2.862-2.586-4.666 2.368 3.285 4.325 6.155 8.631 7.6 3.259 1.093 7.064-.501 9.567-2.259 1.039-.731 1.659-1.891 2.398-2.952 2.763-3.975 4.052-9.648 3.769-15.146-.117-2.268-.112-4.528-.873-6.053-.795-1.596-3.484-3.023-5.059-1.58-.292-1.551 1.309-2.511 3.19-1.952-1.341-1.732-2.748-3.811-4.654-4.887zm6.182 51.166c2.594-1.289 7.439-3.469 9.065.005.6 1.281 1.303 3.446 1.614 4.768.439 1.865-.476 5.786-2.393 6.412-1.693.553-3.669.519-5.709.109-.24-.2-.508-.548-.695-.911-1.456-.056-2.82.079-3.97.677.109 1.077-.62 1.25-1.303 1.472-.506 2.008 1.013 4.63.649 6.46-.259 1.305-1.863 1.506-3.043 1.75-.038.725.052 1.33.132 1.943-.269.994-1.479 1.559-2.625 1.698-3.771.453-9.496.657-13.122-.648-1.012-2.482-1.81-5.502-2.653-8.336-3.537.378-6.398-1.527-9.095-2.774-.934-.433-2.226-.671-2.574-1.415-.339-.72-.2-2.099-.284-3.402-.214-3.327-.397-6.536-1.275-9.943-.395-1.529-1.083-2.879-1.562-4.352-.444-1.365-1.218-3.052-1.421-4.414-.299-2.017 1.601-2.13 2.816-3.004 1.878-1.352 3.353-2.1 5.387-3.32.602-.362 2.419-1.277 2.625-1.698.411-.835-.705-2.013-1.003-2.668-.472-1.035-.718-1.915-.786-2.937-1.706-.269-3-1.285-3.781-2.43-1.293-1.895-2.189-5.401-1.071-8.068.088-.21.526-.623.59-.946.127-.635-.24-1.48-.262-2.155-.118-3.466.586-6.453 2.92-7.498.947-3.774 4.337-5.029 7.532-6.905 1.194-.701 2.51-1.149 3.87-1.649 4.876-1.794 12.358-1.457 16.406 1.604 1.716 1.299 4.459 4.039 5.44 6.023 2.592 5.239 2.408 13.994.595 20.366-.243.856-.597 2.113-1.09 3.141-.344.718-1.414 2.154-1.284 2.787.134.655 2.438 2.405 2.932 2.882.89.858 2.581 1.998 2.718 3.081.147 1.152-.508 2.729-.841 3.842-1.108 3.713-2.191 7.144-3.449 10.453z" fill="#231f20"/><path d="m50.088 39.575c.141-.188.914-.472 1.996.049 0 0-1.282.213-1.175 2.352l-.535-.107s-.552-1.939-.286-2.294z" fill="#f7e4cd"/><path d="m59.46 57.955c0 .21-.113.404-.294.509-.182.105-.406.105-.588 0s-.294-.299-.294-.509c0-.324.263-.588.588-.588.324 0 .588.264.588.588zm.588 2.726c-.001.325-.264.588-.589.588-.325-.001-.588-.264-.588-.589s.264-.588.589-.587c.324 0 .587.263.587.588" fill="#1d1919"/></svg>