<svg width="100" height="100" viewBox="0 0 100 100" fill="none" xmlns="http://www.w3.org/2000/svg">
<rect width="100" height="100" rx="50" fill="#C63D14"/>
<path d="M76.2436 49.6257C76.2436 46.2193 73.4822 43.4578 70.0758 43.4578C69.8566 43.4578 69.6406 43.4696 69.4275 43.4918L77.899 18.5063H41.8981L50.3576 43.4703C50.2336 43.4628 50.1089 43.4578 49.9828 43.4578C46.5764 43.4578 43.815 46.2193 43.815 49.6257C43.815 52.3791 45.6195 54.7102 48.1102 55.5033C46.7946 57.7819 45.1395 59.8341 43.2602 61.6069C40.7049 64.0177 37.7803 65.8456 34.6174 66.972C30.8515 65.0375 29.0731 60.7348 30.6778 56.9625C30.859 56.5367 31.0439 56.1047 31.2209 55.6749C33.949 55.0381 35.982 52.5921 35.982 49.67C35.982 46.2635 33.2206 43.5021 29.8142 43.5021C26.4075 43.5021 23.6461 46.2635 23.6461 49.67C23.6461 51.7589 24.6856 53.6037 26.2742 54.7196C24.7474 58.1956 22.5035 61.8331 21.8044 66.049C20.9665 71.1019 21.8018 76.4653 26.1717 79.4942C36.3492 86.5479 47.3967 75.1214 59.0449 72.2489C63.2663 71.2078 67.9001 71.3757 71.6194 69.2215C74.4124 67.6039 76.2537 64.9231 76.7763 61.9132C77.2924 58.94 76.5398 55.9796 74.8092 53.5791C75.7043 52.5085 76.2436 51.1303 76.2436 49.6257ZM56.1502 49.6475C56.1502 49.6402 56.1509 49.6329 56.1509 49.6257C56.1509 47.3888 54.9598 45.4299 53.1776 44.3487L59.9107 30.7336L66.6555 44.4931C64.9992 45.5989 63.9077 47.4846 63.9077 49.6257C63.9077 49.6707 63.9103 49.715 63.9113 49.7597L56.1502 49.6475Z" fill="#C63D14"/>
<path d="M77.7498 49.6257C77.7498 45.8792 75.0505 42.7531 71.4948 42.0854L80 17H39.7967L48.3148 42.1362C44.8829 42.9001 42.3085 45.9671 42.3085 49.6257C42.3085 52.3733 43.7605 54.7866 45.9366 56.1427C44.8899 57.702 43.6487 59.1694 42.2263 60.5112C39.9706 62.6394 37.4574 64.2533 34.7481 65.315C32.0192 63.6008 30.8656 60.3683 32.0638 57.552L32.1575 57.3317C32.2161 57.1939 32.2749 57.0556 32.3335 56.9173C35.3307 55.8723 37.4881 53.0192 37.4881 49.67C37.4881 45.4384 34.0454 41.9959 29.8138 41.9959C25.5821 41.9959 22.1396 45.4384 22.1396 49.67C22.1396 51.8059 23.0174 53.7399 24.4302 55.1326C24.174 55.6787 23.9047 56.2337 23.6279 56.8023C22.336 59.4556 20.8719 62.4631 20.3181 65.8027C19.2181 72.4353 20.9921 77.7373 25.3133 80.7322C27.9355 82.5495 30.5982 83.2644 33.2778 83.2641C38.3237 83.2639 43.4277 80.7291 48.4198 78.2494C52.0154 76.4637 55.7331 74.6171 59.4055 73.7115C60.7719 73.3744 62.1779 73.1717 63.6664 72.957C66.6181 72.5312 69.6706 72.091 72.3744 70.5251C75.5082 68.7099 77.6537 65.6649 78.2602 62.1711C78.781 59.1718 78.1541 56.168 76.6255 53.6204C77.3382 52.456 77.7498 51.0882 77.7498 49.6257ZM74.7371 49.6257C74.7371 52.1961 72.646 54.2874 70.0754 54.2874C67.5052 54.2874 65.4139 52.1961 65.4139 49.6257C65.4139 47.0553 67.5052 44.9642 70.0754 44.9642C72.646 44.9642 74.7371 47.0553 74.7371 49.6257ZM75.7974 20.0127L68.2869 42.1641C67.9613 42.2422 67.644 42.3406 67.3358 42.459L59.9164 27.3235L52.4755 42.3694C52.1539 42.2586 51.823 42.1674 51.4836 42.0999L43.9988 20.0127H75.7974ZM49.9827 44.9642C52.5531 44.9642 54.6441 47.0553 54.6441 49.6257C54.6441 52.1961 52.5531 54.2874 49.9827 54.2874C47.4125 54.2874 45.3212 52.1961 45.3212 49.6257C45.3212 47.0553 47.4125 44.9642 49.9827 44.9642ZM29.8138 45.0085C32.3844 45.0085 34.4755 47.0996 34.4755 49.67C34.4755 52.2404 32.3844 54.3317 29.8138 54.3317C27.2436 54.3317 25.1523 52.2404 25.1523 49.67C25.1523 47.0996 27.2436 45.0085 29.8138 45.0085ZM75.2919 61.6557C74.8384 64.2685 73.2245 66.5511 70.8643 67.918C68.6642 69.1923 66.0277 69.5726 63.2363 69.9751C61.741 70.1907 60.1946 70.4138 58.6841 70.7865C54.6898 71.7713 50.821 73.693 47.0797 75.5513C39.5926 79.2701 33.1264 82.4816 27.0296 78.256C22.5636 75.1609 22.7699 69.4339 23.2902 66.2956C23.7723 63.3882 25.0759 60.7105 26.3366 58.1209C26.5548 57.6727 26.7666 57.2337 26.9745 56.7976C27.5999 57.0476 28.2648 57.218 28.9578 57.2954C27.6746 61.5308 29.6928 66.1358 33.9287 68.3119L34.5083 68.6098L35.1223 68.3912C38.4711 67.1987 41.5566 65.2848 44.2937 62.7027C46.063 61.0337 47.5834 59.187 48.8335 57.2138C49.2085 57.2703 49.5922 57.3001 49.9827 57.3001C54.2143 57.3001 57.657 53.8576 57.657 49.6257C57.657 47.3499 56.6602 45.3034 55.0815 43.8966L59.9045 34.1438L64.7764 44.0825C63.3146 45.4808 62.4013 47.4479 62.4013 49.6257C62.4013 53.8576 65.8438 57.3001 70.0754 57.3001C71.7013 57.3001 73.2095 56.7905 74.4516 55.9248C75.3141 57.6903 75.6355 59.6769 75.2919 61.6557Z" fill="white"/>
</svg>
