<svg fill="none" height="128" viewBox="0 0 128 128" width="128" xmlns="http://www.w3.org/2000/svg" xmlns:xlink="http://www.w3.org/1999/xlink"><linearGradient id="a"><stop offset=".176" stop-color="#0052cc"/><stop offset="1" stop-color="#2684ff"/></linearGradient><linearGradient id="b" gradientUnits="userSpaceOnUse" x1="88.1359" x2="68.4719" xlink:href="#a" y1="39.0921" y2="59.3681"/><linearGradient id="c" gradientUnits="userSpaceOnUse" x1="66.564" x2="43.828" xlink:href="#a" y1="62.2561" y2="84.3761"/><path d="m108.023 16h-46.2178c0 11.52 9.324 20.848 20.847 20.848h8.5v8.226c0 11.52 9.3278 20.848 20.8478 20.848v-45.945c-.001-1.0545-.42-2.0656-1.166-2.8113-.745-.7456-1.756-1.1649-2.811-1.1657z" fill="#2684ff"/><path d="m85.1209 39.0401h-46.219c0 11.519 9.325 20.847 20.844 20.847h8.504v8.226c0 11.52 9.328 20.848 20.848 20.848v-45.945c-.0016-1.0543-.4211-2.065-1.1666-2.8104-.7455-.7455-1.7562-1.1651-2.8104-1.1666z" fill="url(#b)"/><path d="m62.219 62.0781h-46.219c0 11.524 9.324 20.848 20.848 20.848h8.5v8.23c0 11.5199 9.328 20.8439 20.847 20.8439v-45.9409c-.0011-1.0545-.4202-2.0656-1.1655-2.8117-.7453-.746-1.756-1.1662-2.8105-1.1683z" fill="url(#c)"/></svg>