<svg height="100pt" viewBox="0 0 100 100" width="100pt" xmlns="http://www.w3.org/2000/svg"><path d="m0 0h100v100h-100z" fill="#234474"/><path d="m28.516 26.445c-1.318.31-3.603 2.005-4.544 3.372-.906 1.316-.919 1.414-1.007 7.615-.074 5.243-.096 5.641-.344 6.307-.791 2.128-1.748 3.094-3.892 3.935-1.458.571-1.617.772-1.617 2.044 0 1.35.173 1.671 1.08 2.011 1.909.714 3.068 1.582 3.816 2.857.761 1.297.751 1.208.842 7.265.068 4.554.122 5.745.291 6.4.815 3.161 3.456 5.06 7.642 5.491 2.184.225 2.361.071 2.361-2.07 0-1.635-.015-1.667-1.018-2.104-1.25-.544-2.189-1.527-2.567-2.689-.093-.285-.18-2.263-.238-5.41-.134-7.242-.47-8.252-3.4-10.2-1.613-1.073-1.66-1.523-.259-2.468 3.054-2.06 3.521-3.416 3.658-10.606.053-2.791.152-5.13.225-5.348.51-1.511 1.649-2.355 3.442-2.551 1.258-.137 1.302-.2 1.302-1.872 0-1.822-.041-1.885-1.289-2.011-1.279-.127-3.882-.109-4.484.032zm8.795.111-.351.275v15.932c0 17.633-.027 17.005.819 18.448.987 1.685 2.129 2.157 5.225 2.163 4.918.007 5.223-.291 4.279-4.168-.298-1.226-.215-1.153-1.422-1.242-1.07-.078-1.41-.255-1.695-.882-.104-.228-.162-4.283-.208-14.375l-.063-14.056-.446-.887c-.665-1.324-.818-1.386-3.562-1.44-2.125-.041-2.242-.03-2.576.232zm30.549-.009c-.275.223-.303.352-.336 1.558-.045 1.633.057 1.864.968 2.192 2.384.856 2.821 2.185 2.821 8.579 0 6.542.42 7.784 3.294 9.748 1.505 1.028 1.491 1.441-.084 2.503-2.922 1.971-3.21 2.847-3.21 9.775 0 6.103-.438 7.391-2.915 8.574-.946.452-1.029.653-1.029 2.48 0 1.866-.016 1.849 1.692 1.739 4.27-.276 7.226-2.181 8.262-5.325.244-.738.268-1.209.345-6.519l.083-5.723.349-.891c.637-1.624 1.952-2.906 3.613-3.522 1.206-.448 1.305-.591 1.305-1.894 0-1.467.03-1.422-1.36-2.102-1.851-.906-2.813-1.983-3.44-3.851-.158-.47-.215-1.635-.288-5.927-.123-7.169-.56-8.385-3.794-10.562-1.569-1.055-5.376-1.56-6.276-.832zm-11.052 13.485c-3.258.69-6.102 3.063-6.716 5.604-1.076 4.459.908 7.208 6.69 9.268 2.994 1.067 3.656 1.67 3.154 2.872-.584 1.397-3.422 1.349-7.139-.121-1.941-.767-2.109-.693-2.98 1.312-1.124 2.585-.826 3.062 2.625 4.209 7.425 2.469 14.321-.28 14.752-5.877.315-4.099-1.982-6.746-7.189-8.285-3.016-.89-3.851-1.778-2.775-2.951l.45-.491 1.25.004c1.393.003 2.6.276 4.529 1.02.625.241 1.268.439 1.428.439.952 0 2.396-3.371 1.926-4.494-.706-1.691-6.732-3.201-10.005-2.509z" fill="#f2f2f2" fill-rule="evenodd"/></svg>