<?xml version="1.0" encoding="UTF-8" standalone="no"?><!-- Generator: Gravit.io --><svg xmlns="http://www.w3.org/2000/svg" xmlns:xlink="http://www.w3.org/1999/xlink" style="isolation:isolate" viewBox="0 0 100 100" width="100pt" height="100pt"><g><path d=" M 0 0 L 100 0 L 100 100 L 0 100 L 0 0 Z " fill="rgb(35,68,116)"/><path d=" M 28.516 26.445 C 27.198 26.755 24.913 28.45 23.972 29.817 C 23.066 31.133 23.053 31.231 22.965 37.432 C 22.891 42.675 22.869 43.073 22.621 43.739 C 21.83 45.867 20.873 46.833 18.729 47.674 C 17.271 48.245 17.112 48.446 17.112 49.718 C 17.112 51.068 17.285 51.389 18.192 51.729 C 20.101 52.443 21.26 53.311 22.008 54.586 C 22.769 55.883 22.759 55.794 22.85 61.851 C 22.918 66.405 22.972 67.596 23.141 68.251 C 23.956 71.412 26.597 73.311 30.783 73.742 C 32.967 73.967 33.144 73.813 33.144 71.672 C 33.144 70.037 33.129 70.005 32.126 69.568 C 30.876 69.024 29.937 68.041 29.559 66.879 C 29.466 66.594 29.379 64.616 29.321 61.469 C 29.187 54.227 28.851 53.217 25.921 51.269 C 24.308 50.196 24.261 49.746 25.662 48.801 C 28.716 46.741 29.183 45.385 29.32 38.195 C 29.373 35.404 29.472 33.065 29.545 32.847 C 30.055 31.336 31.194 30.492 32.987 30.296 C 34.245 30.159 34.289 30.096 34.289 28.424 C 34.289 26.602 34.248 26.539 33 26.413 C 31.721 26.286 29.118 26.304 28.516 26.445 Z  M 37.311 26.556 L 36.96 26.831 L 36.96 42.763 C 36.96 60.396 36.933 59.768 37.779 61.211 C 38.766 62.896 39.908 63.368 43.004 63.374 C 47.922 63.381 48.227 63.083 47.283 59.206 C 46.985 57.98 47.068 58.053 45.861 57.964 C 44.791 57.886 44.451 57.709 44.166 57.082 C 44.062 56.854 44.004 52.799 43.958 42.707 L 43.895 28.651 L 43.449 27.764 C 42.784 26.44 42.631 26.378 39.887 26.324 C 37.762 26.283 37.645 26.294 37.311 26.556 Z  M 67.86 26.547 C 67.585 26.77 67.557 26.899 67.524 28.105 C 67.479 29.738 67.581 29.969 68.492 30.297 C 70.876 31.153 71.313 32.482 71.313 38.876 C 71.313 45.418 71.733 46.66 74.607 48.624 C 76.112 49.652 76.098 50.065 74.523 51.127 C 71.601 53.098 71.313 53.974 71.313 60.902 C 71.313 67.005 70.875 68.293 68.398 69.476 C 67.452 69.928 67.369 70.129 67.369 71.956 C 67.369 73.822 67.353 73.805 69.061 73.695 C 73.331 73.419 76.287 71.514 77.323 68.37 C 77.567 67.632 77.591 67.161 77.668 61.851 L 77.751 56.128 L 78.1 55.237 C 78.737 53.613 80.052 52.331 81.713 51.715 C 82.919 51.267 83.018 51.124 83.018 49.821 C 83.018 48.354 83.048 48.399 81.658 47.719 C 79.807 46.813 78.845 45.736 78.218 43.868 C 78.06 43.398 78.003 42.233 77.93 37.941 C 77.807 30.772 77.37 29.556 74.136 27.379 C 72.567 26.324 68.76 25.819 67.86 26.547 Z  M 56.808 40.032 C 53.55 40.722 50.706 43.095 50.092 45.636 C 49.016 50.095 51 52.844 56.782 54.904 C 59.776 55.971 60.438 56.574 59.936 57.776 C 59.352 59.173 56.514 59.125 52.797 57.655 C 50.856 56.888 50.688 56.962 49.817 58.967 C 48.693 61.552 48.991 62.029 52.442 63.176 C 59.867 65.645 66.763 62.896 67.194 57.299 C 67.509 53.2 65.212 50.553 60.005 49.014 C 56.989 48.124 56.154 47.236 57.23 46.063 L 57.68 45.572 L 58.93 45.576 C 60.323 45.579 61.53 45.852 63.459 46.596 C 64.084 46.837 64.727 47.035 64.887 47.035 C 65.839 47.035 67.283 43.664 66.813 42.541 C 66.107 40.85 60.081 39.34 56.808 40.032 Z " fill-rule="evenodd" fill="rgb(242,242,242)"/></g></svg>