<svg height="100pt" viewBox="0 0 100 100" width="100pt" xmlns="http://www.w3.org/2000/svg"><path d="m20 23.013h5.593v37.118h22.118v4.576h-27.711zm45.152 10.068c-5.72-.077-11.441 3.559-13.22 9.076-2.543 6.356-1.373 14.339 3.61 19.195 4.83 4.016 12.101 4.322 17.542 1.474 3.737-1.983 6.102-5.924 6.61-10.068.661-4.322.331-9.05-1.78-12.965-2.491-4.17-7.372-6.865-12.203-6.687l-.559-.076zm.508 4.423c4.195 0 7.958 3.204 8.644 7.322 1.271 4.653.509 10.348-3.305 13.627-3.559 2.899-9.279 2.492-12.203-1.093-3.559-3.813-3.559-9.661-1.729-14.237 1.271-3.305 4.653-5.669 8.212-5.593h.458z"/><path d="m20 70.631h59.999v6.356h-59.999z" fill="#3492ff"/></svg>