<svg fill="none" height="90" viewBox="0 0 90 90" width="90" xmlns="http://www.w3.org/2000/svg"><path d="m79 5h-68c-3.31371 0-6 2.68629-6 6v68c0 3.3137 2.68629 6 6 6h68c3.3137 0 6-2.6863 6-6v-68c0-3.31371-2.6863-6-6-6z" fill="#ffd02f"/><path clip-rule="evenodd" d="m59.3899 15.0039h-8.7823l7.321 12.8565-16.0984-12.8565h-8.7822l8.0516 15.7161-16.8291-15.7161h-8.7822l8.7822 19.9984-8.7822 40.0016h8.7822l16.8291-42.8564-8.0516 42.8564h8.7822l16.0984-45.7161-7.321 45.7161h8.7823l16.0984-49.9984z" fill="#050038" fill-rule="evenodd"/></svg>