<svg fill="none" height="90" viewBox="0 0 90 90" width="90" xmlns="http://www.w3.org/2000/svg"><path d="m28.2132 38.4892h10.1792c-2.5418-1.5901-3.4934-3.8187-4.7703-7.9506l-3.8187-14.1545c-1.7467-6.3605-3.1803-9.3841-10.1791-9.3841h-14.6243v3.8187h2.07196c4.28844 0 4.77034 1.5901 6.04724 6.3605l3.3368 12.4077c1.7467 6.0473 4.4572 8.9023 11.7693 8.9023zm23.5507 0h10.167c7.3125 0 9.854-2.867 11.6131-8.9023l3.3362-12.4077c1.2769-4.7704 1.9035-6.3605 6.0475-6.3605h2.0723v-3.8187h-14.4684c-7.1551 0-8.5886 2.86699-10.1788 9.3841l-3.8186 14.1545c-1.277 4.2885-2.2286 6.3605-4.7703 7.9506zm-13.3715 13.3474h13.3718l-.0003-13.3474h-13.3715zm-33.3924 31.4891h14.6243c6.9988 0 8.4324-3.0238 10.1791-9.3838l3.8187-14.1546c1.2769-4.1319 2.2285-6.3605 4.7703-7.9507h-10.1792c-7.3121 0-10.0225 2.8671-11.7692 8.9023l-3.3369 12.4075c-1.2768 4.7706-1.7467 6.3608-6.04723 6.3608h-2.05987zm65.5081 0h14.4676v-3.8185h-2.0724c-4.1317 0-4.7698-1.5902-6.0466-6.3608l-3.3371-12.4075c-1.7468-6.0472-4.2884-8.9023-11.6128-8.9023h-10.1426c2.5418 1.5902 3.4569 3.6622 4.7339 7.9507l3.8186 14.1546c1.5901 6.5167 3.0237 9.3838 10.1792 9.3838z" fill="#1b0b3b"/></svg>