<svg height="100pt" viewBox="0 0 100 100" width="100pt" xmlns="http://www.w3.org/2000/svg"><g fill-rule="evenodd"><path d="m50 100c27.614 0 50-22.386 50-50s-22.386-50-50-50-50 22.386-50 50 22.386 50 50 50zm0-7.5c-23.472 0-42.5-19.028-42.5-42.5s19.028-42.5 42.5-42.5 42.5 19.028 42.5 42.5-19.028 42.5-42.5 42.5z" fill="#376660"/><path d="m50 90c22.091 0 40-17.909 40-40s-17.909-40-40-40-40 17.909-40 40 17.909 40 40 40zm0-77.5c-1.381 0-2.5 1.125-2.5 2.517v32.483h-17.507c-.663-.001-1.298.263-1.766.732s-.73 1.105-.727 1.768c0 1.381 1.139 2.5 2.488 2.5h22.512v-37.498c.002-.664-.261-1.301-.73-1.77-.469-.47-1.106-.733-1.77-.732z" fill="#529990"/></g></svg>