<svg fill="none" height="512" viewBox="0 0 512 512" width="512" xmlns="http://www.w3.org/2000/svg"><g clip-rule="evenodd" fill-rule="evenodd"><path d="m256 506c138.071 0 250-111.929 250-250s-111.929-250-250-250-250 111.929-250 250 111.929 250 250 250zm0-37.5c-117.361 0-212.5-95.139-212.5-212.5s95.139-212.5 212.5-212.5 212.5 95.139 212.5 212.5-95.139 212.5-212.5 212.5z" fill="#376660"/><path d="m256 456c110.457 0 200-89.543 200-200s-89.543-200-200-200-200 89.543-200 200 89.543 200 200 200zm0-387.5c-6.904 0-12.5 5.6244-12.5 12.5856v162.4144h-87.537c-6.883 0-12.463 5.548-12.463 12.5 0 6.904 5.696 12.5 12.442 12.5h112.558v-187.4891c0-6.9096-5.548-12.5109-12.5-12.5109z" fill="#529990"/></g></svg>