<svg height="100pt" viewBox="0 0 100 100" width="100pt" xmlns="http://www.w3.org/2000/svg" xmlns:xlink="http://www.w3.org/1999/xlink"><clipPath id="a"><path d="m18.023 15h63.954v70h-63.954z"/></clipPath><path d="m0 0h100v100h-100z"/><g clip-path="url(#a)"><path d="m58.402 47.678-14.019 4.578-12.196 5.382-3.412.901c-.869.827-1.78 1.664-2.765 2.512-1.081.932-2.088 1.78-2.861 2.394-.858.678-2.13 1.95-2.776 2.755-.964 1.208-1.727 2.49-2.056 3.476-.583 1.78-.296 3.581.827 5.245 1.441 2.119 4.312 4.28 7.66 5.753 1.707.753 4.578 1.717 6.739 2.257 3.592.911 10.543 1.897 14.368 2.045.774.032 1.812.032 1.855 0 .084-.053.678-1.187 1.367-2.596 2.352-4.8 4.047-9.303 4.969-13.149.551-2.331.985-5.436 1.271-9.113.075-1.028.106-4.471.043-5.637-.096-1.907-.265-3.454-.53-4.969-.042-.223-.053-.424-.032-.435.043-.031.17-.074 1.897-.572l-.35-.826v-.001zm-3.2 1.876c.127 0 .466 3.253.55 5.309.022.434.011.72-.01.72-.085 0-1.791-1.007-3.009-1.769-1.06-.668-3.073-2.003-3.391-2.257-.106-.075-.095-.085.773-.382 1.473-.498 4.97-1.621 5.087-1.621zm-7.142 2.352c.095 0 .339.138.922.498 2.182 1.367 5.149 3.02 6.421 3.571.392.17.434.106-.466.721-1.929 1.313-4.334 2.606-7.28 3.909-.519.234-.953.414-.964.414-.021 0 .042-.265.127-.583.71-2.639 1.113-5.309 1.134-7.449.01-1.06.01-1.06.106-1.091-.021.01-.011.01 0 .01zm-1.473.562c.063.063.021 2.437-.064 3.083-.19 1.547-.487 2.988-.974 4.61-.117.391-.223.72-.244.741-.043.053-1.494-1.367-1.971-1.918-.827-.953-1.473-1.907-1.95-2.84-.243-.476-.625-1.409-.593-1.441.17-.116 5.754-2.278 5.796-2.235zm-6.93 2.723c.011 0 .021 0 .032.01.021.022.096.191.159.382.339.922 1.102 2.278 1.759 3.147.721.954 1.664 1.971 2.448 2.638.254.212.487.413.519.445.063.064.085.053-1.643.71-2.002.763-4.185 1.526-6.686 2.331-.597.193-1.194.387-1.79.583-.096.032-.064-.021.212-.455 1.239-1.94 3.125-5.743 4.185-8.435.18-.466.36-.932.392-1.038.043-.149.095-.202.233-.276.074-.021.149-.042.18-.042zm-2.119.879c.032.022-.508 1.155-1.038 2.194-1.028 2.002-2.151 3.973-3.656 6.368-.254.413-.498.795-.53.837-.052.074-.074.053-.243-.276-.361-.709-.657-1.621-.816-2.458-.159-.826-.127-2.267.053-3.157.137-.657.127-.647.445-.806 1.356-.688 5.743-2.744 5.785-2.702zm18.278.742v.445c0 2.363-.254 5.605-.625 7.968-.064.414-.117.752-.127.763 0 0-.308-.084-.668-.191-1.589-.498-3.316-1.229-4.874-2.087-1.028-.561-2.522-1.483-2.479-1.526.01-.01.455-.243.974-.519 2.077-1.081 4.069-2.246 5.796-3.401.647-.435 1.621-1.134 1.834-1.325zm-26.278 3.136c.043 0 .032.085-.032.467-.042.275-.095.784-.116 1.133-.085 1.547.17 2.692.932 4.26.212.434.382.795.371.805-.074.064-7.088 2.119-9.292 2.723-.657.18-1.229.339-1.272.35-.074.021-.085.011-.053-.17.244-1.557 1.431-3.592 3.083-5.308 1.102-1.145 1.982-1.812 3.487-2.67 1.08-.615 2.744-1.537 2.871-1.579 0-.011.011-.011.021-.011zm16.53 2.957c.01-.011.265.127.572.307 2.268 1.314 5.425 2.532 8.116 3.158l.244.053-.339.19c-1.409.784-6.04 2.713-10.776 4.482-.689.254-1.367.509-1.494.562s-.244.085-.244.074.191-.382.435-.837c1.324-2.48 2.659-5.499 3.337-7.597.085-.202.138-.382.149-.392zm-1.685.551c.011.01-.074.233-.18.487-.922 2.236-2.13 4.673-3.677 7.407-.392.699-.72 1.261-.731 1.261s-.328-.191-.71-.424c-2.246-1.378-4.238-3.073-5.541-4.715l-.191-.234.964-.265c3.454-.942 6.389-1.96 9.303-3.21.413-.169.753-.307.763-.307zm10.469 3.655s.01.011 0 0c.01.244-.53 2.427-.975 4.005-.371 1.325-.689 2.363-1.272 4.196-.254.806-.476 1.473-.487 1.473-.01 0-.074-.01-.138-.031-3.147-.573-5.965-1.367-8.614-2.427-.742-.297-1.801-.774-1.865-.826-.021-.022.615-.318 1.42-.668 4.821-2.109 9.822-4.503 11.539-5.531.201-.127.36-.191.392-.191zm-24.169.827c.021.021-1.325 1.96-3.211 4.598-.657.922-1.42 2.003-1.706 2.406-.286.402-.72 1.038-.964 1.42l-.445.688-.477-.402c-.562-.467-1.536-1.463-1.971-2.014-.911-1.133-1.526-2.331-1.769-3.422-.117-.509-.117-.763-.011-.795.159-.042 2.988-.71 5.637-1.324 1.473-.339 3.179-.742 3.793-.89.615-.149 1.113-.265 1.124-.265zm1.356.519.339.381c1.526 1.706 3.083 2.967 4.969 4.069.34.191.594.36.573.371-.074.053-6.549 2.352-9.547 3.391-1.685.593-3.073 1.07-3.084 1.07-.01 0-.106-.064-.212-.138l-.19-.138.307-.445c.996-1.441 2.246-3.019 4.969-6.304zm8.456 6.05c.01-.01.476.159 1.048.371 1.378.519 2.469.848 3.932 1.219 1.801.455 4.407.9 5.944 1.027.233.022.36.043.318.075-.075.042-1.632.561-2.776.922-1.823.572-7.386 2.214-11.921 3.517-.837.244-1.557.445-1.6.456-.106.021-.455-.074-.455-.117 0-.021.254-.349.561-.71 1.526-1.822 3.041-3.856 4.302-5.785.35-.53.647-.964.647-.975zm-1.866.053c.011.011-.741 1.219-2.055 3.295-.562.88-1.187 1.876-1.409 2.226-.212.339-.53.869-.71 1.165l-.308.541-.158-.043c-.382-.106-3.063-1.049-3.773-1.335-.879-.35-1.79-.773-2.469-1.134-.847-.455-1.907-1.134-1.822-1.155.021-.01 1.473-.402 3.221-.879 4.641-1.261 7.216-1.992 8.901-2.522.307-.095.572-.169.582-.159zm13.192 3.094h.011c.042.106-1.674 4.874-2.3 6.379-.137.339-.19.424-.264.413-.18-.01-2.67-.36-4.186-.583-2.638-.402-7.067-1.176-8.18-1.43l-.254-.053 1.579-.361c3.391-.762 5.022-1.176 6.675-1.684 2.088-.636 4.154-1.431 6.241-2.405.329-.149.604-.265.678-.276z" fill="#ccc"/><path d="m43.949 15.001c-.233-.032-3.995 1.324-6.421 2.309-3.275 1.336-5.817 2.607-7.386 3.709-.582.413-1.314 1.144-1.43 1.431-.042.105-.064.233-.064.36l1.42 1.345 3.38 1.081 8.043 1.441 9.197 1.579.095-.795c-.032 0-.053-.01-.084-.01l-1.209-.191-.243-.434c-1.251-2.204-2.628-4.938-3.433-6.782-.625-1.43-1.219-3.083-1.547-4.27-.181-.72-.202-.763-.318-.773zm-.17.54h.011c.01.011.053.307.095.657.18 1.484.509 2.914 1.028 4.461.392 1.165.392 1.102-.064.964-1.08-.297-5.923-1.134-9.43-1.621-.561-.074-1.038-.148-1.038-.159-.043-.042 2.532-1.388 3.666-1.918 1.451-.667 5.435-2.331 5.732-2.384zm-10.214 4.747.413.138c2.246.763 7.894 1.843 11.009 2.098.35.032.646.063.657.063.01.011-.286.17-.668.35-1.504.752-3.157 1.674-4.302 2.384-.338.212-.646.382-.688.382-.043 0-.265-.043-.498-.075l-.424-.063-1.059-1.039c-1.865-1.812-3.328-3.21-3.889-3.74zm-.424.328 1.494 1.865c.816 1.028 1.642 2.035 1.822 2.257.18.223.329.403.318.414-.042.031-2.161-.382-3.284-.636-1.155-.265-1.632-.392-2.342-.615l-.583-.191v-.148c.011-.71.911-1.769 2.437-2.85zm12.694 2.543c.042 0 .095.096.222.382.36.795 1.484 2.935 1.759 3.348.085.138.233.149-1.261-.095-3.592-.583-4.747-.774-4.747-.795 0-.01.106-.085.244-.159 1.113-.614 2.236-1.398 3.232-2.235.244-.202.466-.393.508-.424.011-.022.032-.032.043-.022z" fill="#b9b9b9"/><path d="m28.786 22.301s-.233.371-.011.922c.138.339.541.752.996 1.176 0 0 4.715 4.599 5.288 5.256 2.606 3.009 3.74 5.976 3.846 10.066.064 2.628-.435 4.938-1.674 7.618-2.204 4.811-6.856 10.12-14.029 16.011l1.049-.35c.678-.509 1.6-1.049 3.761-2.236 4.991-2.733 10.607-5.245 17.494-7.83 9.918-3.73 26.225-8.095 35.507-9.515l.964-.149-.148-.233c-.848-1.314-1.431-2.129-2.13-2.998-2.034-2.522-4.503-4.567-7.523-6.262-4.154-2.321-9.526-4.133-16.328-5.478-1.282-.255-4.101-.742-6.39-1.092-4.853-.752-7.989-1.271-11.443-1.865-1.24-.212-3.094-.529-4.323-.794-.636-.138-1.854-.424-2.808-.753-.763-.297-1.865-.593-2.098-1.494zm2.734 2.649c.01-.01.18.053.402.127.403.138.922.297 1.537.467.465.128.931.251 1.399.37.635.159 1.165.308 1.175.308.075.074 1.145 3.496 1.505 4.81.138.498.244.922.233.922-.01.011-.127-.17-.265-.413-1.239-2.183-3.2-4.398-5.467-6.178-.297-.211-.519-.402-.519-.413zm5.213 1.441c.053 0 .286.032.572.096 1.801.402 5.033 1.017 7.099 1.366.35.053.626.117.626.138s-.128.096-.287.18c-.349.18-1.759 1.017-2.225 1.335-1.176.784-2.235 1.632-2.998 2.395-.308.307-.573.562-.573.562s-.063-.18-.116-.403c-.381-1.473-1.176-3.656-1.897-5.192-.116-.244-.212-.466-.212-.487 0 .021 0 .01.011.01zm9.176 1.749c.063.021.169.381.381 1.176.392 1.536.573 3.253.509 4.853-.021.445-.042.858-.064.911l-.031.106-.551-.18c-1.134-.361-2.978-.901-4.557-1.346-.9-.244-1.631-.466-1.631-.487 0-.064 1.314-1.378 1.875-1.876 1.07-.943 3.973-3.189 4.069-3.157zm.731.105c.032-.031 4.387.721 6.368 1.102 1.473.286 3.613.732 3.741.785.063.021-.159.148-.869.466-2.798 1.261-4.875 2.394-6.941 3.772-.54.36-.996.657-1.006.657-.011 0-.021-.307-.021-.678 0-2.013-.403-4.048-1.145-5.764-.074-.17-.138-.329-.127-.34zm11.263 2.226c.032.031-.106.89-.233 1.398-.381 1.579-1.409 3.921-2.67 6.125-.222.392-.424.71-.445.72-.021.011-.307-.148-.636-.339-1.229-.72-2.627-1.398-4.153-2.034-.424-.18-.795-.329-.805-.35-.075-.063 3.337-2.32 5.138-3.401 1.431-.869 3.762-2.162 3.804-2.119zm.806.127c.095 0 2.024.53 3.03.826 2.49.742 5.351 1.791 7.216 2.639l.773.349-.54.128c-4.556 1.048-8.455 2.257-12.217 3.782-.307.127-.583.233-.604.233s.085-.243.223-.54c1.133-2.405 1.864-4.917 2.044-7.057.011-.201.043-.36.075-.36zm-19.2 4.408c.032-.032 1.505.318 2.299.54 1.208.339 3.772 1.197 3.772 1.261 0 .011-.286.254-.625.551-1.388 1.155-2.723 2.373-4.323 3.92-.477.456-.879.827-.9.827-.022 0-.032-.064-.022-.148.244-1.781.191-4.069-.148-6.39-.032-.297-.064-.551-.053-.561zm30.951.032c.021.021-.679 1.123-1.124 1.748-.635.911-1.568 2.119-3.677 4.768-1.112 1.399-2.362 2.977-2.775 3.507-.424.53-.774.975-.785.975-.01 0-.148-.191-.296-.424-1.187-1.78-2.607-3.338-4.292-4.736-.318-.265-.667-.551-.784-.636-.116-.085-.212-.17-.212-.18 0-.032 1.801-.805 3.169-1.356 1.197-.488 2.611-1.023 4.032-1.53 1.422-.507 2.849-.987 4.073-1.363 1.282-.403 2.649-.795 2.671-.773zm.815.211c.043-.01.297.117.604.297 2.575 1.473 5.097 3.37 7.089 5.319.562.551 1.95 1.992 1.928 2.003 0 0-.487.042-1.059.085-4.461.339-10.172 1.282-15.661 2.606-.371.085-.699.159-.72.159s.392-.413.911-.911c3.221-3.105 4.694-5.065 6.432-8.562.243-.519.455-.964.476-.996-.01 0-.01 0 0 0zm-23.597 2.416c.149.032 1.526.679 2.565 1.198.953.476 2.384 1.239 2.458 1.303.01.01-.498.275-1.123.583-1.992.996-3.698 1.939-5.478 3.019-.509.308-.933.562-.943.562-.043 0-.032-.042.254-.562.954-1.737 1.716-3.814 2.151-5.838.042-.159.085-.265.116-.265zm-1.377.255c.032.031-.329 1.335-.551 2.045-.435 1.345-1.166 3.03-1.875 4.301-.17.297-.424.731-.562.975l-.265.424-.593-.572c-.689-.668-1.251-1.081-1.971-1.452-.286-.148-.509-.275-.509-.296 0-.085 1.812-1.727 3.2-2.914.996-.859 3.094-2.543 3.126-2.511zm8.424 3.464.519.339c1.187.774 2.585 1.802 3.656 2.702.603.498 1.769 1.547 2.002 1.802l.127.138-.858.243c-4.853 1.346-8.604 2.543-12.98 4.154-.487.18-.901.328-.933.328-.063 0-.116.053.975-.954 2.798-2.574 5.277-5.414 7.121-8.18zm-2.215.551c.021.022-1.43 2.067-2.299 3.221-1.039 1.378-2.882 3.688-4.154 5.192-.529.626-.985 1.145-1.006 1.155-.032.011-.043-.148-.043-.392 0-1.282-.328-2.649-.9-3.814-.244-.488-.287-.604-.233-.657.201-.18 3.284-1.939 5.234-2.988 1.314-.699 3.369-1.738 3.401-1.717zm-13.393 3.285c.032 0 .275.127.551.276.678.37 1.282.784 1.822 1.229.022.021-.254.244-.614.508-1.007.721-2.533 1.876-3.422 2.586-.933.741-.965.763-.859.604.7-1.07 1.049-1.674 1.42-2.448.328-.689.657-1.504.89-2.214.085-.308.191-.541.212-.541zm3.571 2.797c.053-.01.116.085.402.509.604.901 1.071 2.109 1.187 3.083l.021.212-1.451.562c-2.596 1.007-4.991 2.003-6.612 2.744-.456.212-1.25.594-1.77.848-.519.265-.943.466-.943.456 0-.011.329-.255.731-.551 3.169-2.3 5.913-4.822 7.969-7.343.222-.265.424-.509.444-.52zm-1.643.403c.043.042-1.165 1.409-1.991 2.246-2.046 2.088-4.069 3.72-6.581 5.309-.317.201-.604.381-.635.403-.075.042.021-.064 1.123-1.261.699-.753 1.229-1.388 1.833-2.172.402-.519.477-.594 1.06-1.007 1.557-1.123 5.149-3.56 5.191-3.518z" fill="#f71d4c"/></g></svg>