<svg width="36" height="36" viewBox="0 0 36 36" fill="none" xmlns="http://www.w3.org/2000/svg">
<rect width="36" height="36" fill="white"/>
<path fill-rule="evenodd" clip-rule="evenodd" d="M30 12.534V8.52504C29.9998 8.46494 29.9839 8.40594 29.9538 8.35391C29.9237 8.30188 29.8805 8.25864 29.8285 8.2285C29.7765 8.19836 29.7176 8.18236 29.6575 8.1821C29.5974 8.18185 29.5382 8.19734 29.486 8.22704L26.846 9.73504C26.7409 9.79527 26.6535 9.8822 26.5927 9.98703C26.532 10.0919 26.5 10.2109 26.5 10.332V14.341C26.5 14.605 26.785 14.771 27.014 14.639L29.654 13.131C29.7593 13.0707 29.8467 12.9836 29.9075 12.8786C29.9683 12.7736 30.0002 12.6554 30 12.534ZM6.515 8.22804L14.158 12.611C14.2621 12.6707 14.38 12.7021 14.5 12.7021C14.62 12.7021 14.7379 12.6707 14.842 12.611L22.485 8.22804C22.5373 8.1981 22.5965 8.1824 22.6567 8.18253C22.717 8.18266 22.7761 8.19861 22.8283 8.22878C22.8804 8.25896 22.9237 8.3023 22.9539 8.35446C22.984 8.40663 22.9999 8.4658 23 8.52604V20.556C23 20.791 22.88 21.009 22.681 21.136L18.031 24.089L21.141 25.921C21.361 26.051 21.636 26.048 21.854 25.912L26.464 23.034C26.5134 23.003 26.5541 22.9599 26.5822 22.9089C26.6104 22.8578 26.6251 22.8004 26.625 22.742V18.657C26.625 18.403 26.765 18.171 26.987 18.051L29.494 16.705C29.5464 16.6771 29.6051 16.6632 29.6645 16.6646C29.7238 16.6661 29.7818 16.6829 29.8327 16.7134C29.8837 16.7439 29.9258 16.7871 29.9552 16.8387C29.9845 16.8903 29.9999 16.9487 30 17.008V24.539C30 24.783 29.87 25.009 29.66 25.132L21.826 29.724C21.718 29.7872 21.5949 29.8198 21.4697 29.8182C21.3446 29.8166 21.2223 29.781 21.116 29.715L15.163 26.034C15.1131 26.0032 15.0719 25.96 15.0434 25.9087C15.0149 25.8575 14.9999 25.7997 15 25.741V22.117C15 22.002 15.057 21.895 15.153 21.831L19.193 19.137C19.2873 19.0743 19.3647 18.9893 19.4182 18.8895C19.4718 18.7897 19.4999 18.6783 19.5 18.565V14.175C19.5 14.1508 19.4935 14.1269 19.4812 14.106C19.4689 14.085 19.4513 14.0677 19.4302 14.0558C19.409 14.0439 19.3851 14.0378 19.3608 14.0382C19.3365 14.0386 19.3128 14.0455 19.292 14.058L14.852 16.722C14.7456 16.7859 14.6239 16.8199 14.4998 16.8202C14.3757 16.8206 14.2538 16.7873 14.147 16.724L9.645 14.056C9.62411 14.0437 9.60034 14.0372 9.5761 14.037C9.55186 14.0368 9.52799 14.043 9.5069 14.0549C9.48582 14.0669 9.46825 14.0842 9.45598 14.1051C9.44371 14.126 9.43716 14.1498 9.437 14.174V22.107C9.4369 22.1678 9.42072 22.2274 9.39012 22.2798C9.35951 22.3323 9.31556 22.3757 9.26274 22.4057C9.20992 22.4356 9.15011 22.4511 9.08938 22.4505C9.02865 22.4498 8.96918 22.4331 8.917 22.402L6.5 20.952C6.19 20.766 6 20.43 6 20.068V8.52604C6 8.26204 6.286 8.09604 6.515 8.22804Z" fill="#0073E6"/>
</svg>
