<svg fill="none" height="169" viewBox="0 0 169 169" width="169" xmlns="http://www.w3.org/2000/svg"><g clip-rule="evenodd" fill-rule="evenodd"><path d="m1.41451 90.25c3.17214 41.128 36.00069 74.699 75.74509 77.461l8.2141.571v-9.08-9.079l-4.7293-.61c-32.4951-4.187-55.2964-25.942-60.0795-57.32l-1.2486-8.193h-9.1918-9.191883z" fill="#97e3d5"/><path d="m149.827 90.75c-1.449 18.406-12.18 36.42-28.042 47.075-10.305 6.923-16.652 9.192-32.6773 11.685l-3.7337.581v8.954 8.955h5.0201c39.6389 0 78.6149-39.459 78.6149-79.588v-4.412h-9.326-9.324z" fill="#61cdbb"/><path d="m67.452 1.427c-36.4338 8.134-63.16006 39.022-66.03749 76.323l-.481893 6.25h9.191883 9.1918l1.2486-8.193c4.7831-31.378 27.5844-53.133 60.0795-57.32l4.7293-.61v-8.938-8.939l-6.2228.102c-3.422.057-8.687.653-11.6989 1.325z" fill="#f1e15b"/><path d="m85.374 8.955v8.954l3.7337.581c16.0253 2.493 22.3723 4.762 32.6773 11.685 15.862 10.655 26.593 28.669 28.042 47.075l.532 6.75h9.324 9.326v-4.412c0-40.129-38.976-79.588-78.6149-79.588h-5.0201z" fill="#e8a838"/></g></svg>