<svg fill="none" height="80" viewBox="0 0 77 80" width="77" xmlns="http://www.w3.org/2000/svg"><path d="m4.82402 3.44961 44.36498-3.267169c5.4478-.467287 6.8497-.1542744 10.2738 2.333249l14.1619 9.95391c2.3367 1.7117 3.1155 2.1777 3.1155 4.0436v54.5937c0 3.4214-1.2463 5.4448-5.604 5.7544l-51.5205 3.1112c-3.271.1561-4.8279-.3102-6.5409-2.4889l-10.42896-13.5316c-1.868733-2.4906-2.64584-4.3542-2.64584-6.5343v-48.5264c0-2.79798 1.24667-5.13186 4.82402-5.44169z" fill="#fff"/><path clip-rule="evenodd" d="m49.189.182441-44.36498 3.267169c-3.57735.30983-4.82402 2.64371-4.82402 5.44169v48.5264c0 2.1801.777107 4.0437 2.64584 6.5343l10.42896 13.5316c1.713 2.1787 3.2699 2.645 6.5409 2.4889l51.5205-3.1112c4.3577-.3096 5.604-2.333 5.604-5.7544v-54.5937c0-1.7686-.6998-2.2795-2.7626-3.7856-.1136-.0829-.231-.1688-.3529-.258l-14.1619-9.95391c-3.4241-2.4875234-4.826-2.800536-10.2738-2.333249zm-28.4051 15.435259c-4.2064.2841-5.1622.3486-7.5509-1.592l-6.07447-4.82142c-.61956-.62347-.30882-1.40121 1.24665-1.55546l42.65182-3.11099c3.5792-.31175 5.4468.93456 6.8485 2.02278l7.3154 5.28869c.3114.1549 1.0884 1.0869.1541 1.0869l-44.0482 2.645c-.1853.0124-.365.0245-.5391.0363l-.0032.0002zm-4.9063 55.0216v-46.3478c0-2.0216.6227-2.9555 2.4896-3.1124l50.5878-2.9542c1.7157-.1555 2.4927.934 2.4927 2.9542v46.0368c0 2.0235-.3121 3.7369-3.1149 3.891l-48.4089 2.8009c-2.8015.1541-4.0463-.7776-4.0463-3.2685zm47.7891-43.8617c.3105 1.4012 0 2.8011-1.4036 2.9587l-2.3325.4647v34.2169c-2.0251 1.0887-3.8925 1.7107-5.4487 1.7107-2.4914 0-3.1155-.7782-4.9817-3.11l-15.2567-23.952v23.1744l4.8278 1.0895s0 2.7981-3.8951 2.7981l-10.7377.6231c-.312-.6231 0-2.1771 1.0892-2.4885l2.8021-.7766v-30.6406l-3.8907-.3118c-.312-1.4013.4651-3.4214 2.6459-3.5784l11.5192-.7763 15.8777 24.2638v-21.4647l-4.0482-.4645c-.3108-1.713.9327-2.9569 2.4895-3.111z" fill="#000008" fill-rule="evenodd"/></svg>