<svg width="100" height="100" viewBox="0 0 100 100" fill="none" xmlns="http://www.w3.org/2000/svg">
<path d="M50 100C77.6143 100 100 77.6143 100 50C100 22.3857 77.6143 0 50 0C22.3857 0 0 22.3857 0 50C0 77.6143 22.3857 100 50 100Z" fill="#D6D6D6"/>
<path fill-rule="evenodd" clip-rule="evenodd" d="M59.292 18.8925L24.605 21.445C21.808 21.6871 20.8333 23.5104 20.8333 25.6962V63.6075C20.8333 65.3107 21.4409 66.7667 22.902 68.7125L31.056 79.284C32.3952 80.9862 33.6125 81.3505 36.17 81.2285L76.4517 78.7977C79.8587 78.556 80.8332 76.9752 80.8332 74.3022V31.651C80.8332 30.2692 80.2862 29.87 78.6732 28.6935C78.5845 28.6287 78.4925 28.5615 78.3972 28.4917L67.3247 20.7154C64.6475 18.772 63.5517 18.5275 59.292 18.8925ZM37.0835 30.9512C33.7945 31.173 33.0472 31.2235 31.1797 29.7075L26.4302 25.9407C25.946 25.4535 26.1887 24.846 27.405 24.7255L60.7527 22.295C63.5512 22.0515 65.0112 23.0251 66.1072 23.8753L71.8267 28.007C72.0702 28.128 72.6777 28.8562 71.9472 28.8562L37.508 30.9227C37.3617 30.9325 37.2205 30.942 37.0835 30.9512ZM33.2475 73.937V37.7277C33.2475 36.1482 33.7342 35.4187 35.1937 35.2962L74.7462 32.9882C76.0877 32.8667 76.6952 33.718 76.6952 35.2962V71.2625C76.6952 72.8432 76.4512 74.1817 74.2597 74.3022L36.411 76.4905C34.2205 76.611 33.2475 75.883 33.2475 73.937ZM70.6117 39.6697C70.8542 40.7645 70.6117 41.8582 69.5142 41.9812L67.6905 42.3442V69.0765C66.1072 69.9267 64.647 70.413 63.4305 70.413C61.4825 70.413 60.9947 69.8047 59.5355 67.9832L47.607 49.2707V67.3755L51.3815 68.2267C51.3815 68.2267 51.3815 70.413 48.3362 70.413L39.9407 70.8995C39.6967 70.413 39.9407 69.1987 40.7922 68.9555L42.9832 68.3487V44.4107L39.9412 44.1672C39.6972 43.0725 40.305 41.4942 42.01 41.3717L51.0165 40.765L63.4305 59.7212V42.952L60.2652 42.589C60.0225 41.2507 60.9947 40.279 62.2117 40.1585L70.6117 39.6697Z" fill="black"/>
<path d="M37.0835 30.9512C33.7945 31.173 33.0472 31.2235 31.1797 29.7075L26.4302 25.9407C25.946 25.4535 26.1887 24.846 27.405 24.7255L60.7527 22.295C63.5512 22.0515 65.0112 23.0251 66.1072 23.8753L71.8267 28.007C72.0702 28.128 72.6777 28.8562 71.9472 28.8562L37.508 30.9227L37.0835 30.9512Z" fill="white"/>
<path fill-rule="evenodd" clip-rule="evenodd" d="M33.2475 73.937V37.7277C33.2475 36.1482 33.7342 35.4187 35.1937 35.2962L74.7462 32.9882C76.0877 32.8667 76.6952 33.718 76.6952 35.2962V71.2625C76.6952 72.8432 76.4512 74.1817 74.2597 74.3022L36.411 76.4905C34.2205 76.611 33.2475 75.883 33.2475 73.937ZM69.5142 41.9812C70.6117 41.8582 70.8542 40.7645 70.6117 39.6697L62.2117 40.1585C60.9947 40.279 60.0225 41.2507 60.2652 42.589L63.4305 42.952V59.7212L51.0165 40.765L42.01 41.3717C40.305 41.4942 39.6972 43.0725 39.9412 44.1672L42.9832 44.4107V68.3487L40.7922 68.9555C39.9407 69.1987 39.6967 70.413 39.9407 70.8995L48.3362 70.413C51.3815 70.413 51.3815 68.2267 51.3815 68.2267L47.607 67.3755V49.2707L59.5355 67.9832C60.9947 69.8047 61.4825 70.413 63.4305 70.413C64.647 70.413 66.1072 69.9267 67.6905 69.0765V42.3442L69.5142 41.9812Z" fill="white"/>
</svg>
