<svg enable-background="new 0 0 91.7 91.7" viewBox="0 0 91.7 91.7" xmlns="http://www.w3.org/2000/svg"><g fill="#4169e1"><path d="m82.3 9.4c-6.1-6.1-14.2-9.4-22.8-9.4-8.6 0-16.7 3.3-22.8 9.4l-33 33c-.8.8-1.2 1.8-1.2 2.9s.4 2.2 1.2 2.9 1.8 1.2 2.9 1.2 2.2-.4 2.9-1.2l33-33c9.4-9.4 24.6-9.4 33.9 0s9.4 24.6 0 33.9l-33 33c-1.6 1.6-1.6 4.2 0 5.9.8.8 1.8 1.2 2.9 1.2s2.2-.4 2.9-1.2l33-33c6.1-6.1 9.4-14.2 9.4-22.8s-3.2-16.7-9.3-22.8z"/><path d="m77.7 32.3c0-4.9-1.9-9.4-5.3-12.9-7.1-7.1-18.7-7.1-25.8 0l-43.9 43.8c-.8.8-1.2 1.8-1.2 2.9s.4 2.2 1.2 2.9 1.8 1.2 2.9 1.2 2.2-.4 2.9-1.2l43.5-43.2.1-.1c.1-.2.3-.3.4-.5.2-.2.3-.3.5-.5l.1-.1c3.9-3.3 9.8-3.1 13.4.5s3.9 9.1.9 13c-.3.4-.6.7-.9 1s-.6.5-1 .9l-42.9 43.1c-.8.8-1.2 1.8-1.2 2.9s.4 2.2 1.2 2.9 1.8 1.2 2.9 1.2 2.1-.4 2.9-1.2l43.8-43.8c3.6-3.4 5.5-8 5.5-12.8z"/><path d="m55.3 41.3c-1.1-.5-2.1-1.2-2.9-2s-1.5-1.8-2-2.9l-.3-.7-48.4 48.5c-.9.9-1.5 2.2-1.7 3.4-.1 1.2.2 2.3 1 3.1.7.7 1.6 1 2.7 1 1.4 0 2.8-.6 3.8-1.7l48.5-48.4z"/></g></svg>