<svg fill="none" height="737" viewBox="0 0 736 737" width="736" xmlns="http://www.w3.org/2000/svg" xmlns:xlink="http://www.w3.org/1999/xlink"><linearGradient id="a" gradientUnits="userSpaceOnUse" x1="368.005" x2="368.005" y1="0" y2="737"><stop offset=".00225706" stop-color="#2b5355"/><stop offset="1"/></linearGradient><clipPath id="b"><rect height="737" rx="368" width="736"/></clipPath><g clip-path="url(#b)"><path d="m.00540161 368.5c0-203.241 164.75959839-368.5 367.99959839-368.5 203.241 0 368 165.259 368 368.5 0 203.241-164.759 368.5-368 368.5-203.24 0-367.99959839-165.259-367.99959839-368.5z" fill="url(#a)"/><path d="m594.836 312.511v28.432l-238.675 284.32h-183.053c-18.001 0-32.567-14.585-32.567-32.612v-365.436c0-31.417 25.413-56.864 56.787-56.864h126.777c4.676.002 9.279 1.16 13.4 3.372s7.633 5.41 10.223 9.308l39.921 59.964c2.594 3.892 6.107 7.084 10.228 9.291s8.722 3.362 13.396 3.361h126.776c31.375 0 56.787 25.447 56.787 56.864z" fill="#c4c4c4"/><path clip-rule="evenodd" d="m229.53 288.612-30.363-30.269c-4.035-4.017-9.492-6.272-15.181-6.271h-77.002c-11.8641 0-21.4729 9.578-21.4729 21.406v149.845c0 11.826 9.6088 21.406 21.4729 21.406h107.364c11.863 0 21.473-9.58 21.473-21.406v-119.577c0-5.672-2.266-11.12-6.291-15.134z" fill="#fff" fill-rule="evenodd"/><path d="m185.433 297.226h-53.543c-16.206 0-29.344 13.155-29.344 29.384v53.615c0 16.228 13.138 29.384 29.344 29.384h53.543c16.206 0 29.344-13.156 29.344-29.384v-53.615c0-16.229-13.138-29.384-29.344-29.384z" fill="#2ccbd3" stroke="#fff" stroke-linecap="round" stroke-linejoin="round" stroke-width="12.155"/><path d="m214.777 341.619c-8.523-1.307-17.228-.746-25.513 1.645s-15.953 6.554-22.475 12.203c-6.521 5.648-11.74 12.647-15.296 20.513-3.556 7.865-5.365 16.41-5.301 25.044.018 2.875.248 5.744.686 8.586m-6.275-78.661c.44.435.74.992.863 1.599s.063 1.236-.172 1.809-.635 1.062-1.148 1.407c-.514.345-1.118.529-1.737.529-.618 0-1.222-.184-1.736-.529s-.913-.834-1.149-1.407c-.235-.573-.295-1.202-.172-1.809s.424-1.164.863-1.599c.587-.583 1.38-.91 2.206-.91s1.619.327 2.205.91z" stroke="#fff" stroke-linecap="round" stroke-linejoin="round" stroke-width="12.155"/><g clip-rule="evenodd" fill-rule="evenodd"><path d="m407.946 149.225-28.793-28.703c-3.825-3.81-9.001-5.948-14.396-5.948h-73.02c-11.25 0-20.362 9.084-20.362 20.299v142.097c0 11.216 9.112 20.3 20.362 20.3h101.813c11.25 0 20.363-9.084 20.363-20.3v-113.393c0-5.379-2.149-10.545-5.967-14.352z" fill="#fff"/><path d="m370.726 221.285-37.124 21.038c-9.14 5.173-20.449-1.476-20.449-12.037v-42.067c0-10.569 11.289-17.21 20.449-12.037l37.124 21.038c9.325 5.266 9.325 18.781 0 24.065z" fill="#2ccbd3"/><path d="m606.527 167.449-26.69-26.608c-3.546-3.531-8.344-5.512-13.345-5.512h-67.685c-10.428 0-18.875 8.419-18.875 18.816v131.717c0 10.396 8.447 18.817 18.875 18.817h94.375c10.429 0 18.875-8.421 18.875-18.817v-105.111c0-4.986-1.991-9.775-5.53-13.302z" fill="#fff"/></g><path d="m585.48 197.413h-41.344m41.344 25.101h-41.344m41.344 25.1h-41.344m-27.2-51.244c-.289 0-.566.114-.77.319-.204.204-.318.481-.318.77s.114.567.318.771.481.319.77.319c.288 0 .565-.115.769-.319s.319-.482.319-.771-.115-.566-.319-.77c-.204-.205-.481-.319-.769-.319zm0 25.055c-.143 0-.284.028-.416.083-.132.054-.252.135-.353.236s-.181.22-.236.353c-.055.132-.083.273-.083.416s.028.285.083.417c.054.132.134.252.235.353s.221.181.353.236c.131.055.273.083.416.083.288 0 .564-.114.768-.318s.319-.481.319-.77c0-.288-.114-.565-.318-.77-.204-.204-.48-.319-.768-.319zm0 25.058c-.289 0-.565.115-.769.319s-.319.481-.319.77.115.566.319.77c.204.205.48.319.769.319.288 0 .565-.114.769-.319.204-.204.318-.481.318-.77s-.114-.566-.318-.77-.481-.319-.769-.319z" stroke="#2ccbd3" stroke-linecap="round" stroke-linejoin="round" stroke-width="9.43"/><path d="m517.313 583.745v-94.284m-44.06 39.889 44.06-44.725 44.061 44.725z" stroke="#fff" stroke-linecap="round" stroke-linejoin="round" stroke-width="16"/><path d="m173.108 625.263c14.368 0 27.059-9.439 31.177-23.229l66.071-220.547c7.212-24.082 29.33-40.544 54.401-40.544h279.421c37.905 0 65.162 36.45 54.486 72.871l-50.001 170.592c-7.098 24.224-29.273 40.857-54.486 40.857z" fill="#fff"/></g></svg>