<svg enable-background="new 0 0 505 505" viewBox="0 0 505 505" xmlns="http://www.w3.org/2000/svg"><circle cx="252.5" cy="252.5" fill="#90dfaa" r="252.5"/><path d="m166.6 381h-88.8c-1.3 0-2.4-1.1-2.4-2.4v-239.2c0-1.3 1.1-2.4 2.4-2.4h88.9c1.3 0 2.4 1.1 2.4 2.4v239.2c0 1.3-1.1 2.4-2.5 2.4z" fill="#ff7058"/><path d="m91.1 152.7h62.2v149.5h-62.2z" fill="#fff"/><g fill="#e6e9ee"><path d="m101 167.9h42.4v11.9h-42.4z"/><path d="m101 194.7h42.4v11.9h-42.4z"/><path d="m101 221.6h42.4v11.9h-42.4z"/><path d="m101 248.4h42.4v11.9h-42.4z"/><path d="m101 275.2h42.4v11.9h-42.4z"/></g><circle cx="122.2" cy="342.4" fill="#fff" r="19"/><path d="m275 381h-88.9c-1.3 0-2.4-1.1-2.4-2.4v-239.2c0-1.3 1.1-2.4 2.4-2.4h88.9c1.3 0 2.4 1.1 2.4 2.4v239.2c.1 1.3-1 2.4-2.4 2.4z" fill="#2c9984"/><path d="m199.5 152.7h62.2v149.5h-62.2z" fill="#fff"/><path d="m209.4 167.9h42.4v11.9h-42.4z" fill="#e6e9ee"/><path d="m209.4 194.7h42.4v11.9h-42.4z" fill="#e6e9ee"/><path d="m209.4 221.6h42.4v11.9h-42.4z" fill="#e6e9ee"/><path d="m209.4 248.4h42.4v11.9h-42.4z" fill="#e6e9ee"/><path d="m209.4 275.2h42.4v11.9h-42.4z" fill="#e6e9ee"/><circle cx="230.6" cy="342.4" fill="#fff" r="19"/><path d="m427.3 364.4-87.4 16.1c-1.3.2-2.6-.6-2.8-1.9l-43.4-235.2c-.2-1.3.6-2.6 1.9-2.8l87.4-16.1c1.3-.2 2.6.6 2.8 1.9l43.4 235.2c.2 1.3-.6 2.6-1.9 2.8z" fill="#324a5e"/><path d="m280.951 190.458h149.496v62.198h-149.496z" fill="#fff" transform="matrix(-.1813 -.9834 .9834 -.1813 202.3034 611.5302)"/><path d="m324.788 162.786h42.399v11.9h-42.399z" fill="#e6e9ee" transform="matrix(-.9834 .1813 -.1813 -.9834 716.8331 271.9469)"/><path d="m329.693 189.18h42.399v11.9h-42.399z" fill="#e6e9ee" transform="matrix(-.9834 .1813 -.1813 -.9834 731.347 323.407)"/><path d="m334.495 215.592h42.399v11.9h-42.399z" fill="#e6e9ee" transform="matrix(-.9834 .1813 -.1813 -.9834 745.6614 374.9236)"/><path d="m339.398 241.985h42.399v11.9h-42.399z" fill="#e6e9ee" transform="matrix(-.9834 .1813 -.1813 -.9834 760.1712 426.382)"/><path d="m344.299 268.378h42.399v11.9h-42.399z" fill="#e6e9ee" transform="matrix(-.9834 .1813 -.1813 -.9834 774.6771 477.8427)"/><circle cx="376.6" cy="334.5" fill="#fff" r="19"/></svg>