<svg fill="none" height="97" viewBox="0 0 97 97" width="97" xmlns="http://www.w3.org/2000/svg"><circle cx="48.5" cy="48.5" fill="#1d80ab" r="48.5"/><path d="m32.3877 23.6836h20.9521c2.3243 0 4.4548.3076 6.3916.9228 1.9597.5925 3.6459 1.4812 5.0586 2.6661 1.4356 1.1621 2.5407 2.6204 3.3155 4.375.7975 1.7545 1.1963 3.7711 1.1963 6.0498 0 1.8912-.3874 3.68-1.1622 5.3662-.7747 1.6634-1.8684 3.1217-3.2812 4.375-1.4128 1.2532-3.1104 2.2444-5.0928 2.9736-1.9596.7292-4.1471 1.0938-6.5625 1.0938h-9.1943v18.1152h5.1953v5.8789h-16.8164v-5.8789h4.9219v-40.0244h-4.9219zm11.6211 5.9131v16.3037h9.331c1.2989 0 2.4838-.1709 3.5547-.5127 1.0938-.3646 2.028-.8887 2.8028-1.5723.7975-.6836 1.4127-1.5381 1.8457-2.5634.4557-1.0254.6836-2.2103.6836-3.5547 0-2.5521-.7748-4.5345-2.3243-5.9473-1.5494-1.4355-4.0218-2.1533-7.4169-2.1533z" fill="#fff"/></svg>