<svg height="100pt" viewBox="0 0 100 100" width="100pt" xmlns="http://www.w3.org/2000/svg"><path d="m0 0h100v100h-100z" fill="#ff6c37"/><path d="m66.661 31.599c-.965.013-1.837.41-2.472 1.041l-18.554 18.554-3.959-3.96c18.288-18.235 21.585-18.41 24.985-15.638zm-20.263 20.254 18.501-18.501c.472-.493 1.134-.8 1.868-.8 1.429 0 2.585 1.157 2.585 2.585 0 .794-.356 1.503-.919 1.978l-.003.003-19.579 17.188zm1.375 2.894-4.585.991c-.015.003-.034.006-.056.006-.097 0-.181-.056-.225-.138-.022-.037-.034-.078-.034-.125 0-.068.028-.134.075-.178l2.687-2.687zm-11.682-1.913 4.885-4.884 3.662 3.659-8.247 1.776c-.022.006-.05.009-.078.009-.122 0-.225-.069-.275-.172v-.003c-.031-.047-.047-.103-.047-.163 0-.09.041-.168.1-.225zm-15.191 25.242c-.162-.016-.287-.15-.287-.316 0-.009 0-.021 0-.031.009-.075.04-.14.09-.19h.01l3.94-3.941 5.091 5.091zm10.104-5.234c-.307.162-.513.478-.513.843 0 .078.009.157.028.228v-.006l.847 3.603c.009.038.016.082.016.125 0 .288-.235.522-.522.522-.147 0-.278-.059-.372-.156h-.013l-5.115-5.122 15.675-15.66 7.585-1.638 3.641 3.641c-5.229 4.591-12.379 9.172-21.251 13.616zm21.997-14.282h-.009l-3.497-3.497 19.579-17.188c.181-.163.344-.335.49-.522l.007-.01c-.616 5.604-8.454 13.523-16.573 21.214zm15.238-26.92-.012-.009c-1.366-1.372-2.21-3.266-2.21-5.357 0-4.194 3.401-7.591 7.591-7.591 1.857 0 3.557.666 4.879 1.772l-.013-.009-6.709 6.722c-.091.091-.147.216-.147.353 0 .138.056.263.147.353l5.197 5.197c-.982.497-2.141.791-3.366.791-2.091 0-3.985-.847-5.353-2.219zm10.741 0c-.334.331-.706.631-1.103.891l-.028.015h-.003l-5.028-5.028 6.387-6.388c2.754 3 2.654 7.635-.225 10.51zm-.415-6.432c-.15.11-.247.285-.247.482 0 .062.009.122.025.175v-.003c.112.225.178.487.178.768 0 .422-.15.81-.403 1.11l.003-.003c-.078.1-.125.225-.125.362 0 .185.088.35.222.456.097.075.216.122.35.125.178-.003.334-.081.441-.206.415-.497.665-1.14.665-1.841 0-.468-.112-.912-.312-1.303l.006.016c-.106-.15-.278-.247-.472-.247-.125 0-.244.041-.337.109h.003z" fill="#fff"/></svg>