<svg fill="none" height="128" viewBox="0 0 128 128" width="128" xmlns="http://www.w3.org/2000/svg"><path d="m93.8092 92.112c.785-6.533.55-7.492 5.416-6.433l1.2348.108c3.742.17 8.637-.602 11.513-1.938 6.191-2.873 9.861-7.668 3.758-6.409-13.924 2.873-14.881-1.842-14.881-1.842 14.703-21.815 20.849-49.508 15.543-56.287-14.47-18.489024-39.5168-9.74602-39.9358-9.52002l-.134.025c-2.751-.571-5.83-.91201-9.289-.96801-6.301-.104-11.082 1.65203-14.709 4.40203 0 0-44.68296-18.40903-42.60396 23.151.44196 8.841 12.67196 66.898 27.25996 49.362 5.332-6.412 10.484-11.834 10.484-11.834 2.558 1.699 5.622 2.567 8.834 2.255l.249-.212c-.078.796-.044 1.575.099 2.497-3.757 4.199-2.653 4.936-10.166 6.482-7.602 1.566-3.136 4.355-.221 5.084 3.535.884 11.712 2.136 17.238-5.598l-.22.882c1.474 1.18 1.375 8.477 1.583 13.69.209 5.214.558 10.079 1.621 12.948 1.063 2.868 2.317 10.256 12.191 8.14 8.252-1.764 14.561-4.309 15.136-27.985z" fill="#000"/><path d="m75.458 125.256c-4.367 0-7.211-1.689-8.938-3.32-2.607-2.46-3.641-5.629-4.259-7.522l-.267-.79c-1.244-3.358-1.666-8.193-1.916-14.4189-.038-.935-.064-1.898-.093-2.919-.021-.747-.047-1.684-.085-2.664-1.5733.7501-3.2433 1.2778-4.962 1.568-3.079.526-6.389.356-9.84-.507-2.435-.609-4.965-1.871-6.407-3.82-4.203 3.681-8.212 3.182-10.396 2.453-3.853-1.285-7.301-4.896-10.542-11.037-2.309-4.375-4.542-10.075-6.638-16.943-3.64998-11.96-5.96898-24.557-6.17498-28.693-.648-12.945 2.83699-22.203 10.35598-27.51404 11.861-8.378003 29.832-3.451 36.384-1.214 4.402-2.653 9.581-3.944 15.433-3.851 3.143.051 6.136.327 8.916.823 2.9-.912 8.628-2.221 15.185-2.139 12.081.144 22.092 4.852 28.949 13.61504 4.894 6.252 2.474 19.381.597 26.651-2.642 10.226-7.271 21.102-12.957 30.57 1.544.011 3.781-.174 6.961-.831 6.274-1.295 8.109 2.069 8.607 3.575 1.995 6.042-6.677 10.608-9.382 11.864-3.466 1.609-9.117 2.589-13.745 2.377l-.202-.013-1.216-.107-.12 1.014-.116.991c-.311 11.9989-2.025 19.5979-5.552 24.6189-3.697 5.264-8.835 6.739-13.361 7.709-1.544.33-2.947.474-4.219.474zm-9.19-43.6709c2.819 2.256 3.066 6.501 3.287 14.434.028.99.054 1.927.089 2.802.106 2.6499.355 8.8549 1.327 11.4769.137.371.26.747.39 1.146 1.083 3.316 1.626 4.979 6.309 3.978 3.931-.843 5.952-1.599 7.534-3.851 2.299-3.274 3.585-9.86 3.821-19.5749l4.783.116-4.75-.57.14-1.186c.455-3.91.783-6.734 3.396-8.602 2.097-1.498 4.486-1.353 6.389-1.01-2.091-1.58-2.669-3.433-2.823-4.193l-.399-1.965 1.121-1.663c6.457-9.58 11.781-21.354 14.609-32.304 2.906-11.251 2.02-17.226 1.134-18.356-11.729-14.98704-32.068-8.799-34.192-8.097l-.359.194-1.8.335-.922-.191c-2.542-.528-5.366-.82-8.393-.869-4.756-.08-8.593 1.044-11.739 3.431l-2.183 1.655-2.533-1.043c-5.412-2.213-21.308-6.662-29.696-.721-4.656 3.298-6.777 9.76-6.305 19.207.156 3.119 2.275 14.926 5.771 26.377 4.831 15.825 9.221 21.082 11.054 21.693.32.108 1.15-.537 1.976-1.529 3.444-4.1287 7.0103-8.1538 10.694-12.07l2.77-2.915 3.349 2.225c1.35.897 2.839 1.406 4.368 1.502l7.987-6.812-1.157 11.808c-.026.265-.039.626.065 1.296l.348 2.238-1.51 1.688-.174.196 4.388 2.025z" fill="#000"/><path d="m115.731 77.4399c-13.925 2.873-14.882-1.842-14.882-1.842 14.703-21.816 20.849-49.51 15.545-56.287-14.47-18.487964-39.5188-9.74496-39.9368-9.51796l-.135.024c-2.751-.571-5.83-.911-9.291-.967-6.301-.103-11.08 1.65196-14.707 4.40196 0 0-44.68396-18.40796-42.60596 23.151.44196 8.842 12.67196 66.8991 27.25996 49.363 5.332-6.412 10.483-11.834 10.483-11.834 2.559 1.699 5.622 2.567 8.833 2.255l.25-.212c-.078.796-.042 1.575.1 2.497-3.758 4.199-2.654 4.936-10.167 6.482-7.602 1.566-3.136 4.355-.22 5.084 3.534.884 11.712 2.136 17.237-5.598l-.221.882c1.473 1.18 2.507 7.672 2.334 13.557-.174 5.8851-.29 9.9261.871 13.0821 1.16 3.156 2.316 10.256 12.192 8.14 8.252-1.768 12.528-6.351 13.124-13.995.422-5.435 1.377-4.631 1.438-9.4901l.767-2.3c.884-7.367.14-9.743 5.225-8.638l1.2348.108c3.742.17 8.639-.602 11.514-1.938 6.19-2.871 9.861-7.667 3.758-6.408z" fill="#336791"/><path d="m75.957 122.307c-8.232 0-10.84-6.519-11.907-9.185-1.562-3.907-1.899-19.0689-1.551-31.5029.0051-.2097.0517-.4163.1371-.6079s.2078-.3644.3602-.5085c.1525-.144.3319-.2565.528-.3309.1961-.0745.405-.1094.6147-.1027.2094.0057.4157.0526.6069.1381.1913.0855.3639.2078.5078.3601.144.1522.2565.3313.3312.5271.0747.1957.1101.4043.1041.6137-.401 14.341.168 27.3369 1.324 30.2289 1.804 4.509 4.54 8.453 12.275 6.796 7.343-1.575 10.093-4.359 11.318-11.46.94-5.449 2.799-20.9509 3.028-24.0099.0153-.209.0717-.413.166-.6002s.2246-.354.3834-.4907c.1589-.1368.3432-.2408.5423-.3062.1992-.0654.4093-.0909.6183-.0749.4218.032.8137.23 1.0896.5506.276.3206.4135.7375.3824 1.1594-.239 3.185-2.089 18.6569-3.065 24.3149-1.446 8.387-5.185 12.191-13.794 14.037-1.463.313-2.792.453-4 .454zm-44.636-31.8409c-.7196-.0025-1.434-.1206-2.116-.35-5.347-1.784-10.44-10.492-15.138-25.885-3.576-11.717-5.84204-23.947-6.04104-27.922-.589-11.784 2.44504-20.121 9.02004-24.778 13.007-9.216 34.888-.44 35.813-.062.3918.1601.704.4692.868.8595.1639.3902.166.8296.006 1.2215-.1601.3919-.4693.7041-.8595.868-.3903.1639-.8297.1661-1.2215.006-.211-.086-21.193-8.492-32.768-.285-5.622 3.986-8.203 11.392-7.672 22.011.167 3.349 2.284 15.285 5.906 27.149 4.194 13.742 8.967 22.413 13.096 23.79.648.216 2.62.873 5.439-2.517 3.2874-3.9482 6.6981-7.7921 10.227-11.526.2952-.2945.6941-.4618 1.1111-.4659.417-.0042.8191.155 1.1202.4436s.4773.6835.4909 1.1003c.0136.4169-.1365.8225-.4182 1.13-.048.05-4.847 5.067-10.077 11.359-2.477 2.979-4.851 3.853-6.786 3.853zm69.429-13.445c-.289-.0004-.573-.0794-.8209-.2286-.2478-.1491-.4505-.3629-.5863-.6183s-.1996-.5429-.1846-.8318.1083-.5683.2698-.8083c14.863-22.055 20.08-48.704 15.612-54.414-5.624-7.186-13.565-10.939-23.604-11.156-7.433-.16-13.341 1.738-14.307 2.069l-.243.099c-.971.305-1.716-.227-1.997-.849-.1603-.35637-.1845-.75905-.0683-1.13208.1162-.37304.365-.69065.6993-.89292.046-.027.192-.089.429-.176l-.021.006.021-.007c1.641-.601 7.639-2.4 15.068-2.315 11.108.118 20.284 4.401 26.534 12.388 2.957 3.779 2.964 12.485.019 23.887-3.002 11.625-8.651 24.118-15.497 34.277-.306.457-.81.703-1.323.703zm.76 10.21c-2.538 0-4.813-.358-6.175-1.174-1.4-.839-1.667-1.979-1.702-2.584-.382-6.71 3.32-7.878 5.208-8.411-.263-.398-.637-.866-1.024-1.349-1.101-1.376-2.609-3.26-3.771-6.078-.182-.44-.752-1.463-1.412-2.648-3.579-6.418-11.026-19.773-6.242-26.612 2.214-3.165 6.623-4.411 13.119-3.716-1.911-5.822-11.011-24.034-32.604-24.388-6.494-.108-11.82 1.889-15.822 5.93-8.96 9.049-8.636 25.422-8.631 25.586.0055.2095-.0303.4179-.1054.6136-.075.1956-.1879.3745-.3321.5265s-.317.2742-.5084.3594c-.1914.0853-.3977.132-.6071.1375-.2095.0055-.418-.0303-.6136-.1053-.1956-.0751-.3746-.188-.5266-.3322s-.2741-.3169-.3594-.5083c-.0852-.1914-.1319-.3977-.1374-.6072-.02-.727-.354-17.909 9.554-27.916 4.637-4.683 10.741-6.995 18.142-6.874 13.814.227 22.706 7.25 27.732 13.101 5.479 6.377 8.165 13.411 8.386 15.759.165 1.746-1.088 2.095-1.341 2.147l-.576.013c-6.375-1.021-10.465-.312-12.156 2.104-3.639 5.201 3.406 17.834 6.414 23.229.768 1.376 1.322 2.371 1.576 2.985.988 2.396 2.277 4.006 3.312 5.3.911 1.138 1.7 2.125 1.982 3.283.131.23 1.99 2.98 13.021.703 2.765-.57 4.423-.083 4.93 1.45.997 3.015-4.597 6.532-7.694 7.97-2.775 1.29-7.204 2.106-11.036 2.106zm-4.696-4.021c.35.353 2.101.962 5.727.806 3.224-.138 6.624-.839 8.664-1.786 2.609-1.212 4.351-2.567 5.253-3.492l-.5.092c-7.053 1.456-12.042 1.262-14.828-.577-.187-.1237-.367-.2576-.54-.401-.302.119-.581.197-.78.253-1.58.443-3.214.902-2.996 5.105zm-45.562 8.915c-1.752 0-3.596-.239-5.479-.71-1.951-.488-5.24-1.957-5.19-4.37.057-2.707 3.994-3.519 5.476-3.824 5.354-1.103 5.703-1.545 7.376-3.67.488-.619 1.095-1.39 1.923-2.314 1.229-1.376 2.572-2.073 3.992-2.073.989 0 1.8.335 2.336.558 1.708.708 3.133 2.42 3.719 4.467.529 1.847.276 3.625-.71 5.006-3.237 4.533-7.886 6.93-13.443 6.93zm-7.222-4.943c.481.372 1.445.869 2.518 1.137 1.631.408 3.213.615 4.705.615 4.546 0 8.196-1.882 10.847-5.594.553-.774.387-1.757.239-2.274-.31-1.083-1.08-2.068-1.873-2.397-.43-.178-.787-.314-1.115-.314-.176 0-.712 0-1.614 1.009-.6225.7-1.2208 1.4211-1.794 2.162-2.084 2.646-3.039 3.544-9.239 4.821-1.513.31-2.289.626-2.674.835zm12.269-7.36c-.3809-.0006-.7491-.1374-1.0379-.3857-.2889-.2484-.4794-.5918-.5371-.9683-.0397-.2649-.0664-.5315-.08-.799-4.064-.076-7.985-1.82-10.962-4.926-3.764-3.927-5.477-9.368-4.699-14.927.845-6.037.529-11.366.359-14.229-.047-.796-.081-1.371-.079-1.769.003-.505.013-1.844 4.489-4.113 1.592-.807 4.784-2.215 8.271-2.576 5.777-.597 9.585 1.976 10.725 7.246 3.077 14.228.244 20.521-1.825 25.117-.385.856-.749 1.664-1.04 2.447l-.257.69c-1.093 2.931-2.038 5.463-1.748 7.354.0318.2071.0225.4185-.0273.622-.0499.2035-.1394.3952-.2634.5641-.1239.1689-.28.3118-.4592.4204s-.378.1808-.5851.2125zm-13.835-37.562.062 1.139c.176 2.974.504 8.508-.384 14.86-.641 4.585.759 9.06 3.843 12.276 2.437 2.542 5.644 3.945 8.94 3.945h.068c.369-1.555.982-3.197 1.642-4.966l.255-.686c.329-.884.714-1.74 1.122-2.646 1.991-4.424 4.47-9.931 1.615-23.132-.565-2.615-1.936-4.128-4.189-4.627-4.628-1.022-11.525 2.459-12.974 3.837zm9.63-.677c-.08.564 1.033 2.07 2.485 2.271 1.449.203 2.689-.975 2.768-1.539s-1.033-1.186-2.485-1.388c-1.451-.202-2.691.092-2.768.656zm2.818 2.826-.407-.028c-.9-.125-1.81-.692-2.433-1.518-.219-.29-.576-.852-.505-1.354.101-.736.999-1.177 2.4-1.177.313 0 .639.023.967.069.766.106 1.477.327 2.002.62.91.508.977 1.075.936 1.368-.112.813-1.405 2.02-2.96 2.02zm-2.289-2.732c.045.348.907 1.496 2.029 1.651l.261.018c1.036 0 1.81-.815 1.901-1.082-.096-.182-.762-.634-2.025-.81-.272-.039-.5463-.0587-.821-.059-.812 0-1.243.183-1.345.282zm43.605-1.245c.079.564-1.033 2.07-2.484 2.272-1.45.202-2.691-.975-2.771-1.539-.076-.564 1.036-1.187 2.486-1.388 1.45-.203 2.689.092 2.769.655zm-2.819 2.56c-1.396 0-2.601-1.086-2.7-1.791-.115-.846 1.278-1.489 2.712-1.688.316-.044.629-.066.93-.066 1.238 0 2.058.363 2.14.949.053.379-.238.964-.739 1.492-.331.347-1.026.948-1.973 1.079zm.943-3.013c-.276 0-.564.021-.856.061-1.441.201-2.301.779-2.259 1.089.048.341.968 1.332 2.173 1.332l.297-.021c.787-.109 1.378-.623 1.66-.919.443-.465.619-.903.598-1.052-.028-.198-.56-.49-1.613-.49zm3.965 32.843c-.2891.0002-.5728-.0783-.8207-.227-.248-.1486-.4508-.3619-.5868-.617s-.2001-.5424-.1854-.8311.1076-.568.2689-.8079c3.398-5.075 2.776-10.25 2.175-15.255-.257-2.132-.521-4.337-.453-6.453.07-2.177.347-3.973.614-5.71.317-2.058.617-4.002.493-6.31-.0113-.2092.0187-.4186.0883-.6162s.1777-.3795.3177-.5354.309-.2827.498-.3732.394-.1429.603-.1542.419.0187.616.0883c.198.0697.38.1775.536.3175.155.1399.282.3092.373.4981.09.189.143.3939.154.6031.142 2.638-.197 4.838-.525 6.967-.253 1.643-.515 3.342-.578 5.327-.061 1.874.178 3.864.431 5.97.64 5.322 1.365 11.354-2.691 17.411-.1461.2181-.3437.3969-.5754.5204-.2316.1234-.4901.1879-.7526.1876z" fill="#fff"/></svg>