<svg fill="none" height="512" viewBox="0 0 512 512" width="512" xmlns="http://www.w3.org/2000/svg" xmlns:xlink="http://www.w3.org/1999/xlink"><clipPath id="a"><path d="m0 0h512v512h-512z"/></clipPath><g clip-path="url(#a)"><path d="m404.476 97.5238h-28.762c-5.523 0-10 4.4772-10 10.0002v4.381c0 5.523 4.477 10 10 10h28.762c5.523 0 10-4.477 10-10v-4.381c0-5.523-4.477-10.0002-10-10.0002z" fill="#56b3b4"/><path d="m136.286 487.619h-126.286c-5.52285 0-10 4.477-10 10v4.381c0 5.523 4.47715 10 10 10h126.286c5.523 0 10-4.477 10-10v-4.381c0-5.523-4.477-10-10-10z" fill="#ea5e5e"/><path d="m380.095 292.571h-77.524c-5.522 0-10 4.478-10 10v4.381c0 5.523 4.478 10 10 10h77.524c5.523 0 10-4.477 10-10v-4.381c0-5.522-4.477-10-10-10z" fill="#bf85bf"/><path d="m258.19 292.571h-101.904c-5.523 0-10 4.478-10 10v4.381c0 5.523 4.477 10 10 10h101.904c5.523 0 10-4.477 10-10v-4.381c0-5.522-4.477-10-10-10z" fill="#ea5e5e"/><path d="m111.905 292.571h-101.905c-5.52285 0-10 4.478-10 10v4.381c0 5.523 4.47715 10 10 10h101.905c5.523 0 10-4.477 10-10v-4.381c0-5.522-4.477-10-10-10z" fill="#56b3b4"/><path d="m136.286 390.095h-126.286c-5.52285 0-10 4.477-10 10v4.381c0 5.523 4.47715 10 10 10h126.286c5.523 0 10-4.477 10-10v-4.381c0-5.523-4.477-10-10-10z" fill="#bf85bf"/><path d="m136.286 195.048h-126.286c-5.52285 0-10 4.477-10 10v4.381c0 5.522 4.47715 10 10 10h126.286c5.523 0 10-4.478 10-10v-4.381c0-5.523-4.477-10-10-10z" fill="#bf85bf"/><path d="m380.095 48.7619h-248.19c-5.523 0-10 4.4772-10 10v4.381c0 5.5228 4.477 10 10 10h248.19c5.523 0 10-4.4772 10-10v-4.381c0-5.5228-4.477-10-10-10z" fill="#f7ba3e"/><path d="m87.5238 48.7619h-77.5238c-5.52285 0-10 4.4772-10 10v4.381c0 5.5228 4.47715 10 10 10h77.5238c5.5229 0 10-4.4772 10-10v-4.381c0-5.5228-4.4771-10-10-10z" fill="#ea5e5e"/><path d="m136.286 438.857h-28.762c-5.523 0-10.0002 4.477-10.0002 10v4.381c0 5.523 4.4772 10 10.0002 10h28.762c5.523 0 10-4.477 10-10v-4.381c0-5.523-4.477-10-10-10z" fill="#f7ba3e"/><path d="m136.286 146.286h-28.762c-5.523 0-10.0002 4.477-10.0002 10v4.381c0 5.523 4.4772 10 10.0002 10h28.762c5.523 0 10-4.477 10-10v-4.381c0-5.523-4.477-10-10-10z" fill="#56b3b4"/><path d="m63.1429 438.857h-53.1429c-5.52285 0-10 4.477-10 10v4.381c0 5.523 4.47715 10 10 10h53.1429c5.5228 0 10-4.477 10-10v-4.381c0-5.523-4.4772-10-10-10z" fill="#56b3b4"/><path d="m63.1429 146.286h-53.1429c-5.52285 0-10 4.477-10 10v4.381c0 5.523 4.47715 10 10 10h53.1429c5.5228 0 10-4.477 10-10v-4.381c0-5.523-4.4772-10-10-10z" fill="#f7ba3e"/><path d="m355.714 438.857h-28.762c-5.522 0-10 4.477-10 10v4.381c0 5.523 4.478 10 10 10h28.762c5.523 0 10-4.477 10-10v-4.381c0-5.523-4.477-10-10-10z" fill="#d0d4d8" opacity=".5"/><path d="m282.571 438.857h-101.904c-5.523 0-10 4.477-10 10v4.381c0 5.523 4.477 10 10 10h101.904c5.523 0 10-4.477 10-10v-4.381c0-5.523-4.477-10-10-10z" fill="#d0d4d8" opacity=".5"/><path d="m502 438.857h-101.905c-5.523 0-10 4.477-10 10v4.381c0 5.523 4.477 10 10 10h101.905c5.523 0 10-4.477 10-10v-4.381c0-5.523-4.477-10-10-10z" fill="#d0d4d8" opacity=".5"/><path d="m404.476 243.81h-199.428c-5.523 0-10 4.477-10 10v4.38c0 5.523 4.477 10 10 10h199.428c5.523 0 10-4.477 10-10v-4.38c0-5.523-4.477-10-10-10z" fill="#56b3b4"/><path d="m160.667 243.81h-77.5241c-5.5229 0-10 4.477-10 10v4.38c0 5.523 4.4771 10 10 10h77.5241c5.523 0 10-4.477 10-10v-4.38c0-5.523-4.477-10-10-10z" fill="#f7ba3e"/><path d="m38.7619 243.81h-28.7619c-5.52285 0-10 4.477-10 10v4.38c0 5.523 4.47715 10 10 10h28.7619c5.5229 0 10-4.477 10-10v-4.38c0-5.523-4.4771-10-10-10z" fill="#ea5e5e"/><path d="m331.333 97.5238h-101.904c-5.523 0-10 4.4772-10 10.0002v4.381c0 5.523 4.477 10 10 10h101.904c5.523 0 10-4.477 10-10v-4.381c0-5.523-4.477-10.0002-10-10.0002z" fill="#bf85bf"/><path d="m185.048 97.5238h-175.048c-5.52285 0-10 4.4772-10 10.0002v4.381c0 5.523 4.47715 10 10 10h175.048c5.522 0 10-4.477 10-10v-4.381c0-5.523-4.478-10.0002-10-10.0002z" fill="#56b3b4"/><path d="m306.952 341.333h-223.8091c-5.5229 0-10 4.477-10 10v4.381c0 5.523 4.4771 10 10 10h223.8091c5.523 0 10-4.477 10-10v-4.381c0-5.523-4.477-10-10-10z" fill="#f7ba3e"/><path d="m38.7619 341.333h-28.7619c-5.52285 0-10 4.477-10 10v4.381c0 5.523 4.47715 10 10 10h28.7619c5.5229 0 10-4.477 10-10v-4.381c0-5.523-4.4771-10-10-10z" fill="#bf85bf"/><path d="m428.857 146.286h-126.286c-5.522 0-10 4.477-10 10v4.381c0 5.523 4.478 10 10 10h126.286c5.523 0 10-4.477 10-10v-4.381c0-5.523-4.477-10-10-10z" fill="#ea5e5e"/><path d="m428.857 195.048h-126.286c-5.522 0-10 4.477-10 10v4.381c0 5.522 4.478 10 10 10h126.286c5.523 0 10-4.478 10-10v-4.381c0-5.523-4.477-10-10-10z" fill="#f7ba3e"/><path d="m306.952 0h-296.952c-5.52285 0-10 4.47715-10 10v4.381c0 5.5228 4.47715 10 10 10h296.952c5.523 0 10-4.4772 10-10v-4.381c0-5.52285-4.477-10-10-10z" fill="#56b3b4"/><g fill="#d0d4d8"><path d="m502 0h-150.667c-5.523 0-10 4.47715-10 10v4.381c0 5.5228 4.477 10 10 10h150.667c5.523 0 10-4.4772 10-10v-4.381c0-5.52285-4.477-10-10-10z" opacity=".5"/><path d="m404.476 341.333h-53.143c-5.523 0-10 4.477-10 10v4.381c0 5.523 4.477 10 10 10h53.143c5.523 0 10-4.477 10-10v-4.381c0-5.523-4.477-10-10-10z" opacity=".5"/><path d="m502 341.333h-53.143c-5.523 0-10 4.477-10 10v4.381c0 5.523 4.477 10 10 10h53.143c5.523 0 10-4.477 10-10v-4.381c0-5.523-4.477-10-10-10z" opacity=".5"/><path d="m502 292.571h-77.524c-5.523 0-10 4.478-10 10v4.381c0 5.523 4.477 10 10 10h77.524c5.523 0 10-4.477 10-10v-4.381c0-5.522-4.477-10-10-10z" opacity=".5"/><path d="m502 48.7619h-77.524c-5.523 0-10 4.4772-10 10v4.381c0 5.5228 4.477 10 10 10h77.524c5.523 0 10-4.4772 10-10v-4.381c0-5.5228-4.477-10-10-10z" opacity=".5"/><path d="m502 243.81h-53.143c-5.523 0-10 4.477-10 10v4.38c0 5.523 4.477 10 10 10h53.143c5.523 0 10-4.477 10-10v-4.38c0-5.523-4.477-10-10-10z" opacity=".5"/><path d="m502 97.5238h-53.143c-5.523 0-10 4.4772-10 10.0002v4.381c0 5.523 4.477 10 10 10h53.143c5.523 0 10-4.477 10-10v-4.381c0-5.523-4.477-10.0002-10-10.0002z" opacity=".5"/><path d="m502 146.286h-28.762c-5.523 0-10 4.477-10 10v4.381c0 5.523 4.477 10 10 10h28.762c5.523 0 10-4.477 10-10v-4.381c0-5.523-4.477-10-10-10z" opacity=".5"/><path d="m502 195.048h-28.762c-5.523 0-10 4.477-10 10v4.381c0 5.522 4.477 10 10 10h28.762c5.523 0 10-4.478 10-10v-4.381c0-5.523-4.477-10-10-10z" opacity=".5"/><path d="m502 390.095h-223.81c-5.522 0-10 4.477-10 10v4.381c0 5.523 4.478 10 10 10h223.81c5.523 0 10-4.477 10-10v-4.381c0-5.523-4.477-10-10-10z" opacity=".5"/><path d="m233.81 390.095h-53.143c-5.523 0-10 4.477-10 10v4.381c0 5.523 4.477 10 10 10h53.143c5.522 0 10-4.477 10-10v-4.381c0-5.523-4.478-10-10-10z" opacity=".5"/><path d="m502 487.619h-126.286c-5.523 0-10 4.477-10 10v4.381c0 5.523 4.477 10 10 10h126.286c5.523 0 10-4.477 10-10v-4.381c0-5.523-4.477-10-10-10z" opacity=".5"/><path d="m331.333 487.619h-150.666c-5.523 0-10 4.477-10 10v4.381c0 5.523 4.477 10 10 10h150.666c5.523 0 10-4.477 10-10v-4.381c0-5.523-4.477-10-10-10z" opacity=".5"/><path d="m258.19 146.286h-77.523c-5.523 0-10 4.477-10 10v4.381c0 5.523 4.477 10 10 10h77.523c5.523 0 10-4.477 10-10v-4.381c0-5.523-4.477-10-10-10z" opacity=".5"/><path d="m258.19 195.048h-77.523c-5.523 0-10 4.477-10 10v4.381c0 5.522 4.477 10 10 10h77.523c5.523 0 10-4.478 10-10v-4.381c0-5.523-4.477-10-10-10z" opacity=".5"/></g></g></svg>