<svg enable-background="new 0 0 508 508" viewBox="0 0 508 508" xmlns="http://www.w3.org/2000/svg"><circle cx="254" cy="254" fill="#84dbff" r="254"/><path d="m286.8 72.8h-65.6c-10.4 0-18.4 8.4-18.4 18.4v65.6c0 10.4 8.4 18.4 18.4 18.4h65.6c10.4 0 18.4-8.4 18.4-18.4v-65.2c0-10.4-8-18.8-18.4-18.8z" fill="#fff"/><path d="m286.8 202.8h-65.6c-10.4 0-18.4 8.4-18.4 18.4v65.6c0 10.4 8.4 18.4 18.4 18.4h65.6c10.4 0 18.4-8.4 18.4-18.4v-65.6c0-10.4-8-18.4-18.4-18.4z" fill="#fff"/><path d="m286.8 332.4h-65.6c-10.4 0-18.4 8.4-18.4 18.4v65.6c0 10.4 8.4 18.4 18.4 18.4h65.6c10.4 0 18.4-8.4 18.4-18.4v-65.6c0-10-8-18.4-18.4-18.4z" fill="#fff"/><g fill="#324a5e"><path d="m368 258v-8c30.4 0 54.8-24.8 54.8-54.8v-12.4c0-30.4-24.8-54.8-54.8-54.8h-41.2v-7.6h41.2c34.4 0 62.4 28 62.4 62.4v12.4c.4 34.4-27.6 62.8-62.4 62.8z"/><path d="m370.4 231.2-43.6 22.8 43.6 22.8z"/><path d="m140 384.4c-34.4 0-62.4-28-62.4-62.4v-12.4c0-34.4 28-62.4 62.4-62.4h41.2v7.6h-41.2c-30.4 0-54.8 24.8-54.8 54.8v12.4c0 30.4 24.8 54.8 54.8 54.8z"/><path d="m137.6 357.6 43.6 22.8-43.6 22.8z"/><path d="m137.6 101.6 43.6 22.8-43.6 22.4z"/></g></svg>