<svg fill="none" height="737" viewBox="0 0 736 737" width="736" xmlns="http://www.w3.org/2000/svg" xmlns:xlink="http://www.w3.org/1999/xlink"><linearGradient id="a" gradientUnits="userSpaceOnUse" x1="368" x2="368" y1="0" y2="737"><stop offset=".00225706" stop-color="#2b5355"/><stop offset="1"/></linearGradient><path d="m0 368.5c0-203.241 164.759-368.5 368-368.5 203.241 0 368 165.259 368 368.5 0 203.241-164.759 368.5-368 368.5-203.241 0-368-165.259-368-368.5z" fill="url(#a)"/><path d="m234.76 455.898c-.282 9.453 3.179 18.997 10.385 26.213 13.868 13.887 36.352 13.887 50.22 0s13.868-36.402 0-50.289c-5.979-6.005-13.912-9.663-22.357-10.308-7.439-.576-15.198-2.153-20.473-7.436-4.082-4.087-4.082-10.713 0-14.799l30.275-30.317c6.934-6.944 6.934-18.201 0-25.145l-28.358-28.396c-5.741-5.749-11.416-4.675-11.461 3.456-.052 9.033-3.519 18.049-10.401 24.94-13.868 13.887-36.352 13.887-50.22 0-13.868-13.885-13.868-36.4 0-50.287 6.109-6.135 14.251-9.816 22.886-10.346 1.281-.08 2.628.082 3.975.3 7.262 1.173 7.369-5.966 2.167-11.175l-16.474-16.495c-6.934-6.944-18.175-6.944-25.109 0l-100.4394 100.576c-6.9341 6.944-6.9341 18.201 0 25.144l15.0179 15.034 72.8695 72.969c6.934 6.942 18.175 6.942 25.109-.001l27.57-27.607c5.575-5.582 14.612-5.582 20.186 0 3.602 3.607 4.784 8.869 4.632 13.969z" fill="#d9d9d9"/><path clip-rule="evenodd" d="m464.601 509.848c9.44.283 18.972-3.184 26.178-10.399 13.867-13.887 13.867-36.402 0-50.289-13.868-13.886-36.352-13.886-50.22 0-5.998 5.988-9.65 13.932-10.295 22.388-.575 7.449-2.151 15.219-7.425 20.502-1.961 1.962-4.619 3.064-7.391 3.064-2.771 0-5.429-1.102-7.39-3.064l-30.274-30.317c-6.934-6.944-18.177-6.944-25.111 0l-28.359 28.397c-5.741 5.749-4.667 11.431 3.451 11.477 9.021.051 18.026 3.522 24.908 10.415 13.868 13.885 13.868 36.4 0 50.287s-36.352 13.887-50.22 0c-6.126-6.117-9.802-14.27-10.331-22.917-.081-1.283.082-2.631.298-3.98 1.174-7.272-5.957-7.379-11.159-2.17l-16.473 16.496c-6.934 6.943-6.934 18.2 0 25.144l100.44 100.576c6.934 6.944 18.176 6.944 25.11-.001l15.015-15.038 72.868-72.968c6.934-6.943 6.934-18.201 0-25.144l-27.57-27.607c-5.574-5.581-5.574-14.632 0-20.214 3.603-3.607 8.857-4.791 13.95-4.638zm-194.028-282.459c-9.44-.282-18.971 3.184-26.177 10.399-13.868 13.887-13.868 36.402 0 50.288 13.868 13.887 36.352 13.887 50.22 0 5.998-5.988 9.65-13.931 10.295-22.387.574-7.449 2.15-15.218 7.425-20.501 4.082-4.087 10.699-4.087 14.78 0l30.275 30.317c6.934 6.943 18.177 6.943 25.111 0l28.358-28.398c5.741-5.749 4.668-11.431-3.451-11.476-9.021-.051-18.025-3.524-24.907-10.415-13.868-13.887-13.868-36.402 0-50.289 13.868-13.886 36.351-13.886 50.219 0 6.127 6.117 9.803 14.271 10.332 22.918.08 1.282-.082 2.632-.299 3.98-1.172 7.272 5.957 7.379 11.159 2.17l16.473-16.495c6.934-6.943 6.934-18.201.001-25.144l-100.44-100.5765c-6.935-6.9435-18.177-6.9435-25.111 0l-15.014 15.0383-72.869 72.9682c-6.933 6.944-6.933 18.2.001 25.144l27.569 27.607c5.574 5.582 5.574 14.632 0 20.213-3.602 3.608-8.856 4.791-13.95 4.639z" fill="#2ccbd3" fill-rule="evenodd"/><path d="m500.414 281.34c.283-9.454-3.179-18.999-10.384-26.213-13.868-13.887-36.352-13.887-50.22 0-13.868 13.886-13.868 36.401 0 50.287 5.979 6.006 13.912 9.664 22.357 10.309 7.439.576 15.197 2.154 20.473 7.437 4.082 4.086 4.082 10.712 0 14.799l-30.276 30.316c-6.934 6.943-6.934 18.201 0 25.144l28.359 28.398c5.741 5.748 11.415 4.673 11.461-3.456.051-9.033 3.519-18.05 10.401-24.942 13.868-13.887 36.352-13.887 50.22 0 13.867 13.887 13.867 36.402 0 50.289-6.109 6.135-14.252 9.815-22.887 10.345-1.28.08-2.627-.082-3.974-.299-7.263-1.175-7.369 5.966-2.167 11.175l16.473 16.495c6.934 6.943 18.176 6.943 25.11 0l100.44-100.576c6.934-6.944 6.934-18.201 0-25.145l-15.018-15.035-72.87-72.967c-6.934-6.944-18.176-6.944-25.109 0l-27.57 27.608c-5.575 5.581-14.612 5.581-20.186 0-3.603-3.609-4.784-8.87-4.633-13.969z" fill="#e1e4e5"/></svg>