<svg fill="none" height="100" viewBox="0 0 100 100" width="100" xmlns="http://www.w3.org/2000/svg"><rect fill="#933" height="100" rx="50" width="100"/><g fill="#fff"><path d="m27.0588 80c2.9412-56.4706 36.7647-65 53.5295-48.2353l-.8824 2.0588c-26.7647-14.4117-35 26.1765-23.2353 46.1765z"/><path d="m72.9412 32.0588v1.7647l2.9412.2941v-1.4705zm.2941-8.5294v1.7647l3.2353 2.0588v-1.4705zm-9.7059 10 2.6471-.8823.8823 2.647-2.3529.8824zm-5.2941-13.5294h4.1176l.8824 2.9412h-3.8235zm.5882 17.3529 2.0589 3.2353-1.4706 2.0589-2.353-3.2353zm-10-15.5882 2.353 3.5294-3.2353 2.0588-2.6471-3.5294zm5.2941 24.7059-.8823 3.2353 3.2353 2.3529.5882-2.9412zm-17.9411-15.5882 3.8235 3.2352-2.6471 3.8236-3.8235-2.9412zm16.1764 26.1764v3.5294l4.4118 1.4706-.2941-3.2353zm-25.5882-10.8823 4.7059 2.0588-1.4706 4.4118-5-1.7647zm27.3529 24.1176 1.1765 3.8235 5.2941.5883-1.1764-3.5294zm-32.9411-5.5882 5.2941.8823-.5882 5.5883-5.8824-.5883z"/></g></svg>