<svg fill="none" height="512" viewBox="0 0 512 512" width="512" xmlns="http://www.w3.org/2000/svg"><path d="m156.132 302.175c25.636 0 46.417-20.782 46.417-46.417 0-25.636-20.781-46.418-46.417-46.418s-46.418 20.782-46.418 46.418c0 25.635 20.782 46.417 46.418 46.417zm-109.7144 92.835c25.6357 0 46.4176-20.781 46.4176-46.417s-20.7819-46.418-46.4176-46.418-46.4176 20.782-46.4176 46.418 20.7819 46.417 46.4176 46.417zm419.1644 0c25.636 0 46.418-20.781 46.418-46.417s-20.782-46.418-46.418-46.418c-25.635 0-46.417 20.782-46.417 46.418s20.782 46.417 46.417 46.417z" fill="#000"/><path d="m313.131 257.714c-1.484-15.508-2.24-28.416-14.12-37.488-15.046-11.489-32.089-4.034-53.082-11.611-20.628-4.991-35.929-23.306-35.929-45.136 0-25.67 21.156-46.479 47.253-46.479 19.328 0 35.946 11.415 43.266 27.765 11.203 21.279 3.922 42.935 17.997 53.843 16.667 12.916 39.136 3.458 64.208 15.695 8.056 3.702 14.875 9.574 19.68 16.851s7.596 15.959 7.596 25.283c0 21.83-15.301 40.145-35.929 45.135-20.993 7.578-38.036.123-53.082 11.612-16.919 12.919-7.861 34.533-21.65 57.365-7.827 15.034-23.735 25.324-42.086 25.324-26.097 0-47.253-20.809-47.253-46.479 0-18.647 11.164-34.729 27.276-42.133 25.072-12.237 47.541-2.779 64.208-15.695 9.614-7.451 11.647-18.945 11.647-33.852z" fill="#d0021b"/></svg>