<svg fill="none" height="302" viewBox="0 0 302 302" width="302" xmlns="http://www.w3.org/2000/svg"><path d="m202.6 210.2-178.6-.2v16.5l189.9.2zm71.2-52.7.1-88h-17.8l-.1 87.2c10.1-8.2 15.3-3.7 17.8.8z" fill="#0baf7c"/><path d="m299.9 172.3v-2.1c0-7.7-6.2-13.9-13.9-13.9-2.5 0-4.8.7-6.8 1.8-.7-1.8-1.8-3.5-3.2-4.9-2.7-2.6-6.2-4.1-9.9-4.1-2.1 0-4.2.5-6.1 1.4l.1-98.8001-257.7999-.3-.2 163.9001 197.8999.2c2 3.6 4.3 7.4 5.9 9.2l25.8 25.9h47.2l1.2-1.5c.3-.4 8.5-10.6 14.6-23.3 3.4-7.1 5.2-15.1 5.2-23.1zm-289.7999 35 .1-147.9001 241.7999.2-.1 91.0001c-1.9-1-4.1-1.5-6.4-1.5-5.9 0-10.9 3.8-12.9 9-2-1.1-4.2-1.7-6.6-1.7-3.7 0-7.1 1.5-9.7 4.1s-4 6.1-4 9.8v7.2c-1.9-1.1-4.2-1.7-6.6-1.7-2.1 0-4 .8-5.5 2.4-4.3 4.5-4.3 14.3-3.9 25 .1 1.5.1 2.8.1 3.8 0 .2 0 .4.1.6zm277.3999 15c-4.4 9.1-10 17.1-12.4 20.2h-40l-23.1-23.2c-2.9-3.4-6.6-11-7.5-13.2 0-1-.1-2.1-.1-3.4-.4-11.1.1-17.5 1.6-19 1.5 0 2.6.5 3.5 1.4 2.2 2.3 2.8 6.8 2.9 9.2v2.2h8v-26.4c0-1.6.6-3.1 1.7-4.2s2.5-1.7 4-1.7c3.2 0 5.7 2.7 5.7 5.9v15.9h8v-23.1c0-3.3 2.6-5.9 5.9-5.9 1.6 0 3.1.6 4.2 1.7s1.7 2.6 1.8 4.2l.1 15.9h8.2v-15.9c0-1.6.6-3 1.8-4.2 1.2-1.1 2.7-1.8 4.3-1.8s3.2.6 4.3 1.8c1.1 1.1 1.8 2.6 1.8 4.2v23.1h8v-16.3c.3-3 2.8-5.4 5.9-5.4 3.3 0 5.9 2.7 5.9 5.9v32.5c-.1 6.8-1.7 13.6-4.5 19.6z" fill="#0baf7c"/><path d="m287.5 222.3c-4.4 9.1-10 17.1-12.4 20.2h-40l-23.1-23.2c-2.9-3.4-6.6-11-7.5-13.2 0-1-.1-2.1-.1-3.4-.4-11.1.1-17.5 1.6-19 1.5 0 2.6.5 3.5 1.4 2.2 2.3 2.8 6.8 2.9 9.2v2.2h8v-26.4c0-1.6.6-3.1 1.7-4.2s2.5-1.7 4-1.7c3.2 0 5.7 2.7 5.7 5.9v15.9h8v-23.1c0-3.3 2.6-5.9 5.9-5.9 1.6 0 3.1.6 4.2 1.7s1.7 2.6 1.8 4.2l.1 15.9h8.2v-15.9c0-1.6.6-3 1.8-4.2 1.2-1.1 2.7-1.8 4.3-1.8s3.2.6 4.3 1.8c1.1 1.1 1.8 2.6 1.8 4.2v23.1h8v-16.3c.3-3 2.8-5.4 5.9-5.4 3.3 0 5.9 2.7 5.9 5.9v32.5c-.1 6.8-1.7 13.6-4.5 19.6z" fill="#fff"/><path d="m10.1001 207.3.1-147.9001 241.7999.2-.1 91.0001c-1.9-1-4.1-1.5-6.4-1.5-5.9 0-10.9 3.8-12.9 9-2-1.1-4.2-1.7-6.6-1.7-3.7 0-7.1 1.5-9.7 4.1s-4 6.1-4 9.8v7.2c-1.9-1.1-4.2-1.7-6.6-1.7-2.1 0-4 .8-5.5 2.4-4.3 4.5-4.3 14.3-3.9 25 .1 1.5.1 2.8.1 3.8 0 .2 0 .4.1.6z" fill="#fff"/><g fill="#0baf7c"><path d="m111.4 130.1c0 11.4 9.7 20.7 21.3 19.8 10.4-.8 18.3-9.7 18.3-20.2v-1.3h-39.7z"/><path d="m94.881 124.569c2.8536-2.848 2.8581-7.47.0101-10.323-2.8481-2.854-7.4702-2.859-10.3238-.01-2.8536 2.848-2.8581 7.47-.0101 10.323 2.8481 2.854 7.4702 2.858 10.3238.01z"/><path d="m231.528 195.17 7.886-1.342 5.266 30.954-7.887 1.342zm35.691 29.448 5.294-30.951 7.885 1.348-5.294 30.951zm-15.319-34.218h8v32h-8z"/><path d="m177.425 124.588c2.854-2.848 2.858-7.47.01-10.323-2.848-2.854-7.47-2.858-10.323-.01-2.854 2.848-2.859 7.47-.011 10.323 2.848 2.854 7.471 2.858 10.324.01z"/></g></svg>