<svg enable-background="new 0 0 20 20" viewBox="0 0 20 20" xmlns="http://www.w3.org/2000/svg"><path d="m0 0h20v20h-20z"/><g fill="#61dafb"><circle cx="10" cy="10" r="2"/><path d="m18.5 10c0-1.2-1.4-2.2-3.6-2.8.5-2.2.4-3.9-.7-4.5-.9-.5-2.1-.1-3.5 1-.2.2-.5.4-.7.7-.2-.3-.5-.6-.7-.8-1.4-1.1-2.7-1.5-3.5-1-.9.5-1.2 1.8-.9 3.6.1.3.1.6.2 1-2.2.6-3.6 1.6-3.6 2.8s1.4 2.2 3.6 2.8c-.5 2.2-.4 3.9.7 4.5.2.1.5.2.8.2 1 0 2.2-.7 3.4-1.9 1.2 1.2 2.5 1.9 3.4 1.9.3 0 .6-.1.8-.2 1-.6 1.2-2.3.7-4.5 2.2-.6 3.6-1.6 3.6-2.8zm-7.3-5.8c.9-.7 1.6-1.1 2.2-1.1.2 0 .4 0 .5.1.7.4.8 1.8.3 3.7-.7-.2-1.5-.3-2.3-.4-.4-.5-.9-1.1-1.4-1.7.2-.2.5-.4.7-.6zm1.2 7.2c-.3.5-.5.9-.8 1.3-.5 0-1 .1-1.5.1s-1.1 0-1.5-.1c-.3-.4-.6-.8-.8-1.3-.3-.5-.5-.9-.7-1.4.2-.4.5-.9.7-1.4.3-.5.5-.9.8-1.3.5 0 1-.1 1.5-.1s1.1 0 1.6.1c.3.4.6.9.8 1.3.3.5.5.9.7 1.4-.3.5-.6.9-.8 1.4zm1.1-.5c.2.5.4 1 .5 1.5-.5.1-1 .2-1.5.3.2-.3.3-.6.5-.8.2-.4.3-.7.5-1zm-3.5 3.7c-.3-.4-.7-.8-1-1.2h1 1c-.3.5-.7.9-1 1.2zm-2.5-2c-.5-.1-1-.2-1.5-.3.1-.5.3-.9.5-1.5.2.3.3.6.5.9s.3.6.5.9zm-1-3.5c-.2-.5-.4-.9-.5-1.4.5-.1 1-.2 1.5-.3-.2.3-.3.6-.5.9s-.3.5-.5.8zm3.5-3.7c.3.4.7.8 1 1.2-.3 0-.7 0-1 0s-.7 0-1 0c.3-.5.7-.9 1-1.2zm3 2.9c-.2-.3-.3-.6-.5-.8.5 0 1 .1 1.5.2-.1.5-.3.9-.5 1.5-.2-.4-.3-.6-.5-.9zm-7.4-2.2c-.2-1.4 0-2.5.5-2.8.1-.1.3-.1.5-.1.6 0 1.3.4 2.2 1.1.2.1.5.3.7.5-.5.6-1 1.2-1.5 1.8-.8.1-1.5.2-2.2.4-.1-.3-.2-.6-.2-.9zm-3.4 3.9c0-.8 1.1-1.6 3-2.1.3.7.6 1.4.9 2.1-.3.7-.6 1.5-.8 2.1-1.9-.5-3.1-1.3-3.1-2.1zm3.9 6.7c-.7-.4-.8-1.8-.3-3.7.7.2 1.5.3 2.3.4.5.7 1 1.3 1.4 1.8-1.4 1.3-2.7 1.9-3.4 1.5zm7.8 0c-.7.4-2-.2-3.4-1.6.5-.5 1-1.1 1.4-1.8.8-.1 1.6-.2 2.3-.4.5 2 .4 3.5-.3 3.8zm.8-4.6c-.2-.7-.5-1.4-.8-2.1.3-.7.6-1.5.8-2.1 1.9.5 3 1.4 3 2.1.1.8-1.1 1.6-3 2.1z"/></g></svg>