<svg fill="none" height="100" viewBox="0 0 100 100" width="100" xmlns="http://www.w3.org/2000/svg" xmlns:xlink="http://www.w3.org/1999/xlink"><clipPath id="a"><path d="m0 0h100v100h-100z"/></clipPath><g clip-path="url(#a)"><path d="m50.3067 58.8163c4.869 0 8.8162-3.9472 8.8162-8.8162 0-4.8691-3.9472-8.8163-8.8162-8.8163-4.8691 0-8.8163 3.9472-8.8163 8.8163 0 4.869 3.9472 8.8162 8.8163 8.8162z" fill="#61dafb"/><g stroke="#61dafb" stroke-width="5"><path d="m50.3066 68.0626c26.1267 0 47.3066-8.0869 47.3066-18.0626 0-9.9756-21.1799-18.0625-47.3066-18.0625s-47.3066 8.0869-47.3066 18.0625c0 9.9757 21.1799 18.0626 47.3066 18.0626z"/><path d="m34.6639 59.0313c13.0634 22.6264 30.6568 36.9253 39.2959 31.9374 8.6392-4.9878 5.0527-27.3736-8.0107-50-13.0633-22.6264-30.6567-36.92527-39.2959-31.93744-8.6391 4.98784-5.0526 27.37364 8.0107 50.00004z"/><path d="m34.664 40.9687c-13.0633 22.6264-16.6499 45.0122-8.0107 50s26.2326-9.3111 39.2959-31.9375c13.0634-22.6264 16.6499-45.0121 8.0107-49.99996-8.6391-4.98783-26.2325 9.31106-39.2959 31.93746z"/></g></g></svg>