<svg viewBox="0 0 150 150" xmlns="http://www.w3.org/2000/svg"><g fill="none" fill-rule="evenodd"><rect fill="#ec5990" height="150" rx="20" width="150"/><g fill="#fff"><path d="m98.56 38.32h-15.42a8.54 8.54 0 0 0 -16.27 0h-15.43a11 11 0 0 0 -11 11v57.31a11 11 0 0 0 11 11h47.12a11 11 0 0 0 11-11v-57.31a11 11 0 0 0 -11-11zm-30.92 2a1 1 0 0 0 1-.79 6.54 6.54 0 0 1 12.78 0 1 1 0 0 0 1 .79h5.38v6.55a3 3 0 0 1 -3 3h-19.55a3 3 0 0 1 -3-3v-6.55zm39.92 66.31a9 9 0 0 1 -9 9h-47.12a9 9 0 0 1 -9-9v-57.31a9 9 0 0 1 9-9h8.81v6.55a5 5 0 0 0 5 5h19.5a5 5 0 0 0 5-5v-6.55h8.81a9 9 0 0 1 9 9z"/><path d="m96.6 71h-17.6a1 1 0 0 0 0 2h17.6a1 1 0 0 0 0-2zm-26 0h-17.6a1 1 0 0 0 0 2h17.6a1 1 0 0 0 0-2zm26.05 23h-17.65a1 1 0 0 0 0 2h17.65a1 1 0 0 0 0-2zm-26 0h-17.65a1 1 0 0 0 0 2h17.65a1 1 0 0 0 0-2z"/></g></g></svg>