<svg fill="none" height="97" viewBox="0 0 97 97" width="97" xmlns="http://www.w3.org/2000/svg"><circle cx="48.5" cy="48.5" fill="#22b5bf" r="48.5"/><path d="m34.68 82.5v-64.8h14.64c4.0533 0 7.2267.6667 9.52 2 2.3467 1.28 4.0267 3.1733 5.04 5.68 1.0133 2.4533 1.52 5.3867 1.52 8.8 0 2.4-.2667 4.6667-.8 6.8s-1.44 3.9467-2.72 5.44-3.0933 2.48-5.44 2.96l9.92 33.12h-5.92l-9.52-31.84h-10.16v31.84zm6.08-36.32h8.24c2.72 0 4.8267-.4533 6.32-1.36s2.56-2.24 3.2-4 .96-3.9733.96-6.64c0-4-.6933-6.9867-2.08-8.96s-4.1333-2.96-8.24-2.96h-8.4z" fill="#fff"/></svg>