<svg fill="none" height="138" viewBox="0 0 138 138" width="138" xmlns="http://www.w3.org/2000/svg"><path d="m67.8955 137.542v-30.229l43.1355-19.416z" fill="#f26d5b"/><path d="m68.5341 135.333c.349 0 .581.291.581.639s-.291.639-.581.639c-.349 0-.581-.291-.581-.639s.232-.639.581-.639z" fill="#ed2324"/><path d="m68.9996 0c29.88 0 54.0644 24.183 54.0644 53.947 0 29.822-24.1834 53.947-54.0644 53.947s-54.0641-24.183-54.0641-53.947c.001-29.764 24.1841-53.947 54.0641-53.947z" fill="#f26d5b"/><path d="m36.2126 62.3771h7.964c.9242.0029 1.8097.3713 2.4632 1.0248s1.0219 1.539 1.0248 2.4632v7.906c-.0029.9241-.3713 1.8097-1.0248 2.4632s-1.539 1.0219-2.4632 1.0248h-7.964c-.9242-.0029-1.8097-.3713-2.4632-1.0248s-1.0219-1.5391-1.0248-2.4632v-7.906c.0026-.9243.371-1.8099 1.0245-2.4635.6536-.6535 1.5393-1.0219 2.4635-1.0245zm18.428-17.44h7.906c.9242.0029 1.8097.3713 2.4632 1.0248s1.0219 1.539 1.0248 2.4632v25.346c-.0029.9241-.3713 1.8097-1.0248 2.4632s-1.539 1.0219-2.4632 1.0248h-7.906c-.9242-.0029-1.8097-.3713-2.4632-1.0248s-1.0219-1.5391-1.0248-2.4632v-25.346c.0027-.9243.371-1.8099 1.0245-2.4635.6536-.6535 1.5392-1.0219 2.4635-1.0245zm18.37 9.592h7.964c.9242.0029 1.8097.3713 2.4632 1.0248s1.0219 1.539 1.0248 2.4632v15.754c-.0029.9241-.3713 1.8097-1.0248 2.4632s-1.539 1.0219-2.4632 1.0248h-7.964c-.9242-.0029-1.8097-.3713-2.4632-1.0248s-1.0219-1.5391-1.0248-2.4632v-15.754c.0027-.9243.371-1.81 1.0245-2.4635.6536-.6536 1.5393-1.0219 2.4635-1.0245zm18.835-22.73h7.906c.9244.0029 1.8094.3713 2.4634 1.0248.653.6535 1.022 1.539 1.025 2.4632v38.484c-.003.9241-.372 1.8097-1.025 2.4632-.654.6535-1.539 1.0219-2.4634 1.0248h-7.906c-.9242-.0029-1.8097-.3713-2.4632-1.0248s-1.0219-1.5391-1.0248-2.4632v-38.484c.0027-.9243.371-1.8099 1.0245-2.4635.6536-.6535 1.5392-1.0219 2.4635-1.0245z" fill="#fff"/></svg>