<svg fill="none" height="128" viewBox="0 0 128 128" width="128" xmlns="http://www.w3.org/2000/svg"><path d="m121.8 93.1c-6.7 3.5-41.4002 17.7-48.8002 21.6s-11.5 3.8-17.3 1-42.7-17.6-49.4-20.8c-3.3-1.6-5-2.9-5-4.2v-12.7s48-10.5 55.8-13.2c7.8-2.8 10.4-2.9 17-.5s46.1002 9.5 52.6002 11.9v12.5c0 1.3-1.5 2.7-4.9 4.4z" fill="#a41e11"/><path d="m121.8 80.5001c-6.7 3.5-41.3999 17.6999-48.7999 21.5999s-11.5 3.8-17.3 1-42.7-17.7-49.39997-20.9c-6.600001-3.2-6.800001-5.3999-.3-7.8999 6.49997-2.6 43.19997-17.0001 50.99997-19.7001 7.8-2.7999 10.4-2.9 17-.5 6.6 2.4001 41.0999 16.1001 47.5999 18.5 6.7 2.4 6.9 4.4001.2 7.9001z" fill="#d82c20"/><path d="m121.8 72.5001c-6.7 3.5-41.4002 17.6999-48.8002 21.5999-7.4 3.8-11.5 3.8-17.3 1s-42.7-17.7-49.4-20.9c-3.3-1.6-5-2.8999-5-4.1999v-12.7s48-10.5001 55.8-13.2001c7.8-2.7999 10.4-2.9 17-.5 6.6 2.4001 46.1002 9.5001 52.6002 11.9001v12.5c0 1.3-1.5 2.7-4.9 4.5z" fill="#a41e11"/><path d="m121.8 59.8c-6.7 3.5-41.4001 17.7-48.8001 21.6-7.4 3.8-11.5 3.8-17.3 1s-42.7-17.7-49.40003-20.9c-6.700003-3.2-6.800004-5.4-.3-7.9 6.50003-2.6 43.20003-17 51.00003-19.7 7.8-2.8 10.4-2.9 17-.5s41.1001 16.1 47.6001 18.5c6.7 2.4 6.9 4.4.2 7.9z" fill="#d82c20"/><path d="m121.8 51c-6.7 3.5-41.3998 17.7-48.7998 21.6-7.4 3.8-11.5 3.8-17.3 1-5.8-2.7-42.7-17.6-49.4-20.8-3.3-1.6-5.1-2.9-5.1-4.2v-12.7s48-10.5 55.8-13.2c7.8-2.8 10.4-2.9 17-.5s46.0998 9.5 52.5998 11.9v12.5c.1 1.3-1.4 2.6-4.8 4.4z" fill="#a41e11"/><path d="m121.8 38.3c-6.7 3.5-41.4001 17.7-48.8001 21.6-7.4 3.8-11.5 3.8-17.3 1s-42.7-17.6001-49.40003-20.8c-6.700003-3.2-6.800004-5.4-.3-7.9 6.50003-2.6 43.20003-17 51.00003-19.7 7.8-2.80005 10.4-2.90005 17-.5 6.6 2.4 41.1001 16.1 47.6001 18.5 6.7 2.4 6.9 4.4.2 7.8z" fill="#d82c20"/><path d="m80.4002 26.1-10.8 1.2-2.5 5.8-3.9-6.5-12.5-1.1 9.3-3.4-2.8-5.2 8.8 3.4 8.2-2.7-2.2 5.4zm-13.9 28.4-20.3-8.4 29.1-4.4z" fill="#fff"/><path d="m38.3999 41.4c8.5604 0 15.5-2.6863 15.5-6s-6.9396-6-15.5-6-15.5 2.6863-15.5 6 6.9396 6 15.5 6z" fill="#fff"/><path d="m93.2998 27.7 17.2002 6.8-17.2002 6.7999z" fill="#7a0c00"/><path d="m74.2998 35.2999 19-7.5999v13.5999l-1.9.8z" fill="#ad2115"/></svg>