<svg fill="none" height="128" viewBox="0 0 128 128" width="128" xmlns="http://www.w3.org/2000/svg"><path d="m88.6902 88.11c-9 18.4-24.76 30.78-45.61 34.85-3.1969.783-6.4787 1.166-9.77 1.14-12 0-23-5-28.34002-13.19-7.17-10.91-9.61-34.04 14.03002-51.15.48 2.61 1.46 6.19 2.11 8.31-4.6407 3.4477-8.4393 7.9027-11.11 13.03-4.40002 8.64-3.91002 17.27 1.3 25.25 3.6 5.38 9.3 8.65 16.63 9.65 9.1553 1.159 18.4433-.59 26.55-5 12.71-6.68 21.18-14.66 26.72-25.57-1.5665-1.6189-2.4937-3.7503-2.61-6-.0838-2.4141.7937-4.7629 2.4398-6.5308 1.646-1.7679 3.9262-2.8106 6.3402-2.8992h.34c2.3479-.0118 4.6106.8795 6.3197 2.4895 1.7091 1.6099 2.734 3.8153 2.8624 6.1598.1285 2.3444-.6492 4.6486-2.1722 6.4356-1.523 1.7871-3.6747 2.9202-6.0099 3.1651zm28.6698-20.2c12.21 13.84 12.54 30.13 7.82 39.58-4.4 8.63-16 17.27-31.5998 17.27-7.2824-.149-14.4463-1.871-21-5.05 2.29-1.63 5.54-4.24 7.33-5.87 5.0539 2.189 10.4927 3.352 16 3.42 10.0998 0 17.7498-4.72 22.3098-13.35 2.93-5.7 3.1-12.38.33-19.22-3.399-8.6062-9.447-15.9082-17.27-20.85-10.2631-6.9186-22.3623-10.6068-34.7398-10.59h-2.93c-.6833 1.5783-1.7947 2.9337-3.2086 3.9128s-3.0737 1.5428-4.7914 1.6272h-.31c-2.3759-.0292-4.6467-.9835-6.3303-2.6601s-2.6472-3.9435-2.6863-6.3192c-.039-2.3757.8496-4.673 2.4772-6.404 1.6275-1.7311 3.8658-2.7594 6.2394-2.8667h.33c1.654.0012 3.2758.4583 4.6871 1.3209 1.4113.8627 2.5575 2.0976 3.3129 3.5691h2.61c20.8 0 39.0598 7.98 51.4198 22.48zm-82.7498 23c-.1713-1.6606.231-3.3298 1.14-4.73-9.12-15.8-14-35.83-6.51-56.68 5.37-15.67 18.89-26.26001 33.55-26.26001 15.64 0 31.93 13.69001 33.88 40.07001-2.44-.81-6-2-8.14-2.44-.53-8.63-7.82-30.13-25.09-29.81-6.19.17-15.31 3.1-20 9.12-5.8014 7.1862-9.1763 16.026-9.64 25.25-1.0993 12.6477 1.8681 25.3161 8.47 36.16.3644-.1332.7529-.1877 1.14-.16h.32c2.4188-.0438 4.7558.8751 6.4971 2.5545s2.7441 3.9817 2.7879 6.4005c.0437 2.4188-.8751 4.7559-2.5545 6.4971-1.6794 1.7413-3.9817 2.7441-6.4005 2.7879h-.33c-2.3597-.0084-4.6252-.9271-6.3242-2.5646-1.699-1.6376-2.7005-3.8676-2.7958-6.2254z" fill="#764abc"/></svg>