<svg fill="none" height="129" viewBox="0 0 128 129" width="128" xmlns="http://www.w3.org/2000/svg"><path d="m47.3049 126.883c-16.121-4.227-28.703-13.656-38.06303-28.528-3.441-5.464-3.49999-7.394-.33999-11.25 2.38302-2.91 2.52002-2.94 7.99302-1.675 4.394 1.011 6.003 1.992 7.648 4.652 3.195 5.168 12.902 13.867 18.746 16.797 18.047 9.047 40.035 5.32 54.195-9.184 3.0821-3.152 6.2271-7.238 6.9891-9.082.761-1.84 1.734-3.347 2.16-3.347s1.668 1.976 2.758 4.39l1.976 4.39 5.215-.616c6.09-.723 6.094-.551.106 8.472-7.723 11.633-22.5201 21.778-37.1801 25.489-8.606 2.18-22.809 1.953-32.203-.508z" fill="#6de1fa"/><path d="m48.023 81.945c-8.273-10.043-16.023-20.187-17.226-22.55l-2.192-4.29 8.875-8.917 8.872-8.922h34.23l8.93 8.98 8.933 8.98-2.406 4.087c-2.902 4.925-31.195 40.757-32.242 40.835-.406.028-7.504-8.164-15.774-18.203z" fill="#fe405f"/><path d="m111.156 85.7931c-2.094-4.3131-2.23-5.422-1.164-9.645.66-2.625.996-9.027.75-14.23-.379-7.887-1.008-10.582-3.8-16.254-6.52-13.246-17.3102-22.418-30.5902-26.016l-6.907-1.867 2.782-3.648c2.742-3.594 2.753-3.703.964-7.45705-1-2.094-1.558-4.063-1.242-4.38 1.153-1.154 13.071 2.204 20.731 5.846 10.9582 5.21005 22.8562 17.03005 28.2432 28.05805 7.086 14.512 8.746 29.403 4.941 44.278-1.172 4.593-2.254 8.449-2.398 8.566-.145.121-2.442.531-5.106.918l-4.836.703z" fill="#97f0ff"/><path d="m3.32809 86.137c-4.120996-10.84-4.194996-29.52-.16-41.403 8.25001-24.3 30.60501-41.78497 55.50001-43.40997l8-.523005 2.445 4.394005 2.45 4.395-2.934 4.08197c-2.73 3.797-3.473 4.164-10.766 5.297-10.836 1.687-18.75 5.695-26.472 13.422-13.059 13.058-16.801 28.855-11.485 48.5.63 2.332.442 2.496-2.14 1.867l-5.286-1.285c-1.949-.473-3.03501.222-5.28501 3.386l-2.835 3.989z" fill="#40daf4"/></svg>