<svg width="100" height="100" viewBox="0 0 100 100" fill="none" xmlns="http://www.w3.org/2000/svg">
<rect width="100" height="100" rx="50" fill="white"/>
<path d="M64.6281 50.2869L49.6094 77.3204L59.7005 50.6714L59.8541 50.2635L64.6281 50.2869Z" fill="#FF496C"/>
<path d="M52.9032 52.0782L52.8727 52.3234L49.6094 77.3204L46.344 52.3234L46.3125 52.0782H49.6094" fill="#FF496C"/>
<path d="M39.5152 50.6714L49.6094 77.3204L34.5886 50.2869L39.3616 50.2635L39.5152 50.6714Z" fill="#FF496C"/>
<path d="M34.3547 50.4038L34.4686 50.6378L26.1587 49.2218L23.4344 42.5812L31.1351 43.9768L31.1981 43.987L34.3516 50.4038" fill="#FF496C"/>
<path d="M42.9219 44.1325L46.169 52.3468L39.6037 50.6378" fill="#FF496C"/>
<path d="M56.2947 44.1325L59.612 50.6378L53.0467 52.3468" fill="#FF496C"/>
<path d="M75.7813 42.5812L73.0571 49.2218L64.7471 50.6378L64.8621 50.4038H64.8641L68.0186 43.987L68.0807 43.9768" fill="#FF496C"/>
<path d="M61.1511 28.125L67.9942 43.5028L56.487 43.5181V43.516L58.0129 28.0965H61.1511" fill="#FF496C"/>
<path d="M42.7287 43.516L49.6094 28.0965L56.487 43.516V43.5181H56.2947L49.6094 43.5282L42.9219 43.5181H42.7287" fill="#FF496C"/>
<path d="M42.7287 43.516V43.5181L31.2215 43.5028L38.0656 28.125V28.0965H41.2028" fill="#FF496C"/>
<path d="M64.7471 50.6378L73.0571 49.2218L49.6094 77.3204L64.6281 50.2858L64.8621 50.4038" fill="#FD405F"/>
<path d="M59.7005 50.6714L49.6094 77.3204L52.8727 52.3234L53.0467 52.3468L59.612 50.6378" fill="#FD405F"/>
<path d="M46.344 52.3234L49.6094 77.3204L39.5152 50.6714L39.6037 50.6378L46.169 52.3468" fill="#FD405F"/>
<path d="M34.5886 50.2869L49.6094 77.3204L26.1587 49.2218L34.4686 50.6378L34.3547 50.4038" fill="#FD405F"/>
<path d="M42.7287 43.5181H42.9219V44.1325L39.6037 50.6378L39.5152 50.6714L39.3616 50.2635L34.5886 50.2869L34.3546 50.4038H34.3516L31.1981 43.987L31.135 43.9768L31.2215 43.5028" fill="#FD405F"/>
<path d="M52.9032 52.0782H46.3125L46.344 52.3234L46.169 52.3458L42.922 44.1325V43.5181L49.6094 43.5282L56.2948 43.5181V44.1325L53.0467 52.3458L52.8727 52.3234" fill="#FD405F"/>
<path d="M67.9952 43.5028L68.0807 43.9768L68.0186 43.987L64.8641 50.4038H64.8621L64.6281 50.2869L59.8541 50.2635L59.7005 50.6714L59.612 50.6378L56.2948 44.1325V43.5181H56.487" fill="#FD405F"/>
<path d="M63.1744 28.0965L76.1586 41.6616L75.7812 42.5812L68.0806 43.9768L67.9952 43.5028L61.1511 28.125V28.0965" fill="#FD405F"/>
<path d="M58.0129 28.0965L56.487 43.516L49.6094 28.0965" fill="#FD405F"/>
<path d="M49.6094 28.0965L42.7287 43.516L41.2028 28.0965" fill="#FD405F"/>
<path d="M38.0656 28.0965V28.125L31.2215 43.5028L31.135 43.9768L23.4344 42.5812L23.057 41.6616L36.0412 28.0965" fill="#FD405F"/>
<path d="M100 50C100 56.5369 98.7447 62.7808 96.464 68.5028L96.4529 68.4977L89.0178 69.9768L84.3699 63.0391C85.909 58.9874 86.7503 54.5909 86.7503 50C86.7503 30.9092 72.1954 15.2191 53.5757 13.4216L53.5807 13.3667L58.609 6.58061L54.8075 0.228882C80.1666 2.64587 100 24.0082 100 50Z" fill="#96EFFF"/>
<path d="M87.9974 72.7061L95.2657 71.2606C87.2762 88.2446 70.0104 100 50 100C29.9326 100 12.6271 88.1795 4.66714 71.1192L4.67732 71.1141L8.70055 64.6871L16.9372 66.0655H16.9403C22.8983 78.3122 35.4634 86.7503 50 86.7503C64.6932 86.7503 77.3722 78.127 83.253 65.6667L83.2967 65.687" fill="#6CE0F9"/>
<path d="M50.7212 13.2497V13.2579C50.4822 13.2528 50.2421 13.2497 50 13.2497C29.7038 13.2497 13.2497 29.7028 13.2497 50C13.2497 54.7475 14.151 59.2814 15.7888 63.4481L15.745 63.4664L7.41374 62.0728L3.479 68.3563C1.23189 62.675 0 56.4819 0 50C0 22.3857 22.3857 0 50 0C50.6043 0 51.2034 0.0101725 51.8026 0.0315349L55.6956 6.5389" fill="#40DAF4"/>
</svg>
