<svg height="100pt" viewBox="0 0 100 100" width="100pt" xmlns="http://www.w3.org/2000/svg" xmlns:xlink="http://www.w3.org/1999/xlink"><radialGradient id="a" cx=".5" cy=".5" fx=".787636" fy=".378476" gradientTransform="matrix(61.002 0 0 43.638 16.584 18.139)" gradientUnits="userSpaceOnUse" r=".898726"><stop offset="0" stop-color="#f80090"/><stop offset="1" stop-color="#4d008e"/></radialGradient><radialGradient id="b" cx=".5" cy=".5" fx=".687389" fy=".043983" gradientTransform="matrix(67.994 0 0 51.434 18.376 33.566)" gradientUnits="userSpaceOnUse" r=".817285"><stop offset="0" stop-color="#57008e"/><stop offset=".291746283" stop-color="#5c008e"/><stop offset="1" stop-color="#f80090"/></radialGradient><linearGradient id="c" gradientTransform="matrix(21.371 0 0 17.033 40.493 64.223)" gradientUnits="userSpaceOnUse" x1="0" x2=".683384" y1=".5" y2="1.230059"><stop offset=".03468814542" stop-color="#f70090"/><stop offset=".59950707421" stop-color="#e50090"/><stop offset=".73228350003" stop-color="#d6008f" stop-opacity=".2"/><stop offset=".87806290842" stop-color="#c10090" stop-opacity="0"/></linearGradient><linearGradient id="d" gradientTransform="matrix(15.418 0 0 8.418 33.566 23.622)" gradientUnits="userSpaceOnUse" x1="0" x2=".868418" y1=".5" y2=".995832"><stop offset=".45496804349" stop-color="#ff0090"/><stop offset=".54127787855" stop-color="#f60090" stop-opacity=".891668"/><stop offset=".59488209528" stop-color="#f70090" stop-opacity=".4"/><stop offset=".67055358149" stop-color="#b2008f" stop-opacity=".15134"/></linearGradient><path d="m0 0h100v100h-100z" fill="#23004d"/><path d="m18.372 59.615c-3.728-19.823 6.125-38.941 28.741-41.484-3.119-3.333-7.379-3.358-9.34-2.953-3.461 1.104-3.352 3.343-7.278 6.236-3.903 2.23-5.863.522-8.707 2.833-2.837 2.294-.857 7.56-2.047 8.583-1.181 2.048-4.845 3.872-5.512 6.458-.551 3.307 1.496 5.669 1.417 8.504.237 2.362-2.351 3.698-1.979 5.613 1.113 3.127 3.26 5.01 4.272 5.878.232.163.477.566.433.332z" fill="#ff0090"/><path d="m58.614 32.174c-.826 0-1.496-.67-1.496-1.496s.67-1.496 1.496-1.496c.827 0 1.496.67 1.496 1.496s-.669 1.496-1.496 1.496zm-39.369 29.603c-3.583-17.228 7.504-31.624 28.975-24.537 12.599 7.371 28.447 6.891 29.162 2.126 1.764-5.711-8.032-17.481-22.679-20.552-29.056-5.669-44.721 25.735-35.458 42.963z" fill="url(#a)"/><path d="m66.909 63.698c4.314.468 8.41-.568 12.205-3.661-5.734 6.395-12.903 9.611-21.13 10.486 3.928 3.339 7.716 4.843 11.34 4.199-10.069 2.779-18.505-.28-28.767-10.499-.537 2.751 2.368 7.037 5.363 9.773-17.376-7.533-18.899-31 2.289-36.772-21.964-10.553-34.384 9.951-28.282 26.756 5.97 12.944 21.88 22.908 39.317 20.717 8.47-1.038 21.118-6.877 26.285-20.717-3.641 3.268-10.151 6.114-13.056 6.333 9.832-4.914 15.139-13.262 13.649-24.673-2.036 4.848-4.723 8.571-8.084 11.129 7.139-11.129 5.914-16.882.63-23.203 3.78 10.394-1.11 21.93-11.759 30.132z" fill="url(#b)"/><path d="m61.863 75.673c-.746-.14 1.691.987-3.02-.26-4.712-1.248-9.509-2.45-18.286-11.19-.537 2.751 2.368 7.037 5.363 9.773 8.085 5.639 2.587 3.002 14.905 7.26.988-1.968 1.038-3.716 1.038-5.583z" fill="url(#c)"/><path d="m46.201 31.399s1.071-1.581 1.488-2.293c.511-.874 1.296-2.466 1.296-2.466s-8.244-2.69-10.267-3.018c-6.289 1.632-6.312 4.267-2.796 8.3.392.449 10.279-.523 10.279-.523z" fill="url(#d)"/></svg>