<?xml version="1.0" encoding="UTF-8" standalone="no"?><!-- Generator: Gravit.io --><svg xmlns="http://www.w3.org/2000/svg" xmlns:xlink="http://www.w3.org/1999/xlink" style="isolation:isolate" viewBox="0 0 100 100" width="100pt" height="100pt"><path d=" M 100 0 L 100 100 L 0 100 L 0 0 L 100 0 Z " fill="rgb(204,102,153)"/><path d=" M 79.224 23.577 C 77.13 15.34 63.481 12.633 50.565 17.226 C 42.884 19.957 34.564 24.246 28.581 29.841 C 21.465 36.488 20.333 42.28 20.799 44.701 C 22.447 53.238 34.147 58.822 38.96 62.966 L 38.96 62.99 C 37.544 63.685 27.159 68.895 24.726 74.284 C 22.12 79.96 25.132 84.018 27.101 84.536 C 33.183 86.219 39.438 83.146 42.798 78.168 C 46.041 73.3 45.754 67.044 44.359 63.974 C 46.273 63.453 48.529 63.221 51.425 63.572 C 59.537 64.498 61.159 69.595 60.808 71.681 C 60.461 73.763 58.79 74.979 58.205 75.327 C 57.625 75.677 57.452 75.79 57.507 76.025 C 57.565 76.372 57.857 76.372 58.318 76.314 C 58.955 76.198 62.549 74.577 62.723 70.635 C 62.896 65.654 58.144 60.096 49.69 60.209 C 46.215 60.27 44.011 60.56 42.45 61.197 C 42.334 61.023 42.215 60.907 42.045 60.791 C 36.832 55.173 27.159 51.234 27.564 43.763 C 27.68 41.04 28.665 33.861 46.099 25.173 C 60.406 18.045 71.819 20.018 73.788 24.362 C 76.618 30.556 67.704 42.086 52.818 43.763 C 47.142 44.4 44.188 42.202 43.432 41.388 C 42.624 40.519 42.508 40.461 42.218 40.638 C 41.755 40.869 42.045 41.622 42.218 42.086 C 42.682 43.244 44.477 45.271 47.608 46.314 C 50.327 47.183 56.991 47.701 64.984 44.576 C 73.959 41.104 80.968 31.428 78.941 23.319 L 79.224 23.577 Z  M 40.953 65.518 C 41.628 68.008 41.555 70.337 40.86 72.436 L 40.608 73.132 C 40.515 73.366 40.408 73.595 40.307 73.812 C 39.765 74.933 39.047 75.975 38.164 76.94 C 35.468 79.871 31.709 80.983 30.092 80.047 C 28.355 79.037 29.221 74.892 32.349 71.591 C 35.711 68.046 40.536 65.764 40.536 65.764 L 40.536 65.752 L 40.953 65.518 Z " fill-rule="evenodd" fill="rgb(255,255,255)"/></svg>