<svg height="100pt" viewBox="0 0 100 100" width="100pt" xmlns="http://www.w3.org/2000/svg"><path d="m100 0v100h-100v-100z" fill="#c69"/><path d="m79.224 23.577c-2.094-8.237-15.743-10.944-28.659-6.351-7.681 2.731-16.001 7.02-21.984 12.615-7.116 6.647-8.248 12.439-7.782 14.86 1.648 8.537 13.348 14.121 18.161 18.265v.024c-1.416.695-11.801 5.905-14.234 11.294-2.606 5.676.406 9.734 2.375 10.252 6.082 1.683 12.337-1.39 15.697-6.368 3.243-4.868 2.956-11.124 1.561-14.194 1.914-.521 4.17-.753 7.066-.402 8.112.926 9.734 6.023 9.383 8.109-.347 2.082-2.018 3.298-2.603 3.646-.58.35-.753.463-.698.698.058.347.35.347.811.289.637-.116 4.231-1.737 4.405-5.679.173-4.981-4.579-10.539-13.033-10.426-3.475.061-5.679.351-7.24.988-.116-.174-.235-.29-.405-.406-5.213-5.618-14.886-9.557-14.481-17.028.116-2.723 1.101-9.902 18.535-18.59 14.307-7.128 25.72-5.155 27.689-.811 2.83 6.194-6.084 17.724-20.97 19.401-5.676.637-8.63-1.561-9.386-2.375-.808-.869-.924-.927-1.214-.75-.463.231-.173.984 0 1.448.464 1.158 2.259 3.185 5.39 4.228 2.719.869 9.383 1.387 17.376-1.738 8.975-3.472 15.984-13.148 13.957-21.257zm-38.271 41.941c.675 2.49.602 4.819-.093 6.918l-.252.696c-.093.234-.2.463-.301.68-.542 1.121-1.26 2.163-2.143 3.128-2.696 2.931-6.455 4.043-8.072 3.107-1.737-1.01-.871-5.155 2.257-8.456 3.362-3.545 8.187-5.827 8.187-5.827v-.012z" fill="#fff" fill-rule="evenodd"/></svg>