<svg height="100pt" viewBox="0 0 100 100" width="100pt" xmlns="http://www.w3.org/2000/svg"><path d="m0 0h100v100h-100z" fill="#34bdb2"/><path d="m64.021 36.246c-4.661-2.705-8.799-4.831-14.212-4.738-3.097.054-5.756 1.737-6.315 4.818-.52 2.866 2.027 4.456 4.678 5.432 4.396 1.619 8.223 3.328 12.542 5.128 7.853 3.272 11.879 8.572 11.403 15.372-.605 8.651-5.812 14.856-14.087 16.902-10.813 2.673-21.313-1.399-30.185-7.083 2.239-3.412 4.837-5.74 7.063-9.13 5.125 2.181 9.152 5.129 14.514 5.589 3.781.324 8.065.144 8.914-4.297.766-4.005-2.72-6.152-6.119-7.351-4.047-1.427-8.086-3.173-12.055-4.794-7.336-2.997-10.322-8.857-9.819-15.762 0-4.048 3.359-12.231 11.595-14.776 12.653-3.911 19.625.094 28.801 5.991-2.437 3.223-4.311 5.514-6.718 8.699" fill="#fff"/></svg>