<svg viewBox="0 0 280 280" xmlns="http://www.w3.org/2000/svg"><path d="m162.08 30.22a26 26 0 0 0 -44.45 0l-36.55 62.61a178.94 178.94 0 0 1 98.61 148.17h-25.69a153.77 153.77 0 0 0 -85.87-126.28l-33.83 58.5a88.43 88.43 0 0 1 51.28 67.61h-58.95a4.22 4.22 0 0 1 -3.91-4.51 4.17 4.17 0 0 1 .47-1.65l16.33-27.78a59.68 59.68 0 0 0 -18.66-10.56l-16.17 27.78a25.22 25.22 0 0 0 9.09 34.5l.3.17a25.79 25.79 0 0 0 12.55 3.33h80.73a107.76 107.76 0 0 0 -44.45-96.11l12.84-22.23a132.64 132.64 0 0 1 57.25 118.34h68.39a199.33 199.33 0 0 0 -91.2-176.66l25.94-44.45a4.3 4.3 0 0 1 5.87-1.5c2.94 1.61 112.72 193.17 114.78 195.39a4.23 4.23 0 0 1 -1.63 5.74 4.27 4.27 0 0 1 -2.15.54h-26.48q.51 10.61 0 21.16h26.56a25.5 25.5 0 0 0 25.67-25.33v-.28a25 25 0 0 0 -3.45-12.66z" fill="#362d59"/></svg>