<svg fill="none" height="512" viewBox="0 0 512 512" width="512" xmlns="http://www.w3.org/2000/svg"><g clip-rule="evenodd" fill="#09090b" fill-rule="evenodd"><path d="m427.314 244.686c6.248 6.249 6.248 16.379 0 22.628l-160 160c-6.249 6.248-16.379 6.248-22.628 0-6.248-6.249-6.248-16.379 0-22.628l160-160c6.249-6.248 16.379-6.248 22.628 0z"/><path d="m395.314 68.6863c6.248 6.2484 6.248 16.379 0 22.6274l-304.0003 304.0003c-6.2484 6.248-16.379 6.248-22.6274 0-6.2484-6.249-6.2484-16.379 0-22.628l303.9997-303.9997c6.249-6.2484 16.379-6.2484 22.628 0z"/></g></svg>