<svg fill="none" height="90" viewBox="0 0 90 90" width="90" xmlns="http://www.w3.org/2000/svg"><path d="m21.807 55.554c0 4.6254-3.7783 8.4039-8.4035 8.4039-4.62518 0-8.4035-3.7785-8.4035-8.4039s3.77832-8.4039 8.4035-8.4039h8.4035z" fill="#e01e5a"/><path d="m26.0393 55.5542c0-4.6254 3.7783-8.4039 8.4035-8.4039s8.4035 3.7785 8.4035 8.4039v21.0423c0 4.6254-3.7783 8.4039-8.4035 8.4039s-8.4035-3.7785-8.4035-8.4039z" fill="#e01e5a"/><path d="m34.4428 21.8078c-4.6252 0-8.4035-3.7785-8.4035-8.4039s3.7783-8.4039 8.4035-8.4039 8.4035 3.7785 8.4035 8.4039v8.4039z" fill="#36c5f0"/><path d="m34.4448 26.0423c4.6252 0 8.4035 3.7785 8.4035 8.4039s-3.7783 8.4039-8.4035 8.4039h-21.0413c-4.62518 0-8.4035-3.7785-8.4035-8.4039s3.77832-8.4039 8.4035-8.4039z" fill="#36c5f0"/><path d="m68.1904 34.4461c0-4.6254 3.7783-8.4039 8.4035-8.4039s8.4035 3.7785 8.4035 8.4039-3.7783 8.4039-8.4035 8.4039h-8.4035z" fill="#2eb67d"/><path d="m63.9582 34.4462c0 4.6254-3.7784 8.4039-8.4035 8.4039-4.6252 0-8.4035-3.7785-8.4035-8.4039v-21.0423c0-4.6254 3.7783-8.4039 8.4035-8.4039 4.6251 0 8.4035 3.7785 8.4035 8.4039z" fill="#2eb67d"/><g fill="#ecb22e"><path d="m55.5547 68.1927c4.6251 0 8.4035 3.7785 8.4035 8.4039s-3.7784 8.4039-8.4035 8.4039c-4.6252 0-8.4035-3.7785-8.4035-8.4039v-8.4039z"/><path d="m55.5547 63.9582c-4.6252 0-8.4035-3.7785-8.4035-8.4039s3.7783-8.4039 8.4035-8.4039h21.0413c4.6251 0 8.4035 3.7785 8.4035 8.4039s-3.7784 8.4039-8.4035 8.4039z"/></g></svg>