<?xml version="1.0" encoding="UTF-8" standalone="no"?><!-- Generator: Gravit.io --><svg xmlns="http://www.w3.org/2000/svg" xmlns:xlink="http://www.w3.org/1999/xlink" style="isolation:isolate" viewBox="0 0 100 100" width="100pt" height="100pt"><clipPath id="_clipPath_4xT6z8mhuD6XBJOKe4mpNdVNASqKLUn2"><rect x="0" y="0" width="100" height="100" transform="matrix(1,0,0,1,0,0)" fill="rgb(255,255,255)"/></clipPath><g clip-path="url(#_clipPath_4xT6z8mhuD6XBJOKe4mpNdVNASqKLUn2)"><g><g><path d=" M 74.679 15.974 C 75.716 15.628 76.816 15.127 77.79 14.64 C 80.321 13.375 82.588 9.726 79.568 7.529 C 77.54 6.055 74.198 5.076 71.568 4.418 C 68.937 3.76 53.024 2.64 49.79 2.64 Q 43.473 2.64 31.568 3.974 Q 24.576 4.931 21.345 7.085 C 19.979 7.996 18.057 9.842 19.123 11.974 C 19.804 13.335 21.556 14.141 22.679 14.64 C 23.196 14.87 23.811 15.691 24.456 15.529 L 25.345 14.64 C 26.952 14.181 28.661 13.7 30.234 13.307 C 33.12 12.585 36.18 13.154 39.123 12.418 C 41.934 11.716 45.356 11.974 48.456 11.974 C 53.461 11.974 58.593 11.73 63.123 12.863 C 63.96 13.072 64.953 12.653 65.79 12.863 C 68.001 13.416 70.317 13.927 72.456 14.64 C 73.441 14.968 74.221 14.988 75.123 15.529 L 74.679 15.974 Z " fill="rgb(182,211,50)"/><path d=" M 24.456 15.085 C 27.331 17.619 32.36 17.927 36.012 18.64 C 45.272 20.448 56.114 20.22 65.345 18.373 C 68.7 17.703 72.069 17.138 75.123 15.529 C 71.235 13.086 65.381 12.801 60.901 12.385 C 53.334 11.681 45.355 11.535 37.79 12.344 C 33.31 12.824 28.635 13.287 24.456 15.085 Z " fill="rgb(126,185,1)"/><path d=" M 12.456 12.418 L 12.456 64.863 L 12.456 88.64 C 12.456 91.344 12.177 94.18 13.531 96.639 C 16.445 101.933 24.397 103.718 29.79 105.027 C 43.195 108.283 58.668 108.13 72.012 104.572 C 76.935 103.259 83.438 101.218 86.281 96.64 C 87.492 94.691 87.123 92.168 87.123 89.974 Q 87.349 60.746 87.311 46.936 C 87.256 26.741 87.044 15.235 87.568 12.418 C 85.991 14.165 84.62 16.01 82.679 17.401 C 78.761 20.208 73.956 21.463 69.345 22.583 C 57.576 25.441 44.295 25.276 32.456 22.907 C 27.321 21.88 21.672 20.5 17.345 17.401 C 15.404 16.01 14.032 14.165 12.456 12.418 Z " fill="rgb(23,126,202)"/><path d=" M 23.568 60.863 C 23.568 62.165 23.172 64.333 24.024 65.428 C 24.936 66.6 27.123 66.601 28.456 66.634 C 31.973 66.721 36.906 66.327 38.041 62.196 C 39.112 58.3 37.081 55.428 33.79 53.654 C 32.24 52.819 28.532 51.248 29.424 48.889 C 30.64 45.672 35.231 47.604 37.345 48.418 C 37.345 47.182 37.671 45.28 36.888 44.224 C 36.057 43.102 34.148 43.12 32.901 43.092 C 29.523 43.012 25.89 43.782 24.215 47.087 C 22.442 50.586 24.567 54.128 27.574 56.006 C 29.195 57.019 31.596 57.707 32.505 59.548 C 33.307 61.172 31.703 62.475 30.234 62.79 C 27.952 63.281 25.583 61.7 23.568 60.863 Z " fill="rgb(255,255,255)"/><path d=" M 62.679 72.418 C 61.05 70.106 58.981 67.95 56.456 66.64 L 56.456 65.752 C 64.108 63.479 65.263 52.293 60.666 46.66 C 58.67 44.214 55.541 43.132 52.456 43.093 C 42.597 42.969 37.903 54.309 42.887 62.189 C 45.023 65.567 47.989 65.423 51.121 67.091 C 53.115 68.152 54.019 70.492 56.019 71.517 C 57.914 72.488 60.596 71.922 62.679 72.418 Z " fill="rgb(255,255,255)"/><path d=" M 67.568 43.529 L 67.568 66.196 L 80.901 66.196 L 80.901 61.929 L 72.28 61.928 L 72.456 43.529 L 67.568 43.529 Z " fill="rgb(255,255,255)"/><path d=" M 57.923 54.942 C 57.813 50.9 55.392 46.847 51.123 47.773 C 43.503 49.426 45.355 64.308 53.789 62.003 C 56.702 61.207 58.008 58.077 57.923 54.942 Z " fill="rgb(23,126,202)"/></g></g></g></svg>