<svg height="100pt" viewBox="0 0 100 100" width="100pt" xmlns="http://www.w3.org/2000/svg" xmlns:xlink="http://www.w3.org/1999/xlink"><clipPath id="a"><path d="m0 0h100v100h-100z"/></clipPath><g clip-path="url(#a)"><path d="m74.679 15.974c1.037-.346 2.137-.847 3.111-1.334 2.531-1.265 4.798-4.914 1.778-7.111-2.028-1.474-5.37-2.453-8-3.111-2.631-.658-18.544-1.778-21.778-1.778q-6.317 0-18.222 1.334-6.992.957-10.223 3.111c-1.366.911-3.288 2.757-2.222 4.889.681 1.361 2.433 2.167 3.556 2.666.517.23 1.132 1.051 1.777.889l.889-.889c1.607-.459 3.316-.94 4.889-1.333 2.886-.722 5.946-.153 8.889-.889 2.811-.702 6.233-.444 9.333-.444 5.005 0 10.137-.244 14.667.889.837.209 1.83-.21 2.667 0 2.211.553 4.527 1.064 6.666 1.777.985.328 1.765.348 2.667.889z" fill="#b6d332"/><path d="m24.456 15.085c2.875 2.534 7.904 2.842 11.556 3.555 9.26 1.808 20.102 1.58 29.333-.267 3.355-.67 6.724-1.235 9.778-2.844-3.888-2.443-9.742-2.728-14.222-3.144-7.567-.704-15.546-.85-23.111-.041-4.48.48-9.155.943-13.334 2.741z" fill="#7eb901"/><path d="m12.456 12.418v52.445 23.777c0 2.704-.279 5.54 1.075 7.999 2.914 5.294 10.866 7.079 16.259 8.388 13.405 3.256 28.878 3.103 42.222-.455 4.923-1.313 11.426-3.354 14.269-7.932 1.211-1.949.842-4.472.842-6.666q.226-29.228.188-43.038c-.055-20.195-.267-31.701.257-34.518-1.577 1.747-2.948 3.592-4.889 4.983-3.918 2.807-8.723 4.062-13.334 5.182-11.769 2.858-25.05 2.693-36.889.324-5.135-1.027-10.784-2.407-15.111-5.506-1.941-1.391-3.313-3.236-4.889-4.983z" fill="#177eca"/><g fill="#fff"><path d="m23.568 60.863c0 1.302-.396 3.47.456 4.565.912 1.172 3.099 1.173 4.432 1.206 3.517.087 8.45-.307 9.585-4.438 1.071-3.896-.96-6.768-4.251-8.542-1.55-.835-5.258-2.406-4.366-4.765 1.216-3.217 5.807-1.285 7.921-.471 0-1.236.326-3.138-.457-4.194-.831-1.122-2.74-1.104-3.987-1.132-3.378-.08-7.011.69-8.686 3.995-1.773 3.499.352 7.041 3.359 8.919 1.621 1.013 4.022 1.701 4.931 3.542.802 1.624-.802 2.927-2.271 3.242-2.282.491-4.651-1.09-6.666-1.927z"/><path d="m62.679 72.418c-1.629-2.312-3.698-4.468-6.223-5.778v-.888c7.652-2.273 8.807-13.459 4.21-19.092-1.996-2.446-5.125-3.528-8.21-3.567-9.859-.124-14.553 11.216-9.569 19.096 2.136 3.378 5.102 3.234 8.234 4.902 1.994 1.061 2.898 3.401 4.898 4.426 1.895.971 4.577.405 6.66.901z"/><path d="m67.568 43.529v22.667h13.333v-4.267l-8.621-.001.176-18.399z"/></g><path d="m57.923 54.942c-.11-4.042-2.531-8.095-6.8-7.169-7.62 1.653-5.768 16.535 2.666 14.23 2.913-.796 4.219-3.926 4.134-7.061z" fill="#177eca"/></g></svg>