<svg height="100pt" viewBox="0 0 100 100" width="100pt" xmlns="http://www.w3.org/2000/svg" xmlns:xlink="http://www.w3.org/1999/xlink"><mask id="a" height="400%" width="400%" x="-200%" y="-200%"><rect fill="#fff" height="400%" width="400%" x="-200%" y="-200%"/><path d="m49.749 20.82c-14.482 0-26.256 4.096-26.256 9.135v34.689c0 5.039 11.774 9.136 26.256 9.136 14.481 0 26.724-4.097 26.724-9.136 0-.298 0-34.39 0-34.689 0-5.039-12.243-9.135-26.724-9.135z"/></mask><linearGradient id="b" x1=".242453" x2=".892437" y1=".127852" y2="1.457582"><stop offset="0" stop-color="#fff"/><stop offset="1" stop-color="#fff" stop-opacity="0"/></linearGradient><linearGradient id="c"><stop offset="0" stop-color="#ababab"/><stop offset=".19415782" stop-color="#f6f6f6"/><stop offset=".39749253" stop-color="#b0b0b0"/><stop offset="1" stop-color="#585858"/></linearGradient><linearGradient id="d" gradientTransform="matrix(55.131 0 0 28.642 22.454 51.358)" gradientUnits="userSpaceOnUse" x1="0" x2="1" xlink:href="#c" y1=".456993" y2=".456993"/><mask id="e" height="400%" width="400%" x="-200%" y="-200%"><rect fill="#fff" height="400%" width="400%" x="-200%" y="-200%"/><path d="m76.248 60.621c0 4.546-11.8 8.232-26.356 8.232s-26.356-3.686-26.356-8.232 11.8-8.231 26.356-8.231 26.356 3.685 26.356 8.231z"/></mask><linearGradient id="f" x1=".5" x2=".5" y1=".598003" y2=".428503"><stop offset="0" stop-color="#a2a2a2"/><stop offset="1" stop-color="#4e4e4e"/></linearGradient><linearGradient id="g" gradientTransform="matrix(55.131 0 0 28.642 22.415 35.616)" gradientUnits="userSpaceOnUse" x1="0" x2="1" xlink:href="#c" y1=".456993" y2=".456993"/><mask id="h" height="400%" width="400%" x="-200%" y="-200%"><rect fill="#fff" height="400%" width="400%" x="-200%" y="-200%"/><path d="m76.208 44.879c0 4.546-11.8 8.231-26.355 8.231-14.556 0-26.356-3.685-26.356-8.231s11.8-8.231 26.356-8.231c14.555 0 26.355 3.685 26.355 8.231z"/></mask><linearGradient id="i" gradientTransform="matrix(55.131 0 0 28.642 22.417 20)" gradientUnits="userSpaceOnUse" x1="0" x2="1" xlink:href="#c" y1=".456993" y2=".456993"/><mask id="j" height="400%" width="400%" x="-200%" y="-200%"><rect fill="#fff" height="400%" width="400%" x="-200%" y="-200%"/><path d="m76.211 29.263c0 4.546-11.8 8.232-26.356 8.232s-26.356-3.686-26.356-8.232 11.8-8.231 26.356-8.231 26.356 3.685 26.356 8.231z"/></mask><g fill="none" opacity=".544304"><path d="m49.749 20.82c-14.482 0-26.256 4.096-26.256 9.135v34.689c0 5.039 11.774 9.136 26.256 9.136 14.481 0 26.724-4.097 26.724-9.136 0-.298 0-34.39 0-34.689 0-5.039-12.243-9.135-26.724-9.135z" mask="url(#a)" stroke="url(#b)" stroke-miterlimit="10" stroke-width="9.102"/><path d="m49.749 20.82c-14.482 0-26.256 4.096-26.256 9.135v34.689c0 5.039 11.774 9.136 26.256 9.136 14.481 0 26.724-4.097 26.724-9.136 0-.298 0-34.39 0-34.689 0-5.039-12.243-9.135-26.724-9.135z"/></g><path d="m49.776 51.358c-15.069 0-27.322 4.262-27.322 9.506v10.281c0 5.244 12.253 8.855 27.322 8.855 15.068 0 27.809-3.611 27.809-8.855 0-.31 0-9.97 0-10.281 0-5.244-12.741-9.506-27.809-9.506z" fill="url(#d)"/><path d="m76.248 60.621c0 4.546-11.8 8.232-26.356 8.232s-26.356-3.686-26.356-8.232 11.8-8.231 26.356-8.231 26.356 3.685 26.356 8.231z" fill="#c3c3c3" mask="url(#e)" stroke="url(#f)" stroke-miterlimit="10" stroke-width="9.203"/><path d="m76.248 60.621c0 4.546-11.8 8.232-26.356 8.232s-26.356-3.686-26.356-8.232 11.8-8.231 26.356-8.231 26.356 3.685 26.356 8.231z" fill="#c3c3c3"/><path d="m49.736 35.616c-15.068 0-27.321 4.262-27.321 9.506v10.281c0 5.244 12.253 8.855 27.321 8.855 15.069 0 27.81-3.611 27.81-8.855 0-.31 0-9.971 0-10.281 0-5.244-12.741-9.506-27.81-9.506z" fill="url(#g)"/><path d="m76.208 44.879c0 4.546-11.8 8.231-26.355 8.231-14.556 0-26.356-3.685-26.356-8.231s11.8-8.231 26.356-8.231c14.555 0 26.355 3.685 26.355 8.231z" fill="#c3c3c3" mask="url(#h)" stroke="url(#f)" stroke-miterlimit="10" stroke-width="9.203"/><path d="m76.208 44.879c0 4.546-11.8 8.231-26.355 8.231-14.556 0-26.356-3.685-26.356-8.231s11.8-8.231 26.356-8.231c14.555 0 26.355 3.685 26.355 8.231z" fill="#c3c3c3"/><path d="m49.739 20c-15.069 0-27.322 4.263-27.322 9.506v10.282c0 5.243 12.253 8.854 27.322 8.854s27.809-3.611 27.809-8.854c0-.311 0-9.971 0-10.282 0-5.243-12.74-9.506-27.809-9.506z" fill="url(#i)"/><g fill="#c3c3c3"><path d="m76.211 29.263c0 4.546-11.8 8.232-26.356 8.232s-26.356-3.686-26.356-8.232 11.8-8.231 26.356-8.231 26.356 3.685 26.356 8.231z" mask="url(#j)" stroke="url(#f)" stroke-miterlimit="10" stroke-width="9.203"/><path d="m76.211 29.263c0 4.546-11.8 8.232-26.356 8.232s-26.356-3.686-26.356-8.232 11.8-8.231 26.356-8.231 26.356 3.685 26.356 8.231z"/></g></svg>