<svg viewBox="0 0 100 100" xmlns="http://www.w3.org/2000/svg" xmlns:xlink="http://www.w3.org/1999/xlink"><linearGradient id="a"><stop offset="0" stop-color="#ffd55c"/><stop offset=".365" stop-color="#ffd665"/><stop offset=".661" stop-color="#f6bc2d"/><stop offset="1" stop-color="#dc930a"/></linearGradient><linearGradient id="b" gradientUnits="userSpaceOnUse" x1="13.064" x2="25.164" xlink:href="#a" y1="58.412" y2="71.662"/><linearGradient id="c"><stop offset=".307" stop-color="#7c3700" stop-opacity="0"/><stop offset=".542" stop-color="#7c3700"/></linearGradient><radialGradient id="d" cx="-5872.763" cy="-2565.857" gradientTransform="matrix(68.8999 -106.6998 94.0104 60.706 645859.813 -470777.75)" gradientUnits="userSpaceOnUse" r="1" xlink:href="#c"/><linearGradient id="e"><stop offset="0" stop-color="#9e4f10"/><stop offset=".059" stop-color="#9e4f10" stop-opacity="0"/></linearGradient><linearGradient id="f" gradientUnits="userSpaceOnUse" x1="25.437" x2="12.887" xlink:href="#e" y1="72.061" y2="57.611"/><linearGradient id="g"><stop offset="0" stop-color="#a43580"/><stop offset=".245" stop-color="#a35191"/><stop offset=".516" stop-color="#e499d7"/><stop offset=".688" stop-color="#e6a9e6"/><stop offset=".797" stop-color="#eac7ec"/><stop offset=".891" stop-color="#e796d8"/><stop offset="1" stop-color="#ac428b"/></linearGradient><radialGradient id="h" cx="-6397.358" cy="-2592.15" gradientTransform="matrix(-8.1999 -9.5 44.8513 -38.7133 63846.945 -161075.828)" gradientUnits="userSpaceOnUse" r="1" xlink:href="#g"/><linearGradient id="i"><stop offset=".816" stop-color="#4b273f" stop-opacity="0"/><stop offset="1" stop-color="#4b273f"/></linearGradient><radialGradient id="j" cx="-5182.829" cy="-2702.842" gradientTransform="matrix(6.95 6.8 -14.194 14.5071 -2304.053 74494.781)" gradientUnits="userSpaceOnUse" r="1" xlink:href="#i"/><linearGradient id="k" gradientUnits="userSpaceOnUse" x1="27.723" x2="41.232" xlink:href="#a" y1="70.346" y2="84.39"/><radialGradient id="l" cx="-5874.156" cy="-2570.718" gradientTransform="matrix(71.7961 -117.7757 103.769 63.2576 688530.375 -529122.313)" gradientUnits="userSpaceOnUse" r="1" xlink:href="#c"/><linearGradient id="m" gradientUnits="userSpaceOnUse" x1="41.298" x2="27.267" xlink:href="#e" y1="84.873" y2="69.538"/><radialGradient id="n" cx="-6380.212" cy="-2596.344" gradientTransform="matrix(-8.7986 -9.6747 45.6756 -41.5398 62516.395 -169521.828)" gradientUnits="userSpaceOnUse" r="1" xlink:href="#g"/><radialGradient id="o" cx="-5207.03" cy="-2691.54" gradientTransform="matrix(7.4235 6.8959 -14.3942 15.4954 -28.596 77660.797)" gradientUnits="userSpaceOnUse" r="1" xlink:href="#i"/><linearGradient id="p" gradientUnits="userSpaceOnUse" x1="45.674" x2="62.135" xlink:href="#a" y1="80.721" y2="97.858"/><radialGradient id="q" cx="-5876.531" cy="-2570.791" gradientTransform="matrix(66.1166 -121.0553 106.6586 58.2536 662771.688 -561515.125)" gradientUnits="userSpaceOnUse" r="1" xlink:href="#c"/><radialGradient id="r" cx="-6395.006" cy="-2596.406" gradientTransform="matrix(-8.645 -9.3518 44.1514 -40.8146 59421.91 -165701.406)" gradientUnits="userSpaceOnUse" r="1" xlink:href="#g"/><radialGradient id="s" cx="-5188.034" cy="-2690.586" gradientTransform="matrix(7.2839 6.6566 -13.8947 15.2041 472.101 75508.36)" gradientUnits="userSpaceOnUse" r="1" xlink:href="#i"/><radialGradient id="t" cx="-4928.398" cy="-2624.464" gradientTransform="matrix(6.25 3.75 -12.1234 20.2056 -934.478 71561.398)" gradientUnits="userSpaceOnUse" r="1.002"><stop offset="0" stop-color="#f4b4f4"/><stop offset=".288" stop-color="#f495e4"/><stop offset=".528" stop-color="#d746b6"/><stop offset="1" stop-color="#4f1e41"/></radialGradient><linearGradient id="u" gradientUnits="userSpaceOnUse" x1="84.815" x2="90.306" y1="30.876" y2="32.175"><stop offset="0" stop-color="#f491dd"/><stop offset=".247" stop-color="#f297dc"/><stop offset=".497" stop-color="#bc7fa7"/><stop offset="1" stop-color="#794866"/></linearGradient><linearGradient id="v" gradientUnits="userSpaceOnUse" x1="81.918" x2="103.118" y1="6.192" y2="11.092"><stop offset="0" stop-color="#c95e9c"/><stop offset=".147" stop-color="#da72b5"/><stop offset=".375" stop-color="#f4a8e0"/><stop offset=".51" stop-color="#e18fca"/><stop offset=".766" stop-color="#995f85"/><stop offset="1" stop-color="#885476"/></linearGradient><path d="m0 94.2v-25.3l38.9-31.7 8.3 8.5c1.8 1.9 2.1 4.9-.3 7.3z" fill="url(#b)"/><path d="m0 94.2v-25.3l38.9-31.7 8.3 8.5c1.8 1.9 2.1 4.9-.3 7.3z" fill="url(#d)"/><path d="m0 94.2v-25.3l38.9-31.7 8.3 8.5c1.8 1.9 2.1 4.9-.3 7.3z" fill="url(#f)" fill-opacity=".6"/><path d="m29.4 45.4c-3.5 3-4.1 6.4-1.8 8.9 1.1 1.6 4.9 4.1 9.8.7 8.9-6.2 19.2-18.4 14.2-22.9-4.4-3.9-18.7 10.3-22.2 13.3" fill="url(#h)"/><path d="m29.4 45.4c-3.5 3-4.1 6.4-1.8 8.9 1.1 1.6 4.9 4.1 9.8.7 8.9-6.2 19.2-18.4 14.2-22.9-4.4-3.9-18.7 10.3-22.2 13.3" fill="url(#j)" fill-opacity=".5"/><path d="m0 100h25.2l41.4-37.7c2.9-2.6 2.9-7.1.3-9.7l-3.6-3.7c-2.9-3.1-7.8-3.3-11-.5l-52.3 45.5z" fill="url(#k)"/><path d="m0 100h25.2l41.4-37.7c2.9-2.6 2.9-7.1.3-9.7l-3.6-3.7c-2.9-3.1-7.8-3.3-11-.5l-52.3 45.5z" fill="url(#l)"/><path d="m0 100h25.2l41.4-37.7c2.9-2.6 2.9-7.1.3-9.7l-3.6-3.7c-2.9-3.1-7.8-3.3-11-.5l-52.3 45.5z" fill="url(#m)" fill-opacity=".6"/><path d="m49.2 51.8c-3.6 3.2-4 6.8-1.6 9.3 1.2 1.6 5.2 4.2 10.2.5 9.1-6.7 19.5-19.6 14.2-24.2-4.7-4-19.2 11.2-22.8 14.4" fill="url(#n)"/><path d="m49.2 51.8c-3.6 3.2-4 6.8-1.6 9.3 1.2 1.6 5.2 4.2 10.2.5 9.1-6.7 19.5-19.6 14.2-24.2-4.7-4-19.2 11.2-22.8 14.4" fill="url(#o)" fill-opacity=".5"/><path d="m61.2 100h-36.1l40.3-36.6c.8-.7 2-.7 2.8.1l3 3.1c5.9 6 6.1 15.6.4 21.9z" fill="url(#p)"/><path d="m61.2 100h-36.1l40.3-36.6c.8-.7 2-.7 2.8.1l3 3.1c5.9 6 6.1 15.6.4 21.9z" fill="url(#q)"/><path d="m57.7 70.5c-3.4 3.2-3.9 6.6-1.5 9.1 1.2 1.6 5.1 4 10 .4 8.8-6.6 18.8-19.3 13.6-23.7-4.7-3.9-18.7 11-22.1 14.2" fill="url(#r)"/><path d="m57.7 70.5c-3.4 3.2-3.9 6.6-1.5 9.1 1.2 1.6 5.1 4 10 .4 8.8-6.6 18.8-19.3 13.6-23.7-4.7-3.9-18.7 11-22.1 14.2" fill="url(#s)" fill-opacity=".5"/><path d="m77.8 50.2c1.6-3.3 3.7-6.5 5.1-5.8l2.8.5c.8 1.1 0 4.5 0 5.2 0 7.7-7.9 14.3-16.3 14.3 9.6-6.8 5.2-7.4 8.4-14.2" fill="url(#t)"/><path d="m86 46.5c-.7 1.4-3.7.6-4.9-.6-.1-.3-.1-.5-.1-.7.7-.7 1.3-1 1.9-.7l2.8.5c.2.3.3.9.3 1.5" opacity=".1"/><path d="m87.9 15.8 5.9 1.3c-7.7 29.4-7.6 29.3-8 29.3-1.3.6-4.7-.3-4.7-1.8.1 0 6.8-28.8 6.8-28.8" fill="url(#u)"/><path d="m93.3 19.2c-3.2-.2-4.8-.7-6-1.1l.5-2.3 5.9 1.3z" opacity=".1"/><path d="m100 18.5c-.4 0-5.1 1.1-11-.3-4.5-1.1-6.7-3.5-7.7-4.8-.8-1.2-.5-1.7 1.5-13.4h17.2z" fill="url(#v)"/><path d="m81 11.2c3 6 12.3 7.1 19 6.2v.2c-2 .4-6.2.8-10.8-.3-5.3-1.2-8.2-4.9-8.2-6.1" opacity=".1"/></svg>