<svg fill="none" height="128" viewBox="0 0 128 128" width="128" xmlns="http://www.w3.org/2000/svg"><path d="m119.838 16.936c-14.285-17.012004-42.502-22.054-62.896-11.24l-35.829 19c-4.847 2.529-9.006 5.871-12.21204 9.814-3.206 3.943-5.387 8.399-6.404 13.083-.45313 2.1019-.68373 4.2458-.688 6.396.022 5.831 1.74 11.571 5.007 16.73-3.063 3.872-5.154 8.22-6.146001 12.782-1.01611 4.7681-.873796 9.7103.415001 14.412 1.29 4.733 3.702 9.204 7.096 13.152 14.28404 17.011 42.56404 22.053 62.89504 11.24l35.792-19.001c4.844-2.532 8.998-5.878 12.196-9.825 3.197-3.947 5.367-8.407 6.37-13.093.46-2.107.691-4.244.688-6.386-.009-5.82-1.705-11.551-4.945-16.709 3.062-3.869 5.153-8.213 6.147-12.771.444-2.109.67-4.245.676-6.386.002-7.595-2.852-15-8.162-21.178z" fill="#ff3e00"/><path d="m53.44 112.667c-2.3533.504-4.7533.759-7.16.76-4.595.001-9.122-.925-13.193-2.7-4.07-1.774-7.563-4.343-10.179-7.487-3.194-3.716-4.91-8.171-4.907-12.74.0019-1.288.1359-2.5724.4-3.833.2149-.9486.5042-1.8788.865-2.782l.676-1.708 1.827 1.156c4.243 2.591 8.984 4.564 14.02 5.834l1.328.333-.125 1.104v.573c-.003 1.381.514 2.73 1.477 3.854.778.958 1.826 1.744 3.052 2.288 1.2557.5508 2.6118.8358 3.983.837.7239.0024 1.4458-.0744 2.153-.229.7673-.1672 1.5087-.4369 2.204-.802l35.79-19.094c1.073-.566 1.957-1.349 2.568-2.276.61-.927.928-1.968.924-3.026-.01-1.381-.54-2.725-1.515-3.844-.79-.946-1.844-1.718-3.071-2.252-1.2564-.5391-2.6099-.8148-3.977-.81-.7239-.0021-1.4459.075-2.153.23-.7639.1632-1.5011.4328-2.19.801l-13.645 7.25c-2.2963 1.203-4.7419 2.0961-7.273 2.656-2.34.502-4.745.758-7.161.76-4.594 0-9.119-.926-13.189-2.698s-7.564-4.338-10.183-7.478c-3.19-3.718-4.906-8.172-4.907-12.74.002-1.285.136-2.567.4-3.833.613-2.816 1.921-5.495 3.844-7.867 1.922-2.373 4.416-4.387 7.323-5.914l35.828-18.99c2.248-1.19 4.7-2.09 7.273-2.667 2.34-.499 4.745-.75 7.16-.75 4.605-.01 9.144.91 13.228 2.681 4.084 1.77 7.59 4.34 10.219 7.486 3.171 3.727 4.865 8.184 4.845 12.75-.002 1.2917-.137 2.5797-.401 3.844-.215.9482-.504 1.8781-.864 2.781l-.676 1.708-1.827-1.114c-4.24-2.595-8.982-4.568-14.02-5.834l-1.328-.343.125-1.105v-.572c0-1.385-.516-2.735-1.477-3.865-.789-.945-1.84-1.716-3.066-2.25-1.2539-.5393-2.605-.816-3.97-.813-.7167.013-1.4299.1038-2.127.271-.769.1604-1.5109.4305-2.203.802l-35.828 18.99c-.85.4409-1.6015 1.0499-2.209 1.79-.5666.6909-.9632 1.505-1.158 2.377-.0882.3622-.1428.7318-.163 1.104-.001 1.378.515 2.722 1.477 3.844.788.945 1.84 1.717 3.065 2.25 1.2539.5393 2.605.8157 3.97.812.7239.0021 1.4459-.075 2.153-.23.7687-.162 1.5107-.4317 2.204-.801l13.67-7.292c2.2953-1.2051 4.7412-2.0983 7.273-2.656 2.3534-.5038 4.7533-.7585 7.16-.76 4.596 0 9.123.925 13.195 2.697s7.569 4.339 10.19 7.48c3.19 3.717 4.906 8.171 4.907 12.74.003 1.299-.135 2.596-.413 3.874-.609 2.817-1.917 5.497-3.839 7.87-1.923 2.372-4.418 4.385-7.328 5.911l-35.765 18.99c-2.2991 1.209-4.749 2.106-7.285 2.667z" fill="#fff"/></svg>