<svg height="100.006pt" viewBox="0 0 100 100.006" width="100pt" xmlns="http://www.w3.org/2000/svg"><path d="m.089.089h99.822v99.822h-99.822z" fill="#ffb13b"/><path d="m50.003 10.001c-4.991 0-9.163 3.217-10.828 7.232-.51 1.253-.805 2.703-.805 4.225 0 .175.005.348.013.52v-.025c-1.071-1.165-2.365-2.105-3.82-2.75l-.073-.03c-1.305-.545-2.82-.862-4.408-.862-.164 0-.327.002-.492.01h.023c-3.088.1-5.858 1.38-7.89 3.4-3.533 3.527-4.21 8.75-2.548 12.767.598 1.44 1.568 2.733 2.733 3.848-.095-.003-.208-.005-.323-.005-1.567 0-3.062.31-4.43.872l.078-.027c-4.018 1.662-7.233 5.832-7.233 10.827 0 4.99 3.218 9.163 7.233 10.828 1.457.602 3.08.832 4.712.787-1.19 1.128-2.167 2.44-2.772 3.9-1.663 4.018-.983 9.24 2.547 12.768 3.528 3.532 8.75 4.21 12.767 2.547 1.458-.602 2.768-1.587 3.893-2.772-.048 1.632.19 3.257.793 4.712 1.662 4.018 5.832 7.233 10.827 7.233 4.99 0 9.162-3.218 10.827-7.233.508-1.252.806-2.702.806-4.225 0-.175-.006-.347-.013-.52v.025c1.127 1.188 2.433 2.178 3.893 2.78 4.017 1.663 9.239.983 12.767-2.547 3.533-3.528 4.21-8.75 2.547-12.768-.675-1.527-1.615-2.822-2.772-3.885l-.007-.007c.147.007.32.01.495.01 1.52 0 2.972-.295 4.302-.833l-.077.028c4.017-1.663 7.232-5.833 7.232-10.828 0-4.99-3.218-9.162-7.232-10.827-1.248-.505-2.696-.798-4.213-.798-.177 0-.352.005-.528.013h.025c1.19-1.128 2.168-2.44 2.773-3.9 1.662-4.018.982-9.24-2.548-12.768-2.032-2.02-4.802-3.3-7.872-3.4h-.018c-.14-.005-.305-.01-.467-.01-1.59 0-3.105.318-4.485.893l.078-.028c-1.458.603-2.768 1.583-3.893 2.773.007-.145.01-.318.01-.49 0-1.52-.295-2.973-.83-4.3l.027.077c-1.662-4.017-5.832-7.232-10.827-7.232z"/><path d="m49.865 15.378c.042 0 .09-.002.138-.002 3.502 0 6.339 2.837 6.339 6.34 0 1.75-.709 3.335-1.854 4.482v12.978l9.172-9.173c0-3.502 2.837-6.34 6.34-6.34 3.502 0 6.34 2.838 6.34 6.34 0 3.503-2.838 6.34-6.34 6.34l-9.173 9.173h12.978c1.147-1.145 2.73-1.853 4.48-1.853 3.503 0 6.34 2.838 6.34 6.34 0 3.503-2.837 6.34-6.34 6.34-1.75 0-3.333-.707-4.48-1.852h-12.978l9.173 9.172c3.502 0 6.34 2.838 6.34 6.34 0 3.503-2.838 6.34-6.34 6.34-3.503 0-6.34-2.837-6.34-6.34l-9.172-9.172v12.977c1.145 1.148 1.852 2.73 1.852 4.48 0 3.503-2.838 6.34-6.34 6.34-3.503 0-6.34-2.837-6.34-6.34 0-1.75.708-3.332 1.853-4.48v-12.977l-9.173 9.172c0 3.503-2.838 6.34-6.34 6.34s-6.34-2.837-6.34-6.34c0-3.502 2.838-6.34 6.34-6.34l9.173-9.172h-12.978c-1.147 1.145-2.73 1.852-4.48 1.852-3.502 0-6.34-2.837-6.34-6.34 0-3.502 2.838-6.34 6.34-6.34 1.75 0 3.333.708 4.48 1.853h12.978l-9.173-9.173c-3.502 0-6.34-2.837-6.34-6.34 0-3.502 2.838-6.34 6.34-6.34s6.34 2.838 6.34 6.34l9.173 9.173v-12.978c-1.148-1.147-1.855-2.732-1.855-4.482 0-3.455 2.762-6.263 6.197-6.338h.008z" fill="#fff"/></svg>