<svg fill="none" height="128" viewBox="0 0 128 128" width="128" xmlns="http://www.w3.org/2000/svg"><path d="m64.0039 25.602c-17.067 0-27.73 8.53-32 25.597 6.398-8.531 13.867-11.73 22.398-9.597 4.871 1.214 8.352 4.746 12.207 8.66 6.274 6.367 13.536 13.738 29.395 13.738 17.0661 0 27.7301-8.531 32.0001-25.602-6.399 8.536-13.867 11.735-22.399 9.602-4.87-1.215-8.3471-4.746-12.2071-8.66-6.27-6.367-13.53-13.738-29.394-13.738zm-32 38.398c-17.066 0-27.72999 8.531-31.99999375 25.602 6.39800375-8.536 13.86599375-11.735 22.39799375-9.602 4.871 1.215 8.352 4.746 12.207 8.66 6.274 6.367 13.536 13.738 29.395 13.738 17.066 0 27.73-8.53 32-25.597-6.399 8.531-13.867 11.73-22.399 9.597-4.87-1.214-8.347-4.746-12.207-8.66-6.27-6.367-13.53-13.738-29.394-13.738z" fill="#38b2ac"/></svg>