<svg viewBox="0 0 32 32" xmlns="http://www.w3.org/2000/svg"><g fill="#000001"><ellipse rx="6.69" ry=".68" transform="matrix(.99999848 .00174533 -.00174533 .99999848 16 2.26)"/><rect height="1.84" rx=".89" width="23.14" x="4.46" y="5.13"/><rect height="1.9" rx=".93" transform="matrix(.99999848 -.00174533 .00174533 .99999848 16 10.04)" width="27.92" x="-13.96" y="-.95"/><rect height="1.94" rx=".95" transform="matrix(.99999848 -.00174533 .00174533 .99999848 16.06 14.03)" width="29.9" x="-14.95" y="-.97"/><rect height="1.96" rx=".97" transform="matrix(.99999848 -.00174533 .00174533 .99999848 16.03 18.01)" width="29.96" x="-14.98" y="-.98"/><path d="m28.58 23-25.36-.01a.64.64 0 0 1 -.48-.22l-.59-.66a.64.64 0 0 1 .48-1.06l26.87-.07a.64.64 0 0 1 .4 1.14l-.91.74a.64.64 0 0 1 -.41.14z"/><path d="m27.57 25.02a.1.1 0 0 1 .1.1v.04a3.01 1.84-0 0 1 -3.01 1.84h-17.36a3.01 1.84 0 0 1 -3.01-1.84v-.04a.1.1 0 0 1 .1-.1z"/><ellipse rx="6.52" ry=".87" transform="matrix(.99997563 .00698126 -.00698126 .99997563 16.03 29.73)"/></g></svg>