<svg height="100pt" viewBox="0 0 100 100" width="100pt" xmlns="http://www.w3.org/2000/svg"><path d="m0 50v50h100v-100h-100z" fill="#007acc"/><g fill="#fff"><path d="m72.073 43.349c2.2.55 3.875 1.527 5.415 3.121.798.852 1.981 2.403 2.076 2.779.03.108-3.738 2.633-6.019 4.051-.084.054-.414-.303-.782-.852-1.118-1.624-2.284-2.325-4.07-2.447-2.628-.181-4.317 1.194-4.301 3.489-.002.04-.002.086-.002.135 0 .544.138 1.058.378 1.508l-.008-.017c.577 1.194 1.654 1.914 5.015 3.367 6.203 2.671 8.855 4.427 10.503 6.928 1.841 2.79 2.255 7.245 1.004 10.558-1.372 3.602-4.782 6.048-9.58 6.855-1.483.262-5.001.224-6.595-.065-3.478-.62-6.777-2.339-8.812-4.593-.798-.877-2.352-3.174-2.254-3.337.04-.057.397-.279.792-.509.39-.219 1.843-1.061 3.218-1.859l2.49-1.442.522.771c.728 1.112 2.32 2.639 3.283 3.147 2.763 1.459 6.558 1.253 8.425-.424.696-.588 1.134-1.462 1.134-2.436 0-.057-.003-.114-.005-.168v.008c0-1.004-.128-1.442-.65-2.2-.671-.961-2.046-1.767-5.951-3.464-4.468-1.924-6.39-3.118-8.152-5.015-1.061-1.204-1.878-2.655-2.357-4.249l-.022-.081c-.327-1.223-.411-4.29-.151-5.524.92-4.319 4.179-7.326 8.879-8.219 1.527-.289 5.075-.181 6.571.192z"/><path d="m51.743 46.965.03 3.548h-11.278v32.029h-7.975v-32.029h-11.267v-3.478c0-1.927.041-3.537.095-3.572.043-.057 6.904-.087 15.218-.073l15.136.043z"/></g></svg>