<?xml version="1.0" encoding="UTF-8" standalone="no"?><!-- Generator: Gravit.io --><svg xmlns="http://www.w3.org/2000/svg" xmlns:xlink="http://www.w3.org/1999/xlink" style="isolation:isolate" viewBox="0 0 100 100" width="100pt" height="100pt"><path d=" M 0 50 L 0 100 L 100 100 L 100 0 L 0 0 L 0 50 Z " fill="rgb(0,122,204)"/><g><path d=" M 72.073 43.349 C 74.273 43.899 75.948 44.876 77.488 46.47 C 78.286 47.322 79.469 48.873 79.564 49.249 C 79.594 49.357 75.826 51.882 73.545 53.3 C 73.461 53.354 73.131 52.997 72.763 52.448 C 71.645 50.824 70.479 50.123 68.693 50.001 C 66.065 49.82 64.376 51.195 64.392 53.49 C 64.39 53.53 64.39 53.576 64.39 53.625 C 64.39 54.169 64.528 54.683 64.768 55.133 L 64.76 55.116 C 65.337 56.31 66.414 57.03 69.775 58.483 C 75.978 61.154 78.63 62.91 80.278 65.411 C 82.119 68.201 82.533 72.656 81.282 75.969 C 79.91 79.571 76.5 82.017 71.702 82.824 C 70.219 83.086 66.701 83.048 65.107 82.759 C 61.629 82.139 58.33 80.42 56.295 78.166 C 55.497 77.289 53.943 74.992 54.041 74.829 C 54.081 74.772 54.438 74.55 54.833 74.32 C 55.223 74.101 56.676 73.259 58.051 72.461 L 60.541 71.019 L 61.063 71.79 C 61.791 72.902 63.383 74.429 64.346 74.937 C 67.109 76.396 70.904 76.19 72.771 74.513 C 73.467 73.925 73.905 73.051 73.905 72.077 C 73.905 72.02 73.902 71.963 73.9 71.909 L 73.9 71.917 C 73.9 70.913 73.772 70.475 73.25 69.717 C 72.579 68.756 71.204 67.95 67.299 66.253 C 62.831 64.329 60.909 63.135 59.147 61.238 C 58.086 60.034 57.269 58.583 56.79 56.989 L 56.768 56.908 C 56.441 55.685 56.357 52.618 56.617 51.384 C 57.537 47.065 60.796 44.058 65.496 43.165 C 67.023 42.876 70.571 42.984 72.067 43.357 L 72.073 43.349 Z " fill="rgb(255,255,255)"/><path d=" M 51.743 46.965 L 51.773 50.513 L 40.495 50.513 L 40.495 82.542 L 32.52 82.542 L 32.52 50.513 L 21.253 50.513 L 21.253 47.035 C 21.253 45.108 21.294 43.498 21.348 43.463 C 21.391 43.406 28.252 43.376 36.566 43.39 L 51.702 43.433 L 51.743 46.965 Z " fill="rgb(255,255,255)"/></g></svg>