<?xml version="1.0" encoding="UTF-8" standalone="no"?><!-- Generator: Gravit.io --><svg xmlns="http://www.w3.org/2000/svg" xmlns:xlink="http://www.w3.org/1999/xlink" style="isolation:isolate" viewBox="0 0 100 100" width="100pt" height="100pt"><path d=" M 66.293 15.185 C 66.275 15.185 66.253 15.185 66.231 15.185 C 65.093 15.185 64.056 15.621 63.276 16.332 L 63.281 16.33 C 63.281 16.33 63.281 16.33 63.279 16.33 C 63.276 16.33 63.279 16.33 63.276 16.33 L 63.276 16.33 C 63.224 16.374 63.176 16.417 63.13 16.461 L 63.13 16.461 L 39.876 42.175 L 26.304 31.047 L 25.115 30.024 C 24.614 29.606 23.962 29.35 23.25 29.35 C 22.845 29.35 22.46 29.433 22.11 29.582 L 22.13 29.575 C 22.099 29.586 22.088 29.593 22.075 29.597 L 22.095 29.591 L 16.795 31.78 C 16.701 31.819 16.626 31.852 16.554 31.889 L 16.57 31.883 C 16.51 31.916 16.464 31.944 16.421 31.972 L 16.432 31.966 C 16.379 31.994 16.344 32.016 16.309 32.038 L 16.322 32.032 C 16.265 32.069 16.219 32.102 16.175 32.137 L 16.182 32.132 C 16.145 32.161 16.114 32.183 16.086 32.207 L 16.09 32.202 C 16.042 32.24 16.003 32.275 15.961 32.31 L 15.963 32.307 C 15.924 32.34 15.891 32.373 15.858 32.404 L 15.858 32.404 C 15.827 32.434 15.797 32.469 15.768 32.502 L 15.766 32.507 C 15.736 32.539 15.705 32.577 15.674 32.612 L 15.67 32.616 C 15.639 32.653 15.606 32.695 15.574 32.736 L 15.569 32.743 C 15.552 32.767 15.528 32.8 15.506 32.833 L 15.499 32.844 C 15.473 32.881 15.442 32.929 15.414 32.979 L 15.407 32.993 C 15.394 33.012 15.374 33.045 15.357 33.078 L 15.35 33.093 C 15.333 33.124 15.311 33.172 15.287 33.22 L 15.28 33.238 C 15.267 33.264 15.247 33.306 15.23 33.349 L 15.223 33.369 C 15.212 33.391 15.197 33.435 15.182 33.476 L 15.175 33.496 C 15.164 33.52 15.149 33.566 15.134 33.612 L 15.127 33.632 C 15.116 33.665 15.101 33.717 15.088 33.772 L 15.083 33.792 C 15.077 33.809 15.068 33.848 15.057 33.888 L 15.053 33.908 C 15.046 33.943 15.037 33.997 15.031 34.052 L 15.028 34.067 C 15.024 34.1 15.018 34.151 15.011 34.201 L 15.011 34.212 C 15.004 34.284 15 34.367 15 34.453 L 15 65.563 C 15.007 66.762 15.738 67.789 16.775 68.231 L 16.795 68.238 L 22.095 70.464 C 22.425 70.606 22.813 70.687 23.215 70.687 C 23.942 70.687 24.605 70.422 25.115 69.985 L 25.111 69.989 L 26.302 68.967 L 39.874 57.838 L 63.13 83.552 C 63.195 83.615 63.263 83.677 63.333 83.736 L 63.34 83.74 C 63.39 83.786 63.445 83.834 63.5 83.88 L 63.506 83.887 C 63.55 83.92 63.605 83.961 63.662 84.001 L 63.677 84.009 C 63.723 84.044 63.784 84.086 63.845 84.128 L 63.861 84.139 C 63.905 84.167 63.966 84.202 64.029 84.237 L 64.051 84.248 C 64.093 84.274 64.154 84.307 64.218 84.342 L 64.242 84.353 C 64.281 84.373 64.347 84.403 64.412 84.432 L 64.441 84.443 C 64.48 84.463 64.548 84.493 64.616 84.52 L 64.644 84.53 C 64.684 84.548 64.754 84.572 64.826 84.594 L 64.857 84.603 C 64.89 84.616 64.953 84.636 65.019 84.653 L 65.049 84.66 C 65.095 84.675 65.174 84.695 65.253 84.712 L 65.281 84.719 C 65.319 84.727 65.384 84.743 65.452 84.756 L 65.478 84.76 C 65.527 84.769 65.603 84.78 65.678 84.789 L 65.697 84.791 C 65.752 84.798 65.827 84.806 65.903 84.811 L 65.916 84.811 C 65.978 84.815 66.05 84.817 66.126 84.819 L 66.131 84.819 C 66.164 84.819 66.203 84.822 66.242 84.822 C 66.282 84.822 66.321 84.822 66.361 84.819 L 66.354 84.819 C 66.442 84.815 66.52 84.811 66.599 84.804 L 66.582 84.806 C 66.665 84.8 66.733 84.793 66.798 84.784 L 66.777 84.787 C 66.886 84.773 66.974 84.758 67.059 84.741 L 67.03 84.745 C 67.118 84.73 67.177 84.719 67.234 84.703 L 67.206 84.71 C 67.315 84.684 67.394 84.662 67.47 84.638 L 67.44 84.646 C 67.538 84.62 67.604 84.601 67.67 84.579 L 67.639 84.587 C 67.738 84.552 67.805 84.524 67.871 84.495 L 67.843 84.506 C 67.959 84.463 68.046 84.425 68.129 84.388 L 68.103 84.399 L 82.526 77.464 C 83.071 77.197 83.531 76.843 83.908 76.414 L 83.912 76.409 C 84 76.311 84.085 76.206 84.166 76.094 L 84.175 76.081 C 84.168 76.094 84.17 76.087 84.175 76.081 L 84.186 76.059 C 84.26 75.956 84.337 75.838 84.409 75.715 L 84.42 75.693 C 84.475 75.602 84.534 75.488 84.591 75.369 L 84.602 75.343 C 84.599 75.35 84.608 75.334 84.617 75.317 L 84.628 75.293 C 84.661 75.221 84.702 75.116 84.737 75.01 L 84.746 74.98 C 84.75 74.973 84.764 74.938 84.777 74.903 L 84.788 74.873 C 84.812 74.8 84.842 74.695 84.869 74.59 L 84.875 74.56 C 84.877 74.553 84.886 74.518 84.895 74.481 L 84.901 74.45 C 84.917 74.38 84.934 74.282 84.947 74.181 L 84.95 74.157 C 84.954 74.135 84.963 74.085 84.969 74.034 L 84.972 74.01 C 84.978 73.938 84.985 73.846 84.989 73.752 L 84.989 73.743 C 84.993 73.68 84.998 73.599 85 73.518 L 85 73.511 L 85 26.489 C 85 26.489 85 26.487 85 26.487 C 85 26.487 85 26.485 85 26.485 L 85 26.485 C 85 26.471 85 26.454 85 26.439 C 85 26.423 85 26.406 85 26.39 L 85 26.393 C 84.998 26.235 84.987 26.084 84.969 25.933 L 84.972 25.955 C 84.781 24.442 83.844 23.186 82.546 22.551 L 82.52 22.54 L 68.101 15.607 C 67.569 15.347 66.945 15.189 66.286 15.178 L 66.282 15.178 L 66.293 15.185 Z  M 67.51 35.184 L 67.51 64.829 L 49.429 50.008 L 67.51 35.184 Z  M 23.754 40.013 L 32.792 50.01 L 23.754 60.003 L 23.754 40.013 Z " fill="rgb(92,45,145)"/></svg>