<svg height="100pt" viewBox="0 0 100 100" width="100pt" xmlns="http://www.w3.org/2000/svg" xmlns:xlink="http://www.w3.org/1999/xlink"><filter id="a" color-interpolation-filters="sRGB" height="400%" width="400%" x="-200%" y="-200%"><feGaussianBlur in="SourceGraphic" stdDeviation="10.6667" xmlns="http://www.w3.org/2000/svg"/><feOffset dx="0" dy="0" result="pf_100_offsetBlur" xmlns="http://www.w3.org/2000/svg"/><feFlood flood-opacity="0" xmlns="http://www.w3.org/2000/svg"/><feComposite in2="pf_100_offsetBlur" operator="in" result="pf_100_dropShadow" xmlns="http://www.w3.org/2000/svg"/><feBlend in="SourceGraphic" in2="pf_100_dropShadow" mode="normal" xmlns="http://www.w3.org/2000/svg"/></filter><clipPath id="b"><path d="m62.547 79.59c.945.368 2.023.345 2.977-.114l12.353-5.944c1.298-.625 2.123-1.939 2.123-3.38v-40.304c0-1.441-.825-2.755-2.123-3.38l-12.353-5.944c-1.252-.602-2.717-.455-3.816.344-.157.114-.306.242-.447.382l-23.648 21.575-10.301-7.819c-.959-.728-2.3-.669-3.19.142l-3.304 3.005c-1.09.991-1.091 2.705-.003 3.697l8.933 8.15-8.933 8.15c-1.088.992-1.087 2.706.003 3.697l3.304 3.005c.89.81 2.231.87 3.19.142l10.301-7.819 23.648 21.575c.375.374.814.656 1.286.84zm2.462-43.211-17.944 13.621 17.944 13.621z"/></clipPath><filter id="c" color-interpolation-filters="sRGB" height="400%" width="400%" x="-200%" y="-200%"><feGaussianBlur in="SourceGraphic" stdDeviation="10.6667" xmlns="http://www.w3.org/2000/svg"/><feOffset dx="0" dy="0" result="pf_100_offsetBlur" xmlns="http://www.w3.org/2000/svg"/><feFlood flood-opacity="0" xmlns="http://www.w3.org/2000/svg"/><feComposite in2="pf_100_offsetBlur" operator="in" result="pf_100_dropShadow" xmlns="http://www.w3.org/2000/svg"/><feBlend in="SourceGraphic" in2="pf_100_dropShadow" mode="normal" xmlns="http://www.w3.org/2000/svg"/></filter><linearGradient id="d" gradientTransform="matrix(60 0 0 59.691 19.963 20.155)" gradientUnits="userSpaceOnUse" x1=".5" x2=".5" y1="0" y2=".999999"><stop offset="0" stop-color="#fff"/><stop offset="1" stop-color="#fff" stop-opacity="0"/></linearGradient><path d="m0 0h100v100h-100z"/><g clip-path="url(#b)"><path d="m77.877 26.478-12.363-5.953c-1.431-.689-3.141-.398-4.264.725l-40.471 36.9c-1.089.992-1.087 2.706.003 3.697l3.305 3.005c.892.81 2.234.87 3.193.142l48.736-36.972c1.635-1.241 3.984-.074 3.984 1.978v-.144c0-1.44-.825-2.753-2.123-3.378z" fill="#0065a9"/><g filter="url(#a)"><path d="m77.877 73.522-12.363 5.953c-1.431.689-3.141.398-4.264-.725l-40.471-36.9c-1.089-.992-1.087-2.706.003-3.697l3.305-3.005c.892-.811 2.234-.87 3.193-.142l48.736 36.972c1.635 1.24 3.984.074 3.984-1.978v.144c0 1.44-.825 2.753-2.123 3.378z" fill="#007acc"/></g><g filter="url(#c)"><path d="m65.515 79.476c-1.432.688-3.142.397-4.265-.726 1.384 1.384 3.75.404 3.75-1.553v-54.394c0-1.957-2.366-2.937-3.75-1.553 1.123-1.123 2.833-1.414 4.265-.726l12.36 5.944c1.299.625 2.125 1.939 2.125 3.38v40.304c0 1.441-.826 2.755-2.125 3.38z" fill="#1f9cf0"/></g><path d="m62.51 79.59c.945.368 2.023.345 2.977-.114l12.353-5.944c1.298-.625 2.123-1.939 2.123-3.38v-40.304c0-1.441-.825-2.755-2.123-3.38l-12.353-5.944c-1.252-.602-2.717-.455-3.816.344-.156.114-.306.242-.446.382l-23.649 21.575-10.3-7.819c-.959-.728-2.3-.669-3.191.142l-3.304 3.005c-1.089.991-1.09 2.705-.003 3.697l8.934 8.15-8.934 8.15c-1.087.992-1.086 2.706.003 3.697l3.304 3.005c.891.81 2.232.87 3.191.142l10.3-7.819 23.649 21.575c.374.374.813.656 1.285.84zm2.463-43.211-17.944 13.621 17.944 13.621z" fill="url(#d)" fill-rule="evenodd" opacity=".0625"/></g></svg>