<svg fill="none" height="100" viewBox="0 0 100 100" width="100" xmlns="http://www.w3.org/2000/svg" xmlns:xlink="http://www.w3.org/1999/xlink"><linearGradient id="a" gradientUnits="userSpaceOnUse" x1="47.9561" x2="47.9561" y1="9.21856" y2="90.7828"><stop offset="0" stop-color="#fff"/><stop offset="1" stop-color="#fff" stop-opacity="0"/></linearGradient><path d="m86.099 17.8586-16.8933-8.13444c-1.9554-.94148-4.292-.54384-5.8265.99064l-55.30131 50.4218c-1.48806 1.3555-1.48533 3.6976.00409 5.0517l4.51612 4.1062c1.2188 1.1068 3.0526 1.1888 4.363.194l66.595-50.5201c2.2341-1.6958 5.4439-.1011 5.4439 2.7028v-.1968c0-1.9676-1.1273-3.7618-2.901-4.6158z" fill="#0065a9"/><path d="m86.099 82.1415-16.8933 8.1344c-1.9554.9415-4.292.5438-5.8265-.9907l-55.30131-50.4217c-1.48806-1.3555-1.48533-3.6976.00409-5.0518l4.51612-4.1061c1.2188-1.1082 3.0526-1.1888 4.363-.1941l66.595 50.5202c2.2341 1.6943 5.4439.1011 5.4439-2.7029v.1968c0 1.9677-1.1273 3.7618-2.901 4.6159z" fill="#007acc"/><path d="m69.207 90.2773c-1.9567.9401-4.2933.5425-5.8278-.992 1.8911 1.8911 5.1241.552 5.1241-2.1221v-74.3263c0-2.6741-3.233-4.01324-5.1241-2.1221 1.5345-1.53449 3.8711-1.93213 5.8278-.99202l16.8893 8.12212c1.775.854 2.9037 2.6496 2.9037 4.6186v55.0731c0 1.969-1.1287 3.7645-2.9037 4.6186z" fill="#1f9cf0"/><path clip-rule="evenodd" d="m65.1009 90.4331c1.2912.5028 2.7643.4714 4.0679-.1558l16.8796-8.1221c1.7737-.8541 2.901-2.6496 2.901-4.6186v-55.0731c0-1.9691-1.1273-3.7646-2.901-4.6186l-16.8796-8.12212c-1.7108-.8226-3.7127-.62173-5.2144.47002-.2132.1558-.4181.3307-.6094.522l-32.315 29.481-14.0744-10.6842c-1.3104-.9948-3.1428-.9141-4.3603.194l-4.51473 4.1062c-1.48806 1.3541-1.48942 3.6962-.0041 5.0517l12.20783 11.1365-12.20783 11.1366c-1.48532 1.3555-1.48396 3.6975.0041 5.0517l4.51473 4.1061c1.2175 1.1069 3.0499 1.1889 4.3603.1941l14.0744-10.6842 32.315 29.481c.511.511 1.1109.8964 1.7559 1.1478zm3.3655-59.0454-24.5194 18.6123 24.5194 18.6124z" fill="url(#a)" fill-rule="evenodd" opacity=".0625"/></svg>