<svg height="100pt" viewBox="0 0 100 100" width="100pt" xmlns="http://www.w3.org/2000/svg"><path d="m66.293 15.185c-.018 0-.04 0-.062 0-1.138 0-2.175.436-2.955 1.147l.005-.002s0 0-.002 0c-.003 0 0 0-.003 0-.052.044-.1.087-.146.131l-23.254 25.714-13.572-11.128-1.189-1.023c-.501-.418-1.153-.674-1.865-.674-.405 0-.79.083-1.14.232l.02-.007c-.031.011-.042.018-.055.022l.02-.006-5.3 2.189c-.094.039-.169.072-.241.109l.016-.006c-.06.033-.106.061-.149.089l.011-.006c-.053.028-.088.05-.123.072l.013-.006c-.057.037-.103.07-.147.105l.007-.005c-.037.029-.068.051-.096.075l.004-.005c-.048.038-.087.073-.129.108l.002-.003c-.039.033-.072.066-.105.097-.031.03-.061.065-.09.098l-.002.005c-.03.032-.061.07-.092.105l-.004.004c-.031.037-.064.079-.096.12l-.005.007c-.017.024-.041.057-.063.09l-.007.011c-.026.037-.057.085-.085.135l-.007.014c-.013.019-.033.052-.05.085l-.007.015c-.017.031-.039.079-.063.127l-.007.018c-.013.026-.033.068-.05.111l-.007.02c-.011.022-.026.066-.041.107l-.007.02c-.011.024-.026.07-.041.116l-.007.02c-.011.033-.026.085-.039.14l-.005.02c-.006.017-.015.056-.026.096l-.004.02c-.007.035-.016.089-.022.144l-.003.015c-.004.033-.01.084-.017.134v.011c-.007.072-.011.155-.011.241v31.11c.007 1.199.738 2.226 1.775 2.668l.02.007 5.3 2.226c.33.142.718.223 1.12.223.727 0 1.39-.265 1.9-.702l-.004.004 1.191-1.022 13.572-11.129 23.256 25.714c.065.063.133.125.203.184l.007.004c.05.046.105.094.16.14l.006.007c.044.033.099.074.156.114l.015.008c.046.035.107.077.168.119l.016.011c.044.028.105.063.168.098l.022.011c.042.026.103.059.167.094l.024.011c.039.02.105.05.17.079l.029.011c.039.02.107.05.175.077l.028.01c.04.018.11.042.182.064l.031.009c.033.013.096.033.162.05l.03.007c.046.015.125.035.204.052l.028.007c.038.008.103.024.171.037l.026.004c.049.009.125.02.2.029l.019.002c.055.007.13.015.206.02h.013c.062.004.134.006.21.008h.005c.033 0 .072.003.111.003.04 0 .079 0 .119-.003h-.007c.088-.004.166-.008.245-.015l-.017.002c.083-.006.151-.013.216-.022l-.021.003c.109-.014.197-.029.282-.046l-.029.004c.088-.015.147-.026.204-.042l-.028.007c.109-.026.188-.048.264-.072l-.03.008c.098-.026.164-.045.23-.067l-.031.008c.099-.035.166-.063.232-.092l-.028.011c.116-.043.203-.081.286-.118l-.026.011 14.423-6.935c.545-.267 1.005-.621 1.382-1.05l.004-.005c.088-.098.173-.203.254-.315l.009-.013c-.007.013-.005.006 0 0l.011-.022c.074-.103.151-.221.223-.344l.011-.022c.055-.091.114-.205.171-.324l.011-.026c-.003.007.006-.009.015-.026l.011-.024c.033-.072.074-.177.109-.283l.009-.03c.004-.007.018-.042.031-.077l.011-.03c.024-.073.054-.178.081-.283l.006-.03c.002-.007.011-.042.02-.079l.006-.031c.016-.07.033-.168.046-.269l.003-.024c.004-.022.013-.072.019-.123l.003-.024c.006-.072.013-.164.017-.258v-.009c.004-.063.009-.144.011-.225v-.007-47.022-.002-.002c0-.014 0-.031 0-.046 0-.016 0-.033 0-.049v.003c-.002-.158-.013-.309-.031-.46l.003.022c-.191-1.513-1.128-2.769-2.426-3.404l-.026-.011-14.419-6.933c-.532-.26-1.156-.418-1.815-.429h-.004zm1.217 19.999v29.645l-18.081-14.821zm-43.756 4.829 9.038 9.997-9.038 9.993z" fill="#5c2d91"/></svg>