<svg fill="none" viewBox="0 0 504 504" xmlns="http://www.w3.org/2000/svg" xmlns:xlink="http://www.w3.org/1999/xlink"><linearGradient id="a" gradientUnits="userSpaceOnUse" x1="53" x2="282" y1="110" y2="421"><stop offset="0" stop-color="#41d1ff"/><stop offset="1" stop-color="#bd34fe"/></linearGradient><linearGradient id="b" gradientUnits="userSpaceOnUse" x1="241.7" x2="283.1" y1="85.8" y2="370"><stop offset="0" stop-color="#ffea83"/><stop offset=".1" stop-color="#ffdd35"/><stop offset="1" stop-color="#ffa800"/></linearGradient><path d="m446.6 136.5-184 329a10 10 0 0 1 -17.4.1l-187.6-329a10 10 0 0 1 10.4-14.8l184.2 32.9c1.2.2 2.4.2 3.6 0l180.2-32.9a10 10 0 0 1 10.5 14.7z" fill="url(#a)"/><path d="m340 78.6-136.2 26.7a5 5 0 0 0 -4 4.6l-8.4 141.4a5 5 0 0 0 6.1 5.2l38-8.8a5 5 0 0 1 6 6l-11.3 55a5 5 0 0 0 6.3 5.9l23.4-7.2a5 5 0 0 1 6.4 5.8l-17.9 86.8c-1.1 5.4 6 8.3 9 3.7l2.1-3.1 111-221.4a5 5 0 0 0 -5.5-7.2l-39 7.6a5 5 0 0 1 -5.7-6.3l25.4-88.3c1-3.6-2-7-5.7-6.3z" fill="url(#b)"/></svg>