<svg height="100pt" viewBox="0 0 100 100" width="100pt" xmlns="http://www.w3.org/2000/svg"><path d="m0 0h100v100h-100z" fill="#2b3a42"/><path d="m50 15 30.935 17.498v35.004l-30.935 17.498-30.935-17.498v-35.004z" fill="#fff"/><path d="m75.412 66.295-24.389 13.797v-10.743l15.196-8.362zm1.67-1.511v-28.849l-8.921 5.156v18.545zm-52.59 1.511 24.389 13.797v-10.743l-15.204-8.362zm-1.67-1.511v-28.849l8.921 5.156v18.545zm1.047-30.719 25.012-14.149v10.384l-16.027 8.817-.128.072zm52.166 0-25.012-14.149v10.384l16.027 8.809.128.072z" fill="#8ed6fb"/><path d="m48.881 66.902-14.996-8.249v-16.331l14.996 8.657zm2.142 0 14.996-8.241v-16.339l-14.996 8.657zm-16.123-26.466 15.052-8.274 15.052 8.274-15.052 8.689z" fill="#1c78c0"/></svg>