<svg fill="none" height="737" viewBox="0 0 737 737" width="737" xmlns="http://www.w3.org/2000/svg" xmlns:xlink="http://www.w3.org/1999/xlink"><linearGradient id="a" gradientUnits="userSpaceOnUse" x1="368.5" x2="368.5" y1="0" y2="737"><stop offset=".00225706" stop-color="#2b5355"/><stop offset="1"/></linearGradient><linearGradient id="b" gradientUnits="userSpaceOnUse" x1="313.304" x2="478.583" y1="336.433" y2="878.358"><stop offset="0" stop-color="#fff"/><stop offset="1" stop-color="#eee"/></linearGradient><path d="m0 368.5c0-203.517 164.983-368.5 368.5-368.5 203.517 0 368.5 164.983 368.5 368.5 0 203.517-164.983 368.5-368.5 368.5-203.517 0-368.5-164.983-368.5-368.5z" fill="url(#a)"/><path d="m354.769 119.836-23.286 23.413-.554.557c-2.817 2.87-3.043 7.373-.529 10.476l17.358 21.446c.291.356.538.724.758 1.104 1.461 2.684 1.294 6.047-.632 8.485-11.165 14.536-19.319 31.102-23.965 48.817-.203.713-.496 1.396-.871 2.035-1.421 2.347-4.058 3.833-6.877 3.805l-23.028-.447c-3.033-.035-5.783 1.698-7.13 4.268-.385.794-.701 1.686-.826 2.638l-4.236 33.443c-.529 4.104 2.222 8.003 6.323 8.864l29.964 6.413c1.445.31 2.773 1.026 3.826 2.063s1.788 2.353 2.12 3.792c1.046 4.231 2.236 8.411 3.674 12.588 2.642 7.687 5.966 15.123 9.931 22.22l.016.038c1.626 2.912 1.311 6.455-.823 9.003l-19.958 23.836-.991 1.209c-2.59 3.037-2.411 7.647.473 10.498l23.936 23.816c2.936 2.879 7.581 3.147 10.782.553l23.883-19.278c2.653-2.149 6.386-2.359 9.21-.519 12.083 7.59 25.271 13.314 39.107 16.87 1.708.454 3.215 1.468 4.278 2.879 1.064 1.41 1.623 3.137 1.588 4.902l-.442 27.27c-.034 1.985.668 3.912 1.972 5.411 1.303 1.499 3.116 2.463 5.088 2.706l33.616 4.291c3.976.496 7.663-2.137 8.48-6.011l7.57-35.175c.627-2.987 2.915-5.344 5.88-6.105 3.683-.93 7.325-2.016 10.915-3.255 6.714-2.299 13.242-5.106 19.529-8.396 2.793-1.493 6.209-1.181 8.619.887l28.666 24.011c1.517 1.266 3.453 1.919 5.427 1.83 1.974-.088 3.844-.912 5.24-2.309l23.913-24.005c2.513-2.552 2.965-6.517 1.183-9.538-.187-.305-.39-.648-.656-.931l-21.412-26.495c-2.001-2.454-2.383-5.834-.905-8.62.121-.245.245-.497.412-.722.462-.695.904-1.343 1.307-2.1 5.269-8.288 9.633-17.117 13.016-26.336 1.079-3.1 4.109-5.13 7.442-5.036l28.834.476c4.086.084 7.578-2.972 8.083-7.033l.954-7.433 3.261-25.956c.539-4.069-2.168-7.85-6.194-8.744l-29.515-6.318c-3.159-.648-5.5-3.237-5.975-6.423-1.258-8.537-3.307-16.939-6.123-25.098-2.105-6.109-4.641-12.061-7.588-17.813l4.195-4.995 17.166-20.523c2.152-2.519 2.405-6.118.756-8.854-.337-.591-.76-1.128-1.256-1.594l-24.073-24.017c-2.875-2.816-7.401-2.998-10.524-.52l-16.297 13.203c-2.752 2.226-6.772 2.322-9.607.2-11.716-8.793-24.754-15.673-38.626-20.384-3.279-1.104-5.432-4.126-5.309-7.475l.576-34.4676c.023-1.8647-.641-3.673-1.866-5.0809s-2.924-2.317-4.776-2.5545l-33.989-4.2847c-4.029-.5156-7.75 2.1252-8.552 6.0366l-7.866 36.5991c-.648 3.156-3.176 5.555-6.378 6.115-6.83 1.189-13.649 2.992-20.459 5.329-3.63 1.245-7.206 2.639-10.721 4.18-1.342.582-2.819.783-4.268.58s-2.815-.801-3.945-1.73l-27.493-23.004c-1.527-1.296-3.485-1.971-5.487-1.893-2.001.079-3.9.906-5.319 2.317zm29.566 165.057c-5.942-26.543 1.717-50.856 16.77-65.856 52.853-52.495 136.154-12.772 129.502 60.362-1.938 18.7-11.415 36.634-30.823 50.056-45.263 30.951-104.055 6.165-115.449-44.562z" fill="#d9d9d9"/><path d="m282.636 509.665-4.73 19.142-.11.456c-.274 1.122-.123 2.306.424 3.326s1.452 1.804 2.542 2.203l15.548 5.667c.258.094.5.204.728.335 1.578.928 2.535 2.701 2.295 4.543-1.251 10.861-.307 21.867 2.775 32.369.122.438.178.88.181 1.311-.009.823-.231 1.629-.644 2.34-.413.712-1.004 1.305-1.715 1.722l-11.97 6.836c-.756.445-1.375 1.088-1.789 1.86-.414.771-.607 1.642-.558 2.516.045.527.161 1.079.391 1.608l8.163 18.439c.49 1.102 1.378 1.981 2.487 2.464 1.109.482 2.358.533 3.5.141l17.382-5.904c.838-.285 1.74-.325 2.602-.117.861.208 1.646.656 2.262 1.292 5.264 5.338 11.236 9.935 17.748 13.663l.017.015c.845.475 1.524 1.197 1.946 2.067s.566 1.848.414 2.801l-2.881 18.333-.134.924c-.395 2.352 1.125 4.657 3.489 5.235l19.674 4.851c2.398.572 4.865-.714 5.713-3.022l6.316-17.205c.336-.931.959-1.731 1.781-2.286.821-.555 1.799-.837 2.792-.804 8.564.192 17.103-.939 25.313-3.352 1.018-.291 2.105-.234 3.087.163.983.397 1.804 1.111 2.332 2.027l8.194 14.11c.596 1.028 1.553 1.801 2.686 2.169 1.133.369 2.362.307 3.45-.173l18.602-8.112c1.055-.463 1.897-1.303 2.36-2.355s.512-2.239.139-3.327l-6.981-20.347c-.292-.848-.34-1.758-.14-2.63s.64-1.671 1.272-2.306c4.6-4.616 8.642-9.753 12.043-15.306.973-1.626 2.828-2.511 4.703-2.191l22.153 3.511c1.171.183 2.368-.076 3.355-.728.987-.651 1.693-1.647 1.98-2.792l4.869-19.633c.24-1.009.14-2.069-.283-3.018s-1.147-1.733-2.06-2.234c-.192-.101-.401-.214-.622-.279l-19.197-7.01c-1.786-.643-3.027-2.261-3.126-4.14-.014-.165-.029-.328-.01-.496.023-.5.049-.966.021-1.477.146-5.862-.341-11.724-1.451-17.485-.402-1.922.525-3.89 2.269-4.868l14.963-8.597c2.123-1.21 2.974-3.851 1.979-6.086l-1.809-4.105-6.35-14.302c-.98-2.252-3.541-3.358-5.885-2.58l-17.123 5.817c-1.826.635-3.826.029-5.055-1.459-5.755-6.986-12.614-12.994-20.307-17.784l.612-3.846 2.477-15.786c.156-.939.014-1.904-.408-2.759-.421-.856-1.1-1.559-1.942-2.012-.357-.199-.74-.345-1.138-.434l-19.795-4.921c-2.346-.563-4.731.734-5.569 2.958l-4.294 11.766c-.726 1.982-2.761 3.268-4.878 3.051-8.739-.913-17.566-.44-26.15 1.401-2.027.438-4.069-.449-5.039-2.203l-10.358-17.84c-.566-.963-1.467-1.686-2.532-2.032s-2.219-.291-3.244.156l-18.792 8.23c-2.228.968-3.325 3.466-2.528 5.717l7.27 21.167c.641 1.819.085 3.82-1.386 5.089-3.142 2.705-6.091 5.721-8.866 9.008-1.481 1.751-2.889 3.563-4.218 5.431-.51.71-1.207 1.266-2.014 1.607-.808.341-1.694.453-2.563.324l-21.238-3.358c-1.185-.19-2.397.068-3.399.722-1.003.655-1.722 1.66-2.018 2.818zm66.218 75.519c-3.778-3.952-7.029-8.744-9.574-14.41-.556-1.195-1.028-2.595-1.457-4.085-1.765-6.444-2.128-14.762-.707-20.4 10.933-43.111 66.019-48.306 85.205-8.788.306.653.615 1.306.907 1.978 2.763 6.243 3.659 16.836 2.058 23.449-.805 3.323-1.92 6.564-3.329 9.679-13.69 29.745-51.567 35.077-73.103 12.577z" fill="url(#b)"/><path clip-rule="evenodd" d="m149.453 259.588-20.524 9.559-.489.228c-2.491 1.181-3.704 4.021-2.822 6.608l6.092 17.881c.102.296.175.59.225.887.305 2.07-.599 4.193-2.416 5.305-10.618 6.696-19.789 15.443-26.975 25.727-.3.41-.65.78-1.042 1.103-.742.584-1.6215.967-2.5547 1.111-.9331.144-1.8878.045-2.7713-.287l-14.7094-5.719c-.9409-.352-1.9606-.439-2.9477-.251-.9871.187-1.9037.641-2.6498 1.313-.4634.435-.8539.942-1.1567 1.5l-10.6418 20.499c-1.3141 2.512-.4662 5.668 1.9688 7.188l17.7598 11.189c.8563.541 1.5406 1.314 1.9725 2.229s.5936 1.934.4661 2.937c-.3386 2.976-.5443 5.965-.6165 8.959-.1194 5.565.2581 11.129 1.1281 16.626l.0012.027c.18 1.092.0217 2.213-.4537 3.212-.4755 1-1.2454 1.831-2.2068 2.382l-18.4847 10.614-.923.542c-2.3862 1.342-3.3616 4.347-2.1811 6.859l9.7617 20.956c1.2068 2.542 4.1308 3.81 6.8044 2.898l19.93-6.759c2.2166-.756 4.6676-.011 6.0486 1.838 5.978 7.728 13.106 14.519 21.166 20.067.992.695 1.721 1.702 2.071 2.86.35 1.157.301 2.399-.139 3.525l-6.741 17.425c-.492 1.268-.496 2.672-.013 3.943.484 1.271 1.422 2.319 2.633 2.941l20.612 10.685c2.441 1.256 5.437.433 6.88-1.863l13.198-20.825c.547-.868 1.327-1.565 2.251-2.014.924-.448 1.955-.63 2.977-.524 2.568.27 5.168.431 7.794.482 4.864.106 9.728-.159 14.552-.792 2.15-.3 4.275.706 5.335 2.603l12.757 22.195c.677 1.172 1.768 2.049 3.059 2.457 1.292.409 2.69.32 3.919-.249l21.067-9.789c1.075-.512 1.952-1.361 2.497-2.418.546-1.057.729-2.263.523-3.434l-.008-.037c-.045-.231-.095-.484-.194-.717l-7.503-22.081c-.706-2.049-.151-4.312 1.46-5.754l.01-.01c.133-.125.268-.253.425-.356.049-.036.098-.072.147-.108.408-.298.8-.584 1.191-.934 5.352-4.085 10.25-8.731 14.609-13.86 1.429-1.737 3.859-2.327 5.981-1.481l18.438 7.107c2.609 1.018 5.579-.124 6.866-2.614l2.374-4.554 8.243-15.915c1.31-2.489.465-5.557-1.914-7.081l-17.494-11.022c-1.879-1.162-2.773-3.378-2.323-5.537 1.212-5.785 1.882-11.669 2.002-17.577.092-4.424-.13-8.848-.665-13.241l3.882-2.221 15.903-9.144c.953-.535 1.715-1.354 2.178-2.342.463-.989.604-2.097.404-3.17-.076-.46-.221-.905-.43-1.321l-9.801-21.116c-1.183-2.488-4.051-3.673-6.648-2.815l-13.61 4.643c-2.299.781-4.907-.105-6.229-2.137-5.455-8.416-12.215-15.914-20.025-22.214-1.848-1.482-2.517-3.933-1.646-6.057l8.531-22.018c.457-1.194.457-2.512.003-3.706-.455-1.194-1.333-2.179-2.468-2.769l-20.853-10.771c-2.47-1.282-5.49-.462-6.932 1.863l-13.726 21.67c-1.163 1.876-3.358 2.822-5.55 2.427-4.676-.847-9.491-1.297-14.424-1.399-2.631-.056-5.262-.004-7.888.157-1.001.058-1.999-.161-2.883-.633-.885-.472-1.622-1.179-2.13-2.043l-12.241-21.27c-.676-1.193-1.776-2.09-3.082-2.511-1.306-.422-2.724-.339-3.971.233zm6.325 74.695c-13.237 6.092-23.92 19.913-26.383 38.377-4.678 35.294 27.278 65.092 63.727 55.872 15.664-4.049 26.008-13.343 31.682-24.906 21.596-45.441-22.593-90.621-69.026-69.343z" fill="#2ccbd3" fill-rule="evenodd"/></svg>