<svg height="100pt" viewBox="0 0 100 100" width="100pt" xmlns="http://www.w3.org/2000/svg"><path d="m0 0h100v100h-100z" fill="#fff"/><path d="m100 0h-100v100h100zm-46.8 17.103c.762 0 1.512.222 2.188.653.521.347 1.196.772 3.146 4.81 1.291-.366 1.95-.175 2.297-.078.85.234 1.525.79 1.928 1.562 1.988 3.822 2.26 10.638 1.391 15.022-1.003 5.134-3.147 8.453-4.712 10.734 1.349 1.372 3.24 3.747 4.653 7.603 1.159 3.225 1.29 6.16 1.137 8.397.991-.465 1.813-.922 2.6-1.425l-.094.057c2.472-1.526 6.197-3.822 10.638-3.879 2.975-.037 5.287 1.854 5.637 4.597.029.203.044.441.044.678 0 2.425-1.684 4.457-3.947 4.991l-.034.006c-2.703.66-3.959 1.16-7.588 3.513-5.134 3.322-10.578 5.175-12.55 5.79-.815.675-1.803 1.172-2.887 1.419l-.047.01c-3.072.753-13.609 1.312-14.441 1.312h-.19c-3.263 0-5.06-1.003-6.041-2.047-2.74 1.372-6.29.791-8.841-.559-1.484-.753-2.484-2.269-2.484-4.019 0-.278.025-.55.072-.813l-.003.029c-.231-.241-.441-.507-.625-.791l-.013-.022c-.675-1.041-2.2-3.9-1.89-8.109.234-3.013 2.315-5.697 3.665-7.125-.006-.207-.009-.45-.009-.694 0-3.137.628-6.131 1.766-8.856l-.057.153c1.275-3.028 3.688-5.616 5.5-7.238-1.334-2.237-2.684-5.696-1.372-9.209.947-2.509 1.716-3.9 3.416-4.5h-.022c.828-.309 1.622-.637 2.025-1.078 2.406-2.625 5.769-4.341 9.532-4.594l.043-.003c.153-.388.328-.772.522-1.178 1.291-2.741 2.663-4.288 4.266-4.866.406-.156.875-.247 1.365-.247h.016zm.025 2.919c-2.112.065-4.172 6.328-4.172 6.328s-5.291-.85-9.441 3.628c-.828.909-1.949 1.391-3.109 1.835-.328.115-.734.096-1.737 2.8-1.547 4.128 2.603 8.725 2.603 8.725s-4.941 3.496-6.775 7.837c-2.025 4.766-1.41 9.422-1.41 9.422s-3.512 3.05-3.746 6.197c-.213 2.762.578 5 1.428 6.312.946 1.428 2.125.735 2.125.735s-2.338 2.721-.154 3.878c1.988 1.04 5.347 1.64 7.126-.153 1.29-1.291 1.546-4.172 2.025-5.347.115-.272.499.462.871.828.404.387 1.1.812 1.1.812s-3.147 1.35-1.853 4.441c.425 1.025 1.95 1.678 4.441 1.659.925-.022 11.1-.578 13.803-1.234 1.562-.366 2.103-1.178 2.103-1.178s6.525-1.797 12.491-5.653c3.822-2.491 5.387-3.166 8.475-3.9 2.55-.616 2.375-4.575-1.003-4.516-3.497.038-6.563 1.834-9.15 3.438-4.847 2.99-7.26 2.8-7.26 2.8l-.075-.135c-.328-.54 1.547-5.387-.559-11.159-2.278-6.313-5.888-7.838-5.6-8.322 1.237-2.084 4.325-5.403 5.559-11.584.735-3.747.541-9.903-1.122-13.129-.309-.599-3.05 1.004-3.05 1.004s-2.565-5.713-3.284-6.179c-.178-.118-.394-.19-.631-.19-.01 0-.019 0-.032 0z" fill="#2c8ebb"/></svg>