<svg fill="none" height="80" viewBox="0 0 80 80" width="80" xmlns="http://www.w3.org/2000/svg"><path d="m72 0h-64c-4.41828 0-8 3.58172-8 8v64c0 4.4183 3.58172 8 8 8h64c4.4183 0 8-3.5817 8-8v-64c0-4.41828-3.5817-8-8-8z" fill="#ff4f00"/><g fill="#fffdf9"><path d="m11.2534 44.072-.0114-.0362 7.2126-6.603v-3.1816h-11.57144v3.1816h6.91164l.0114.0304-7.14214 6.6088v3.1814h11.90674v-3.1814z"/><path d="m25.6725 33.9492c-1.3348 0-2.4226.2012-3.2634.6038-.7832.351-1.443.929-1.8936 1.6594-.4312.7352-.7019 1.5532-.7945 2.4004l3.5111.4934c.127-.748.381-1.2782.762-1.5908.4332-.3266.9668-.4918 1.5088-.4666.7126 0 1.2294.1904 1.5508.5714.3182.381.48.9088.48 1.6042v.3466h-3.3758c-1.7184 0-2.9528.381-3.7034 1.1432-.7506.762-1.1253 1.7678-1.124 3.0176 0 1.2802.3747 2.2328 1.124 2.8576.7494.6248 1.6916.9354 2.8272.9316 1.4084 0 2.4918-.4846 3.25-1.4536.4478-.5956.7676-1.2772.9392-2.0022h.1276l.484 3.1814h3.1814v-8.0566c0-1.665-.4388-2.9548-1.3164-3.8692s-2.3026-1.3716-4.275-1.3716zm1.1126 9.9312c-.505.421-1.166.6306-1.989.6306-.6782 0-1.1494-.1188-1.4136-.3564-.1286-.1122-.231-.2516-.2998-.408s-.1024-.326-.0982-.4968c-.0076-.1612.0178-.322.0744-.473s.1434-.2888.2552-.4052c.1206-.1132.263-.2008.4186-.2576.1556-.0566.321-.0812.4862-.072h3.3206v.219c.0066.3098-.0578.6168-.1886.8976s-.3244.5276-.5658.7218z"/><path d="m50.4955 34.2512h-3.7588v13.0042h3.7588z"/><path d="m72.7023 34.2512c-1.0616 0-1.8986.3748-2.5108 1.124-.4394.5386-.7734 1.3342-1.002 2.3872h-.1106l-.4914-3.5112h-3.2102v13.0022h3.7588v-6.6678c0-.8408.1969-1.4852.5906-1.9336.3936-.4484 1.1203-.6724 2.1795-.6724h1.4267v-3.7284z"/><path d="m61.6345 34.6753c-.8776-.522-1.9845-.7822-3.3205-.781-2.1032 0-3.7492.5988-4.938 1.7964-1.1888 1.1978-1.7832 2.8488-1.7832 4.9532-.0302 1.2724.2477 2.5332.8097 3.675.5145 1.0174 1.3159 1.8618 2.3051 2.429.9958.5752 2.18.8636 3.553.8648 1.1876 0 2.1794-.1828 2.9758-.5486.7486-.3286 1.4007-.8434 1.8937-1.4956.4693-.64.8181-1.3606 1.0287-2.126l-3.2388-.9068c-.1362.4978-.3986.9518-.762 1.3184-.3658.3656-.9786.5486-1.8384.5486-1.0224 0-1.7843-.2928-2.2859-.8782-.364-.423-.5927-1.0268-.6935-1.8098h8.868c.0362-.3658.0553-.6726.0553-.9202v-.8096c.0215-1.0878-.2033-2.1662-.6573-3.155-.425-.9006-1.1121-1.6516-1.9717-2.1546zm-3.4291 2.3186c1.524 0 2.3883.7498 2.5929 2.2498h-5.3914c.0856-.5004.2929-.9722.6037-1.3736.4942-.5854 1.2256-.8776 2.1948-.8762z"/><path d="m48.661 29.0108c-.2828-.0098-.5646.0376-.8288.139-.2642.1016-.5052.255-.7088.4516-.2008.1982-.3582.4362-.462.6986-.104.2624-.1524.5436-.142.8256-.01.2838.0384.5668.1424.831.1042.2644.2616.5044.4624.7052.201.2008.4412.358.7056.4618s.5474.152.8312.1416c.282.0106.5632-.0376.8256-.1416.2626-.104.5004-.2614.6986-.4624.1966-.203.3502-.4438.4514-.7076.101-.264.1478-.5456.1374-.828.013-.2808-.0328-.5612-.1342-.8234-.1014-.262-.2564-.5002-.4552-.699-.1986-.1988-.4366-.354-.6986-.4556-.262-.1018-.5442-.1496-.825-.1368z"/><path d="m40.8957 33.8943c-1.2802 0-2.3088.402-3.0862 1.2058-.5752.5958-.9976 1.4848-1.2668 2.6672h-.12l-.4916-3.511h-3.21v16.7342h3.7588v-6.8926h.137c.1148.4596.2756.9064.4802 1.3336.318.6958.8394 1.279 1.4954 1.6726.6804.3712 1.4466.5558 2.2214.5352 1.5736 0 2.7718-.6128 3.5948-1.8382.823-1.2256 1.2346-2.9358 1.2346-5.1304 0-2.1198-.3982-3.7792-1.1946-4.978-.7962-1.199-1.9806-1.7984-3.553-1.7984zm.3812 9.4224c-.4382.635-1.124.9526-2.0576.9526-.3848.0178-.7684-.0564-1.119-.2164-.3504-.16-.6578-.4012-.8966-.7038-.4864-.6108-.729-1.4472-.7276-2.509v-.2476c0-1.0782.2424-1.9038.7276-2.4766s1.157-.856 2.0156-.8496c.95 0 1.6402.3016 2.0708.9048.4306.6034.6458 1.4448.6458 2.5242.0026 1.1164-.2158 1.9902-.6552 2.6214z"/></g></svg>