<svg fill="none" height="90" viewBox="0 0 90 90" width="90" xmlns="http://www.w3.org/2000/svg" xmlns:xlink="http://www.w3.org/1999/xlink"><linearGradient id="a" gradientUnits="userSpaceOnUse" x1="17.6795" x2="72.3205" y1="92.3205" y2="-2.3205"><stop offset="0" stop-color="#0845bf"/><stop offset=".6" stop-color="#0b5cff"/><stop offset="1" stop-color="#4f90ee"/></linearGradient><path d="m5 13c0-4.41828 3.58172-8 8-8h64c4.4183 0 8 3.58172 8 8v64c0 4.4183-3.5817 8-8 8h-64c-4.41828 0-8-3.5817-8-8z" fill="url(#a)"/><path d="m28.8886 51.1253h-9.9226c-.6962 0-1.3182-.4156-1.5846-1.0588s-.1204-1.3769.3718-1.8691l6.873-6.873h-4.926c-1.3532 0-2.4502-1.097-2.4502-2.4502h9.1508c.6961 0 1.3181.4155 1.5845 1.0587.2665.6432.1206 1.3768-.3716 1.8692l-6.873 6.873h5.6977c1.3532 0 2.4502 1.097 2.4502 2.4502zm43.8591-7.6569c0-2.6346-2.1434-4.778-4.7779-4.778-1.4093 0-2.6776.6137-3.5529 1.5874-.8753-.9737-2.1436-1.5874-3.5528-1.5874-2.6346 0-4.778 2.1434-4.778 4.778v7.6569c1.3533 0 2.4503-1.097 2.4503-2.4502v-5.2067c0-1.2835 1.0442-2.3277 2.3277-2.3277s2.3277 1.0442 2.3277 2.3277v5.2067c0 1.3532 1.097 2.4502 2.4503 2.4502v-7.6569c0-1.2835 1.0442-2.3277 2.3277-2.3277s2.3277 1.0442 2.3277 2.3277v5.2067c0 1.3532 1.097 2.4502 2.4502 2.4502zm-17.8867 1.5314c0 3.4845-2.8248 6.3093-6.3093 6.3093-3.4846 0-6.3094-2.8248-6.3094-6.3093 0-3.4846 2.8248-6.3094 6.3094-6.3094 3.4845 0 6.3093 2.8248 6.3093 6.3094zm-2.4502 0c0-2.1314-1.7278-3.8591-3.8591-3.8591s-3.8591 1.7277-3.8591 3.8591c0 2.1313 1.7278 3.8591 3.8591 3.8591s3.8591-1.7278 3.8591-3.8591zm-11.1485 0c0 3.4845-2.8248 6.3093-6.3094 6.3093-3.4845 0-6.3093-2.8248-6.3093-6.3093 0-3.4846 2.8248-6.3094 6.3093-6.3094 3.4846 0 6.3094 2.8248 6.3094 6.3094zm-2.4503 0c0-2.1314-1.7278-3.8591-3.8591-3.8591s-3.8591 1.7277-3.8591 3.8591c0 2.1313 1.7278 3.8591 3.8591 3.8591s3.8591-1.7278 3.8591-3.8591z" fill="#fff"/></svg>