<?xml version="1.0" encoding="UTF-8" standalone="no"?><!-- Generator: Gravit.io --><svg xmlns="http://www.w3.org/2000/svg" xmlns:xlink="http://www.w3.org/1999/xlink" style="isolation:isolate" viewBox="0 0 46.42 14.92" width="46.42pt" height="14.92pt"><path d=" M 8.28 14.72 L 7.82 14.72 L 7.82 7.74 L 0.46 7.74 L 0.46 14.72 L 0 14.72 L 0 1.1 L 0.46 1.1 L 0.46 7.3 L 7.82 7.3 L 7.82 1.1 L 8.28 1.1 L 8.28 14.72 Z  M 19.96 9.04 L 19.96 9.04 Q 19.96 9.36 19.92 9.8 L 19.92 9.8 L 12.66 9.8 L 12.66 9.8 Q 12.74 12.12 13.73 13.31 L 13.73 13.31 L 13.73 13.31 Q 14.72 14.5 16.34 14.5 L 16.34 14.5 L 16.34 14.5 Q 17.22 14.5 17.89 14.23 L 17.89 14.23 L 17.89 14.23 Q 18.56 13.96 19.28 13.36 L 19.28 13.36 L 19.52 13.7 L 19.52 13.7 Q 18.8 14.3 18.05 14.61 L 18.05 14.61 L 18.05 14.61 Q 17.3 14.92 16.34 14.92 L 16.34 14.92 L 16.34 14.92 Q 14.44 14.92 13.32 13.52 L 13.32 13.52 L 13.32 13.52 Q 12.2 12.12 12.2 9.62 L 12.2 9.62 L 12.2 9.62 Q 12.2 7.94 12.69 6.7 L 12.69 6.7 L 12.69 6.7 Q 13.18 5.46 14.08 4.8 L 14.08 4.8 L 14.08 4.8 Q 14.98 4.14 16.18 4.14 L 16.18 4.14 L 16.18 4.14 Q 18.04 4.14 19 5.46 L 19 5.46 L 19 5.46 Q 19.96 6.78 19.96 9.04 L 19.96 9.04 Z  M 19.52 9.42 L 19.52 8.88 L 19.52 8.88 Q 19.52 6.9 18.69 5.72 L 18.69 5.72 L 18.69 5.72 Q 17.86 4.54 16.22 4.54 L 16.22 4.54 L 16.22 4.54 Q 14.66 4.54 13.68 5.79 L 13.68 5.79 L 13.68 5.79 Q 12.7 7.04 12.66 9.42 L 12.66 9.42 L 19.52 9.42 Z  M 25.02 14.92 L 25.02 14.92 Q 24.36 14.92 23.97 14.51 L 23.97 14.51 L 23.97 14.51 Q 23.58 14.1 23.58 13.28 L 23.58 13.28 L 23.58 0.06 L 24.02 0 L 24.02 13.26 L 24.02 13.26 Q 24.02 14.5 25.04 14.5 L 25.04 14.5 L 25.04 14.5 Q 25.46 14.5 25.84 14.34 L 25.84 14.34 L 25.96 14.72 L 25.96 14.72 Q 25.44 14.92 25.02 14.92 L 25.02 14.92 Z  M 30.54 14.92 L 30.54 14.92 Q 29.88 14.92 29.49 14.51 L 29.49 14.51 L 29.49 14.51 Q 29.1 14.1 29.1 13.28 L 29.1 13.28 L 29.1 0.06 L 29.54 0 L 29.54 13.26 L 29.54 13.26 Q 29.54 14.5 30.56 14.5 L 30.56 14.5 L 30.56 14.5 Q 30.98 14.5 31.36 14.34 L 31.36 14.34 L 31.48 14.72 L 31.48 14.72 Q 30.96 14.92 30.54 14.92 L 30.54 14.92 Z  M 37.98 4.14 L 37.98 4.14 Q 39.9 4.14 41.01 5.53 L 41.01 5.53 L 41.01 5.53 Q 42.12 6.92 42.12 9.48 L 42.12 9.48 L 42.12 9.48 Q 42.12 12.04 41 13.48 L 41 13.48 L 41 13.48 Q 39.88 14.92 37.96 14.92 L 37.96 14.92 L 37.96 14.92 Q 36.02 14.92 34.92 13.49 L 34.92 13.49 L 34.92 13.49 Q 33.82 12.06 33.82 9.54 L 33.82 9.54 L 33.82 9.54 Q 33.82 7 34.95 5.57 L 34.95 5.57 L 34.95 5.57 Q 36.08 4.14 37.98 4.14 L 37.98 4.14 Z  M 37.98 4.54 L 37.98 4.54 Q 36.26 4.54 35.27 5.84 L 35.27 5.84 L 35.27 5.84 Q 34.28 7.14 34.28 9.54 L 34.28 9.54 L 34.28 9.54 Q 34.28 11.9 35.25 13.2 L 35.25 13.2 L 35.25 13.2 Q 36.22 14.5 37.96 14.5 L 37.96 14.5 L 37.96 14.5 Q 39.68 14.5 40.67 13.2 L 40.67 13.2 L 40.67 13.2 Q 41.66 11.9 41.66 9.48 L 41.66 9.48 L 41.66 9.48 Q 41.66 7.12 40.69 5.83 L 40.69 5.83 L 40.69 5.83 Q 39.72 4.54 37.98 4.54 L 37.98 4.54 Z  M 45.72 1.1 L 46.14 1.1 L 46.14 10.68 L 45.72 10.68 L 45.72 1.1 Z  M 45.94 13.96 L 45.94 13.96 Q 46.16 13.96 46.29 14.09 L 46.29 14.09 L 46.29 14.09 Q 46.42 14.22 46.42 14.44 L 46.42 14.44 L 46.42 14.44 Q 46.42 14.62 46.29 14.75 L 46.29 14.75 L 46.29 14.75 Q 46.16 14.88 45.94 14.88 L 45.94 14.88 L 45.94 14.88 Q 45.74 14.88 45.61 14.75 L 45.61 14.75 L 45.61 14.75 Q 45.48 14.62 45.48 14.44 L 45.48 14.44 L 45.48 14.44 Q 45.48 14.22 45.61 14.09 L 45.61 14.09 L 45.61 14.09 Q 45.74 13.96 45.94 13.96 L 45.94 13.96 Z " fill="rgb(0,0,0)"/></svg>