<svg xmlns="http://www.w3.org/2000/svg" xmlns:xlink="http://www.w3.org/1999/xlink" viewBox="0 0 109.099 23.487">
<!--width="109.099pt" height="23.487pt">-->
    <defs>
        <clipPath id="_clipPath_aY3oZgUCm6HN9DaLe4GnK1DsDGnRPv5Q">
            <rect width="109.099" height="23.487"/>
        </clipPath>
    </defs>
    <g clip-path="url(#_clipPath_aY3oZgUCm6HN9DaLe4GnK1DsDGnRPv5Q)">
        <path d=" M 78.304 10.595 C 79.024 10.595 79.744 10.035 79.964 9.335 C 80.184 8.635 79.804 8.095 79.144 8.095 C 78.424 8.095 77.684 8.635 77.464 9.335 C 77.224 10.035 77.604 10.595 78.304 10.595 L 78.304 10.595 L 78.304 10.595 L 78.304 10.595 L 78.304 10.595 L 78.304 10.595 L 78.304 10.595 L 78.304 10.595 L 78.304 10.595 L 78.304 10.595 L 78.304 10.595 Z " fill="red" id="I2-dot" />
        <path d=" M 90.704 10.595 C 91.424 10.595 92.144 10.035 92.364 9.335 C 92.584 8.635 92.204 8.095 91.544 8.095 C 90.824 8.095 90.084 8.635 89.864 9.335 C 89.624 10.035 90.004 10.595 90.704 10.595 L 90.704 10.595 L 90.704 10.595 L 90.704 10.595 L 90.704 10.595 L 90.704 10.595 L 90.704 10.595 Z " fill="blue" id="I1-dot" />
        <path d=" M 106.104 21.895 C 105.844 22.695 106.284 23.355 107.084 23.355 C 107.904 23.355 108.764 22.695 109.024 21.895 C 109.284 21.095 108.844 20.435 108.024 20.435 C 107.224 20.435 106.364 21.095 106.104 21.895 L 106.104 21.895 L 106.104 21.895 L 106.104 21.895 Z " fill="green" id="period" />
        <path d=" M 84.785 13.803 C 84.078 16.186 83.234 18.309 82.904 20.915 C 82.904 20.915 82.664 22.475 83.564 22.335 C 84.879 21.885 87.033 17.918 88.07 15.576 L 88.07 15.576 C 88.608 13.972 88.536 13.887 89.164 12.075 C 89.504 11.175 90.384 11.215 90.804 11.375 C 91.404 11.555 91.324 12.295 91.184 12.815 C 90.184 16.455 89.644 17.155 89.084 20.895 C 89.084 20.895 88.844 22.455 89.744 22.315 C 90.805 21.952 92.411 19.302 93.502 17.104 C 93.515 17.039 93.529 16.976 93.544 16.915 C 93.544 16.915 94.464 14.195 95.144 12.135 C 95.184 12.015 95.284 11.875 95.444 11.795 C 95.584 11.715 95.764 11.675 97.024 11.695 C 97.404 11.695 97.144 12.495 97.104 12.655 C 96.824 13.455 96.544 14.275 96.084 15.555 C 96.064 15.655 96.064 15.715 96.144 15.655 C 96.184 15.615 96.164 15.555 100.264 9.415 C 101.024 8.275 102.624 7.775 103.384 8.895 C 103.624 9.355 103.524 9.855 103.404 10.375 C 101.924 14.975 101.184 17.235 100.764 18.635 C 100.644 19.075 100.164 20.895 100.964 21.735 C 100.964 21.735 101.684 22.315 102.544 21.775 C 103.584 21.095 104.644 19.355 105.464 17.795 C 105.984 16.855 106.404 15.875 106.864 14.815 L 107.484 14.815 C 105.984 18.195 103.324 23.795 100.344 23.315 C 99.664 23.215 99.164 22.915 98.844 22.515 C 97.744 21.195 98.464 18.495 98.984 16.915 L 98.984 16.895 L 101.244 10.335 C 101.424 9.715 100.884 9.955 100.604 10.215 C 98.904 12.875 95.964 17.535 95.164 18.615 C 94.824 19.055 94.524 19.255 94.004 19.155 C 93.736 18.968 93.578 18.712 93.488 18.429 L 93.488 18.429 L 93.488 18.429 L 93.488 18.429 L 93.488 18.429 C 91.996 21.304 89.949 24.263 88.024 23.095 C 87.504 22.735 87.304 21.935 87.244 21.055 C 87.19 20.178 87.288 19.19 87.474 18.219 C 85.846 21.558 83.709 24.559 81.844 23.115 C 81.184 22.635 81.004 21.475 81.024 20.355 C 81.024 19.865 81.062 19.308 81.144 18.688 C 81.16 18.525 81.184 18.352 81.211 18.174 L 81.211 18.174 L 81.211 18.174 L 81.211 18.174 C 81.18 18.234 81.15 18.294 81.117 18.355 L 81.117 18.355 L 81.411 16.465 C 81.473 16.344 81.52 16.244 81.565 16.145 C 81.663 15.704 81.771 15.25 81.88 14.796 C 82.595 12.041 83.686 8.982 85 6.381 L 87.652 6.066 L 87.652 6.066 C 87.438 6.509 87.216 6.985 86.984 7.495 C 86.526 8.534 86.14 9.591 85.919 10.219 L 85.919 10.219 C 85.794 10.602 85.717 10.844 85.684 10.955 C 85.799 10.809 85.911 10.667 85.951 10.609 L 85.464 12.281 L 85.464 12.281 C 85.254 12.514 85.173 12.621 85.104 12.715 C 85.005 13.088 84.9 13.453 84.785 13.803 L 84.785 13.803 Z " fill="yellow" id="LIN" />
        <path d=" M 82.072 15.795 C 81.647 16.495 80.771 17.761 80.529 18.207 C 80.205 18.805 78.231 22.011 77.344 22.315 C 76.444 22.455 76.684 20.895 76.684 20.895 C 77.244 17.155 77.784 16.455 78.784 12.815 C 78.924 12.295 79.004 11.555 78.404 11.375 C 77.984 11.215 77.104 11.175 76.764 12.075 C 76.158 13.823 76.204 13.964 75.707 15.456 L 75.707 15.456 C 75.346 16.278 74.997 17.049 74.584 17.795 C 73.764 19.355 72.704 21.095 71.664 21.775 C 70.804 22.315 70.084 21.735 70.084 21.735 C 69.284 20.895 69.764 19.075 69.884 18.635 C 70.244 17.395 70.884 15.475 72.064 11.835 C 72.064 11.835 72.364 10.875 71.424 10.675 C 70.484 10.475 70.064 11.215 70.064 11.215 L 68.824 14.815 L 68.604 15.555 C 68.184 16.435 66.484 19.875 64.504 20.815 C 64.184 20.955 63.204 21.255 63.264 19.835 C 63.324 17.655 65.844 12.895 67.184 12.175 C 67.564 11.975 67.784 12.155 67.864 12.235 C 68.484 12.575 68.584 11.935 68.224 11.635 C 66.093 9.913 63.559 13.252 62.467 16.536 C 62.263 16.96 62.053 17.381 61.824 17.795 C 61.504 18.415 61.144 19.075 60.744 19.675 C 60.164 20.575 59.544 21.355 58.904 21.775 C 58.824 21.815 58.724 21.875 58.644 21.895 C 57.344 22.375 56.844 20.835 56.684 19.915 C 56.644 19.715 56.604 19.515 56.584 19.315 C 56.484 18.455 56.504 17.695 56.504 17.695 C 56.704 13.975 54.544 13.195 54.544 13.195 C 56.284 12.715 56.304 12.935 58.564 8.395 C 60.824 3.855 62.084 4.355 62.624 3.915 C 63.164 3.495 62.624 3.375 62.624 3.375 C 59.764 3.175 57.304 9.215 56.524 10.735 C 55.744 12.255 54.264 12.355 54.264 12.355 L 53.684 12.275 C 54.104 10.995 54.404 10.015 54.564 9.515 L 54.584 9.475 L 55.044 8.155 C 55.044 8.155 55.024 8.155 55.024 8.155 C 55.824 5.755 56.664 3.635 57.784 3.615 C 55.804 3.175 53.784 3.435 52.804 3.655 C 50.964 4.075 49.824 5.075 49.424 6.915 L 49.344 7.455 C 49.324 7.635 49.464 7.815 49.644 7.835 C 49.864 7.835 50.024 7.715 50.044 7.535 C 50.224 5.835 51.384 4.595 52.944 4.335 C 53.904 4.175 54.744 4.335 54.764 4.335 C 54.764 4.335 54.764 4.335 54.784 4.335 C 54.204 4.575 53.644 5.655 53.364 6.315 C 52.164 9.895 51.024 13.495 49.864 17.075 L 49.664 17.575 C 49.664 17.575 48.184 22.475 46.444 22.035 C 45.884 21.975 44.884 21.675 44.604 20.355 C 44.444 19.575 44.644 18.935 44.804 18.335 C 44.927 18.307 45.118 17.665 45.084 17.675 C 45.644 16.495 47.024 15.455 48.344 15.715 L 48.344 15.715 L 48.344 15.715 L 48.344 15.715 L 48.344 15.715 L 48.344 15.715 L 48.344 15.715 L 48.344 15.715 L 48.344 15.715 L 48.344 15.715 L 48.344 15.715 L 48.344 15.715 L 48.344 15.715 C 48.724 15.775 49.164 16.115 49.044 16.535 C 49.024 16.555 48.884 16.935 48.404 17.075 C 47.921 17.233 47.381 17.309 46.847 17.373 L 46.778 18.054 C 47.727 17.957 48.666 17.807 49.184 17.435 C 49.644 17.115 49.824 16.475 49.544 15.935 C 48.904 14.775 47.464 14.835 46.464 15.295 C 45.584 15.715 44.844 16.475 44.424 17.195 C 44.304 17.395 44.204 17.615 44.144 17.815 C 44.124 17.883 43.787 18.612 43.904 18.575 C 43.364 20.355 44.244 22.455 45.924 23.135 C 47.004 23.495 48.144 23.515 49.064 22.795 C 49.904 22.155 50.504 20.955 50.724 20.455 C 51.684 18.135 52.604 15.495 53.324 13.375 L 53.864 13.515 C 55.104 14.275 54.224 16.715 54.264 18.655 C 54.324 20.575 54.624 23.335 56.824 23.355 C 56.964 23.375 57.104 23.355 57.224 23.335 C 59.019 23.206 60.671 21.019 61.995 18.637 L 61.995 18.637 L 61.995 18.637 L 61.995 18.637 C 61.902 19.374 61.925 20.036 62.084 20.555 C 62.544 22.015 64.624 21.775 65.704 20.915 C 66.504 20.275 67.184 19.395 67.684 18.675 C 67.504 19.495 67.084 21.955 68.424 22.935 C 68.704 23.135 69.044 23.255 69.464 23.315 C 71.634 23.664 73.634 20.791 75.13 17.899 C 74.912 18.972 74.784 20.082 74.844 21.055 C 74.904 21.935 75.104 22.735 75.624 23.095 C 77.567 24.274 79.634 21.248 81.117 18.355 L 81.117 18.355 L 81.13 18.325 Q 85.256 12.513 85.464 12.281 L 85.464 12.281 L 85.464 12.281 L 85.951 10.609 C 85.911 10.667 85.799 10.809 85.684 10.955 C 85.704 10.888 83.423 13.922 82.49 15.184 C 82.309 15.428 82.179 15.606 82.217 15.563 C 82.116 15.697 82.109 15.708 82.104 15.715 C 82.1 15.721 82.096 15.729 82.072 15.795 Z  M 87.652 6.066 C 89.9 1.404 91.113 0.485 91.624 1.435 L 91.624 1.435 L 91.624 1.435 L 91.624 1.435 L 91.624 1.435 L 91.624 1.435 L 91.624 1.435 L 91.624 1.435 C 91.744 2.195 90.464 4.335 90.104 4.935 C 89.471 5.933 88.616 7.226 85.951 10.609 L 85.464 12.281 L 85.464 12.281 C 87.455 9.711 95.484 0.995 91.844 0.095 C 89.449 -0.575 86.973 2.385 85 6.381 L 87.652 6.066 L 87.652 6.066 L 87.652 6.066 Z " fill-rule="evenodd" fill="orange" id="KAIL" />
        <path d=" M 43.894 18.577 C 42.261 19.098 41.445 20.098 41.564 22.054 C 41.644 22.474 41.364 22.814 40.944 22.794 C 40.484 22.774 40.104 22.414 40.024 21.994 C 39.624 19.514 42.004 18.254 44.144 17.814 L 45.336 17.606 C 45.736 17.509 46.177 17.455 46.624 17.4 C 47.119 17.339 47.621 17.277 48.084 17.156 L 48.084 17.846 C 47.181 18.065 46.021 18.122 45.165 18.264 Q 44.512 18.394 43.894 18.577 Z " id="K-tail" fill="magenta"/>
        <path d=" M 37.224 14.815 C 35.104 19.755 33.684 21.255 32.824 21.575 C 32.704 21.595 32.624 21.615 32.524 21.615 C 31.084 21.415 31.844 17.755 32.604 15.115 C 33.704 11.635 33.804 11.395 33.844 11.155 C 33.964 10.675 33.904 10.135 33.344 9.715 C 32.084 8.775 30.584 11.395 30.584 11.395 C 29.444 13.155 27.924 16.035 26.524 17.375 C 26.264 17.635 26.184 17.235 26.204 17.075 C 26.204 16.975 26.224 16.855 26.524 15.855 C 27.404 12.955 27.604 12.635 27.664 12.355 C 28.064 10.995 27.864 10.435 27.584 10.215 C 26.684 9.595 25.304 11.335 25.184 11.475 C 23.744 13.395 22.684 15.395 21.264 17.135 C 20.924 17.515 20.984 17.135 20.984 17.135 C 20.984 17.135 21.904 14.695 22.664 12.455 C 22.984 11.495 22.584 11.495 22.584 11.495 L 21.564 11.495 C 21.024 11.455 20.784 11.715 20.684 11.935 C 20.024 13.995 19.104 16.715 19.104 16.715 C 19.104 16.715 18.504 18.675 19.904 19.115 C 20.224 19.195 20.744 19.155 21.744 17.695 C 25.004 12.635 25.544 11.835 25.804 11.595 C 26.024 11.375 26.304 11.595 26.184 11.855 C 25.704 13.575 25.144 15.295 24.644 17.015 C 24.524 17.895 24.924 18.695 25.744 18.575 C 26.704 18.435 27.544 17.095 28.024 16.455 C 29.104 14.815 30.164 13.295 31.104 11.715 C 31.104 11.715 31.564 10.915 31.724 11.135 C 30.624 14.435 28.024 20.815 30.924 23.055 C 32.004 24.015 33.444 22.815 34.564 21.015 C 36.184 18.415 37.844 14.815 37.844 14.815 L 37.224 14.815 L 37.224 14.815 L 37.224 14.815 Z " fill="olive" id="M" />
        <path d=" M 21.784 5.975 L 21.784 5.995 C 22.004 5.195 21.564 4.595 20.764 4.595 C 19.964 4.595 19.104 5.235 18.844 6.055 C 18.564 6.855 19.024 7.515 19.824 7.515 C 19.944 7.515 20.044 7.495 20.144 7.475 C 19.504 8.915 18.284 9.175 17.984 9.375 C 17.664 9.595 18.004 9.655 18.004 9.655 C 20.764 9.455 21.784 5.975 21.784 5.975 L 21.784 5.975 L 21.784 5.975 L 21.784 5.975 L 21.784 5.975 L 21.784 5.975 L 21.784 5.975 L 21.784 5.975 L 21.784 5.975 L 21.784 5.975 L 21.784 5.975 L 21.784 5.975 L 21.784 5.975 L 21.784 5.975 Z " fill="indigo" id="apostrophe" />
        <path d=" M 4.628 19.246 C 2.995 19.766 2.178 20.766 2.298 22.722 C 2.378 23.142 2.098 23.482 1.678 23.462 C 1.218 23.442 0.838 23.082 0.758 22.662 C 0.358 20.182 2.738 18.922 4.878 18.482 L 6.069 18.274 C 6.469 18.178 6.91 18.123 7.358 18.068 C 7.852 18.007 8.354 17.945 8.818 17.824 L 8.818 18.514 C 7.915 18.734 6.754 18.791 5.898 18.933 Q 5.246 19.063 4.628 19.246 Z " fill="silver" id="I-tail" />
        <path d=" M 4.766 18.523 C 4.826 18.323 4.926 18.103 5.046 17.903 C 5.466 17.183 6.206 16.423 7.086 16.003 C 8.086 15.543 9.526 15.483 10.166 16.643 C 10.446 17.183 10.266 17.823 9.806 18.143 C 9.538 18.335 9.159 18.468 8.706 18.555 L 8.706 17.865 C 8.818 17.846 8.923 17.817 9.026 17.783 C 9.506 17.643 9.646 17.263 9.666 17.243 C 9.786 16.823 9.346 16.483 8.966 16.423 C 7.662 16.166 6.299 17.179 5.726 18.341 C 5.719 18.355 5.712 18.369 5.706 18.383 L 4.766 18.523 Z  M 5.824 18.315 C 5.664 18.915 5.464 19.555 5.624 20.335 C 5.904 21.655 6.904 21.955 7.464 22.015 C 9.204 22.455 10.684 17.555 10.684 17.555 L 10.884 17.055 C 12.044 13.475 13.184 9.875 14.384 6.295 C 14.664 5.635 15.224 4.555 15.804 4.315 C 15.784 4.315 15.784 4.315 15.784 4.315 C 15.764 4.315 14.924 4.155 13.964 4.315 C 12.404 4.575 11.244 5.815 11.064 7.515 C 11.044 7.695 10.884 7.815 10.664 7.815 C 10.484 7.795 10.344 7.615 10.364 7.435 L 10.444 6.895 C 10.844 5.055 11.984 4.055 13.824 3.635 C 14.804 3.415 16.824 3.155 18.804 3.595 C 17.684 3.615 16.844 5.735 16.044 8.135 C 16.044 8.135 16.064 8.135 16.064 8.135 L 15.604 9.455 L 15.604 9.455 L 15.584 9.495 C 15.144 10.895 13.484 16.175 11.744 20.435 C 11.524 20.935 10.924 22.135 10.084 22.775 C 9.164 23.495 8.024 23.475 6.944 23.115 C 5.264 22.435 4.384 20.335 4.924 18.555 L 5.726 18.341 L 5.824 18.315 Z " fill-rule="evenodd" fill="turquoise" id="I" />
    </g>
</svg>
